mtllib keyboard_key_0_9_F9_link.mtl
o keyboard_key_0_9_F9_link

g keyboard_key_0_9_F9_SOLID
v -0.0164999962 -0.0119999945 0
v -0.0164999962 -0.00849999487 -0.00349999964
v -0.0199999958 -0.00849999487 0
v -0.0164999962 -0.0117335767 -0.00133939087
v -0.0164999962 -0.0109748691 -0.00247487426
v -0.0178393945 -0.0117335767 0
v -0.0178729594 -0.0114120394 -0.00137295946
v -0.0178032964 -0.0107968897 -0.00229689106
v -0.0185207278 -0.0105207264 -0.00202072784
v -0.0178393945 -0.00849999487 -0.00323357806
v -0.0189748704 -0.00849999487 -0.00247487426
v -0.0164999962 -0.00983938575 -0.00323357806
v -0.0178729594 -0.00987295806 -0.0029120408
v -0.018796891 -0.00980329514 -0.00229689106
v -0.019733578 -0.00983938575 0
v -0.0189748704 -0.0109748691 0
v -0.019733578 -0.00849999487 -0.00133939087
v -0.0194120407 -0.00987295806 -0.00137295946
v -0.018796891 -0.0107968897 -0.00130329654
v 0.0164999962 -0.0119999945 0
v 0.0199999958 -0.00849999487 0
v 0.0164999962 -0.00849999487 -0.00349999964
v 0.0178393871 -0.0117335767 0
v 0.0189748704 -0.0109748691 0
v 0.0164999962 -0.0117335767 -0.00133939087
v 0.0178729594 -0.0114120394 -0.00137295946
v 0.018796891 -0.0107968897 -0.00130329654
v 0.0185207278 -0.0105207264 -0.00202072784
v 0.019733578 -0.00849999487 -0.00133939087
v 0.0189748704 -0.00849999487 -0.00247487426
v 0.019733578 -0.00983938575 0
v 0.0194120407 -0.00987295806 -0.00137295946
v 0.018796891 -0.00980329514 -0.00229689106
v 0.0164999962 -0.00983938575 -0.00323357806
v 0.0164999962 -0.0109748691 -0.00247487426
v 0.0178393871 -0.00849999487 -0.00323357806
v 0.0178729594 -0.00987295806 -0.0029120408
v 0.0178032964 -0.0107968897 -0.00229689106
v 0.0164999962 0.0119999945 0
v 0.0164999962 0.00849999487 -0.00349999964
v 0.0199999958 0.00849999487 0
v 0.0164999962 0.0117335767 -0.00133939087
v 0.0164999962 0.0109748691 -0.00247487426
v 0.0178393871 0.0117335767 0
v 0.0178729594 0.0114120394 -0.00137295946
v 0.0178032964 0.0107968897 -0.00229689106
v 0.0185207278 0.0105207264 -0.00202072784
v 0.0178393871 0.00849999487 -0.00323357806
v 0.0189748704 0.00849999487 -0.00247487426
v 0.0164999962 0.00983938575 -0.00323357806
v 0.0178729594 0.00987295806 -0.0029120408
v 0.018796891 0.00980329514 -0.00229689106
v 0.019733578 0.00983938575 0
v 0.0189748704 0.0109748691 0
v 0.019733578 0.00849999487 -0.00133939087
v 0.0194120407 0.00987295806 -0.00137295946
v 0.018796891 0.0107968897 -0.00130329654
v -0.0164999962 0.0119999945 0
v -0.0199999958 0.00849999487 0
v -0.0164999962 0.00849999487 -0.00349999964
v -0.0178393945 0.0117335767 0
v -0.0189748704 0.0109748691 0
v -0.0164999962 0.0117335767 -0.00133939087
v -0.0178729594 0.0114120394 -0.00137295946
v -0.018796891 0.0107968897 -0.00130329654
v -0.0185207278 0.0105207264 -0.00202072784
v -0.019733578 0.00849999487 -0.00133939087
v -0.0189748704 0.00849999487 -0.00247487426
v -0.019733578 0.00983938575 0
v -0.0194120407 0.00987295806 -0.00137295946
v -0.018796891 0.00980329514 -0.00229689106
v -0.0164999962 0.00983938575 -0.00323357806
v -0.0164999962 0.0109748691 -0.00247487426
v -0.0178393945 0.00849999487 -0.00323357806
v -0.0178729594 0.00987295806 -0.0029120408
v -0.0178032964 0.0107968897 -0.00229689106
v -0.0199999958 -0.00849999487 0
v -0.0164999962 -0.00849999487 0.00350000337
v -0.0164999962 -0.0119999945 0
v -0.019733578 -0.00849999487 0.00133939087
v -0.0189748704 -0.00849999487 0.00247487426
v -0.019733578 -0.00983938575 0
v -0.0194120407 -0.00987295806 0.00137295946
v -0.018796891 -0.00980329514 0.00229689106
v -0.0185207278 -0.0105207264 0.00202072784
v -0.0164999962 -0.00983938575 0.00323357806
v -0.0164999962 -0.0109748691 0.00247487426
v -0.0178393945 -0.00849999487 0.00323357806
v -0.0178729594 -0.00987295806 0.0029120408
v -0.0178032964 -0.0107968897 0.00229689106
v -0.0178393945 -0.0117335767 0
v -0.0189748704 -0.0109748691 0
v -0.0164999962 -0.0117335767 0.00133939087
v -0.0178729594 -0.0114120394 0.00137295946
v -0.018796891 -0.0107968897 0.00130329654
v 0.0164999962 -0.0119999945 0
v 0.0164999962 -0.00849999487 0.00350000337
v 0.0199999958 -0.00849999487 0
v 0.0164999962 -0.0117335767 0.00133939087
v 0.0164999962 -0.0109748691 0.00247487426
v 0.0178393871 -0.0117335767 0
v 0.0178729594 -0.0114120394 0.00137295946
v 0.0178032964 -0.0107968897 0.00229689106
v 0.0185207278 -0.0105207264 0.00202072784
v 0.0178393871 -0.00849999487 0.00323357806
v 0.0189748704 -0.00849999487 0.00247487426
v 0.0164999962 -0.00983938575 0.00323357806
v 0.0178729594 -0.00987295806 0.0029120408
v 0.018796891 -0.00980329514 0.00229689106
v 0.019733578 -0.00983938575 0
v 0.0189748704 -0.0109748691 0
v 0.019733578 -0.00849999487 0.00133939087
v 0.0194120407 -0.00987295806 0.00137295946
v 0.018796891 -0.0107968897 0.00130329654
v 0.0164999962 0.00849999487 0.00350000337
v 0.0164999962 0.0119999945 0
v 0.0199999958 0.00849999487 0
v 0.0164999962 0.00983938575 0.00323357806
v 0.0164999962 0.0109748691 0.00247487426
v 0.0178393871 0.00849999487 0.00323357806
v 0.0178729594 0.00987295806 0.0029120408
v 0.0178032964 0.0107968897 0.00229689106
v 0.0185207278 0.0105207264 0.00202072784
v 0.0178393871 0.0117335767 0
v 0.0189748704 0.0109748691 0
v 0.0164999962 0.0117335767 0.00133939087
v 0.0178729594 0.0114120394 0.00137295946
v 0.018796891 0.0107968897 0.00130329654
v 0.019733578 0.00849999487 0.00133939087
v 0.0189748704 0.00849999487 0.00247487426
v 0.019733578 0.00983938575 0
v 0.0194120407 0.00987295806 0.00137295946
v 0.018796891 0.00980329514 0.00229689106
v -0.0199999958 0.00849999487 0
v -0.0164999962 0.0119999945 0
v -0.0164999962 0.00849999487 0.00350000337
v -0.019733578 0.00983938575 0
v -0.0189748704 0.0109748691 0
v -0.019733578 0.00849999487 0.00133939087
v -0.0194120407 0.00987295806 0.00137295946
v -0.018796891 0.0107968897 0.00130329654
v -0.0185207278 0.0105207264 0.00202072784
v -0.0164999962 0.0117335767 0.00133939087
v -0.0164999962 0.0109748691 0.00247487426
v -0.0178393945 0.0117335767 0
v -0.0178729594 0.0114120394 0.00137295946
v -0.0178032964 0.0107968897 0.00229689106
v -0.0178393945 0.00849999487 0.00323357806
v -0.0189748704 0.00849999487 0.00247487426
v -0.0164999962 0.00983938575 0.00323357806
v -0.0178729594 0.00987295806 0.0029120408
v -0.018796891 0.00980329514 0.00229689106
usemtl matte_black_keycaps_003
f 59 134 77 3
f 2 22 40 60
f 39 116 135 58
f 78 136 115 97
f 21 98 117 41
f 1 4 7 6
f 4 5 8 7
f 6 7 19 16
f 7 8 9 19
f 2 10 13 12
f 10 11 14 13
f 12 13 8 5
f 13 14 9 8
f 3 15 18 17
f 15 16 19 18
f 17 18 14 11
f 18 19 9 14
f 20 23 26 25
f 23 24 27 26
f 25 26 38 35
f 26 27 28 38
f 21 29 32 31
f 29 30 33 32
f 31 32 27 24
f 32 33 28 27
f 22 34 37 36
f 34 35 38 37
f 36 37 33 30
f 37 38 28 33
f 39 42 45 44
f 42 43 46 45
f 44 45 57 54
f 45 46 47 57
f 40 48 51 50
f 48 49 52 51
f 50 51 46 43
f 51 52 47 46
f 41 53 56 55
f 53 54 57 56
f 55 56 52 49
f 56 57 47 52
f 58 61 64 63
f 61 62 65 64
f 63 64 76 73
f 64 65 66 76
f 59 67 70 69
f 67 68 71 70
f 69 70 65 62
f 70 71 66 65
f 60 72 75 74
f 72 73 76 75
f 74 75 71 68
f 75 76 66 71
f 77 80 83 82
f 80 81 84 83
f 82 83 95 92
f 83 84 85 95
f 78 86 89 88
f 86 87 90 89
f 88 89 84 81
f 89 90 85 84
f 79 91 94 93
f 91 92 95 94
f 93 94 90 87
f 94 95 85 90
f 96 99 102 101
f 99 100 103 102
f 101 102 114 111
f 102 103 104 114
f 97 105 108 107
f 105 106 109 108
f 107 108 103 100
f 108 109 104 103
f 98 110 113 112
f 110 111 114 113
f 112 113 109 106
f 113 114 104 109
f 115 118 121 120
f 118 119 122 121
f 120 121 133 130
f 121 122 123 133
f 116 124 127 126
f 124 125 128 127
f 126 127 122 119
f 127 128 123 122
f 117 129 132 131
f 129 130 133 132
f 131 132 128 125
f 132 133 123 128
f 134 137 140 139
f 137 138 141 140
f 139 140 152 149
f 140 141 142 152
f 135 143 146 145
f 143 144 147 146
f 145 146 141 138
f 146 147 142 141
f 136 148 151 150
f 148 149 152 151
f 150 151 147 144
f 151 152 142 147
f 39 58 63 42
f 42 63 73 43
f 43 73 72 50
f 50 72 60 40
f 1 20 25 4
f 4 25 35 5
f 5 35 34 12
f 12 34 22 2
f 21 41 55 29
f 29 55 49 30
f 30 49 48 36
f 36 48 40 22
f 2 60 74 10
f 10 74 68 11
f 11 68 67 17
f 17 67 59 3
f 3 77 82 15
f 15 82 92 16
f 16 92 91 6
f 6 91 79 1
f 78 97 107 86
f 86 107 100 87
f 87 100 99 93
f 93 99 96 79
f 97 115 120 105
f 105 120 130 106
f 106 130 129 112
f 112 129 117 98
f 77 134 139 80
f 80 139 149 81
f 81 149 148 88
f 88 148 136 78
f 20 96 101 23
f 23 101 111 24
f 24 111 110 31
f 31 110 98 21
f 41 117 131 53
f 53 131 125 54
f 54 125 124 44
f 44 124 116 39
f 115 136 150 118
f 118 150 144 119
f 119 144 143 126
f 126 143 135 116
f 58 135 145 61
f 61 145 138 62
f 62 138 137 69
f 69 137 134 59
f 1 79 96 20

g key_legend_0_9_F9
v 0.000393882394 -0.00317850709 0.00450000539
v 0.000655189157 -0.0029796809 0.00450000539
v 0.000898435712 -0.00277453661 0.00450000539
v 0.00112314522 -0.00256407261 0.00450000539
v 0.00132882595 -0.00234931707 0.00450000539
v 0.00151500106 -0.00213125348 0.00450000539
v 0.00168116391 -0.00191089511 0.00450000539
v 0.00182685256 -0.00168925524 0.00450000539
v 0.00195156038 -0.00146734715 0.00450000539
v 0.00205481052 -0.00124615431 0.00450000539
v 0.00213612616 -0.00102670491 0.00450000539
v 0.00219500065 -0.00080999732 0.00450000539
v 0.00211799145 -0.000853523612 0.00450000539
v 0.00203731656 -0.000893980265 0.00450000539
v 0.00195343792 -0.000931248069 0.00450000539
v 0.00186684728 -0.000965192914 0.00450000539
v 0.00177803636 -0.000995650887 0.00450000539
v 0.0016874969 -0.00102250278 0.00450000539
v 0.00159570575 -0.00104559958 0.00450000539
v 0.00150313973 -0.00106482208 0.00450000539
v 0.0014103055 -0.00108000636 0.00450000539
v 0.00131767988 -0.00109101832 0.00450000539
v 0.00122575462 -0.00109773874 0.00450000539
v 0.00113499165 -0.00110000372 0.00450000539
v 0.000870153308 -0.00108204782 0.00450000539
v 0.000617042184 -0.00102968514 0.00450000539
v 0.000377804041 -0.000945165753 0.00450000539
v 0.00015462935 -0.000830739737 0.00450000539
v -5.03659248e-05 -0.000688686967 0.00450000539
v -0.000235006213 -0.00052125752 0.00450000539
v -0.000397145748 -0.000330686569 0.00450000539
v -0.000534638762 -0.000119253993 0.00450000539
v -0.000645309687 0.000110775232 0.00450000539
v -0.000727042556 0.000357180834 0.00450000539
v -0.000777646899 0.000617668033 0.00450000539
v -0.000795006752 0.000890001655 0.00450000539
v -0.000778138638 0.00114192069 0.00450000539
v -0.000728428364 0.00139032304 0.00450000539
v -0.000647187233 0.00163172185 0.00450000539
v -0.000535741448 0.00186258554 0.00450000539
v -0.000395402312 0.00207944214 0.00450000539
v -0.000227496028 0.00227874517 0.00450000539
v -3.33487988e-05 0.00245702267 0.00450000539
v 0.000185742974 0.00261074305 0.00450000539
v 0.000428438187 0.00273640454 0.00450000539
v 0.000693425536 0.00283050537 0.00450000539
v 0.000979378819 0.00288954377 0.00450000539
v 0.00128500164 0.00291000307 0.00450000539
v 0.00159238279 0.00288830698 0.00450000539
v 0.00188323855 0.00282485783 0.00450000539
v 0.00215561688 0.00272202492 0.00450000539
v 0.00240759552 0.00258222222 0.00450000539
v 0.00263719261 0.00240783393 0.00450000539
v 0.00284250081 0.00220124424 0.00450000539
v 0.00302155316 0.00196488202 0.00450000539
v 0.00317241251 0.00170111656 0.00450000539
v 0.00329312682 0.00141234696 0.00450000539
v 0.00338175893 0.00110097229 0.00450000539
v 0.00343635678 0.000769391656 0.00450000539
v 0.00345499814 0.000420004129 0.00450000539
v 0.00343164802 3.36766243e-06 0.00450000539
v 0.00336314738 -0.000418931246 0.00450000539
v 0.00325186551 -0.00084297359 0.00450000539
v 0.00310018659 -0.00126481056 0.00450000539
v 0.0029104352 -0.00168055296 0.00450000539
v 0.00268499553 -0.00208625197 0.00450000539
v 0.00242622197 -0.0024779886 0.00450000539
v 0.00213648379 -0.00285185874 0.00450000539
v 0.00181812048 -0.00320391357 0.00450000539
v 0.00147351623 -0.0035302341 0.00450000539
v 0.00110502541 -0.00382690132 0.00450000539
v 0.000715002418 -0.00408999622 0.00450000539
v 0.000114992261 -0.00337000191 0.00450000539
v 0.00141951442 -0.000167682767 0.00450000539
v 0.00149777532 -0.000160649419 0.00450000539
v 0.00157937407 -0.000148758292 0.00450000539
v 0.00166389346 -0.000131860375 0.00450000539
v 0.00175090134 -0.000109821558 0.00450000539
v 0.00183999538 -8.25077295e-05 0.00450000539
v 0.00193075836 -4.97698784e-05 0.00450000539
v 0.00202277303 -1.14887953e-05 0.00450000539
v 0.00211562216 3.24994326e-05 0.00450000539
v 0.00220888853 8.23140144e-05 0.00450000539
v 0.0023021549 0.000138103962 0.00450000539
v 0.00239500403 0.000200003386 0.00450000539
v 0.00240649283 0.000257983804 0.00450000539
v 0.00241605937 0.000312268734 0.00450000539
v 0.00242389739 0.000363275409 0.00450000539
v 0.00243018568 0.000411480665 0.00450000539
v 0.00243507326 0.000457316637 0.00450000539
v 0.00243875384 0.00050124526 0.00450000539
v 0.00244137645 0.00054371357 0.00450000539
v 0.00244314969 0.000585183501 0.00450000539
v 0.00244422257 0.000626087189 0.00450000539
v 0.00244477391 0.000666901469 0.00450000539
v 0.00244496763 0.000708043575 0.00450000539
v 0.00244499743 0.000750005245 0.00450000539
v 0.00243459642 0.000912845135 0.00450000539
v 0.00240430236 0.0010702759 0.00450000539
v 0.00235547125 0.00122062862 0.00450000539
v 0.00228944421 0.00136221945 0.00450000539
v 0.00220759213 0.00149339437 0.00450000539
v 0.00211124122 0.00161249936 0.00450000539
v 0.00200179219 0.00171785057 0.00450000539
v 0.00188055634 0.00180777907 0.00450000539
v 0.00174890459 0.00188061595 0.00450000539
v 0.00160819292 0.00193472207 0.00450000539
v 0.00145977736 0.00196839869 0.00450000539
v 0.00130499899 0.00197999179 0.00450000539
v 0.00114642084 0.00197078288 0.00450000539
v 0.000996336341 0.00194375217 0.00450000539
v 0.000855773687 0.00189983845 0.00450000539
v 0.000725746155 0.00183999538 0.00450000539
v 0.000607222319 0.00176516175 0.00450000539
v 0.00050124526 0.00167624652 0.00450000539
v 0.000408813357 0.00157421827 0.00450000539
v 0.000330924988 0.00146000087 0.00450000539
v 0.000268593431 0.0013345331 0.00450000539
v 0.000222817063 0.00119875371 0.00450000539
v 0.000194624066 0.0010535866 0.00450000539
v 0.000184997916 0.000900000334 0.00450000539
v 0.000195607543 0.000754997134 0.00450000539
v 0.000226482749 0.000615879893 0.00450000539
v 0.000276252627 0.000483900309 0.00450000539
v 0.000343516469 0.000360369682 0.00450000539
v 0.000426903367 0.000246554613 0.00450000539
v 0.000524997711 0.000143751502 0.00450000539
v 0.000636428595 5.32269478e-05 0.00450000539
v 0.000759810209 -2.37077475e-05 0.00450000539
v 0.000893741846 -8.5785985e-05 0.00450000539
v 0.0010368526 -0.000131711364 0.00450000539
v 0.00118772686 -0.000160217285 0.00450000539
v 0.00134499371 -0.000170007348 0.00450000539
v -0.00410500169 0.00193999708 0.00450000539
v -0.00410500169 4.99933958e-05 0.00450000539
v -0.0014449954 4.99933958e-05 0.00450000539
v -0.0014449954 -0.000829994678 0.00450000539
v -0.00410500169 -0.000829994678 0.00450000539
v -0.00410500169 -0.00400000811 0.00450000539
v -0.00508500636 -0.00400000811 0.00450000539
v -0.00508500636 0.00282000005 0.00450000539
v -0.0014449954 0.00282000005 0.00450000539
v -0.0014449954 0.00193999708 0.00450000539
v 0.000393882394 -0.00317850709 0.00409999862
v 0.000655189157 -0.0029796809 0.00409999862
v 0.000898435712 -0.00277453661 0.00409999862
v 0.00112314522 -0.00256407261 0.00409999862
v 0.00132882595 -0.00234931707 0.00409999862
v 0.00151500106 -0.00213125348 0.00409999862
v 0.00168116391 -0.00191089511 0.00409999862
v 0.00182685256 -0.00168925524 0.00409999862
v 0.00195156038 -0.00146734715 0.00409999862
v 0.00205481052 -0.00124615431 0.00409999862
v 0.00213612616 -0.00102670491 0.00409999862
v 0.00219500065 -0.00080999732 0.00409999862
v 0.00211799145 -0.000853523612 0.00409999862
v 0.00203731656 -0.000893980265 0.00409999862
v 0.00195343792 -0.000931248069 0.00409999862
v 0.00186684728 -0.000965192914 0.00409999862
v 0.00177803636 -0.000995650887 0.00409999862
v 0.0016874969 -0.00102250278 0.00409999862
v 0.00159570575 -0.00104559958 0.00409999862
v 0.00150313973 -0.00106482208 0.00409999862
v 0.0014103055 -0.00108000636 0.00409999862
v 0.00131767988 -0.00109101832 0.00409999862
v 0.00122575462 -0.00109773874 0.00409999862
v 0.00113499165 -0.00110000372 0.00409999862
v 0.000870153308 -0.00108204782 0.00409999862
v 0.000617042184 -0.00102968514 0.00409999862
v 0.000377804041 -0.000945165753 0.00409999862
v 0.00015462935 -0.000830739737 0.00409999862
v -5.03659248e-05 -0.000688686967 0.00409999862
v -0.000235006213 -0.00052125752 0.00409999862
v -0.000397145748 -0.000330686569 0.00409999862
v -0.000534638762 -0.000119253993 0.00409999862
v -0.000645309687 0.000110775232 0.00409999862
v -0.000727042556 0.000357180834 0.00409999862
v -0.000777646899 0.000617668033 0.00409999862
v -0.000795006752 0.000890001655 0.00409999862
v -0.000778138638 0.00114192069 0.00409999862
v -0.000728428364 0.00139032304 0.00409999862
v -0.000647187233 0.00163172185 0.00409999862
v -0.000535741448 0.00186258554 0.00409999862
v -0.000395402312 0.00207944214 0.00409999862
v -0.000227496028 0.00227874517 0.00409999862
v -3.33487988e-05 0.00245702267 0.00409999862
v 0.000185742974 0.00261074305 0.00409999862
v 0.000428438187 0.00273640454 0.00409999862
v 0.000693425536 0.00283050537 0.00409999862
v 0.000979378819 0.00288954377 0.00409999862
v 0.00128500164 0.00291000307 0.00409999862
v 0.00159238279 0.00288830698 0.00409999862
v 0.00188323855 0.00282485783 0.00409999862
v 0.00215561688 0.00272202492 0.00409999862
v 0.00240759552 0.00258222222 0.00409999862
v 0.00263719261 0.00240783393 0.00409999862
v 0.00284250081 0.00220124424 0.00409999862
v 0.00302155316 0.00196488202 0.00409999862
v 0.00317241251 0.00170111656 0.00409999862
v 0.00329312682 0.00141234696 0.00409999862
v 0.00338175893 0.00110097229 0.00409999862
v 0.00343635678 0.000769391656 0.00409999862
v 0.00345499814 0.000420004129 0.00409999862
v 0.00343164802 3.36766243e-06 0.00409999862
v 0.00336314738 -0.000418931246 0.00409999862
v 0.00325186551 -0.00084297359 0.00409999862
v 0.00310018659 -0.00126481056 0.00409999862
v 0.0029104352 -0.00168055296 0.00409999862
v 0.00268499553 -0.00208625197 0.00409999862
v 0.00242622197 -0.0024779886 0.00409999862
v 0.00213648379 -0.00285185874 0.00409999862
v 0.00181812048 -0.00320391357 0.00409999862
v 0.00147351623 -0.0035302341 0.00409999862
v 0.00110502541 -0.00382690132 0.00409999862
v 0.000715002418 -0.00408999622 0.00409999862
v 0.000114992261 -0.00337000191 0.00409999862
v 0.00141951442 -0.000167682767 0.00409999862
v 0.00149777532 -0.000160649419 0.00409999862
v 0.00157937407 -0.000148758292 0.00409999862
v 0.00166389346 -0.000131860375 0.00409999862
v 0.00175090134 -0.000109821558 0.00409999862
v 0.00183999538 -8.25077295e-05 0.00409999862
v 0.00193075836 -4.97698784e-05 0.00409999862
v 0.00202277303 -1.14887953e-05 0.00409999862
v 0.00211562216 3.24994326e-05 0.00409999862
v 0.00220888853 8.23140144e-05 0.00409999862
v 0.0023021549 0.000138103962 0.00409999862
v 0.00239500403 0.000200003386 0.00409999862
v 0.00240649283 0.000257983804 0.00409999862
v 0.00241605937 0.000312268734 0.00409999862
v 0.00242389739 0.000363275409 0.00409999862
v 0.00243018568 0.000411480665 0.00409999862
v 0.00243507326 0.000457316637 0.00409999862
v 0.00243875384 0.00050124526 0.00409999862
v 0.00244137645 0.00054371357 0.00409999862
v 0.00244314969 0.000585183501 0.00409999862
v 0.00244422257 0.000626087189 0.00409999862
v 0.00244477391 0.000666901469 0.00409999862
v 0.00244496763 0.000708043575 0.00409999862
v 0.00244499743 0.000750005245 0.00409999862
v 0.00243459642 0.000912845135 0.00409999862
v 0.00240430236 0.0010702759 0.00409999862
v 0.00235547125 0.00122062862 0.00409999862
v 0.00228944421 0.00136221945 0.00409999862
v 0.00220759213 0.00149339437 0.00409999862
v 0.00211124122 0.00161249936 0.00409999862
v 0.00200179219 0.00171785057 0.00409999862
v 0.00188055634 0.00180777907 0.00409999862
v 0.00174890459 0.00188061595 0.00409999862
v 0.00160819292 0.00193472207 0.00409999862
v 0.00145977736 0.00196839869 0.00409999862
v 0.00130499899 0.00197999179 0.00409999862
v 0.00114642084 0.00197078288 0.00409999862
v 0.000996336341 0.00194375217 0.00409999862
v 0.000855773687 0.00189983845 0.00409999862
v 0.000725746155 0.00183999538 0.00409999862
v 0.000607222319 0.00176516175 0.00409999862
v 0.00050124526 0.00167624652 0.00409999862
v 0.000408813357 0.00157421827 0.00409999862
v 0.000330924988 0.00146000087 0.00409999862
v 0.000268593431 0.0013345331 0.00409999862
v 0.000222817063 0.00119875371 0.00409999862
v 0.000194624066 0.0010535866 0.00409999862
v 0.000184997916 0.000900000334 0.00409999862
v 0.000195607543 0.000754997134 0.00409999862
v 0.000226482749 0.000615879893 0.00409999862
v 0.000276252627 0.000483900309 0.00409999862
v 0.000343516469 0.000360369682 0.00409999862
v 0.000426903367 0.000246554613 0.00409999862
v 0.000524997711 0.000143751502 0.00409999862
v 0.000636428595 5.32269478e-05 0.00409999862
v 0.000759810209 -2.37077475e-05 0.00409999862
v 0.000893741846 -8.5785985e-05 0.00409999862
v 0.0010368526 -0.000131711364 0.00409999862
v 0.00118772686 -0.000160217285 0.00409999862
v 0.00134499371 -0.000170007348 0.00409999862
v -0.00410500169 0.00193999708 0.00409999862
v -0.00410500169 4.99933958e-05 0.00409999862
v -0.0014449954 4.99933958e-05 0.00409999862
v -0.0014449954 -0.000829994678 0.00409999862
v -0.00410500169 -0.000829994678 0.00409999862
v -0.00410500169 -0.00400000811 0.00409999862
v -0.00508500636 -0.00400000811 0.00409999862
v -0.00508500636 0.00282000005 0.00409999862
v -0.0014449954 0.00282000005 0.00409999862
v -0.0014449954 0.00193999708 0.00409999862
v -0.00410500169 0.00193999708 0.00409999862
v -0.00410500169 0.00193999708 0.00450000539
v -0.00410500169 4.99933958e-05 0.00409999862
v -0.00410500169 4.99933958e-05 0.00450000539
v -0.0014449954 4.99933958e-05 0.00409999862
v -0.0014449954 4.99933958e-05 0.00450000539
v -0.0014449954 -0.000829994678 0.00409999862
v -0.0014449954 -0.000829994678 0.00450000539
v -0.00410500169 -0.000829994678 0.00409999862
v -0.00410500169 -0.000829994678 0.00450000539
v -0.00410500169 -0.00400000811 0.00409999862
v -0.00410500169 -0.00400000811 0.00450000539
v -0.00508500636 -0.00400000811 0.00409999862
v -0.00508500636 -0.00400000811 0.00450000539
v -0.00508500636 0.00282000005 0.00409999862
v -0.00508500636 0.00282000005 0.00450000539
v -0.0014449954 0.00282000005 0.00409999862
v -0.0014449954 0.00282000005 0.00450000539
v -0.0014449954 0.00193999708 0.00409999862
v -0.0014449954 0.00193999708 0.00450000539
v 0.000393882394 -0.00317850709 0.00409999862
v 0.000393882394 -0.00317850709 0.00450000539
v 0.000655189157 -0.0029796809 0.00409999862
v 0.000655189157 -0.0029796809 0.00450000539
v 0.000898435712 -0.00277453661 0.00409999862
v 0.000898435712 -0.00277453661 0.00450000539
v 0.00112314522 -0.00256407261 0.00409999862
v 0.00112314522 -0.00256407261 0.00450000539
v 0.00132882595 -0.00234931707 0.00409999862
v 0.00132882595 -0.00234931707 0.00450000539
v 0.00151500106 -0.00213125348 0.00409999862
v 0.00151500106 -0.00213125348 0.00450000539
v 0.00168116391 -0.00191089511 0.00409999862
v 0.00168116391 -0.00191089511 0.00450000539
v 0.00182685256 -0.00168925524 0.00409999862
v 0.00182685256 -0.00168925524 0.00450000539
v 0.00195156038 -0.00146734715 0.00409999862
v 0.00195156038 -0.00146734715 0.00450000539
v 0.00205481052 -0.00124615431 0.00409999862
v 0.00205481052 -0.00124615431 0.00450000539
v 0.00213612616 -0.00102670491 0.00409999862
v 0.00213612616 -0.00102670491 0.00450000539
v 0.00219500065 -0.00080999732 0.00409999862
v 0.00219500065 -0.00080999732 0.00450000539
v 0.00211799145 -0.000853523612 0.00409999862
v 0.00211799145 -0.000853523612 0.00450000539
v 0.00203731656 -0.000893980265 0.00409999862
v 0.00203731656 -0.000893980265 0.00450000539
v 0.00195343792 -0.000931248069 0.00409999862
v 0.00195343792 -0.000931248069 0.00450000539
v 0.00186684728 -0.000965192914 0.00409999862
v 0.00186684728 -0.000965192914 0.00450000539
v 0.00177803636 -0.000995650887 0.00409999862
v 0.00177803636 -0.000995650887 0.00450000539
v 0.0016874969 -0.00102250278 0.00409999862
v 0.0016874969 -0.00102250278 0.00450000539
v 0.00159570575 -0.00104559958 0.00409999862
v 0.00159570575 -0.00104559958 0.00450000539
v 0.00150313973 -0.00106482208 0.00409999862
v 0.00150313973 -0.00106482208 0.00450000539
v 0.0014103055 -0.00108000636 0.00409999862
v 0.0014103055 -0.00108000636 0.00450000539
v 0.00131767988 -0.00109101832 0.00409999862
v 0.00131767988 -0.00109101832 0.00450000539
v 0.00122575462 -0.00109773874 0.00409999862
v 0.00122575462 -0.00109773874 0.00450000539
v 0.00113499165 -0.00110000372 0.00409999862
v 0.00113499165 -0.00110000372 0.00450000539
v 0.000870153308 -0.00108204782 0.00409999862
v 0.000870153308 -0.00108204782 0.00450000539
v 0.000617042184 -0.00102968514 0.00409999862
v 0.000617042184 -0.00102968514 0.00450000539
v 0.000377804041 -0.000945165753 0.00409999862
v 0.000377804041 -0.000945165753 0.00450000539
v 0.00015462935 -0.000830739737 0.00409999862
v 0.00015462935 -0.000830739737 0.00450000539
v -5.03659248e-05 -0.000688686967 0.00409999862
v -5.03659248e-05 -0.000688686967 0.00450000539
v -0.000235006213 -0.00052125752 0.00409999862
v -0.000235006213 -0.00052125752 0.00450000539
v -0.000397145748 -0.000330686569 0.00409999862
v -0.000397145748 -0.000330686569 0.00450000539
v -0.000534638762 -0.000119253993 0.00409999862
v -0.000534638762 -0.000119253993 0.00450000539
v -0.000645309687 0.000110775232 0.00409999862
v -0.000645309687 0.000110775232 0.00450000539
v -0.000727042556 0.000357180834 0.00409999862
v -0.000727042556 0.000357180834 0.00450000539
v -0.000777646899 0.000617668033 0.00409999862
v -0.000777646899 0.000617668033 0.00450000539
v -0.000795006752 0.000890001655 0.00409999862
v -0.000795006752 0.000890001655 0.00450000539
v -0.000778138638 0.00114192069 0.00409999862
v -0.000778138638 0.00114192069 0.00450000539
v -0.000728428364 0.00139032304 0.00409999862
v -0.000728428364 0.00139032304 0.00450000539
v -0.000647187233 0.00163172185 0.00409999862
v -0.000647187233 0.00163172185 0.00450000539
v -0.000535741448 0.00186258554 0.00409999862
v -0.000535741448 0.00186258554 0.00450000539
v -0.000395402312 0.00207944214 0.00409999862
v -0.000395402312 0.00207944214 0.00450000539
v -0.000227496028 0.00227874517 0.00409999862
v -0.000227496028 0.00227874517 0.00450000539
v -3.33487988e-05 0.00245702267 0.00409999862
v -3.33487988e-05 0.00245702267 0.00450000539
v 0.000185742974 0.00261074305 0.00409999862
v 0.000185742974 0.00261074305 0.00450000539
v 0.000428438187 0.00273640454 0.00409999862
v 0.000428438187 0.00273640454 0.00450000539
v 0.000693425536 0.00283050537 0.00409999862
v 0.000693425536 0.00283050537 0.00450000539
v 0.000979378819 0.00288954377 0.00409999862
v 0.000979378819 0.00288954377 0.00450000539
v 0.00128500164 0.00291000307 0.00409999862
v 0.00128500164 0.00291000307 0.00450000539
v 0.00159238279 0.00288830698 0.00409999862
v 0.00159238279 0.00288830698 0.00450000539
v 0.00188323855 0.00282485783 0.00409999862
v 0.00188323855 0.00282485783 0.00450000539
v 0.00215561688 0.00272202492 0.00409999862
v 0.00215561688 0.00272202492 0.00450000539
v 0.00240759552 0.00258222222 0.00409999862
v 0.00240759552 0.00258222222 0.00450000539
v 0.00263719261 0.00240783393 0.00409999862
v 0.00263719261 0.00240783393 0.00450000539
v 0.00284250081 0.00220124424 0.00409999862
v 0.00284250081 0.00220124424 0.00450000539
v 0.00302155316 0.00196488202 0.00409999862
v 0.00302155316 0.00196488202 0.00450000539
v 0.00317241251 0.00170111656 0.00409999862
v 0.00317241251 0.00170111656 0.00450000539
v 0.00329312682 0.00141234696 0.00409999862
v 0.00329312682 0.00141234696 0.00450000539
v 0.00338175893 0.00110097229 0.00409999862
v 0.00338175893 0.00110097229 0.00450000539
v 0.00343635678 0.000769391656 0.00409999862
v 0.00343635678 0.000769391656 0.00450000539
v 0.00345499814 0.000420004129 0.00409999862
v 0.00345499814 0.000420004129 0.00450000539
v 0.00343164802 3.36766243e-06 0.00409999862
v 0.00343164802 3.36766243e-06 0.00450000539
v 0.00336314738 -0.000418931246 0.00409999862
v 0.00336314738 -0.000418931246 0.00450000539
v 0.00325186551 -0.00084297359 0.00409999862
v 0.00325186551 -0.00084297359 0.00450000539
v 0.00310018659 -0.00126481056 0.00409999862
v 0.00310018659 -0.00126481056 0.00450000539
v 0.0029104352 -0.00168055296 0.00409999862
v 0.0029104352 -0.00168055296 0.00450000539
v 0.00268499553 -0.00208625197 0.00409999862
v 0.00268499553 -0.00208625197 0.00450000539
v 0.00242622197 -0.0024779886 0.00409999862
v 0.00242622197 -0.0024779886 0.00450000539
v 0.00213648379 -0.00285185874 0.00409999862
v 0.00213648379 -0.00285185874 0.00450000539
v 0.00181812048 -0.00320391357 0.00409999862
v 0.00181812048 -0.00320391357 0.00450000539
v 0.00147351623 -0.0035302341 0.00409999862
v 0.00147351623 -0.0035302341 0.00450000539
v 0.00110502541 -0.00382690132 0.00409999862
v 0.00110502541 -0.00382690132 0.00450000539
v 0.000715002418 -0.00408999622 0.00409999862
v 0.000715002418 -0.00408999622 0.00450000539
v 0.000114992261 -0.00337000191 0.00409999862
v 0.000114992261 -0.00337000191 0.00450000539
v 0.00141951442 -0.000167682767 0.00409999862
v 0.00141951442 -0.000167682767 0.00450000539
v 0.00149777532 -0.000160649419 0.00409999862
v 0.00149777532 -0.000160649419 0.00450000539
v 0.00157937407 -0.000148758292 0.00409999862
v 0.00157937407 -0.000148758292 0.00450000539
v 0.00166389346 -0.000131860375 0.00409999862
v 0.00166389346 -0.000131860375 0.00450000539
v 0.00175090134 -0.000109821558 0.00409999862
v 0.00175090134 -0.000109821558 0.00450000539
v 0.00183999538 -8.25077295e-05 0.00409999862
v 0.00183999538 -8.25077295e-05 0.00450000539
v 0.00193075836 -4.97698784e-05 0.00409999862
v 0.00193075836 -4.97698784e-05 0.00450000539
v 0.00202277303 -1.14887953e-05 0.00409999862
v 0.00202277303 -1.14887953e-05 0.00450000539
v 0.00211562216 3.24994326e-05 0.00409999862
v 0.00211562216 3.24994326e-05 0.00450000539
v 0.00220888853 8.23140144e-05 0.00409999862
v 0.00220888853 8.23140144e-05 0.00450000539
v 0.0023021549 0.000138103962 0.00409999862
v 0.0023021549 0.000138103962 0.00450000539
v 0.00239500403 0.000200003386 0.00409999862
v 0.00239500403 0.000200003386 0.00450000539
v 0.00240649283 0.000257983804 0.00409999862
v 0.00240649283 0.000257983804 0.00450000539
v 0.00241605937 0.000312268734 0.00409999862
v 0.00241605937 0.000312268734 0.00450000539
v 0.00242389739 0.000363275409 0.00409999862
v 0.00242389739 0.000363275409 0.00450000539
v 0.00243018568 0.000411480665 0.00409999862
v 0.00243018568 0.000411480665 0.00450000539
v 0.00243507326 0.000457316637 0.00409999862
v 0.00243507326 0.000457316637 0.00450000539
v 0.00243875384 0.00050124526 0.00409999862
v 0.00243875384 0.00050124526 0.00450000539
v 0.00244137645 0.00054371357 0.00409999862
v 0.00244137645 0.00054371357 0.00450000539
v 0.00244314969 0.000585183501 0.00409999862
v 0.00244314969 0.000585183501 0.00450000539
v 0.00244422257 0.000626087189 0.00409999862
v 0.00244422257 0.000626087189 0.00450000539
v 0.00244477391 0.000666901469 0.00409999862
v 0.00244477391 0.000666901469 0.00450000539
v 0.00244496763 0.000708043575 0.00409999862
v 0.00244496763 0.000708043575 0.00450000539
v 0.00244499743 0.000750005245 0.00409999862
v 0.00244499743 0.000750005245 0.00450000539
v 0.00243459642 0.000912845135 0.00409999862
v 0.00243459642 0.000912845135 0.00450000539
v 0.00240430236 0.0010702759 0.00409999862
v 0.00240430236 0.0010702759 0.00450000539
v 0.00235547125 0.00122062862 0.00409999862
v 0.00235547125 0.00122062862 0.00450000539
v 0.00228944421 0.00136221945 0.00409999862
v 0.00228944421 0.00136221945 0.00450000539
v 0.00220759213 0.00149339437 0.00409999862
v 0.00220759213 0.00149339437 0.00450000539
v 0.00211124122 0.00161249936 0.00409999862
v 0.00211124122 0.00161249936 0.00450000539
v 0.00200179219 0.00171785057 0.00409999862
v 0.00200179219 0.00171785057 0.00450000539
v 0.00188055634 0.00180777907 0.00409999862
v 0.00188055634 0.00180777907 0.00450000539
v 0.00174890459 0.00188061595 0.00409999862
v 0.00174890459 0.00188061595 0.00450000539
v 0.00160819292 0.00193472207 0.00409999862
v 0.00160819292 0.00193472207 0.00450000539
v 0.00145977736 0.00196839869 0.00409999862
v 0.00145977736 0.00196839869 0.00450000539
v 0.00130499899 0.00197999179 0.00409999862
v 0.00130499899 0.00197999179 0.00450000539
v 0.00114642084 0.00197078288 0.00409999862
v 0.00114642084 0.00197078288 0.00450000539
v 0.000996336341 0.00194375217 0.00409999862
v 0.000996336341 0.00194375217 0.00450000539
v 0.000855773687 0.00189983845 0.00409999862
v 0.000855773687 0.00189983845 0.00450000539
v 0.000725746155 0.00183999538 0.00409999862
v 0.000725746155 0.00183999538 0.00450000539
v 0.000607222319 0.00176516175 0.00409999862
v 0.000607222319 0.00176516175 0.00450000539
v 0.00050124526 0.00167624652 0.00409999862
v 0.00050124526 0.00167624652 0.00450000539
v 0.000408813357 0.00157421827 0.00409999862
v 0.000408813357 0.00157421827 0.00450000539
v 0.000330924988 0.00146000087 0.00409999862
v 0.000330924988 0.00146000087 0.00450000539
v 0.000268593431 0.0013345331 0.00409999862
v 0.000268593431 0.0013345331 0.00450000539
v 0.000222817063 0.00119875371 0.00409999862
v 0.000222817063 0.00119875371 0.00450000539
v 0.000194624066 0.0010535866 0.00409999862
v 0.000194624066 0.0010535866 0.00450000539
v 0.000184997916 0.000900000334 0.00409999862
v 0.000184997916 0.000900000334 0.00450000539
v 0.000195607543 0.000754997134 0.00409999862
v 0.000195607543 0.000754997134 0.00450000539
v 0.000226482749 0.000615879893 0.00409999862
v 0.000226482749 0.000615879893 0.00450000539
v 0.000276252627 0.000483900309 0.00409999862
v 0.000276252627 0.000483900309 0.00450000539
v 0.000343516469 0.000360369682 0.00409999862
v 0.000343516469 0.000360369682 0.00450000539
v 0.000426903367 0.000246554613 0.00409999862
v 0.000426903367 0.000246554613 0.00450000539
v 0.000524997711 0.000143751502 0.00409999862
v 0.000524997711 0.000143751502 0.00450000539
v 0.000636428595 5.32269478e-05 0.00409999862
v 0.000636428595 5.32269478e-05 0.00450000539
v 0.000759810209 -2.37077475e-05 0.00409999862
v 0.000759810209 -2.37077475e-05 0.00450000539
v 0.000893741846 -8.5785985e-05 0.00409999862
v 0.000893741846 -8.5785985e-05 0.00450000539
v 0.0010368526 -0.000131711364 0.00409999862
v 0.0010368526 -0.000131711364 0.00450000539
v 0.00118772686 -0.000160217285 0.00409999862
v 0.00118772686 -0.000160217285 0.00450000539
v 0.00134499371 -0.000170007348 0.00409999862
v 0.00134499371 -0.000170007348 0.00450000539
usemtl screen_white_text_003
f 199 201 200
f 198 201 199
f 198 202 201
f 197 202 198
f 197 203 202
f 196 203 197
f 196 204 203
f 195 204 196
f 195 205 204
f 194 205 195
f 194 206 205
f 193 206 194
f 193 207 206
f 192 262 193
f 262 261 193
f 261 207 193
f 260 207 261
f 192 263 262
f 259 207 260
f 259 208 207
f 192 264 263
f 258 208 259
f 192 265 264
f 257 208 258
f 191 265 192
f 191 266 265
f 256 208 257
f 191 267 266
f 255 208 256
f 255 209 208
f 191 268 267
f 190 268 191
f 254 209 255
f 190 269 268
f 253 209 254
f 190 270 269
f 253 210 209
f 189 270 190
f 252 210 253
f 189 271 270
f 251 210 252
f 189 272 271
f 188 272 189
f 251 211 210
f 250 211 251
f 188 273 272
f 249 211 250
f 188 274 273
f 187 274 188
f 249 212 211
f 187 275 274
f 248 212 249
f 247 212 248
f 246 212 247
f 245 212 246
f 186 275 187
f 186 276 275
f 244 212 245
f 243 212 244
f 242 212 243
f 186 277 276
f 241 212 242
f 241 213 212
f 240 213 241
f 239 213 240
f 186 278 277
f 185 278 186
f 238 213 239
f 237 213 238
f 185 279 278
f 236 213 237
f 185 280 279
f 235 213 236
f 184 280 185
f 234 213 235
f 184 281 280
f 233 213 234
f 233 214 213
f 232 214 233
f 184 282 281
f 231 214 232
f 230 214 231
f 184 283 282
f 229 214 230
f 183 283 184
f 183 284 283
f 228 214 229
f 227 214 228
f 183 285 284
f 226 214 227
f 285 214 226
f 183 214 285
f 182 214 183
f 182 215 214
f 181 215 182
f 180 164 181
f 164 215 181
f 180 165 164
f 163 215 164
f 179 165 180
f 163 216 215
f 179 166 165
f 179 167 166
f 179 168 167
f 178 168 179
f 178 169 168
f 178 170 169
f 178 171 170
f 162 216 163
f 177 171 178
f 177 172 171
f 177 173 172
f 177 174 173
f 176 174 177
f 176 175 174
f 161 216 162
f 161 217 216
f 160 217 161
f 160 218 217
f 159 218 160
f 158 218 159
f 158 219 218
f 157 219 158
f 156 219 157
f 156 220 219
f 155 220 156
f 154 220 155
f 154 221 220
f 153 221 154
f 225 221 153
f 225 222 221
f 224 222 225
f 224 223 222
f 292 286 293
f 286 294 293
f 286 295 294
f 292 287 286
f 292 290 287
f 290 288 287
f 290 289 288
f 292 291 290
f 342 343 344
f 341 342 344
f 341 344 345
f 340 341 345
f 340 345 346
f 339 340 346
f 339 346 347
f 338 339 347
f 338 347 348
f 337 338 348
f 337 348 349
f 336 337 349
f 336 349 350
f 335 336 405
f 405 336 404
f 404 336 350
f 403 404 350
f 335 405 406
f 402 403 350
f 402 350 351
f 335 406 407
f 401 402 351
f 335 407 408
f 400 401 351
f 334 335 408
f 334 408 409
f 399 400 351
f 334 409 410
f 398 399 351
f 398 351 352
f 334 410 411
f 333 334 411
f 397 398 352
f 333 411 412
f 396 397 352
f 333 412 413
f 396 352 353
f 332 333 413
f 395 396 353
f 332 413 414
f 394 395 353
f 332 414 415
f 331 332 415
f 394 353 354
f 393 394 354
f 331 415 416
f 392 393 354
f 331 416 417
f 330 331 417
f 392 354 355
f 330 417 418
f 391 392 355
f 390 391 355
f 389 390 355
f 388 389 355
f 329 330 418
f 329 418 419
f 387 388 355
f 386 387 355
f 385 386 355
f 329 419 420
f 384 385 355
f 384 355 356
f 383 384 356
f 382 383 356
f 329 420 421
f 328 329 421
f 381 382 356
f 380 381 356
f 328 421 422
f 379 380 356
f 328 422 423
f 378 379 356
f 327 328 423
f 377 378 356
f 327 423 424
f 376 377 356
f 376 356 357
f 375 376 357
f 327 424 425
f 374 375 357
f 373 374 357
f 327 425 426
f 372 373 357
f 326 327 426
f 326 426 427
f 371 372 357
f 370 371 357
f 326 427 428
f 369 370 357
f 428 369 357
f 326 428 357
f 325 326 357
f 325 357 358
f 324 325 358
f 323 324 307
f 307 324 358
f 323 307 308
f 306 307 358
f 322 323 308
f 306 358 359
f 322 308 309
f 322 309 310
f 322 310 311
f 321 322 311
f 321 311 312
f 321 312 313
f 321 313 314
f 305 306 359
f 320 321 314
f 320 314 315
f 320 315 316
f 320 316 317
f 319 320 317
f 319 317 318
f 304 305 359
f 304 359 360
f 303 304 360
f 303 360 361
f 302 303 361
f 301 302 361
f 301 361 362
f 300 301 362
f 299 300 362
f 299 362 363
f 298 299 363
f 297 298 363
f 297 363 364
f 296 297 364
f 368 296 364
f 368 364 365
f 367 368 365
f 367 365 366
f 435 436 429
f 429 436 437
f 429 437 438
f 435 429 430
f 435 430 433
f 433 430 431
f 433 431 432
f 435 433 434
f 440 442 441 439
f 442 444 443 441
f 444 446 445 443
f 446 448 447 445
f 448 450 449 447
f 450 452 451 449
f 452 454 453 451
f 454 456 455 453
f 456 458 457 455
f 458 440 439 457
f 460 462 461 459
f 462 464 463 461
f 464 466 465 463
f 466 468 467 465
f 468 470 469 467
f 470 472 471 469
f 472 474 473 471
f 474 476 475 473
f 476 478 477 475
f 478 480 479 477
f 480 482 481 479
f 482 484 483 481
f 484 486 485 483
f 486 488 487 485
f 488 490 489 487
f 490 492 491 489
f 492 494 493 491
f 494 496 495 493
f 496 498 497 495
f 498 500 499 497
f 500 502 501 499
f 502 504 503 501
f 504 506 505 503
f 506 508 507 505
f 508 510 509 507
f 510 512 511 509
f 512 514 513 511
f 514 516 515 513
f 516 518 517 515
f 518 520 519 517
f 520 522 521 519
f 522 524 523 521
f 524 526 525 523
f 526 528 527 525
f 528 530 529 527
f 530 532 531 529
f 532 534 533 531
f 534 536 535 533
f 536 538 537 535
f 538 540 539 537
f 540 542 541 539
f 542 544 543 541
f 544 546 545 543
f 546 548 547 545
f 548 550 549 547
f 550 552 551 549
f 552 554 553 551
f 554 556 555 553
f 556 558 557 555
f 558 560 559 557
f 560 562 561 559
f 562 564 563 561
f 564 566 565 563
f 566 568 567 565
f 568 570 569 567
f 570 572 571 569
f 572 574 573 571
f 574 576 575 573
f 576 578 577 575
f 578 580 579 577
f 580 582 581 579
f 582 584 583 581
f 584 586 585 583
f 586 588 587 585
f 588 590 589 587
f 590 592 591 589
f 592 594 593 591
f 594 596 595 593
f 596 598 597 595
f 598 600 599 597
f 600 602 601 599
f 602 604 603 601
f 604 460 459 603
f 606 608 607 605
f 608 610 609 607
f 610 612 611 609
f 612 614 613 611
f 614 616 615 613
f 616 618 617 615
f 618 620 619 617
f 620 622 621 619
f 622 624 623 621
f 624 626 625 623
f 626 628 627 625
f 628 630 629 627
f 630 632 631 629
f 632 634 633 631
f 634 636 635 633
f 636 638 637 635
f 638 640 639 637
f 640 642 641 639
f 642 644 643 641
f 644 646 645 643
f 646 648 647 645
f 648 650 649 647
f 650 652 651 649
f 652 654 653 651
f 654 656 655 653
f 656 658 657 655
f 658 660 659 657
f 660 662 661 659
f 662 664 663 661
f 664 666 665 663
f 666 668 667 665
f 668 670 669 667
f 670 672 671 669
f 672 674 673 671
f 674 676 675 673
f 676 678 677 675
f 678 680 679 677
f 680 682 681 679
f 682 684 683 681
f 684 686 685 683
f 686 688 687 685
f 688 690 689 687
f 690 692 691 689
f 692 694 693 691
f 694 696 695 693
f 696 698 697 695
f 698 700 699 697
f 700 702 701 699
f 702 704 703 701
f 704 706 705 703
f 706 708 707 705
f 708 710 709 707
f 710 712 711 709
f 712 714 713 711
f 714 716 715 713
f 716 718 717 715
f 718 720 719 717
f 720 722 721 719
f 722 724 723 721
f 724 606 605 723
