mtllib keyboard_key_4_5_B_link.mtl
o keyboard_key_4_5_B_link

g keyboard_key_4_5_B_SOLID
v -0.0199999977 -0.0164999999 0
v -0.0199999977 -0.0130000003 -0.00349999964
v -0.0234999973 -0.0130000003 0
v -0.0200000014 -0.0162335783 -0.0013393946
v -0.0200000014 -0.0154748736 -0.00247487426
v -0.021339396 -0.0162335783 0
v -0.0213729609 -0.0159120392 -0.00137295946
v -0.021303298 -0.0152968913 -0.00229689106
v -0.0220207293 -0.0150207262 -0.00202072784
v -0.021339396 -0.0130000003 -0.00323357806
v -0.0224748757 -0.0130000003 -0.00247487426
v -0.0200000014 -0.0143393921 -0.00323357806
v -0.0213729609 -0.0143729588 -0.0029120408
v -0.0222968925 -0.0143032968 -0.00229689106
v -0.0232335795 -0.0143393921 0
v -0.0224748757 -0.0154748736 0
v -0.0232335795 -0.0130000003 -0.00133939087
v -0.0229120422 -0.0143729588 -0.00137295946
v -0.0222968925 -0.0152968913 -0.00130329654
v 0.0199999996 -0.0164999999 0
v 0.0234999992 -0.0130000003 0
v 0.0199999996 -0.0130000003 -0.00349999964
v 0.0213393942 -0.0162335783 0
v 0.0224748757 -0.0154748736 0
v 0.0200000014 -0.0162335783 -0.00133939087
v 0.021372959 -0.0159120392 -0.00137295946
v 0.0222968925 -0.0152968913 -0.00130329654
v 0.0220207274 -0.0150207262 -0.00202072784
v 0.0232335795 -0.0130000003 -0.0013393946
v 0.0224748757 -0.0130000003 -0.00247487426
v 0.0232335795 -0.0143393921 0
v 0.0229120404 -0.0143729588 -0.00137295946
v 0.0222968925 -0.0143032968 -0.00229689106
v 0.0200000014 -0.0143393921 -0.00323357806
v 0.0200000014 -0.0154748736 -0.00247487426
v 0.0213393942 -0.0130000003 -0.00323357806
v 0.021372959 -0.0143729588 -0.0029120408
v 0.021303298 -0.0152968913 -0.00229689106
v 0.0199999996 0.0164999999 0
v 0.0199999996 0.0130000003 -0.00349999964
v 0.0234999992 0.0130000003 0
v 0.0200000014 0.0162335783 -0.0013393946
v 0.0200000014 0.0154748745 -0.00247487426
v 0.0213393942 0.0162335783 0
v 0.021372959 0.0159120373 -0.00137295946
v 0.021303298 0.0152968913 -0.00229689106
v 0.0220207274 0.0150207244 -0.00202072784
v 0.0213393942 0.0130000003 -0.00323357806
v 0.0224748757 0.0130000003 -0.00247487426
v 0.0200000014 0.0143393911 -0.00323357806
v 0.021372959 0.0143729597 -0.0029120408
v 0.0222968925 0.0143032968 -0.00229689106
v 0.0232335795 0.0143393911 0
v 0.0224748757 0.0154748745 0
v 0.0232335795 0.0130000003 -0.00133939087
v 0.0229120404 0.0143729597 -0.00137295946
v 0.0222968925 0.0152968913 -0.00130329654
v -0.0199999977 0.0164999999 0
v -0.0234999973 0.0130000003 0
v -0.0199999977 0.0130000003 -0.00349999964
v -0.021339396 0.0162335783 0
v -0.0224748757 0.0154748745 0
v -0.0200000014 0.0162335783 -0.00133939087
v -0.0213729609 0.0159120373 -0.00137295946
v -0.0222968925 0.0152968913 -0.00130329654
v -0.0220207293 0.0150207244 -0.00202072784
v -0.0232335795 0.0130000003 -0.0013393946
v -0.0224748757 0.0130000003 -0.00247487426
v -0.0232335795 0.0143393911 0
v -0.0229120422 0.0143729597 -0.00137295946
v -0.0222968925 0.0143032968 -0.00229689106
v -0.0200000014 0.0143393911 -0.00323357806
v -0.0200000014 0.0154748745 -0.00247487426
v -0.021339396 0.0130000003 -0.00323357806
v -0.0213729609 0.0143729597 -0.0029120408
v -0.021303298 0.0152968913 -0.00229689106
v -0.0234999973 -0.0130000003 0
v -0.0199999977 -0.0130000003 0.00350000337
v -0.0199999977 -0.0164999999 0
v -0.0232335795 -0.0130000003 0.0013393946
v -0.0224748757 -0.0130000003 0.00247487426
v -0.0232335795 -0.0143393921 0
v -0.0229120422 -0.0143729588 0.00137295946
v -0.0222968925 -0.0143032968 0.00229689106
v -0.0220207293 -0.0150207262 0.00202072784
v -0.0200000014 -0.0143393921 0.00323357806
v -0.0200000014 -0.0154748736 0.00247487426
v -0.021339396 -0.0130000003 0.00323357806
v -0.0213729609 -0.0143729588 0.0029120408
v -0.021303298 -0.0152968913 0.00229689106
v -0.021339396 -0.0162335783 0
v -0.0224748757 -0.0154748736 0
v -0.0200000014 -0.0162335783 0.00133939087
v -0.0213729609 -0.0159120392 0.00137295946
v -0.0222968925 -0.0152968913 0.00130329654
v 0.0199999996 -0.0164999999 0
v 0.0199999996 -0.0130000003 0.00350000337
v 0.0234999992 -0.0130000003 0
v 0.0200000014 -0.0162335783 0.0013393946
v 0.0200000014 -0.0154748736 0.00247487426
v 0.0213393942 -0.0162335783 0
v 0.021372959 -0.0159120392 0.00137295946
v 0.021303298 -0.0152968913 0.00229689106
v 0.0220207274 -0.0150207262 0.00202072784
v 0.0213393942 -0.0130000003 0.00323357806
v 0.0224748757 -0.0130000003 0.00247487426
v 0.0200000014 -0.0143393921 0.00323357806
v 0.021372959 -0.0143729588 0.0029120408
v 0.0222968925 -0.0143032968 0.00229689106
v 0.0232335795 -0.0143393921 0
v 0.0224748757 -0.0154748736 0
v 0.0232335795 -0.0130000003 0.00133939087
v 0.0229120404 -0.0143729588 0.00137295946
v 0.0222968925 -0.0152968913 0.00130329654
v 0.0199999996 0.0130000003 0.00350000337
v 0.0199999996 0.0164999999 0
v 0.0234999992 0.0130000003 0
v 0.0200000014 0.0143393911 0.00323357806
v 0.0200000014 0.0154748745 0.00247487426
v 0.0213393942 0.0130000003 0.00323357806
v 0.021372959 0.0143729597 0.0029120408
v 0.021303298 0.0152968913 0.00229689106
v 0.0220207274 0.0150207244 0.00202072784
v 0.0213393942 0.0162335783 0
v 0.0224748757 0.0154748745 0
v 0.0200000014 0.0162335783 0.00133939087
v 0.021372959 0.0159120373 0.00137295946
v 0.0222968925 0.0152968913 0.00130329654
v 0.0232335795 0.0130000003 0.0013393946
v 0.0224748757 0.0130000003 0.00247487426
v 0.0232335795 0.0143393911 0
v 0.0229120404 0.0143729597 0.00137295946
v 0.0222968925 0.0143032968 0.00229689106
v -0.0234999973 0.0130000003 0
v -0.0199999977 0.0164999999 0
v -0.0199999977 0.0130000003 0.00350000337
v -0.0232335795 0.0143393911 0
v -0.0224748757 0.0154748745 0
v -0.0232335795 0.0130000003 0.00133939087
v -0.0229120422 0.0143729597 0.00137295946
v -0.0222968925 0.0152968913 0.00130329654
v -0.0220207293 0.0150207244 0.00202072784
v -0.0200000014 0.0162335783 0.0013393946
v -0.0200000014 0.0154748745 0.00247487426
v -0.021339396 0.0162335783 0
v -0.0213729609 0.0159120373 0.00137295946
v -0.021303298 0.0152968913 0.00229689106
v -0.021339396 0.0130000003 0.00323357806
v -0.0224748757 0.0130000003 0.00247487426
v -0.0200000014 0.0143393911 0.00323357806
v -0.0213729609 0.0143729597 0.0029120408
v -0.0222968925 0.0143032968 0.00229689106
usemtl matte_black_keycaps_003
f 59 134 77 3
f 2 22 40 60
f 39 116 135 58
f 78 136 115 97
f 21 98 117 41
f 1 4 7 6
f 4 5 8 7
f 6 7 19 16
f 7 8 9 19
f 2 10 13 12
f 10 11 14 13
f 12 13 8 5
f 13 14 9 8
f 3 15 18 17
f 15 16 19 18
f 17 18 14 11
f 18 19 9 14
f 20 23 26 25
f 23 24 27 26
f 25 26 38 35
f 26 27 28 38
f 21 29 32 31
f 29 30 33 32
f 31 32 27 24
f 32 33 28 27
f 22 34 37 36
f 34 35 38 37
f 36 37 33 30
f 37 38 28 33
f 39 42 45 44
f 42 43 46 45
f 44 45 57 54
f 45 46 47 57
f 40 48 51 50
f 48 49 52 51
f 50 51 46 43
f 51 52 47 46
f 41 53 56 55
f 53 54 57 56
f 55 56 52 49
f 56 57 47 52
f 58 61 64 63
f 61 62 65 64
f 63 64 76 73
f 64 65 66 76
f 59 67 70 69
f 67 68 71 70
f 69 70 65 62
f 70 71 66 65
f 60 72 75 74
f 72 73 76 75
f 74 75 71 68
f 75 76 66 71
f 77 80 83 82
f 80 81 84 83
f 82 83 95 92
f 83 84 85 95
f 78 86 89 88
f 86 87 90 89
f 88 89 84 81
f 89 90 85 84
f 79 91 94 93
f 91 92 95 94
f 93 94 90 87
f 94 95 85 90
f 96 99 102 101
f 99 100 103 102
f 101 102 114 111
f 102 103 104 114
f 97 105 108 107
f 105 106 109 108
f 107 108 103 100
f 108 109 104 103
f 98 110 113 112
f 110 111 114 113
f 112 113 109 106
f 113 114 104 109
f 115 118 121 120
f 118 119 122 121
f 120 121 133 130
f 121 122 123 133
f 116 124 127 126
f 124 125 128 127
f 126 127 122 119
f 127 128 123 122
f 117 129 132 131
f 129 130 133 132
f 131 132 128 125
f 132 133 123 128
f 134 137 140 139
f 137 138 141 140
f 139 140 152 149
f 140 141 142 152
f 135 143 146 145
f 143 144 147 146
f 145 146 141 138
f 146 147 142 141
f 136 148 151 150
f 148 149 152 151
f 150 151 147 144
f 151 152 142 147
f 39 58 63 42
f 42 63 73 43
f 43 73 72 50
f 50 72 60 40
f 1 20 25 4
f 4 25 35 5
f 5 35 34 12
f 12 34 22 2
f 21 41 55 29
f 29 55 49 30
f 30 49 48 36
f 36 48 40 22
f 2 60 74 10
f 10 74 68 11
f 11 68 67 17
f 17 67 59 3
f 3 77 82 15
f 15 82 92 16
f 16 92 91 6
f 6 91 79 1
f 78 97 107 86
f 86 107 100 87
f 87 100 99 93
f 93 99 96 79
f 97 115 120 105
f 105 120 130 106
f 106 130 129 112
f 112 129 117 98
f 77 134 139 80
f 80 139 149 81
f 81 149 148 88
f 88 148 136 78
f 20 96 101 23
f 23 101 111 24
f 24 111 110 31
f 31 110 98 21
f 41 117 131 53
f 53 131 125 54
f 54 125 124 44
f 44 124 116 39
f 115 136 150 118
f 118 150 144 119
f 119 144 143 126
f 126 143 135 116
f 58 135 145 61
f 61 145 138 62
f 62 138 137 69
f 69 137 134 59
f 1 79 96 20

g key_legend_4_5_B
v -0.00108500011 0.00282000005 0.00450000539
v -0.000734878704 0.00280218758 0.00450000539
v -0.000419028103 0.00275083259 0.00450000539
v -0.000136718154 0.00266906247 0.00450000539
v 0.000112777576 0.00256000087 0.00450000539
v 0.000330191106 0.00242677145 0.00450000539
v 0.00051625073 0.00227249973 0.00450000539
v 0.000671684742 0.00210031308 0.00450000539
v 0.000797221437 0.00191333331 0.00450000539
v 0.000893592834 0.00171468779 0.00450000539
v 0.000961527228 0.00150750019 0.00450000539
v 0.00100175291 0.00129489601 0.00450000539
v 0.00101500005 0.00107999891 0.00450000539
v 0.00100809522 0.000907661393 0.00450000539
v 0.000987268984 0.000745462254 0.00450000539
v 0.000952344388 0.00059312582 0.00450000539
v 0.000903148204 0.000450370833 0.00450000539
v 0.000839507207 0.000316921622 0.00450000539
v 0.000761250034 0.000192500651 0.00450000539
v 0.000668199733 7.68285245e-05 0.00450000539
v 0.000560184941 -3.03704292e-05 0.00450000539
v 0.000437030569 -0.000129375607 0.00450000539
v 0.000298565254 -0.00022046268 0.00450000539
v 0.000144612044 -0.000303912908 0.00450000539
v -2.50004232e-05 -0.0003800001 0.00450000539
v -2.50004232e-05 -0.000399999321 0.00450000539
v 0.000221539289 -0.000457366928 0.00450000539
v 0.000450648367 -0.000533934683 0.00450000539
v 0.000661563128 -0.000628905371 0.00450000539
v 0.000853518024 -0.000741481781 0.00450000539
v 0.0010257531 -0.000870862976 0.00450000539
v 0.00117750093 -0.00101624988 0.00450000539
v 0.00130799785 -0.00117684528 0.00450000539
v 0.00141648203 -0.00135185197 0.00450000539
v 0.00150218792 -0.00154046901 0.00450000539
v 0.00156435184 -0.00174189731 0.00450000539
v 0.0016022101 -0.00195534155 0.00450000539
v 0.00161500089 -0.00218000077 0.00450000539
v 0.00160161406 -0.00239226967 0.00450000539
v 0.00156041607 -0.00260648131 0.00450000539
v 0.00148984417 -0.00281875022 0.00450000539
v 0.00138833374 -0.00302518532 0.00450000539
v 0.00125432201 -0.00322189927 0.00450000539
v 0.00108624995 -0.00340500101 0.00450000539
v 0.000882552937 -0.00357060134 0.00450000539
v 0.000641666353 -0.00371481478 0.00450000539
v 0.000362031162 -0.00383375026 0.00450000539
v 4.20827419e-05 -0.00392351858 0.00450000539
v -0.000319739804 -0.0039802324 0.00450000539
v -0.000724999234 -0.00400000066 0.00450000539
v -0.00306499936 -0.00400000066 0.00450000539
v -0.00306499936 0.00282000005 0.00450000539
v -0.00143500045 -9.99998301e-05 0.00450000539
v -0.00120289996 -9.24933702e-05 0.00450000539
v -0.000991526991 -6.99535012e-05 0.00450000539
v -0.000800780952 -3.23429704e-05 0.00450000539
v -0.000630555674 2.03698874e-05 0.00450000539
v -0.00048074685 8.82241875e-05 0.00450000539
v -0.000351250172 0.000171249732 0.00450000539
v -0.00024196133 0.000269485638 0.00450000539
v -0.00015277788 0.000382963568 0.00450000539
v -8.35936517e-05 0.000511718914 0.00450000539
v -3.43061984e-05 0.000655787066 0.00450000539
v -4.80934978e-06 0.000815201551 0.00450000539
v 4.99933958e-06 0.000989999622 0.00450000539
v -1.22748315e-06 0.00111582689 0.00450000539
v -2.06474215e-05 0.00123745389 0.00450000539
v -5.43743372e-05 0.00135359354 0.00450000539
v -0.000103518367 0.00146296248 0.00450000539
v -0.000169189647 0.00156427547 0.00450000539
v -0.000252500176 0.00165624917 0.00450000539
v -0.000354560092 0.00173759833 0.00450000539
v -0.000476481393 0.00180703774 0.00450000539
v -0.000619374216 0.00186328217 0.00450000539
v -0.000784352422 0.0019050464 0.00450000539
v -0.000972522423 0.00193104707 0.00450000539
v -0.00118499994 0.0019400008 0.00450000539
v -0.00208500028 0.0019400008 0.00450000539
v -0.00208500028 -9.99998301e-05 0.00450000539
v -0.00085500069 -0.00311999954 0.00450000539
v -0.000584693626 -0.00310849026 0.00450000539
v -0.000347547233 -0.00307541713 0.00450000539
v -0.000141719356 -0.00302296877 0.00450000539
v 3.4628436e-05 -0.00295333378 0.00450000539
v 0.000183338299 -0.00286869891 0.00450000539
v 0.000306250528 -0.0027712509 0.00450000539
v 0.000405201688 -0.00266317651 0.00450000539
v 0.000482037663 -0.00254666619 0.00450000539
v 0.000538593158 -0.0024239067 0.00450000539
v 0.000576712191 -0.00229708292 0.00450000539
v 0.000598235056 -0.00216838531 0.00450000539
v 0.000605000183 -0.00204000063 0.00450000539
v 0.000594960526 -0.001888901 0.00450000539
v 0.000564675778 -0.00174620375 0.00450000539
v 0.000513905659 -0.00161281228 0.00450000539
v 0.000442408025 -0.00148962997 0.00450000539
v 0.000349937007 -0.00137755834 0.00450000539
v 0.00023625046 -0.00127750076 0.00450000539
v 0.000101106241 -0.00119035877 0.00450000539
v -5.57415187e-05 -0.00111703761 0.00450000539
v -0.000234531239 -0.00105843693 0.00450000539
v -0.000435508788 -0.00101546384 0.00450000539
v -0.000658918172 -0.000989016145 0.00450000539
v -0.000904999673 -0.000980000943 0.00450000539
v -0.00208500028 -0.000980000943 0.00450000539
v -0.00208500028 -0.00311999954 0.00450000539
v -0.00108500011 0.00282000005 0.00409999862
v -0.000734878704 0.00280218758 0.00409999862
v -0.000419028103 0.00275083259 0.00409999862
v -0.000136718154 0.00266906247 0.00409999862
v 0.000112777576 0.00256000087 0.00409999862
v 0.000330191106 0.00242677145 0.00409999862
v 0.00051625073 0.00227249973 0.00409999862
v 0.000671684742 0.00210031308 0.00409999862
v 0.000797221437 0.00191333331 0.00409999862
v 0.000893592834 0.00171468779 0.00409999862
v 0.000961527228 0.00150750019 0.00409999862
v 0.00100175291 0.00129489601 0.00409999862
v 0.00101500005 0.00107999891 0.00409999862
v 0.00100809522 0.000907661393 0.00409999862
v 0.000987268984 0.000745462254 0.00409999862
v 0.000952344388 0.00059312582 0.00409999862
v 0.000903148204 0.000450370833 0.00409999862
v 0.000839507207 0.000316921622 0.00409999862
v 0.000761250034 0.000192500651 0.00409999862
v 0.000668199733 7.68285245e-05 0.00409999862
v 0.000560184941 -3.03704292e-05 0.00409999862
v 0.000437030569 -0.000129375607 0.00409999862
v 0.000298565254 -0.00022046268 0.00409999862
v 0.000144612044 -0.000303912908 0.00409999862
v -2.50004232e-05 -0.0003800001 0.00409999862
v -2.50004232e-05 -0.000399999321 0.00409999862
v 0.000221539289 -0.000457366928 0.00409999862
v 0.000450648367 -0.000533934683 0.00409999862
v 0.000661563128 -0.000628905371 0.00409999862
v 0.000853518024 -0.000741481781 0.00409999862
v 0.0010257531 -0.000870862976 0.00409999862
v 0.00117750093 -0.00101624988 0.00409999862
v 0.00130799785 -0.00117684528 0.00409999862
v 0.00141648203 -0.00135185197 0.00409999862
v 0.00150218792 -0.00154046901 0.00409999862
v 0.00156435184 -0.00174189731 0.00409999862
v 0.0016022101 -0.00195534155 0.00409999862
v 0.00161500089 -0.00218000077 0.00409999862
v 0.00160161406 -0.00239226967 0.00409999862
v 0.00156041607 -0.00260648131 0.00409999862
v 0.00148984417 -0.00281875022 0.00409999862
v 0.00138833374 -0.00302518532 0.00409999862
v 0.00125432201 -0.00322189927 0.00409999862
v 0.00108624995 -0.00340500101 0.00409999862
v 0.000882552937 -0.00357060134 0.00409999862
v 0.000641666353 -0.00371481478 0.00409999862
v 0.000362031162 -0.00383375026 0.00409999862
v 4.20827419e-05 -0.00392351858 0.00409999862
v -0.000319739804 -0.0039802324 0.00409999862
v -0.000724999234 -0.00400000066 0.00409999862
v -0.00306499936 -0.00400000066 0.00409999862
v -0.00306499936 0.00282000005 0.00409999862
v -0.00143500045 -9.99998301e-05 0.00409999862
v -0.00120289996 -9.24933702e-05 0.00409999862
v -0.000991526991 -6.99535012e-05 0.00409999862
v -0.000800780952 -3.23429704e-05 0.00409999862
v -0.000630555674 2.03698874e-05 0.00409999862
v -0.00048074685 8.82241875e-05 0.00409999862
v -0.000351250172 0.000171249732 0.00409999862
v -0.00024196133 0.000269485638 0.00409999862
v -0.00015277788 0.000382963568 0.00409999862
v -8.35936517e-05 0.000511718914 0.00409999862
v -3.43061984e-05 0.000655787066 0.00409999862
v -4.80934978e-06 0.000815201551 0.00409999862
v 4.99933958e-06 0.000989999622 0.00409999862
v -1.22748315e-06 0.00111582689 0.00409999862
v -2.06474215e-05 0.00123745389 0.00409999862
v -5.43743372e-05 0.00135359354 0.00409999862
v -0.000103518367 0.00146296248 0.00409999862
v -0.000169189647 0.00156427547 0.00409999862
v -0.000252500176 0.00165624917 0.00409999862
v -0.000354560092 0.00173759833 0.00409999862
v -0.000476481393 0.00180703774 0.00409999862
v -0.000619374216 0.00186328217 0.00409999862
v -0.000784352422 0.0019050464 0.00409999862
v -0.000972522423 0.00193104707 0.00409999862
v -0.00118499994 0.0019400008 0.00409999862
v -0.00208500028 0.0019400008 0.00409999862
v -0.00208500028 -9.99998301e-05 0.00409999862
v -0.00085500069 -0.00311999954 0.00409999862
v -0.000584693626 -0.00310849026 0.00409999862
v -0.000347547233 -0.00307541713 0.00409999862
v -0.000141719356 -0.00302296877 0.00409999862
v 3.4628436e-05 -0.00295333378 0.00409999862
v 0.000183338299 -0.00286869891 0.00409999862
v 0.000306250528 -0.0027712509 0.00409999862
v 0.000405201688 -0.00266317651 0.00409999862
v 0.000482037663 -0.00254666619 0.00409999862
v 0.000538593158 -0.0024239067 0.00409999862
v 0.000576712191 -0.00229708292 0.00409999862
v 0.000598235056 -0.00216838531 0.00409999862
v 0.000605000183 -0.00204000063 0.00409999862
v 0.000594960526 -0.001888901 0.00409999862
v 0.000564675778 -0.00174620375 0.00409999862
v 0.000513905659 -0.00161281228 0.00409999862
v 0.000442408025 -0.00148962997 0.00409999862
v 0.000349937007 -0.00137755834 0.00409999862
v 0.00023625046 -0.00127750076 0.00409999862
v 0.000101106241 -0.00119035877 0.00409999862
v -5.57415187e-05 -0.00111703761 0.00409999862
v -0.000234531239 -0.00105843693 0.00409999862
v -0.000435508788 -0.00101546384 0.00409999862
v -0.000658918172 -0.000989016145 0.00409999862
v -0.000904999673 -0.000980000943 0.00409999862
v -0.00208500028 -0.000980000943 0.00409999862
v -0.00208500028 -0.00311999954 0.00409999862
v -0.00108500011 0.00282000005 0.00409999862
v -0.00108500011 0.00282000005 0.00450000539
v -0.000734878704 0.00280218758 0.00409999862
v -0.000734878704 0.00280218758 0.00450000539
v -0.000419028103 0.00275083259 0.00409999862
v -0.000419028103 0.00275083259 0.00450000539
v -0.000136718154 0.00266906247 0.00409999862
v -0.000136718154 0.00266906247 0.00450000539
v 0.000112777576 0.00256000087 0.00409999862
v 0.000112777576 0.00256000087 0.00450000539
v 0.000330191106 0.00242677145 0.00409999862
v 0.000330191106 0.00242677145 0.00450000539
v 0.00051625073 0.00227249973 0.00409999862
v 0.00051625073 0.00227249973 0.00450000539
v 0.000671684742 0.00210031308 0.00409999862
v 0.000671684742 0.00210031308 0.00450000539
v 0.000797221437 0.00191333331 0.00409999862
v 0.000797221437 0.00191333331 0.00450000539
v 0.000893592834 0.00171468779 0.00409999862
v 0.000893592834 0.00171468779 0.00450000539
v 0.000961527228 0.00150750019 0.00409999862
v 0.000961527228 0.00150750019 0.00450000539
v 0.00100175291 0.00129489601 0.00409999862
v 0.00100175291 0.00129489601 0.00450000539
v 0.00101500005 0.00107999891 0.00409999862
v 0.00101500005 0.00107999891 0.00450000539
v 0.00100809522 0.000907661393 0.00409999862
v 0.00100809522 0.000907661393 0.00450000539
v 0.000987268984 0.000745462254 0.00409999862
v 0.000987268984 0.000745462254 0.00450000539
v 0.000952344388 0.00059312582 0.00409999862
v 0.000952344388 0.00059312582 0.00450000539
v 0.000903148204 0.000450370833 0.00409999862
v 0.000903148204 0.000450370833 0.00450000539
v 0.000839507207 0.000316921622 0.00409999862
v 0.000839507207 0.000316921622 0.00450000539
v 0.000761250034 0.000192500651 0.00409999862
v 0.000761250034 0.000192500651 0.00450000539
v 0.000668199733 7.68285245e-05 0.00409999862
v 0.000668199733 7.68285245e-05 0.00450000539
v 0.000560184941 -3.03704292e-05 0.00409999862
v 0.000560184941 -3.03704292e-05 0.00450000539
v 0.000437030569 -0.000129375607 0.00409999862
v 0.000437030569 -0.000129375607 0.00450000539
v 0.000298565254 -0.00022046268 0.00409999862
v 0.000298565254 -0.00022046268 0.00450000539
v 0.000144612044 -0.000303912908 0.00409999862
v 0.000144612044 -0.000303912908 0.00450000539
v -2.50004232e-05 -0.0003800001 0.00409999862
v -2.50004232e-05 -0.0003800001 0.00450000539
v -2.50004232e-05 -0.000399999321 0.00409999862
v -2.50004232e-05 -0.000399999321 0.00450000539
v 0.000221539289 -0.000457366928 0.00409999862
v 0.000221539289 -0.000457366928 0.00450000539
v 0.000450648367 -0.000533934683 0.00409999862
v 0.000450648367 -0.000533934683 0.00450000539
v 0.000661563128 -0.000628905371 0.00409999862
v 0.000661563128 -0.000628905371 0.00450000539
v 0.000853518024 -0.000741481781 0.00409999862
v 0.000853518024 -0.000741481781 0.00450000539
v 0.0010257531 -0.000870862976 0.00409999862
v 0.0010257531 -0.000870862976 0.00450000539
v 0.00117750093 -0.00101624988 0.00409999862
v 0.00117750093 -0.00101624988 0.00450000539
v 0.00130799785 -0.00117684528 0.00409999862
v 0.00130799785 -0.00117684528 0.00450000539
v 0.00141648203 -0.00135185197 0.00409999862
v 0.00141648203 -0.00135185197 0.00450000539
v 0.00150218792 -0.00154046901 0.00409999862
v 0.00150218792 -0.00154046901 0.00450000539
v 0.00156435184 -0.00174189731 0.00409999862
v 0.00156435184 -0.00174189731 0.00450000539
v 0.0016022101 -0.00195534155 0.00409999862
v 0.0016022101 -0.00195534155 0.00450000539
v 0.00161500089 -0.00218000077 0.00409999862
v 0.00161500089 -0.00218000077 0.00450000539
v 0.00160161406 -0.00239226967 0.00409999862
v 0.00160161406 -0.00239226967 0.00450000539
v 0.00156041607 -0.00260648131 0.00409999862
v 0.00156041607 -0.00260648131 0.00450000539
v 0.00148984417 -0.00281875022 0.00409999862
v 0.00148984417 -0.00281875022 0.00450000539
v 0.00138833374 -0.00302518532 0.00409999862
v 0.00138833374 -0.00302518532 0.00450000539
v 0.00125432201 -0.00322189927 0.00409999862
v 0.00125432201 -0.00322189927 0.00450000539
v 0.00108624995 -0.00340500101 0.00409999862
v 0.00108624995 -0.00340500101 0.00450000539
v 0.000882552937 -0.00357060134 0.00409999862
v 0.000882552937 -0.00357060134 0.00450000539
v 0.000641666353 -0.00371481478 0.00409999862
v 0.000641666353 -0.00371481478 0.00450000539
v 0.000362031162 -0.00383375026 0.00409999862
v 0.000362031162 -0.00383375026 0.00450000539
v 4.20827419e-05 -0.00392351858 0.00409999862
v 4.20827419e-05 -0.00392351858 0.00450000539
v -0.000319739804 -0.0039802324 0.00409999862
v -0.000319739804 -0.0039802324 0.00450000539
v -0.000724999234 -0.00400000066 0.00409999862
v -0.000724999234 -0.00400000066 0.00450000539
v -0.00306499936 -0.00400000066 0.00409999862
v -0.00306499936 -0.00400000066 0.00450000539
v -0.00306499936 0.00282000005 0.00409999862
v -0.00306499936 0.00282000005 0.00450000539
v -0.00143500045 -9.99998301e-05 0.00409999862
v -0.00143500045 -9.99998301e-05 0.00450000539
v -0.00120289996 -9.24933702e-05 0.00409999862
v -0.00120289996 -9.24933702e-05 0.00450000539
v -0.000991526991 -6.99535012e-05 0.00409999862
v -0.000991526991 -6.99535012e-05 0.00450000539
v -0.000800780952 -3.23429704e-05 0.00409999862
v -0.000800780952 -3.23429704e-05 0.00450000539
v -0.000630555674 2.03698874e-05 0.00409999862
v -0.000630555674 2.03698874e-05 0.00450000539
v -0.00048074685 8.82241875e-05 0.00409999862
v -0.00048074685 8.82241875e-05 0.00450000539
v -0.000351250172 0.000171249732 0.00409999862
v -0.000351250172 0.000171249732 0.00450000539
v -0.00024196133 0.000269485638 0.00409999862
v -0.00024196133 0.000269485638 0.00450000539
v -0.00015277788 0.000382963568 0.00409999862
v -0.00015277788 0.000382963568 0.00450000539
v -8.35936517e-05 0.000511718914 0.00409999862
v -8.35936517e-05 0.000511718914 0.00450000539
v -3.43061984e-05 0.000655787066 0.00409999862
v -3.43061984e-05 0.000655787066 0.00450000539
v -4.80934978e-06 0.000815201551 0.00409999862
v -4.80934978e-06 0.000815201551 0.00450000539
v 4.99933958e-06 0.000989999622 0.00409999862
v 4.99933958e-06 0.000989999622 0.00450000539
v -1.22748315e-06 0.00111582689 0.00409999862
v -1.22748315e-06 0.00111582689 0.00450000539
v -2.06474215e-05 0.00123745389 0.00409999862
v -2.06474215e-05 0.00123745389 0.00450000539
v -5.43743372e-05 0.00135359354 0.00409999862
v -5.43743372e-05 0.00135359354 0.00450000539
v -0.000103518367 0.00146296248 0.00409999862
v -0.000103518367 0.00146296248 0.00450000539
v -0.000169189647 0.00156427547 0.00409999862
v -0.000169189647 0.00156427547 0.00450000539
v -0.000252500176 0.00165624917 0.00409999862
v -0.000252500176 0.00165624917 0.00450000539
v -0.000354560092 0.00173759833 0.00409999862
v -0.000354560092 0.00173759833 0.00450000539
v -0.000476481393 0.00180703774 0.00409999862
v -0.000476481393 0.00180703774 0.00450000539
v -0.000619374216 0.00186328217 0.00409999862
v -0.000619374216 0.00186328217 0.00450000539
v -0.000784352422 0.0019050464 0.00409999862
v -0.000784352422 0.0019050464 0.00450000539
v -0.000972522423 0.00193104707 0.00409999862
v -0.000972522423 0.00193104707 0.00450000539
v -0.00118499994 0.0019400008 0.00409999862
v -0.00118499994 0.0019400008 0.00450000539
v -0.00208500028 0.0019400008 0.00409999862
v -0.00208500028 0.0019400008 0.00450000539
v -0.00208500028 -9.99998301e-05 0.00409999862
v -0.00208500028 -9.99998301e-05 0.00450000539
v -0.00085500069 -0.00311999954 0.00409999862
v -0.00085500069 -0.00311999954 0.00450000539
v -0.000584693626 -0.00310849026 0.00409999862
v -0.000584693626 -0.00310849026 0.00450000539
v -0.000347547233 -0.00307541713 0.00409999862
v -0.000347547233 -0.00307541713 0.00450000539
v -0.000141719356 -0.00302296877 0.00409999862
v -0.000141719356 -0.00302296877 0.00450000539
v 3.4628436e-05 -0.00295333378 0.00409999862
v 3.4628436e-05 -0.00295333378 0.00450000539
v 0.000183338299 -0.00286869891 0.00409999862
v 0.000183338299 -0.00286869891 0.00450000539
v 0.000306250528 -0.0027712509 0.00409999862
v 0.000306250528 -0.0027712509 0.00450000539
v 0.000405201688 -0.00266317651 0.00409999862
v 0.000405201688 -0.00266317651 0.00450000539
v 0.000482037663 -0.00254666619 0.00409999862
v 0.000482037663 -0.00254666619 0.00450000539
v 0.000538593158 -0.0024239067 0.00409999862
v 0.000538593158 -0.0024239067 0.00450000539
v 0.000576712191 -0.00229708292 0.00409999862
v 0.000576712191 -0.00229708292 0.00450000539
v 0.000598235056 -0.00216838531 0.00409999862
v 0.000598235056 -0.00216838531 0.00450000539
v 0.000605000183 -0.00204000063 0.00409999862
v 0.000605000183 -0.00204000063 0.00450000539
v 0.000594960526 -0.001888901 0.00409999862
v 0.000594960526 -0.001888901 0.00450000539
v 0.000564675778 -0.00174620375 0.00409999862
v 0.000564675778 -0.00174620375 0.00450000539
v 0.000513905659 -0.00161281228 0.00409999862
v 0.000513905659 -0.00161281228 0.00450000539
v 0.000442408025 -0.00148962997 0.00409999862
v 0.000442408025 -0.00148962997 0.00450000539
v 0.000349937007 -0.00137755834 0.00409999862
v 0.000349937007 -0.00137755834 0.00450000539
v 0.00023625046 -0.00127750076 0.00409999862
v 0.00023625046 -0.00127750076 0.00450000539
v 0.000101106241 -0.00119035877 0.00409999862
v 0.000101106241 -0.00119035877 0.00450000539
v -5.57415187e-05 -0.00111703761 0.00409999862
v -5.57415187e-05 -0.00111703761 0.00450000539
v -0.000234531239 -0.00105843693 0.00409999862
v -0.000234531239 -0.00105843693 0.00450000539
v -0.000435508788 -0.00101546384 0.00409999862
v -0.000435508788 -0.00101546384 0.00450000539
v -0.000658918172 -0.000989016145 0.00409999862
v -0.000658918172 -0.000989016145 0.00450000539
v -0.000904999673 -0.000980000943 0.00409999862
v -0.000904999673 -0.000980000943 0.00450000539
v -0.00208500028 -0.000980000943 0.00409999862
v -0.00208500028 -0.000980000943 0.00450000539
v -0.00208500028 -0.00311999954 0.00409999862
v -0.00208500028 -0.00311999954 0.00450000539
usemtl screen_white_text_003
f 203 230 204
f 230 153 204
f 230 154 153
f 230 155 154
f 230 156 155
f 230 157 156
f 230 158 157
f 230 159 158
f 230 160 159
f 230 229 160
f 229 161 160
f 203 231 230
f 228 161 229
f 227 161 228
f 227 162 161
f 226 162 227
f 225 162 226
f 224 162 225
f 223 162 224
f 223 163 162
f 222 163 223
f 221 163 222
f 221 164 163
f 220 164 221
f 219 164 220
f 219 165 164
f 218 165 219
f 217 165 218
f 217 166 165
f 216 166 217
f 216 167 166
f 215 167 216
f 215 168 167
f 214 168 215
f 214 169 168
f 213 169 214
f 213 170 169
f 212 170 213
f 212 171 170
f 211 171 212
f 211 172 171
f 210 172 211
f 209 172 210
f 209 173 172
f 208 173 209
f 208 174 173
f 207 174 208
f 206 174 207
f 205 174 206
f 203 257 231
f 257 205 231
f 257 174 205
f 257 175 174
f 257 176 175
f 257 177 176
f 257 178 177
f 257 179 178
f 257 180 179
f 257 181 180
f 257 182 181
f 257 183 182
f 257 256 183
f 256 184 183
f 203 258 257
f 255 184 256
f 254 184 255
f 253 184 254
f 253 185 184
f 252 185 253
f 251 185 252
f 251 186 185
f 250 186 251
f 249 186 250
f 249 187 186
f 248 187 249
f 247 187 248
f 247 188 187
f 246 188 247
f 246 189 188
f 245 189 246
f 244 189 245
f 244 190 189
f 243 190 244
f 242 190 243
f 242 191 190
f 241 191 242
f 241 192 191
f 240 192 241
f 239 192 240
f 239 193 192
f 238 193 239
f 237 193 238
f 237 194 193
f 236 194 237
f 235 194 236
f 234 194 235
f 234 195 194
f 233 195 234
f 232 195 233
f 203 232 258
f 203 195 232
f 203 196 195
f 203 197 196
f 203 198 197
f 203 199 198
f 203 200 199
f 203 201 200
f 203 202 201
f 309 310 336
f 336 310 259
f 336 259 260
f 336 260 261
f 336 261 262
f 336 262 263
f 336 263 264
f 336 264 265
f 336 265 266
f 336 266 335
f 335 266 267
f 309 336 337
f 334 335 267
f 333 334 267
f 333 267 268
f 332 333 268
f 331 332 268
f 330 331 268
f 329 330 268
f 329 268 269
f 328 329 269
f 327 328 269
f 327 269 270
f 326 327 270
f 325 326 270
f 325 270 271
f 324 325 271
f 323 324 271
f 323 271 272
f 322 323 272
f 322 272 273
f 321 322 273
f 321 273 274
f 320 321 274
f 320 274 275
f 319 320 275
f 319 275 276
f 318 319 276
f 318 276 277
f 317 318 277
f 317 277 278
f 316 317 278
f 315 316 278
f 315 278 279
f 314 315 279
f 314 279 280
f 313 314 280
f 312 313 280
f 311 312 280
f 309 337 363
f 363 337 311
f 363 311 280
f 363 280 281
f 363 281 282
f 363 282 283
f 363 283 284
f 363 284 285
f 363 285 286
f 363 286 287
f 363 287 288
f 363 288 289
f 363 289 362
f 362 289 290
f 309 363 364
f 361 362 290
f 360 361 290
f 359 360 290
f 359 290 291
f 358 359 291
f 357 358 291
f 357 291 292
f 356 357 292
f 355 356 292
f 355 292 293
f 354 355 293
f 353 354 293
f 353 293 294
f 352 353 294
f 352 294 295
f 351 352 295
f 350 351 295
f 350 295 296
f 349 350 296
f 348 349 296
f 348 296 297
f 347 348 297
f 347 297 298
f 346 347 298
f 345 346 298
f 345 298 299
f 344 345 299
f 343 344 299
f 343 299 300
f 342 343 300
f 341 342 300
f 340 341 300
f 340 300 301
f 339 340 301
f 338 339 301
f 309 364 338
f 309 338 301
f 309 301 302
f 309 302 303
f 309 303 304
f 309 304 305
f 309 305 306
f 309 306 307
f 309 307 308
f 366 368 367 365
f 368 370 369 367
f 370 372 371 369
f 372 374 373 371
f 374 376 375 373
f 376 378 377 375
f 378 380 379 377
f 380 382 381 379
f 382 384 383 381
f 384 386 385 383
f 386 388 387 385
f 388 390 389 387
f 390 392 391 389
f 392 394 393 391
f 394 396 395 393
f 396 398 397 395
f 398 400 399 397
f 400 402 401 399
f 402 404 403 401
f 404 406 405 403
f 406 408 407 405
f 408 410 409 407
f 410 412 411 409
f 412 414 413 411
f 414 416 415 413
f 416 418 417 415
f 418 420 419 417
f 420 422 421 419
f 422 424 423 421
f 424 426 425 423
f 426 428 427 425
f 428 430 429 427
f 430 432 431 429
f 432 434 433 431
f 434 436 435 433
f 436 438 437 435
f 438 440 439 437
f 440 442 441 439
f 442 444 443 441
f 444 446 445 443
f 446 448 447 445
f 448 450 449 447
f 450 452 451 449
f 452 454 453 451
f 454 456 455 453
f 456 458 457 455
f 458 460 459 457
f 460 462 461 459
f 462 464 463 461
f 464 466 465 463
f 466 468 467 465
f 468 366 365 467
f 470 472 471 469
f 472 474 473 471
f 474 476 475 473
f 476 478 477 475
f 478 480 479 477
f 480 482 481 479
f 482 484 483 481
f 484 486 485 483
f 486 488 487 485
f 488 490 489 487
f 490 492 491 489
f 492 494 493 491
f 494 496 495 493
f 496 498 497 495
f 498 500 499 497
f 500 502 501 499
f 502 504 503 501
f 504 506 505 503
f 506 508 507 505
f 508 510 509 507
f 510 512 511 509
f 512 514 513 511
f 514 516 515 513
f 516 518 517 515
f 518 520 519 517
f 520 522 521 519
f 522 470 469 521
f 524 526 525 523
f 526 528 527 525
f 528 530 529 527
f 530 532 531 529
f 532 534 533 531
f 534 536 535 533
f 536 538 537 535
f 538 540 539 537
f 540 542 541 539
f 542 544 543 541
f 544 546 545 543
f 546 548 547 545
f 548 550 549 547
f 550 552 551 549
f 552 554 553 551
f 554 556 555 553
f 556 558 557 555
f 558 560 559 557
f 560 562 561 559
f 562 564 563 561
f 564 566 565 563
f 566 568 567 565
f 568 570 569 567
f 570 572 571 569
f 572 574 573 571
f 574 576 575 573
f 576 524 523 575
