mtllib keyboard_key_0_12_F12_link.mtl
o keyboard_key_0_12_F12_link

g keyboard_key_0_12_F12_SOLID
v -0.0164999962 -0.0119999945 0
v -0.0164999962 -0.00849999487 -0.00349999964
v -0.0200000107 -0.00849999487 0
v -0.0164999962 -0.0117335767 -0.00133939087
v -0.0164999962 -0.0109748691 -0.00247487426
v -0.017839402 -0.0117335767 0
v -0.0178729594 -0.0114120394 -0.00137295946
v -0.0178032815 -0.0107968897 -0.00229689106
v -0.0185207129 -0.0105207264 -0.00202072784
v -0.017839402 -0.00849999487 -0.00323357806
v -0.0189748704 -0.00849999487 -0.00247487426
v -0.0164999962 -0.00983938575 -0.00323357806
v -0.0178729594 -0.00987295806 -0.0029120408
v -0.018796891 -0.00980329514 -0.00229689106
v -0.019733578 -0.00983938575 0
v -0.0189748704 -0.0109748691 0
v -0.019733578 -0.00849999487 -0.00133939087
v -0.0194120407 -0.00987295806 -0.00137295946
v -0.018796891 -0.0107968897 -0.00130329654
v 0.0164999962 -0.0119999945 0
v 0.0200000107 -0.00849999487 0
v 0.0164999962 -0.00849999487 -0.00349999964
v 0.017839402 -0.0117335767 0
v 0.0189748704 -0.0109748691 0
v 0.0164999962 -0.0117335767 -0.00133939087
v 0.0178729594 -0.0114120394 -0.00137295946
v 0.018796891 -0.0107968897 -0.00130329654
v 0.0185207129 -0.0105207264 -0.00202072784
v 0.019733578 -0.00849999487 -0.00133939087
v 0.0189748704 -0.00849999487 -0.00247487426
v 0.019733578 -0.00983938575 0
v 0.0194120407 -0.00987295806 -0.00137295946
v 0.018796891 -0.00980329514 -0.00229689106
v 0.0164999962 -0.00983938575 -0.00323357806
v 0.0164999962 -0.0109748691 -0.00247487426
v 0.017839402 -0.00849999487 -0.00323357806
v 0.0178729594 -0.00987295806 -0.0029120408
v 0.0178032815 -0.0107968897 -0.00229689106
v 0.0164999962 0.0119999945 0
v 0.0164999962 0.00849999487 -0.00349999964
v 0.0200000107 0.00849999487 0
v 0.0164999962 0.0117335767 -0.00133939087
v 0.0164999962 0.0109748691 -0.00247487426
v 0.017839402 0.0117335767 0
v 0.0178729594 0.0114120394 -0.00137295946
v 0.0178032815 0.0107968897 -0.00229689106
v 0.0185207129 0.0105207264 -0.00202072784
v 0.017839402 0.00849999487 -0.00323357806
v 0.0189748704 0.00849999487 -0.00247487426
v 0.0164999962 0.00983938575 -0.00323357806
v 0.0178729594 0.00987295806 -0.0029120408
v 0.018796891 0.00980329514 -0.00229689106
v 0.019733578 0.00983938575 0
v 0.0189748704 0.0109748691 0
v 0.019733578 0.00849999487 -0.00133939087
v 0.0194120407 0.00987295806 -0.00137295946
v 0.018796891 0.0107968897 -0.00130329654
v -0.0164999962 0.0119999945 0
v -0.0200000107 0.00849999487 0
v -0.0164999962 0.00849999487 -0.00349999964
v -0.017839402 0.0117335767 0
v -0.0189748704 0.0109748691 0
v -0.0164999962 0.0117335767 -0.00133939087
v -0.0178729594 0.0114120394 -0.00137295946
v -0.018796891 0.0107968897 -0.00130329654
v -0.0185207129 0.0105207264 -0.00202072784
v -0.019733578 0.00849999487 -0.00133939087
v -0.0189748704 0.00849999487 -0.00247487426
v -0.019733578 0.00983938575 0
v -0.0194120407 0.00987295806 -0.00137295946
v -0.018796891 0.00980329514 -0.00229689106
v -0.0164999962 0.00983938575 -0.00323357806
v -0.0164999962 0.0109748691 -0.00247487426
v -0.017839402 0.00849999487 -0.00323357806
v -0.0178729594 0.00987295806 -0.0029120408
v -0.0178032815 0.0107968897 -0.00229689106
v -0.0200000107 -0.00849999487 0
v -0.0164999962 -0.00849999487 0.00350000337
v -0.0164999962 -0.0119999945 0
v -0.019733578 -0.00849999487 0.00133939087
v -0.0189748704 -0.00849999487 0.00247487426
v -0.019733578 -0.00983938575 0
v -0.0194120407 -0.00987295806 0.00137295946
v -0.018796891 -0.00980329514 0.00229689106
v -0.0185207129 -0.0105207264 0.00202072784
v -0.0164999962 -0.00983938575 0.00323357806
v -0.0164999962 -0.0109748691 0.00247487426
v -0.017839402 -0.00849999487 0.00323357806
v -0.0178729594 -0.00987295806 0.0029120408
v -0.0178032815 -0.0107968897 0.00229689106
v -0.017839402 -0.0117335767 0
v -0.0189748704 -0.0109748691 0
v -0.0164999962 -0.0117335767 0.00133939087
v -0.0178729594 -0.0114120394 0.00137295946
v -0.018796891 -0.0107968897 0.00130329654
v 0.0164999962 -0.0119999945 0
v 0.0164999962 -0.00849999487 0.00350000337
v 0.0200000107 -0.00849999487 0
v 0.0164999962 -0.0117335767 0.00133939087
v 0.0164999962 -0.0109748691 0.00247487426
v 0.017839402 -0.0117335767 0
v 0.0178729594 -0.0114120394 0.00137295946
v 0.0178032815 -0.0107968897 0.00229689106
v 0.0185207129 -0.0105207264 0.00202072784
v 0.017839402 -0.00849999487 0.00323357806
v 0.0189748704 -0.00849999487 0.00247487426
v 0.0164999962 -0.00983938575 0.00323357806
v 0.0178729594 -0.00987295806 0.0029120408
v 0.018796891 -0.00980329514 0.00229689106
v 0.019733578 -0.00983938575 0
v 0.0189748704 -0.0109748691 0
v 0.019733578 -0.00849999487 0.00133939087
v 0.0194120407 -0.00987295806 0.00137295946
v 0.018796891 -0.0107968897 0.00130329654
v 0.0164999962 0.00849999487 0.00350000337
v 0.0164999962 0.0119999945 0
v 0.0200000107 0.00849999487 0
v 0.0164999962 0.00983938575 0.00323357806
v 0.0164999962 0.0109748691 0.00247487426
v 0.017839402 0.00849999487 0.00323357806
v 0.0178729594 0.00987295806 0.0029120408
v 0.0178032815 0.0107968897 0.00229689106
v 0.0185207129 0.0105207264 0.00202072784
v 0.017839402 0.0117335767 0
v 0.0189748704 0.0109748691 0
v 0.0164999962 0.0117335767 0.00133939087
v 0.0178729594 0.0114120394 0.00137295946
v 0.018796891 0.0107968897 0.00130329654
v 0.019733578 0.00849999487 0.00133939087
v 0.0189748704 0.00849999487 0.00247487426
v 0.019733578 0.00983938575 0
v 0.0194120407 0.00987295806 0.00137295946
v 0.018796891 0.00980329514 0.00229689106
v -0.0200000107 0.00849999487 0
v -0.0164999962 0.0119999945 0
v -0.0164999962 0.00849999487 0.00350000337
v -0.019733578 0.00983938575 0
v -0.0189748704 0.0109748691 0
v -0.019733578 0.00849999487 0.00133939087
v -0.0194120407 0.00987295806 0.00137295946
v -0.018796891 0.0107968897 0.00130329654
v -0.0185207129 0.0105207264 0.00202072784
v -0.0164999962 0.0117335767 0.00133939087
v -0.0164999962 0.0109748691 0.00247487426
v -0.017839402 0.0117335767 0
v -0.0178729594 0.0114120394 0.00137295946
v -0.0178032815 0.0107968897 0.00229689106
v -0.017839402 0.00849999487 0.00323357806
v -0.0189748704 0.00849999487 0.00247487426
v -0.0164999962 0.00983938575 0.00323357806
v -0.0178729594 0.00987295806 0.0029120408
v -0.018796891 0.00980329514 0.00229689106
usemtl matte_black_keycaps_003
f 59 134 77 3
f 2 22 40 60
f 39 116 135 58
f 78 136 115 97
f 21 98 117 41
f 1 4 7 6
f 4 5 8 7
f 6 7 19 16
f 7 8 9 19
f 2 10 13 12
f 10 11 14 13
f 12 13 8 5
f 13 14 9 8
f 3 15 18 17
f 15 16 19 18
f 17 18 14 11
f 18 19 9 14
f 20 23 26 25
f 23 24 27 26
f 25 26 38 35
f 26 27 28 38
f 21 29 32 31
f 29 30 33 32
f 31 32 27 24
f 32 33 28 27
f 22 34 37 36
f 34 35 38 37
f 36 37 33 30
f 37 38 28 33
f 39 42 45 44
f 42 43 46 45
f 44 45 57 54
f 45 46 47 57
f 40 48 51 50
f 48 49 52 51
f 50 51 46 43
f 51 52 47 46
f 41 53 56 55
f 53 54 57 56
f 55 56 52 49
f 56 57 47 52
f 58 61 64 63
f 61 62 65 64
f 63 64 76 73
f 64 65 66 76
f 59 67 70 69
f 67 68 71 70
f 69 70 65 62
f 70 71 66 65
f 60 72 75 74
f 72 73 76 75
f 74 75 71 68
f 75 76 66 71
f 77 80 83 82
f 80 81 84 83
f 82 83 95 92
f 83 84 85 95
f 78 86 89 88
f 86 87 90 89
f 88 89 84 81
f 89 90 85 84
f 79 91 94 93
f 91 92 95 94
f 93 94 90 87
f 94 95 85 90
f 96 99 102 101
f 99 100 103 102
f 101 102 114 111
f 102 103 104 114
f 97 105 108 107
f 105 106 109 108
f 107 108 103 100
f 108 109 104 103
f 98 110 113 112
f 110 111 114 113
f 112 113 109 106
f 113 114 104 109
f 115 118 121 120
f 118 119 122 121
f 120 121 133 130
f 121 122 123 133
f 116 124 127 126
f 124 125 128 127
f 126 127 122 119
f 127 128 123 122
f 117 129 132 131
f 129 130 133 132
f 131 132 128 125
f 132 133 123 128
f 134 137 140 139
f 137 138 141 140
f 139 140 152 149
f 140 141 142 152
f 135 143 146 145
f 143 144 147 146
f 145 146 141 138
f 146 147 142 141
f 136 148 151 150
f 148 149 152 151
f 150 151 147 144
f 151 152 142 147
f 39 58 63 42
f 42 63 73 43
f 43 73 72 50
f 50 72 60 40
f 1 20 25 4
f 4 25 35 5
f 5 35 34 12
f 12 34 22 2
f 21 41 55 29
f 29 55 49 30
f 30 49 48 36
f 36 48 40 22
f 2 60 74 10
f 10 74 68 11
f 11 68 67 17
f 17 67 59 3
f 3 77 82 15
f 15 82 92 16
f 16 92 91 6
f 6 91 79 1
f 78 97 107 86
f 86 107 100 87
f 87 100 99 93
f 93 99 96 79
f 97 115 120 105
f 105 120 130 106
f 106 130 129 112
f 112 129 117 98
f 77 134 139 80
f 80 139 149 81
f 81 149 148 88
f 88 148 136 78
f 20 96 101 23
f 23 101 111 24
f 24 111 110 31
f 31 110 98 21
f 41 117 131 53
f 53 131 125 54
f 54 125 124 44
f 44 124 116 39
f 115 136 150 118
f 118 150 144 119
f 119 144 143 126
f 126 143 135 116
f 58 135 145 61
f 61 145 138 62
f 62 138 137 69
f 69 137 134 59
f 1 79 96 20

g key_legend_0_12_F12
v 0.000879526138 -0.00310000777 0.00450000539
v 0.000879526138 -0.00305099785 0.00450000539
v 0.00101467967 -0.00288717449 0.00450000539
v 0.00115650892 -0.00271512568 0.00450000539
v 0.00130313635 -0.00253628194 0.00450000539
v 0.00145274401 -0.00235204399 0.00450000539
v 0.00160351396 -0.00216381252 0.00450000539
v 0.00175362825 -0.00197300315 0.00450000539
v 0.00190126896 -0.00178103149 0.00450000539
v 0.00204461813 -0.00158929825 0.00450000539
v 0.00218182802 -0.00139921904 0.00450000539
v 0.0023111105 -0.00121220946 0.00450000539
v 0.00243061781 -0.00102967024 0.00450000539
v 0.00253850222 -0.000853002071 0.00450000539
v 0.0025921762 -0.000759631395 0.00450000539
v 0.00264117122 -0.000671327114 0.00450000539
v 0.00268551707 -0.000587001443 0.00450000539
v 0.00272518396 -0.000505596399 0.00450000539
v 0.00276017189 -0.0004260391 0.00450000539
v 0.00279051065 -0.00034725666 0.00450000539
v 0.00281617045 -0.000268176198 0.00450000539
v 0.00283718109 -0.00018773973 0.00450000539
v 0.00285351276 -0.000104874372 0.00450000539
v 0.00286516547 -1.85072422e-05 0.00450000539
v 0.00287216902 7.24196434e-05 0.00450000539
v 0.0028745234 0.000168994069 0.00450000539
v 0.00286734104 0.000296920538 0.00450000539
v 0.00284641981 0.000417664647 0.00450000539
v 0.00281250477 0.000530481339 0.00450000539
v 0.00276640058 0.000634625554 0.00450000539
v 0.0027089417 0.000729337335 0.00450000539
v 0.00264087319 0.000813871622 0.00450000539
v 0.00256305933 0.000887468457 0.00450000539
v 0.00247630477 0.000949367881 0.00450000539
v 0.00238135457 0.000998824835 0.00450000539
v 0.0022790134 0.00103507936 0.00450000539
v 0.00217014551 0.0010574013 0.00450000539
v 0.00205552578 0.00106500089 0.00450000539
v 0.00196960568 0.00106167793 0.00450000539
v 0.00188329816 0.00105132163 0.00450000539
v 0.0017965138 0.00103327632 0.00450000539
v 0.00170913339 0.00100693107 0.00450000539
v 0.00162109733 0.000971630216 0.00450000539
v 0.0015322566 0.000926747918 0.00450000539
v 0.00144255161 0.000871658325 0.00450000539
v 0.00135189295 0.000805735588 0.00450000539
v 0.0012601316 0.000728338957 0.00450000539
v 0.00116723776 0.000638842583 0.00450000539
v 0.00107306242 0.000536605716 0.00450000539
v 0.000977516174 0.000421002507 0.00450000539
v 0.000977516174 0.0012819916 0.00450000539
v 0.00107321143 0.00135564804 0.00450000539
v 0.00116795301 0.00142264366 0.00450000539
v 0.00126188993 0.00148302317 0.00450000539
v 0.00135526061 0.00153684616 0.00450000539
v 0.00144824386 0.00158415735 0.00450000539
v 0.00154101849 0.00162500143 0.00450000539
v 0.00163379312 0.00165942311 0.00450000539
v 0.00172677636 0.001687482 0.00450000539
v 0.00182014704 0.00170922279 0.00450000539
v 0.00191408396 0.0017246902 0.00450000539
v 0.00200882554 0.00173392892 0.00450000539
v 0.0021045208 0.00173699856 0.00450000539
v 0.00231403112 0.00172451138 0.00450000539
v 0.0025113225 0.00168780982 0.00450000539
v 0.00269523263 0.00162805617 0.00450000539
v 0.00286465883 0.00154644251 0.00450000539
v 0.00301840901 0.00144411623 0.00450000539
v 0.00315538049 0.00132225454 0.00450000539
v 0.00327441096 0.00118200481 0.00450000539
v 0.00337436795 0.00102455914 0.00450000539
v 0.00345408916 0.00085106492 0.00450000539
v 0.00351244211 0.000662699342 0.00450000539
v 0.00354829431 0.000460609794 0.00450000539
v 0.00356051326 0.00024600327 0.00450000539
v 0.00355163217 5.39422035e-05 0.00450000539
v 0.00352448225 -0.000135436654 0.00450000539
v 0.00347825885 -0.000324726105 0.00450000539
v 0.0034122169 -0.000516489148 0.00450000539
v 0.00332555175 -0.000713303685 0.00450000539
v 0.00321751833 -0.000917747617 0.00450000539
v 0.00308731198 -0.00113241374 0.00450000539
v 0.00293412805 -0.00135985017 0.00450000539
v 0.00275725126 -0.00160266459 0.00450000539
v 0.00255587697 -0.00186340511 0.00450000539
v 0.00232923031 -0.00214464962 0.00450000539
v 0.00207650661 -0.00244900584 0.00450000539
v 0.00390350819 -0.00244900584 0.00450000539
v 0.00390350819 -0.00310000777 0.00450000539
v -0.00144448876 -0.00310000777 0.00450000539
v -0.00144448876 0.00167399645 0.00450000539
v -0.000758498907 0.00167399645 0.00450000539
v -0.000758498907 -0.00310000777 0.00450000539
v -0.00492349267 0.00105799735 0.00450000539
v -0.00492349267 -0.000265002251 0.00450000539
v -0.00306147337 -0.000265002251 0.00450000539
v -0.00306147337 -0.000881001353 0.00450000539
v -0.00492349267 -0.000881001353 0.00450000539
v -0.00492349267 -0.00310000777 0.00450000539
v -0.00560948253 -0.00310000777 0.00450000539
v -0.00560948253 0.00167399645 0.00450000539
v -0.00306147337 0.00167399645 0.00450000539
v -0.00306147337 0.00105799735 0.00450000539
v 0.000879526138 -0.00310000777 0.00409999862
v 0.000879526138 -0.00305099785 0.00409999862
v 0.00101467967 -0.00288717449 0.00409999862
v 0.00115650892 -0.00271512568 0.00409999862
v 0.00130313635 -0.00253628194 0.00409999862
v 0.00145274401 -0.00235204399 0.00409999862
v 0.00160351396 -0.00216381252 0.00409999862
v 0.00175362825 -0.00197300315 0.00409999862
v 0.00190126896 -0.00178103149 0.00409999862
v 0.00204461813 -0.00158929825 0.00409999862
v 0.00218182802 -0.00139921904 0.00409999862
v 0.0023111105 -0.00121220946 0.00409999862
v 0.00243061781 -0.00102967024 0.00409999862
v 0.00253850222 -0.000853002071 0.00409999862
v 0.0025921762 -0.000759631395 0.00409999862
v 0.00264117122 -0.000671327114 0.00409999862
v 0.00268551707 -0.000587001443 0.00409999862
v 0.00272518396 -0.000505596399 0.00409999862
v 0.00276017189 -0.0004260391 0.00409999862
v 0.00279051065 -0.00034725666 0.00409999862
v 0.00281617045 -0.000268176198 0.00409999862
v 0.00283718109 -0.00018773973 0.00409999862
v 0.00285351276 -0.000104874372 0.00409999862
v 0.00286516547 -1.85072422e-05 0.00409999862
v 0.00287216902 7.24196434e-05 0.00409999862
v 0.0028745234 0.000168994069 0.00409999862
v 0.00286734104 0.000296920538 0.00409999862
v 0.00284641981 0.000417664647 0.00409999862
v 0.00281250477 0.000530481339 0.00409999862
v 0.00276640058 0.000634625554 0.00409999862
v 0.0027089417 0.000729337335 0.00409999862
v 0.00264087319 0.000813871622 0.00409999862
v 0.00256305933 0.000887468457 0.00409999862
v 0.00247630477 0.000949367881 0.00409999862
v 0.00238135457 0.000998824835 0.00409999862
v 0.0022790134 0.00103507936 0.00409999862
v 0.00217014551 0.0010574013 0.00409999862
v 0.00205552578 0.00106500089 0.00409999862
v 0.00196960568 0.00106167793 0.00409999862
v 0.00188329816 0.00105132163 0.00409999862
v 0.0017965138 0.00103327632 0.00409999862
v 0.00170913339 0.00100693107 0.00409999862
v 0.00162109733 0.000971630216 0.00409999862
v 0.0015322566 0.000926747918 0.00409999862
v 0.00144255161 0.000871658325 0.00409999862
v 0.00135189295 0.000805735588 0.00409999862
v 0.0012601316 0.000728338957 0.00409999862
v 0.00116723776 0.000638842583 0.00409999862
v 0.00107306242 0.000536605716 0.00409999862
v 0.000977516174 0.000421002507 0.00409999862
v 0.000977516174 0.0012819916 0.00409999862
v 0.00107321143 0.00135564804 0.00409999862
v 0.00116795301 0.00142264366 0.00409999862
v 0.00126188993 0.00148302317 0.00409999862
v 0.00135526061 0.00153684616 0.00409999862
v 0.00144824386 0.00158415735 0.00409999862
v 0.00154101849 0.00162500143 0.00409999862
v 0.00163379312 0.00165942311 0.00409999862
v 0.00172677636 0.001687482 0.00409999862
v 0.00182014704 0.00170922279 0.00409999862
v 0.00191408396 0.0017246902 0.00409999862
v 0.00200882554 0.00173392892 0.00409999862
v 0.0021045208 0.00173699856 0.00409999862
v 0.00231403112 0.00172451138 0.00409999862
v 0.0025113225 0.00168780982 0.00409999862
v 0.00269523263 0.00162805617 0.00409999862
v 0.00286465883 0.00154644251 0.00409999862
v 0.00301840901 0.00144411623 0.00409999862
v 0.00315538049 0.00132225454 0.00409999862
v 0.00327441096 0.00118200481 0.00409999862
v 0.00337436795 0.00102455914 0.00409999862
v 0.00345408916 0.00085106492 0.00409999862
v 0.00351244211 0.000662699342 0.00409999862
v 0.00354829431 0.000460609794 0.00409999862
v 0.00356051326 0.00024600327 0.00409999862
v 0.00355163217 5.39422035e-05 0.00409999862
v 0.00352448225 -0.000135436654 0.00409999862
v 0.00347825885 -0.000324726105 0.00409999862
v 0.0034122169 -0.000516489148 0.00409999862
v 0.00332555175 -0.000713303685 0.00409999862
v 0.00321751833 -0.000917747617 0.00409999862
v 0.00308731198 -0.00113241374 0.00409999862
v 0.00293412805 -0.00135985017 0.00409999862
v 0.00275725126 -0.00160266459 0.00409999862
v 0.00255587697 -0.00186340511 0.00409999862
v 0.00232923031 -0.00214464962 0.00409999862
v 0.00207650661 -0.00244900584 0.00409999862
v 0.00390350819 -0.00244900584 0.00409999862
v 0.00390350819 -0.00310000777 0.00409999862
v -0.00144448876 -0.00310000777 0.00409999862
v -0.00144448876 0.00167399645 0.00409999862
v -0.000758498907 0.00167399645 0.00409999862
v -0.000758498907 -0.00310000777 0.00409999862
v -0.00492349267 0.00105799735 0.00409999862
v -0.00492349267 -0.000265002251 0.00409999862
v -0.00306147337 -0.000265002251 0.00409999862
v -0.00306147337 -0.000881001353 0.00409999862
v -0.00492349267 -0.000881001353 0.00409999862
v -0.00492349267 -0.00310000777 0.00409999862
v -0.00560948253 -0.00310000777 0.00409999862
v -0.00560948253 0.00167399645 0.00409999862
v -0.00306147337 0.00167399645 0.00409999862
v -0.00306147337 0.00105799735 0.00409999862
v -0.00492349267 0.00105799735 0.00409999862
v -0.00492349267 0.00105799735 0.00450000539
v -0.00492349267 -0.000265002251 0.00409999862
v -0.00492349267 -0.000265002251 0.00450000539
v -0.00306147337 -0.000265002251 0.00409999862
v -0.00306147337 -0.000265002251 0.00450000539
v -0.00306147337 -0.000881001353 0.00409999862
v -0.00306147337 -0.000881001353 0.00450000539
v -0.00492349267 -0.000881001353 0.00409999862
v -0.00492349267 -0.000881001353 0.00450000539
v -0.00492349267 -0.00310000777 0.00409999862
v -0.00492349267 -0.00310000777 0.00450000539
v -0.00560948253 -0.00310000777 0.00409999862
v -0.00560948253 -0.00310000777 0.00450000539
v -0.00560948253 0.00167399645 0.00409999862
v -0.00560948253 0.00167399645 0.00450000539
v -0.00306147337 0.00167399645 0.00409999862
v -0.00306147337 0.00167399645 0.00450000539
v -0.00306147337 0.00105799735 0.00409999862
v -0.00306147337 0.00105799735 0.00450000539
v -0.00144448876 -0.00310000777 0.00409999862
v -0.00144448876 -0.00310000777 0.00450000539
v -0.00144448876 0.00167399645 0.00409999862
v -0.00144448876 0.00167399645 0.00450000539
v -0.000758498907 0.00167399645 0.00409999862
v -0.000758498907 0.00167399645 0.00450000539
v -0.000758498907 -0.00310000777 0.00409999862
v -0.000758498907 -0.00310000777 0.00450000539
v 0.000879526138 -0.00310000777 0.00409999862
v 0.000879526138 -0.00310000777 0.00450000539
v 0.000879526138 -0.00305099785 0.00409999862
v 0.000879526138 -0.00305099785 0.00450000539
v 0.00101467967 -0.00288717449 0.00409999862
v 0.00101467967 -0.00288717449 0.00450000539
v 0.00115650892 -0.00271512568 0.00409999862
v 0.00115650892 -0.00271512568 0.00450000539
v 0.00130313635 -0.00253628194 0.00409999862
v 0.00130313635 -0.00253628194 0.00450000539
v 0.00145274401 -0.00235204399 0.00409999862
v 0.00145274401 -0.00235204399 0.00450000539
v 0.00160351396 -0.00216381252 0.00409999862
v 0.00160351396 -0.00216381252 0.00450000539
v 0.00175362825 -0.00197300315 0.00409999862
v 0.00175362825 -0.00197300315 0.00450000539
v 0.00190126896 -0.00178103149 0.00409999862
v 0.00190126896 -0.00178103149 0.00450000539
v 0.00204461813 -0.00158929825 0.00409999862
v 0.00204461813 -0.00158929825 0.00450000539
v 0.00218182802 -0.00139921904 0.00409999862
v 0.00218182802 -0.00139921904 0.00450000539
v 0.0023111105 -0.00121220946 0.00409999862
v 0.0023111105 -0.00121220946 0.00450000539
v 0.00243061781 -0.00102967024 0.00409999862
v 0.00243061781 -0.00102967024 0.00450000539
v 0.00253850222 -0.000853002071 0.00409999862
v 0.00253850222 -0.000853002071 0.00450000539
v 0.0025921762 -0.000759631395 0.00409999862
v 0.0025921762 -0.000759631395 0.00450000539
v 0.00264117122 -0.000671327114 0.00409999862
v 0.00264117122 -0.000671327114 0.00450000539
v 0.00268551707 -0.000587001443 0.00409999862
v 0.00268551707 -0.000587001443 0.00450000539
v 0.00272518396 -0.000505596399 0.00409999862
v 0.00272518396 -0.000505596399 0.00450000539
v 0.00276017189 -0.0004260391 0.00409999862
v 0.00276017189 -0.0004260391 0.00450000539
v 0.00279051065 -0.00034725666 0.00409999862
v 0.00279051065 -0.00034725666 0.00450000539
v 0.00281617045 -0.000268176198 0.00409999862
v 0.00281617045 -0.000268176198 0.00450000539
v 0.00283718109 -0.00018773973 0.00409999862
v 0.00283718109 -0.00018773973 0.00450000539
v 0.00285351276 -0.000104874372 0.00409999862
v 0.00285351276 -0.000104874372 0.00450000539
v 0.00286516547 -1.85072422e-05 0.00409999862
v 0.00286516547 -1.85072422e-05 0.00450000539
v 0.00287216902 7.24196434e-05 0.00409999862
v 0.00287216902 7.24196434e-05 0.00450000539
v 0.0028745234 0.000168994069 0.00409999862
v 0.0028745234 0.000168994069 0.00450000539
v 0.00286734104 0.000296920538 0.00409999862
v 0.00286734104 0.000296920538 0.00450000539
v 0.00284641981 0.000417664647 0.00409999862
v 0.00284641981 0.000417664647 0.00450000539
v 0.00281250477 0.000530481339 0.00409999862
v 0.00281250477 0.000530481339 0.00450000539
v 0.00276640058 0.000634625554 0.00409999862
v 0.00276640058 0.000634625554 0.00450000539
v 0.0027089417 0.000729337335 0.00409999862
v 0.0027089417 0.000729337335 0.00450000539
v 0.00264087319 0.000813871622 0.00409999862
v 0.00264087319 0.000813871622 0.00450000539
v 0.00256305933 0.000887468457 0.00409999862
v 0.00256305933 0.000887468457 0.00450000539
v 0.00247630477 0.000949367881 0.00409999862
v 0.00247630477 0.000949367881 0.00450000539
v 0.00238135457 0.000998824835 0.00409999862
v 0.00238135457 0.000998824835 0.00450000539
v 0.0022790134 0.00103507936 0.00409999862
v 0.0022790134 0.00103507936 0.00450000539
v 0.00217014551 0.0010574013 0.00409999862
v 0.00217014551 0.0010574013 0.00450000539
v 0.00205552578 0.00106500089 0.00409999862
v 0.00205552578 0.00106500089 0.00450000539
v 0.00196960568 0.00106167793 0.00409999862
v 0.00196960568 0.00106167793 0.00450000539
v 0.00188329816 0.00105132163 0.00409999862
v 0.00188329816 0.00105132163 0.00450000539
v 0.0017965138 0.00103327632 0.00409999862
v 0.0017965138 0.00103327632 0.00450000539
v 0.00170913339 0.00100693107 0.00409999862
v 0.00170913339 0.00100693107 0.00450000539
v 0.00162109733 0.000971630216 0.00409999862
v 0.00162109733 0.000971630216 0.00450000539
v 0.0015322566 0.000926747918 0.00409999862
v 0.0015322566 0.000926747918 0.00450000539
v 0.00144255161 0.000871658325 0.00409999862
v 0.00144255161 0.000871658325 0.00450000539
v 0.00135189295 0.000805735588 0.00409999862
v 0.00135189295 0.000805735588 0.00450000539
v 0.0012601316 0.000728338957 0.00409999862
v 0.0012601316 0.000728338957 0.00450000539
v 0.00116723776 0.000638842583 0.00409999862
v 0.00116723776 0.000638842583 0.00450000539
v 0.00107306242 0.000536605716 0.00409999862
v 0.00107306242 0.000536605716 0.00450000539
v 0.000977516174 0.000421002507 0.00409999862
v 0.000977516174 0.000421002507 0.00450000539
v 0.000977516174 0.0012819916 0.00409999862
v 0.000977516174 0.0012819916 0.00450000539
v 0.00107321143 0.00135564804 0.00409999862
v 0.00107321143 0.00135564804 0.00450000539
v 0.00116795301 0.00142264366 0.00409999862
v 0.00116795301 0.00142264366 0.00450000539
v 0.00126188993 0.00148302317 0.00409999862
v 0.00126188993 0.00148302317 0.00450000539
v 0.00135526061 0.00153684616 0.00409999862
v 0.00135526061 0.00153684616 0.00450000539
v 0.00144824386 0.00158415735 0.00409999862
v 0.00144824386 0.00158415735 0.00450000539
v 0.00154101849 0.00162500143 0.00409999862
v 0.00154101849 0.00162500143 0.00450000539
v 0.00163379312 0.00165942311 0.00409999862
v 0.00163379312 0.00165942311 0.00450000539
v 0.00172677636 0.001687482 0.00409999862
v 0.00172677636 0.001687482 0.00450000539
v 0.00182014704 0.00170922279 0.00409999862
v 0.00182014704 0.00170922279 0.00450000539
v 0.00191408396 0.0017246902 0.00409999862
v 0.00191408396 0.0017246902 0.00450000539
v 0.00200882554 0.00173392892 0.00409999862
v 0.00200882554 0.00173392892 0.00450000539
v 0.0021045208 0.00173699856 0.00409999862
v 0.0021045208 0.00173699856 0.00450000539
v 0.00231403112 0.00172451138 0.00409999862
v 0.00231403112 0.00172451138 0.00450000539
v 0.0025113225 0.00168780982 0.00409999862
v 0.0025113225 0.00168780982 0.00450000539
v 0.00269523263 0.00162805617 0.00409999862
v 0.00269523263 0.00162805617 0.00450000539
v 0.00286465883 0.00154644251 0.00409999862
v 0.00286465883 0.00154644251 0.00450000539
v 0.00301840901 0.00144411623 0.00409999862
v 0.00301840901 0.00144411623 0.00450000539
v 0.00315538049 0.00132225454 0.00409999862
v 0.00315538049 0.00132225454 0.00450000539
v 0.00327441096 0.00118200481 0.00409999862
v 0.00327441096 0.00118200481 0.00450000539
v 0.00337436795 0.00102455914 0.00409999862
v 0.00337436795 0.00102455914 0.00450000539
v 0.00345408916 0.00085106492 0.00409999862
v 0.00345408916 0.00085106492 0.00450000539
v 0.00351244211 0.000662699342 0.00409999862
v 0.00351244211 0.000662699342 0.00450000539
v 0.00354829431 0.000460609794 0.00409999862
v 0.00354829431 0.000460609794 0.00450000539
v 0.00356051326 0.00024600327 0.00409999862
v 0.00356051326 0.00024600327 0.00450000539
v 0.00355163217 5.39422035e-05 0.00409999862
v 0.00355163217 5.39422035e-05 0.00450000539
v 0.00352448225 -0.000135436654 0.00409999862
v 0.00352448225 -0.000135436654 0.00450000539
v 0.00347825885 -0.000324726105 0.00409999862
v 0.00347825885 -0.000324726105 0.00450000539
v 0.0034122169 -0.000516489148 0.00409999862
v 0.0034122169 -0.000516489148 0.00450000539
v 0.00332555175 -0.000713303685 0.00409999862
v 0.00332555175 -0.000713303685 0.00450000539
v 0.00321751833 -0.000917747617 0.00409999862
v 0.00321751833 -0.000917747617 0.00450000539
v 0.00308731198 -0.00113241374 0.00409999862
v 0.00308731198 -0.00113241374 0.00450000539
v 0.00293412805 -0.00135985017 0.00409999862
v 0.00293412805 -0.00135985017 0.00450000539
v 0.00275725126 -0.00160266459 0.00409999862
v 0.00275725126 -0.00160266459 0.00450000539
v 0.00255587697 -0.00186340511 0.00409999862
v 0.00255587697 -0.00186340511 0.00450000539
v 0.00232923031 -0.00214464962 0.00409999862
v 0.00232923031 -0.00214464962 0.00450000539
v 0.00207650661 -0.00244900584 0.00409999862
v 0.00207650661 -0.00244900584 0.00450000539
v 0.00390350819 -0.00244900584 0.00409999862
v 0.00390350819 -0.00244900584 0.00450000539
v 0.00390350819 -0.00310000777 0.00409999862
v 0.00390350819 -0.00310000777 0.00450000539
usemtl screen_white_text_003
f 214 216 215
f 213 216 214
f 212 216 213
f 212 217 216
f 211 217 212
f 211 218 217
f 210 218 211
f 209 218 210
f 209 219 218
f 208 219 209
f 207 219 208
f 207 220 219
f 206 220 207
f 205 220 206
f 205 221 220
f 204 221 205
f 203 221 204
f 203 222 221
f 202 201 203
f 201 200 203
f 200 199 203
f 199 198 203
f 198 197 203
f 197 196 203
f 196 195 203
f 195 194 203
f 194 193 203
f 193 192 203
f 192 191 203
f 191 222 203
f 191 190 222
f 190 223 222
f 189 223 190
f 188 223 189
f 187 223 188
f 187 224 223
f 186 224 187
f 185 224 186
f 184 224 185
f 184 225 224
f 183 225 184
f 182 225 183
f 182 226 225
f 181 226 182
f 180 226 181
f 180 227 226
f 179 227 180
f 178 227 179
f 178 228 227
f 177 228 178
f 176 228 177
f 176 229 228
f 175 229 176
f 174 229 175
f 174 230 229
f 173 230 174
f 172 230 173
f 172 231 230
f 171 231 172
f 170 231 171
f 169 231 170
f 169 232 231
f 168 232 169
f 167 232 168
f 167 233 232
f 166 233 167
f 165 233 166
f 165 234 233
f 164 234 165
f 164 235 234
f 163 235 164
f 163 236 235
f 162 236 163
f 161 236 162
f 161 237 236
f 160 237 161
f 160 238 237
f 159 238 160
f 159 239 238
f 158 239 159
f 157 239 158
f 157 240 239
f 157 241 240
f 156 241 157
f 155 241 156
f 154 241 155
f 153 241 154
f 242 244 243
f 242 245 244
f 252 246 253
f 246 254 253
f 246 255 254
f 252 247 246
f 252 250 247
f 250 248 247
f 250 249 248
f 252 251 250
f 317 318 319
f 316 317 319
f 315 316 319
f 315 319 320
f 314 315 320
f 314 320 321
f 313 314 321
f 312 313 321
f 312 321 322
f 311 312 322
f 310 311 322
f 310 322 323
f 309 310 323
f 308 309 323
f 308 323 324
f 307 308 324
f 306 307 324
f 306 324 325
f 305 306 304
f 304 306 303
f 303 306 302
f 302 306 301
f 301 306 300
f 300 306 299
f 299 306 298
f 298 306 297
f 297 306 296
f 296 306 295
f 295 306 294
f 294 306 325
f 294 325 293
f 293 325 326
f 292 293 326
f 291 292 326
f 290 291 326
f 290 326 327
f 289 290 327
f 288 289 327
f 287 288 327
f 287 327 328
f 286 287 328
f 285 286 328
f 285 328 329
f 284 285 329
f 283 284 329
f 283 329 330
f 282 283 330
f 281 282 330
f 281 330 331
f 280 281 331
f 279 280 331
f 279 331 332
f 278 279 332
f 277 278 332
f 277 332 333
f 276 277 333
f 275 276 333
f 275 333 334
f 274 275 334
f 273 274 334
f 272 273 334
f 272 334 335
f 271 272 335
f 270 271 335
f 270 335 336
f 269 270 336
f 268 269 336
f 268 336 337
f 267 268 337
f 267 337 338
f 266 267 338
f 266 338 339
f 265 266 339
f 264 265 339
f 264 339 340
f 263 264 340
f 263 340 341
f 262 263 341
f 262 341 342
f 261 262 342
f 260 261 342
f 260 342 343
f 260 343 344
f 259 260 344
f 258 259 344
f 257 258 344
f 256 257 344
f 345 346 347
f 345 347 348
f 355 356 349
f 349 356 357
f 349 357 358
f 355 349 350
f 355 350 353
f 353 350 351
f 353 351 352
f 355 353 354
f 360 362 361 359
f 362 364 363 361
f 364 366 365 363
f 366 368 367 365
f 368 370 369 367
f 370 372 371 369
f 372 374 373 371
f 374 376 375 373
f 376 378 377 375
f 378 360 359 377
f 380 382 381 379
f 382 384 383 381
f 384 386 385 383
f 386 380 379 385
f 388 390 389 387
f 390 392 391 389
f 392 394 393 391
f 394 396 395 393
f 396 398 397 395
f 398 400 399 397
f 400 402 401 399
f 402 404 403 401
f 404 406 405 403
f 406 408 407 405
f 408 410 409 407
f 410 412 411 409
f 412 414 413 411
f 414 416 415 413
f 416 418 417 415
f 418 420 419 417
f 420 422 421 419
f 422 424 423 421
f 424 426 425 423
f 426 428 427 425
f 428 430 429 427
f 430 432 431 429
f 432 434 433 431
f 434 436 435 433
f 436 438 437 435
f 438 440 439 437
f 440 442 441 439
f 442 444 443 441
f 444 446 445 443
f 446 448 447 445
f 448 450 449 447
f 450 452 451 449
f 452 454 453 451
f 454 456 455 453
f 456 458 457 455
f 458 460 459 457
f 460 462 461 459
f 462 464 463 461
f 464 466 465 463
f 466 468 467 465
f 468 470 469 467
f 470 472 471 469
f 472 474 473 471
f 474 476 475 473
f 476 478 477 475
f 478 480 479 477
f 480 482 481 479
f 482 484 483 481
f 484 486 485 483
f 486 488 487 485
f 488 490 489 487
f 490 492 491 489
f 492 494 493 491
f 494 496 495 493
f 496 498 497 495
f 498 500 499 497
f 500 502 501 499
f 502 504 503 501
f 504 506 505 503
f 506 508 507 505
f 508 510 509 507
f 510 512 511 509
f 512 514 513 511
f 514 516 515 513
f 516 518 517 515
f 518 520 519 517
f 520 522 521 519
f 522 524 523 521
f 524 526 525 523
f 526 528 527 525
f 528 530 529 527
f 530 532 531 529
f 532 534 533 531
f 534 536 535 533
f 536 538 537 535
f 538 540 539 537
f 540 542 541 539
f 542 544 543 541
f 544 546 545 543
f 546 548 547 545
f 548 550 549 547
f 550 552 551 549
f 552 554 553 551
f 554 556 555 553
f 556 558 557 555
f 558 560 559 557
f 560 562 561 559
f 562 564 563 561
f 564 388 387 563
