mtllib keyboard_key_2_10_P_link.mtl
o keyboard_key_2_10_P_link

g keyboard_key_2_10_P_SOLID
v -0.0189999938 -0.0165000036 0
v -0.0189999938 -0.013000004 -0.00349999964
v -0.0225000083 -0.013000004 0
v -0.0189999938 -0.0162335783 -0.0013393946
v -0.0189999938 -0.0154748708 -0.00247487426
v -0.0203393996 -0.0162335783 0
v -0.020372957 -0.0159120411 -0.00137295946
v -0.0203032941 -0.0152968913 -0.00229689106
v -0.0210207254 -0.0150207281 -0.00202072784
v -0.0203393996 -0.013000004 -0.00323357806
v -0.0214748681 -0.013000004 -0.00247487426
v -0.0189999938 -0.0143393949 -0.00323357806
v -0.020372957 -0.0143729597 -0.0029120408
v -0.0212968886 -0.0143032968 -0.00229689106
v -0.0222335756 -0.0143393949 0
v -0.0214748681 -0.0154748708 0
v -0.0222335756 -0.013000004 -0.00133939087
v -0.0219120383 -0.0143729597 -0.00137295946
v -0.0212968886 -0.0152968913 -0.00130329654
v 0.0189999938 -0.0165000036 0
v 0.0225000083 -0.013000004 0
v 0.0189999938 -0.013000004 -0.00349999964
v 0.0203393996 -0.0162335783 0
v 0.0214748681 -0.0154748708 0
v 0.0189999938 -0.0162335783 -0.00133939087
v 0.020372957 -0.0159120411 -0.00137295946
v 0.0212968886 -0.0152968913 -0.00130329654
v 0.0210207254 -0.0150207281 -0.00202072784
v 0.0222335756 -0.013000004 -0.0013393946
v 0.0214748681 -0.013000004 -0.00247487426
v 0.0222335756 -0.0143393949 0
v 0.0219120383 -0.0143729597 -0.00137295946
v 0.0212968886 -0.0143032968 -0.00229689106
v 0.0189999938 -0.0143393949 -0.00323357806
v 0.0189999938 -0.0154748708 -0.00247487426
v 0.0203393996 -0.013000004 -0.00323357806
v 0.020372957 -0.0143729597 -0.0029120408
v 0.0203032941 -0.0152968913 -0.00229689106
v 0.0189999938 0.0165000036 0
v 0.0189999938 0.013000004 -0.00349999964
v 0.0225000083 0.013000004 0
v 0.0189999938 0.0162335783 -0.0013393946
v 0.0189999938 0.0154748708 -0.00247487426
v 0.0203393996 0.0162335783 0
v 0.020372957 0.0159120411 -0.00137295946
v 0.0203032941 0.0152968913 -0.00229689106
v 0.0210207254 0.0150207281 -0.00202072784
v 0.0203393996 0.013000004 -0.00323357806
v 0.0214748681 0.013000004 -0.00247487426
v 0.0189999938 0.0143393949 -0.00323357806
v 0.020372957 0.0143729597 -0.0029120408
v 0.0212968886 0.0143032968 -0.00229689106
v 0.0222335756 0.0143393949 0
v 0.0214748681 0.0154748708 0
v 0.0222335756 0.013000004 -0.00133939087
v 0.0219120383 0.0143729597 -0.00137295946
v 0.0212968886 0.0152968913 -0.00130329654
v -0.0189999938 0.0165000036 0
v -0.0225000083 0.013000004 0
v -0.0189999938 0.013000004 -0.00349999964
v -0.0203393996 0.0162335783 0
v -0.0214748681 0.0154748708 0
v -0.0189999938 0.0162335783 -0.00133939087
v -0.020372957 0.0159120411 -0.00137295946
v -0.0212968886 0.0152968913 -0.00130329654
v -0.0210207254 0.0150207281 -0.00202072784
v -0.0222335756 0.013000004 -0.0013393946
v -0.0214748681 0.013000004 -0.00247487426
v -0.0222335756 0.0143393949 0
v -0.0219120383 0.0143729597 -0.00137295946
v -0.0212968886 0.0143032968 -0.00229689106
v -0.0189999938 0.0143393949 -0.00323357806
v -0.0189999938 0.0154748708 -0.00247487426
v -0.0203393996 0.013000004 -0.00323357806
v -0.020372957 0.0143729597 -0.0029120408
v -0.0203032941 0.0152968913 -0.00229689106
v -0.0225000083 -0.013000004 0
v -0.0189999938 -0.013000004 0.00350000337
v -0.0189999938 -0.0165000036 0
v -0.0222335756 -0.013000004 0.0013393946
v -0.0214748681 -0.013000004 0.00247487426
v -0.0222335756 -0.0143393949 0
v -0.0219120383 -0.0143729597 0.00137295946
v -0.0212968886 -0.0143032968 0.00229689106
v -0.0210207254 -0.0150207281 0.00202072784
v -0.0189999938 -0.0143393949 0.00323357806
v -0.0189999938 -0.0154748708 0.00247487426
v -0.0203393996 -0.013000004 0.00323357806
v -0.020372957 -0.0143729597 0.0029120408
v -0.0203032941 -0.0152968913 0.00229689106
v -0.0203393996 -0.0162335783 0
v -0.0214748681 -0.0154748708 0
v -0.0189999938 -0.0162335783 0.00133939087
v -0.020372957 -0.0159120411 0.00137295946
v -0.0212968886 -0.0152968913 0.00130329654
v 0.0189999938 -0.0165000036 0
v 0.0189999938 -0.013000004 0.00350000337
v 0.0225000083 -0.013000004 0
v 0.0189999938 -0.0162335783 0.0013393946
v 0.0189999938 -0.0154748708 0.00247487426
v 0.0203393996 -0.0162335783 0
v 0.020372957 -0.0159120411 0.00137295946
v 0.0203032941 -0.0152968913 0.00229689106
v 0.0210207254 -0.0150207281 0.00202072784
v 0.0203393996 -0.013000004 0.00323357806
v 0.0214748681 -0.013000004 0.00247487426
v 0.0189999938 -0.0143393949 0.00323357806
v 0.020372957 -0.0143729597 0.0029120408
v 0.0212968886 -0.0143032968 0.00229689106
v 0.0222335756 -0.0143393949 0
v 0.0214748681 -0.0154748708 0
v 0.0222335756 -0.013000004 0.00133939087
v 0.0219120383 -0.0143729597 0.00137295946
v 0.0212968886 -0.0152968913 0.00130329654
v 0.0189999938 0.013000004 0.00350000337
v 0.0189999938 0.0165000036 0
v 0.0225000083 0.013000004 0
v 0.0189999938 0.0143393949 0.00323357806
v 0.0189999938 0.0154748708 0.00247487426
v 0.0203393996 0.013000004 0.00323357806
v 0.020372957 0.0143729597 0.0029120408
v 0.0203032941 0.0152968913 0.00229689106
v 0.0210207254 0.0150207281 0.00202072784
v 0.0203393996 0.0162335783 0
v 0.0214748681 0.0154748708 0
v 0.0189999938 0.0162335783 0.00133939087
v 0.020372957 0.0159120411 0.00137295946
v 0.0212968886 0.0152968913 0.00130329654
v 0.0222335756 0.013000004 0.0013393946
v 0.0214748681 0.013000004 0.00247487426
v 0.0222335756 0.0143393949 0
v 0.0219120383 0.0143729597 0.00137295946
v 0.0212968886 0.0143032968 0.00229689106
v -0.0225000083 0.013000004 0
v -0.0189999938 0.0165000036 0
v -0.0189999938 0.013000004 0.00350000337
v -0.0222335756 0.0143393949 0
v -0.0214748681 0.0154748708 0
v -0.0222335756 0.013000004 0.00133939087
v -0.0219120383 0.0143729597 0.00137295946
v -0.0212968886 0.0152968913 0.00130329654
v -0.0210207254 0.0150207281 0.00202072784
v -0.0189999938 0.0162335783 0.0013393946
v -0.0189999938 0.0154748708 0.00247487426
v -0.0203393996 0.0162335783 0
v -0.020372957 0.0159120411 0.00137295946
v -0.0203032941 0.0152968913 0.00229689106
v -0.0203393996 0.013000004 0.00323357806
v -0.0214748681 0.013000004 0.00247487426
v -0.0189999938 0.0143393949 0.00323357806
v -0.020372957 0.0143729597 0.0029120408
v -0.0212968886 0.0143032968 0.00229689106
usemtl matte_black_keycaps_003
f 59 134 77 3
f 2 22 40 60
f 39 116 135 58
f 78 136 115 97
f 21 98 117 41
f 1 4 7 6
f 4 5 8 7
f 6 7 19 16
f 7 8 9 19
f 2 10 13 12
f 10 11 14 13
f 12 13 8 5
f 13 14 9 8
f 3 15 18 17
f 15 16 19 18
f 17 18 14 11
f 18 19 9 14
f 20 23 26 25
f 23 24 27 26
f 25 26 38 35
f 26 27 28 38
f 21 29 32 31
f 29 30 33 32
f 31 32 27 24
f 32 33 28 27
f 22 34 37 36
f 34 35 38 37
f 36 37 33 30
f 37 38 28 33
f 39 42 45 44
f 42 43 46 45
f 44 45 57 54
f 45 46 47 57
f 40 48 51 50
f 48 49 52 51
f 50 51 46 43
f 51 52 47 46
f 41 53 56 55
f 53 54 57 56
f 55 56 52 49
f 56 57 47 52
f 58 61 64 63
f 61 62 65 64
f 63 64 76 73
f 64 65 66 76
f 59 67 70 69
f 67 68 71 70
f 69 70 65 62
f 70 71 66 65
f 60 72 75 74
f 72 73 76 75
f 74 75 71 68
f 75 76 66 71
f 77 80 83 82
f 80 81 84 83
f 82 83 95 92
f 83 84 85 95
f 78 86 89 88
f 86 87 90 89
f 88 89 84 81
f 89 90 85 84
f 79 91 94 93
f 91 92 95 94
f 93 94 90 87
f 94 95 85 90
f 96 99 102 101
f 99 100 103 102
f 101 102 114 111
f 102 103 104 114
f 97 105 108 107
f 105 106 109 108
f 107 108 103 100
f 108 109 104 103
f 98 110 113 112
f 110 111 114 113
f 112 113 109 106
f 113 114 104 109
f 115 118 121 120
f 118 119 122 121
f 120 121 133 130
f 121 122 123 133
f 116 124 127 126
f 124 125 128 127
f 126 127 122 119
f 127 128 123 122
f 117 129 132 131
f 129 130 133 132
f 131 132 128 125
f 132 133 123 128
f 134 137 140 139
f 137 138 141 140
f 139 140 152 149
f 140 141 142 152
f 135 143 146 145
f 143 144 147 146
f 145 146 141 138
f 146 147 142 141
f 136 148 151 150
f 148 149 152 151
f 150 151 147 144
f 151 152 142 147
f 39 58 63 42
f 42 63 73 43
f 43 73 72 50
f 50 72 60 40
f 1 20 25 4
f 4 25 35 5
f 5 35 34 12
f 12 34 22 2
f 21 41 55 29
f 29 55 49 30
f 30 49 48 36
f 36 48 40 22
f 2 60 74 10
f 10 74 68 11
f 11 68 67 17
f 17 67 59 3
f 3 77 82 15
f 15 82 92 16
f 16 92 91 6
f 6 91 79 1
f 78 97 107 86
f 86 107 100 87
f 87 100 99 93
f 93 99 96 79
f 97 115 120 105
f 105 120 130 106
f 106 130 129 112
f 112 129 117 98
f 77 134 139 80
f 80 139 149 81
f 81 149 148 88
f 88 148 136 78
f 20 96 101 23
f 23 101 111 24
f 24 111 110 31
f 31 110 98 21
f 41 117 131 53
f 53 131 125 54
f 54 125 124 44
f 44 124 116 39
f 115 136 150 118
f 118 150 144 119
f 119 144 143 126
f 126 143 135 116
f 58 135 145 61
f 61 145 138 62
f 62 138 137 69
f 69 137 134 59
f 1 79 96 20

g key_legend_2_10_P
v -0.000364303589 0.00280205905 0.00450000539
v -4.19020653e-05 0.00274981558 0.00450000539
v 0.000247657299 0.00266562402 0.00450000539
v 0.000504806638 0.00255184621 0.00450000539
v 0.000730022788 0.00241085142 0.00450000539
v 0.000923752785 0.00224500149 0.00450000539
v 0.00108642876 0.00205664337 0.00450000539
v 0.00121851265 0.00184814632 0.00450000539
v 0.0013204664 0.00162187219 0.00450000539
v 0.00139272213 0.0013801828 0.00450000539
v 0.00143575668 0.00112544 0.00450000539
v 0.00145000219 0.000859998167 0.00450000539
v 0.00143492222 0.000597640872 0.00450000539
v 0.00138935447 0.00034698844 0.00450000539
v 0.0013128072 0.000110156834 0.00450000539
v 0.00120481849 -0.00011074543 0.00450000539
v 0.00106486678 -0.000313587487 0.00450000539
v 0.00089250505 -0.000496253371 0.00450000539
v 0.000687211752 -0.000656627119 0.00450000539
v 0.000448510051 -0.000792592764 0.00450000539
v 0.00017593801 -0.000902034342 0.00450000539
v -0.00013102591 -0.000982828438 0.00450000539
v -0.000472843647 -0.00103285164 0.00450000539
v -0.000850006938 -0.00105000287 0.00450000539
v -0.00187000632 -0.00105000287 0.00450000539
v -0.00187000632 -0.00400000066 0.00450000539
v -0.00284999609 -0.00400000066 0.00450000539
v -0.00284999609 0.00282000005 0.00450000539
v -0.000720009208 0.00282000005 0.00450000539
v -0.000760003924 -0.000169999897 0.00450000539
v -0.000583037734 -0.000161938369 0.00450000539
v -0.000417634845 -0.000137962401 0.00450000539
v -0.000264540315 -9.84370708e-05 0.00450000539
v -0.000124439597 -4.37051058e-05 0.00450000539
v 1.89244747e-06 2.58907676e-05 0.00450000539
v 0.000113740563 0.000110000372 0.00450000539
v 0.000210404396 0.00020827353 0.00450000539
v 0.000291109085 0.000320367515 0.00450000539
v 0.000355154276 0.00044593215 0.00450000539
v 0.000401809812 0.000584624708 0.00450000539
v 0.000430330634 0.000736095011 0.00450000539
v 0.000440001488 0.000900000334 0.00450000539
v 0.000434175134 0.00102549791 0.00450000539
v 0.000415876508 0.00115064532 0.00450000539
v 0.000383898616 0.00127343833 0.00450000539
v 0.000337034464 0.00139185041 0.00450000539
v 0.000274062157 0.00150387734 0.00450000539
v 0.000193744898 0.00160750002 0.00450000539
v 9.49054956e-05 0.00170070678 0.00450000539
v -2.37077475e-05 0.00178147852 0.00450000539
v -0.000163286924 0.00184781104 0.00450000539
v -0.00032505393 0.00189768523 0.00450000539
v -0.000510215759 0.00192908198 0.00450000539
v -0.000720009208 0.00193999708 0.00450000539
v -0.00187000632 0.00193999708 0.00450000539
v -0.00187000632 -0.000169999897 0.00450000539
v -0.000364303589 0.00280205905 0.00409999862
v -4.19020653e-05 0.00274981558 0.00409999862
v 0.000247657299 0.00266562402 0.00409999862
v 0.000504806638 0.00255184621 0.00409999862
v 0.000730022788 0.00241085142 0.00409999862
v 0.000923752785 0.00224500149 0.00409999862
v 0.00108642876 0.00205664337 0.00409999862
v 0.00121851265 0.00184814632 0.00409999862
v 0.0013204664 0.00162187219 0.00409999862
v 0.00139272213 0.0013801828 0.00409999862
v 0.00143575668 0.00112544 0.00409999862
v 0.00145000219 0.000859998167 0.00409999862
v 0.00143492222 0.000597640872 0.00409999862
v 0.00138935447 0.00034698844 0.00409999862
v 0.0013128072 0.000110156834 0.00409999862
v 0.00120481849 -0.00011074543 0.00409999862
v 0.00106486678 -0.000313587487 0.00409999862
v 0.00089250505 -0.000496253371 0.00409999862
v 0.000687211752 -0.000656627119 0.00409999862
v 0.000448510051 -0.000792592764 0.00409999862
v 0.00017593801 -0.000902034342 0.00409999862
v -0.00013102591 -0.000982828438 0.00409999862
v -0.000472843647 -0.00103285164 0.00409999862
v -0.000850006938 -0.00105000287 0.00409999862
v -0.00187000632 -0.00105000287 0.00409999862
v -0.00187000632 -0.00400000066 0.00409999862
v -0.00284999609 -0.00400000066 0.00409999862
v -0.00284999609 0.00282000005 0.00409999862
v -0.000720009208 0.00282000005 0.00409999862
v -0.000760003924 -0.000169999897 0.00409999862
v -0.000583037734 -0.000161938369 0.00409999862
v -0.000417634845 -0.000137962401 0.00409999862
v -0.000264540315 -9.84370708e-05 0.00409999862
v -0.000124439597 -4.37051058e-05 0.00409999862
v 1.89244747e-06 2.58907676e-05 0.00409999862
v 0.000113740563 0.000110000372 0.00409999862
v 0.000210404396 0.00020827353 0.00409999862
v 0.000291109085 0.000320367515 0.00409999862
v 0.000355154276 0.00044593215 0.00409999862
v 0.000401809812 0.000584624708 0.00409999862
v 0.000430330634 0.000736095011 0.00409999862
v 0.000440001488 0.000900000334 0.00409999862
v 0.000434175134 0.00102549791 0.00409999862
v 0.000415876508 0.00115064532 0.00409999862
v 0.000383898616 0.00127343833 0.00409999862
v 0.000337034464 0.00139185041 0.00409999862
v 0.000274062157 0.00150387734 0.00409999862
v 0.000193744898 0.00160750002 0.00409999862
v 9.49054956e-05 0.00170070678 0.00409999862
v -2.37077475e-05 0.00178147852 0.00409999862
v -0.000163286924 0.00184781104 0.00409999862
v -0.00032505393 0.00189768523 0.00409999862
v -0.000510215759 0.00192908198 0.00409999862
v -0.000720009208 0.00193999708 0.00409999862
v -0.00187000632 0.00193999708 0.00409999862
v -0.00187000632 -0.000169999897 0.00409999862
v -0.000364303589 0.00280205905 0.00409999862
v -0.000364303589 0.00280205905 0.00450000539
v -4.19020653e-05 0.00274981558 0.00409999862
v -4.19020653e-05 0.00274981558 0.00450000539
v 0.000247657299 0.00266562402 0.00409999862
v 0.000247657299 0.00266562402 0.00450000539
v 0.000504806638 0.00255184621 0.00409999862
v 0.000504806638 0.00255184621 0.00450000539
v 0.000730022788 0.00241085142 0.00409999862
v 0.000730022788 0.00241085142 0.00450000539
v 0.000923752785 0.00224500149 0.00409999862
v 0.000923752785 0.00224500149 0.00450000539
v 0.00108642876 0.00205664337 0.00409999862
v 0.00108642876 0.00205664337 0.00450000539
v 0.00121851265 0.00184814632 0.00409999862
v 0.00121851265 0.00184814632 0.00450000539
v 0.0013204664 0.00162187219 0.00409999862
v 0.0013204664 0.00162187219 0.00450000539
v 0.00139272213 0.0013801828 0.00409999862
v 0.00139272213 0.0013801828 0.00450000539
v 0.00143575668 0.00112544 0.00409999862
v 0.00143575668 0.00112544 0.00450000539
v 0.00145000219 0.000859998167 0.00409999862
v 0.00145000219 0.000859998167 0.00450000539
v 0.00143492222 0.000597640872 0.00409999862
v 0.00143492222 0.000597640872 0.00450000539
v 0.00138935447 0.00034698844 0.00409999862
v 0.00138935447 0.00034698844 0.00450000539
v 0.0013128072 0.000110156834 0.00409999862
v 0.0013128072 0.000110156834 0.00450000539
v 0.00120481849 -0.00011074543 0.00409999862
v 0.00120481849 -0.00011074543 0.00450000539
v 0.00106486678 -0.000313587487 0.00409999862
v 0.00106486678 -0.000313587487 0.00450000539
v 0.00089250505 -0.000496253371 0.00409999862
v 0.00089250505 -0.000496253371 0.00450000539
v 0.000687211752 -0.000656627119 0.00409999862
v 0.000687211752 -0.000656627119 0.00450000539
v 0.000448510051 -0.000792592764 0.00409999862
v 0.000448510051 -0.000792592764 0.00450000539
v 0.00017593801 -0.000902034342 0.00409999862
v 0.00017593801 -0.000902034342 0.00450000539
v -0.00013102591 -0.000982828438 0.00409999862
v -0.00013102591 -0.000982828438 0.00450000539
v -0.000472843647 -0.00103285164 0.00409999862
v -0.000472843647 -0.00103285164 0.00450000539
v -0.000850006938 -0.00105000287 0.00409999862
v -0.000850006938 -0.00105000287 0.00450000539
v -0.00187000632 -0.00105000287 0.00409999862
v -0.00187000632 -0.00105000287 0.00450000539
v -0.00187000632 -0.00400000066 0.00409999862
v -0.00187000632 -0.00400000066 0.00450000539
v -0.00284999609 -0.00400000066 0.00409999862
v -0.00284999609 -0.00400000066 0.00450000539
v -0.00284999609 0.00282000005 0.00409999862
v -0.00284999609 0.00282000005 0.00450000539
v -0.000720009208 0.00282000005 0.00409999862
v -0.000720009208 0.00282000005 0.00450000539
v -0.000760003924 -0.000169999897 0.00409999862
v -0.000760003924 -0.000169999897 0.00450000539
v -0.000583037734 -0.000161938369 0.00409999862
v -0.000583037734 -0.000161938369 0.00450000539
v -0.000417634845 -0.000137962401 0.00409999862
v -0.000417634845 -0.000137962401 0.00450000539
v -0.000264540315 -9.84370708e-05 0.00409999862
v -0.000264540315 -9.84370708e-05 0.00450000539
v -0.000124439597 -4.37051058e-05 0.00409999862
v -0.000124439597 -4.37051058e-05 0.00450000539
v 1.89244747e-06 2.58907676e-05 0.00409999862
v 1.89244747e-06 2.58907676e-05 0.00450000539
v 0.000113740563 0.000110000372 0.00409999862
v 0.000113740563 0.000110000372 0.00450000539
v 0.000210404396 0.00020827353 0.00409999862
v 0.000210404396 0.00020827353 0.00450000539
v 0.000291109085 0.000320367515 0.00409999862
v 0.000291109085 0.000320367515 0.00450000539
v 0.000355154276 0.00044593215 0.00409999862
v 0.000355154276 0.00044593215 0.00450000539
v 0.000401809812 0.000584624708 0.00409999862
v 0.000401809812 0.000584624708 0.00450000539
v 0.000430330634 0.000736095011 0.00409999862
v 0.000430330634 0.000736095011 0.00450000539
v 0.000440001488 0.000900000334 0.00409999862
v 0.000440001488 0.000900000334 0.00450000539
v 0.000434175134 0.00102549791 0.00409999862
v 0.000434175134 0.00102549791 0.00450000539
v 0.000415876508 0.00115064532 0.00409999862
v 0.000415876508 0.00115064532 0.00450000539
v 0.000383898616 0.00127343833 0.00409999862
v 0.000383898616 0.00127343833 0.00450000539
v 0.000337034464 0.00139185041 0.00409999862
v 0.000337034464 0.00139185041 0.00450000539
v 0.000274062157 0.00150387734 0.00409999862
v 0.000274062157 0.00150387734 0.00450000539
v 0.000193744898 0.00160750002 0.00409999862
v 0.000193744898 0.00160750002 0.00450000539
v 9.49054956e-05 0.00170070678 0.00409999862
v 9.49054956e-05 0.00170070678 0.00450000539
v -2.37077475e-05 0.00178147852 0.00409999862
v -2.37077475e-05 0.00178147852 0.00450000539
v -0.000163286924 0.00184781104 0.00409999862
v -0.000163286924 0.00184781104 0.00450000539
v -0.00032505393 0.00189768523 0.00409999862
v -0.00032505393 0.00189768523 0.00450000539
v -0.000510215759 0.00192908198 0.00409999862
v -0.000510215759 0.00192908198 0.00450000539
v -0.000720009208 0.00193999708 0.00409999862
v -0.000720009208 0.00193999708 0.00450000539
v -0.00187000632 0.00193999708 0.00409999862
v -0.00187000632 0.00193999708 0.00450000539
v -0.00187000632 -0.000169999897 0.00409999862
v -0.00187000632 -0.000169999897 0.00450000539
usemtl screen_white_text_003
f 179 207 180
f 207 181 180
f 207 153 181
f 207 154 153
f 207 155 154
f 207 156 155
f 207 157 156
f 207 158 157
f 207 159 158
f 207 206 159
f 206 160 159
f 179 208 207
f 205 160 206
f 204 160 205
f 203 160 204
f 203 161 160
f 202 161 203
f 201 161 202
f 200 161 201
f 200 162 161
f 199 162 200
f 198 162 199
f 197 162 198
f 197 163 162
f 196 163 197
f 195 163 196
f 195 164 163
f 194 164 195
f 193 164 194
f 193 165 164
f 192 165 193
f 192 166 165
f 191 166 192
f 190 166 191
f 190 167 166
f 189 167 190
f 188 167 189
f 188 168 167
f 187 168 188
f 186 168 187
f 185 168 186
f 184 168 185
f 184 169 168
f 183 169 184
f 182 169 183
f 179 177 208
f 177 182 208
f 177 169 182
f 177 170 169
f 177 171 170
f 177 172 171
f 177 173 172
f 177 174 173
f 177 175 174
f 177 176 175
f 179 178 177
f 235 236 263
f 263 236 237
f 263 237 209
f 263 209 210
f 263 210 211
f 263 211 212
f 263 212 213
f 263 213 214
f 263 214 215
f 263 215 262
f 262 215 216
f 235 263 264
f 261 262 216
f 260 261 216
f 259 260 216
f 259 216 217
f 258 259 217
f 257 258 217
f 256 257 217
f 256 217 218
f 255 256 218
f 254 255 218
f 253 254 218
f 253 218 219
f 252 253 219
f 251 252 219
f 251 219 220
f 250 251 220
f 249 250 220
f 249 220 221
f 248 249 221
f 248 221 222
f 247 248 222
f 246 247 222
f 246 222 223
f 245 246 223
f 244 245 223
f 244 223 224
f 243 244 224
f 242 243 224
f 241 242 224
f 240 241 224
f 240 224 225
f 239 240 225
f 238 239 225
f 235 264 233
f 233 264 238
f 233 238 225
f 233 225 226
f 233 226 227
f 233 227 228
f 233 228 229
f 233 229 230
f 233 230 231
f 233 231 232
f 235 233 234
f 266 268 267 265
f 268 270 269 267
f 270 272 271 269
f 272 274 273 271
f 274 276 275 273
f 276 278 277 275
f 278 280 279 277
f 280 282 281 279
f 282 284 283 281
f 284 286 285 283
f 286 288 287 285
f 288 290 289 287
f 290 292 291 289
f 292 294 293 291
f 294 296 295 293
f 296 298 297 295
f 298 300 299 297
f 300 302 301 299
f 302 304 303 301
f 304 306 305 303
f 306 308 307 305
f 308 310 309 307
f 310 312 311 309
f 312 314 313 311
f 314 316 315 313
f 316 318 317 315
f 318 320 319 317
f 320 322 321 319
f 322 266 265 321
f 324 326 325 323
f 326 328 327 325
f 328 330 329 327
f 330 332 331 329
f 332 334 333 331
f 334 336 335 333
f 336 338 337 335
f 338 340 339 337
f 340 342 341 339
f 342 344 343 341
f 344 346 345 343
f 346 348 347 345
f 348 350 349 347
f 350 352 351 349
f 352 354 353 351
f 354 356 355 353
f 356 358 357 355
f 358 360 359 357
f 360 362 361 359
f 362 364 363 361
f 364 366 365 363
f 366 368 367 365
f 368 370 369 367
f 370 372 371 369
f 372 374 373 371
f 374 376 375 373
f 376 324 323 375
