mtllib keyboard_key_3_3_D_link.mtl
o keyboard_key_3_3_D_link

g keyboard_key_3_3_D_SOLID
v -0.0199999958 -0.0164999999 0
v -0.0199999958 -0.0130000003 -0.00349999964
v -0.0234999955 -0.0130000003 0
v -0.0199999958 -0.0162335783 -0.0013393946
v -0.0199999958 -0.0154748745 -0.00247487426
v -0.0213393867 -0.0162335783 0
v -0.021372959 -0.0159120411 -0.00137295946
v -0.0213032961 -0.0152968913 -0.00229689106
v -0.0220207274 -0.0150207281 -0.00202072784
v -0.0213393867 -0.0130000003 -0.00323357806
v -0.0224748701 -0.0130000003 -0.00247487426
v -0.0199999958 -0.0143393911 -0.00323357806
v -0.021372959 -0.0143729597 -0.0029120408
v -0.0222968906 -0.0143032968 -0.00229689106
v -0.0232335776 -0.0143393911 0
v -0.0224748701 -0.0154748745 0
v -0.0232335776 -0.0130000003 -0.00133939087
v -0.0229120404 -0.0143729597 -0.00137295946
v -0.0222968906 -0.0152968913 -0.00130329654
v 0.0199999958 -0.0164999999 0
v 0.0234999955 -0.0130000003 0
v 0.0199999958 -0.0130000003 -0.00349999964
v 0.0213393942 -0.0162335783 0
v 0.0224748775 -0.0154748745 0
v 0.0200000033 -0.0162335783 -0.00133939087
v 0.021372959 -0.0159120411 -0.00137295946
v 0.0222968906 -0.0152968913 -0.00130329654
v 0.0220207274 -0.0150207281 -0.00202072784
v 0.0232335776 -0.0130000003 -0.0013393946
v 0.0224748775 -0.0130000003 -0.00247487426
v 0.0232335776 -0.0143393911 0
v 0.0229120404 -0.0143729597 -0.00137295946
v 0.0222968906 -0.0143032968 -0.00229689106
v 0.0200000033 -0.0143393911 -0.00323357806
v 0.0200000033 -0.0154748745 -0.00247487426
v 0.0213393942 -0.0130000003 -0.00323357806
v 0.021372959 -0.0143729597 -0.0029120408
v 0.0213032961 -0.0152968913 -0.00229689106
v 0.0199999958 0.0164999962 0
v 0.0199999958 0.0129999965 -0.00349999964
v 0.0234999955 0.0129999965 0
v 0.0200000033 0.0162335783 -0.0013393946
v 0.0200000033 0.0154748708 -0.00247487426
v 0.0213393942 0.0162335783 0
v 0.021372959 0.0159120411 -0.00137295946
v 0.0213032961 0.0152968913 -0.00229689106
v 0.0220207274 0.0150207281 -0.00202072784
v 0.0213393942 0.0129999965 -0.00323357806
v 0.0224748775 0.0129999965 -0.00247487426
v 0.0200000033 0.0143393949 -0.00323357806
v 0.021372959 0.0143729597 -0.0029120408
v 0.0222968906 0.0143032968 -0.00229689106
v 0.0232335776 0.0143393949 0
v 0.0224748775 0.0154748708 0
v 0.0232335776 0.0129999965 -0.00133939087
v 0.0229120404 0.0143729597 -0.00137295946
v 0.0222968906 0.0152968913 -0.00130329654
v -0.0199999958 0.0164999962 0
v -0.0234999955 0.0129999965 0
v -0.0199999958 0.0129999965 -0.00349999964
v -0.0213393867 0.0162335783 0
v -0.0224748701 0.0154748708 0
v -0.0199999958 0.0162335783 -0.00133939087
v -0.021372959 0.0159120411 -0.00137295946
v -0.0222968906 0.0152968913 -0.00130329654
v -0.0220207274 0.0150207281 -0.00202072784
v -0.0232335776 0.0129999965 -0.0013393946
v -0.0224748701 0.0129999965 -0.00247487426
v -0.0232335776 0.0143393949 0
v -0.0229120404 0.0143729597 -0.00137295946
v -0.0222968906 0.0143032968 -0.00229689106
v -0.0199999958 0.0143393949 -0.00323357806
v -0.0199999958 0.0154748708 -0.00247487426
v -0.0213393867 0.0129999965 -0.00323357806
v -0.021372959 0.0143729597 -0.0029120408
v -0.0213032961 0.0152968913 -0.00229689106
v -0.0234999955 -0.0130000003 0
v -0.0199999958 -0.0130000003 0.00350000337
v -0.0199999958 -0.0164999999 0
v -0.0232335776 -0.0130000003 0.0013393946
v -0.0224748701 -0.0130000003 0.00247487426
v -0.0232335776 -0.0143393911 0
v -0.0229120404 -0.0143729597 0.00137295946
v -0.0222968906 -0.0143032968 0.00229689106
v -0.0220207274 -0.0150207281 0.00202072784
v -0.0199999958 -0.0143393911 0.00323357806
v -0.0199999958 -0.0154748745 0.00247487426
v -0.0213393867 -0.0130000003 0.00323357806
v -0.021372959 -0.0143729597 0.0029120408
v -0.0213032961 -0.0152968913 0.00229689106
v -0.0213393867 -0.0162335783 0
v -0.0224748701 -0.0154748745 0
v -0.0199999958 -0.0162335783 0.00133939087
v -0.021372959 -0.0159120411 0.00137295946
v -0.0222968906 -0.0152968913 0.00130329654
v 0.0199999958 -0.0164999999 0
v 0.0199999958 -0.0130000003 0.00350000337
v 0.0234999955 -0.0130000003 0
v 0.0200000033 -0.0162335783 0.0013393946
v 0.0200000033 -0.0154748745 0.00247487426
v 0.0213393942 -0.0162335783 0
v 0.021372959 -0.0159120411 0.00137295946
v 0.0213032961 -0.0152968913 0.00229689106
v 0.0220207274 -0.0150207281 0.00202072784
v 0.0213393942 -0.0130000003 0.00323357806
v 0.0224748775 -0.0130000003 0.00247487426
v 0.0200000033 -0.0143393911 0.00323357806
v 0.021372959 -0.0143729597 0.0029120408
v 0.0222968906 -0.0143032968 0.00229689106
v 0.0232335776 -0.0143393911 0
v 0.0224748775 -0.0154748745 0
v 0.0232335776 -0.0130000003 0.00133939087
v 0.0229120404 -0.0143729597 0.00137295946
v 0.0222968906 -0.0152968913 0.00130329654
v 0.0199999958 0.0129999965 0.00350000337
v 0.0199999958 0.0164999962 0
v 0.0234999955 0.0129999965 0
v 0.0200000033 0.0143393949 0.00323357806
v 0.0200000033 0.0154748708 0.00247487426
v 0.0213393942 0.0129999965 0.00323357806
v 0.021372959 0.0143729597 0.0029120408
v 0.0213032961 0.0152968913 0.00229689106
v 0.0220207274 0.0150207281 0.00202072784
v 0.0213393942 0.0162335783 0
v 0.0224748775 0.0154748708 0
v 0.0200000033 0.0162335783 0.00133939087
v 0.021372959 0.0159120411 0.00137295946
v 0.0222968906 0.0152968913 0.00130329654
v 0.0232335776 0.0129999965 0.0013393946
v 0.0224748775 0.0129999965 0.00247487426
v 0.0232335776 0.0143393949 0
v 0.0229120404 0.0143729597 0.00137295946
v 0.0222968906 0.0143032968 0.00229689106
v -0.0234999955 0.0129999965 0
v -0.0199999958 0.0164999962 0
v -0.0199999958 0.0129999965 0.00350000337
v -0.0232335776 0.0143393949 0
v -0.0224748701 0.0154748708 0
v -0.0232335776 0.0129999965 0.00133939087
v -0.0229120404 0.0143729597 0.00137295946
v -0.0222968906 0.0152968913 0.00130329654
v -0.0220207274 0.0150207281 0.00202072784
v -0.0199999958 0.0162335783 0.0013393946
v -0.0199999958 0.0154748708 0.00247487426
v -0.0213393867 0.0162335783 0
v -0.021372959 0.0159120411 0.00137295946
v -0.0213032961 0.0152968913 0.00229689106
v -0.0213393867 0.0129999965 0.00323357806
v -0.0224748701 0.0129999965 0.00247487426
v -0.0199999958 0.0143393949 0.00323357806
v -0.021372959 0.0143729597 0.0029120408
v -0.0222968906 0.0143032968 0.00229689106
usemtl matte_black_keycaps_003
f 59 134 77 3
f 2 22 40 60
f 39 116 135 58
f 78 136 115 97
f 21 98 117 41
f 1 4 7 6
f 4 5 8 7
f 6 7 19 16
f 7 8 9 19
f 2 10 13 12
f 10 11 14 13
f 12 13 8 5
f 13 14 9 8
f 3 15 18 17
f 15 16 19 18
f 17 18 14 11
f 18 19 9 14
f 20 23 26 25
f 23 24 27 26
f 25 26 38 35
f 26 27 28 38
f 21 29 32 31
f 29 30 33 32
f 31 32 27 24
f 32 33 28 27
f 22 34 37 36
f 34 35 38 37
f 36 37 33 30
f 37 38 28 33
f 39 42 45 44
f 42 43 46 45
f 44 45 57 54
f 45 46 47 57
f 40 48 51 50
f 48 49 52 51
f 50 51 46 43
f 51 52 47 46
f 41 53 56 55
f 53 54 57 56
f 55 56 52 49
f 56 57 47 52
f 58 61 64 63
f 61 62 65 64
f 63 64 76 73
f 64 65 66 76
f 59 67 70 69
f 67 68 71 70
f 69 70 65 62
f 70 71 66 65
f 60 72 75 74
f 72 73 76 75
f 74 75 71 68
f 75 76 66 71
f 77 80 83 82
f 80 81 84 83
f 82 83 95 92
f 83 84 85 95
f 78 86 89 88
f 86 87 90 89
f 88 89 84 81
f 89 90 85 84
f 79 91 94 93
f 91 92 95 94
f 93 94 90 87
f 94 95 85 90
f 96 99 102 101
f 99 100 103 102
f 101 102 114 111
f 102 103 104 114
f 97 105 108 107
f 105 106 109 108
f 107 108 103 100
f 108 109 104 103
f 98 110 113 112
f 110 111 114 113
f 112 113 109 106
f 113 114 104 109
f 115 118 121 120
f 118 119 122 121
f 120 121 133 130
f 121 122 123 133
f 116 124 127 126
f 124 125 128 127
f 126 127 122 119
f 127 128 123 122
f 117 129 132 131
f 129 130 133 132
f 131 132 128 125
f 132 133 123 128
f 134 137 140 139
f 137 138 141 140
f 139 140 152 149
f 140 141 142 152
f 135 143 146 145
f 143 144 147 146
f 145 146 141 138
f 146 147 142 141
f 136 148 151 150
f 148 149 152 151
f 150 151 147 144
f 151 152 142 147
f 39 58 63 42
f 42 63 73 43
f 43 73 72 50
f 50 72 60 40
f 1 20 25 4
f 4 25 35 5
f 5 35 34 12
f 12 34 22 2
f 21 41 55 29
f 29 55 49 30
f 30 49 48 36
f 36 48 40 22
f 2 60 74 10
f 10 74 68 11
f 11 68 67 17
f 17 67 59 3
f 3 77 82 15
f 15 82 92 16
f 16 92 91 6
f 6 91 79 1
f 78 97 107 86
f 86 107 100 87
f 87 100 99 93
f 93 99 96 79
f 97 115 120 105
f 105 120 130 106
f 106 130 129 112
f 112 129 117 98
f 77 134 139 80
f 80 139 149 81
f 81 149 148 88
f 88 148 136 78
f 20 96 101 23
f 23 101 111 24
f 24 111 110 31
f 31 110 98 21
f 41 117 131 53
f 53 131 125 54
f 54 125 124 44
f 44 124 116 39
f 115 136 150 118
f 118 150 144 119
f 119 144 143 126
f 126 143 135 116
f 58 135 145 61
f 61 145 138 62
f 62 138 137 69
f 69 137 134 59
f 1 79 96 20

g key_legend_3_3_D
v -0.00134000182 0.00282000005 0.00450000539
v -0.000739201903 0.00278364867 0.00450000539
v -0.000196114182 0.00267921388 0.00450000539
v 0.000290304422 0.00251359493 0.00450000539
v 0.000721111894 0.00229369849 0.00450000539
v 0.00109732151 0.00202645361 0.00450000539
v 0.00141999125 0.00171874464 0.00450000539
v 0.00169017911 0.00137750059 0.00450000539
v 0.00190888345 0.00100962818 0.00450000539
v 0.00207719207 0.000622026622 0.00450000539
v 0.00219610333 0.00022161752 0.00450000539
v 0.00226670504 -0.000184692442 0.00450000539
v 0.00228999555 -0.000590004027 0.00450000539
v 0.00226174295 -0.0010247156 0.00450000539
v 0.00217810273 -0.00145023316 0.00450000539
v 0.00204077363 -0.00186109543 0.00450000539
v 0.00185148418 -0.00225185603 0.00450000539
v 0.00161190331 -0.00261705369 0.00450000539
v 0.00132374465 -0.00295124948 0.00450000539
v 0.000988721848 -0.00324898958 0.00450000539
v 0.00060851872 -0.00350481644 0.00450000539
v 0.000184848905 -0.00371328369 0.00450000539
v -0.000280603766 -0.00386893749 0.00450000539
v -0.00078612566 -0.00396632776 0.00450000539
v -0.00133000314 -0.00400000066 0.00450000539
v -0.00399000943 -0.00400000066 0.00450000539
v -0.00399000943 0.00282000005 0.00450000539
v -0.00145000219 -0.00312000513 0.00450000539
v -0.000929936767 -0.00308626145 0.00450000539
v -0.000476941466 -0.00299093127 0.00450000539
v -8.68737698e-05 -0.00284281373 0.00450000539
v 0.000244438648 -0.00265074521 0.00450000539
v 0.000521183014 -0.00242353231 0.00450000539
v 0.00074750185 -0.00217000395 0.00450000539
v 0.000927567482 -0.00189897418 0.00450000539
v 0.00106555223 -0.00161926448 0.00450000539
v 0.00116562843 -0.0013396889 0.00450000539
v 0.0012319386 -0.00106907636 0.00450000539
v 0.00126868486 -0.000816240907 0.00450000539
v 0.00127999485 -0.000590004027 0.00450000539
v 0.00126177073 -0.000252425671 0.00450000539
v 0.00120671093 7.30976462e-05 0.00450000539
v 0.00111421943 0.000383280218 0.00450000539
v 0.000983700156 0.000674813986 0.00450000539
v 0.000814571977 0.000944398344 0.00450000539
v 0.000606253743 0.00118874758 0.00450000539
v 0.000358134508 0.00140455365 0.00450000539
v 6.96331263e-05 0.00158851594 0.00450000539
v -0.000259846449 0.00173734128 0.00450000539
v -0.000630885363 0.00184772909 0.00450000539
v -0.00104406476 0.00191637874 0.00450000539
v -0.00149999559 0.00193999708 0.00450000539
v -0.00301000476 0.00193999708 0.00450000539
v -0.00301000476 -0.00312000513 0.00450000539
v -0.00134000182 0.00282000005 0.00409999862
v -0.000739201903 0.00278364867 0.00409999862
v -0.000196114182 0.00267921388 0.00409999862
v 0.000290304422 0.00251359493 0.00409999862
v 0.000721111894 0.00229369849 0.00409999862
v 0.00109732151 0.00202645361 0.00409999862
v 0.00141999125 0.00171874464 0.00409999862
v 0.00169017911 0.00137750059 0.00409999862
v 0.00190888345 0.00100962818 0.00409999862
v 0.00207719207 0.000622026622 0.00409999862
v 0.00219610333 0.00022161752 0.00409999862
v 0.00226670504 -0.000184692442 0.00409999862
v 0.00228999555 -0.000590004027 0.00409999862
v 0.00226174295 -0.0010247156 0.00409999862
v 0.00217810273 -0.00145023316 0.00409999862
v 0.00204077363 -0.00186109543 0.00409999862
v 0.00185148418 -0.00225185603 0.00409999862
v 0.00161190331 -0.00261705369 0.00409999862
v 0.00132374465 -0.00295124948 0.00409999862
v 0.000988721848 -0.00324898958 0.00409999862
v 0.00060851872 -0.00350481644 0.00409999862
v 0.000184848905 -0.00371328369 0.00409999862
v -0.000280603766 -0.00386893749 0.00409999862
v -0.00078612566 -0.00396632776 0.00409999862
v -0.00133000314 -0.00400000066 0.00409999862
v -0.00399000943 -0.00400000066 0.00409999862
v -0.00399000943 0.00282000005 0.00409999862
v -0.00145000219 -0.00312000513 0.00409999862
v -0.000929936767 -0.00308626145 0.00409999862
v -0.000476941466 -0.00299093127 0.00409999862
v -8.68737698e-05 -0.00284281373 0.00409999862
v 0.000244438648 -0.00265074521 0.00409999862
v 0.000521183014 -0.00242353231 0.00409999862
v 0.00074750185 -0.00217000395 0.00409999862
v 0.000927567482 -0.00189897418 0.00409999862
v 0.00106555223 -0.00161926448 0.00409999862
v 0.00116562843 -0.0013396889 0.00409999862
v 0.0012319386 -0.00106907636 0.00409999862
v 0.00126868486 -0.000816240907 0.00409999862
v 0.00127999485 -0.000590004027 0.00409999862
v 0.00126177073 -0.000252425671 0.00409999862
v 0.00120671093 7.30976462e-05 0.00409999862
v 0.00111421943 0.000383280218 0.00409999862
v 0.000983700156 0.000674813986 0.00409999862
v 0.000814571977 0.000944398344 0.00409999862
v 0.000606253743 0.00118874758 0.00409999862
v 0.000358134508 0.00140455365 0.00409999862
v 6.96331263e-05 0.00158851594 0.00409999862
v -0.000259846449 0.00173734128 0.00409999862
v -0.000630885363 0.00184772909 0.00409999862
v -0.00104406476 0.00191637874 0.00409999862
v -0.00149999559 0.00193999708 0.00409999862
v -0.00301000476 0.00193999708 0.00409999862
v -0.00301000476 -0.00312000513 0.00409999862
v -0.00134000182 0.00282000005 0.00409999862
v -0.00134000182 0.00282000005 0.00450000539
v -0.000739201903 0.00278364867 0.00409999862
v -0.000739201903 0.00278364867 0.00450000539
v -0.000196114182 0.00267921388 0.00409999862
v -0.000196114182 0.00267921388 0.00450000539
v 0.000290304422 0.00251359493 0.00409999862
v 0.000290304422 0.00251359493 0.00450000539
v 0.000721111894 0.00229369849 0.00409999862
v 0.000721111894 0.00229369849 0.00450000539
v 0.00109732151 0.00202645361 0.00409999862
v 0.00109732151 0.00202645361 0.00450000539
v 0.00141999125 0.00171874464 0.00409999862
v 0.00141999125 0.00171874464 0.00450000539
v 0.00169017911 0.00137750059 0.00409999862
v 0.00169017911 0.00137750059 0.00450000539
v 0.00190888345 0.00100962818 0.00409999862
v 0.00190888345 0.00100962818 0.00450000539
v 0.00207719207 0.000622026622 0.00409999862
v 0.00207719207 0.000622026622 0.00450000539
v 0.00219610333 0.00022161752 0.00409999862
v 0.00219610333 0.00022161752 0.00450000539
v 0.00226670504 -0.000184692442 0.00409999862
v 0.00226670504 -0.000184692442 0.00450000539
v 0.00228999555 -0.000590004027 0.00409999862
v 0.00228999555 -0.000590004027 0.00450000539
v 0.00226174295 -0.0010247156 0.00409999862
v 0.00226174295 -0.0010247156 0.00450000539
v 0.00217810273 -0.00145023316 0.00409999862
v 0.00217810273 -0.00145023316 0.00450000539
v 0.00204077363 -0.00186109543 0.00409999862
v 0.00204077363 -0.00186109543 0.00450000539
v 0.00185148418 -0.00225185603 0.00409999862
v 0.00185148418 -0.00225185603 0.00450000539
v 0.00161190331 -0.00261705369 0.00409999862
v 0.00161190331 -0.00261705369 0.00450000539
v 0.00132374465 -0.00295124948 0.00409999862
v 0.00132374465 -0.00295124948 0.00450000539
v 0.000988721848 -0.00324898958 0.00409999862
v 0.000988721848 -0.00324898958 0.00450000539
v 0.00060851872 -0.00350481644 0.00409999862
v 0.00060851872 -0.00350481644 0.00450000539
v 0.000184848905 -0.00371328369 0.00409999862
v 0.000184848905 -0.00371328369 0.00450000539
v -0.000280603766 -0.00386893749 0.00409999862
v -0.000280603766 -0.00386893749 0.00450000539
v -0.00078612566 -0.00396632776 0.00409999862
v -0.00078612566 -0.00396632776 0.00450000539
v -0.00133000314 -0.00400000066 0.00409999862
v -0.00133000314 -0.00400000066 0.00450000539
v -0.00399000943 -0.00400000066 0.00409999862
v -0.00399000943 -0.00400000066 0.00450000539
v -0.00399000943 0.00282000005 0.00409999862
v -0.00399000943 0.00282000005 0.00450000539
v -0.00145000219 -0.00312000513 0.00409999862
v -0.00145000219 -0.00312000513 0.00450000539
v -0.000929936767 -0.00308626145 0.00409999862
v -0.000929936767 -0.00308626145 0.00450000539
v -0.000476941466 -0.00299093127 0.00409999862
v -0.000476941466 -0.00299093127 0.00450000539
v -8.68737698e-05 -0.00284281373 0.00409999862
v -8.68737698e-05 -0.00284281373 0.00450000539
v 0.000244438648 -0.00265074521 0.00409999862
v 0.000244438648 -0.00265074521 0.00450000539
v 0.000521183014 -0.00242353231 0.00409999862
v 0.000521183014 -0.00242353231 0.00450000539
v 0.00074750185 -0.00217000395 0.00409999862
v 0.00074750185 -0.00217000395 0.00450000539
v 0.000927567482 -0.00189897418 0.00409999862
v 0.000927567482 -0.00189897418 0.00450000539
v 0.00106555223 -0.00161926448 0.00409999862
v 0.00106555223 -0.00161926448 0.00450000539
v 0.00116562843 -0.0013396889 0.00409999862
v 0.00116562843 -0.0013396889 0.00450000539
v 0.0012319386 -0.00106907636 0.00409999862
v 0.0012319386 -0.00106907636 0.00450000539
v 0.00126868486 -0.000816240907 0.00409999862
v 0.00126868486 -0.000816240907 0.00450000539
v 0.00127999485 -0.000590004027 0.00409999862
v 0.00127999485 -0.000590004027 0.00450000539
v 0.00126177073 -0.000252425671 0.00409999862
v 0.00126177073 -0.000252425671 0.00450000539
v 0.00120671093 7.30976462e-05 0.00409999862
v 0.00120671093 7.30976462e-05 0.00450000539
v 0.00111421943 0.000383280218 0.00409999862
v 0.00111421943 0.000383280218 0.00450000539
v 0.000983700156 0.000674813986 0.00409999862
v 0.000983700156 0.000674813986 0.00450000539
v 0.000814571977 0.000944398344 0.00409999862
v 0.000814571977 0.000944398344 0.00450000539
v 0.000606253743 0.00118874758 0.00409999862
v 0.000606253743 0.00118874758 0.00450000539
v 0.000358134508 0.00140455365 0.00409999862
v 0.000358134508 0.00140455365 0.00450000539
v 6.96331263e-05 0.00158851594 0.00409999862
v 6.96331263e-05 0.00158851594 0.00450000539
v -0.000259846449 0.00173734128 0.00409999862
v -0.000259846449 0.00173734128 0.00450000539
v -0.000630885363 0.00184772909 0.00409999862
v -0.000630885363 0.00184772909 0.00450000539
v -0.00104406476 0.00191637874 0.00409999862
v -0.00104406476 0.00191637874 0.00450000539
v -0.00149999559 0.00193999708 0.00409999862
v -0.00149999559 0.00193999708 0.00450000539
v -0.00301000476 0.00193999708 0.00409999862
v -0.00301000476 0.00193999708 0.00450000539
v -0.00301000476 -0.00312000513 0.00409999862
v -0.00301000476 -0.00312000513 0.00450000539
usemtl screen_white_text_003
f 178 205 179
f 205 153 179
f 205 154 153
f 205 155 154
f 205 156 155
f 205 157 156
f 205 158 157
f 205 204 158
f 204 203 158
f 203 159 158
f 178 206 205
f 202 159 203
f 201 159 202
f 200 159 201
f 200 160 159
f 199 160 200
f 198 160 199
f 198 161 160
f 197 161 198
f 197 162 161
f 196 162 197
f 195 162 196
f 195 163 162
f 194 163 195
f 194 164 163
f 193 164 194
f 193 165 164
f 192 165 193
f 191 165 192
f 191 166 165
f 190 166 191
f 190 167 166
f 189 167 190
f 188 167 189
f 188 168 167
f 187 168 188
f 187 169 168
f 186 169 187
f 185 169 186
f 185 170 169
f 184 170 185
f 184 171 170
f 183 171 184
f 182 171 183
f 182 172 171
f 181 172 182
f 180 172 181
f 178 180 206
f 178 172 180
f 178 173 172
f 178 174 173
f 178 175 174
f 178 176 175
f 178 177 176
f 232 233 259
f 259 233 207
f 259 207 208
f 259 208 209
f 259 209 210
f 259 210 211
f 259 211 212
f 259 212 258
f 258 212 257
f 257 212 213
f 232 259 260
f 256 257 213
f 255 256 213
f 254 255 213
f 254 213 214
f 253 254 214
f 252 253 214
f 252 214 215
f 251 252 215
f 251 215 216
f 250 251 216
f 249 250 216
f 249 216 217
f 248 249 217
f 248 217 218
f 247 248 218
f 247 218 219
f 246 247 219
f 245 246 219
f 245 219 220
f 244 245 220
f 244 220 221
f 243 244 221
f 242 243 221
f 242 221 222
f 241 242 222
f 241 222 223
f 240 241 223
f 239 240 223
f 239 223 224
f 238 239 224
f 238 224 225
f 237 238 225
f 236 237 225
f 236 225 226
f 235 236 226
f 234 235 226
f 232 260 234
f 232 234 226
f 232 226 227
f 232 227 228
f 232 228 229
f 232 229 230
f 232 230 231
f 262 264 263 261
f 264 266 265 263
f 266 268 267 265
f 268 270 269 267
f 270 272 271 269
f 272 274 273 271
f 274 276 275 273
f 276 278 277 275
f 278 280 279 277
f 280 282 281 279
f 282 284 283 281
f 284 286 285 283
f 286 288 287 285
f 288 290 289 287
f 290 292 291 289
f 292 294 293 291
f 294 296 295 293
f 296 298 297 295
f 298 300 299 297
f 300 302 301 299
f 302 304 303 301
f 304 306 305 303
f 306 308 307 305
f 308 310 309 307
f 310 312 311 309
f 312 314 313 311
f 314 262 261 313
f 316 318 317 315
f 318 320 319 317
f 320 322 321 319
f 322 324 323 321
f 324 326 325 323
f 326 328 327 325
f 328 330 329 327
f 330 332 331 329
f 332 334 333 331
f 334 336 335 333
f 336 338 337 335
f 338 340 339 337
f 340 342 341 339
f 342 344 343 341
f 344 346 345 343
f 346 348 347 345
f 348 350 349 347
f 350 352 351 349
f 352 354 353 351
f 354 356 355 353
f 356 358 357 355
f 358 360 359 357
f 360 362 361 359
f 362 364 363 361
f 364 366 365 363
f 366 368 367 365
f 368 316 315 367
