mtllib keyboard_key_4_9_link.mtl
o keyboard_key_4_9_link

g keyboard_key_4_9_SOLID
v -0.0199999958 -0.0164999999 0
v -0.0199999958 -0.0130000003 -0.00349999964
v -0.0234999955 -0.0130000003 0
v -0.0199999958 -0.0162335783 -0.0013393946
v -0.0199999958 -0.0154748736 -0.00247487426
v -0.0213393867 -0.0162335783 0
v -0.021372959 -0.0159120392 -0.00137295946
v -0.0213032961 -0.0152968913 -0.00229689106
v -0.0220207274 -0.0150207262 -0.00202072784
v -0.0213393867 -0.0130000003 -0.00323357806
v -0.0224748701 -0.0130000003 -0.00247487426
v -0.0199999958 -0.0143393921 -0.00323357806
v -0.021372959 -0.0143729588 -0.0029120408
v -0.0222968906 -0.0143032968 -0.00229689106
v -0.0232335776 -0.0143393921 0
v -0.0224748701 -0.0154748736 0
v -0.0232335776 -0.0130000003 -0.00133939087
v -0.0229120404 -0.0143729588 -0.00137295946
v -0.0222968906 -0.0152968913 -0.00130329654
v 0.0199999958 -0.0164999999 0
v 0.0234999955 -0.0130000003 0
v 0.0199999958 -0.0130000003 -0.00349999964
v 0.0213393867 -0.0162335783 0
v 0.0224748701 -0.0154748736 0
v 0.0199999958 -0.0162335783 -0.00133939087
v 0.021372959 -0.0159120392 -0.00137295946
v 0.0222968906 -0.0152968913 -0.00130329654
v 0.0220207274 -0.0150207262 -0.00202072784
v 0.0232335776 -0.0130000003 -0.0013393946
v 0.0224748701 -0.0130000003 -0.00247487426
v 0.0232335776 -0.0143393921 0
v 0.0229120404 -0.0143729588 -0.00137295946
v 0.0222968906 -0.0143032968 -0.00229689106
v 0.0199999958 -0.0143393921 -0.00323357806
v 0.0199999958 -0.0154748736 -0.00247487426
v 0.0213393867 -0.0130000003 -0.00323357806
v 0.021372959 -0.0143729588 -0.0029120408
v 0.0213032961 -0.0152968913 -0.00229689106
v 0.0199999958 0.0164999999 0
v 0.0199999958 0.0130000003 -0.00349999964
v 0.0234999955 0.0130000003 0
v 0.0199999958 0.0162335783 -0.0013393946
v 0.0199999958 0.0154748745 -0.00247487426
v 0.0213393867 0.0162335783 0
v 0.021372959 0.0159120373 -0.00137295946
v 0.0213032961 0.0152968913 -0.00229689106
v 0.0220207274 0.0150207244 -0.00202072784
v 0.0213393867 0.0130000003 -0.00323357806
v 0.0224748701 0.0130000003 -0.00247487426
v 0.0199999958 0.0143393911 -0.00323357806
v 0.021372959 0.0143729597 -0.0029120408
v 0.0222968906 0.0143032968 -0.00229689106
v 0.0232335776 0.0143393911 0
v 0.0224748701 0.0154748745 0
v 0.0232335776 0.0130000003 -0.00133939087
v 0.0229120404 0.0143729597 -0.00137295946
v 0.0222968906 0.0152968913 -0.00130329654
v -0.0199999958 0.0164999999 0
v -0.0234999955 0.0130000003 0
v -0.0199999958 0.0130000003 -0.00349999964
v -0.0213393867 0.0162335783 0
v -0.0224748701 0.0154748745 0
v -0.0199999958 0.0162335783 -0.00133939087
v -0.021372959 0.0159120373 -0.00137295946
v -0.0222968906 0.0152968913 -0.00130329654
v -0.0220207274 0.0150207244 -0.00202072784
v -0.0232335776 0.0130000003 -0.0013393946
v -0.0224748701 0.0130000003 -0.00247487426
v -0.0232335776 0.0143393911 0
v -0.0229120404 0.0143729597 -0.00137295946
v -0.0222968906 0.0143032968 -0.00229689106
v -0.0199999958 0.0143393911 -0.00323357806
v -0.0199999958 0.0154748745 -0.00247487426
v -0.0213393867 0.0130000003 -0.00323357806
v -0.021372959 0.0143729597 -0.0029120408
v -0.0213032961 0.0152968913 -0.00229689106
v -0.0234999955 -0.0130000003 0
v -0.0199999958 -0.0130000003 0.00350000337
v -0.0199999958 -0.0164999999 0
v -0.0232335776 -0.0130000003 0.0013393946
v -0.0224748701 -0.0130000003 0.00247487426
v -0.0232335776 -0.0143393921 0
v -0.0229120404 -0.0143729588 0.00137295946
v -0.0222968906 -0.0143032968 0.00229689106
v -0.0220207274 -0.0150207262 0.00202072784
v -0.0199999958 -0.0143393921 0.00323357806
v -0.0199999958 -0.0154748736 0.00247487426
v -0.0213393867 -0.0130000003 0.00323357806
v -0.021372959 -0.0143729588 0.0029120408
v -0.0213032961 -0.0152968913 0.00229689106
v -0.0213393867 -0.0162335783 0
v -0.0224748701 -0.0154748736 0
v -0.0199999958 -0.0162335783 0.00133939087
v -0.021372959 -0.0159120392 0.00137295946
v -0.0222968906 -0.0152968913 0.00130329654
v 0.0199999958 -0.0164999999 0
v 0.0199999958 -0.0130000003 0.00350000337
v 0.0234999955 -0.0130000003 0
v 0.0199999958 -0.0162335783 0.0013393946
v 0.0199999958 -0.0154748736 0.00247487426
v 0.0213393867 -0.0162335783 0
v 0.021372959 -0.0159120392 0.00137295946
v 0.0213032961 -0.0152968913 0.00229689106
v 0.0220207274 -0.0150207262 0.00202072784
v 0.0213393867 -0.0130000003 0.00323357806
v 0.0224748701 -0.0130000003 0.00247487426
v 0.0199999958 -0.0143393921 0.00323357806
v 0.021372959 -0.0143729588 0.0029120408
v 0.0222968906 -0.0143032968 0.00229689106
v 0.0232335776 -0.0143393921 0
v 0.0224748701 -0.0154748736 0
v 0.0232335776 -0.0130000003 0.00133939087
v 0.0229120404 -0.0143729588 0.00137295946
v 0.0222968906 -0.0152968913 0.00130329654
v 0.0199999958 0.0130000003 0.00350000337
v 0.0199999958 0.0164999999 0
v 0.0234999955 0.0130000003 0
v 0.0199999958 0.0143393911 0.00323357806
v 0.0199999958 0.0154748745 0.00247487426
v 0.0213393867 0.0130000003 0.00323357806
v 0.021372959 0.0143729597 0.0029120408
v 0.0213032961 0.0152968913 0.00229689106
v 0.0220207274 0.0150207244 0.00202072784
v 0.0213393867 0.0162335783 0
v 0.0224748701 0.0154748745 0
v 0.0199999958 0.0162335783 0.00133939087
v 0.021372959 0.0159120373 0.00137295946
v 0.0222968906 0.0152968913 0.00130329654
v 0.0232335776 0.0130000003 0.0013393946
v 0.0224748701 0.0130000003 0.00247487426
v 0.0232335776 0.0143393911 0
v 0.0229120404 0.0143729597 0.00137295946
v 0.0222968906 0.0143032968 0.00229689106
v -0.0234999955 0.0130000003 0
v -0.0199999958 0.0164999999 0
v -0.0199999958 0.0130000003 0.00350000337
v -0.0232335776 0.0143393911 0
v -0.0224748701 0.0154748745 0
v -0.0232335776 0.0130000003 0.00133939087
v -0.0229120404 0.0143729597 0.00137295946
v -0.0222968906 0.0152968913 0.00130329654
v -0.0220207274 0.0150207244 0.00202072784
v -0.0199999958 0.0162335783 0.0013393946
v -0.0199999958 0.0154748745 0.00247487426
v -0.0213393867 0.0162335783 0
v -0.021372959 0.0159120373 0.00137295946
v -0.0213032961 0.0152968913 0.00229689106
v -0.0213393867 0.0130000003 0.00323357806
v -0.0224748701 0.0130000003 0.00247487426
v -0.0199999958 0.0143393911 0.00323357806
v -0.021372959 0.0143729597 0.0029120408
v -0.0222968906 0.0143032968 0.00229689106
usemtl matte_black_keycaps_003
f 59 134 77 3
f 2 22 40 60
f 39 116 135 58
f 78 136 115 97
f 21 98 117 41
f 1 4 7 6
f 4 5 8 7
f 6 7 19 16
f 7 8 9 19
f 2 10 13 12
f 10 11 14 13
f 12 13 8 5
f 13 14 9 8
f 3 15 18 17
f 15 16 19 18
f 17 18 14 11
f 18 19 9 14
f 20 23 26 25
f 23 24 27 26
f 25 26 38 35
f 26 27 28 38
f 21 29 32 31
f 29 30 33 32
f 31 32 27 24
f 32 33 28 27
f 22 34 37 36
f 34 35 38 37
f 36 37 33 30
f 37 38 28 33
f 39 42 45 44
f 42 43 46 45
f 44 45 57 54
f 45 46 47 57
f 40 48 51 50
f 48 49 52 51
f 50 51 46 43
f 51 52 47 46
f 41 53 56 55
f 53 54 57 56
f 55 56 52 49
f 56 57 47 52
f 58 61 64 63
f 61 62 65 64
f 63 64 76 73
f 64 65 66 76
f 59 67 70 69
f 67 68 71 70
f 69 70 65 62
f 70 71 66 65
f 60 72 75 74
f 72 73 76 75
f 74 75 71 68
f 75 76 66 71
f 77 80 83 82
f 80 81 84 83
f 82 83 95 92
f 83 84 85 95
f 78 86 89 88
f 86 87 90 89
f 88 89 84 81
f 89 90 85 84
f 79 91 94 93
f 91 92 95 94
f 93 94 90 87
f 94 95 85 90
f 96 99 102 101
f 99 100 103 102
f 101 102 114 111
f 102 103 104 114
f 97 105 108 107
f 105 106 109 108
f 107 108 103 100
f 108 109 104 103
f 98 110 113 112
f 110 111 114 113
f 112 113 109 106
f 113 114 104 109
f 115 118 121 120
f 118 119 122 121
f 120 121 133 130
f 121 122 123 133
f 116 124 127 126
f 124 125 128 127
f 126 127 122 119
f 127 128 123 122
f 117 129 132 131
f 129 130 133 132
f 131 132 128 125
f 132 133 123 128
f 134 137 140 139
f 137 138 141 140
f 139 140 152 149
f 140 141 142 152
f 135 143 146 145
f 143 144 147 146
f 145 146 141 138
f 146 147 142 141
f 136 148 151 150
f 148 149 152 151
f 150 151 147 144
f 151 152 142 147
f 39 58 63 42
f 42 63 73 43
f 43 73 72 50
f 50 72 60 40
f 1 20 25 4
f 4 25 35 5
f 5 35 34 12
f 12 34 22 2
f 21 41 55 29
f 29 55 49 30
f 30 49 48 36
f 36 48 40 22
f 2 60 74 10
f 10 74 68 11
f 11 68 67 17
f 17 67 59 3
f 3 77 82 15
f 15 82 92 16
f 16 92 91 6
f 6 91 79 1
f 78 97 107 86
f 86 107 100 87
f 87 100 99 93
f 93 99 96 79
f 97 115 120 105
f 105 120 130 106
f 106 130 129 112
f 112 129 117 98
f 77 134 139 80
f 80 139 149 81
f 81 149 148 88
f 88 148 136 78
f 20 96 101 23
f 23 101 111 24
f 24 111 110 31
f 31 110 98 21
f 41 117 131 53
f 53 131 125 54
f 54 125 124 44
f 44 124 116 39
f 115 136 150 118
f 118 150 144 119
f 119 144 143 126
f 126 143 135 116
f 58 135 145 61
f 61 145 138 62
f 62 138 137 69
f 69 137 134 59
f 1 79 96 20

g key_legend_4_9
v -0.00041051209 -0.00357112847 0.00450000539
v -0.000426530838 -0.00364902802 0.00450000539
v -0.000452339649 -0.00372296944 0.00450000539
v -0.000487223268 -0.00379222259 0.00450000539
v -0.000530436635 -0.00385605916 0.00450000539
v -0.000581249595 -0.00391375087 0.00450000539
v -0.000638946891 -0.00396456569 0.00450000539
v -0.000702783465 -0.0040077772 0.00450000539
v -0.000772029161 -0.00404265709 0.00450000539
v -0.000845968723 -0.00406847149 0.00450000539
v -0.000923871994 -0.00408449769 0.00450000539
v -0.00100500882 -0.00408999994 0.00450000539
v -0.00108613074 -0.00408449769 0.00450000539
v -0.00116403401 -0.00406847149 0.00450000539
v -0.00123797357 -0.00404265709 0.00450000539
v -0.00130721927 -0.0040077772 0.00450000539
v -0.00137105584 -0.00396456569 0.00450000539
v -0.00142875314 -0.00391375087 0.00450000539
v -0.0014795661 -0.00385605916 0.00450000539
v -0.00152277946 -0.00379222259 0.00450000539
v -0.00155766308 -0.00372296944 0.00450000539
v -0.00158347189 -0.00364902802 0.00450000539
v -0.00159950554 -0.00357112847 0.00450000539
v -0.00160500407 -0.00349000096 0.00450000539
v -0.00159950554 -0.00340887159 0.00450000539
v -0.00158347189 -0.00333097205 0.00450000539
v -0.00155766308 -0.00325703062 0.00450000539
v -0.00152277946 -0.00318777747 0.00450000539
v -0.0014795661 -0.0031239409 0.00450000539
v -0.00142875314 -0.00306624919 0.00450000539
v -0.00137105584 -0.00301543437 0.00450000539
v -0.00130721927 -0.00297222286 0.00450000539
v -0.00123797357 -0.00293734297 0.00450000539
v -0.00116403401 -0.00291152857 0.00450000539
v -0.00108613074 -0.00289550424 0.00450000539
v -0.00100500882 -0.00289000012 0.00450000539
v -0.000923871994 -0.00289550424 0.00450000539
v -0.000845968723 -0.00291152857 0.00450000539
v -0.000772029161 -0.00293734483 0.00450000539
v -0.000702783465 -0.00297222286 0.00450000539
v -0.000638946891 -0.00301543437 0.00450000539
v -0.000581249595 -0.00306625105 0.00450000539
v -0.000530436635 -0.0031239409 0.00450000539
v -0.000487223268 -0.00318777747 0.00450000539
v -0.000452339649 -0.00325703248 0.00450000539
v -0.000426530838 -0.00333097205 0.00450000539
v -0.00041051209 -0.00340887159 0.00450000539
v -0.00040499866 -0.00349000096 0.00450000539
v -0.00041051209 -0.00357112847 0.00409999862
v -0.000426530838 -0.00364902802 0.00409999862
v -0.000452339649 -0.00372296944 0.00409999862
v -0.000487223268 -0.00379222259 0.00409999862
v -0.000530436635 -0.00385605916 0.00409999862
v -0.000581249595 -0.00391375087 0.00409999862
v -0.000638946891 -0.00396456569 0.00409999862
v -0.000702783465 -0.0040077772 0.00409999862
v -0.000772029161 -0.00404265709 0.00409999862
v -0.000845968723 -0.00406847149 0.00409999862
v -0.000923871994 -0.00408449769 0.00409999862
v -0.00100500882 -0.00408999994 0.00409999862
v -0.00108613074 -0.00408449769 0.00409999862
v -0.00116403401 -0.00406847149 0.00409999862
v -0.00123797357 -0.00404265709 0.00409999862
v -0.00130721927 -0.0040077772 0.00409999862
v -0.00137105584 -0.00396456569 0.00409999862
v -0.00142875314 -0.00391375087 0.00409999862
v -0.0014795661 -0.00385605916 0.00409999862
v -0.00152277946 -0.00379222259 0.00409999862
v -0.00155766308 -0.00372296944 0.00409999862
v -0.00158347189 -0.00364902802 0.00409999862
v -0.00159950554 -0.00357112847 0.00409999862
v -0.00160500407 -0.00349000096 0.00409999862
v -0.00159950554 -0.00340887159 0.00409999862
v -0.00158347189 -0.00333097205 0.00409999862
v -0.00155766308 -0.00325703062 0.00409999862
v -0.00152277946 -0.00318777747 0.00409999862
v -0.0014795661 -0.0031239409 0.00409999862
v -0.00142875314 -0.00306624919 0.00409999862
v -0.00137105584 -0.00301543437 0.00409999862
v -0.00130721927 -0.00297222286 0.00409999862
v -0.00123797357 -0.00293734297 0.00409999862
v -0.00116403401 -0.00291152857 0.00409999862
v -0.00108613074 -0.00289550424 0.00409999862
v -0.00100500882 -0.00289000012 0.00409999862
v -0.000923871994 -0.00289550424 0.00409999862
v -0.000845968723 -0.00291152857 0.00409999862
v -0.000772029161 -0.00293734483 0.00409999862
v -0.000702783465 -0.00297222286 0.00409999862
v -0.000638946891 -0.00301543437 0.00409999862
v -0.000581249595 -0.00306625105 0.00409999862
v -0.000530436635 -0.0031239409 0.00409999862
v -0.000487223268 -0.00318777747 0.00409999862
v -0.000452339649 -0.00325703248 0.00409999862
v -0.000426530838 -0.00333097205 0.00409999862
v -0.00041051209 -0.00340887159 0.00409999862
v -0.00040499866 -0.00349000096 0.00409999862
v -0.00041051209 -0.00357112847 0.00409999862
v -0.00041051209 -0.00357112847 0.00450000539
v -0.000426530838 -0.00364902802 0.00409999862
v -0.000426530838 -0.00364902802 0.00450000539
v -0.000452339649 -0.00372296944 0.00409999862
v -0.000452339649 -0.00372296944 0.00450000539
v -0.000487223268 -0.00379222259 0.00409999862
v -0.000487223268 -0.00379222259 0.00450000539
v -0.000530436635 -0.00385605916 0.00409999862
v -0.000530436635 -0.00385605916 0.00450000539
v -0.000581249595 -0.00391375087 0.00409999862
v -0.000581249595 -0.00391375087 0.00450000539
v -0.000638946891 -0.00396456569 0.00409999862
v -0.000638946891 -0.00396456569 0.00450000539
v -0.000702783465 -0.0040077772 0.00409999862
v -0.000702783465 -0.0040077772 0.00450000539
v -0.000772029161 -0.00404265709 0.00409999862
v -0.000772029161 -0.00404265709 0.00450000539
v -0.000845968723 -0.00406847149 0.00409999862
v -0.000845968723 -0.00406847149 0.00450000539
v -0.000923871994 -0.00408449769 0.00409999862
v -0.000923871994 -0.00408449769 0.00450000539
v -0.00100500882 -0.00408999994 0.00409999862
v -0.00100500882 -0.00408999994 0.00450000539
v -0.00108613074 -0.00408449769 0.00409999862
v -0.00108613074 -0.00408449769 0.00450000539
v -0.00116403401 -0.00406847149 0.00409999862
v -0.00116403401 -0.00406847149 0.00450000539
v -0.00123797357 -0.00404265709 0.00409999862
v -0.00123797357 -0.00404265709 0.00450000539
v -0.00130721927 -0.0040077772 0.00409999862
v -0.00130721927 -0.0040077772 0.00450000539
v -0.00137105584 -0.00396456569 0.00409999862
v -0.00137105584 -0.00396456569 0.00450000539
v -0.00142875314 -0.00391375087 0.00409999862
v -0.00142875314 -0.00391375087 0.00450000539
v -0.0014795661 -0.00385605916 0.00409999862
v -0.0014795661 -0.00385605916 0.00450000539
v -0.00152277946 -0.00379222259 0.00409999862
v -0.00152277946 -0.00379222259 0.00450000539
v -0.00155766308 -0.00372296944 0.00409999862
v -0.00155766308 -0.00372296944 0.00450000539
v -0.00158347189 -0.00364902802 0.00409999862
v -0.00158347189 -0.00364902802 0.00450000539
v -0.00159950554 -0.00357112847 0.00409999862
v -0.00159950554 -0.00357112847 0.00450000539
v -0.00160500407 -0.00349000096 0.00409999862
v -0.00160500407 -0.00349000096 0.00450000539
v -0.00159950554 -0.00340887159 0.00409999862
v -0.00159950554 -0.00340887159 0.00450000539
v -0.00158347189 -0.00333097205 0.00409999862
v -0.00158347189 -0.00333097205 0.00450000539
v -0.00155766308 -0.00325703062 0.00409999862
v -0.00155766308 -0.00325703062 0.00450000539
v -0.00152277946 -0.00318777747 0.00409999862
v -0.00152277946 -0.00318777747 0.00450000539
v -0.0014795661 -0.0031239409 0.00409999862
v -0.0014795661 -0.0031239409 0.00450000539
v -0.00142875314 -0.00306624919 0.00409999862
v -0.00142875314 -0.00306624919 0.00450000539
v -0.00137105584 -0.00301543437 0.00409999862
v -0.00137105584 -0.00301543437 0.00450000539
v -0.00130721927 -0.00297222286 0.00409999862
v -0.00130721927 -0.00297222286 0.00450000539
v -0.00123797357 -0.00293734297 0.00409999862
v -0.00123797357 -0.00293734297 0.00450000539
v -0.00116403401 -0.00291152857 0.00409999862
v -0.00116403401 -0.00291152857 0.00450000539
v -0.00108613074 -0.00289550424 0.00409999862
v -0.00108613074 -0.00289550424 0.00450000539
v -0.00100500882 -0.00289000012 0.00409999862
v -0.00100500882 -0.00289000012 0.00450000539
v -0.000923871994 -0.00289550424 0.00409999862
v -0.000923871994 -0.00289550424 0.00450000539
v -0.000845968723 -0.00291152857 0.00409999862
v -0.000845968723 -0.00291152857 0.00450000539
v -0.000772029161 -0.00293734483 0.00409999862
v -0.000772029161 -0.00293734483 0.00450000539
v -0.000702783465 -0.00297222286 0.00409999862
v -0.000702783465 -0.00297222286 0.00450000539
v -0.000638946891 -0.00301543437 0.00409999862
v -0.000638946891 -0.00301543437 0.00450000539
v -0.000581249595 -0.00306625105 0.00409999862
v -0.000581249595 -0.00306625105 0.00450000539
v -0.000530436635 -0.0031239409 0.00409999862
v -0.000530436635 -0.0031239409 0.00450000539
v -0.000487223268 -0.00318777747 0.00409999862
v -0.000487223268 -0.00318777747 0.00450000539
v -0.000452339649 -0.00325703248 0.00409999862
v -0.000452339649 -0.00325703248 0.00450000539
v -0.000426530838 -0.00333097205 0.00409999862
v -0.000426530838 -0.00333097205 0.00450000539
v -0.00041051209 -0.00340887159 0.00409999862
v -0.00041051209 -0.00340887159 0.00450000539
v -0.00040499866 -0.00349000096 0.00409999862
v -0.00040499866 -0.00349000096 0.00450000539
usemtl screen_white_text_003
f 187 189 188
f 186 189 187
f 186 190 189
f 185 190 186
f 185 191 190
f 184 191 185
f 184 192 191
f 183 192 184
f 183 193 192
f 182 193 183
f 182 194 193
f 181 194 182
f 181 195 194
f 180 195 181
f 180 196 195
f 179 196 180
f 179 197 196
f 178 197 179
f 178 198 197
f 177 198 178
f 177 199 198
f 176 199 177
f 176 200 199
f 175 200 176
f 175 153 200
f 174 153 175
f 174 154 153
f 173 154 174
f 173 155 154
f 172 155 173
f 172 156 155
f 171 156 172
f 171 157 156
f 170 157 171
f 170 158 157
f 169 158 170
f 169 159 158
f 168 159 169
f 168 160 159
f 167 160 168
f 167 161 160
f 166 161 167
f 166 162 161
f 165 162 166
f 165 163 162
f 164 163 165
f 235 236 237
f 234 235 237
f 234 237 238
f 233 234 238
f 233 238 239
f 232 233 239
f 232 239 240
f 231 232 240
f 231 240 241
f 230 231 241
f 230 241 242
f 229 230 242
f 229 242 243
f 228 229 243
f 228 243 244
f 227 228 244
f 227 244 245
f 226 227 245
f 226 245 246
f 225 226 246
f 225 246 247
f 224 225 247
f 224 247 248
f 223 224 248
f 223 248 201
f 222 223 201
f 222 201 202
f 221 222 202
f 221 202 203
f 220 221 203
f 220 203 204
f 219 220 204
f 219 204 205
f 218 219 205
f 218 205 206
f 217 218 206
f 217 206 207
f 216 217 207
f 216 207 208
f 215 216 208
f 215 208 209
f 214 215 209
f 214 209 210
f 213 214 210
f 213 210 211
f 212 213 211
f 250 252 251 249
f 252 254 253 251
f 254 256 255 253
f 256 258 257 255
f 258 260 259 257
f 260 262 261 259
f 262 264 263 261
f 264 266 265 263
f 266 268 267 265
f 268 270 269 267
f 270 272 271 269
f 272 274 273 271
f 274 276 275 273
f 276 278 277 275
f 278 280 279 277
f 280 282 281 279
f 282 284 283 281
f 284 286 285 283
f 286 288 287 285
f 288 290 289 287
f 290 292 291 289
f 292 294 293 291
f 294 296 295 293
f 296 298 297 295
f 298 300 299 297
f 300 302 301 299
f 302 304 303 301
f 304 306 305 303
f 306 308 307 305
f 308 310 309 307
f 310 312 311 309
f 312 314 313 311
f 314 316 315 313
f 316 318 317 315
f 318 320 319 317
f 320 322 321 319
f 322 324 323 321
f 324 326 325 323
f 326 328 327 325
f 328 330 329 327
f 330 332 331 329
f 332 334 333 331
f 334 336 335 333
f 336 338 337 335
f 338 340 339 337
f 340 342 341 339
f 342 344 343 341
f 344 250 249 343
