mtllib keyboard_key_1_10_0_link.mtl
o keyboard_key_1_10_0_link

g keyboard_key_1_10_0_SOLID
v -0.0180000067 -0.0154999942 0
v -0.0180000067 -0.0119999945 -0.00349999964
v -0.0215000063 -0.0119999945 0
v -0.0180000067 -0.0152335763 -0.0013393946
v -0.0180000067 -0.0144748688 -0.00247487426
v -0.0193393975 -0.0152335763 0
v -0.019372955 -0.014912039 -0.00137295946
v -0.019303292 -0.0142968893 -0.00229689106
v -0.0200207233 -0.0140207261 -0.00202072784
v -0.0193393975 -0.0119999945 -0.00323357806
v -0.0204748809 -0.0119999945 -0.00247487426
v -0.0180000067 -0.0133393854 -0.00323357806
v -0.019372955 -0.0133729577 -0.0029120408
v -0.0202969015 -0.0133032948 -0.00229689106
v -0.0212335885 -0.0133393854 0
v -0.0204748809 -0.0144748688 0
v -0.0212335885 -0.0119999945 -0.00133939087
v -0.0209120363 -0.0133729577 -0.00137295946
v -0.0202969015 -0.0142968893 -0.00130329654
v 0.0180000067 -0.0154999942 0
v 0.0215000063 -0.0119999945 0
v 0.0180000067 -0.0119999945 -0.00349999964
v 0.0193393975 -0.0152335763 0
v 0.0204748809 -0.0144748688 0
v 0.0180000067 -0.0152335763 -0.00133939087
v 0.019372955 -0.014912039 -0.00137295946
v 0.0202969015 -0.0142968893 -0.00130329654
v 0.0200207233 -0.0140207261 -0.00202072784
v 0.0212335885 -0.0119999945 -0.0013393946
v 0.0204748809 -0.0119999945 -0.00247487426
v 0.0212335885 -0.0133393854 0
v 0.0209120363 -0.0133729577 -0.00137295946
v 0.0202969015 -0.0133032948 -0.00229689106
v 0.0180000067 -0.0133393854 -0.00323357806
v 0.0180000067 -0.0144748688 -0.00247487426
v 0.0193393975 -0.0119999945 -0.00323357806
v 0.019372955 -0.0133729577 -0.0029120408
v 0.019303292 -0.0142968893 -0.00229689106
v 0.0180000067 0.0154999942 0
v 0.0180000067 0.0119999945 -0.00349999964
v 0.0215000063 0.0119999945 0
v 0.0180000067 0.0152335763 -0.0013393946
v 0.0180000067 0.0144748688 -0.00247487426
v 0.0193393975 0.0152335763 0
v 0.019372955 0.014912039 -0.00137295946
v 0.019303292 0.0142968893 -0.00229689106
v 0.0200207233 0.0140207261 -0.00202072784
v 0.0193393975 0.0119999945 -0.00323357806
v 0.0204748809 0.0119999945 -0.00247487426
v 0.0180000067 0.0133393854 -0.00323357806
v 0.019372955 0.0133729577 -0.0029120408
v 0.0202969015 0.0133032948 -0.00229689106
v 0.0212335885 0.0133393854 0
v 0.0204748809 0.0144748688 0
v 0.0212335885 0.0119999945 -0.00133939087
v 0.0209120363 0.0133729577 -0.00137295946
v 0.0202969015 0.0142968893 -0.00130329654
v -0.0180000067 0.0154999942 0
v -0.0215000063 0.0119999945 0
v -0.0180000067 0.0119999945 -0.00349999964
v -0.0193393975 0.0152335763 0
v -0.0204748809 0.0144748688 0
v -0.0180000067 0.0152335763 -0.00133939087
v -0.019372955 0.014912039 -0.00137295946
v -0.0202969015 0.0142968893 -0.00130329654
v -0.0200207233 0.0140207261 -0.00202072784
v -0.0212335885 0.0119999945 -0.0013393946
v -0.0204748809 0.0119999945 -0.00247487426
v -0.0212335885 0.0133393854 0
v -0.0209120363 0.0133729577 -0.00137295946
v -0.0202969015 0.0133032948 -0.00229689106
v -0.0180000067 0.0133393854 -0.00323357806
v -0.0180000067 0.0144748688 -0.00247487426
v -0.0193393975 0.0119999945 -0.00323357806
v -0.019372955 0.0133729577 -0.0029120408
v -0.019303292 0.0142968893 -0.00229689106
v -0.0215000063 -0.0119999945 0
v -0.0180000067 -0.0119999945 0.00350000337
v -0.0180000067 -0.0154999942 0
v -0.0212335885 -0.0119999945 0.0013393946
v -0.0204748809 -0.0119999945 0.00247487426
v -0.0212335885 -0.0133393854 0
v -0.0209120363 -0.0133729577 0.00137295946
v -0.0202969015 -0.0133032948 0.00229689106
v -0.0200207233 -0.0140207261 0.00202072784
v -0.0180000067 -0.0133393854 0.00323357806
v -0.0180000067 -0.0144748688 0.00247487426
v -0.0193393975 -0.0119999945 0.00323357806
v -0.019372955 -0.0133729577 0.0029120408
v -0.019303292 -0.0142968893 0.00229689106
v -0.0193393975 -0.0152335763 0
v -0.0204748809 -0.0144748688 0
v -0.0180000067 -0.0152335763 0.00133939087
v -0.019372955 -0.014912039 0.00137295946
v -0.0202969015 -0.0142968893 0.00130329654
v 0.0180000067 -0.0154999942 0
v 0.0180000067 -0.0119999945 0.00350000337
v 0.0215000063 -0.0119999945 0
v 0.0180000067 -0.0152335763 0.0013393946
v 0.0180000067 -0.0144748688 0.00247487426
v 0.0193393975 -0.0152335763 0
v 0.019372955 -0.014912039 0.00137295946
v 0.019303292 -0.0142968893 0.00229689106
v 0.0200207233 -0.0140207261 0.00202072784
v 0.0193393975 -0.0119999945 0.00323357806
v 0.0204748809 -0.0119999945 0.00247487426
v 0.0180000067 -0.0133393854 0.00323357806
v 0.019372955 -0.0133729577 0.0029120408
v 0.0202969015 -0.0133032948 0.00229689106
v 0.0212335885 -0.0133393854 0
v 0.0204748809 -0.0144748688 0
v 0.0212335885 -0.0119999945 0.00133939087
v 0.0209120363 -0.0133729577 0.00137295946
v 0.0202969015 -0.0142968893 0.00130329654
v 0.0180000067 0.0119999945 0.00350000337
v 0.0180000067 0.0154999942 0
v 0.0215000063 0.0119999945 0
v 0.0180000067 0.0133393854 0.00323357806
v 0.0180000067 0.0144748688 0.00247487426
v 0.0193393975 0.0119999945 0.00323357806
v 0.019372955 0.0133729577 0.0029120408
v 0.019303292 0.0142968893 0.00229689106
v 0.0200207233 0.0140207261 0.00202072784
v 0.0193393975 0.0152335763 0
v 0.0204748809 0.0144748688 0
v 0.0180000067 0.0152335763 0.00133939087
v 0.019372955 0.014912039 0.00137295946
v 0.0202969015 0.0142968893 0.00130329654
v 0.0212335885 0.0119999945 0.0013393946
v 0.0204748809 0.0119999945 0.00247487426
v 0.0212335885 0.0133393854 0
v 0.0209120363 0.0133729577 0.00137295946
v 0.0202969015 0.0133032948 0.00229689106
v -0.0215000063 0.0119999945 0
v -0.0180000067 0.0154999942 0
v -0.0180000067 0.0119999945 0.00350000337
v -0.0212335885 0.0133393854 0
v -0.0204748809 0.0144748688 0
v -0.0212335885 0.0119999945 0.00133939087
v -0.0209120363 0.0133729577 0.00137295946
v -0.0202969015 0.0142968893 0.00130329654
v -0.0200207233 0.0140207261 0.00202072784
v -0.0180000067 0.0152335763 0.0013393946
v -0.0180000067 0.0144748688 0.00247487426
v -0.0193393975 0.0152335763 0
v -0.019372955 0.014912039 0.00137295946
v -0.019303292 0.0142968893 0.00229689106
v -0.0193393975 0.0119999945 0.00323357806
v -0.0204748809 0.0119999945 0.00247487426
v -0.0180000067 0.0133393854 0.00323357806
v -0.019372955 0.0133729577 0.0029120408
v -0.0202969015 0.0133032948 0.00229689106
usemtl matte_black_keycaps_003
f 59 134 77 3
f 2 22 40 60
f 39 116 135 58
f 78 136 115 97
f 21 98 117 41
f 1 4 7 6
f 4 5 8 7
f 6 7 19 16
f 7 8 9 19
f 2 10 13 12
f 10 11 14 13
f 12 13 8 5
f 13 14 9 8
f 3 15 18 17
f 15 16 19 18
f 17 18 14 11
f 18 19 9 14
f 20 23 26 25
f 23 24 27 26
f 25 26 38 35
f 26 27 28 38
f 21 29 32 31
f 29 30 33 32
f 31 32 27 24
f 32 33 28 27
f 22 34 37 36
f 34 35 38 37
f 36 37 33 30
f 37 38 28 33
f 39 42 45 44
f 42 43 46 45
f 44 45 57 54
f 45 46 47 57
f 40 48 51 50
f 48 49 52 51
f 50 51 46 43
f 51 52 47 46
f 41 53 56 55
f 53 54 57 56
f 55 56 52 49
f 56 57 47 52
f 58 61 64 63
f 61 62 65 64
f 63 64 76 73
f 64 65 66 76
f 59 67 70 69
f 67 68 71 70
f 69 70 65 62
f 70 71 66 65
f 60 72 75 74
f 72 73 76 75
f 74 75 71 68
f 75 76 66 71
f 77 80 83 82
f 80 81 84 83
f 82 83 95 92
f 83 84 85 95
f 78 86 89 88
f 86 87 90 89
f 88 89 84 81
f 89 90 85 84
f 79 91 94 93
f 91 92 95 94
f 93 94 90 87
f 94 95 85 90
f 96 99 102 101
f 99 100 103 102
f 101 102 114 111
f 102 103 104 114
f 97 105 108 107
f 105 106 109 108
f 107 108 103 100
f 108 109 104 103
f 98 110 113 112
f 110 111 114 113
f 112 113 109 106
f 113 114 104 109
f 115 118 121 120
f 118 119 122 121
f 120 121 133 130
f 121 122 123 133
f 116 124 127 126
f 124 125 128 127
f 126 127 122 119
f 127 128 123 122
f 117 129 132 131
f 129 130 133 132
f 131 132 128 125
f 132 133 123 128
f 134 137 140 139
f 137 138 141 140
f 139 140 152 149
f 140 141 142 152
f 135 143 146 145
f 143 144 147 146
f 145 146 141 138
f 146 147 142 141
f 136 148 151 150
f 148 149 152 151
f 150 151 147 144
f 151 152 142 147
f 39 58 63 42
f 42 63 73 43
f 43 73 72 50
f 50 72 60 40
f 1 20 25 4
f 4 25 35 5
f 5 35 34 12
f 12 34 22 2
f 21 41 55 29
f 29 55 49 30
f 30 49 48 36
f 36 48 40 22
f 2 60 74 10
f 10 74 68 11
f 11 68 67 17
f 17 67 59 3
f 3 77 82 15
f 15 82 92 16
f 16 92 91 6
f 6 91 79 1
f 78 97 107 86
f 86 107 100 87
f 87 100 99 93
f 93 99 96 79
f 97 115 120 105
f 105 120 130 106
f 106 130 129 112
f 112 129 117 98
f 77 134 139 80
f 80 139 149 81
f 81 149 148 88
f 88 148 136 78
f 20 96 101 23
f 23 101 111 24
f 24 111 110 31
f 31 110 98 21
f 41 117 131 53
f 53 131 125 54
f 54 125 124 44
f 44 124 116 39
f 115 136 150 118
f 118 150 144 119
f 119 144 143 126
f 126 143 135 116
f 58 135 145 61
f 61 145 138 62
f 62 138 137 69
f 69 137 134 59
f 1 79 96 20

g key_legend_1_10_0
v -0.00132058561 -0.00406123698 0.00450000539
v -0.00162129104 -0.00397658348 0.00450000539
v -0.00190062821 -0.00383843482 0.00450000539
v -0.00215703249 -0.00364926457 0.00450000539
v -0.00238901377 -0.00341147184 0.00450000539
v -0.00259500742 -0.00312750041 0.00450000539
v -0.00277349353 -0.00279977918 0.00450000539
v -0.00292296708 -0.00243073702 0.00450000539
v -0.00304187834 -0.00202281773 0.00450000539
v -0.00312870741 -0.0015784204 0.00450000539
v -0.00318191946 -0.00110001862 0.00450000539
v -0.00319999456 -0.000589996576 0.00450000539
v -0.00318191946 -7.99894333e-05 0.00450000539
v -0.00312870741 0.000398427248 0.00450000539
v -0.00304187834 0.000842809677 0.00450000539
v -0.00292296708 0.00125074387 0.00450000539
v -0.00277349353 0.00161977112 0.00450000539
v -0.00259500742 0.00194749236 0.00450000539
v -0.00238901377 0.00223146379 0.00450000539
v -0.00215703249 0.00246925652 0.00450000539
v -0.00190062821 0.00265844166 0.00450000539
v -0.00162129104 0.00279657543 0.00450000539
v -0.00132058561 0.00288124382 0.00450000539
v -0.00100000203 0.00291000307 0.00450000539
v -0.000679418445 0.00288122892 0.00450000539
v -0.000378713012 0.00279657543 0.00450000539
v -9.9375844e-05 0.00265844166 0.00450000539
v 0.000157028437 0.00246925652 0.00450000539
v 0.000389009714 0.00223146379 0.00450000539
v 0.000595003366 0.00194749236 0.00450000539
v 0.000773489475 0.00161977112 0.00450000539
v 0.000922963023 0.00125074387 0.00450000539
v 0.00104187429 0.000842809677 0.00450000539
v 0.00112870336 0.000398427248 0.00450000539
v 0.0011819154 -7.99894333e-05 0.00450000539
v 0.00120000541 -0.000589996576 0.00450000539
v 0.0011819154 -0.00110001862 0.00450000539
v 0.00112870336 -0.0015784204 0.00450000539
v 0.00104187429 -0.00202281773 0.00450000539
v 0.000922963023 -0.00243073702 0.00450000539
v 0.000773489475 -0.00279977918 0.00450000539
v 0.000595003366 -0.00312750041 0.00450000539
v 0.000389009714 -0.00341147184 0.00450000539
v 0.000157028437 -0.00364926457 0.00450000539
v -9.9375844e-05 -0.00383843482 0.00450000539
v -0.000378698111 -0.00397658348 0.00450000539
v -0.000679418445 -0.00406123698 0.00450000539
v -0.00100000203 -0.00408999622 0.00450000539
v -0.00118365884 0.00195997953 0.00450000539
v -0.00135426223 0.00190073252 0.00450000539
v -0.00151124597 0.00180344284 0.00450000539
v -0.0016540736 0.00166925788 0.00450000539
v -0.00178217888 0.00149938464 0.00450000539
v -0.00189499557 0.00129500031 0.00450000539
v -0.00199198723 0.00105728209 0.00450000539
v -0.00207258761 0.00078740716 0.00450000539
v -0.00213624537 0.000486567616 0.00450000539
v -0.00218240917 0.000155925751 0.00450000539
v -0.00221051276 -0.000203326344 0.00450000539
v -0.0022200048 -0.000589996576 0.00450000539
v -0.00221051276 -0.000976681709 0.00450000539
v -0.00218240917 -0.0013359338 0.00450000539
v -0.00213624537 -0.00166656077 0.00450000539
v -0.00207258761 -0.00196741521 0.00450000539
v -0.00199198723 -0.00223727524 0.00450000539
v -0.00189499557 -0.00247500837 0.00450000539
v -0.00178217888 -0.0026793927 0.00450000539
v -0.0016540736 -0.00284926593 0.00450000539
v -0.00151124597 -0.00298343599 0.00450000539
v -0.00135426223 -0.00308074057 0.00450000539
v -0.00118365884 -0.00313998759 0.00450000539
v -0.00100000203 -0.00315999985 0.00450000539
v -0.000816345215 -0.00313998759 0.00450000539
v -0.00064574182 -0.00308074057 0.00450000539
v -0.000488758087 -0.00298343599 0.00450000539
v -0.000345930457 -0.00284926593 0.00450000539
v -0.000217825174 -0.0026793927 0.00450000539
v -0.000105008483 -0.00247500837 0.00450000539
v -8.01682472e-06 -0.00223727524 0.00450000539
v 7.25835562e-05 -0.00196741521 0.00450000539
v 0.000136241317 -0.00166656077 0.00450000539
v 0.000182405114 -0.0013359338 0.00450000539
v 0.000210508704 -0.000976681709 0.00450000539
v 0.000220000744 -0.000589996576 0.00450000539
v 0.000210508704 -0.000203326344 0.00450000539
v 0.000182405114 0.000155925751 0.00450000539
v 0.000136241317 0.000486567616 0.00450000539
v 7.25835562e-05 0.00078740716 0.00450000539
v -8.01682472e-06 0.00105728209 0.00450000539
v -0.000105008483 0.00129500031 0.00450000539
v -0.000217825174 0.00149938464 0.00450000539
v -0.000345930457 0.00166925788 0.00450000539
v -0.000488758087 0.00180344284 0.00450000539
v -0.00064574182 0.00190073252 0.00450000539
v -0.000816345215 0.00195997953 0.00450000539
v -0.00100000203 0.00197999179 0.00450000539
v -0.00132058561 -0.00406123698 0.00409999862
v -0.00162129104 -0.00397658348 0.00409999862
v -0.00190062821 -0.00383843482 0.00409999862
v -0.00215703249 -0.00364926457 0.00409999862
v -0.00238901377 -0.00341147184 0.00409999862
v -0.00259500742 -0.00312750041 0.00409999862
v -0.00277349353 -0.00279977918 0.00409999862
v -0.00292296708 -0.00243073702 0.00409999862
v -0.00304187834 -0.00202281773 0.00409999862
v -0.00312870741 -0.0015784204 0.00409999862
v -0.00318191946 -0.00110001862 0.00409999862
v -0.00319999456 -0.000589996576 0.00409999862
v -0.00318191946 -7.99894333e-05 0.00409999862
v -0.00312870741 0.000398427248 0.00409999862
v -0.00304187834 0.000842809677 0.00409999862
v -0.00292296708 0.00125074387 0.00409999862
v -0.00277349353 0.00161977112 0.00409999862
v -0.00259500742 0.00194749236 0.00409999862
v -0.00238901377 0.00223146379 0.00409999862
v -0.00215703249 0.00246925652 0.00409999862
v -0.00190062821 0.00265844166 0.00409999862
v -0.00162129104 0.00279657543 0.00409999862
v -0.00132058561 0.00288124382 0.00409999862
v -0.00100000203 0.00291000307 0.00409999862
v -0.000679418445 0.00288122892 0.00409999862
v -0.000378713012 0.00279657543 0.00409999862
v -9.9375844e-05 0.00265844166 0.00409999862
v 0.000157028437 0.00246925652 0.00409999862
v 0.000389009714 0.00223146379 0.00409999862
v 0.000595003366 0.00194749236 0.00409999862
v 0.000773489475 0.00161977112 0.00409999862
v 0.000922963023 0.00125074387 0.00409999862
v 0.00104187429 0.000842809677 0.00409999862
v 0.00112870336 0.000398427248 0.00409999862
v 0.0011819154 -7.99894333e-05 0.00409999862
v 0.00120000541 -0.000589996576 0.00409999862
v 0.0011819154 -0.00110001862 0.00409999862
v 0.00112870336 -0.0015784204 0.00409999862
v 0.00104187429 -0.00202281773 0.00409999862
v 0.000922963023 -0.00243073702 0.00409999862
v 0.000773489475 -0.00279977918 0.00409999862
v 0.000595003366 -0.00312750041 0.00409999862
v 0.000389009714 -0.00341147184 0.00409999862
v 0.000157028437 -0.00364926457 0.00409999862
v -9.9375844e-05 -0.00383843482 0.00409999862
v -0.000378698111 -0.00397658348 0.00409999862
v -0.000679418445 -0.00406123698 0.00409999862
v -0.00100000203 -0.00408999622 0.00409999862
v -0.00118365884 0.00195997953 0.00409999862
v -0.00135426223 0.00190073252 0.00409999862
v -0.00151124597 0.00180344284 0.00409999862
v -0.0016540736 0.00166925788 0.00409999862
v -0.00178217888 0.00149938464 0.00409999862
v -0.00189499557 0.00129500031 0.00409999862
v -0.00199198723 0.00105728209 0.00409999862
v -0.00207258761 0.00078740716 0.00409999862
v -0.00213624537 0.000486567616 0.00409999862
v -0.00218240917 0.000155925751 0.00409999862
v -0.00221051276 -0.000203326344 0.00409999862
v -0.0022200048 -0.000589996576 0.00409999862
v -0.00221051276 -0.000976681709 0.00409999862
v -0.00218240917 -0.0013359338 0.00409999862
v -0.00213624537 -0.00166656077 0.00409999862
v -0.00207258761 -0.00196741521 0.00409999862
v -0.00199198723 -0.00223727524 0.00409999862
v -0.00189499557 -0.00247500837 0.00409999862
v -0.00178217888 -0.0026793927 0.00409999862
v -0.0016540736 -0.00284926593 0.00409999862
v -0.00151124597 -0.00298343599 0.00409999862
v -0.00135426223 -0.00308074057 0.00409999862
v -0.00118365884 -0.00313998759 0.00409999862
v -0.00100000203 -0.00315999985 0.00409999862
v -0.000816345215 -0.00313998759 0.00409999862
v -0.00064574182 -0.00308074057 0.00409999862
v -0.000488758087 -0.00298343599 0.00409999862
v -0.000345930457 -0.00284926593 0.00409999862
v -0.000217825174 -0.0026793927 0.00409999862
v -0.000105008483 -0.00247500837 0.00409999862
v -8.01682472e-06 -0.00223727524 0.00409999862
v 7.25835562e-05 -0.00196741521 0.00409999862
v 0.000136241317 -0.00166656077 0.00409999862
v 0.000182405114 -0.0013359338 0.00409999862
v 0.000210508704 -0.000976681709 0.00409999862
v 0.000220000744 -0.000589996576 0.00409999862
v 0.000210508704 -0.000203326344 0.00409999862
v 0.000182405114 0.000155925751 0.00409999862
v 0.000136241317 0.000486567616 0.00409999862
v 7.25835562e-05 0.00078740716 0.00409999862
v -8.01682472e-06 0.00105728209 0.00409999862
v -0.000105008483 0.00129500031 0.00409999862
v -0.000217825174 0.00149938464 0.00409999862
v -0.000345930457 0.00166925788 0.00409999862
v -0.000488758087 0.00180344284 0.00409999862
v -0.00064574182 0.00190073252 0.00409999862
v -0.000816345215 0.00195997953 0.00409999862
v -0.00100000203 0.00197999179 0.00409999862
v -0.00132058561 -0.00406123698 0.00409999862
v -0.00132058561 -0.00406123698 0.00450000539
v -0.00162129104 -0.00397658348 0.00409999862
v -0.00162129104 -0.00397658348 0.00450000539
v -0.00190062821 -0.00383843482 0.00409999862
v -0.00190062821 -0.00383843482 0.00450000539
v -0.00215703249 -0.00364926457 0.00409999862
v -0.00215703249 -0.00364926457 0.00450000539
v -0.00238901377 -0.00341147184 0.00409999862
v -0.00238901377 -0.00341147184 0.00450000539
v -0.00259500742 -0.00312750041 0.00409999862
v -0.00259500742 -0.00312750041 0.00450000539
v -0.00277349353 -0.00279977918 0.00409999862
v -0.00277349353 -0.00279977918 0.00450000539
v -0.00292296708 -0.00243073702 0.00409999862
v -0.00292296708 -0.00243073702 0.00450000539
v -0.00304187834 -0.00202281773 0.00409999862
v -0.00304187834 -0.00202281773 0.00450000539
v -0.00312870741 -0.0015784204 0.00409999862
v -0.00312870741 -0.0015784204 0.00450000539
v -0.00318191946 -0.00110001862 0.00409999862
v -0.00318191946 -0.00110001862 0.00450000539
v -0.00319999456 -0.000589996576 0.00409999862
v -0.00319999456 -0.000589996576 0.00450000539
v -0.00318191946 -7.99894333e-05 0.00409999862
v -0.00318191946 -7.99894333e-05 0.00450000539
v -0.00312870741 0.000398427248 0.00409999862
v -0.00312870741 0.000398427248 0.00450000539
v -0.00304187834 0.000842809677 0.00409999862
v -0.00304187834 0.000842809677 0.00450000539
v -0.00292296708 0.00125074387 0.00409999862
v -0.00292296708 0.00125074387 0.00450000539
v -0.00277349353 0.00161977112 0.00409999862
v -0.00277349353 0.00161977112 0.00450000539
v -0.00259500742 0.00194749236 0.00409999862
v -0.00259500742 0.00194749236 0.00450000539
v -0.00238901377 0.00223146379 0.00409999862
v -0.00238901377 0.00223146379 0.00450000539
v -0.00215703249 0.00246925652 0.00409999862
v -0.00215703249 0.00246925652 0.00450000539
v -0.00190062821 0.00265844166 0.00409999862
v -0.00190062821 0.00265844166 0.00450000539
v -0.00162129104 0.00279657543 0.00409999862
v -0.00162129104 0.00279657543 0.00450000539
v -0.00132058561 0.00288124382 0.00409999862
v -0.00132058561 0.00288124382 0.00450000539
v -0.00100000203 0.00291000307 0.00409999862
v -0.00100000203 0.00291000307 0.00450000539
v -0.000679418445 0.00288122892 0.00409999862
v -0.000679418445 0.00288122892 0.00450000539
v -0.000378713012 0.00279657543 0.00409999862
v -0.000378713012 0.00279657543 0.00450000539
v -9.9375844e-05 0.00265844166 0.00409999862
v -9.9375844e-05 0.00265844166 0.00450000539
v 0.000157028437 0.00246925652 0.00409999862
v 0.000157028437 0.00246925652 0.00450000539
v 0.000389009714 0.00223146379 0.00409999862
v 0.000389009714 0.00223146379 0.00450000539
v 0.000595003366 0.00194749236 0.00409999862
v 0.000595003366 0.00194749236 0.00450000539
v 0.000773489475 0.00161977112 0.00409999862
v 0.000773489475 0.00161977112 0.00450000539
v 0.000922963023 0.00125074387 0.00409999862
v 0.000922963023 0.00125074387 0.00450000539
v 0.00104187429 0.000842809677 0.00409999862
v 0.00104187429 0.000842809677 0.00450000539
v 0.00112870336 0.000398427248 0.00409999862
v 0.00112870336 0.000398427248 0.00450000539
v 0.0011819154 -7.99894333e-05 0.00409999862
v 0.0011819154 -7.99894333e-05 0.00450000539
v 0.00120000541 -0.000589996576 0.00409999862
v 0.00120000541 -0.000589996576 0.00450000539
v 0.0011819154 -0.00110001862 0.00409999862
v 0.0011819154 -0.00110001862 0.00450000539
v 0.00112870336 -0.0015784204 0.00409999862
v 0.00112870336 -0.0015784204 0.00450000539
v 0.00104187429 -0.00202281773 0.00409999862
v 0.00104187429 -0.00202281773 0.00450000539
v 0.000922963023 -0.00243073702 0.00409999862
v 0.000922963023 -0.00243073702 0.00450000539
v 0.000773489475 -0.00279977918 0.00409999862
v 0.000773489475 -0.00279977918 0.00450000539
v 0.000595003366 -0.00312750041 0.00409999862
v 0.000595003366 -0.00312750041 0.00450000539
v 0.000389009714 -0.00341147184 0.00409999862
v 0.000389009714 -0.00341147184 0.00450000539
v 0.000157028437 -0.00364926457 0.00409999862
v 0.000157028437 -0.00364926457 0.00450000539
v -9.9375844e-05 -0.00383843482 0.00409999862
v -9.9375844e-05 -0.00383843482 0.00450000539
v -0.000378698111 -0.00397658348 0.00409999862
v -0.000378698111 -0.00397658348 0.00450000539
v -0.000679418445 -0.00406123698 0.00409999862
v -0.000679418445 -0.00406123698 0.00450000539
v -0.00100000203 -0.00408999622 0.00409999862
v -0.00100000203 -0.00408999622 0.00450000539
v -0.00118365884 0.00195997953 0.00409999862
v -0.00118365884 0.00195997953 0.00450000539
v -0.00135426223 0.00190073252 0.00409999862
v -0.00135426223 0.00190073252 0.00450000539
v -0.00151124597 0.00180344284 0.00409999862
v -0.00151124597 0.00180344284 0.00450000539
v -0.0016540736 0.00166925788 0.00409999862
v -0.0016540736 0.00166925788 0.00450000539
v -0.00178217888 0.00149938464 0.00409999862
v -0.00178217888 0.00149938464 0.00450000539
v -0.00189499557 0.00129500031 0.00409999862
v -0.00189499557 0.00129500031 0.00450000539
v -0.00199198723 0.00105728209 0.00409999862
v -0.00199198723 0.00105728209 0.00450000539
v -0.00207258761 0.00078740716 0.00409999862
v -0.00207258761 0.00078740716 0.00450000539
v -0.00213624537 0.000486567616 0.00409999862
v -0.00213624537 0.000486567616 0.00450000539
v -0.00218240917 0.000155925751 0.00409999862
v -0.00218240917 0.000155925751 0.00450000539
v -0.00221051276 -0.000203326344 0.00409999862
v -0.00221051276 -0.000203326344 0.00450000539
v -0.0022200048 -0.000589996576 0.00409999862
v -0.0022200048 -0.000589996576 0.00450000539
v -0.00221051276 -0.000976681709 0.00409999862
v -0.00221051276 -0.000976681709 0.00450000539
v -0.00218240917 -0.0013359338 0.00409999862
v -0.00218240917 -0.0013359338 0.00450000539
v -0.00213624537 -0.00166656077 0.00409999862
v -0.00213624537 -0.00166656077 0.00450000539
v -0.00207258761 -0.00196741521 0.00409999862
v -0.00207258761 -0.00196741521 0.00450000539
v -0.00199198723 -0.00223727524 0.00409999862
v -0.00199198723 -0.00223727524 0.00450000539
v -0.00189499557 -0.00247500837 0.00409999862
v -0.00189499557 -0.00247500837 0.00450000539
v -0.00178217888 -0.0026793927 0.00409999862
v -0.00178217888 -0.0026793927 0.00450000539
v -0.0016540736 -0.00284926593 0.00409999862
v -0.0016540736 -0.00284926593 0.00450000539
v -0.00151124597 -0.00298343599 0.00409999862
v -0.00151124597 -0.00298343599 0.00450000539
v -0.00135426223 -0.00308074057 0.00409999862
v -0.00135426223 -0.00308074057 0.00450000539
v -0.00118365884 -0.00313998759 0.00409999862
v -0.00118365884 -0.00313998759 0.00450000539
v -0.00100000203 -0.00315999985 0.00409999862
v -0.00100000203 -0.00315999985 0.00450000539
v -0.000816345215 -0.00313998759 0.00409999862
v -0.000816345215 -0.00313998759 0.00450000539
v -0.00064574182 -0.00308074057 0.00409999862
v -0.00064574182 -0.00308074057 0.00450000539
v -0.000488758087 -0.00298343599 0.00409999862
v -0.000488758087 -0.00298343599 0.00450000539
v -0.000345930457 -0.00284926593 0.00409999862
v -0.000345930457 -0.00284926593 0.00450000539
v -0.000217825174 -0.0026793927 0.00409999862
v -0.000217825174 -0.0026793927 0.00450000539
v -0.000105008483 -0.00247500837 0.00409999862
v -0.000105008483 -0.00247500837 0.00450000539
v -8.01682472e-06 -0.00223727524 0.00409999862
v -8.01682472e-06 -0.00223727524 0.00450000539
v 7.25835562e-05 -0.00196741521 0.00409999862
v 7.25835562e-05 -0.00196741521 0.00450000539
v 0.000136241317 -0.00166656077 0.00409999862
v 0.000136241317 -0.00166656077 0.00450000539
v 0.000182405114 -0.0013359338 0.00409999862
v 0.000182405114 -0.0013359338 0.00450000539
v 0.000210508704 -0.000976681709 0.00409999862
v 0.000210508704 -0.000976681709 0.00450000539
v 0.000220000744 -0.000589996576 0.00409999862
v 0.000220000744 -0.000589996576 0.00450000539
v 0.000210508704 -0.000203326344 0.00409999862
v 0.000210508704 -0.000203326344 0.00450000539
v 0.000182405114 0.000155925751 0.00409999862
v 0.000182405114 0.000155925751 0.00450000539
v 0.000136241317 0.000486567616 0.00409999862
v 0.000136241317 0.000486567616 0.00450000539
v 7.25835562e-05 0.00078740716 0.00409999862
v 7.25835562e-05 0.00078740716 0.00450000539
v -8.01682472e-06 0.00105728209 0.00409999862
v -8.01682472e-06 0.00105728209 0.00450000539
v -0.000105008483 0.00129500031 0.00409999862
v -0.000105008483 0.00129500031 0.00450000539
v -0.000217825174 0.00149938464 0.00409999862
v -0.000217825174 0.00149938464 0.00450000539
v -0.000345930457 0.00166925788 0.00409999862
v -0.000345930457 0.00166925788 0.00450000539
v -0.000488758087 0.00180344284 0.00409999862
v -0.000488758087 0.00180344284 0.00450000539
v -0.00064574182 0.00190073252 0.00409999862
v -0.00064574182 0.00190073252 0.00450000539
v -0.000816345215 0.00195997953 0.00409999862
v -0.000816345215 0.00195997953 0.00450000539
v -0.00100000203 0.00197999179 0.00409999862
v -0.00100000203 0.00197999179 0.00450000539
usemtl screen_white_text_003
f 175 177 176
f 174 177 175
f 174 178 177
f 173 178 174
f 173 179 178
f 172 179 173
f 172 180 179
f 171 180 172
f 171 181 180
f 170 181 171
f 170 248 181
f 248 182 181
f 170 201 248
f 247 182 248
f 170 202 201
f 246 182 247
f 169 202 170
f 246 183 182
f 169 203 202
f 245 183 246
f 169 204 203
f 244 183 245
f 169 205 204
f 243 183 244
f 168 205 169
f 243 184 183
f 168 206 205
f 242 184 243
f 168 207 206
f 241 184 242
f 167 207 168
f 241 185 184
f 167 208 207
f 240 185 241
f 166 208 167
f 240 186 185
f 166 209 208
f 239 186 240
f 166 210 209
f 238 186 239
f 165 210 166
f 238 187 186
f 165 211 210
f 237 187 238
f 164 211 165
f 237 188 187
f 164 212 211
f 236 188 237
f 163 212 164
f 163 213 212
f 235 188 236
f 235 189 188
f 163 214 213
f 234 189 235
f 234 190 189
f 162 214 163
f 162 215 214
f 233 190 234
f 233 191 190
f 161 215 162
f 161 216 215
f 232 191 233
f 231 191 232
f 161 217 216
f 231 192 191
f 160 217 161
f 230 192 231
f 160 218 217
f 230 193 192
f 159 218 160
f 229 193 230
f 159 219 218
f 228 193 229
f 159 220 219
f 228 194 193
f 158 220 159
f 227 194 228
f 158 221 220
f 226 194 227
f 158 222 221
f 225 194 226
f 158 223 222
f 225 195 194
f 157 223 158
f 224 195 225
f 157 224 223
f 157 195 224
f 156 195 157
f 156 196 195
f 155 196 156
f 155 197 196
f 154 197 155
f 154 198 197
f 153 198 154
f 153 199 198
f 200 199 153
f 271 272 273
f 270 271 273
f 270 273 274
f 269 270 274
f 269 274 275
f 268 269 275
f 268 275 276
f 267 268 276
f 267 276 277
f 266 267 277
f 266 277 344
f 344 277 278
f 266 344 297
f 343 344 278
f 266 297 298
f 342 343 278
f 265 266 298
f 342 278 279
f 265 298 299
f 341 342 279
f 265 299 300
f 340 341 279
f 265 300 301
f 339 340 279
f 264 265 301
f 339 279 280
f 264 301 302
f 338 339 280
f 264 302 303
f 337 338 280
f 263 264 303
f 337 280 281
f 263 303 304
f 336 337 281
f 262 263 304
f 336 281 282
f 262 304 305
f 335 336 282
f 262 305 306
f 334 335 282
f 261 262 306
f 334 282 283
f 261 306 307
f 333 334 283
f 260 261 307
f 333 283 284
f 260 307 308
f 332 333 284
f 259 260 308
f 259 308 309
f 331 332 284
f 331 284 285
f 259 309 310
f 330 331 285
f 330 285 286
f 258 259 310
f 258 310 311
f 329 330 286
f 329 286 287
f 257 258 311
f 257 311 312
f 328 329 287
f 327 328 287
f 257 312 313
f 327 287 288
f 256 257 313
f 326 327 288
f 256 313 314
f 326 288 289
f 255 256 314
f 325 326 289
f 255 314 315
f 324 325 289
f 255 315 316
f 324 289 290
f 254 255 316
f 323 324 290
f 254 316 317
f 322 323 290
f 254 317 318
f 321 322 290
f 254 318 319
f 321 290 291
f 253 254 319
f 320 321 291
f 253 319 320
f 253 320 291
f 252 253 291
f 252 291 292
f 251 252 292
f 251 292 293
f 250 251 293
f 250 293 294
f 249 250 294
f 249 294 295
f 296 249 295
f 346 348 347 345
f 348 350 349 347
f 350 352 351 349
f 352 354 353 351
f 354 356 355 353
f 356 358 357 355
f 358 360 359 357
f 360 362 361 359
f 362 364 363 361
f 364 366 365 363
f 366 368 367 365
f 368 370 369 367
f 370 372 371 369
f 372 374 373 371
f 374 376 375 373
f 376 378 377 375
f 378 380 379 377
f 380 382 381 379
f 382 384 383 381
f 384 386 385 383
f 386 388 387 385
f 388 390 389 387
f 390 392 391 389
f 392 394 393 391
f 394 396 395 393
f 396 398 397 395
f 398 400 399 397
f 400 402 401 399
f 402 404 403 401
f 404 406 405 403
f 406 408 407 405
f 408 410 409 407
f 410 412 411 409
f 412 414 413 411
f 414 416 415 413
f 416 418 417 415
f 418 420 419 417
f 420 422 421 419
f 422 424 423 421
f 424 426 425 423
f 426 428 427 425
f 428 430 429 427
f 430 432 431 429
f 432 434 433 431
f 434 436 435 433
f 436 438 437 435
f 438 440 439 437
f 440 346 345 439
f 442 444 443 441
f 444 446 445 443
f 446 448 447 445
f 448 450 449 447
f 450 452 451 449
f 452 454 453 451
f 454 456 455 453
f 456 458 457 455
f 458 460 459 457
f 460 462 461 459
f 462 464 463 461
f 464 466 465 463
f 466 468 467 465
f 468 470 469 467
f 470 472 471 469
f 472 474 473 471
f 474 476 475 473
f 476 478 477 475
f 478 480 479 477
f 480 482 481 479
f 482 484 483 481
f 484 486 485 483
f 486 488 487 485
f 488 490 489 487
f 490 492 491 489
f 492 494 493 491
f 494 496 495 493
f 496 498 497 495
f 498 500 499 497
f 500 502 501 499
f 502 504 503 501
f 504 506 505 503
f 506 508 507 505
f 508 510 509 507
f 510 512 511 509
f 512 514 513 511
f 514 516 515 513
f 516 518 517 515
f 518 520 519 517
f 520 522 521 519
f 522 524 523 521
f 524 526 525 523
f 526 528 527 525
f 528 530 529 527
f 530 532 531 529
f 532 534 533 531
f 534 536 535 533
f 536 442 441 535
