mtllib keyboard_key_4_0_shift_link.mtl
o keyboard_key_4_0_shift_link

g keyboard_key_4_0_shift_SOLID
v -0.0282250047 -0.0164999999 0
v -0.0282250047 -0.0130000003 -0.00349999964
v -0.0317249894 -0.0130000003 0
v -0.0282250047 -0.0162335783 -0.00133939087
v -0.0282250047 -0.0154748736 -0.00247487426
v -0.0295643806 -0.0162335783 0
v -0.0295979679 -0.0159120392 -0.00137295946
v -0.02952829 -0.0152968913 -0.00229689106
v -0.0302457213 -0.0150207262 -0.00202072784
v -0.0295643806 -0.0130000003 -0.00323357806
v -0.0306998789 -0.0130000003 -0.00247487426
v -0.0282250047 -0.0143393921 -0.00323357806
v -0.0295979679 -0.0143729588 -0.0029120408
v -0.0305218995 -0.0143032968 -0.00229689106
v -0.0314585865 -0.0143393921 0
v -0.0306998789 -0.0154748736 0
v -0.0314585865 -0.0130000003 -0.00133939087
v -0.0311370492 -0.0143729588 -0.00137295946
v -0.0305218995 -0.0152968913 -0.00130329654
v 0.0282250047 -0.0164999999 0
v 0.0317249894 -0.0130000003 0
v 0.0282250047 -0.0130000003 -0.00349999964
v 0.0295643806 -0.0162335783 0
v 0.0306998789 -0.0154748736 0
v 0.0282250047 -0.0162335783 -0.00133939087
v 0.0295979679 -0.0159120392 -0.00137295946
v 0.0305218995 -0.0152968913 -0.00130329654
v 0.0302457213 -0.0150207262 -0.00202072784
v 0.0314585865 -0.0130000003 -0.0013393946
v 0.0306998789 -0.0130000003 -0.00247487426
v 0.0314585865 -0.0143393921 0
v 0.0311370492 -0.0143729588 -0.00137295946
v 0.0305218995 -0.0143032968 -0.00229689106
v 0.0282250047 -0.0143393921 -0.00323357806
v 0.0282250047 -0.0154748736 -0.00247487426
v 0.0295643806 -0.0130000003 -0.00323357806
v 0.0295979679 -0.0143729588 -0.0029120408
v 0.02952829 -0.0152968913 -0.00229689106
v 0.0282250047 0.0164999999 0
v 0.0282250047 0.0130000003 -0.00349999964
v 0.0317249894 0.0130000003 0
v 0.0282250047 0.0162335783 -0.00133939087
v 0.0282250047 0.0154748745 -0.00247487426
v 0.0295643806 0.0162335783 0
v 0.0295979679 0.0159120373 -0.00137295946
v 0.02952829 0.0152968913 -0.00229689106
v 0.0302457213 0.0150207244 -0.00202072784
v 0.0295643806 0.0130000003 -0.00323357806
v 0.0306998789 0.0130000003 -0.00247487426
v 0.0282250047 0.0143393911 -0.00323357806
v 0.0295979679 0.0143729597 -0.0029120408
v 0.0305218995 0.0143032968 -0.00229689106
v 0.0314585865 0.0143393911 0
v 0.0306998789 0.0154748745 0
v 0.0314585865 0.0130000003 -0.00133939087
v 0.0311370492 0.0143729597 -0.00137295946
v 0.0305218995 0.0152968913 -0.00130329654
v -0.0282250047 0.0164999999 0
v -0.0317249894 0.0130000003 0
v -0.0282250047 0.0130000003 -0.00349999964
v -0.0295643806 0.0162335783 0
v -0.0306998789 0.0154748745 0
v -0.0282250047 0.0162335783 -0.00133939087
v -0.0295979679 0.0159120373 -0.00137295946
v -0.0305218995 0.0152968913 -0.00130329654
v -0.0302457213 0.0150207244 -0.00202072784
v -0.0314585865 0.0130000003 -0.0013393946
v -0.0306998789 0.0130000003 -0.00247487426
v -0.0314585865 0.0143393911 0
v -0.0311370492 0.0143729597 -0.00137295946
v -0.0305218995 0.0143032968 -0.00229689106
v -0.0282250047 0.0143393911 -0.00323357806
v -0.0282250047 0.0154748745 -0.00247487426
v -0.0295643806 0.0130000003 -0.00323357806
v -0.0295979679 0.0143729597 -0.0029120408
v -0.02952829 0.0152968913 -0.00229689106
v -0.0317249894 -0.0130000003 0
v -0.0282250047 -0.0130000003 0.00350000337
v -0.0282250047 -0.0164999999 0
v -0.0314585865 -0.0130000003 0.0013393946
v -0.0306998789 -0.0130000003 0.00247487426
v -0.0314585865 -0.0143393921 0
v -0.0311370492 -0.0143729588 0.00137295946
v -0.0305218995 -0.0143032968 0.00229689106
v -0.0302457213 -0.0150207262 0.00202072784
v -0.0282250047 -0.0143393921 0.00323357806
v -0.0282250047 -0.0154748736 0.00247487426
v -0.0295643806 -0.0130000003 0.00323357806
v -0.0295979679 -0.0143729588 0.0029120408
v -0.02952829 -0.0152968913 0.00229689106
v -0.0295643806 -0.0162335783 0
v -0.0306998789 -0.0154748736 0
v -0.0282250047 -0.0162335783 0.00133939087
v -0.0295979679 -0.0159120392 0.00137295946
v -0.0305218995 -0.0152968913 0.00130329654
v 0.0282250047 -0.0164999999 0
v 0.0282250047 -0.0130000003 0.00350000337
v 0.0317249894 -0.0130000003 0
v 0.0282250047 -0.0162335783 0.00133939087
v 0.0282250047 -0.0154748736 0.00247487426
v 0.0295643806 -0.0162335783 0
v 0.0295979679 -0.0159120392 0.00137295946
v 0.02952829 -0.0152968913 0.00229689106
v 0.0302457213 -0.0150207262 0.00202072784
v 0.0295643806 -0.0130000003 0.00323357806
v 0.0306998789 -0.0130000003 0.00247487426
v 0.0282250047 -0.0143393921 0.00323357806
v 0.0295979679 -0.0143729588 0.0029120408
v 0.0305218995 -0.0143032968 0.00229689106
v 0.0314585865 -0.0143393921 0
v 0.0306998789 -0.0154748736 0
v 0.0314585865 -0.0130000003 0.00133939087
v 0.0311370492 -0.0143729588 0.00137295946
v 0.0305218995 -0.0152968913 0.00130329654
v 0.0282250047 0.0130000003 0.00350000337
v 0.0282250047 0.0164999999 0
v 0.0317249894 0.0130000003 0
v 0.0282250047 0.0143393911 0.00323357806
v 0.0282250047 0.0154748745 0.00247487426
v 0.0295643806 0.0130000003 0.00323357806
v 0.0295979679 0.0143729597 0.0029120408
v 0.02952829 0.0152968913 0.00229689106
v 0.0302457213 0.0150207244 0.00202072784
v 0.0295643806 0.0162335783 0
v 0.0306998789 0.0154748745 0
v 0.0282250047 0.0162335783 0.00133939087
v 0.0295979679 0.0159120373 0.00137295946
v 0.0305218995 0.0152968913 0.00130329654
v 0.0314585865 0.0130000003 0.0013393946
v 0.0306998789 0.0130000003 0.00247487426
v 0.0314585865 0.0143393911 0
v 0.0311370492 0.0143729597 0.00137295946
v 0.0305218995 0.0143032968 0.00229689106
v -0.0317249894 0.0130000003 0
v -0.0282250047 0.0164999999 0
v -0.0282250047 0.0130000003 0.00350000337
v -0.0314585865 0.0143393911 0
v -0.0306998789 0.0154748745 0
v -0.0314585865 0.0130000003 0.00133939087
v -0.0311370492 0.0143729597 0.00137295946
v -0.0305218995 0.0152968913 0.00130329654
v -0.0302457213 0.0150207244 0.00202072784
v -0.0282250047 0.0162335783 0.00133939087
v -0.0282250047 0.0154748745 0.00247487426
v -0.0295643806 0.0162335783 0
v -0.0295979679 0.0159120373 0.00137295946
v -0.02952829 0.0152968913 0.00229689106
v -0.0295643806 0.0130000003 0.00323357806
v -0.0306998789 0.0130000003 0.00247487426
v -0.0282250047 0.0143393911 0.00323357806
v -0.0295979679 0.0143729597 0.0029120408
v -0.0305218995 0.0143032968 0.00229689106
usemtl matte_black_keycaps_003
f 59 134 77 3
f 2 22 40 60
f 39 116 135 58
f 78 136 115 97
f 21 98 117 41
f 1 4 7 6
f 4 5 8 7
f 6 7 19 16
f 7 8 9 19
f 2 10 13 12
f 10 11 14 13
f 12 13 8 5
f 13 14 9 8
f 3 15 18 17
f 15 16 19 18
f 17 18 14 11
f 18 19 9 14
f 20 23 26 25
f 23 24 27 26
f 25 26 38 35
f 26 27 28 38
f 21 29 32 31
f 29 30 33 32
f 31 32 27 24
f 32 33 28 27
f 22 34 37 36
f 34 35 38 37
f 36 37 33 30
f 37 38 28 33
f 39 42 45 44
f 42 43 46 45
f 44 45 57 54
f 45 46 47 57
f 40 48 51 50
f 48 49 52 51
f 50 51 46 43
f 51 52 47 46
f 41 53 56 55
f 53 54 57 56
f 55 56 52 49
f 56 57 47 52
f 58 61 64 63
f 61 62 65 64
f 63 64 76 73
f 64 65 66 76
f 59 67 70 69
f 67 68 71 70
f 69 70 65 62
f 70 71 66 65
f 60 72 75 74
f 72 73 76 75
f 74 75 71 68
f 75 76 66 71
f 77 80 83 82
f 80 81 84 83
f 82 83 95 92
f 83 84 85 95
f 78 86 89 88
f 86 87 90 89
f 88 89 84 81
f 89 90 85 84
f 79 91 94 93
f 91 92 95 94
f 93 94 90 87
f 94 95 85 90
f 96 99 102 101
f 99 100 103 102
f 101 102 114 111
f 102 103 104 114
f 97 105 108 107
f 105 106 109 108
f 107 108 103 100
f 108 109 104 103
f 98 110 113 112
f 110 111 114 113
f 112 113 109 106
f 113 114 104 109
f 115 118 121 120
f 118 119 122 121
f 120 121 133 130
f 121 122 123 133
f 116 124 127 126
f 124 125 128 127
f 126 127 122 119
f 127 128 123 122
f 117 129 132 131
f 129 130 133 132
f 131 132 128 125
f 132 133 123 128
f 134 137 140 139
f 137 138 141 140
f 139 140 152 149
f 140 141 142 152
f 135 143 146 145
f 143 144 147 146
f 145 146 141 138
f 146 147 142 141
f 136 148 151 150
f 148 149 152 151
f 150 151 147 144
f 151 152 142 147
f 39 58 63 42
f 42 63 73 43
f 43 73 72 50
f 50 72 60 40
f 1 20 25 4
f 4 25 35 5
f 5 35 34 12
f 12 34 22 2
f 21 41 55 29
f 29 55 49 30
f 30 49 48 36
f 36 48 40 22
f 2 60 74 10
f 10 74 68 11
f 11 68 67 17
f 17 67 59 3
f 3 77 82 15
f 15 82 92 16
f 16 92 91 6
f 6 91 79 1
f 78 97 107 86
f 86 107 100 87
f 87 100 99 93
f 93 99 96 79
f 97 115 120 105
f 105 120 130 106
f 106 130 129 112
f 112 129 117 98
f 77 134 139 80
f 80 139 149 81
f 81 149 148 88
f 88 148 136 78
f 20 96 101 23
f 23 101 111 24
f 24 111 110 31
f 31 110 98 21
f 41 117 131 53
f 53 131 125 54
f 54 125 124 44
f 44 124 116 39
f 115 136 150 118
f 118 150 144 119
f 119 144 143 126
f 126 143 135 116
f 58 135 145 61
f 61 145 138 62
f 62 138 137 69
f 69 137 134 59
f 1 79 96 20

g key_legend_4_0_shift
v 0.0047365129 4.29991633e-05 0.00450000539
v 0.0047365129 -0.000516999513 0.00450000539
v 0.00374251604 -0.000516999513 0.00450000539
v 0.00374251604 -0.0021269992 0.00450000539
v 0.00374785066 -0.00221430138 0.00450000539
v 0.00376304984 -0.00229107961 0.00450000539
v 0.0037869215 -0.00235789083 0.00450000539
v 0.00381821394 -0.00241529569 0.00450000539
v 0.00385573506 -0.00246385485 0.00450000539
v 0.00389826298 -0.00250412524 0.00450000539
v 0.00394457579 -0.00253666565 0.00450000539
v 0.0039934814 -0.00256203674 0.00450000539
v 0.00404372811 -0.0025807973 0.00450000539
v 0.00409412384 -0.00259350426 0.00450000539
v 0.00414347649 -0.00260072015 0.00450000539
v 0.00419050455 -0.00260300003 0.00450000539
v 0.00424668193 -0.00260139629 0.00450000539
v 0.00430315733 -0.00259658322 0.00450000539
v 0.00436004996 -0.00258856267 0.00450000539
v 0.00441735983 -0.00257733278 0.00450000539
v 0.00447517633 -0.00256289542 0.00450000539
v 0.00453349948 -0.00254525058 0.00450000539
v 0.00459244847 -0.0025243964 0.00450000539
v 0.00465199351 -0.00250033289 0.00450000539
v 0.00471222401 -0.0024730619 0.00450000539
v 0.00477319956 -0.00244258344 0.00450000539
v 0.00483494997 -0.00240889564 0.00450000539
v 0.00489750504 -0.00237200037 0.00450000539
v 0.00489750504 -0.00295300037 0.00450000539
v 0.00484094024 -0.00298213027 0.00450000539
v 0.00478026271 -0.00300987437 0.00450000539
v 0.00471639633 -0.0030360166 0.00450000539
v 0.00465017557 -0.00306033343 0.00450000539
v 0.0045825243 -0.00308261067 0.00450000539
v 0.00451427698 -0.00310262479 0.00450000539
v 0.00444629788 -0.00312016159 0.00450000539
v 0.00437951088 -0.00313499942 0.00450000539
v 0.00431475043 -0.00314692222 0.00450000539
v 0.00425294042 -0.00315570831 0.00450000539
v 0.00419488549 -0.00316114165 0.00450000539
v 0.00414150953 -0.00316300057 0.00450000539
v 0.00397875905 -0.00315440819 0.00450000539
v 0.00383004546 -0.00312926434 0.00450000539
v 0.00369536877 -0.00308851525 0.00450000539
v 0.00357475877 -0.00303311087 0.00450000539
v 0.00346827507 -0.00296399929 0.00450000539
v 0.00337588787 -0.00288212486 0.00450000539
v 0.00329765677 -0.00278843939 0.00450000539
v 0.00323358178 -0.00268388912 0.00450000539
v 0.0031837225 -0.00256942213 0.00450000539
v 0.00314804912 -0.00244598649 0.00450000539
v 0.00312665105 -0.00231453031 0.00450000539
v 0.00311949849 -0.00217599981 0.00450000539
v 0.00311949849 -0.000516999513 0.00450000539
v 0.00257351995 -0.000516999513 0.00450000539
v 0.00257351995 -0.000446999446 0.00450000539
v 0.00374251604 0.000693999231 0.00450000539
v 0.00374251604 4.29991633e-05 0.00450000539
v 0.00287008286 0.00107492507 0.00450000539
v 0.00284609199 0.00108373165 0.00450000539
v 0.0028232038 0.00109146908 0.00450000539
v 0.00280115008 0.00109818578 0.00450000539
v 0.0027795434 0.00110393018 0.00450000539
v 0.00275814533 0.0011087507 0.00450000539
v 0.00273656845 0.00111269578 0.00450000539
v 0.00271454453 0.00111581385 0.00450000539
v 0.00269174576 0.00111815706 0.00450000539
v 0.0026678443 0.00111976825 0.00450000539
v 0.00264254212 0.00112069957 0.00450000539
v 0.00261551142 0.00112099946 0.00450000539
v 0.00249654055 0.00111493655 0.00450000539
v 0.00239124894 0.00109698623 0.00450000539
v 0.00229898095 0.00106751546 0.00450000539
v 0.00221911073 0.00102688931 0.00450000539
v 0.00215098262 0.00097547099 0.00450000539
v 0.00209400058 0.000913625583 0.00450000539
v 0.00204753876 0.000841716304 0.00450000539
v 0.0020109117 0.000760111958 0.00450000539
v 0.00198355317 0.000669172034 0.00450000539
v 0.00196477771 0.000569263473 0.00450000539
v 0.00195395947 0.000460751355 0.00450000539
v 0.0019505024 0.000344000757 0.00450000539
v 0.0019505024 4.29991633e-05 0.00450000539
v 0.00251752138 4.29991633e-05 0.00450000539
v 0.00251752138 -0.000516999513 0.00450000539
v 0.0019505024 -0.000516999513 0.00450000539
v 0.0019505024 -0.00310000032 0.00450000539
v 0.00132751465 -0.00310000032 0.00450000539
v 0.00132751465 -0.000516999513 0.00450000539
v 0.000886499882 -0.000516999513 0.00450000539
v 0.000886499882 4.29991633e-05 0.00450000539
v 0.00132751465 4.29991633e-05 0.00450000539
v 0.00132751465 0.000274000689 0.00450000539
v 0.00133055449 0.000421453267 0.00450000539
v 0.00133955479 0.000556463376 0.00450000539
v 0.00135442615 0.00067999959 0.00450000539
v 0.00137495995 0.000793036073 0.00450000539
v 0.00140103698 0.00089654699 0.00450000539
v 0.00143250823 0.000991500914 0.00450000539
v 0.00146922469 0.00107887015 0.00450000539
v 0.00151106715 0.00115962885 0.00450000539
v 0.0015578568 0.00123474933 0.00450000539
v 0.00160944462 0.00130520388 0.00450000539
v 0.0016657114 0.00137196295 0.00450000539
v 0.00172650814 0.00143599883 0.00450000539
v 0.00179496408 0.00149950199 0.00450000539
v 0.00186756253 0.00155668519 0.00450000539
v 0.00194460154 0.0016070623 0.00450000539
v 0.00202646852 0.001650149 0.00450000539
v 0.0021134913 0.00168545544 0.00450000539
v 0.00220602751 0.00171250105 0.00450000539
v 0.00230437517 0.00173079409 0.00450000539
v 0.00240889192 0.00173985213 0.00450000539
v 0.00251990557 0.00173918717 0.00450000539
v 0.00263780355 0.00172831491 0.00450000539
v 0.0027628839 0.00170674734 0.00450000539
v 0.00289550424 0.00167400017 0.00450000539
v 0.00289550424 0.00106500089 0.00450000539
v 1.05798244e-05 0.000627422705 0.00450000539
v -3.74615192e-05 0.000637384132 0.00450000539
v -8.30888748e-05 0.000653421506 0.00450000539
v -0.00012588501 0.000675074756 0.00450000539
v -0.000165373087 0.00070187822 0.00450000539
v -0.000201106071 0.000733375549 0.00450000539
v -0.000232607126 0.000769101083 0.00450000539
v -0.000259399414 0.000808592886 0.00450000539
v -0.000281065702 0.000851390883 0.00450000539
v -0.000297099352 0.00089703314 0.00450000539
v -0.000307053328 0.000945055857 0.00450000539
v -0.000310480595 0.000995000824 0.00450000539
v -0.000307053328 0.00104494393 0.00450000539
v -0.000297099352 0.00109296851 0.00450000539
v -0.000281065702 0.0011386089 0.00450000539
v -0.000259399414 0.0011814069 0.00450000539
v -0.000232607126 0.00122090057 0.00450000539
v -0.000201106071 0.0012566261 0.00450000539
v -0.000165373087 0.00128812157 0.00450000539
v -0.00012588501 0.00131492689 0.00450000539
v -8.30888748e-05 0.00133657828 0.00450000539
v -3.74615192e-05 0.00135261565 0.00450000539
v 1.05798244e-05 0.00136257708 0.00450000539
v 6.04987144e-05 0.00136600062 0.00450000539
v 0.000110447407 0.00136257708 0.00450000539
v 0.00015848875 0.00135261565 0.00450000539
v 0.000204116106 0.00133657828 0.00450000539
v 0.000246912241 0.00131492503 0.00450000539
v 0.000286400318 0.00128812157 0.00450000539
v 0.000322133303 0.00125662424 0.00450000539
v 0.000353634357 0.00122090057 0.00450000539
v 0.000380426645 0.0011814069 0.00450000539
v 0.000402092934 0.0011386089 0.00450000539
v 0.000418126583 0.00109296665 0.00450000539
v 0.000428080559 0.00104494393 0.00450000539
v 0.000431507826 0.000995000824 0.00450000539
v 0.000428080559 0.000945055857 0.00450000539
v 0.000418126583 0.00089703314 0.00450000539
v 0.000402092934 0.000851390883 0.00450000539
v 0.000380426645 0.000808592886 0.00450000539
v 0.000353634357 0.000769099221 0.00450000539
v 0.000322133303 0.000733375549 0.00450000539
v 0.000286400318 0.00070187822 0.00450000539
v 0.000246912241 0.000675074756 0.00450000539
v 0.000204116106 0.000653421506 0.00450000539
v 0.00015848875 0.000637384132 0.00450000539
v 0.000110447407 0.000627422705 0.00450000539
v 6.04987144e-05 0.000623999164 0.00450000539
v -0.000254482031 -0.00310000032 0.00450000539
v -0.000254482031 4.29991633e-05 0.00450000539
v 0.000368505716 4.29991633e-05 0.00450000539
v 0.000368505716 -0.00310000032 0.00450000539
v -0.00314548612 -0.000369999558 0.00450000539
v -0.0030837059 -0.000297402963 0.00450000539
v -0.00301766396 -0.000230226666 0.00450000539
v -0.00294774771 -0.000168640167 0.00450000539
v -0.00287431479 -0.000112814829 0.00450000539
v -0.00279775262 -6.29201531e-05 0.00450000539
v -0.00271847844 -1.91256404e-05 0.00450000539
v -0.00263687968 1.83992088e-05 0.00450000539
v -0.00255334377 4.94811684e-05 0.00450000539
v -0.00246822834 7.39526004e-05 0.00450000539
v -0.00238198042 9.1644004e-05 0.00450000539
v -0.00229492784 0.000102382153 0.00450000539
v -0.00220748782 0.00010599941 0.00450000539
v -0.0020570159 9.72375274e-05 0.00450000539
v -0.00191426277 7.09034503e-05 0.00450000539
v -0.00178027153 2.6922673e-05 0.00450000539
v -0.00165605545 -3.47774476e-05 0.00450000539
v -0.00154259801 -0.000114269555 0.00450000539
v -0.00144100189 -0.000211624429 0.00450000539
v -0.00135219097 -0.000326918438 0.00450000539
v -0.00127726793 -0.000460222363 0.00450000539
v -0.00121721625 -0.000611608848 0.00450000539
v -0.00117304921 -0.000781152397 0.00450000539
v -0.00114580989 -0.000968925655 0.00450000539
v -0.00113648176 -0.0011749994 0.00450000539
v -0.00113648176 -0.00310000032 0.00450000539
v -0.00175949931 -0.00310000032 0.00450000539
v -0.00175949931 -0.00115399994 0.00450000539
v -0.00176438689 -0.00104193576 0.00450000539
v -0.00177887082 -0.00093706511 0.00450000539
v -0.00180259347 -0.000839874148 0.00450000539
v -0.00183519721 -0.000750852749 0.00450000539
v -0.00187635422 -0.000670481473 0.00450000539
v -0.00192573667 -0.000599250197 0.00450000539
v -0.00198298693 -0.000537643209 0.00450000539
v -0.00204777718 -0.000486148521 0.00450000539
v -0.00211977959 -0.000445250422 0.00450000539
v -0.00219860673 -0.000415435061 0.00450000539
v -0.00228396058 -0.000397190452 0.00450000539
v -0.00237548351 -0.000391000882 0.00450000539
v -0.00244265795 -0.000393670052 0.00450000539
v -0.00250792503 -0.000401856378 0.00450000539
v -0.00257182121 -0.000415828079 0.00450000539
v -0.00263473392 -0.000435851514 0.00450000539
v -0.00269719958 -0.000462194905 0.00450000539
v -0.00275960565 -0.000495124608 0.00450000539
v -0.00282245874 -0.000534908846 0.00450000539
v -0.00288623571 -0.000581813976 0.00450000539
v -0.00295135379 -0.000636110082 0.00450000539
v -0.0030182898 -0.000698059797 0.00450000539
v -0.0030875206 -0.000767935067 0.00450000539
v -0.00315949321 -0.000846000388 0.00450000539
v -0.00315949321 -0.00310000032 0.00450000539
v -0.00378248096 -0.00310000032 0.00450000539
v -0.00378248096 0.00167400017 0.00450000539
v -0.00315949321 0.00167400017 0.00450000539
v -0.00315949321 -0.000369999558 0.00450000539
v -0.00472351909 -0.000714000314 0.00450000539
v -0.00480937958 -0.000664422289 0.00450000539
v -0.00489383936 -0.000620141625 0.00450000539
v -0.00497663021 -0.000581037253 0.00450000539
v -0.00505748391 -0.000546989962 0.00450000539
v -0.00513610244 -0.000517874956 0.00450000539
v -0.00521227717 -0.000493573025 0.00450000539
v -0.00528568029 -0.000473963097 0.00450000539
v -0.00535607338 -0.000458922237 0.00450000539
v -0.00542318821 -0.000448329374 0.00450000539
v -0.00548672676 -0.000442061573 0.00450000539
v -0.00554648042 -0.000439999625 0.00450000539
v -0.00560754538 -0.000442437828 0.00450000539
v -0.00566458702 -0.000449592248 0.00450000539
v -0.00571733713 -0.000461218879 0.00450000539
v -0.00576555729 -0.000477073714 0.00450000539
v -0.00580903888 -0.000496916473 0.00450000539
v -0.00584748387 -0.000520499423 0.00450000539
v -0.00588068366 -0.000547584146 0.00450000539
v -0.00590839982 -0.000577926636 0.00450000539
v -0.00593039393 -0.000611281022 0.00450000539
v -0.00594639778 -0.000647407025 0.00450000539
v -0.00595617294 -0.000686060637 0.00450000539
v -0.005959481 -0.000726999715 0.00450000539
v -0.00595504045 -0.000762656331 0.00450000539
v -0.00594136119 -0.000799916685 0.00450000539
v -0.00591802597 -0.000839218497 0.00450000539
v -0.00588455796 -0.000880999491 0.00450000539
v -0.00584048033 -0.000925697386 0.00450000539
v -0.00578537583 -0.000973749906 0.00450000539
v -0.00571870804 -0.00102559477 0.00450000539
v -0.00564008951 -0.00108166598 0.00450000539
v -0.00554901361 -0.00114240684 0.00450000539
v -0.00544503331 -0.00120824948 0.00450000539
v -0.00532767177 -0.00127963535 0.00450000539
v -0.00519648194 -0.00135700032 0.00450000539
v -0.00507375598 -0.0014402587 0.00450000539
v -0.00496426225 -0.00151906908 0.00450000539
v -0.00486749411 -0.00159423426 0.00450000539
v -0.00478297472 -0.00166655518 0.00450000539
v -0.00471022725 -0.00173683465 0.00450000539
v -0.00464874506 -0.00180587545 0.00450000539
v -0.00459805131 -0.00187447667 0.00450000539
v -0.00455766916 -0.00194344483 0.00450000539
v -0.00452712178 -0.00201357901 0.00450000539
v -0.00450587273 -0.00208568014 0.00450000539
v -0.00449350476 -0.00216055475 0.00450000539
v -0.00448948145 -0.00223900005 0.00450000539
v -0.00449851155 -0.00237334892 0.00450000539
v -0.00452491641 -0.00249945931 0.00450000539
v -0.00456768274 -0.00261667185 0.00450000539
v -0.00462585688 -0.0027243346 0.00450000539
v -0.00469842553 -0.00282178633 0.00450000539
v -0.00478437543 -0.00290837511 0.00450000539
v -0.00488269329 -0.00298344344 0.00450000539
v -0.00499245524 -0.00304633379 0.00450000539
v -0.00511258841 -0.00309639052 0.00450000539
v -0.0052421391 -0.00313295797 0.00450000539
v -0.00538012385 -0.00315538049 0.00450000539
v -0.00552549958 -0.00316300057 0.00450000539
v -0.00562009215 -0.0031613633 0.00450000539
v -0.0057118535 -0.00315632485 0.00450000539
v -0.00580143929 -0.00314768776 0.00450000539
v -0.00588947535 -0.00313526019 0.00450000539
v -0.00597664714 -0.0031188447 0.00450000539
v -0.00606361032 -0.00309824944 0.00450000539
v -0.00615099072 -0.00307328068 0.00450000539
v -0.00623947382 -0.00304374099 0.00450000539
v -0.00632971525 -0.00300943851 0.00450000539
v -0.00642237067 -0.00297017582 0.00450000539
v -0.00651806593 -0.00292576104 0.00450000539
v -0.00661748648 -0.00287600048 0.00450000539
v -0.00661748648 -0.00220400095 0.00450000539
v -0.00651675463 -0.00227094628 0.00450000539
v -0.00641778111 -0.00233181566 0.00450000539
v -0.00632086396 -0.00238665566 0.00450000539
v -0.00622627139 -0.00243551843 0.00450000539
v -0.00613430142 -0.00247845054 0.00450000539
v -0.00604525208 -0.00251550041 0.00450000539
v -0.00595939159 -0.00254671648 0.00450000539
v -0.00587704778 -0.00257214904 0.00450000539
v -0.00579848886 -0.00259184465 0.00450000539
v -0.00572401285 -0.00260585174 0.00450000539
v -0.00565391779 -0.0026142206 0.00450000539
v -0.00558850169 -0.00261699967 0.00450000539
v -0.00552645326 -0.00261131302 0.00450000539
v -0.0054667592 -0.00260125101 0.00450000539
v -0.00540998578 -0.00258681178 0.00450000539
v -0.00535669923 -0.00256800093 0.00450000539
v -0.0053075254 -0.00254481286 0.00450000539
v -0.00526300073 -0.00251724944 0.00450000539
v -0.00522372127 -0.00248531252 0.00450000539
v -0.00519025326 -0.00244900025 0.00450000539
v -0.00516322255 -0.00240831263 0.00450000539
v -0.00514319539 -0.00236324966 0.00450000539
v -0.00513076782 -0.00231381319 0.00450000539
v -0.00512647629 -0.00225999951 0.00450000539
v -0.00515541434 -0.00215525553 0.00450000539
v -0.00523537397 -0.00205612555 0.00450000539
v -0.00535616279 -0.00195976533 0.00450000539
v -0.00550758839 -0.00186333433 0.00450000539
v -0.00567942858 -0.00176398456 0.00450000539
v -0.00586149096 -0.0016588755 0.00450000539
v -0.00604352355 -0.00154516101 0.00450000539
v -0.00621536374 -0.00142000057 0.00450000539
v -0.00636678934 -0.00128054619 0.00450000539
v -0.00648760796 -0.0011239592 0.00450000539
v -0.00656756759 -0.000947391614 0.00450000539
v -0.00659647584 -0.000747999176 0.00450000539
v -0.00658813119 -0.000619439408 0.00450000539
v -0.00656348467 -0.000500017777 0.00450000539
v -0.00652319193 -0.000390125439 0.00450000539
v -0.00646790862 -0.00029014796 0.00450000539
v -0.00639820099 -0.000200476497 0.00450000539
v -0.00631472468 -0.000121500343 0.00450000539
v -0.00621816516 -5.36069274e-05 0.00450000539
v -0.00610908866 2.81445682e-06 0.00450000539
v -0.00598815084 4.73745167e-05 0.00450000539
v -0.00585597754 7.96858221e-05 0.00450000539
v -0.00571322441 9.93572176e-05 0.00450000539
v -0.00556048751 0.00010599941 0.00450000539
v -0.00548681617 0.000104246661 0.00450000539
v -0.005412817 9.89679247e-05 0.00450000539
v -0.005338341 9.01408494e-05 0.00450000539
v -0.00526338816 7.77412206e-05 0.00450000539
v -0.00518780947 6.17429614e-05 0.00450000539
v -0.00511160493 4.21255827e-05 0.00450000539
v -0.00503468513 1.88611448e-05 0.00450000539
v -0.00495693088 -8.07456672e-06 0.00450000539
v -0.00487831235 -3.87039036e-05 0.00450000539
v -0.00479874015 -7.30510801e-05 0.00450000539
v -0.00471815467 -0.000111142173 0.00450000539
v -0.00463649631 -0.000152999535 0.00450000539
v -0.00463649631 -0.0007690005 0.00450000539
v 0.0047365129 4.29991633e-05 0.00409999862
v 0.0047365129 -0.000516999513 0.00409999862
v 0.00374251604 -0.000516999513 0.00409999862
v 0.00374251604 -0.0021269992 0.00409999862
v 0.00374785066 -0.00221430138 0.00409999862
v 0.00376304984 -0.00229107961 0.00409999862
v 0.0037869215 -0.00235789083 0.00409999862
v 0.00381821394 -0.00241529569 0.00409999862
v 0.00385573506 -0.00246385485 0.00409999862
v 0.00389826298 -0.00250412524 0.00409999862
v 0.00394457579 -0.00253666565 0.00409999862
v 0.0039934814 -0.00256203674 0.00409999862
v 0.00404372811 -0.0025807973 0.00409999862
v 0.00409412384 -0.00259350426 0.00409999862
v 0.00414347649 -0.00260072015 0.00409999862
v 0.00419050455 -0.00260300003 0.00409999862
v 0.00424668193 -0.00260139629 0.00409999862
v 0.00430315733 -0.00259658322 0.00409999862
v 0.00436004996 -0.00258856267 0.00409999862
v 0.00441735983 -0.00257733278 0.00409999862
v 0.00447517633 -0.00256289542 0.00409999862
v 0.00453349948 -0.00254525058 0.00409999862
v 0.00459244847 -0.0025243964 0.00409999862
v 0.00465199351 -0.00250033289 0.00409999862
v 0.00471222401 -0.0024730619 0.00409999862
v 0.00477319956 -0.00244258344 0.00409999862
v 0.00483494997 -0.00240889564 0.00409999862
v 0.00489750504 -0.00237200037 0.00409999862
v 0.00489750504 -0.00295300037 0.00409999862
v 0.00484094024 -0.00298213027 0.00409999862
v 0.00478026271 -0.00300987437 0.00409999862
v 0.00471639633 -0.0030360166 0.00409999862
v 0.00465017557 -0.00306033343 0.00409999862
v 0.0045825243 -0.00308261067 0.00409999862
v 0.00451427698 -0.00310262479 0.00409999862
v 0.00444629788 -0.00312016159 0.00409999862
v 0.00437951088 -0.00313499942 0.00409999862
v 0.00431475043 -0.00314692222 0.00409999862
v 0.00425294042 -0.00315570831 0.00409999862
v 0.00419488549 -0.00316114165 0.00409999862
v 0.00414150953 -0.00316300057 0.00409999862
v 0.00397875905 -0.00315440819 0.00409999862
v 0.00383004546 -0.00312926434 0.00409999862
v 0.00369536877 -0.00308851525 0.00409999862
v 0.00357475877 -0.00303311087 0.00409999862
v 0.00346827507 -0.00296399929 0.00409999862
v 0.00337588787 -0.00288212486 0.00409999862
v 0.00329765677 -0.00278843939 0.00409999862
v 0.00323358178 -0.00268388912 0.00409999862
v 0.0031837225 -0.00256942213 0.00409999862
v 0.00314804912 -0.00244598649 0.00409999862
v 0.00312665105 -0.00231453031 0.00409999862
v 0.00311949849 -0.00217599981 0.00409999862
v 0.00311949849 -0.000516999513 0.00409999862
v 0.00257351995 -0.000516999513 0.00409999862
v 0.00257351995 -0.000446999446 0.00409999862
v 0.00374251604 0.000693999231 0.00409999862
v 0.00374251604 4.29991633e-05 0.00409999862
v 0.00287008286 0.00107492507 0.00409999862
v 0.00284609199 0.00108373165 0.00409999862
v 0.0028232038 0.00109146908 0.00409999862
v 0.00280115008 0.00109818578 0.00409999862
v 0.0027795434 0.00110393018 0.00409999862
v 0.00275814533 0.0011087507 0.00409999862
v 0.00273656845 0.00111269578 0.00409999862
v 0.00271454453 0.00111581385 0.00409999862
v 0.00269174576 0.00111815706 0.00409999862
v 0.0026678443 0.00111976825 0.00409999862
v 0.00264254212 0.00112069957 0.00409999862
v 0.00261551142 0.00112099946 0.00409999862
v 0.00249654055 0.00111493655 0.00409999862
v 0.00239124894 0.00109698623 0.00409999862
v 0.00229898095 0.00106751546 0.00409999862
v 0.00221911073 0.00102688931 0.00409999862
v 0.00215098262 0.00097547099 0.00409999862
v 0.00209400058 0.000913625583 0.00409999862
v 0.00204753876 0.000841716304 0.00409999862
v 0.0020109117 0.000760111958 0.00409999862
v 0.00198355317 0.000669172034 0.00409999862
v 0.00196477771 0.000569263473 0.00409999862
v 0.00195395947 0.000460751355 0.00409999862
v 0.0019505024 0.000344000757 0.00409999862
v 0.0019505024 4.29991633e-05 0.00409999862
v 0.00251752138 4.29991633e-05 0.00409999862
v 0.00251752138 -0.000516999513 0.00409999862
v 0.0019505024 -0.000516999513 0.00409999862
v 0.0019505024 -0.00310000032 0.00409999862
v 0.00132751465 -0.00310000032 0.00409999862
v 0.00132751465 -0.000516999513 0.00409999862
v 0.000886499882 -0.000516999513 0.00409999862
v 0.000886499882 4.29991633e-05 0.00409999862
v 0.00132751465 4.29991633e-05 0.00409999862
v 0.00132751465 0.000274000689 0.00409999862
v 0.00133055449 0.000421453267 0.00409999862
v 0.00133955479 0.000556463376 0.00409999862
v 0.00135442615 0.00067999959 0.00409999862
v 0.00137495995 0.000793036073 0.00409999862
v 0.00140103698 0.00089654699 0.00409999862
v 0.00143250823 0.000991500914 0.00409999862
v 0.00146922469 0.00107887015 0.00409999862
v 0.00151106715 0.00115962885 0.00409999862
v 0.0015578568 0.00123474933 0.00409999862
v 0.00160944462 0.00130520388 0.00409999862
v 0.0016657114 0.00137196295 0.00409999862
v 0.00172650814 0.00143599883 0.00409999862
v 0.00179496408 0.00149950199 0.00409999862
v 0.00186756253 0.00155668519 0.00409999862
v 0.00194460154 0.0016070623 0.00409999862
v 0.00202646852 0.001650149 0.00409999862
v 0.0021134913 0.00168545544 0.00409999862
v 0.00220602751 0.00171250105 0.00409999862
v 0.00230437517 0.00173079409 0.00409999862
v 0.00240889192 0.00173985213 0.00409999862
v 0.00251990557 0.00173918717 0.00409999862
v 0.00263780355 0.00172831491 0.00409999862
v 0.0027628839 0.00170674734 0.00409999862
v 0.00289550424 0.00167400017 0.00409999862
v 0.00289550424 0.00106500089 0.00409999862
v 1.05798244e-05 0.000627422705 0.00409999862
v -3.74615192e-05 0.000637384132 0.00409999862
v -8.30888748e-05 0.000653421506 0.00409999862
v -0.00012588501 0.000675074756 0.00409999862
v -0.000165373087 0.00070187822 0.00409999862
v -0.000201106071 0.000733375549 0.00409999862
v -0.000232607126 0.000769101083 0.00409999862
v -0.000259399414 0.000808592886 0.00409999862
v -0.000281065702 0.000851390883 0.00409999862
v -0.000297099352 0.00089703314 0.00409999862
v -0.000307053328 0.000945055857 0.00409999862
v -0.000310480595 0.000995000824 0.00409999862
v -0.000307053328 0.00104494393 0.00409999862
v -0.000297099352 0.00109296851 0.00409999862
v -0.000281065702 0.0011386089 0.00409999862
v -0.000259399414 0.0011814069 0.00409999862
v -0.000232607126 0.00122090057 0.00409999862
v -0.000201106071 0.0012566261 0.00409999862
v -0.000165373087 0.00128812157 0.00409999862
v -0.00012588501 0.00131492689 0.00409999862
v -8.30888748e-05 0.00133657828 0.00409999862
v -3.74615192e-05 0.00135261565 0.00409999862
v 1.05798244e-05 0.00136257708 0.00409999862
v 6.04987144e-05 0.00136600062 0.00409999862
v 0.000110447407 0.00136257708 0.00409999862
v 0.00015848875 0.00135261565 0.00409999862
v 0.000204116106 0.00133657828 0.00409999862
v 0.000246912241 0.00131492503 0.00409999862
v 0.000286400318 0.00128812157 0.00409999862
v 0.000322133303 0.00125662424 0.00409999862
v 0.000353634357 0.00122090057 0.00409999862
v 0.000380426645 0.0011814069 0.00409999862
v 0.000402092934 0.0011386089 0.00409999862
v 0.000418126583 0.00109296665 0.00409999862
v 0.000428080559 0.00104494393 0.00409999862
v 0.000431507826 0.000995000824 0.00409999862
v 0.000428080559 0.000945055857 0.00409999862
v 0.000418126583 0.00089703314 0.00409999862
v 0.000402092934 0.000851390883 0.00409999862
v 0.000380426645 0.000808592886 0.00409999862
v 0.000353634357 0.000769099221 0.00409999862
v 0.000322133303 0.000733375549 0.00409999862
v 0.000286400318 0.00070187822 0.00409999862
v 0.000246912241 0.000675074756 0.00409999862
v 0.000204116106 0.000653421506 0.00409999862
v 0.00015848875 0.000637384132 0.00409999862
v 0.000110447407 0.000627422705 0.00409999862
v 6.04987144e-05 0.000623999164 0.00409999862
v -0.000254482031 -0.00310000032 0.00409999862
v -0.000254482031 4.29991633e-05 0.00409999862
v 0.000368505716 4.29991633e-05 0.00409999862
v 0.000368505716 -0.00310000032 0.00409999862
v -0.00314548612 -0.000369999558 0.00409999862
v -0.0030837059 -0.000297402963 0.00409999862
v -0.00301766396 -0.000230226666 0.00409999862
v -0.00294774771 -0.000168640167 0.00409999862
v -0.00287431479 -0.000112814829 0.00409999862
v -0.00279775262 -6.29201531e-05 0.00409999862
v -0.00271847844 -1.91256404e-05 0.00409999862
v -0.00263687968 1.83992088e-05 0.00409999862
v -0.00255334377 4.94811684e-05 0.00409999862
v -0.00246822834 7.39526004e-05 0.00409999862
v -0.00238198042 9.1644004e-05 0.00409999862
v -0.00229492784 0.000102382153 0.00409999862
v -0.00220748782 0.00010599941 0.00409999862
v -0.0020570159 9.72375274e-05 0.00409999862
v -0.00191426277 7.09034503e-05 0.00409999862
v -0.00178027153 2.6922673e-05 0.00409999862
v -0.00165605545 -3.47774476e-05 0.00409999862
v -0.00154259801 -0.000114269555 0.00409999862
v -0.00144100189 -0.000211624429 0.00409999862
v -0.00135219097 -0.000326918438 0.00409999862
v -0.00127726793 -0.000460222363 0.00409999862
v -0.00121721625 -0.000611608848 0.00409999862
v -0.00117304921 -0.000781152397 0.00409999862
v -0.00114580989 -0.000968925655 0.00409999862
v -0.00113648176 -0.0011749994 0.00409999862
v -0.00113648176 -0.00310000032 0.00409999862
v -0.00175949931 -0.00310000032 0.00409999862
v -0.00175949931 -0.00115399994 0.00409999862
v -0.00176438689 -0.00104193576 0.00409999862
v -0.00177887082 -0.00093706511 0.00409999862
v -0.00180259347 -0.000839874148 0.00409999862
v -0.00183519721 -0.000750852749 0.00409999862
v -0.00187635422 -0.000670481473 0.00409999862
v -0.00192573667 -0.000599250197 0.00409999862
v -0.00198298693 -0.000537643209 0.00409999862
v -0.00204777718 -0.000486148521 0.00409999862
v -0.00211977959 -0.000445250422 0.00409999862
v -0.00219860673 -0.000415435061 0.00409999862
v -0.00228396058 -0.000397190452 0.00409999862
v -0.00237548351 -0.000391000882 0.00409999862
v -0.00244265795 -0.000393670052 0.00409999862
v -0.00250792503 -0.000401856378 0.00409999862
v -0.00257182121 -0.000415828079 0.00409999862
v -0.00263473392 -0.000435851514 0.00409999862
v -0.00269719958 -0.000462194905 0.00409999862
v -0.00275960565 -0.000495124608 0.00409999862
v -0.00282245874 -0.000534908846 0.00409999862
v -0.00288623571 -0.000581813976 0.00409999862
v -0.00295135379 -0.000636110082 0.00409999862
v -0.0030182898 -0.000698059797 0.00409999862
v -0.0030875206 -0.000767935067 0.00409999862
v -0.00315949321 -0.000846000388 0.00409999862
v -0.00315949321 -0.00310000032 0.00409999862
v -0.00378248096 -0.00310000032 0.00409999862
v -0.00378248096 0.00167400017 0.00409999862
v -0.00315949321 0.00167400017 0.00409999862
v -0.00315949321 -0.000369999558 0.00409999862
v -0.00472351909 -0.000714000314 0.00409999862
v -0.00480937958 -0.000664422289 0.00409999862
v -0.00489383936 -0.000620141625 0.00409999862
v -0.00497663021 -0.000581037253 0.00409999862
v -0.00505748391 -0.000546989962 0.00409999862
v -0.00513610244 -0.000517874956 0.00409999862
v -0.00521227717 -0.000493573025 0.00409999862
v -0.00528568029 -0.000473963097 0.00409999862
v -0.00535607338 -0.000458922237 0.00409999862
v -0.00542318821 -0.000448329374 0.00409999862
v -0.00548672676 -0.000442061573 0.00409999862
v -0.00554648042 -0.000439999625 0.00409999862
v -0.00560754538 -0.000442437828 0.00409999862
v -0.00566458702 -0.000449592248 0.00409999862
v -0.00571733713 -0.000461218879 0.00409999862
v -0.00576555729 -0.000477073714 0.00409999862
v -0.00580903888 -0.000496916473 0.00409999862
v -0.00584748387 -0.000520499423 0.00409999862
v -0.00588068366 -0.000547584146 0.00409999862
v -0.00590839982 -0.000577926636 0.00409999862
v -0.00593039393 -0.000611281022 0.00409999862
v -0.00594639778 -0.000647407025 0.00409999862
v -0.00595617294 -0.000686060637 0.00409999862
v -0.005959481 -0.000726999715 0.00409999862
v -0.00595504045 -0.000762656331 0.00409999862
v -0.00594136119 -0.000799916685 0.00409999862
v -0.00591802597 -0.000839218497 0.00409999862
v -0.00588455796 -0.000880999491 0.00409999862
v -0.00584048033 -0.000925697386 0.00409999862
v -0.00578537583 -0.000973749906 0.00409999862
v -0.00571870804 -0.00102559477 0.00409999862
v -0.00564008951 -0.00108166598 0.00409999862
v -0.00554901361 -0.00114240684 0.00409999862
v -0.00544503331 -0.00120824948 0.00409999862
v -0.00532767177 -0.00127963535 0.00409999862
v -0.00519648194 -0.00135700032 0.00409999862
v -0.00507375598 -0.0014402587 0.00409999862
v -0.00496426225 -0.00151906908 0.00409999862
v -0.00486749411 -0.00159423426 0.00409999862
v -0.00478297472 -0.00166655518 0.00409999862
v -0.00471022725 -0.00173683465 0.00409999862
v -0.00464874506 -0.00180587545 0.00409999862
v -0.00459805131 -0.00187447667 0.00409999862
v -0.00455766916 -0.00194344483 0.00409999862
v -0.00452712178 -0.00201357901 0.00409999862
v -0.00450587273 -0.00208568014 0.00409999862
v -0.00449350476 -0.00216055475 0.00409999862
v -0.00448948145 -0.00223900005 0.00409999862
v -0.00449851155 -0.00237334892 0.00409999862
v -0.00452491641 -0.00249945931 0.00409999862
v -0.00456768274 -0.00261667185 0.00409999862
v -0.00462585688 -0.0027243346 0.00409999862
v -0.00469842553 -0.00282178633 0.00409999862
v -0.00478437543 -0.00290837511 0.00409999862
v -0.00488269329 -0.00298344344 0.00409999862
v -0.00499245524 -0.00304633379 0.00409999862
v -0.00511258841 -0.00309639052 0.00409999862
v -0.0052421391 -0.00313295797 0.00409999862
v -0.00538012385 -0.00315538049 0.00409999862
v -0.00552549958 -0.00316300057 0.00409999862
v -0.00562009215 -0.0031613633 0.00409999862
v -0.0057118535 -0.00315632485 0.00409999862
v -0.00580143929 -0.00314768776 0.00409999862
v -0.00588947535 -0.00313526019 0.00409999862
v -0.00597664714 -0.0031188447 0.00409999862
v -0.00606361032 -0.00309824944 0.00409999862
v -0.00615099072 -0.00307328068 0.00409999862
v -0.00623947382 -0.00304374099 0.00409999862
v -0.00632971525 -0.00300943851 0.00409999862
v -0.00642237067 -0.00297017582 0.00409999862
v -0.00651806593 -0.00292576104 0.00409999862
v -0.00661748648 -0.00287600048 0.00409999862
v -0.00661748648 -0.00220400095 0.00409999862
v -0.00651675463 -0.00227094628 0.00409999862
v -0.00641778111 -0.00233181566 0.00409999862
v -0.00632086396 -0.00238665566 0.00409999862
v -0.00622627139 -0.00243551843 0.00409999862
v -0.00613430142 -0.00247845054 0.00409999862
v -0.00604525208 -0.00251550041 0.00409999862
v -0.00595939159 -0.00254671648 0.00409999862
v -0.00587704778 -0.00257214904 0.00409999862
v -0.00579848886 -0.00259184465 0.00409999862
v -0.00572401285 -0.00260585174 0.00409999862
v -0.00565391779 -0.0026142206 0.00409999862
v -0.00558850169 -0.00261699967 0.00409999862
v -0.00552645326 -0.00261131302 0.00409999862
v -0.0054667592 -0.00260125101 0.00409999862
v -0.00540998578 -0.00258681178 0.00409999862
v -0.00535669923 -0.00256800093 0.00409999862
v -0.0053075254 -0.00254481286 0.00409999862
v -0.00526300073 -0.00251724944 0.00409999862
v -0.00522372127 -0.00248531252 0.00409999862
v -0.00519025326 -0.00244900025 0.00409999862
v -0.00516322255 -0.00240831263 0.00409999862
v -0.00514319539 -0.00236324966 0.00409999862
v -0.00513076782 -0.00231381319 0.00409999862
v -0.00512647629 -0.00225999951 0.00409999862
v -0.00515541434 -0.00215525553 0.00409999862
v -0.00523537397 -0.00205612555 0.00409999862
v -0.00535616279 -0.00195976533 0.00409999862
v -0.00550758839 -0.00186333433 0.00409999862
v -0.00567942858 -0.00176398456 0.00409999862
v -0.00586149096 -0.0016588755 0.00409999862
v -0.00604352355 -0.00154516101 0.00409999862
v -0.00621536374 -0.00142000057 0.00409999862
v -0.00636678934 -0.00128054619 0.00409999862
v -0.00648760796 -0.0011239592 0.00409999862
v -0.00656756759 -0.000947391614 0.00409999862
v -0.00659647584 -0.000747999176 0.00409999862
v -0.00658813119 -0.000619439408 0.00409999862
v -0.00656348467 -0.000500017777 0.00409999862
v -0.00652319193 -0.000390125439 0.00409999862
v -0.00646790862 -0.00029014796 0.00409999862
v -0.00639820099 -0.000200476497 0.00409999862
v -0.00631472468 -0.000121500343 0.00409999862
v -0.00621816516 -5.36069274e-05 0.00409999862
v -0.00610908866 2.81445682e-06 0.00409999862
v -0.00598815084 4.73745167e-05 0.00409999862
v -0.00585597754 7.96858221e-05 0.00409999862
v -0.00571322441 9.93572176e-05 0.00409999862
v -0.00556048751 0.00010599941 0.00409999862
v -0.00548681617 0.000104246661 0.00409999862
v -0.005412817 9.89679247e-05 0.00409999862
v -0.005338341 9.01408494e-05 0.00409999862
v -0.00526338816 7.77412206e-05 0.00409999862
v -0.00518780947 6.17429614e-05 0.00409999862
v -0.00511160493 4.21255827e-05 0.00409999862
v -0.00503468513 1.88611448e-05 0.00409999862
v -0.00495693088 -8.07456672e-06 0.00409999862
v -0.00487831235 -3.87039036e-05 0.00409999862
v -0.00479874015 -7.30510801e-05 0.00409999862
v -0.00471815467 -0.000111142173 0.00409999862
v -0.00463649631 -0.000152999535 0.00409999862
v -0.00463649631 -0.0007690005 0.00409999862
v -0.00472351909 -0.000714000314 0.00409999862
v -0.00472351909 -0.000714000314 0.00450000539
v -0.00480937958 -0.000664422289 0.00409999862
v -0.00480937958 -0.000664422289 0.00450000539
v -0.00489383936 -0.000620141625 0.00409999862
v -0.00489383936 -0.000620141625 0.00450000539
v -0.00497663021 -0.000581037253 0.00409999862
v -0.00497663021 -0.000581037253 0.00450000539
v -0.00505748391 -0.000546989962 0.00409999862
v -0.00505748391 -0.000546989962 0.00450000539
v -0.00513610244 -0.000517874956 0.00409999862
v -0.00513610244 -0.000517874956 0.00450000539
v -0.00521227717 -0.000493573025 0.00409999862
v -0.00521227717 -0.000493573025 0.00450000539
v -0.00528568029 -0.000473963097 0.00409999862
v -0.00528568029 -0.000473963097 0.00450000539
v -0.00535607338 -0.000458922237 0.00409999862
v -0.00535607338 -0.000458922237 0.00450000539
v -0.00542318821 -0.000448329374 0.00409999862
v -0.00542318821 -0.000448329374 0.00450000539
v -0.00548672676 -0.000442061573 0.00409999862
v -0.00548672676 -0.000442061573 0.00450000539
v -0.00554648042 -0.000439999625 0.00409999862
v -0.00554648042 -0.000439999625 0.00450000539
v -0.00560754538 -0.000442437828 0.00409999862
v -0.00560754538 -0.000442437828 0.00450000539
v -0.00566458702 -0.000449592248 0.00409999862
v -0.00566458702 -0.000449592248 0.00450000539
v -0.00571733713 -0.000461218879 0.00409999862
v -0.00571733713 -0.000461218879 0.00450000539
v -0.00576555729 -0.000477073714 0.00409999862
v -0.00576555729 -0.000477073714 0.00450000539
v -0.00580903888 -0.000496916473 0.00409999862
v -0.00580903888 -0.000496916473 0.00450000539
v -0.00584748387 -0.000520499423 0.00409999862
v -0.00584748387 -0.000520499423 0.00450000539
v -0.00588068366 -0.000547584146 0.00409999862
v -0.00588068366 -0.000547584146 0.00450000539
v -0.00590839982 -0.000577926636 0.00409999862
v -0.00590839982 -0.000577926636 0.00450000539
v -0.00593039393 -0.000611281022 0.00409999862
v -0.00593039393 -0.000611281022 0.00450000539
v -0.00594639778 -0.000647407025 0.00409999862
v -0.00594639778 -0.000647407025 0.00450000539
v -0.00595617294 -0.000686060637 0.00409999862
v -0.00595617294 -0.000686060637 0.00450000539
v -0.005959481 -0.000726999715 0.00409999862
v -0.005959481 -0.000726999715 0.00450000539
v -0.00595504045 -0.000762656331 0.00409999862
v -0.00595504045 -0.000762656331 0.00450000539
v -0.00594136119 -0.000799916685 0.00409999862
v -0.00594136119 -0.000799916685 0.00450000539
v -0.00591802597 -0.000839218497 0.00409999862
v -0.00591802597 -0.000839218497 0.00450000539
v -0.00588455796 -0.000880999491 0.00409999862
v -0.00588455796 -0.000880999491 0.00450000539
v -0.00584048033 -0.000925697386 0.00409999862
v -0.00584048033 -0.000925697386 0.00450000539
v -0.00578537583 -0.000973749906 0.00409999862
v -0.00578537583 -0.000973749906 0.00450000539
v -0.00571870804 -0.00102559477 0.00409999862
v -0.00571870804 -0.00102559477 0.00450000539
v -0.00564008951 -0.00108166598 0.00409999862
v -0.00564008951 -0.00108166598 0.00450000539
v -0.00554901361 -0.00114240684 0.00409999862
v -0.00554901361 -0.00114240684 0.00450000539
v -0.00544503331 -0.00120824948 0.00409999862
v -0.00544503331 -0.00120824948 0.00450000539
v -0.00532767177 -0.00127963535 0.00409999862
v -0.00532767177 -0.00127963535 0.00450000539
v -0.00519648194 -0.00135700032 0.00409999862
v -0.00519648194 -0.00135700032 0.00450000539
v -0.00507375598 -0.0014402587 0.00409999862
v -0.00507375598 -0.0014402587 0.00450000539
v -0.00496426225 -0.00151906908 0.00409999862
v -0.00496426225 -0.00151906908 0.00450000539
v -0.00486749411 -0.00159423426 0.00409999862
v -0.00486749411 -0.00159423426 0.00450000539
v -0.00478297472 -0.00166655518 0.00409999862
v -0.00478297472 -0.00166655518 0.00450000539
v -0.00471022725 -0.00173683465 0.00409999862
v -0.00471022725 -0.00173683465 0.00450000539
v -0.00464874506 -0.00180587545 0.00409999862
v -0.00464874506 -0.00180587545 0.00450000539
v -0.00459805131 -0.00187447667 0.00409999862
v -0.00459805131 -0.00187447667 0.00450000539
v -0.00455766916 -0.00194344483 0.00409999862
v -0.00455766916 -0.00194344483 0.00450000539
v -0.00452712178 -0.00201357901 0.00409999862
v -0.00452712178 -0.00201357901 0.00450000539
v -0.00450587273 -0.00208568014 0.00409999862
v -0.00450587273 -0.00208568014 0.00450000539
v -0.00449350476 -0.00216055475 0.00409999862
v -0.00449350476 -0.00216055475 0.00450000539
v -0.00448948145 -0.00223900005 0.00409999862
v -0.00448948145 -0.00223900005 0.00450000539
v -0.00449851155 -0.00237334892 0.00409999862
v -0.00449851155 -0.00237334892 0.00450000539
v -0.00452491641 -0.00249945931 0.00409999862
v -0.00452491641 -0.00249945931 0.00450000539
v -0.00456768274 -0.00261667185 0.00409999862
v -0.00456768274 -0.00261667185 0.00450000539
v -0.00462585688 -0.0027243346 0.00409999862
v -0.00462585688 -0.0027243346 0.00450000539
v -0.00469842553 -0.00282178633 0.00409999862
v -0.00469842553 -0.00282178633 0.00450000539
v -0.00478437543 -0.00290837511 0.00409999862
v -0.00478437543 -0.00290837511 0.00450000539
v -0.00488269329 -0.00298344344 0.00409999862
v -0.00488269329 -0.00298344344 0.00450000539
v -0.00499245524 -0.00304633379 0.00409999862
v -0.00499245524 -0.00304633379 0.00450000539
v -0.00511258841 -0.00309639052 0.00409999862
v -0.00511258841 -0.00309639052 0.00450000539
v -0.0052421391 -0.00313295797 0.00409999862
v -0.0052421391 -0.00313295797 0.00450000539
v -0.00538012385 -0.00315538049 0.00409999862
v -0.00538012385 -0.00315538049 0.00450000539
v -0.00552549958 -0.00316300057 0.00409999862
v -0.00552549958 -0.00316300057 0.00450000539
v -0.00562009215 -0.0031613633 0.00409999862
v -0.00562009215 -0.0031613633 0.00450000539
v -0.0057118535 -0.00315632485 0.00409999862
v -0.0057118535 -0.00315632485 0.00450000539
v -0.00580143929 -0.00314768776 0.00409999862
v -0.00580143929 -0.00314768776 0.00450000539
v -0.00588947535 -0.00313526019 0.00409999862
v -0.00588947535 -0.00313526019 0.00450000539
v -0.00597664714 -0.0031188447 0.00409999862
v -0.00597664714 -0.0031188447 0.00450000539
v -0.00606361032 -0.00309824944 0.00409999862
v -0.00606361032 -0.00309824944 0.00450000539
v -0.00615099072 -0.00307328068 0.00409999862
v -0.00615099072 -0.00307328068 0.00450000539
v -0.00623947382 -0.00304374099 0.00409999862
v -0.00623947382 -0.00304374099 0.00450000539
v -0.00632971525 -0.00300943851 0.00409999862
v -0.00632971525 -0.00300943851 0.00450000539
v -0.00642237067 -0.00297017582 0.00409999862
v -0.00642237067 -0.00297017582 0.00450000539
v -0.00651806593 -0.00292576104 0.00409999862
v -0.00651806593 -0.00292576104 0.00450000539
v -0.00661748648 -0.00287600048 0.00409999862
v -0.00661748648 -0.00287600048 0.00450000539
v -0.00661748648 -0.00220400095 0.00409999862
v -0.00661748648 -0.00220400095 0.00450000539
v -0.00651675463 -0.00227094628 0.00409999862
v -0.00651675463 -0.00227094628 0.00450000539
v -0.00641778111 -0.00233181566 0.00409999862
v -0.00641778111 -0.00233181566 0.00450000539
v -0.00632086396 -0.00238665566 0.00409999862
v -0.00632086396 -0.00238665566 0.00450000539
v -0.00622627139 -0.00243551843 0.00409999862
v -0.00622627139 -0.00243551843 0.00450000539
v -0.00613430142 -0.00247845054 0.00409999862
v -0.00613430142 -0.00247845054 0.00450000539
v -0.00604525208 -0.00251550041 0.00409999862
v -0.00604525208 -0.00251550041 0.00450000539
v -0.00595939159 -0.00254671648 0.00409999862
v -0.00595939159 -0.00254671648 0.00450000539
v -0.00587704778 -0.00257214904 0.00409999862
v -0.00587704778 -0.00257214904 0.00450000539
v -0.00579848886 -0.00259184465 0.00409999862
v -0.00579848886 -0.00259184465 0.00450000539
v -0.00572401285 -0.00260585174 0.00409999862
v -0.00572401285 -0.00260585174 0.00450000539
v -0.00565391779 -0.0026142206 0.00409999862
v -0.00565391779 -0.0026142206 0.00450000539
v -0.00558850169 -0.00261699967 0.00409999862
v -0.00558850169 -0.00261699967 0.00450000539
v -0.00552645326 -0.00261131302 0.00409999862
v -0.00552645326 -0.00261131302 0.00450000539
v -0.0054667592 -0.00260125101 0.00409999862
v -0.0054667592 -0.00260125101 0.00450000539
v -0.00540998578 -0.00258681178 0.00409999862
v -0.00540998578 -0.00258681178 0.00450000539
v -0.00535669923 -0.00256800093 0.00409999862
v -0.00535669923 -0.00256800093 0.00450000539
v -0.0053075254 -0.00254481286 0.00409999862
v -0.0053075254 -0.00254481286 0.00450000539
v -0.00526300073 -0.00251724944 0.00409999862
v -0.00526300073 -0.00251724944 0.00450000539
v -0.00522372127 -0.00248531252 0.00409999862
v -0.00522372127 -0.00248531252 0.00450000539
v -0.00519025326 -0.00244900025 0.00409999862
v -0.00519025326 -0.00244900025 0.00450000539
v -0.00516322255 -0.00240831263 0.00409999862
v -0.00516322255 -0.00240831263 0.00450000539
v -0.00514319539 -0.00236324966 0.00409999862
v -0.00514319539 -0.00236324966 0.00450000539
v -0.00513076782 -0.00231381319 0.00409999862
v -0.00513076782 -0.00231381319 0.00450000539
v -0.00512647629 -0.00225999951 0.00409999862
v -0.00512647629 -0.00225999951 0.00450000539
v -0.00515541434 -0.00215525553 0.00409999862
v -0.00515541434 -0.00215525553 0.00450000539
v -0.00523537397 -0.00205612555 0.00409999862
v -0.00523537397 -0.00205612555 0.00450000539
v -0.00535616279 -0.00195976533 0.00409999862
v -0.00535616279 -0.00195976533 0.00450000539
v -0.00550758839 -0.00186333433 0.00409999862
v -0.00550758839 -0.00186333433 0.00450000539
v -0.00567942858 -0.00176398456 0.00409999862
v -0.00567942858 -0.00176398456 0.00450000539
v -0.00586149096 -0.0016588755 0.00409999862
v -0.00586149096 -0.0016588755 0.00450000539
v -0.00604352355 -0.00154516101 0.00409999862
v -0.00604352355 -0.00154516101 0.00450000539
v -0.00621536374 -0.00142000057 0.00409999862
v -0.00621536374 -0.00142000057 0.00450000539
v -0.00636678934 -0.00128054619 0.00409999862
v -0.00636678934 -0.00128054619 0.00450000539
v -0.00648760796 -0.0011239592 0.00409999862
v -0.00648760796 -0.0011239592 0.00450000539
v -0.00656756759 -0.000947391614 0.00409999862
v -0.00656756759 -0.000947391614 0.00450000539
v -0.00659647584 -0.000747999176 0.00409999862
v -0.00659647584 -0.000747999176 0.00450000539
v -0.00658813119 -0.000619439408 0.00409999862
v -0.00658813119 -0.000619439408 0.00450000539
v -0.00656348467 -0.000500017777 0.00409999862
v -0.00656348467 -0.000500017777 0.00450000539
v -0.00652319193 -0.000390125439 0.00409999862
v -0.00652319193 -0.000390125439 0.00450000539
v -0.00646790862 -0.00029014796 0.00409999862
v -0.00646790862 -0.00029014796 0.00450000539
v -0.00639820099 -0.000200476497 0.00409999862
v -0.00639820099 -0.000200476497 0.00450000539
v -0.00631472468 -0.000121500343 0.00409999862
v -0.00631472468 -0.000121500343 0.00450000539
v -0.00621816516 -5.36069274e-05 0.00409999862
v -0.00621816516 -5.36069274e-05 0.00450000539
v -0.00610908866 2.81445682e-06 0.00409999862
v -0.00610908866 2.81445682e-06 0.00450000539
v -0.00598815084 4.73745167e-05 0.00409999862
v -0.00598815084 4.73745167e-05 0.00450000539
v -0.00585597754 7.96858221e-05 0.00409999862
v -0.00585597754 7.96858221e-05 0.00450000539
v -0.00571322441 9.93572176e-05 0.00409999862
v -0.00571322441 9.93572176e-05 0.00450000539
v -0.00556048751 0.00010599941 0.00409999862
v -0.00556048751 0.00010599941 0.00450000539
v -0.00548681617 0.000104246661 0.00409999862
v -0.00548681617 0.000104246661 0.00450000539
v -0.005412817 9.89679247e-05 0.00409999862
v -0.005412817 9.89679247e-05 0.00450000539
v -0.005338341 9.01408494e-05 0.00409999862
v -0.005338341 9.01408494e-05 0.00450000539
v -0.00526338816 7.77412206e-05 0.00409999862
v -0.00526338816 7.77412206e-05 0.00450000539
v -0.00518780947 6.17429614e-05 0.00409999862
v -0.00518780947 6.17429614e-05 0.00450000539
v -0.00511160493 4.21255827e-05 0.00409999862
v -0.00511160493 4.21255827e-05 0.00450000539
v -0.00503468513 1.88611448e-05 0.00409999862
v -0.00503468513 1.88611448e-05 0.00450000539
v -0.00495693088 -8.07456672e-06 0.00409999862
v -0.00495693088 -8.07456672e-06 0.00450000539
v -0.00487831235 -3.87039036e-05 0.00409999862
v -0.00487831235 -3.87039036e-05 0.00450000539
v -0.00479874015 -7.30510801e-05 0.00409999862
v -0.00479874015 -7.30510801e-05 0.00450000539
v -0.00471815467 -0.000111142173 0.00409999862
v -0.00471815467 -0.000111142173 0.00450000539
v -0.00463649631 -0.000152999535 0.00409999862
v -0.00463649631 -0.000152999535 0.00450000539
v -0.00463649631 -0.0007690005 0.00409999862
v -0.00463649631 -0.0007690005 0.00450000539
v -0.00314548612 -0.000369999558 0.00409999862
v -0.00314548612 -0.000369999558 0.00450000539
v -0.0030837059 -0.000297402963 0.00409999862
v -0.0030837059 -0.000297402963 0.00450000539
v -0.00301766396 -0.000230226666 0.00409999862
v -0.00301766396 -0.000230226666 0.00450000539
v -0.00294774771 -0.000168640167 0.00409999862
v -0.00294774771 -0.000168640167 0.00450000539
v -0.00287431479 -0.000112814829 0.00409999862
v -0.00287431479 -0.000112814829 0.00450000539
v -0.00279775262 -6.29201531e-05 0.00409999862
v -0.00279775262 -6.29201531e-05 0.00450000539
v -0.00271847844 -1.91256404e-05 0.00409999862
v -0.00271847844 -1.91256404e-05 0.00450000539
v -0.00263687968 1.83992088e-05 0.00409999862
v -0.00263687968 1.83992088e-05 0.00450000539
v -0.00255334377 4.94811684e-05 0.00409999862
v -0.00255334377 4.94811684e-05 0.00450000539
v -0.00246822834 7.39526004e-05 0.00409999862
v -0.00246822834 7.39526004e-05 0.00450000539
v -0.00238198042 9.1644004e-05 0.00409999862
v -0.00238198042 9.1644004e-05 0.00450000539
v -0.00229492784 0.000102382153 0.00409999862
v -0.00229492784 0.000102382153 0.00450000539
v -0.00220748782 0.00010599941 0.00409999862
v -0.00220748782 0.00010599941 0.00450000539
v -0.0020570159 9.72375274e-05 0.00409999862
v -0.0020570159 9.72375274e-05 0.00450000539
v -0.00191426277 7.09034503e-05 0.00409999862
v -0.00191426277 7.09034503e-05 0.00450000539
v -0.00178027153 2.6922673e-05 0.00409999862
v -0.00178027153 2.6922673e-05 0.00450000539
v -0.00165605545 -3.47774476e-05 0.00409999862
v -0.00165605545 -3.47774476e-05 0.00450000539
v -0.00154259801 -0.000114269555 0.00409999862
v -0.00154259801 -0.000114269555 0.00450000539
v -0.00144100189 -0.000211624429 0.00409999862
v -0.00144100189 -0.000211624429 0.00450000539
v -0.00135219097 -0.000326918438 0.00409999862
v -0.00135219097 -0.000326918438 0.00450000539
v -0.00127726793 -0.000460222363 0.00409999862
v -0.00127726793 -0.000460222363 0.00450000539
v -0.00121721625 -0.000611608848 0.00409999862
v -0.00121721625 -0.000611608848 0.00450000539
v -0.00117304921 -0.000781152397 0.00409999862
v -0.00117304921 -0.000781152397 0.00450000539
v -0.00114580989 -0.000968925655 0.00409999862
v -0.00114580989 -0.000968925655 0.00450000539
v -0.00113648176 -0.0011749994 0.00409999862
v -0.00113648176 -0.0011749994 0.00450000539
v -0.00113648176 -0.00310000032 0.00409999862
v -0.00113648176 -0.00310000032 0.00450000539
v -0.00175949931 -0.00310000032 0.00409999862
v -0.00175949931 -0.00310000032 0.00450000539
v -0.00175949931 -0.00115399994 0.00409999862
v -0.00175949931 -0.00115399994 0.00450000539
v -0.00176438689 -0.00104193576 0.00409999862
v -0.00176438689 -0.00104193576 0.00450000539
v -0.00177887082 -0.00093706511 0.00409999862
v -0.00177887082 -0.00093706511 0.00450000539
v -0.00180259347 -0.000839874148 0.00409999862
v -0.00180259347 -0.000839874148 0.00450000539
v -0.00183519721 -0.000750852749 0.00409999862
v -0.00183519721 -0.000750852749 0.00450000539
v -0.00187635422 -0.000670481473 0.00409999862
v -0.00187635422 -0.000670481473 0.00450000539
v -0.00192573667 -0.000599250197 0.00409999862
v -0.00192573667 -0.000599250197 0.00450000539
v -0.00198298693 -0.000537643209 0.00409999862
v -0.00198298693 -0.000537643209 0.00450000539
v -0.00204777718 -0.000486148521 0.00409999862
v -0.00204777718 -0.000486148521 0.00450000539
v -0.00211977959 -0.000445250422 0.00409999862
v -0.00211977959 -0.000445250422 0.00450000539
v -0.00219860673 -0.000415435061 0.00409999862
v -0.00219860673 -0.000415435061 0.00450000539
v -0.00228396058 -0.000397190452 0.00409999862
v -0.00228396058 -0.000397190452 0.00450000539
v -0.00237548351 -0.000391000882 0.00409999862
v -0.00237548351 -0.000391000882 0.00450000539
v -0.00244265795 -0.000393670052 0.00409999862
v -0.00244265795 -0.000393670052 0.00450000539
v -0.00250792503 -0.000401856378 0.00409999862
v -0.00250792503 -0.000401856378 0.00450000539
v -0.00257182121 -0.000415828079 0.00409999862
v -0.00257182121 -0.000415828079 0.00450000539
v -0.00263473392 -0.000435851514 0.00409999862
v -0.00263473392 -0.000435851514 0.00450000539
v -0.00269719958 -0.000462194905 0.00409999862
v -0.00269719958 -0.000462194905 0.00450000539
v -0.00275960565 -0.000495124608 0.00409999862
v -0.00275960565 -0.000495124608 0.00450000539
v -0.00282245874 -0.000534908846 0.00409999862
v -0.00282245874 -0.000534908846 0.00450000539
v -0.00288623571 -0.000581813976 0.00409999862
v -0.00288623571 -0.000581813976 0.00450000539
v -0.00295135379 -0.000636110082 0.00409999862
v -0.00295135379 -0.000636110082 0.00450000539
v -0.0030182898 -0.000698059797 0.00409999862
v -0.0030182898 -0.000698059797 0.00450000539
v -0.0030875206 -0.000767935067 0.00409999862
v -0.0030875206 -0.000767935067 0.00450000539
v -0.00315949321 -0.000846000388 0.00409999862
v -0.00315949321 -0.000846000388 0.00450000539
v -0.00315949321 -0.00310000032 0.00409999862
v -0.00315949321 -0.00310000032 0.00450000539
v -0.00378248096 -0.00310000032 0.00409999862
v -0.00378248096 -0.00310000032 0.00450000539
v -0.00378248096 0.00167400017 0.00409999862
v -0.00378248096 0.00167400017 0.00450000539
v -0.00315949321 0.00167400017 0.00409999862
v -0.00315949321 0.00167400017 0.00450000539
v -0.00315949321 -0.000369999558 0.00409999862
v -0.00315949321 -0.000369999558 0.00450000539
v -0.000254482031 -0.00310000032 0.00409999862
v -0.000254482031 -0.00310000032 0.00450000539
v -0.000254482031 4.29991633e-05 0.00409999862
v -0.000254482031 4.29991633e-05 0.00450000539
v 0.000368505716 4.29991633e-05 0.00409999862
v 0.000368505716 4.29991633e-05 0.00450000539
v 0.000368505716 -0.00310000032 0.00409999862
v 0.000368505716 -0.00310000032 0.00450000539
v 1.05798244e-05 0.000627422705 0.00409999862
v 1.05798244e-05 0.000627422705 0.00450000539
v -3.74615192e-05 0.000637384132 0.00409999862
v -3.74615192e-05 0.000637384132 0.00450000539
v -8.30888748e-05 0.000653421506 0.00409999862
v -8.30888748e-05 0.000653421506 0.00450000539
v -0.00012588501 0.000675074756 0.00409999862
v -0.00012588501 0.000675074756 0.00450000539
v -0.000165373087 0.00070187822 0.00409999862
v -0.000165373087 0.00070187822 0.00450000539
v -0.000201106071 0.000733375549 0.00409999862
v -0.000201106071 0.000733375549 0.00450000539
v -0.000232607126 0.000769101083 0.00409999862
v -0.000232607126 0.000769101083 0.00450000539
v -0.000259399414 0.000808592886 0.00409999862
v -0.000259399414 0.000808592886 0.00450000539
v -0.000281065702 0.000851390883 0.00409999862
v -0.000281065702 0.000851390883 0.00450000539
v -0.000297099352 0.00089703314 0.00409999862
v -0.000297099352 0.00089703314 0.00450000539
v -0.000307053328 0.000945055857 0.00409999862
v -0.000307053328 0.000945055857 0.00450000539
v -0.000310480595 0.000995000824 0.00409999862
v -0.000310480595 0.000995000824 0.00450000539
v -0.000307053328 0.00104494393 0.00409999862
v -0.000307053328 0.00104494393 0.00450000539
v -0.000297099352 0.00109296851 0.00409999862
v -0.000297099352 0.00109296851 0.00450000539
v -0.000281065702 0.0011386089 0.00409999862
v -0.000281065702 0.0011386089 0.00450000539
v -0.000259399414 0.0011814069 0.00409999862
v -0.000259399414 0.0011814069 0.00450000539
v -0.000232607126 0.00122090057 0.00409999862
v -0.000232607126 0.00122090057 0.00450000539
v -0.000201106071 0.0012566261 0.00409999862
v -0.000201106071 0.0012566261 0.00450000539
v -0.000165373087 0.00128812157 0.00409999862
v -0.000165373087 0.00128812157 0.00450000539
v -0.00012588501 0.00131492689 0.00409999862
v -0.00012588501 0.00131492689 0.00450000539
v -8.30888748e-05 0.00133657828 0.00409999862
v -8.30888748e-05 0.00133657828 0.00450000539
v -3.74615192e-05 0.00135261565 0.00409999862
v -3.74615192e-05 0.00135261565 0.00450000539
v 1.05798244e-05 0.00136257708 0.00409999862
v 1.05798244e-05 0.00136257708 0.00450000539
v 6.04987144e-05 0.00136600062 0.00409999862
v 6.04987144e-05 0.00136600062 0.00450000539
v 0.000110447407 0.00136257708 0.00409999862
v 0.000110447407 0.00136257708 0.00450000539
v 0.00015848875 0.00135261565 0.00409999862
v 0.00015848875 0.00135261565 0.00450000539
v 0.000204116106 0.00133657828 0.00409999862
v 0.000204116106 0.00133657828 0.00450000539
v 0.000246912241 0.00131492503 0.00409999862
v 0.000246912241 0.00131492503 0.00450000539
v 0.000286400318 0.00128812157 0.00409999862
v 0.000286400318 0.00128812157 0.00450000539
v 0.000322133303 0.00125662424 0.00409999862
v 0.000322133303 0.00125662424 0.00450000539
v 0.000353634357 0.00122090057 0.00409999862
v 0.000353634357 0.00122090057 0.00450000539
v 0.000380426645 0.0011814069 0.00409999862
v 0.000380426645 0.0011814069 0.00450000539
v 0.000402092934 0.0011386089 0.00409999862
v 0.000402092934 0.0011386089 0.00450000539
v 0.000418126583 0.00109296665 0.00409999862
v 0.000418126583 0.00109296665 0.00450000539
v 0.000428080559 0.00104494393 0.00409999862
v 0.000428080559 0.00104494393 0.00450000539
v 0.000431507826 0.000995000824 0.00409999862
v 0.000431507826 0.000995000824 0.00450000539
v 0.000428080559 0.000945055857 0.00409999862
v 0.000428080559 0.000945055857 0.00450000539
v 0.000418126583 0.00089703314 0.00409999862
v 0.000418126583 0.00089703314 0.00450000539
v 0.000402092934 0.000851390883 0.00409999862
v 0.000402092934 0.000851390883 0.00450000539
v 0.000380426645 0.000808592886 0.00409999862
v 0.000380426645 0.000808592886 0.00450000539
v 0.000353634357 0.000769099221 0.00409999862
v 0.000353634357 0.000769099221 0.00450000539
v 0.000322133303 0.000733375549 0.00409999862
v 0.000322133303 0.000733375549 0.00450000539
v 0.000286400318 0.00070187822 0.00409999862
v 0.000286400318 0.00070187822 0.00450000539
v 0.000246912241 0.000675074756 0.00409999862
v 0.000246912241 0.000675074756 0.00450000539
v 0.000204116106 0.000653421506 0.00409999862
v 0.000204116106 0.000653421506 0.00450000539
v 0.00015848875 0.000637384132 0.00409999862
v 0.00015848875 0.000637384132 0.00450000539
v 0.000110447407 0.000627422705 0.00409999862
v 0.000110447407 0.000627422705 0.00450000539
v 6.04987144e-05 0.000623999164 0.00409999862
v 6.04987144e-05 0.000623999164 0.00450000539
v 0.00287008286 0.00107492507 0.00409999862
v 0.00287008286 0.00107492507 0.00450000539
v 0.00284609199 0.00108373165 0.00409999862
v 0.00284609199 0.00108373165 0.00450000539
v 0.0028232038 0.00109146908 0.00409999862
v 0.0028232038 0.00109146908 0.00450000539
v 0.00280115008 0.00109818578 0.00409999862
v 0.00280115008 0.00109818578 0.00450000539
v 0.0027795434 0.00110393018 0.00409999862
v 0.0027795434 0.00110393018 0.00450000539
v 0.00275814533 0.0011087507 0.00409999862
v 0.00275814533 0.0011087507 0.00450000539
v 0.00273656845 0.00111269578 0.00409999862
v 0.00273656845 0.00111269578 0.00450000539
v 0.00271454453 0.00111581385 0.00409999862
v 0.00271454453 0.00111581385 0.00450000539
v 0.00269174576 0.00111815706 0.00409999862
v 0.00269174576 0.00111815706 0.00450000539
v 0.0026678443 0.00111976825 0.00409999862
v 0.0026678443 0.00111976825 0.00450000539
v 0.00264254212 0.00112069957 0.00409999862
v 0.00264254212 0.00112069957 0.00450000539
v 0.00261551142 0.00112099946 0.00409999862
v 0.00261551142 0.00112099946 0.00450000539
v 0.00249654055 0.00111493655 0.00409999862
v 0.00249654055 0.00111493655 0.00450000539
v 0.00239124894 0.00109698623 0.00409999862
v 0.00239124894 0.00109698623 0.00450000539
v 0.00229898095 0.00106751546 0.00409999862
v 0.00229898095 0.00106751546 0.00450000539
v 0.00221911073 0.00102688931 0.00409999862
v 0.00221911073 0.00102688931 0.00450000539
v 0.00215098262 0.00097547099 0.00409999862
v 0.00215098262 0.00097547099 0.00450000539
v 0.00209400058 0.000913625583 0.00409999862
v 0.00209400058 0.000913625583 0.00450000539
v 0.00204753876 0.000841716304 0.00409999862
v 0.00204753876 0.000841716304 0.00450000539
v 0.0020109117 0.000760111958 0.00409999862
v 0.0020109117 0.000760111958 0.00450000539
v 0.00198355317 0.000669172034 0.00409999862
v 0.00198355317 0.000669172034 0.00450000539
v 0.00196477771 0.000569263473 0.00409999862
v 0.00196477771 0.000569263473 0.00450000539
v 0.00195395947 0.000460751355 0.00409999862
v 0.00195395947 0.000460751355 0.00450000539
v 0.0019505024 0.000344000757 0.00409999862
v 0.0019505024 0.000344000757 0.00450000539
v 0.0019505024 4.29991633e-05 0.00409999862
v 0.0019505024 4.29991633e-05 0.00450000539
v 0.00251752138 4.29991633e-05 0.00409999862
v 0.00251752138 4.29991633e-05 0.00450000539
v 0.00251752138 -0.000516999513 0.00409999862
v 0.00251752138 -0.000516999513 0.00450000539
v 0.0019505024 -0.000516999513 0.00409999862
v 0.0019505024 -0.000516999513 0.00450000539
v 0.0019505024 -0.00310000032 0.00409999862
v 0.0019505024 -0.00310000032 0.00450000539
v 0.00132751465 -0.00310000032 0.00409999862
v 0.00132751465 -0.00310000032 0.00450000539
v 0.00132751465 -0.000516999513 0.00409999862
v 0.00132751465 -0.000516999513 0.00450000539
v 0.000886499882 -0.000516999513 0.00409999862
v 0.000886499882 -0.000516999513 0.00450000539
v 0.000886499882 4.29991633e-05 0.00409999862
v 0.000886499882 4.29991633e-05 0.00450000539
v 0.00132751465 4.29991633e-05 0.00409999862
v 0.00132751465 4.29991633e-05 0.00450000539
v 0.00132751465 0.000274000689 0.00409999862
v 0.00132751465 0.000274000689 0.00450000539
v 0.00133055449 0.000421453267 0.00409999862
v 0.00133055449 0.000421453267 0.00450000539
v 0.00133955479 0.000556463376 0.00409999862
v 0.00133955479 0.000556463376 0.00450000539
v 0.00135442615 0.00067999959 0.00409999862
v 0.00135442615 0.00067999959 0.00450000539
v 0.00137495995 0.000793036073 0.00409999862
v 0.00137495995 0.000793036073 0.00450000539
v 0.00140103698 0.00089654699 0.00409999862
v 0.00140103698 0.00089654699 0.00450000539
v 0.00143250823 0.000991500914 0.00409999862
v 0.00143250823 0.000991500914 0.00450000539
v 0.00146922469 0.00107887015 0.00409999862
v 0.00146922469 0.00107887015 0.00450000539
v 0.00151106715 0.00115962885 0.00409999862
v 0.00151106715 0.00115962885 0.00450000539
v 0.0015578568 0.00123474933 0.00409999862
v 0.0015578568 0.00123474933 0.00450000539
v 0.00160944462 0.00130520388 0.00409999862
v 0.00160944462 0.00130520388 0.00450000539
v 0.0016657114 0.00137196295 0.00409999862
v 0.0016657114 0.00137196295 0.00450000539
v 0.00172650814 0.00143599883 0.00409999862
v 0.00172650814 0.00143599883 0.00450000539
v 0.00179496408 0.00149950199 0.00409999862
v 0.00179496408 0.00149950199 0.00450000539
v 0.00186756253 0.00155668519 0.00409999862
v 0.00186756253 0.00155668519 0.00450000539
v 0.00194460154 0.0016070623 0.00409999862
v 0.00194460154 0.0016070623 0.00450000539
v 0.00202646852 0.001650149 0.00409999862
v 0.00202646852 0.001650149 0.00450000539
v 0.0021134913 0.00168545544 0.00409999862
v 0.0021134913 0.00168545544 0.00450000539
v 0.00220602751 0.00171250105 0.00409999862
v 0.00220602751 0.00171250105 0.00450000539
v 0.00230437517 0.00173079409 0.00409999862
v 0.00230437517 0.00173079409 0.00450000539
v 0.00240889192 0.00173985213 0.00409999862
v 0.00240889192 0.00173985213 0.00450000539
v 0.00251990557 0.00173918717 0.00409999862
v 0.00251990557 0.00173918717 0.00450000539
v 0.00263780355 0.00172831491 0.00409999862
v 0.00263780355 0.00172831491 0.00450000539
v 0.0027628839 0.00170674734 0.00409999862
v 0.0027628839 0.00170674734 0.00450000539
v 0.00289550424 0.00167400017 0.00409999862
v 0.00289550424 0.00167400017 0.00450000539
v 0.00289550424 0.00106500089 0.00409999862
v 0.00289550424 0.00106500089 0.00450000539
v 0.0047365129 4.29991633e-05 0.00409999862
v 0.0047365129 4.29991633e-05 0.00450000539
v 0.0047365129 -0.000516999513 0.00409999862
v 0.0047365129 -0.000516999513 0.00450000539
v 0.00374251604 -0.000516999513 0.00409999862
v 0.00374251604 -0.000516999513 0.00450000539
v 0.00374251604 -0.0021269992 0.00409999862
v 0.00374251604 -0.0021269992 0.00450000539
v 0.00374785066 -0.00221430138 0.00409999862
v 0.00374785066 -0.00221430138 0.00450000539
v 0.00376304984 -0.00229107961 0.00409999862
v 0.00376304984 -0.00229107961 0.00450000539
v 0.0037869215 -0.00235789083 0.00409999862
v 0.0037869215 -0.00235789083 0.00450000539
v 0.00381821394 -0.00241529569 0.00409999862
v 0.00381821394 -0.00241529569 0.00450000539
v 0.00385573506 -0.00246385485 0.00409999862
v 0.00385573506 -0.00246385485 0.00450000539
v 0.00389826298 -0.00250412524 0.00409999862
v 0.00389826298 -0.00250412524 0.00450000539
v 0.00394457579 -0.00253666565 0.00409999862
v 0.00394457579 -0.00253666565 0.00450000539
v 0.0039934814 -0.00256203674 0.00409999862
v 0.0039934814 -0.00256203674 0.00450000539
v 0.00404372811 -0.0025807973 0.00409999862
v 0.00404372811 -0.0025807973 0.00450000539
v 0.00409412384 -0.00259350426 0.00409999862
v 0.00409412384 -0.00259350426 0.00450000539
v 0.00414347649 -0.00260072015 0.00409999862
v 0.00414347649 -0.00260072015 0.00450000539
v 0.00419050455 -0.00260300003 0.00409999862
v 0.00419050455 -0.00260300003 0.00450000539
v 0.00424668193 -0.00260139629 0.00409999862
v 0.00424668193 -0.00260139629 0.00450000539
v 0.00430315733 -0.00259658322 0.00409999862
v 0.00430315733 -0.00259658322 0.00450000539
v 0.00436004996 -0.00258856267 0.00409999862
v 0.00436004996 -0.00258856267 0.00450000539
v 0.00441735983 -0.00257733278 0.00409999862
v 0.00441735983 -0.00257733278 0.00450000539
v 0.00447517633 -0.00256289542 0.00409999862
v 0.00447517633 -0.00256289542 0.00450000539
v 0.00453349948 -0.00254525058 0.00409999862
v 0.00453349948 -0.00254525058 0.00450000539
v 0.00459244847 -0.0025243964 0.00409999862
v 0.00459244847 -0.0025243964 0.00450000539
v 0.00465199351 -0.00250033289 0.00409999862
v 0.00465199351 -0.00250033289 0.00450000539
v 0.00471222401 -0.0024730619 0.00409999862
v 0.00471222401 -0.0024730619 0.00450000539
v 0.00477319956 -0.00244258344 0.00409999862
v 0.00477319956 -0.00244258344 0.00450000539
v 0.00483494997 -0.00240889564 0.00409999862
v 0.00483494997 -0.00240889564 0.00450000539
v 0.00489750504 -0.00237200037 0.00409999862
v 0.00489750504 -0.00237200037 0.00450000539
v 0.00489750504 -0.00295300037 0.00409999862
v 0.00489750504 -0.00295300037 0.00450000539
v 0.00484094024 -0.00298213027 0.00409999862
v 0.00484094024 -0.00298213027 0.00450000539
v 0.00478026271 -0.00300987437 0.00409999862
v 0.00478026271 -0.00300987437 0.00450000539
v 0.00471639633 -0.0030360166 0.00409999862
v 0.00471639633 -0.0030360166 0.00450000539
v 0.00465017557 -0.00306033343 0.00409999862
v 0.00465017557 -0.00306033343 0.00450000539
v 0.0045825243 -0.00308261067 0.00409999862
v 0.0045825243 -0.00308261067 0.00450000539
v 0.00451427698 -0.00310262479 0.00409999862
v 0.00451427698 -0.00310262479 0.00450000539
v 0.00444629788 -0.00312016159 0.00409999862
v 0.00444629788 -0.00312016159 0.00450000539
v 0.00437951088 -0.00313499942 0.00409999862
v 0.00437951088 -0.00313499942 0.00450000539
v 0.00431475043 -0.00314692222 0.00409999862
v 0.00431475043 -0.00314692222 0.00450000539
v 0.00425294042 -0.00315570831 0.00409999862
v 0.00425294042 -0.00315570831 0.00450000539
v 0.00419488549 -0.00316114165 0.00409999862
v 0.00419488549 -0.00316114165 0.00450000539
v 0.00414150953 -0.00316300057 0.00409999862
v 0.00414150953 -0.00316300057 0.00450000539
v 0.00397875905 -0.00315440819 0.00409999862
v 0.00397875905 -0.00315440819 0.00450000539
v 0.00383004546 -0.00312926434 0.00409999862
v 0.00383004546 -0.00312926434 0.00450000539
v 0.00369536877 -0.00308851525 0.00409999862
v 0.00369536877 -0.00308851525 0.00450000539
v 0.00357475877 -0.00303311087 0.00409999862
v 0.00357475877 -0.00303311087 0.00450000539
v 0.00346827507 -0.00296399929 0.00409999862
v 0.00346827507 -0.00296399929 0.00450000539
v 0.00337588787 -0.00288212486 0.00409999862
v 0.00337588787 -0.00288212486 0.00450000539
v 0.00329765677 -0.00278843939 0.00409999862
v 0.00329765677 -0.00278843939 0.00450000539
v 0.00323358178 -0.00268388912 0.00409999862
v 0.00323358178 -0.00268388912 0.00450000539
v 0.0031837225 -0.00256942213 0.00409999862
v 0.0031837225 -0.00256942213 0.00450000539
v 0.00314804912 -0.00244598649 0.00409999862
v 0.00314804912 -0.00244598649 0.00450000539
v 0.00312665105 -0.00231453031 0.00409999862
v 0.00312665105 -0.00231453031 0.00450000539
v 0.00311949849 -0.00217599981 0.00409999862
v 0.00311949849 -0.00217599981 0.00450000539
v 0.00311949849 -0.000516999513 0.00409999862
v 0.00311949849 -0.000516999513 0.00450000539
v 0.00257351995 -0.000516999513 0.00409999862
v 0.00257351995 -0.000516999513 0.00450000539
v 0.00257351995 -0.000446999446 0.00409999862
v 0.00257351995 -0.000446999446 0.00450000539
v 0.00374251604 0.000693999231 0.00409999862
v 0.00374251604 0.000693999231 0.00450000539
v 0.00374251604 4.29991633e-05 0.00409999862
v 0.00374251604 4.29991633e-05 0.00450000539
usemtl screen_white_text_003
f 208 210 209
f 208 153 210
f 208 154 153
f 207 154 208
f 206 154 207
f 205 155 206
f 155 154 206
f 205 156 155
f 205 157 156
f 204 157 205
f 204 158 157
f 204 159 158
f 203 159 204
f 203 160 159
f 179 181 180
f 178 181 179
f 203 161 160
f 177 181 178
f 202 161 203
f 202 162 161
f 176 181 177
f 175 181 176
f 202 163 162
f 174 181 175
f 202 164 163
f 173 181 174
f 202 165 164
f 172 181 173
f 201 165 202
f 171 181 172
f 201 166 165
f 170 181 171
f 201 167 166
f 169 181 170
f 201 168 167
f 168 181 169
f 201 181 168
f 200 181 201
f 199 181 200
f 198 181 199
f 198 182 181
f 197 182 198
f 197 183 182
f 197 184 183
f 196 184 197
f 196 185 184
f 196 186 185
f 196 187 186
f 195 187 196
f 195 188 187
f 195 189 188
f 194 189 195
f 194 190 189
f 194 191 190
f 193 191 194
f 193 192 191
f 264 266 265
f 264 267 266
f 263 267 264
f 263 268 267
f 262 268 263
f 262 269 268
f 261 269 262
f 261 270 269
f 260 270 261
f 259 270 260
f 258 270 259
f 257 213 258
f 213 212 258
f 212 211 258
f 211 270 258
f 256 215 257
f 215 214 257
f 214 213 257
f 255 217 256
f 217 216 256
f 216 215 256
f 254 218 255
f 218 217 255
f 253 221 254
f 221 220 254
f 220 219 254
f 219 218 254
f 252 222 253
f 222 221 253
f 252 223 222
f 252 224 223
f 252 225 224
f 251 225 252
f 251 226 225
f 251 227 226
f 250 227 251
f 250 228 227
f 250 229 228
f 249 229 250
f 249 230 229
f 248 230 249
f 248 231 230
f 247 231 248
f 247 232 231
f 247 233 232
f 246 233 247
f 246 234 233
f 245 234 246
f 245 235 234
f 244 235 245
f 242 244 243
f 242 235 244
f 242 236 235
f 242 237 236
f 241 237 242
f 240 238 241
f 238 237 241
f 240 239 238
f 319 321 320
f 319 322 321
f 293 295 294
f 292 295 293
f 292 296 295
f 291 296 292
f 291 297 296
f 290 297 291
f 290 298 297
f 289 298 290
f 289 299 298
f 288 299 289
f 288 300 299
f 287 300 288
f 287 301 300
f 286 301 287
f 286 302 301
f 285 302 286
f 285 303 302
f 284 303 285
f 284 304 303
f 283 304 284
f 283 305 304
f 282 305 283
f 282 306 305
f 281 306 282
f 281 307 306
f 280 307 281
f 280 308 307
f 279 308 280
f 279 309 308
f 278 309 279
f 278 310 309
f 277 310 278
f 277 311 310
f 276 311 277
f 276 312 311
f 275 312 276
f 275 313 312
f 274 313 275
f 274 314 313
f 273 314 274
f 273 315 314
f 272 315 273
f 272 316 315
f 271 316 272
f 271 317 316
f 318 317 271
f 376 378 377
f 376 379 378
f 334 336 335
f 333 336 334
f 333 337 336
f 332 337 333
f 331 337 332
f 331 338 337
f 330 338 331
f 330 339 338
f 329 339 330
f 328 339 329
f 328 340 339
f 327 340 328
f 326 340 327
f 326 341 340
f 325 341 326
f 325 342 341
f 324 342 325
f 323 342 324
f 323 362 342
f 362 343 342
f 376 323 379
f 376 374 323
f 374 373 323
f 373 372 323
f 372 371 323
f 371 370 323
f 370 369 323
f 369 368 323
f 368 367 323
f 367 366 323
f 366 365 323
f 365 364 323
f 364 363 323
f 363 362 323
f 361 343 362
f 360 343 361
f 359 343 360
f 358 343 359
f 358 344 343
f 357 344 358
f 356 344 357
f 355 344 356
f 355 345 344
f 354 345 355
f 353 345 354
f 353 346 345
f 352 346 353
f 376 375 374
f 351 346 352
f 351 347 346
f 350 347 351
f 349 347 350
f 349 348 347
f 499 501 500
f 499 502 501
f 498 502 499
f 498 503 502
f 498 504 503
f 497 504 498
f 497 505 504
f 497 506 505
f 496 506 497
f 496 507 506
f 496 508 507
f 495 508 496
f 495 509 508
f 495 510 509
f 494 510 495
f 494 511 510
f 494 512 511
f 493 512 494
f 493 387 512
f 387 386 512
f 386 385 512
f 385 384 512
f 384 383 512
f 383 382 512
f 382 381 512
f 381 380 512
f 380 513 512
f 492 389 493
f 389 388 493
f 388 387 493
f 491 390 492
f 390 389 492
f 490 392 491
f 392 391 491
f 391 390 491
f 490 393 392
f 490 394 393
f 490 395 394
f 490 396 395
f 490 397 396
f 489 397 490
f 489 398 397
f 489 399 398
f 489 400 399
f 489 401 400
f 488 401 489
f 488 402 401
f 488 403 402
f 488 404 403
f 487 404 488
f 487 405 404
f 487 406 405
f 487 407 406
f 487 408 407
f 487 409 408
f 486 409 487
f 486 410 409
f 486 411 410
f 486 412 411
f 485 412 486
f 485 413 412
f 485 414 413
f 485 415 414
f 484 415 485
f 484 416 415
f 483 416 484
f 483 417 416
f 483 418 417
f 482 418 483
f 482 419 418
f 481 419 482
f 481 420 419
f 481 421 420
f 480 421 481
f 480 422 421
f 479 422 480
f 479 423 422
f 479 424 423
f 478 424 479
f 478 425 424
f 477 425 478
f 477 426 425
f 476 426 477
f 476 427 426
f 451 453 452
f 476 428 427
f 475 428 476
f 451 454 453
f 474 428 475
f 451 455 454
f 473 428 474
f 473 429 428
f 451 456 455
f 472 429 473
f 451 457 456
f 471 429 472
f 451 458 457
f 470 429 471
f 470 430 429
f 451 459 458
f 469 430 470
f 468 430 469
f 451 460 459
f 467 430 468
f 451 461 460
f 466 430 467
f 451 462 461
f 465 430 466
f 451 463 462
f 464 430 465
f 451 464 463
f 464 431 430
f 451 431 464
f 451 432 431
f 451 433 432
f 450 433 451
f 450 434 433
f 449 434 450
f 448 434 449
f 448 435 434
f 447 435 448
f 446 435 447
f 446 436 435
f 445 436 446
f 445 437 436
f 444 437 445
f 443 437 444
f 443 438 437
f 442 438 443
f 441 438 442
f 441 439 438
f 440 439 441
f 569 570 571
f 569 571 514
f 569 514 515
f 568 569 515
f 567 568 515
f 566 567 516
f 516 567 515
f 566 516 517
f 566 517 518
f 565 566 518
f 565 518 519
f 565 519 520
f 564 565 520
f 564 520 521
f 540 541 542
f 539 540 542
f 564 521 522
f 538 539 542
f 563 564 522
f 563 522 523
f 537 538 542
f 536 537 542
f 563 523 524
f 535 536 542
f 563 524 525
f 534 535 542
f 563 525 526
f 533 534 542
f 562 563 526
f 532 533 542
f 562 526 527
f 531 532 542
f 562 527 528
f 530 531 542
f 562 528 529
f 529 530 542
f 562 529 542
f 561 562 542
f 560 561 542
f 559 560 542
f 559 542 543
f 558 559 543
f 558 543 544
f 558 544 545
f 557 558 545
f 557 545 546
f 557 546 547
f 557 547 548
f 556 557 548
f 556 548 549
f 556 549 550
f 555 556 550
f 555 550 551
f 555 551 552
f 554 555 552
f 554 552 553
f 625 626 627
f 625 627 628
f 624 625 628
f 624 628 629
f 623 624 629
f 623 629 630
f 622 623 630
f 622 630 631
f 621 622 631
f 620 621 631
f 619 620 631
f 618 619 574
f 574 619 573
f 573 619 572
f 572 619 631
f 617 618 576
f 576 618 575
f 575 618 574
f 616 617 578
f 578 617 577
f 577 617 576
f 615 616 579
f 579 616 578
f 614 615 582
f 582 615 581
f 581 615 580
f 580 615 579
f 613 614 583
f 583 614 582
f 613 583 584
f 613 584 585
f 613 585 586
f 612 613 586
f 612 586 587
f 612 587 588
f 611 612 588
f 611 588 589
f 611 589 590
f 610 611 590
f 610 590 591
f 609 610 591
f 609 591 592
f 608 609 592
f 608 592 593
f 608 593 594
f 607 608 594
f 607 594 595
f 606 607 595
f 606 595 596
f 605 606 596
f 603 604 605
f 603 605 596
f 603 596 597
f 603 597 598
f 602 603 598
f 601 602 599
f 599 602 598
f 601 599 600
f 680 681 682
f 680 682 683
f 654 655 656
f 653 654 656
f 653 656 657
f 652 653 657
f 652 657 658
f 651 652 658
f 651 658 659
f 650 651 659
f 650 659 660
f 649 650 660
f 649 660 661
f 648 649 661
f 648 661 662
f 647 648 662
f 647 662 663
f 646 647 663
f 646 663 664
f 645 646 664
f 645 664 665
f 644 645 665
f 644 665 666
f 643 644 666
f 643 666 667
f 642 643 667
f 642 667 668
f 641 642 668
f 641 668 669
f 640 641 669
f 640 669 670
f 639 640 670
f 639 670 671
f 638 639 671
f 638 671 672
f 637 638 672
f 637 672 673
f 636 637 673
f 636 673 674
f 635 636 674
f 635 674 675
f 634 635 675
f 634 675 676
f 633 634 676
f 633 676 677
f 632 633 677
f 632 677 678
f 679 632 678
f 737 738 739
f 737 739 740
f 695 696 697
f 694 695 697
f 694 697 698
f 693 694 698
f 692 693 698
f 692 698 699
f 691 692 699
f 691 699 700
f 690 691 700
f 689 690 700
f 689 700 701
f 688 689 701
f 687 688 701
f 687 701 702
f 686 687 702
f 686 702 703
f 685 686 703
f 684 685 703
f 684 703 723
f 723 703 704
f 737 740 684
f 737 684 735
f 735 684 734
f 734 684 733
f 733 684 732
f 732 684 731
f 731 684 730
f 730 684 729
f 729 684 728
f 728 684 727
f 727 684 726
f 726 684 725
f 725 684 724
f 724 684 723
f 722 723 704
f 721 722 704
f 720 721 704
f 719 720 704
f 719 704 705
f 718 719 705
f 717 718 705
f 716 717 705
f 716 705 706
f 715 716 706
f 714 715 706
f 714 706 707
f 713 714 707
f 737 735 736
f 712 713 707
f 712 707 708
f 711 712 708
f 710 711 708
f 710 708 709
f 860 861 862
f 860 862 863
f 859 860 863
f 859 863 864
f 859 864 865
f 858 859 865
f 858 865 866
f 858 866 867
f 857 858 867
f 857 867 868
f 857 868 869
f 856 857 869
f 856 869 870
f 856 870 871
f 855 856 871
f 855 871 872
f 855 872 873
f 854 855 873
f 854 873 748
f 748 873 747
f 747 873 746
f 746 873 745
f 745 873 744
f 744 873 743
f 743 873 742
f 742 873 741
f 741 873 874
f 853 854 750
f 750 854 749
f 749 854 748
f 852 853 751
f 751 853 750
f 851 852 753
f 753 852 752
f 752 852 751
f 851 753 754
f 851 754 755
f 851 755 756
f 851 756 757
f 851 757 758
f 850 851 758
f 850 758 759
f 850 759 760
f 850 760 761
f 850 761 762
f 849 850 762
f 849 762 763
f 849 763 764
f 849 764 765
f 848 849 765
f 848 765 766
f 848 766 767
f 848 767 768
f 848 768 769
f 848 769 770
f 847 848 770
f 847 770 771
f 847 771 772
f 847 772 773
f 846 847 773
f 846 773 774
f 846 774 775
f 846 775 776
f 845 846 776
f 845 776 777
f 844 845 777
f 844 777 778
f 844 778 779
f 843 844 779
f 843 779 780
f 842 843 780
f 842 780 781
f 842 781 782
f 841 842 782
f 841 782 783
f 840 841 783
f 840 783 784
f 840 784 785
f 839 840 785
f 839 785 786
f 838 839 786
f 838 786 787
f 837 838 787
f 837 787 788
f 812 813 814
f 837 788 789
f 836 837 789
f 812 814 815
f 835 836 789
f 812 815 816
f 834 835 789
f 834 789 790
f 812 816 817
f 833 834 790
f 812 817 818
f 832 833 790
f 812 818 819
f 831 832 790
f 831 790 791
f 812 819 820
f 830 831 791
f 829 830 791
f 812 820 821
f 828 829 791
f 812 821 822
f 827 828 791
f 812 822 823
f 826 827 791
f 812 823 824
f 825 826 791
f 812 824 825
f 825 791 792
f 812 825 792
f 812 792 793
f 812 793 794
f 811 812 794
f 811 794 795
f 810 811 795
f 809 810 795
f 809 795 796
f 808 809 796
f 807 808 796
f 807 796 797
f 806 807 797
f 806 797 798
f 805 806 798
f 804 805 798
f 804 798 799
f 803 804 799
f 802 803 799
f 802 799 800
f 801 802 800
f 876 878 877 875
f 878 880 879 877
f 880 882 881 879
f 882 884 883 881
f 884 886 885 883
f 886 888 887 885
f 888 890 889 887
f 890 892 891 889
f 892 894 893 891
f 894 896 895 893
f 896 898 897 895
f 898 900 899 897
f 900 902 901 899
f 902 904 903 901
f 904 906 905 903
f 906 908 907 905
f 908 910 909 907
f 910 912 911 909
f 912 914 913 911
f 914 916 915 913
f 916 918 917 915
f 918 920 919 917
f 920 922 921 919
f 922 924 923 921
f 924 926 925 923
f 926 928 927 925
f 928 930 929 927
f 930 932 931 929
f 932 934 933 931
f 934 936 935 933
f 936 938 937 935
f 938 940 939 937
f 940 942 941 939
f 942 944 943 941
f 944 946 945 943
f 946 948 947 945
f 948 950 949 947
f 950 952 951 949
f 952 954 953 951
f 954 956 955 953
f 956 958 957 955
f 958 960 959 957
f 960 962 961 959
f 962 964 963 961
f 964 966 965 963
f 966 968 967 965
f 968 970 969 967
f 970 972 971 969
f 972 974 973 971
f 974 976 975 973
f 976 978 977 975
f 978 980 979 977
f 980 982 981 979
f 982 984 983 981
f 984 986 985 983
f 986 988 987 985
f 988 990 989 987
f 990 992 991 989
f 992 994 993 991
f 994 996 995 993
f 996 998 997 995
f 998 1000 999 997
f 1000 1002 1001 999
f 1002 1004 1003 1001
f 1004 1006 1005 1003
f 1006 1008 1007 1005
f 1008 1010 1009 1007
f 1010 1012 1011 1009
f 1012 1014 1013 1011
f 1014 1016 1015 1013
f 1016 1018 1017 1015
f 1018 1020 1019 1017
f 1020 1022 1021 1019
f 1022 1024 1023 1021
f 1024 1026 1025 1023
f 1026 1028 1027 1025
f 1028 1030 1029 1027
f 1030 1032 1031 1029
f 1032 1034 1033 1031
f 1034 1036 1035 1033
f 1036 1038 1037 1035
f 1038 1040 1039 1037
f 1040 1042 1041 1039
f 1042 1044 1043 1041
f 1044 1046 1045 1043
f 1046 1048 1047 1045
f 1048 1050 1049 1047
f 1050 1052 1051 1049
f 1052 1054 1053 1051
f 1054 1056 1055 1053
f 1056 1058 1057 1055
f 1058 1060 1059 1057
f 1060 1062 1061 1059
f 1062 1064 1063 1061
f 1064 1066 1065 1063
f 1066 1068 1067 1065
f 1068 1070 1069 1067
f 1070 1072 1071 1069
f 1072 1074 1073 1071
f 1074 1076 1075 1073
f 1076 1078 1077 1075
f 1078 1080 1079 1077
f 1080 1082 1081 1079
f 1082 1084 1083 1081
f 1084 1086 1085 1083
f 1086 1088 1087 1085
f 1088 1090 1089 1087
f 1090 1092 1091 1089
f 1092 1094 1093 1091
f 1094 1096 1095 1093
f 1096 1098 1097 1095
f 1098 1100 1099 1097
f 1100 1102 1101 1099
f 1102 1104 1103 1101
f 1104 1106 1105 1103
f 1106 1108 1107 1105
f 1108 1110 1109 1107
f 1110 1112 1111 1109
f 1112 1114 1113 1111
f 1114 1116 1115 1113
f 1116 1118 1117 1115
f 1118 1120 1119 1117
f 1120 1122 1121 1119
f 1122 1124 1123 1121
f 1124 1126 1125 1123
f 1126 1128 1127 1125
f 1128 1130 1129 1127
f 1130 1132 1131 1129
f 1132 1134 1133 1131
f 1134 1136 1135 1133
f 1136 1138 1137 1135
f 1138 1140 1139 1137
f 1140 1142 1141 1139
f 1142 876 875 1141
f 1144 1146 1145 1143
f 1146 1148 1147 1145
f 1148 1150 1149 1147
f 1150 1152 1151 1149
f 1152 1154 1153 1151
f 1154 1156 1155 1153
f 1156 1158 1157 1155
f 1158 1160 1159 1157
f 1160 1162 1161 1159
f 1162 1164 1163 1161
f 1164 1166 1165 1163
f 1166 1168 1167 1165
f 1168 1170 1169 1167
f 1170 1172 1171 1169
f 1172 1174 1173 1171
f 1174 1176 1175 1173
f 1176 1178 1177 1175
f 1178 1180 1179 1177
f 1180 1182 1181 1179
f 1182 1184 1183 1181
f 1184 1186 1185 1183
f 1186 1188 1187 1185
f 1188 1190 1189 1187
f 1190 1192 1191 1189
f 1192 1194 1193 1191
f 1194 1196 1195 1193
f 1196 1198 1197 1195
f 1198 1200 1199 1197
f 1200 1202 1201 1199
f 1202 1204 1203 1201
f 1204 1206 1205 1203
f 1206 1208 1207 1205
f 1208 1210 1209 1207
f 1210 1212 1211 1209
f 1212 1214 1213 1211
f 1214 1216 1215 1213
f 1216 1218 1217 1215
f 1218 1220 1219 1217
f 1220 1222 1221 1219
f 1222 1224 1223 1221
f 1224 1226 1225 1223
f 1226 1228 1227 1225
f 1228 1230 1229 1227
f 1230 1232 1231 1229
f 1232 1234 1233 1231
f 1234 1236 1235 1233
f 1236 1238 1237 1235
f 1238 1240 1239 1237
f 1240 1242 1241 1239
f 1242 1244 1243 1241
f 1244 1246 1245 1243
f 1246 1248 1247 1245
f 1248 1250 1249 1247
f 1250 1252 1251 1249
f 1252 1254 1253 1251
f 1254 1256 1255 1253
f 1256 1144 1143 1255
f 1258 1260 1259 1257
f 1260 1262 1261 1259
f 1262 1264 1263 1261
f 1264 1258 1257 1263
f 1266 1268 1267 1265
f 1268 1270 1269 1267
f 1270 1272 1271 1269
f 1272 1274 1273 1271
f 1274 1276 1275 1273
f 1276 1278 1277 1275
f 1278 1280 1279 1277
f 1280 1282 1281 1279
f 1282 1284 1283 1281
f 1284 1286 1285 1283
f 1286 1288 1287 1285
f 1288 1290 1289 1287
f 1290 1292 1291 1289
f 1292 1294 1293 1291
f 1294 1296 1295 1293
f 1296 1298 1297 1295
f 1298 1300 1299 1297
f 1300 1302 1301 1299
f 1302 1304 1303 1301
f 1304 1306 1305 1303
f 1306 1308 1307 1305
f 1308 1310 1309 1307
f 1310 1312 1311 1309
f 1312 1314 1313 1311
f 1314 1316 1315 1313
f 1316 1318 1317 1315
f 1318 1320 1319 1317
f 1320 1322 1321 1319
f 1322 1324 1323 1321
f 1324 1326 1325 1323
f 1326 1328 1327 1325
f 1328 1330 1329 1327
f 1330 1332 1331 1329
f 1332 1334 1333 1331
f 1334 1336 1335 1333
f 1336 1338 1337 1335
f 1338 1340 1339 1337
f 1340 1342 1341 1339
f 1342 1344 1343 1341
f 1344 1346 1345 1343
f 1346 1348 1347 1345
f 1348 1350 1349 1347
f 1350 1352 1351 1349
f 1352 1354 1353 1351
f 1354 1356 1355 1353
f 1356 1358 1357 1355
f 1358 1360 1359 1357
f 1360 1266 1265 1359
f 1362 1364 1363 1361
f 1364 1366 1365 1363
f 1366 1368 1367 1365
f 1368 1370 1369 1367
f 1370 1372 1371 1369
f 1372 1374 1373 1371
f 1374 1376 1375 1373
f 1376 1378 1377 1375
f 1378 1380 1379 1377
f 1380 1382 1381 1379
f 1382 1384 1383 1381
f 1384 1386 1385 1383
f 1386 1388 1387 1385
f 1388 1390 1389 1387
f 1390 1392 1391 1389
f 1392 1394 1393 1391
f 1394 1396 1395 1393
f 1396 1398 1397 1395
f 1398 1400 1399 1397
f 1400 1402 1401 1399
f 1402 1404 1403 1401
f 1404 1406 1405 1403
f 1406 1408 1407 1405
f 1408 1410 1409 1407
f 1410 1412 1411 1409
f 1412 1414 1413 1411
f 1414 1416 1415 1413
f 1416 1418 1417 1415
f 1418 1420 1419 1417
f 1420 1422 1421 1419
f 1422 1424 1423 1421
f 1424 1426 1425 1423
f 1426 1428 1427 1425
f 1428 1430 1429 1427
f 1430 1432 1431 1429
f 1432 1434 1433 1431
f 1434 1436 1435 1433
f 1436 1438 1437 1435
f 1438 1440 1439 1437
f 1440 1442 1441 1439
f 1442 1444 1443 1441
f 1444 1446 1445 1443
f 1446 1448 1447 1445
f 1448 1450 1449 1447
f 1450 1452 1451 1449
f 1452 1454 1453 1451
f 1454 1456 1455 1453
f 1456 1458 1457 1455
f 1458 1460 1459 1457
f 1460 1462 1461 1459
f 1462 1464 1463 1461
f 1464 1466 1465 1463
f 1466 1468 1467 1465
f 1468 1470 1469 1467
f 1470 1472 1471 1469
f 1472 1474 1473 1471
f 1474 1476 1475 1473
f 1476 1478 1477 1475
f 1478 1480 1479 1477
f 1480 1362 1361 1479
f 1482 1484 1483 1481
f 1484 1486 1485 1483
f 1486 1488 1487 1485
f 1488 1490 1489 1487
f 1490 1492 1491 1489
f 1492 1494 1493 1491
f 1494 1496 1495 1493
f 1496 1498 1497 1495
f 1498 1500 1499 1497
f 1500 1502 1501 1499
f 1502 1504 1503 1501
f 1504 1506 1505 1503
f 1506 1508 1507 1505
f 1508 1510 1509 1507
f 1510 1512 1511 1509
f 1512 1514 1513 1511
f 1514 1516 1515 1513
f 1516 1518 1517 1515
f 1518 1520 1519 1517
f 1520 1522 1521 1519
f 1522 1524 1523 1521
f 1524 1526 1525 1523
f 1526 1528 1527 1525
f 1528 1530 1529 1527
f 1530 1532 1531 1529
f 1532 1534 1533 1531
f 1534 1536 1535 1533
f 1536 1538 1537 1535
f 1538 1540 1539 1537
f 1540 1542 1541 1539
f 1542 1544 1543 1541
f 1544 1546 1545 1543
f 1546 1548 1547 1545
f 1548 1550 1549 1547
f 1550 1552 1551 1549
f 1552 1554 1553 1551
f 1554 1556 1555 1553
f 1556 1558 1557 1555
f 1558 1560 1559 1557
f 1560 1562 1561 1559
f 1562 1564 1563 1561
f 1564 1566 1565 1563
f 1566 1568 1567 1565
f 1568 1570 1569 1567
f 1570 1572 1571 1569
f 1572 1574 1573 1571
f 1574 1576 1575 1573
f 1576 1578 1577 1575
f 1578 1580 1579 1577
f 1580 1582 1581 1579
f 1582 1584 1583 1581
f 1584 1586 1585 1583
f 1586 1588 1587 1585
f 1588 1590 1589 1587
f 1590 1592 1591 1589
f 1592 1594 1593 1591
f 1594 1596 1595 1593
f 1596 1482 1481 1595
