mtllib keyboard_key_0_2_F2_link.mtl
o keyboard_key_0_2_F2_link

g keyboard_key_0_2_F2_SOLID
v -0.0164999962 -0.0119999945 0
v -0.0164999962 -0.00849999487 -0.00349999964
v -0.0199999958 -0.00849999487 0
v -0.0164999962 -0.0117335767 -0.00133939087
v -0.0164999962 -0.0109748691 -0.00247487426
v -0.0178393871 -0.0117335767 0
v -0.0178729594 -0.0114120394 -0.00137295946
v -0.0178032964 -0.0107968897 -0.00229689106
v -0.0185207278 -0.0105207264 -0.00202072784
v -0.0178393871 -0.00849999487 -0.00323357806
v -0.0189748704 -0.00849999487 -0.00247487426
v -0.0164999962 -0.00983938575 -0.00323357806
v -0.0178729594 -0.00987295806 -0.0029120408
v -0.018796891 -0.00980329514 -0.00229689106
v -0.019733578 -0.00983938575 0
v -0.0189748704 -0.0109748691 0
v -0.019733578 -0.00849999487 -0.00133939087
v -0.0194120407 -0.00987295806 -0.00137295946
v -0.018796891 -0.0107968897 -0.00130329654
v 0.0164999962 -0.0119999945 0
v 0.0199999958 -0.00849999487 0
v 0.0164999962 -0.00849999487 -0.00349999964
v 0.0178393871 -0.0117335767 0
v 0.0189748704 -0.0109748691 0
v 0.0164999962 -0.0117335767 -0.00133939087
v 0.0178729594 -0.0114120394 -0.00137295946
v 0.018796891 -0.0107968897 -0.00130329654
v 0.0185207278 -0.0105207264 -0.00202072784
v 0.019733578 -0.00849999487 -0.00133939087
v 0.0189748704 -0.00849999487 -0.00247487426
v 0.019733578 -0.00983938575 0
v 0.0194120407 -0.00987295806 -0.00137295946
v 0.018796891 -0.00980329514 -0.00229689106
v 0.0164999962 -0.00983938575 -0.00323357806
v 0.0164999962 -0.0109748691 -0.00247487426
v 0.0178393871 -0.00849999487 -0.00323357806
v 0.0178729594 -0.00987295806 -0.0029120408
v 0.0178032964 -0.0107968897 -0.00229689106
v 0.0164999962 0.0119999945 0
v 0.0164999962 0.00849999487 -0.00349999964
v 0.0199999958 0.00849999487 0
v 0.0164999962 0.0117335767 -0.00133939087
v 0.0164999962 0.0109748691 -0.00247487426
v 0.0178393871 0.0117335767 0
v 0.0178729594 0.0114120394 -0.00137295946
v 0.0178032964 0.0107968897 -0.00229689106
v 0.0185207278 0.0105207264 -0.00202072784
v 0.0178393871 0.00849999487 -0.00323357806
v 0.0189748704 0.00849999487 -0.00247487426
v 0.0164999962 0.00983938575 -0.00323357806
v 0.0178729594 0.00987295806 -0.0029120408
v 0.018796891 0.00980329514 -0.00229689106
v 0.019733578 0.00983938575 0
v 0.0189748704 0.0109748691 0
v 0.019733578 0.00849999487 -0.00133939087
v 0.0194120407 0.00987295806 -0.00137295946
v 0.018796891 0.0107968897 -0.00130329654
v -0.0164999962 0.0119999945 0
v -0.0199999958 0.00849999487 0
v -0.0164999962 0.00849999487 -0.00349999964
v -0.0178393871 0.0117335767 0
v -0.0189748704 0.0109748691 0
v -0.0164999962 0.0117335767 -0.00133939087
v -0.0178729594 0.0114120394 -0.00137295946
v -0.018796891 0.0107968897 -0.00130329654
v -0.0185207278 0.0105207264 -0.00202072784
v -0.019733578 0.00849999487 -0.00133939087
v -0.0189748704 0.00849999487 -0.00247487426
v -0.019733578 0.00983938575 0
v -0.0194120407 0.00987295806 -0.00137295946
v -0.018796891 0.00980329514 -0.00229689106
v -0.0164999962 0.00983938575 -0.00323357806
v -0.0164999962 0.0109748691 -0.00247487426
v -0.0178393871 0.00849999487 -0.00323357806
v -0.0178729594 0.00987295806 -0.0029120408
v -0.0178032964 0.0107968897 -0.00229689106
v -0.0199999958 -0.00849999487 0
v -0.0164999962 -0.00849999487 0.00350000337
v -0.0164999962 -0.0119999945 0
v -0.019733578 -0.00849999487 0.00133939087
v -0.0189748704 -0.00849999487 0.00247487426
v -0.019733578 -0.00983938575 0
v -0.0194120407 -0.00987295806 0.00137295946
v -0.018796891 -0.00980329514 0.00229689106
v -0.0185207278 -0.0105207264 0.00202072784
v -0.0164999962 -0.00983938575 0.00323357806
v -0.0164999962 -0.0109748691 0.00247487426
v -0.0178393871 -0.00849999487 0.00323357806
v -0.0178729594 -0.00987295806 0.0029120408
v -0.0178032964 -0.0107968897 0.00229689106
v -0.0178393871 -0.0117335767 0
v -0.0189748704 -0.0109748691 0
v -0.0164999962 -0.0117335767 0.00133939087
v -0.0178729594 -0.0114120394 0.00137295946
v -0.018796891 -0.0107968897 0.00130329654
v 0.0164999962 -0.0119999945 0
v 0.0164999962 -0.00849999487 0.00350000337
v 0.0199999958 -0.00849999487 0
v 0.0164999962 -0.0117335767 0.00133939087
v 0.0164999962 -0.0109748691 0.00247487426
v 0.0178393871 -0.0117335767 0
v 0.0178729594 -0.0114120394 0.00137295946
v 0.0178032964 -0.0107968897 0.00229689106
v 0.0185207278 -0.0105207264 0.00202072784
v 0.0178393871 -0.00849999487 0.00323357806
v 0.0189748704 -0.00849999487 0.00247487426
v 0.0164999962 -0.00983938575 0.00323357806
v 0.0178729594 -0.00987295806 0.0029120408
v 0.018796891 -0.00980329514 0.00229689106
v 0.019733578 -0.00983938575 0
v 0.0189748704 -0.0109748691 0
v 0.019733578 -0.00849999487 0.00133939087
v 0.0194120407 -0.00987295806 0.00137295946
v 0.018796891 -0.0107968897 0.00130329654
v 0.0164999962 0.00849999487 0.00350000337
v 0.0164999962 0.0119999945 0
v 0.0199999958 0.00849999487 0
v 0.0164999962 0.00983938575 0.00323357806
v 0.0164999962 0.0109748691 0.00247487426
v 0.0178393871 0.00849999487 0.00323357806
v 0.0178729594 0.00987295806 0.0029120408
v 0.0178032964 0.0107968897 0.00229689106
v 0.0185207278 0.0105207264 0.00202072784
v 0.0178393871 0.0117335767 0
v 0.0189748704 0.0109748691 0
v 0.0164999962 0.0117335767 0.00133939087
v 0.0178729594 0.0114120394 0.00137295946
v 0.018796891 0.0107968897 0.00130329654
v 0.019733578 0.00849999487 0.00133939087
v 0.0189748704 0.00849999487 0.00247487426
v 0.019733578 0.00983938575 0
v 0.0194120407 0.00987295806 0.00137295946
v 0.018796891 0.00980329514 0.00229689106
v -0.0199999958 0.00849999487 0
v -0.0164999962 0.0119999945 0
v -0.0164999962 0.00849999487 0.00350000337
v -0.019733578 0.00983938575 0
v -0.0189748704 0.0109748691 0
v -0.019733578 0.00849999487 0.00133939087
v -0.0194120407 0.00987295806 0.00137295946
v -0.018796891 0.0107968897 0.00130329654
v -0.0185207278 0.0105207264 0.00202072784
v -0.0164999962 0.0117335767 0.00133939087
v -0.0164999962 0.0109748691 0.00247487426
v -0.0178393871 0.0117335767 0
v -0.0178729594 0.0114120394 0.00137295946
v -0.0178032964 0.0107968897 0.00229689106
v -0.0178393871 0.00849999487 0.00323357806
v -0.0189748704 0.00849999487 0.00247487426
v -0.0164999962 0.00983938575 0.00323357806
v -0.0178729594 0.00987295806 0.0029120408
v -0.018796891 0.00980329514 0.00229689106
usemtl matte_black_keycaps_003
f 59 134 77 3
f 2 22 40 60
f 39 116 135 58
f 78 136 115 97
f 21 98 117 41
f 1 4 7 6
f 4 5 8 7
f 6 7 19 16
f 7 8 9 19
f 2 10 13 12
f 10 11 14 13
f 12 13 8 5
f 13 14 9 8
f 3 15 18 17
f 15 16 19 18
f 17 18 14 11
f 18 19 9 14
f 20 23 26 25
f 23 24 27 26
f 25 26 38 35
f 26 27 28 38
f 21 29 32 31
f 29 30 33 32
f 31 32 27 24
f 32 33 28 27
f 22 34 37 36
f 34 35 38 37
f 36 37 33 30
f 37 38 28 33
f 39 42 45 44
f 42 43 46 45
f 44 45 57 54
f 45 46 47 57
f 40 48 51 50
f 48 49 52 51
f 50 51 46 43
f 51 52 47 46
f 41 53 56 55
f 53 54 57 56
f 55 56 52 49
f 56 57 47 52
f 58 61 64 63
f 61 62 65 64
f 63 64 76 73
f 64 65 66 76
f 59 67 70 69
f 67 68 71 70
f 69 70 65 62
f 70 71 66 65
f 60 72 75 74
f 72 73 76 75
f 74 75 71 68
f 75 76 66 71
f 77 80 83 82
f 80 81 84 83
f 82 83 95 92
f 83 84 85 95
f 78 86 89 88
f 86 87 90 89
f 88 89 84 81
f 89 90 85 84
f 79 91 94 93
f 91 92 95 94
f 93 94 90 87
f 94 95 85 90
f 96 99 102 101
f 99 100 103 102
f 101 102 114 111
f 102 103 104 114
f 97 105 108 107
f 105 106 109 108
f 107 108 103 100
f 108 109 104 103
f 98 110 113 112
f 110 111 114 113
f 112 113 109 106
f 113 114 104 109
f 115 118 121 120
f 118 119 122 121
f 120 121 133 130
f 121 122 123 133
f 116 124 127 126
f 124 125 128 127
f 126 127 122 119
f 127 128 123 122
f 117 129 132 131
f 129 130 133 132
f 131 132 128 125
f 132 133 123 128
f 134 137 140 139
f 137 138 141 140
f 139 140 152 149
f 140 141 142 152
f 135 143 146 145
f 143 144 147 146
f 145 146 141 138
f 146 147 142 141
f 136 148 151 150
f 148 149 152 151
f 150 151 147 144
f 151 152 142 147
f 39 58 63 42
f 42 63 73 43
f 43 73 72 50
f 50 72 60 40
f 1 20 25 4
f 4 25 35 5
f 5 35 34 12
f 12 34 22 2
f 21 41 55 29
f 29 55 49 30
f 30 49 48 36
f 36 48 40 22
f 2 60 74 10
f 10 74 68 11
f 11 68 67 17
f 17 67 59 3
f 3 77 82 15
f 15 82 92 16
f 16 92 91 6
f 6 91 79 1
f 78 97 107 86
f 86 107 100 87
f 87 100 99 93
f 93 99 96 79
f 97 115 120 105
f 105 120 130 106
f 106 130 129 112
f 112 129 117 98
f 77 134 139 80
f 80 139 149 81
f 81 149 148 88
f 88 148 136 78
f 20 96 101 23
f 23 101 111 24
f 24 111 110 31
f 31 110 98 21
f 41 117 131 53
f 53 131 125 54
f 54 125 124 44
f 44 124 116 39
f 115 136 150 118
f 118 150 144 119
f 119 144 143 126
f 126 143 135 116
f 58 135 145 61
f 61 145 138 62
f 62 138 137 69
f 69 137 134 59
f 1 79 96 20

g key_legend_0_2_F2
v -0.00081500411 -0.00400000811 0.00450000539
v -0.00081500411 -0.00393000245 0.00450000539
v -0.000621899962 -0.00369596481 0.00450000539
v -0.000419303775 -0.00345018506 0.00450000539
v -0.000209838152 -0.00319468975 0.00450000539
v 3.88920307e-06 -0.00293149054 0.00450000539
v 0.000219285488 -0.00266258419 0.00450000539
v 0.000433743 -0.00238999724 0.00450000539
v 0.000644668937 -0.00211575627 0.00450000539
v 0.000849440694 -0.00184185803 0.00450000539
v 0.00104546547 -0.00157031417 0.00450000539
v 0.00123013556 -0.00130315125 0.00450000539
v 0.00140084326 -0.00104238093 0.00450000539
v 0.00155499578 -0.000789999962 0.00450000539
v 0.00163166225 -0.000656619668 0.00450000539
v 0.0017016679 -0.000530466437 0.00450000539
v 0.00176499784 -0.00041000545 0.00450000539
v 0.00182166696 -0.000293701887 0.00450000539
v 0.00187166035 -0.000180050731 0.00450000539
v 0.00191499293 -6.75022602e-05 0.00450000539
v 0.00195166469 4.54634428e-05 0.00450000539
v 0.00198166072 0.000160366297 0.00450000539
v 0.00200499594 0.000278741121 0.00450000539
v 0.00202167034 0.000402122736 0.00450000539
v 0.00203166902 0.000532031059 0.00450000539
v 0.00203499198 0.000670000911 0.00450000539
v 0.00202476978 0.00085273385 0.00450000539
v 0.00199486315 0.00102522969 0.00450000539
v 0.00194640458 0.00118640065 0.00450000539
v 0.00188055634 0.00133518875 0.00450000539
v 0.00179845095 0.00147049129 0.00450000539
v 0.00170125067 0.0015912503 0.00450000539
v 0.00159008801 0.00169637799 0.00450000539
v 0.00146611035 0.00178481638 0.00450000539
v 0.00133046508 0.00185546279 0.00450000539
v 0.00118429959 0.00190725923 0.00450000539
v 0.00102876127 0.00193913281 0.00450000539
v 0.000864997506 0.00194999576 0.00450000539
v 0.000742271543 0.00194525719 0.00450000539
v 0.000618979335 0.00193046033 0.00450000539
v 0.000495001674 0.00190468132 0.00450000539
v 0.000370189548 0.00186704099 0.00450000539
v 0.000244393945 0.00181660056 0.00450000539
v 0.000117495656 0.00175249577 0.00450000539
v -1.06543303e-05 0.00167380273 0.00450000539
v -0.000140190125 0.00157962739 0.00450000539
v -0.000271245837 0.00146906078 0.00450000539
v -0.000403985381 0.00134120882 0.00450000539
v -0.000538513064 0.00119514763 0.00450000539
v -0.000675007701 0.00102999806 0.00450000539
v -0.000675007701 0.00225999951 0.00450000539
v -0.000538289547 0.00236521661 0.00450000539
v -0.000402957201 0.00246092677 0.00450000539
v -0.000268757343 0.00254718959 0.00450000539
v -0.000135377049 0.00262406468 0.00450000539
v -2.54809856e-06 0.00269165635 0.00450000539
v 0.00012999773 0.0027499944 0.00450000539
v 0.000262543559 0.00279918313 0.00450000539
v 0.00039537251 0.00283925235 0.00450000539
v 0.000528752804 0.00287030637 0.00450000539
v 0.000662967563 0.00289240479 0.00450000539
v 0.000798285007 0.00290560722 0.00450000539
v 0.000935003161 0.00291000307 0.00450000539
v 0.00123430789 0.00289215147 0.00450000539
v 0.00151616335 0.00283971429 0.00450000539
v 0.00177890062 0.00275437534 0.00450000539
v 0.00202092528 0.00263777375 0.00450000539
v 0.0022405833 0.00249159336 0.00450000539
v 0.00243625045 0.00231750309 0.00450000539
v 0.0026062876 0.00211715698 0.00450000539
v 0.00274907053 0.00189222395 0.00450000539
v 0.002862975 0.00164437294 0.00450000539
v 0.002946347 0.00137527287 0.00450000539
v 0.00299756229 0.00108659267 0.00450000539
v 0.00301499665 0.000780001283 0.00450000539
v 0.00300231576 0.000505641103 0.00450000539
v 0.00296351314 0.00023509562 0.00450000539
v 0.00289750099 -3.5315752e-05 0.00450000539
v 0.00280314684 -0.000309258699 0.00450000539
v 0.00267934799 -0.00059042871 0.00450000539
v 0.00252500176 -0.000882506371 0.00450000539
v 0.00233897567 -0.00118915737 0.00450000539
v 0.00212018192 -0.00151407719 0.00450000539
v 0.00186750293 -0.00186094642 0.00450000539
v 0.00157980621 -0.00223343074 0.00450000539
v 0.00125601888 -0.00263522565 0.00450000539
v 0.000894993544 -0.00306999683 0.00450000539
v 0.00350499153 -0.00306999683 0.00450000539
v 0.00350499153 -0.00400000811 0.00450000539
v -0.00410500169 0.00193999708 0.00450000539
v -0.00410500169 4.99933958e-05 0.00450000539
v -0.0014449954 4.99933958e-05 0.00450000539
v -0.0014449954 -0.000829994678 0.00450000539
v -0.00410500169 -0.000829994678 0.00450000539
v -0.00410500169 -0.00400000811 0.00450000539
v -0.00508500636 -0.00400000811 0.00450000539
v -0.00508500636 0.00282000005 0.00450000539
v -0.0014449954 0.00282000005 0.00450000539
v -0.0014449954 0.00193999708 0.00450000539
v -0.00081500411 -0.00400000811 0.00409999862
v -0.00081500411 -0.00393000245 0.00409999862
v -0.000621899962 -0.00369596481 0.00409999862
v -0.000419303775 -0.00345018506 0.00409999862
v -0.000209838152 -0.00319468975 0.00409999862
v 3.88920307e-06 -0.00293149054 0.00409999862
v 0.000219285488 -0.00266258419 0.00409999862
v 0.000433743 -0.00238999724 0.00409999862
v 0.000644668937 -0.00211575627 0.00409999862
v 0.000849440694 -0.00184185803 0.00409999862
v 0.00104546547 -0.00157031417 0.00409999862
v 0.00123013556 -0.00130315125 0.00409999862
v 0.00140084326 -0.00104238093 0.00409999862
v 0.00155499578 -0.000789999962 0.00409999862
v 0.00163166225 -0.000656619668 0.00409999862
v 0.0017016679 -0.000530466437 0.00409999862
v 0.00176499784 -0.00041000545 0.00409999862
v 0.00182166696 -0.000293701887 0.00409999862
v 0.00187166035 -0.000180050731 0.00409999862
v 0.00191499293 -6.75022602e-05 0.00409999862
v 0.00195166469 4.54634428e-05 0.00409999862
v 0.00198166072 0.000160366297 0.00409999862
v 0.00200499594 0.000278741121 0.00409999862
v 0.00202167034 0.000402122736 0.00409999862
v 0.00203166902 0.000532031059 0.00409999862
v 0.00203499198 0.000670000911 0.00409999862
v 0.00202476978 0.00085273385 0.00409999862
v 0.00199486315 0.00102522969 0.00409999862
v 0.00194640458 0.00118640065 0.00409999862
v 0.00188055634 0.00133518875 0.00409999862
v 0.00179845095 0.00147049129 0.00409999862
v 0.00170125067 0.0015912503 0.00409999862
v 0.00159008801 0.00169637799 0.00409999862
v 0.00146611035 0.00178481638 0.00409999862
v 0.00133046508 0.00185546279 0.00409999862
v 0.00118429959 0.00190725923 0.00409999862
v 0.00102876127 0.00193913281 0.00409999862
v 0.000864997506 0.00194999576 0.00409999862
v 0.000742271543 0.00194525719 0.00409999862
v 0.000618979335 0.00193046033 0.00409999862
v 0.000495001674 0.00190468132 0.00409999862
v 0.000370189548 0.00186704099 0.00409999862
v 0.000244393945 0.00181660056 0.00409999862
v 0.000117495656 0.00175249577 0.00409999862
v -1.06543303e-05 0.00167380273 0.00409999862
v -0.000140190125 0.00157962739 0.00409999862
v -0.000271245837 0.00146906078 0.00409999862
v -0.000403985381 0.00134120882 0.00409999862
v -0.000538513064 0.00119514763 0.00409999862
v -0.000675007701 0.00102999806 0.00409999862
v -0.000675007701 0.00225999951 0.00409999862
v -0.000538289547 0.00236521661 0.00409999862
v -0.000402957201 0.00246092677 0.00409999862
v -0.000268757343 0.00254718959 0.00409999862
v -0.000135377049 0.00262406468 0.00409999862
v -2.54809856e-06 0.00269165635 0.00409999862
v 0.00012999773 0.0027499944 0.00409999862
v 0.000262543559 0.00279918313 0.00409999862
v 0.00039537251 0.00283925235 0.00409999862
v 0.000528752804 0.00287030637 0.00409999862
v 0.000662967563 0.00289240479 0.00409999862
v 0.000798285007 0.00290560722 0.00409999862
v 0.000935003161 0.00291000307 0.00409999862
v 0.00123430789 0.00289215147 0.00409999862
v 0.00151616335 0.00283971429 0.00409999862
v 0.00177890062 0.00275437534 0.00409999862
v 0.00202092528 0.00263777375 0.00409999862
v 0.0022405833 0.00249159336 0.00409999862
v 0.00243625045 0.00231750309 0.00409999862
v 0.0026062876 0.00211715698 0.00409999862
v 0.00274907053 0.00189222395 0.00409999862
v 0.002862975 0.00164437294 0.00409999862
v 0.002946347 0.00137527287 0.00409999862
v 0.00299756229 0.00108659267 0.00409999862
v 0.00301499665 0.000780001283 0.00409999862
v 0.00300231576 0.000505641103 0.00409999862
v 0.00296351314 0.00023509562 0.00409999862
v 0.00289750099 -3.5315752e-05 0.00409999862
v 0.00280314684 -0.000309258699 0.00409999862
v 0.00267934799 -0.00059042871 0.00409999862
v 0.00252500176 -0.000882506371 0.00409999862
v 0.00233897567 -0.00118915737 0.00409999862
v 0.00212018192 -0.00151407719 0.00409999862
v 0.00186750293 -0.00186094642 0.00409999862
v 0.00157980621 -0.00223343074 0.00409999862
v 0.00125601888 -0.00263522565 0.00409999862
v 0.000894993544 -0.00306999683 0.00409999862
v 0.00350499153 -0.00306999683 0.00409999862
v 0.00350499153 -0.00400000811 0.00409999862
v -0.00410500169 0.00193999708 0.00409999862
v -0.00410500169 4.99933958e-05 0.00409999862
v -0.0014449954 4.99933958e-05 0.00409999862
v -0.0014449954 -0.000829994678 0.00409999862
v -0.00410500169 -0.000829994678 0.00409999862
v -0.00410500169 -0.00400000811 0.00409999862
v -0.00508500636 -0.00400000811 0.00409999862
v -0.00508500636 0.00282000005 0.00409999862
v -0.0014449954 0.00282000005 0.00409999862
v -0.0014449954 0.00193999708 0.00409999862
v -0.00410500169 0.00193999708 0.00409999862
v -0.00410500169 0.00193999708 0.00450000539
v -0.00410500169 4.99933958e-05 0.00409999862
v -0.00410500169 4.99933958e-05 0.00450000539
v -0.0014449954 4.99933958e-05 0.00409999862
v -0.0014449954 4.99933958e-05 0.00450000539
v -0.0014449954 -0.000829994678 0.00409999862
v -0.0014449954 -0.000829994678 0.00450000539
v -0.00410500169 -0.000829994678 0.00409999862
v -0.00410500169 -0.000829994678 0.00450000539
v -0.00410500169 -0.00400000811 0.00409999862
v -0.00410500169 -0.00400000811 0.00450000539
v -0.00508500636 -0.00400000811 0.00409999862
v -0.00508500636 -0.00400000811 0.00450000539
v -0.00508500636 0.00282000005 0.00409999862
v -0.00508500636 0.00282000005 0.00450000539
v -0.0014449954 0.00282000005 0.00409999862
v -0.0014449954 0.00282000005 0.00450000539
v -0.0014449954 0.00193999708 0.00409999862
v -0.0014449954 0.00193999708 0.00450000539
v -0.00081500411 -0.00400000811 0.00409999862
v -0.00081500411 -0.00400000811 0.00450000539
v -0.00081500411 -0.00393000245 0.00409999862
v -0.00081500411 -0.00393000245 0.00450000539
v -0.000621899962 -0.00369596481 0.00409999862
v -0.000621899962 -0.00369596481 0.00450000539
v -0.000419303775 -0.00345018506 0.00409999862
v -0.000419303775 -0.00345018506 0.00450000539
v -0.000209838152 -0.00319468975 0.00409999862
v -0.000209838152 -0.00319468975 0.00450000539
v 3.88920307e-06 -0.00293149054 0.00409999862
v 3.88920307e-06 -0.00293149054 0.00450000539
v 0.000219285488 -0.00266258419 0.00409999862
v 0.000219285488 -0.00266258419 0.00450000539
v 0.000433743 -0.00238999724 0.00409999862
v 0.000433743 -0.00238999724 0.00450000539
v 0.000644668937 -0.00211575627 0.00409999862
v 0.000644668937 -0.00211575627 0.00450000539
v 0.000849440694 -0.00184185803 0.00409999862
v 0.000849440694 -0.00184185803 0.00450000539
v 0.00104546547 -0.00157031417 0.00409999862
v 0.00104546547 -0.00157031417 0.00450000539
v 0.00123013556 -0.00130315125 0.00409999862
v 0.00123013556 -0.00130315125 0.00450000539
v 0.00140084326 -0.00104238093 0.00409999862
v 0.00140084326 -0.00104238093 0.00450000539
v 0.00155499578 -0.000789999962 0.00409999862
v 0.00155499578 -0.000789999962 0.00450000539
v 0.00163166225 -0.000656619668 0.00409999862
v 0.00163166225 -0.000656619668 0.00450000539
v 0.0017016679 -0.000530466437 0.00409999862
v 0.0017016679 -0.000530466437 0.00450000539
v 0.00176499784 -0.00041000545 0.00409999862
v 0.00176499784 -0.00041000545 0.00450000539
v 0.00182166696 -0.000293701887 0.00409999862
v 0.00182166696 -0.000293701887 0.00450000539
v 0.00187166035 -0.000180050731 0.00409999862
v 0.00187166035 -0.000180050731 0.00450000539
v 0.00191499293 -6.75022602e-05 0.00409999862
v 0.00191499293 -6.75022602e-05 0.00450000539
v 0.00195166469 4.54634428e-05 0.00409999862
v 0.00195166469 4.54634428e-05 0.00450000539
v 0.00198166072 0.000160366297 0.00409999862
v 0.00198166072 0.000160366297 0.00450000539
v 0.00200499594 0.000278741121 0.00409999862
v 0.00200499594 0.000278741121 0.00450000539
v 0.00202167034 0.000402122736 0.00409999862
v 0.00202167034 0.000402122736 0.00450000539
v 0.00203166902 0.000532031059 0.00409999862
v 0.00203166902 0.000532031059 0.00450000539
v 0.00203499198 0.000670000911 0.00409999862
v 0.00203499198 0.000670000911 0.00450000539
v 0.00202476978 0.00085273385 0.00409999862
v 0.00202476978 0.00085273385 0.00450000539
v 0.00199486315 0.00102522969 0.00409999862
v 0.00199486315 0.00102522969 0.00450000539
v 0.00194640458 0.00118640065 0.00409999862
v 0.00194640458 0.00118640065 0.00450000539
v 0.00188055634 0.00133518875 0.00409999862
v 0.00188055634 0.00133518875 0.00450000539
v 0.00179845095 0.00147049129 0.00409999862
v 0.00179845095 0.00147049129 0.00450000539
v 0.00170125067 0.0015912503 0.00409999862
v 0.00170125067 0.0015912503 0.00450000539
v 0.00159008801 0.00169637799 0.00409999862
v 0.00159008801 0.00169637799 0.00450000539
v 0.00146611035 0.00178481638 0.00409999862
v 0.00146611035 0.00178481638 0.00450000539
v 0.00133046508 0.00185546279 0.00409999862
v 0.00133046508 0.00185546279 0.00450000539
v 0.00118429959 0.00190725923 0.00409999862
v 0.00118429959 0.00190725923 0.00450000539
v 0.00102876127 0.00193913281 0.00409999862
v 0.00102876127 0.00193913281 0.00450000539
v 0.000864997506 0.00194999576 0.00409999862
v 0.000864997506 0.00194999576 0.00450000539
v 0.000742271543 0.00194525719 0.00409999862
v 0.000742271543 0.00194525719 0.00450000539
v 0.000618979335 0.00193046033 0.00409999862
v 0.000618979335 0.00193046033 0.00450000539
v 0.000495001674 0.00190468132 0.00409999862
v 0.000495001674 0.00190468132 0.00450000539
v 0.000370189548 0.00186704099 0.00409999862
v 0.000370189548 0.00186704099 0.00450000539
v 0.000244393945 0.00181660056 0.00409999862
v 0.000244393945 0.00181660056 0.00450000539
v 0.000117495656 0.00175249577 0.00409999862
v 0.000117495656 0.00175249577 0.00450000539
v -1.06543303e-05 0.00167380273 0.00409999862
v -1.06543303e-05 0.00167380273 0.00450000539
v -0.000140190125 0.00157962739 0.00409999862
v -0.000140190125 0.00157962739 0.00450000539
v -0.000271245837 0.00146906078 0.00409999862
v -0.000271245837 0.00146906078 0.00450000539
v -0.000403985381 0.00134120882 0.00409999862
v -0.000403985381 0.00134120882 0.00450000539
v -0.000538513064 0.00119514763 0.00409999862
v -0.000538513064 0.00119514763 0.00450000539
v -0.000675007701 0.00102999806 0.00409999862
v -0.000675007701 0.00102999806 0.00450000539
v -0.000675007701 0.00225999951 0.00409999862
v -0.000675007701 0.00225999951 0.00450000539
v -0.000538289547 0.00236521661 0.00409999862
v -0.000538289547 0.00236521661 0.00450000539
v -0.000402957201 0.00246092677 0.00409999862
v -0.000402957201 0.00246092677 0.00450000539
v -0.000268757343 0.00254718959 0.00409999862
v -0.000268757343 0.00254718959 0.00450000539
v -0.000135377049 0.00262406468 0.00409999862
v -0.000135377049 0.00262406468 0.00450000539
v -2.54809856e-06 0.00269165635 0.00409999862
v -2.54809856e-06 0.00269165635 0.00450000539
v 0.00012999773 0.0027499944 0.00409999862
v 0.00012999773 0.0027499944 0.00450000539
v 0.000262543559 0.00279918313 0.00409999862
v 0.000262543559 0.00279918313 0.00450000539
v 0.00039537251 0.00283925235 0.00409999862
v 0.00039537251 0.00283925235 0.00450000539
v 0.000528752804 0.00287030637 0.00409999862
v 0.000528752804 0.00287030637 0.00450000539
v 0.000662967563 0.00289240479 0.00409999862
v 0.000662967563 0.00289240479 0.00450000539
v 0.000798285007 0.00290560722 0.00409999862
v 0.000798285007 0.00290560722 0.00450000539
v 0.000935003161 0.00291000307 0.00409999862
v 0.000935003161 0.00291000307 0.00450000539
v 0.00123430789 0.00289215147 0.00409999862
v 0.00123430789 0.00289215147 0.00450000539
v 0.00151616335 0.00283971429 0.00409999862
v 0.00151616335 0.00283971429 0.00450000539
v 0.00177890062 0.00275437534 0.00409999862
v 0.00177890062 0.00275437534 0.00450000539
v 0.00202092528 0.00263777375 0.00409999862
v 0.00202092528 0.00263777375 0.00450000539
v 0.0022405833 0.00249159336 0.00409999862
v 0.0022405833 0.00249159336 0.00450000539
v 0.00243625045 0.00231750309 0.00409999862
v 0.00243625045 0.00231750309 0.00450000539
v 0.0026062876 0.00211715698 0.00409999862
v 0.0026062876 0.00211715698 0.00450000539
v 0.00274907053 0.00189222395 0.00409999862
v 0.00274907053 0.00189222395 0.00450000539
v 0.002862975 0.00164437294 0.00409999862
v 0.002862975 0.00164437294 0.00450000539
v 0.002946347 0.00137527287 0.00409999862
v 0.002946347 0.00137527287 0.00450000539
v 0.00299756229 0.00108659267 0.00409999862
v 0.00299756229 0.00108659267 0.00450000539
v 0.00301499665 0.000780001283 0.00409999862
v 0.00301499665 0.000780001283 0.00450000539
v 0.00300231576 0.000505641103 0.00409999862
v 0.00300231576 0.000505641103 0.00450000539
v 0.00296351314 0.00023509562 0.00409999862
v 0.00296351314 0.00023509562 0.00450000539
v 0.00289750099 -3.5315752e-05 0.00409999862
v 0.00289750099 -3.5315752e-05 0.00450000539
v 0.00280314684 -0.000309258699 0.00409999862
v 0.00280314684 -0.000309258699 0.00450000539
v 0.00267934799 -0.00059042871 0.00409999862
v 0.00267934799 -0.00059042871 0.00450000539
v 0.00252500176 -0.000882506371 0.00409999862
v 0.00252500176 -0.000882506371 0.00450000539
v 0.00233897567 -0.00118915737 0.00409999862
v 0.00233897567 -0.00118915737 0.00450000539
v 0.00212018192 -0.00151407719 0.00409999862
v 0.00212018192 -0.00151407719 0.00450000539
v 0.00186750293 -0.00186094642 0.00409999862
v 0.00186750293 -0.00186094642 0.00450000539
v 0.00157980621 -0.00223343074 0.00409999862
v 0.00157980621 -0.00223343074 0.00450000539
v 0.00125601888 -0.00263522565 0.00409999862
v 0.00125601888 -0.00263522565 0.00450000539
v 0.000894993544 -0.00306999683 0.00409999862
v 0.000894993544 -0.00306999683 0.00450000539
v 0.00350499153 -0.00306999683 0.00409999862
v 0.00350499153 -0.00306999683 0.00450000539
v 0.00350499153 -0.00400000811 0.00409999862
v 0.00350499153 -0.00400000811 0.00450000539
usemtl screen_white_text_003
f 214 216 215
f 213 216 214
f 212 216 213
f 212 217 216
f 211 217 212
f 211 218 217
f 210 218 211
f 209 218 210
f 209 219 218
f 208 219 209
f 207 219 208
f 207 220 219
f 206 220 207
f 205 220 206
f 205 221 220
f 204 221 205
f 203 221 204
f 203 222 221
f 202 201 203
f 201 200 203
f 200 199 203
f 199 198 203
f 198 197 203
f 197 196 203
f 196 195 203
f 195 194 203
f 194 193 203
f 193 192 203
f 192 191 203
f 191 222 203
f 191 190 222
f 190 223 222
f 189 223 190
f 188 223 189
f 187 223 188
f 187 224 223
f 186 224 187
f 185 224 186
f 184 224 185
f 184 225 224
f 183 225 184
f 182 225 183
f 182 226 225
f 181 226 182
f 180 226 181
f 180 227 226
f 179 227 180
f 178 227 179
f 178 228 227
f 177 228 178
f 176 228 177
f 176 229 228
f 175 229 176
f 174 229 175
f 174 230 229
f 173 230 174
f 172 230 173
f 172 231 230
f 171 231 172
f 170 231 171
f 169 231 170
f 169 232 231
f 168 232 169
f 167 232 168
f 167 233 232
f 166 233 167
f 165 233 166
f 165 234 233
f 164 234 165
f 164 235 234
f 163 235 164
f 163 236 235
f 162 236 163
f 161 236 162
f 161 237 236
f 160 237 161
f 160 238 237
f 159 238 160
f 159 239 238
f 158 239 159
f 157 239 158
f 157 240 239
f 157 241 240
f 156 241 157
f 155 241 156
f 154 241 155
f 153 241 154
f 248 242 249
f 242 250 249
f 242 251 250
f 248 243 242
f 248 246 243
f 246 244 243
f 246 245 244
f 248 247 246
f 313 314 315
f 312 313 315
f 311 312 315
f 311 315 316
f 310 311 316
f 310 316 317
f 309 310 317
f 308 309 317
f 308 317 318
f 307 308 318
f 306 307 318
f 306 318 319
f 305 306 319
f 304 305 319
f 304 319 320
f 303 304 320
f 302 303 320
f 302 320 321
f 301 302 300
f 300 302 299
f 299 302 298
f 298 302 297
f 297 302 296
f 296 302 295
f 295 302 294
f 294 302 293
f 293 302 292
f 292 302 291
f 291 302 290
f 290 302 321
f 290 321 289
f 289 321 322
f 288 289 322
f 287 288 322
f 286 287 322
f 286 322 323
f 285 286 323
f 284 285 323
f 283 284 323
f 283 323 324
f 282 283 324
f 281 282 324
f 281 324 325
f 280 281 325
f 279 280 325
f 279 325 326
f 278 279 326
f 277 278 326
f 277 326 327
f 276 277 327
f 275 276 327
f 275 327 328
f 274 275 328
f 273 274 328
f 273 328 329
f 272 273 329
f 271 272 329
f 271 329 330
f 270 271 330
f 269 270 330
f 268 269 330
f 268 330 331
f 267 268 331
f 266 267 331
f 266 331 332
f 265 266 332
f 264 265 332
f 264 332 333
f 263 264 333
f 263 333 334
f 262 263 334
f 262 334 335
f 261 262 335
f 260 261 335
f 260 335 336
f 259 260 336
f 259 336 337
f 258 259 337
f 258 337 338
f 257 258 338
f 256 257 338
f 256 338 339
f 256 339 340
f 255 256 340
f 254 255 340
f 253 254 340
f 252 253 340
f 347 348 341
f 341 348 349
f 341 349 350
f 347 341 342
f 347 342 345
f 345 342 343
f 345 343 344
f 347 345 346
f 352 354 353 351
f 354 356 355 353
f 356 358 357 355
f 358 360 359 357
f 360 362 361 359
f 362 364 363 361
f 364 366 365 363
f 366 368 367 365
f 368 370 369 367
f 370 352 351 369
f 372 374 373 371
f 374 376 375 373
f 376 378 377 375
f 378 380 379 377
f 380 382 381 379
f 382 384 383 381
f 384 386 385 383
f 386 388 387 385
f 388 390 389 387
f 390 392 391 389
f 392 394 393 391
f 394 396 395 393
f 396 398 397 395
f 398 400 399 397
f 400 402 401 399
f 402 404 403 401
f 404 406 405 403
f 406 408 407 405
f 408 410 409 407
f 410 412 411 409
f 412 414 413 411
f 414 416 415 413
f 416 418 417 415
f 418 420 419 417
f 420 422 421 419
f 422 424 423 421
f 424 426 425 423
f 426 428 427 425
f 428 430 429 427
f 430 432 431 429
f 432 434 433 431
f 434 436 435 433
f 436 438 437 435
f 438 440 439 437
f 440 442 441 439
f 442 444 443 441
f 444 446 445 443
f 446 448 447 445
f 448 450 449 447
f 450 452 451 449
f 452 454 453 451
f 454 456 455 453
f 456 458 457 455
f 458 460 459 457
f 460 462 461 459
f 462 464 463 461
f 464 466 465 463
f 466 468 467 465
f 468 470 469 467
f 470 472 471 469
f 472 474 473 471
f 474 476 475 473
f 476 478 477 475
f 478 480 479 477
f 480 482 481 479
f 482 484 483 481
f 484 486 485 483
f 486 488 487 485
f 488 490 489 487
f 490 492 491 489
f 492 494 493 491
f 494 496 495 493
f 496 498 497 495
f 498 500 499 497
f 500 502 501 499
f 502 504 503 501
f 504 506 505 503
f 506 508 507 505
f 508 510 509 507
f 510 512 511 509
f 512 514 513 511
f 514 516 515 513
f 516 518 517 515
f 518 520 519 517
f 520 522 521 519
f 522 524 523 521
f 524 526 525 523
f 526 528 527 525
f 528 530 529 527
f 530 532 531 529
f 532 534 533 531
f 534 536 535 533
f 536 538 537 535
f 538 540 539 537
f 540 542 541 539
f 542 544 543 541
f 544 546 545 543
f 546 548 547 545
f 548 372 371 547
