mtllib keyboard_key_4_8_link.mtl
o keyboard_key_4_8_link

g keyboard_key_4_8_SOLID
v -0.0199999958 -0.0164999999 0
v -0.0199999958 -0.0130000003 -0.00349999964
v -0.0234999955 -0.0130000003 0
v -0.0200000033 -0.0162335783 -0.0013393946
v -0.0200000033 -0.0154748736 -0.00247487426
v -0.0213393942 -0.0162335783 0
v -0.021372959 -0.0159120392 -0.00137295946
v -0.0213032961 -0.0152968913 -0.00229689106
v -0.0220207274 -0.0150207262 -0.00202072784
v -0.0213393942 -0.0130000003 -0.00323357806
v -0.0224748775 -0.0130000003 -0.00247487426
v -0.0200000033 -0.0143393921 -0.00323357806
v -0.021372959 -0.0143729588 -0.0029120408
v -0.0222968906 -0.0143032968 -0.00229689106
v -0.0232335776 -0.0143393921 0
v -0.0224748775 -0.0154748736 0
v -0.0232335776 -0.0130000003 -0.00133939087
v -0.0229120404 -0.0143729588 -0.00137295946
v -0.0222968906 -0.0152968913 -0.00130329654
v 0.0199999958 -0.0164999999 0
v 0.0234999955 -0.0130000003 0
v 0.0199999958 -0.0130000003 -0.00349999964
v 0.0213393867 -0.0162335783 0
v 0.0224748701 -0.0154748736 0
v 0.0199999958 -0.0162335783 -0.00133939087
v 0.021372959 -0.0159120392 -0.00137295946
v 0.0222968906 -0.0152968913 -0.00130329654
v 0.0220207274 -0.0150207262 -0.00202072784
v 0.0232335776 -0.0130000003 -0.0013393946
v 0.0224748701 -0.0130000003 -0.00247487426
v 0.0232335776 -0.0143393921 0
v 0.0229120404 -0.0143729588 -0.00137295946
v 0.0222968906 -0.0143032968 -0.00229689106
v 0.0199999958 -0.0143393921 -0.00323357806
v 0.0199999958 -0.0154748736 -0.00247487426
v 0.0213393867 -0.0130000003 -0.00323357806
v 0.021372959 -0.0143729588 -0.0029120408
v 0.0213032961 -0.0152968913 -0.00229689106
v 0.0199999958 0.0164999999 0
v 0.0199999958 0.0130000003 -0.00349999964
v 0.0234999955 0.0130000003 0
v 0.0199999958 0.0162335783 -0.0013393946
v 0.0199999958 0.0154748745 -0.00247487426
v 0.0213393867 0.0162335783 0
v 0.021372959 0.0159120373 -0.00137295946
v 0.0213032961 0.0152968913 -0.00229689106
v 0.0220207274 0.0150207244 -0.00202072784
v 0.0213393867 0.0130000003 -0.00323357806
v 0.0224748701 0.0130000003 -0.00247487426
v 0.0199999958 0.0143393911 -0.00323357806
v 0.021372959 0.0143729597 -0.0029120408
v 0.0222968906 0.0143032968 -0.00229689106
v 0.0232335776 0.0143393911 0
v 0.0224748701 0.0154748745 0
v 0.0232335776 0.0130000003 -0.00133939087
v 0.0229120404 0.0143729597 -0.00137295946
v 0.0222968906 0.0152968913 -0.00130329654
v -0.0199999958 0.0164999999 0
v -0.0234999955 0.0130000003 0
v -0.0199999958 0.0130000003 -0.00349999964
v -0.0213393942 0.0162335783 0
v -0.0224748775 0.0154748745 0
v -0.0200000033 0.0162335783 -0.00133939087
v -0.021372959 0.0159120373 -0.00137295946
v -0.0222968906 0.0152968913 -0.00130329654
v -0.0220207274 0.0150207244 -0.00202072784
v -0.0232335776 0.0130000003 -0.0013393946
v -0.0224748775 0.0130000003 -0.00247487426
v -0.0232335776 0.0143393911 0
v -0.0229120404 0.0143729597 -0.00137295946
v -0.0222968906 0.0143032968 -0.00229689106
v -0.0200000033 0.0143393911 -0.00323357806
v -0.0200000033 0.0154748745 -0.00247487426
v -0.0213393942 0.0130000003 -0.00323357806
v -0.021372959 0.0143729597 -0.0029120408
v -0.0213032961 0.0152968913 -0.00229689106
v -0.0234999955 -0.0130000003 0
v -0.0199999958 -0.0130000003 0.00350000337
v -0.0199999958 -0.0164999999 0
v -0.0232335776 -0.0130000003 0.0013393946
v -0.0224748775 -0.0130000003 0.00247487426
v -0.0232335776 -0.0143393921 0
v -0.0229120404 -0.0143729588 0.00137295946
v -0.0222968906 -0.0143032968 0.00229689106
v -0.0220207274 -0.0150207262 0.00202072784
v -0.0200000033 -0.0143393921 0.00323357806
v -0.0200000033 -0.0154748736 0.00247487426
v -0.0213393942 -0.0130000003 0.00323357806
v -0.021372959 -0.0143729588 0.0029120408
v -0.0213032961 -0.0152968913 0.00229689106
v -0.0213393942 -0.0162335783 0
v -0.0224748775 -0.0154748736 0
v -0.0200000033 -0.0162335783 0.00133939087
v -0.021372959 -0.0159120392 0.00137295946
v -0.0222968906 -0.0152968913 0.00130329654
v 0.0199999958 -0.0164999999 0
v 0.0199999958 -0.0130000003 0.00350000337
v 0.0234999955 -0.0130000003 0
v 0.0199999958 -0.0162335783 0.0013393946
v 0.0199999958 -0.0154748736 0.00247487426
v 0.0213393867 -0.0162335783 0
v 0.021372959 -0.0159120392 0.00137295946
v 0.0213032961 -0.0152968913 0.00229689106
v 0.0220207274 -0.0150207262 0.00202072784
v 0.0213393867 -0.0130000003 0.00323357806
v 0.0224748701 -0.0130000003 0.00247487426
v 0.0199999958 -0.0143393921 0.00323357806
v 0.021372959 -0.0143729588 0.0029120408
v 0.0222968906 -0.0143032968 0.00229689106
v 0.0232335776 -0.0143393921 0
v 0.0224748701 -0.0154748736 0
v 0.0232335776 -0.0130000003 0.00133939087
v 0.0229120404 -0.0143729588 0.00137295946
v 0.0222968906 -0.0152968913 0.00130329654
v 0.0199999958 0.0130000003 0.00350000337
v 0.0199999958 0.0164999999 0
v 0.0234999955 0.0130000003 0
v 0.0199999958 0.0143393911 0.00323357806
v 0.0199999958 0.0154748745 0.00247487426
v 0.0213393867 0.0130000003 0.00323357806
v 0.021372959 0.0143729597 0.0029120408
v 0.0213032961 0.0152968913 0.00229689106
v 0.0220207274 0.0150207244 0.00202072784
v 0.0213393867 0.0162335783 0
v 0.0224748701 0.0154748745 0
v 0.0199999958 0.0162335783 0.00133939087
v 0.021372959 0.0159120373 0.00137295946
v 0.0222968906 0.0152968913 0.00130329654
v 0.0232335776 0.0130000003 0.0013393946
v 0.0224748701 0.0130000003 0.00247487426
v 0.0232335776 0.0143393911 0
v 0.0229120404 0.0143729597 0.00137295946
v 0.0222968906 0.0143032968 0.00229689106
v -0.0234999955 0.0130000003 0
v -0.0199999958 0.0164999999 0
v -0.0199999958 0.0130000003 0.00350000337
v -0.0232335776 0.0143393911 0
v -0.0224748775 0.0154748745 0
v -0.0232335776 0.0130000003 0.00133939087
v -0.0229120404 0.0143729597 0.00137295946
v -0.0222968906 0.0152968913 0.00130329654
v -0.0220207274 0.0150207244 0.00202072784
v -0.0200000033 0.0162335783 0.0013393946
v -0.0200000033 0.0154748745 0.00247487426
v -0.0213393942 0.0162335783 0
v -0.021372959 0.0159120373 0.00137295946
v -0.0213032961 0.0152968913 0.00229689106
v -0.0213393942 0.0130000003 0.00323357806
v -0.0224748775 0.0130000003 0.00247487426
v -0.0200000033 0.0143393911 0.00323357806
v -0.021372959 0.0143729597 0.0029120408
v -0.0222968906 0.0143032968 0.00229689106
usemtl matte_black_keycaps_003
f 59 134 77 3
f 2 22 40 60
f 39 116 135 58
f 78 136 115 97
f 21 98 117 41
f 1 4 7 6
f 4 5 8 7
f 6 7 19 16
f 7 8 9 19
f 2 10 13 12
f 10 11 14 13
f 12 13 8 5
f 13 14 9 8
f 3 15 18 17
f 15 16 19 18
f 17 18 14 11
f 18 19 9 14
f 20 23 26 25
f 23 24 27 26
f 25 26 38 35
f 26 27 28 38
f 21 29 32 31
f 29 30 33 32
f 31 32 27 24
f 32 33 28 27
f 22 34 37 36
f 34 35 38 37
f 36 37 33 30
f 37 38 28 33
f 39 42 45 44
f 42 43 46 45
f 44 45 57 54
f 45 46 47 57
f 40 48 51 50
f 48 49 52 51
f 50 51 46 43
f 51 52 47 46
f 41 53 56 55
f 53 54 57 56
f 55 56 52 49
f 56 57 47 52
f 58 61 64 63
f 61 62 65 64
f 63 64 76 73
f 64 65 66 76
f 59 67 70 69
f 67 68 71 70
f 69 70 65 62
f 70 71 66 65
f 60 72 75 74
f 72 73 76 75
f 74 75 71 68
f 75 76 66 71
f 77 80 83 82
f 80 81 84 83
f 82 83 95 92
f 83 84 85 95
f 78 86 89 88
f 86 87 90 89
f 88 89 84 81
f 89 90 85 84
f 79 91 94 93
f 91 92 95 94
f 93 94 90 87
f 94 95 85 90
f 96 99 102 101
f 99 100 103 102
f 101 102 114 111
f 102 103 104 114
f 97 105 108 107
f 105 106 109 108
f 107 108 103 100
f 108 109 104 103
f 98 110 113 112
f 110 111 114 113
f 112 113 109 106
f 113 114 104 109
f 115 118 121 120
f 118 119 122 121
f 120 121 133 130
f 121 122 123 133
f 116 124 127 126
f 124 125 128 127
f 126 127 122 119
f 127 128 123 122
f 117 129 132 131
f 129 130 133 132
f 131 132 128 125
f 132 133 123 128
f 134 137 140 139
f 137 138 141 140
f 139 140 152 149
f 140 141 142 152
f 135 143 146 145
f 143 144 147 146
f 145 146 141 138
f 146 147 142 141
f 136 148 151 150
f 148 149 152 151
f 150 151 147 144
f 151 152 142 147
f 39 58 63 42
f 42 63 73 43
f 43 73 72 50
f 50 72 60 40
f 1 20 25 4
f 4 25 35 5
f 5 35 34 12
f 12 34 22 2
f 21 41 55 29
f 29 55 49 30
f 30 49 48 36
f 36 48 40 22
f 2 60 74 10
f 10 74 68 11
f 11 68 67 17
f 17 67 59 3
f 3 77 82 15
f 15 82 92 16
f 16 92 91 6
f 6 91 79 1
f 78 97 107 86
f 86 107 100 87
f 87 100 99 93
f 93 99 96 79
f 97 115 120 105
f 105 120 130 106
f 106 130 129 112
f 112 129 117 98
f 77 134 139 80
f 80 139 149 81
f 81 149 148 88
f 88 148 136 78
f 20 96 101 23
f 23 101 111 24
f 24 111 110 31
f 31 110 98 21
f 41 117 131 53
f 53 131 125 54
f 54 125 124 44
f 44 124 116 39
f 115 136 150 118
f 118 150 144 119
f 119 144 143 126
f 126 143 135 116
f 58 135 145 61
f 61 145 138 62
f 62 138 137 69
f 69 137 134 59
f 1 79 96 20

g key_legend_4_8
v -0.00142686069 -0.00492921285 0.00450000539
v -0.00135748088 -0.00485787168 0.00450000539
v -0.00129686296 -0.00477750041 0.00450000539
v -0.00124499202 -0.00468963012 0.00450000539
v -0.00120186806 -0.0045957882 0.00450000539
v -0.00116749108 -0.00449750014 0.00450000539
v -0.00114186108 -0.00439629704 0.00450000539
v -0.00112499297 -0.00429370441 0.00450000539
v -0.00111685693 -0.00419124961 0.00450000539
v -0.00111748278 -0.00409046374 0.00450000539
v -0.00112685561 -0.00399287045 0.00450000539
v -0.00114499032 -0.00390000083 0.00450000539
v -0.00121554732 -0.00389318354 0.00450000539
v -0.0012819767 -0.00387796387 0.00450000539
v -0.00134389102 -0.00385468826 0.00450000539
v -0.00140091777 -0.00382370502 0.00450000539
v -0.0014526546 -0.00378535874 0.00450000539
v -0.00149874389 -0.00373999961 0.00450000539
v -0.00153878331 -0.00368797407 0.00450000539
v -0.00157240033 -0.00362963043 0.00450000539
v -0.00159920752 -0.00356531329 0.00450000539
v -0.00161883235 -0.00349537097 0.00450000539
v -0.00163088739 -0.00342015177 0.00450000539
v -0.00163498521 -0.00334000029 0.00450000539
v -0.00162987411 -0.00325946137 0.00450000539
v -0.00161489844 -0.00318319537 0.00450000539
v -0.00159060955 -0.00311171822 0.00450000539
v -0.00155757368 -0.0030455552 0.00450000539
v -0.00151635706 -0.00298522599 0.00450000539
v -0.00146748126 -0.00293125026 0.00450000539
v -0.0014115423 -0.00288414955 0.00450000539
v -0.00134906173 -0.00284444541 0.00450000539
v -0.00128060579 -0.00281265564 0.00450000539
v -0.00120674074 -0.00278930552 0.00450000539
v -0.0011280179 -0.00277491286 0.00450000539
v -0.00104498863 -0.00277000107 0.00450000539
v -0.000940680504 -0.00277781859 0.00450000539
v -0.000843092799 -0.00280088 0.00450000539
v -0.000752642751 -0.00283859484 0.00450000539
v -0.000669807196 -0.00289037079 0.00450000539
v -0.000595018268 -0.00295561925 0.00450000539
v -0.000528737903 -0.00303374976 0.00450000539
v -0.000471413136 -0.00312417373 0.00450000539
v -0.000423505902 -0.00322629698 0.00450000539
v -0.000385463238 -0.0033395309 0.00450000539
v -0.000357717276 -0.00346328691 0.00450000539
v -0.000340744853 -0.00359697267 0.00450000539
v -0.000334993005 -0.00373999961 0.00450000539
v -0.000342920423 -0.00388387218 0.00450000539
v -0.000366792083 -0.00402930565 0.00450000539
v -0.000406712294 -0.00417453051 0.00450000539
v -0.000462770462 -0.00431777723 0.00450000539
v -0.000535070896 -0.00445727445 0.00450000539
v -0.000623732805 -0.00459124893 0.00450000539
v -0.000728860497 -0.00471793301 0.00450000539
v -0.00085054338 -0.00483555533 0.00450000539
v -0.000988900661 -0.00494234264 0.00450000539
v -0.00114402175 -0.00503652729 0.00450000539
v -0.00131601095 -0.00511633605 0.00450000539
v -0.00150498748 -0.00518000126 0.00450000539
v -0.00150498748 -0.00499000028 0.00450000539
v -0.00142686069 -0.00492921285 0.00409999862
v -0.00135748088 -0.00485787168 0.00409999862
v -0.00129686296 -0.00477750041 0.00409999862
v -0.00124499202 -0.00468963012 0.00409999862
v -0.00120186806 -0.0045957882 0.00409999862
v -0.00116749108 -0.00449750014 0.00409999862
v -0.00114186108 -0.00439629704 0.00409999862
v -0.00112499297 -0.00429370441 0.00409999862
v -0.00111685693 -0.00419124961 0.00409999862
v -0.00111748278 -0.00409046374 0.00409999862
v -0.00112685561 -0.00399287045 0.00409999862
v -0.00114499032 -0.00390000083 0.00409999862
v -0.00121554732 -0.00389318354 0.00409999862
v -0.0012819767 -0.00387796387 0.00409999862
v -0.00134389102 -0.00385468826 0.00409999862
v -0.00140091777 -0.00382370502 0.00409999862
v -0.0014526546 -0.00378535874 0.00409999862
v -0.00149874389 -0.00373999961 0.00409999862
v -0.00153878331 -0.00368797407 0.00409999862
v -0.00157240033 -0.00362963043 0.00409999862
v -0.00159920752 -0.00356531329 0.00409999862
v -0.00161883235 -0.00349537097 0.00409999862
v -0.00163088739 -0.00342015177 0.00409999862
v -0.00163498521 -0.00334000029 0.00409999862
v -0.00162987411 -0.00325946137 0.00409999862
v -0.00161489844 -0.00318319537 0.00409999862
v -0.00159060955 -0.00311171822 0.00409999862
v -0.00155757368 -0.0030455552 0.00409999862
v -0.00151635706 -0.00298522599 0.00409999862
v -0.00146748126 -0.00293125026 0.00409999862
v -0.0014115423 -0.00288414955 0.00409999862
v -0.00134906173 -0.00284444541 0.00409999862
v -0.00128060579 -0.00281265564 0.00409999862
v -0.00120674074 -0.00278930552 0.00409999862
v -0.0011280179 -0.00277491286 0.00409999862
v -0.00104498863 -0.00277000107 0.00409999862
v -0.000940680504 -0.00277781859 0.00409999862
v -0.000843092799 -0.00280088 0.00409999862
v -0.000752642751 -0.00283859484 0.00409999862
v -0.000669807196 -0.00289037079 0.00409999862
v -0.000595018268 -0.00295561925 0.00409999862
v -0.000528737903 -0.00303374976 0.00409999862
v -0.000471413136 -0.00312417373 0.00409999862
v -0.000423505902 -0.00322629698 0.00409999862
v -0.000385463238 -0.0033395309 0.00409999862
v -0.000357717276 -0.00346328691 0.00409999862
v -0.000340744853 -0.00359697267 0.00409999862
v -0.000334993005 -0.00373999961 0.00409999862
v -0.000342920423 -0.00388387218 0.00409999862
v -0.000366792083 -0.00402930565 0.00409999862
v -0.000406712294 -0.00417453051 0.00409999862
v -0.000462770462 -0.00431777723 0.00409999862
v -0.000535070896 -0.00445727445 0.00409999862
v -0.000623732805 -0.00459124893 0.00409999862
v -0.000728860497 -0.00471793301 0.00409999862
v -0.00085054338 -0.00483555533 0.00409999862
v -0.000988900661 -0.00494234264 0.00409999862
v -0.00114402175 -0.00503652729 0.00409999862
v -0.00131601095 -0.00511633605 0.00409999862
v -0.00150498748 -0.00518000126 0.00409999862
v -0.00150498748 -0.00499000028 0.00409999862
v -0.00142686069 -0.00492921285 0.00409999862
v -0.00142686069 -0.00492921285 0.00450000539
v -0.00135748088 -0.00485787168 0.00409999862
v -0.00135748088 -0.00485787168 0.00450000539
v -0.00129686296 -0.00477750041 0.00409999862
v -0.00129686296 -0.00477750041 0.00450000539
v -0.00124499202 -0.00468963012 0.00409999862
v -0.00124499202 -0.00468963012 0.00450000539
v -0.00120186806 -0.0045957882 0.00409999862
v -0.00120186806 -0.0045957882 0.00450000539
v -0.00116749108 -0.00449750014 0.00409999862
v -0.00116749108 -0.00449750014 0.00450000539
v -0.00114186108 -0.00439629704 0.00409999862
v -0.00114186108 -0.00439629704 0.00450000539
v -0.00112499297 -0.00429370441 0.00409999862
v -0.00112499297 -0.00429370441 0.00450000539
v -0.00111685693 -0.00419124961 0.00409999862
v -0.00111685693 -0.00419124961 0.00450000539
v -0.00111748278 -0.00409046374 0.00409999862
v -0.00111748278 -0.00409046374 0.00450000539
v -0.00112685561 -0.00399287045 0.00409999862
v -0.00112685561 -0.00399287045 0.00450000539
v -0.00114499032 -0.00390000083 0.00409999862
v -0.00114499032 -0.00390000083 0.00450000539
v -0.00121554732 -0.00389318354 0.00409999862
v -0.00121554732 -0.00389318354 0.00450000539
v -0.0012819767 -0.00387796387 0.00409999862
v -0.0012819767 -0.00387796387 0.00450000539
v -0.00134389102 -0.00385468826 0.00409999862
v -0.00134389102 -0.00385468826 0.00450000539
v -0.00140091777 -0.00382370502 0.00409999862
v -0.00140091777 -0.00382370502 0.00450000539
v -0.0014526546 -0.00378535874 0.00409999862
v -0.0014526546 -0.00378535874 0.00450000539
v -0.00149874389 -0.00373999961 0.00409999862
v -0.00149874389 -0.00373999961 0.00450000539
v -0.00153878331 -0.00368797407 0.00409999862
v -0.00153878331 -0.00368797407 0.00450000539
v -0.00157240033 -0.00362963043 0.00409999862
v -0.00157240033 -0.00362963043 0.00450000539
v -0.00159920752 -0.00356531329 0.00409999862
v -0.00159920752 -0.00356531329 0.00450000539
v -0.00161883235 -0.00349537097 0.00409999862
v -0.00161883235 -0.00349537097 0.00450000539
v -0.00163088739 -0.00342015177 0.00409999862
v -0.00163088739 -0.00342015177 0.00450000539
v -0.00163498521 -0.00334000029 0.00409999862
v -0.00163498521 -0.00334000029 0.00450000539
v -0.00162987411 -0.00325946137 0.00409999862
v -0.00162987411 -0.00325946137 0.00450000539
v -0.00161489844 -0.00318319537 0.00409999862
v -0.00161489844 -0.00318319537 0.00450000539
v -0.00159060955 -0.00311171822 0.00409999862
v -0.00159060955 -0.00311171822 0.00450000539
v -0.00155757368 -0.0030455552 0.00409999862
v -0.00155757368 -0.0030455552 0.00450000539
v -0.00151635706 -0.00298522599 0.00409999862
v -0.00151635706 -0.00298522599 0.00450000539
v -0.00146748126 -0.00293125026 0.00409999862
v -0.00146748126 -0.00293125026 0.00450000539
v -0.0014115423 -0.00288414955 0.00409999862
v -0.0014115423 -0.00288414955 0.00450000539
v -0.00134906173 -0.00284444541 0.00409999862
v -0.00134906173 -0.00284444541 0.00450000539
v -0.00128060579 -0.00281265564 0.00409999862
v -0.00128060579 -0.00281265564 0.00450000539
v -0.00120674074 -0.00278930552 0.00409999862
v -0.00120674074 -0.00278930552 0.00450000539
v -0.0011280179 -0.00277491286 0.00409999862
v -0.0011280179 -0.00277491286 0.00450000539
v -0.00104498863 -0.00277000107 0.00409999862
v -0.00104498863 -0.00277000107 0.00450000539
v -0.000940680504 -0.00277781859 0.00409999862
v -0.000940680504 -0.00277781859 0.00450000539
v -0.000843092799 -0.00280088 0.00409999862
v -0.000843092799 -0.00280088 0.00450000539
v -0.000752642751 -0.00283859484 0.00409999862
v -0.000752642751 -0.00283859484 0.00450000539
v -0.000669807196 -0.00289037079 0.00409999862
v -0.000669807196 -0.00289037079 0.00450000539
v -0.000595018268 -0.00295561925 0.00409999862
v -0.000595018268 -0.00295561925 0.00450000539
v -0.000528737903 -0.00303374976 0.00409999862
v -0.000528737903 -0.00303374976 0.00450000539
v -0.000471413136 -0.00312417373 0.00409999862
v -0.000471413136 -0.00312417373 0.00450000539
v -0.000423505902 -0.00322629698 0.00409999862
v -0.000423505902 -0.00322629698 0.00450000539
v -0.000385463238 -0.0033395309 0.00409999862
v -0.000385463238 -0.0033395309 0.00450000539
v -0.000357717276 -0.00346328691 0.00409999862
v -0.000357717276 -0.00346328691 0.00450000539
v -0.000340744853 -0.00359697267 0.00409999862
v -0.000340744853 -0.00359697267 0.00450000539
v -0.000334993005 -0.00373999961 0.00409999862
v -0.000334993005 -0.00373999961 0.00450000539
v -0.000342920423 -0.00388387218 0.00409999862
v -0.000342920423 -0.00388387218 0.00450000539
v -0.000366792083 -0.00402930565 0.00409999862
v -0.000366792083 -0.00402930565 0.00450000539
v -0.000406712294 -0.00417453051 0.00409999862
v -0.000406712294 -0.00417453051 0.00450000539
v -0.000462770462 -0.00431777723 0.00409999862
v -0.000462770462 -0.00431777723 0.00450000539
v -0.000535070896 -0.00445727445 0.00409999862
v -0.000535070896 -0.00445727445 0.00450000539
v -0.000623732805 -0.00459124893 0.00409999862
v -0.000623732805 -0.00459124893 0.00450000539
v -0.000728860497 -0.00471793301 0.00409999862
v -0.000728860497 -0.00471793301 0.00450000539
v -0.00085054338 -0.00483555533 0.00409999862
v -0.00085054338 -0.00483555533 0.00450000539
v -0.000988900661 -0.00494234264 0.00409999862
v -0.000988900661 -0.00494234264 0.00450000539
v -0.00114402175 -0.00503652729 0.00409999862
v -0.00114402175 -0.00503652729 0.00450000539
v -0.00131601095 -0.00511633605 0.00409999862
v -0.00131601095 -0.00511633605 0.00450000539
v -0.00150498748 -0.00518000126 0.00409999862
v -0.00150498748 -0.00518000126 0.00450000539
v -0.00150498748 -0.00499000028 0.00409999862
v -0.00150498748 -0.00499000028 0.00450000539
usemtl screen_white_text_003
f 187 189 188
f 186 189 187
f 186 190 189
f 185 190 186
f 185 191 190
f 184 191 185
f 184 192 191
f 183 192 184
f 182 192 183
f 182 193 192
f 181 193 182
f 181 194 193
f 180 194 181
f 180 195 194
f 179 195 180
f 178 195 179
f 178 196 195
f 177 196 178
f 177 197 196
f 176 197 177
f 176 198 197
f 175 198 176
f 174 198 175
f 174 199 198
f 173 199 174
f 172 199 173
f 172 200 199
f 171 200 172
f 170 200 171
f 169 200 170
f 169 201 200
f 168 201 169
f 167 201 168
f 166 201 167
f 165 201 166
f 165 164 201
f 164 202 201
f 163 202 164
f 162 202 163
f 162 203 202
f 161 203 162
f 161 204 203
f 160 204 161
f 159 204 160
f 159 205 204
f 158 205 159
f 158 206 205
f 157 206 158
f 157 207 206
f 156 207 157
f 155 207 156
f 155 208 207
f 154 208 155
f 154 209 208
f 153 209 154
f 213 209 153
f 213 210 209
f 212 210 213
f 212 211 210
f 248 249 250
f 247 248 250
f 247 250 251
f 246 247 251
f 246 251 252
f 245 246 252
f 245 252 253
f 244 245 253
f 243 244 253
f 243 253 254
f 242 243 254
f 242 254 255
f 241 242 255
f 241 255 256
f 240 241 256
f 239 240 256
f 239 256 257
f 238 239 257
f 238 257 258
f 237 238 258
f 237 258 259
f 236 237 259
f 235 236 259
f 235 259 260
f 234 235 260
f 233 234 260
f 233 260 261
f 232 233 261
f 231 232 261
f 230 231 261
f 230 261 262
f 229 230 262
f 228 229 262
f 227 228 262
f 226 227 262
f 226 262 225
f 225 262 263
f 224 225 263
f 223 224 263
f 223 263 264
f 222 223 264
f 222 264 265
f 221 222 265
f 220 221 265
f 220 265 266
f 219 220 266
f 219 266 267
f 218 219 267
f 218 267 268
f 217 218 268
f 216 217 268
f 216 268 269
f 215 216 269
f 215 269 270
f 214 215 270
f 274 214 270
f 274 270 271
f 273 274 271
f 273 271 272
f 276 278 277 275
f 278 280 279 277
f 280 282 281 279
f 282 284 283 281
f 284 286 285 283
f 286 288 287 285
f 288 290 289 287
f 290 292 291 289
f 292 294 293 291
f 294 296 295 293
f 296 298 297 295
f 298 300 299 297
f 300 302 301 299
f 302 304 303 301
f 304 306 305 303
f 306 308 307 305
f 308 310 309 307
f 310 312 311 309
f 312 314 313 311
f 314 316 315 313
f 316 318 317 315
f 318 320 319 317
f 320 322 321 319
f 322 324 323 321
f 324 326 325 323
f 326 328 327 325
f 328 330 329 327
f 330 332 331 329
f 332 334 333 331
f 334 336 335 333
f 336 338 337 335
f 338 340 339 337
f 340 342 341 339
f 342 344 343 341
f 344 346 345 343
f 346 348 347 345
f 348 350 349 347
f 350 352 351 349
f 352 354 353 351
f 354 356 355 353
f 356 358 357 355
f 358 360 359 357
f 360 362 361 359
f 362 364 363 361
f 364 366 365 363
f 366 368 367 365
f 368 370 369 367
f 370 372 371 369
f 372 374 373 371
f 374 376 375 373
f 376 378 377 375
f 378 380 379 377
f 380 382 381 379
f 382 384 383 381
f 384 386 385 383
f 386 388 387 385
f 388 390 389 387
f 390 392 391 389
f 392 394 393 391
f 394 396 395 393
f 396 276 275 395
