mtllib keyboard_key_1_8_8_link.mtl
o keyboard_key_1_8_8_link

g keyboard_key_1_8_8_SOLID
v -0.0179999992 -0.0154999942 0
v -0.0179999992 -0.0119999945 -0.00349999964
v -0.0214999989 -0.0119999945 0
v -0.018000003 -0.0152335763 -0.0013393946
v -0.018000003 -0.0144748688 -0.00247487426
v -0.0193393975 -0.0152335763 0
v -0.0193729624 -0.014912039 -0.00137295946
v -0.0193032995 -0.0142968893 -0.00229689106
v -0.0200207308 -0.0140207261 -0.00202072784
v -0.0193393975 -0.0119999945 -0.00323357806
v -0.0204748772 -0.0119999945 -0.00247487426
v -0.018000003 -0.0133393854 -0.00323357806
v -0.0193729624 -0.0133729577 -0.0029120408
v -0.020296894 -0.0133032948 -0.00229689106
v -0.021233581 -0.0133393854 0
v -0.0204748772 -0.0144748688 0
v -0.021233581 -0.0119999945 -0.00133939087
v -0.0209120438 -0.0133729577 -0.00137295946
v -0.020296894 -0.0142968893 -0.00130329654
v 0.0179999992 -0.0154999942 0
v 0.0214999989 -0.0119999945 0
v 0.0179999992 -0.0119999945 -0.00349999964
v 0.0193393975 -0.0152335763 0
v 0.0204748735 -0.0144748688 0
v 0.0179999992 -0.0152335763 -0.00133939087
v 0.0193729624 -0.014912039 -0.00137295946
v 0.020296894 -0.0142968893 -0.00130329654
v 0.0200207308 -0.0140207261 -0.00202072784
v 0.021233581 -0.0119999945 -0.0013393946
v 0.0204748735 -0.0119999945 -0.00247487426
v 0.021233581 -0.0133393854 0
v 0.0209120438 -0.0133729577 -0.00137295946
v 0.020296894 -0.0133032948 -0.00229689106
v 0.0179999992 -0.0133393854 -0.00323357806
v 0.0179999992 -0.0144748688 -0.00247487426
v 0.0193393975 -0.0119999945 -0.00323357806
v 0.0193729624 -0.0133729577 -0.0029120408
v 0.0193032995 -0.0142968893 -0.00229689106
v 0.0179999992 0.0154999942 0
v 0.0179999992 0.0119999945 -0.00349999964
v 0.0214999989 0.0119999945 0
v 0.0179999992 0.0152335763 -0.0013393946
v 0.0179999992 0.0144748688 -0.00247487426
v 0.0193393975 0.0152335763 0
v 0.0193729624 0.014912039 -0.00137295946
v 0.0193032995 0.0142968893 -0.00229689106
v 0.0200207308 0.0140207261 -0.00202072784
v 0.0193393975 0.0119999945 -0.00323357806
v 0.0204748735 0.0119999945 -0.00247487426
v 0.0179999992 0.0133393854 -0.00323357806
v 0.0193729624 0.0133729577 -0.0029120408
v 0.020296894 0.0133032948 -0.00229689106
v 0.021233581 0.0133393854 0
v 0.0204748735 0.0144748688 0
v 0.021233581 0.0119999945 -0.00133939087
v 0.0209120438 0.0133729577 -0.00137295946
v 0.020296894 0.0142968893 -0.00130329654
v -0.0179999992 0.0154999942 0
v -0.0214999989 0.0119999945 0
v -0.0179999992 0.0119999945 -0.00349999964
v -0.0193393975 0.0152335763 0
v -0.0204748772 0.0144748688 0
v -0.018000003 0.0152335763 -0.00133939087
v -0.0193729624 0.014912039 -0.00137295946
v -0.020296894 0.0142968893 -0.00130329654
v -0.0200207308 0.0140207261 -0.00202072784
v -0.021233581 0.0119999945 -0.0013393946
v -0.0204748772 0.0119999945 -0.00247487426
v -0.021233581 0.0133393854 0
v -0.0209120438 0.0133729577 -0.00137295946
v -0.020296894 0.0133032948 -0.00229689106
v -0.018000003 0.0133393854 -0.00323357806
v -0.018000003 0.0144748688 -0.00247487426
v -0.0193393975 0.0119999945 -0.00323357806
v -0.0193729624 0.0133729577 -0.0029120408
v -0.0193032995 0.0142968893 -0.00229689106
v -0.0214999989 -0.0119999945 0
v -0.0179999992 -0.0119999945 0.00350000337
v -0.0179999992 -0.0154999942 0
v -0.021233581 -0.0119999945 0.0013393946
v -0.0204748772 -0.0119999945 0.00247487426
v -0.021233581 -0.0133393854 0
v -0.0209120438 -0.0133729577 0.00137295946
v -0.020296894 -0.0133032948 0.00229689106
v -0.0200207308 -0.0140207261 0.00202072784
v -0.018000003 -0.0133393854 0.00323357806
v -0.018000003 -0.0144748688 0.00247487426
v -0.0193393975 -0.0119999945 0.00323357806
v -0.0193729624 -0.0133729577 0.0029120408
v -0.0193032995 -0.0142968893 0.00229689106
v -0.0193393975 -0.0152335763 0
v -0.0204748772 -0.0144748688 0
v -0.018000003 -0.0152335763 0.00133939087
v -0.0193729624 -0.014912039 0.00137295946
v -0.020296894 -0.0142968893 0.00130329654
v 0.0179999992 -0.0154999942 0
v 0.0179999992 -0.0119999945 0.00350000337
v 0.0214999989 -0.0119999945 0
v 0.0179999992 -0.0152335763 0.0013393946
v 0.0179999992 -0.0144748688 0.00247487426
v 0.0193393975 -0.0152335763 0
v 0.0193729624 -0.014912039 0.00137295946
v 0.0193032995 -0.0142968893 0.00229689106
v 0.0200207308 -0.0140207261 0.00202072784
v 0.0193393975 -0.0119999945 0.00323357806
v 0.0204748735 -0.0119999945 0.00247487426
v 0.0179999992 -0.0133393854 0.00323357806
v 0.0193729624 -0.0133729577 0.0029120408
v 0.020296894 -0.0133032948 0.00229689106
v 0.021233581 -0.0133393854 0
v 0.0204748735 -0.0144748688 0
v 0.021233581 -0.0119999945 0.00133939087
v 0.0209120438 -0.0133729577 0.00137295946
v 0.020296894 -0.0142968893 0.00130329654
v 0.0179999992 0.0119999945 0.00350000337
v 0.0179999992 0.0154999942 0
v 0.0214999989 0.0119999945 0
v 0.0179999992 0.0133393854 0.00323357806
v 0.0179999992 0.0144748688 0.00247487426
v 0.0193393975 0.0119999945 0.00323357806
v 0.0193729624 0.0133729577 0.0029120408
v 0.0193032995 0.0142968893 0.00229689106
v 0.0200207308 0.0140207261 0.00202072784
v 0.0193393975 0.0152335763 0
v 0.0204748735 0.0144748688 0
v 0.0179999992 0.0152335763 0.00133939087
v 0.0193729624 0.014912039 0.00137295946
v 0.020296894 0.0142968893 0.00130329654
v 0.021233581 0.0119999945 0.0013393946
v 0.0204748735 0.0119999945 0.00247487426
v 0.021233581 0.0133393854 0
v 0.0209120438 0.0133729577 0.00137295946
v 0.020296894 0.0133032948 0.00229689106
v -0.0214999989 0.0119999945 0
v -0.0179999992 0.0154999942 0
v -0.0179999992 0.0119999945 0.00350000337
v -0.021233581 0.0133393854 0
v -0.0204748772 0.0144748688 0
v -0.021233581 0.0119999945 0.00133939087
v -0.0209120438 0.0133729577 0.00137295946
v -0.020296894 0.0142968893 0.00130329654
v -0.0200207308 0.0140207261 0.00202072784
v -0.018000003 0.0152335763 0.0013393946
v -0.018000003 0.0144748688 0.00247487426
v -0.0193393975 0.0152335763 0
v -0.0193729624 0.014912039 0.00137295946
v -0.0193032995 0.0142968893 0.00229689106
v -0.0193393975 0.0119999945 0.00323357806
v -0.0204748772 0.0119999945 0.00247487426
v -0.018000003 0.0133393854 0.00323357806
v -0.0193729624 0.0133729577 0.0029120408
v -0.020296894 0.0133032948 0.00229689106
usemtl matte_black_keycaps_003
f 59 134 77 3
f 2 22 40 60
f 39 116 135 58
f 78 136 115 97
f 21 98 117 41
f 1 4 7 6
f 4 5 8 7
f 6 7 19 16
f 7 8 9 19
f 2 10 13 12
f 10 11 14 13
f 12 13 8 5
f 13 14 9 8
f 3 15 18 17
f 15 16 19 18
f 17 18 14 11
f 18 19 9 14
f 20 23 26 25
f 23 24 27 26
f 25 26 38 35
f 26 27 28 38
f 21 29 32 31
f 29 30 33 32
f 31 32 27 24
f 32 33 28 27
f 22 34 37 36
f 34 35 38 37
f 36 37 33 30
f 37 38 28 33
f 39 42 45 44
f 42 43 46 45
f 44 45 57 54
f 45 46 47 57
f 40 48 51 50
f 48 49 52 51
f 50 51 46 43
f 51 52 47 46
f 41 53 56 55
f 53 54 57 56
f 55 56 52 49
f 56 57 47 52
f 58 61 64 63
f 61 62 65 64
f 63 64 76 73
f 64 65 66 76
f 59 67 70 69
f 67 68 71 70
f 69 70 65 62
f 70 71 66 65
f 60 72 75 74
f 72 73 76 75
f 74 75 71 68
f 75 76 66 71
f 77 80 83 82
f 80 81 84 83
f 82 83 95 92
f 83 84 85 95
f 78 86 89 88
f 86 87 90 89
f 88 89 84 81
f 89 90 85 84
f 79 91 94 93
f 91 92 95 94
f 93 94 90 87
f 94 95 85 90
f 96 99 102 101
f 99 100 103 102
f 101 102 114 111
f 102 103 104 114
f 97 105 108 107
f 105 106 109 108
f 107 108 103 100
f 108 109 104 103
f 98 110 113 112
f 110 111 114 113
f 112 113 109 106
f 113 114 104 109
f 115 118 121 120
f 118 119 122 121
f 120 121 133 130
f 121 122 123 133
f 116 124 127 126
f 124 125 128 127
f 126 127 122 119
f 127 128 123 122
f 117 129 132 131
f 129 130 133 132
f 131 132 128 125
f 132 133 123 128
f 134 137 140 139
f 137 138 141 140
f 139 140 152 149
f 140 141 142 152
f 135 143 146 145
f 143 144 147 146
f 145 146 141 138
f 146 147 142 141
f 136 148 151 150
f 148 149 152 151
f 150 151 147 144
f 151 152 142 147
f 39 58 63 42
f 42 63 73 43
f 43 73 72 50
f 50 72 60 40
f 1 20 25 4
f 4 25 35 5
f 5 35 34 12
f 12 34 22 2
f 21 41 55 29
f 29 55 49 30
f 30 49 48 36
f 36 48 40 22
f 2 60 74 10
f 10 74 68 11
f 11 68 67 17
f 17 67 59 3
f 3 77 82 15
f 15 82 92 16
f 16 92 91 6
f 6 91 79 1
f 78 97 107 86
f 86 107 100 87
f 87 100 99 93
f 93 99 96 79
f 97 115 120 105
f 105 120 130 106
f 106 130 129 112
f 112 129 117 98
f 77 134 139 80
f 80 139 149 81
f 81 149 148 88
f 88 148 136 78
f 20 96 101 23
f 23 101 111 24
f 24 111 110 31
f 31 110 98 21
f 41 117 131 53
f 53 131 125 54
f 54 125 124 44
f 44 124 116 39
f 115 136 150 118
f 118 150 144 119
f 119 144 143 126
f 126 143 135 116
f 58 135 145 61
f 61 145 138 62
f 62 138 137 69
f 69 137 134 59
f 1 79 96 20

g key_legend_1_8_8
v -0.00128377229 -0.00407265127 0.00450000539
v -0.00157351792 -0.00402198732 0.00450000539
v -0.00184687972 -0.00394016504 0.00450000539
v -0.00210148096 -0.0038292557 0.00450000539
v -0.00233498216 -0.00369141996 0.00450000539
v -0.00254499912 -0.00352875888 0.00450000539
v -0.00272919238 -0.00334337354 0.00450000539
v -0.00288518518 -0.00313740969 0.00450000539
v -0.00301062316 -0.0029129684 0.00450000539
v -0.00310315192 -0.00267218053 0.00450000539
v -0.00316039473 -0.00241714716 0.00450000539
v -0.00318000466 -0.00214999914 0.00450000539
v -0.00317332894 -0.00197394192 0.00450000539
v -0.00315328687 -0.00180564821 0.00450000539
v -0.00311984867 -0.00164499879 0.00450000539
v -0.00307296216 -0.00149185956 0.00450000539
v -0.00301261246 -0.00134606659 0.00450000539
v -0.00293875486 -0.0012075007 0.00450000539
v -0.0028513521 -0.00107602775 0.00450000539
v -0.00275037438 -0.000951483846 0.00450000539
v -0.00263578445 -0.000833749771 0.00450000539
v -0.00250754505 -0.000722691417 0.00450000539
v -0.00236563385 -0.00061814487 0.00450000539
v -0.00220999867 -0.000520005822 0.00450000539
v -0.00233307481 -0.000424429774 0.00450000539
v -0.00244708359 -0.000322923064 0.00450000539
v -0.00255171955 -0.000215783715 0.00450000539
v -0.00264666975 -0.000103339553 0.00450000539
v -0.00273161381 1.41113997e-05 0.00450000539
v -0.00280625373 0.000136241317 0.00450000539
v -0.00287026167 0.000262752175 0.00450000539
v -0.00292333215 0.000393331051 0.00450000539
v -0.00296515971 0.000527650118 0.00450000539
v -0.00299541652 0.000665411353 0.00450000539
v -0.00301380455 0.000806301832 0.00450000539
v -0.00302000344 0.00094999373 0.00450000539
v -0.00300160795 0.00122384727 0.00450000539
v -0.00294782221 0.00148406625 0.00450000539
v -0.00286078453 0.00172874331 0.00450000539
v -0.00274259597 0.00195592642 0.00450000539
v -0.00259537995 0.00216364861 0.00450000539
v -0.00242125243 0.00235000253 0.00450000539
v -0.00222233683 0.00251300633 0.00450000539
v -0.00200074166 0.00265073776 0.00450000539
v -0.00175859779 0.00276124477 0.00450000539
v -0.00149801373 0.00284259021 0.00450000539
v -0.00122110546 0.00289282203 0.00450000539
v -0.000930003822 0.00291000307 0.00450000539
v -0.000648871064 0.00289261341 0.00450000539
v -0.000381805003 0.00284180045 0.00450000539
v -0.000130780041 0.00275953114 0.00450000539
v 0.000102221966 0.00264777243 0.00450000539
v 0.000315226614 0.00250852108 0.00450000539
v 0.0005062446 0.00234374404 0.00450000539
v 0.000673316419 0.00215543807 0.00450000539
v 0.000814445317 0.00194555521 0.00450000539
v 0.000927656889 0.00171609223 0.00450000539
v 0.00101096928 0.00146903098 0.00450000539
v 0.00106240809 0.00120633841 0.00450000539
v 0.00107999891 0.000929996371 0.00450000539
v 0.00107435137 0.000801593065 0.00450000539
v 0.00105731189 0.000671893358 0.00450000539
v 0.00102874637 0.000541716814 0.00450000539
v 0.000988513231 0.000411853194 0.00450000539
v 0.000936478376 0.00028309226 0.00450000539
v 0.000872500241 0.000156253576 0.00450000539
v 0.000796429813 3.21120024e-05 0.00450000539
v 0.000708147883 -8.85277987e-05 0.00450000539
v 0.00060749799 -0.000204846263 0.00450000539
v 0.000494353473 -0.00031606853 0.00450000539
v 0.000368565321 -0.000421389937 0.00450000539
v 0.000229999423 -0.000520005822 0.00450000539
v 0.000381037593 -0.000608414412 0.00450000539
v 0.000519119203 -0.000708147883 0.00450000539
v 0.000644214451 -0.000818446279 0.00450000539
v 0.000756293535 -0.000938519835 0.00450000539
v 0.000855319202 -0.0010676235 0.00450000539
v 0.000941246748 -0.0012049973 0.00450000539
v 0.00101405382 -0.00134988129 0.00450000539
v 0.00107370317 -0.00150148571 0.00450000539
v 0.00112015754 -0.00165906549 0.00450000539
v 0.00115337968 -0.00182186067 0.00450000539
v 0.00117333978 -0.0019890815 0.00450000539
v 0.0011800006 -0.00215999782 0.00450000539
v 0.00116079301 -0.00242695212 0.00450000539
v 0.00110471994 -0.00268143415 0.00450000539
v 0.00101406127 -0.00292140245 0.00450000539
v 0.000891111791 -0.00314481556 0.00450000539
v 0.000738158822 -0.00334961712 0.00450000539
v 0.000557497144 -0.00353375077 0.00450000539
v 0.000351421535 -0.00369517505 0.00450000539
v 0.000122219324 -0.0038318485 0.00450000539
v -0.00012781471 -0.00394171476 0.00450000539
v -0.000396393239 -0.00402273238 0.00450000539
v -0.000681214035 -0.00407284498 0.00450000539
v -0.000980004668 -0.00408999622 0.00450000539
v -0.00110799074 0.00197178125 0.00450000539
v -0.00125643611 0.00194755197 0.00450000539
v -0.00139453262 0.00190797448 0.00450000539
v -0.00152148306 0.00185370445 0.00450000539
v -0.00163649023 0.00178541243 0.00450000539
v -0.00173874944 0.00170375407 0.00450000539
v -0.00182747096 0.00160938501 0.00450000539
v -0.0019018501 0.00150296092 0.00450000539
v -0.00196109712 0.00138515234 0.00450000539
v -0.0020043999 0.00125661492 0.00450000539
v -0.00203096867 0.00111801922 0.00450000539
v -0.00203999877 0.000969991088 0.00450000539
v -0.00203002244 0.000831902027 0.00450000539
v -0.00200101733 0.000698521733 0.00450000539
v -0.0019543767 0.000571250916 0.00450000539
v -0.00189148635 0.000451475382 0.00450000539
v -0.00181373209 0.000340595841 0.00450000539
v -0.00172249973 0.000239998102 0.00450000539
v -0.00161918998 0.000151067972 0.00450000539
v -0.00150518864 7.51763582e-05 0.00450000539
v -0.00138187408 1.37537718e-05 0.00450000539
v -0.00125064701 -3.18586826e-05 0.00450000539
v -0.00111289322 -6.02304935e-05 0.00450000539
v -0.000969998538 -7.00056553e-05 0.00450000539
v -0.00082501024 -6.04391098e-05 0.00450000539
v -0.000685878098 -3.26484442e-05 0.00450000539
v -0.000553905964 1.20252371e-05 0.00450000539
v -0.000430375338 7.22259283e-05 0.00450000539
v -0.000316560268 0.000146582723 0.00450000539
v -0.000213749707 0.000233754516 0.00450000539
v -0.000123240054 0.0003323704 0.00450000539
v -4.62979078e-05 0.000441104174 0.00450000539
v 1.57803297e-05 0.000558584929 0.00450000539
v 6.17131591e-05 0.00068347156 0.00450000539
v 9.02116299e-05 0.000814393163 0.00450000539
v 0.000100001693 0.00094999373 0.00450000539
v 9.09864902e-05 0.00109420717 0.00450000539
v 6.45816326e-05 0.00123114884 0.00450000539
v 2.17184424e-05 0.00135983527 0.00450000539
v -3.66717577e-05 0.00147925317 0.00450000539
v -0.000109635293 0.00158838928 0.00450000539
v -0.000196248293 0.0016862452 0.00450000539
v -0.000295571983 0.00177180767 0.00450000539
v -0.00040666759 0.0018440783 0.00450000539
v -0.000528596342 0.00190202892 0.00450000539
v -0.000660419464 0.00194467604 0.00450000539
v -0.000801198184 0.00197100639 0.00450000539
v -0.00095000118 0.00197999179 0.00450000539
v -0.00115945935 -0.00100903213 0.00450000539
v -0.00132731348 -0.0010355562 0.00450000539
v -0.00148281455 -0.00107875466 0.00450000539
v -0.0016251877 -0.00113777816 0.00450000539
v -0.00175367296 -0.00121180713 0.00450000539
v -0.00186750293 -0.0013000071 0.00450000539
v -0.00196591765 -0.00140152872 0.00450000539
v -0.0020481497 -0.0015155524 0.00450000539
v -0.00211343914 -0.0016412586 0.00450000539
v -0.00216101855 -0.00177778304 0.00450000539
v -0.00219012797 -0.00192430615 0.00450000539
v -0.00219999999 -0.00208000839 0.00450000539
v -0.00218975544 -0.00223359466 0.00450000539
v -0.00215972215 -0.00237874687 0.00450000539
v -0.00211093575 -0.00251452625 0.00450000539
v -0.00204444677 -0.00264000893 0.00450000539
v -0.00196128339 -0.00275422633 0.00450000539
v -0.00186250359 -0.00285625458 0.00450000539
v -0.00174913555 -0.00294515491 0.00450000539
v -0.00162222236 -0.00302000344 0.00450000539
v -0.00148281455 -0.0030798465 0.00450000539
v -0.00133194774 -0.00312374532 0.00450000539
v -0.00117066503 -0.00315077603 0.00450000539
v -0.00100000203 -0.00315999985 0.00450000539
v -0.000810436904 -0.00314964354 0.00450000539
v -0.000636808574 -0.0031195879 0.00450000539
v -0.000479221344 -0.00307141244 0.00450000539
v -0.000337779522 -0.0030066669 0.00450000539
v -0.000212587416 -0.00292693079 0.00450000539
v -0.000103749335 -0.00283375382 0.00450000539
v -1.13770366e-05 -0.00272870064 0.00450000539
v 6.44400716e-05 -0.00261333585 0.00450000539
v 0.000123590231 -0.00248922408 0.00450000539
v 0.000165969133 -0.00235791504 0.00450000539
v 0.000191472471 -0.00222098827 0.00450000539
v 0.000199995935 -0.00208000839 0.00450000539
v 0.000189960003 -0.00192850828 0.00450000539
v 0.000160507858 -0.00178472698 0.00450000539
v 0.000112652779 -0.00164969265 0.00450000539
v 4.74080443e-05 -0.00152444839 0.00450000539
v -3.42354178e-05 -0.00141003728 0.00450000539
v -0.000131249428 -0.00130750239 0.00450000539
v -0.000242643058 -0.00121788681 0.00450000539
v -0.000367410481 -0.00114221871 0.00450000539
v -0.000504530966 -0.00108157098 0.00450000539
v -0.000653013587 -0.00103694201 0.00450000539
v -0.000811837614 -0.00100940466 0.00450000539
v -0.000980004668 -0.00100000203 0.00450000539
v -0.00128377229 -0.00407265127 0.00409999862
v -0.00157351792 -0.00402198732 0.00409999862
v -0.00184687972 -0.00394016504 0.00409999862
v -0.00210148096 -0.0038292557 0.00409999862
v -0.00233498216 -0.00369141996 0.00409999862
v -0.00254499912 -0.00352875888 0.00409999862
v -0.00272919238 -0.00334337354 0.00409999862
v -0.00288518518 -0.00313740969 0.00409999862
v -0.00301062316 -0.0029129684 0.00409999862
v -0.00310315192 -0.00267218053 0.00409999862
v -0.00316039473 -0.00241714716 0.00409999862
v -0.00318000466 -0.00214999914 0.00409999862
v -0.00317332894 -0.00197394192 0.00409999862
v -0.00315328687 -0.00180564821 0.00409999862
v -0.00311984867 -0.00164499879 0.00409999862
v -0.00307296216 -0.00149185956 0.00409999862
v -0.00301261246 -0.00134606659 0.00409999862
v -0.00293875486 -0.0012075007 0.00409999862
v -0.0028513521 -0.00107602775 0.00409999862
v -0.00275037438 -0.000951483846 0.00409999862
v -0.00263578445 -0.000833749771 0.00409999862
v -0.00250754505 -0.000722691417 0.00409999862
v -0.00236563385 -0.00061814487 0.00409999862
v -0.00220999867 -0.000520005822 0.00409999862
v -0.00233307481 -0.000424429774 0.00409999862
v -0.00244708359 -0.000322923064 0.00409999862
v -0.00255171955 -0.000215783715 0.00409999862
v -0.00264666975 -0.000103339553 0.00409999862
v -0.00273161381 1.41113997e-05 0.00409999862
v -0.00280625373 0.000136241317 0.00409999862
v -0.00287026167 0.000262752175 0.00409999862
v -0.00292333215 0.000393331051 0.00409999862
v -0.00296515971 0.000527650118 0.00409999862
v -0.00299541652 0.000665411353 0.00409999862
v -0.00301380455 0.000806301832 0.00409999862
v -0.00302000344 0.00094999373 0.00409999862
v -0.00300160795 0.00122384727 0.00409999862
v -0.00294782221 0.00148406625 0.00409999862
v -0.00286078453 0.00172874331 0.00409999862
v -0.00274259597 0.00195592642 0.00409999862
v -0.00259537995 0.00216364861 0.00409999862
v -0.00242125243 0.00235000253 0.00409999862
v -0.00222233683 0.00251300633 0.00409999862
v -0.00200074166 0.00265073776 0.00409999862
v -0.00175859779 0.00276124477 0.00409999862
v -0.00149801373 0.00284259021 0.00409999862
v -0.00122110546 0.00289282203 0.00409999862
v -0.000930003822 0.00291000307 0.00409999862
v -0.000648871064 0.00289261341 0.00409999862
v -0.000381805003 0.00284180045 0.00409999862
v -0.000130780041 0.00275953114 0.00409999862
v 0.000102221966 0.00264777243 0.00409999862
v 0.000315226614 0.00250852108 0.00409999862
v 0.0005062446 0.00234374404 0.00409999862
v 0.000673316419 0.00215543807 0.00409999862
v 0.000814445317 0.00194555521 0.00409999862
v 0.000927656889 0.00171609223 0.00409999862
v 0.00101096928 0.00146903098 0.00409999862
v 0.00106240809 0.00120633841 0.00409999862
v 0.00107999891 0.000929996371 0.00409999862
v 0.00107435137 0.000801593065 0.00409999862
v 0.00105731189 0.000671893358 0.00409999862
v 0.00102874637 0.000541716814 0.00409999862
v 0.000988513231 0.000411853194 0.00409999862
v 0.000936478376 0.00028309226 0.00409999862
v 0.000872500241 0.000156253576 0.00409999862
v 0.000796429813 3.21120024e-05 0.00409999862
v 0.000708147883 -8.85277987e-05 0.00409999862
v 0.00060749799 -0.000204846263 0.00409999862
v 0.000494353473 -0.00031606853 0.00409999862
v 0.000368565321 -0.000421389937 0.00409999862
v 0.000229999423 -0.000520005822 0.00409999862
v 0.000381037593 -0.000608414412 0.00409999862
v 0.000519119203 -0.000708147883 0.00409999862
v 0.000644214451 -0.000818446279 0.00409999862
v 0.000756293535 -0.000938519835 0.00409999862
v 0.000855319202 -0.0010676235 0.00409999862
v 0.000941246748 -0.0012049973 0.00409999862
v 0.00101405382 -0.00134988129 0.00409999862
v 0.00107370317 -0.00150148571 0.00409999862
v 0.00112015754 -0.00165906549 0.00409999862
v 0.00115337968 -0.00182186067 0.00409999862
v 0.00117333978 -0.0019890815 0.00409999862
v 0.0011800006 -0.00215999782 0.00409999862
v 0.00116079301 -0.00242695212 0.00409999862
v 0.00110471994 -0.00268143415 0.00409999862
v 0.00101406127 -0.00292140245 0.00409999862
v 0.000891111791 -0.00314481556 0.00409999862
v 0.000738158822 -0.00334961712 0.00409999862
v 0.000557497144 -0.00353375077 0.00409999862
v 0.000351421535 -0.00369517505 0.00409999862
v 0.000122219324 -0.0038318485 0.00409999862
v -0.00012781471 -0.00394171476 0.00409999862
v -0.000396393239 -0.00402273238 0.00409999862
v -0.000681214035 -0.00407284498 0.00409999862
v -0.000980004668 -0.00408999622 0.00409999862
v -0.00110799074 0.00197178125 0.00409999862
v -0.00125643611 0.00194755197 0.00409999862
v -0.00139453262 0.00190797448 0.00409999862
v -0.00152148306 0.00185370445 0.00409999862
v -0.00163649023 0.00178541243 0.00409999862
v -0.00173874944 0.00170375407 0.00409999862
v -0.00182747096 0.00160938501 0.00409999862
v -0.0019018501 0.00150296092 0.00409999862
v -0.00196109712 0.00138515234 0.00409999862
v -0.0020043999 0.00125661492 0.00409999862
v -0.00203096867 0.00111801922 0.00409999862
v -0.00203999877 0.000969991088 0.00409999862
v -0.00203002244 0.000831902027 0.00409999862
v -0.00200101733 0.000698521733 0.00409999862
v -0.0019543767 0.000571250916 0.00409999862
v -0.00189148635 0.000451475382 0.00409999862
v -0.00181373209 0.000340595841 0.00409999862
v -0.00172249973 0.000239998102 0.00409999862
v -0.00161918998 0.000151067972 0.00409999862
v -0.00150518864 7.51763582e-05 0.00409999862
v -0.00138187408 1.37537718e-05 0.00409999862
v -0.00125064701 -3.18586826e-05 0.00409999862
v -0.00111289322 -6.02304935e-05 0.00409999862
v -0.000969998538 -7.00056553e-05 0.00409999862
v -0.00082501024 -6.04391098e-05 0.00409999862
v -0.000685878098 -3.26484442e-05 0.00409999862
v -0.000553905964 1.20252371e-05 0.00409999862
v -0.000430375338 7.22259283e-05 0.00409999862
v -0.000316560268 0.000146582723 0.00409999862
v -0.000213749707 0.000233754516 0.00409999862
v -0.000123240054 0.0003323704 0.00409999862
v -4.62979078e-05 0.000441104174 0.00409999862
v 1.57803297e-05 0.000558584929 0.00409999862
v 6.17131591e-05 0.00068347156 0.00409999862
v 9.02116299e-05 0.000814393163 0.00409999862
v 0.000100001693 0.00094999373 0.00409999862
v 9.09864902e-05 0.00109420717 0.00409999862
v 6.45816326e-05 0.00123114884 0.00409999862
v 2.17184424e-05 0.00135983527 0.00409999862
v -3.66717577e-05 0.00147925317 0.00409999862
v -0.000109635293 0.00158838928 0.00409999862
v -0.000196248293 0.0016862452 0.00409999862
v -0.000295571983 0.00177180767 0.00409999862
v -0.00040666759 0.0018440783 0.00409999862
v -0.000528596342 0.00190202892 0.00409999862
v -0.000660419464 0.00194467604 0.00409999862
v -0.000801198184 0.00197100639 0.00409999862
v -0.00095000118 0.00197999179 0.00409999862
v -0.00115945935 -0.00100903213 0.00409999862
v -0.00132731348 -0.0010355562 0.00409999862
v -0.00148281455 -0.00107875466 0.00409999862
v -0.0016251877 -0.00113777816 0.00409999862
v -0.00175367296 -0.00121180713 0.00409999862
v -0.00186750293 -0.0013000071 0.00409999862
v -0.00196591765 -0.00140152872 0.00409999862
v -0.0020481497 -0.0015155524 0.00409999862
v -0.00211343914 -0.0016412586 0.00409999862
v -0.00216101855 -0.00177778304 0.00409999862
v -0.00219012797 -0.00192430615 0.00409999862
v -0.00219999999 -0.00208000839 0.00409999862
v -0.00218975544 -0.00223359466 0.00409999862
v -0.00215972215 -0.00237874687 0.00409999862
v -0.00211093575 -0.00251452625 0.00409999862
v -0.00204444677 -0.00264000893 0.00409999862
v -0.00196128339 -0.00275422633 0.00409999862
v -0.00186250359 -0.00285625458 0.00409999862
v -0.00174913555 -0.00294515491 0.00409999862
v -0.00162222236 -0.00302000344 0.00409999862
v -0.00148281455 -0.0030798465 0.00409999862
v -0.00133194774 -0.00312374532 0.00409999862
v -0.00117066503 -0.00315077603 0.00409999862
v -0.00100000203 -0.00315999985 0.00409999862
v -0.000810436904 -0.00314964354 0.00409999862
v -0.000636808574 -0.0031195879 0.00409999862
v -0.000479221344 -0.00307141244 0.00409999862
v -0.000337779522 -0.0030066669 0.00409999862
v -0.000212587416 -0.00292693079 0.00409999862
v -0.000103749335 -0.00283375382 0.00409999862
v -1.13770366e-05 -0.00272870064 0.00409999862
v 6.44400716e-05 -0.00261333585 0.00409999862
v 0.000123590231 -0.00248922408 0.00409999862
v 0.000165969133 -0.00235791504 0.00409999862
v 0.000191472471 -0.00222098827 0.00409999862
v 0.000199995935 -0.00208000839 0.00409999862
v 0.000189960003 -0.00192850828 0.00409999862
v 0.000160507858 -0.00178472698 0.00409999862
v 0.000112652779 -0.00164969265 0.00409999862
v 4.74080443e-05 -0.00152444839 0.00409999862
v -3.42354178e-05 -0.00141003728 0.00409999862
v -0.000131249428 -0.00130750239 0.00409999862
v -0.000242643058 -0.00121788681 0.00409999862
v -0.000367410481 -0.00114221871 0.00409999862
v -0.000504530966 -0.00108157098 0.00409999862
v -0.000653013587 -0.00103694201 0.00409999862
v -0.000811837614 -0.00100940466 0.00409999862
v -0.000980004668 -0.00100000203 0.00409999862
v -0.00128377229 -0.00407265127 0.00409999862
v -0.00128377229 -0.00407265127 0.00450000539
v -0.00157351792 -0.00402198732 0.00409999862
v -0.00157351792 -0.00402198732 0.00450000539
v -0.00184687972 -0.00394016504 0.00409999862
v -0.00184687972 -0.00394016504 0.00450000539
v -0.00210148096 -0.0038292557 0.00409999862
v -0.00210148096 -0.0038292557 0.00450000539
v -0.00233498216 -0.00369141996 0.00409999862
v -0.00233498216 -0.00369141996 0.00450000539
v -0.00254499912 -0.00352875888 0.00409999862
v -0.00254499912 -0.00352875888 0.00450000539
v -0.00272919238 -0.00334337354 0.00409999862
v -0.00272919238 -0.00334337354 0.00450000539
v -0.00288518518 -0.00313740969 0.00409999862
v -0.00288518518 -0.00313740969 0.00450000539
v -0.00301062316 -0.0029129684 0.00409999862
v -0.00301062316 -0.0029129684 0.00450000539
v -0.00310315192 -0.00267218053 0.00409999862
v -0.00310315192 -0.00267218053 0.00450000539
v -0.00316039473 -0.00241714716 0.00409999862
v -0.00316039473 -0.00241714716 0.00450000539
v -0.00318000466 -0.00214999914 0.00409999862
v -0.00318000466 -0.00214999914 0.00450000539
v -0.00317332894 -0.00197394192 0.00409999862
v -0.00317332894 -0.00197394192 0.00450000539
v -0.00315328687 -0.00180564821 0.00409999862
v -0.00315328687 -0.00180564821 0.00450000539
v -0.00311984867 -0.00164499879 0.00409999862
v -0.00311984867 -0.00164499879 0.00450000539
v -0.00307296216 -0.00149185956 0.00409999862
v -0.00307296216 -0.00149185956 0.00450000539
v -0.00301261246 -0.00134606659 0.00409999862
v -0.00301261246 -0.00134606659 0.00450000539
v -0.00293875486 -0.0012075007 0.00409999862
v -0.00293875486 -0.0012075007 0.00450000539
v -0.0028513521 -0.00107602775 0.00409999862
v -0.0028513521 -0.00107602775 0.00450000539
v -0.00275037438 -0.000951483846 0.00409999862
v -0.00275037438 -0.000951483846 0.00450000539
v -0.00263578445 -0.000833749771 0.00409999862
v -0.00263578445 -0.000833749771 0.00450000539
v -0.00250754505 -0.000722691417 0.00409999862
v -0.00250754505 -0.000722691417 0.00450000539
v -0.00236563385 -0.00061814487 0.00409999862
v -0.00236563385 -0.00061814487 0.00450000539
v -0.00220999867 -0.000520005822 0.00409999862
v -0.00220999867 -0.000520005822 0.00450000539
v -0.00233307481 -0.000424429774 0.00409999862
v -0.00233307481 -0.000424429774 0.00450000539
v -0.00244708359 -0.000322923064 0.00409999862
v -0.00244708359 -0.000322923064 0.00450000539
v -0.00255171955 -0.000215783715 0.00409999862
v -0.00255171955 -0.000215783715 0.00450000539
v -0.00264666975 -0.000103339553 0.00409999862
v -0.00264666975 -0.000103339553 0.00450000539
v -0.00273161381 1.41113997e-05 0.00409999862
v -0.00273161381 1.41113997e-05 0.00450000539
v -0.00280625373 0.000136241317 0.00409999862
v -0.00280625373 0.000136241317 0.00450000539
v -0.00287026167 0.000262752175 0.00409999862
v -0.00287026167 0.000262752175 0.00450000539
v -0.00292333215 0.000393331051 0.00409999862
v -0.00292333215 0.000393331051 0.00450000539
v -0.00296515971 0.000527650118 0.00409999862
v -0.00296515971 0.000527650118 0.00450000539
v -0.00299541652 0.000665411353 0.00409999862
v -0.00299541652 0.000665411353 0.00450000539
v -0.00301380455 0.000806301832 0.00409999862
v -0.00301380455 0.000806301832 0.00450000539
v -0.00302000344 0.00094999373 0.00409999862
v -0.00302000344 0.00094999373 0.00450000539
v -0.00300160795 0.00122384727 0.00409999862
v -0.00300160795 0.00122384727 0.00450000539
v -0.00294782221 0.00148406625 0.00409999862
v -0.00294782221 0.00148406625 0.00450000539
v -0.00286078453 0.00172874331 0.00409999862
v -0.00286078453 0.00172874331 0.00450000539
v -0.00274259597 0.00195592642 0.00409999862
v -0.00274259597 0.00195592642 0.00450000539
v -0.00259537995 0.00216364861 0.00409999862
v -0.00259537995 0.00216364861 0.00450000539
v -0.00242125243 0.00235000253 0.00409999862
v -0.00242125243 0.00235000253 0.00450000539
v -0.00222233683 0.00251300633 0.00409999862
v -0.00222233683 0.00251300633 0.00450000539
v -0.00200074166 0.00265073776 0.00409999862
v -0.00200074166 0.00265073776 0.00450000539
v -0.00175859779 0.00276124477 0.00409999862
v -0.00175859779 0.00276124477 0.00450000539
v -0.00149801373 0.00284259021 0.00409999862
v -0.00149801373 0.00284259021 0.00450000539
v -0.00122110546 0.00289282203 0.00409999862
v -0.00122110546 0.00289282203 0.00450000539
v -0.000930003822 0.00291000307 0.00409999862
v -0.000930003822 0.00291000307 0.00450000539
v -0.000648871064 0.00289261341 0.00409999862
v -0.000648871064 0.00289261341 0.00450000539
v -0.000381805003 0.00284180045 0.00409999862
v -0.000381805003 0.00284180045 0.00450000539
v -0.000130780041 0.00275953114 0.00409999862
v -0.000130780041 0.00275953114 0.00450000539
v 0.000102221966 0.00264777243 0.00409999862
v 0.000102221966 0.00264777243 0.00450000539
v 0.000315226614 0.00250852108 0.00409999862
v 0.000315226614 0.00250852108 0.00450000539
v 0.0005062446 0.00234374404 0.00409999862
v 0.0005062446 0.00234374404 0.00450000539
v 0.000673316419 0.00215543807 0.00409999862
v 0.000673316419 0.00215543807 0.00450000539
v 0.000814445317 0.00194555521 0.00409999862
v 0.000814445317 0.00194555521 0.00450000539
v 0.000927656889 0.00171609223 0.00409999862
v 0.000927656889 0.00171609223 0.00450000539
v 0.00101096928 0.00146903098 0.00409999862
v 0.00101096928 0.00146903098 0.00450000539
v 0.00106240809 0.00120633841 0.00409999862
v 0.00106240809 0.00120633841 0.00450000539
v 0.00107999891 0.000929996371 0.00409999862
v 0.00107999891 0.000929996371 0.00450000539
v 0.00107435137 0.000801593065 0.00409999862
v 0.00107435137 0.000801593065 0.00450000539
v 0.00105731189 0.000671893358 0.00409999862
v 0.00105731189 0.000671893358 0.00450000539
v 0.00102874637 0.000541716814 0.00409999862
v 0.00102874637 0.000541716814 0.00450000539
v 0.000988513231 0.000411853194 0.00409999862
v 0.000988513231 0.000411853194 0.00450000539
v 0.000936478376 0.00028309226 0.00409999862
v 0.000936478376 0.00028309226 0.00450000539
v 0.000872500241 0.000156253576 0.00409999862
v 0.000872500241 0.000156253576 0.00450000539
v 0.000796429813 3.21120024e-05 0.00409999862
v 0.000796429813 3.21120024e-05 0.00450000539
v 0.000708147883 -8.85277987e-05 0.00409999862
v 0.000708147883 -8.85277987e-05 0.00450000539
v 0.00060749799 -0.000204846263 0.00409999862
v 0.00060749799 -0.000204846263 0.00450000539
v 0.000494353473 -0.00031606853 0.00409999862
v 0.000494353473 -0.00031606853 0.00450000539
v 0.000368565321 -0.000421389937 0.00409999862
v 0.000368565321 -0.000421389937 0.00450000539
v 0.000229999423 -0.000520005822 0.00409999862
v 0.000229999423 -0.000520005822 0.00450000539
v 0.000381037593 -0.000608414412 0.00409999862
v 0.000381037593 -0.000608414412 0.00450000539
v 0.000519119203 -0.000708147883 0.00409999862
v 0.000519119203 -0.000708147883 0.00450000539
v 0.000644214451 -0.000818446279 0.00409999862
v 0.000644214451 -0.000818446279 0.00450000539
v 0.000756293535 -0.000938519835 0.00409999862
v 0.000756293535 -0.000938519835 0.00450000539
v 0.000855319202 -0.0010676235 0.00409999862
v 0.000855319202 -0.0010676235 0.00450000539
v 0.000941246748 -0.0012049973 0.00409999862
v 0.000941246748 -0.0012049973 0.00450000539
v 0.00101405382 -0.00134988129 0.00409999862
v 0.00101405382 -0.00134988129 0.00450000539
v 0.00107370317 -0.00150148571 0.00409999862
v 0.00107370317 -0.00150148571 0.00450000539
v 0.00112015754 -0.00165906549 0.00409999862
v 0.00112015754 -0.00165906549 0.00450000539
v 0.00115337968 -0.00182186067 0.00409999862
v 0.00115337968 -0.00182186067 0.00450000539
v 0.00117333978 -0.0019890815 0.00409999862
v 0.00117333978 -0.0019890815 0.00450000539
v 0.0011800006 -0.00215999782 0.00409999862
v 0.0011800006 -0.00215999782 0.00450000539
v 0.00116079301 -0.00242695212 0.00409999862
v 0.00116079301 -0.00242695212 0.00450000539
v 0.00110471994 -0.00268143415 0.00409999862
v 0.00110471994 -0.00268143415 0.00450000539
v 0.00101406127 -0.00292140245 0.00409999862
v 0.00101406127 -0.00292140245 0.00450000539
v 0.000891111791 -0.00314481556 0.00409999862
v 0.000891111791 -0.00314481556 0.00450000539
v 0.000738158822 -0.00334961712 0.00409999862
v 0.000738158822 -0.00334961712 0.00450000539
v 0.000557497144 -0.00353375077 0.00409999862
v 0.000557497144 -0.00353375077 0.00450000539
v 0.000351421535 -0.00369517505 0.00409999862
v 0.000351421535 -0.00369517505 0.00450000539
v 0.000122219324 -0.0038318485 0.00409999862
v 0.000122219324 -0.0038318485 0.00450000539
v -0.00012781471 -0.00394171476 0.00409999862
v -0.00012781471 -0.00394171476 0.00450000539
v -0.000396393239 -0.00402273238 0.00409999862
v -0.000396393239 -0.00402273238 0.00450000539
v -0.000681214035 -0.00407284498 0.00409999862
v -0.000681214035 -0.00407284498 0.00450000539
v -0.000980004668 -0.00408999622 0.00409999862
v -0.000980004668 -0.00408999622 0.00450000539
v -0.00110799074 0.00197178125 0.00409999862
v -0.00110799074 0.00197178125 0.00450000539
v -0.00125643611 0.00194755197 0.00409999862
v -0.00125643611 0.00194755197 0.00450000539
v -0.00139453262 0.00190797448 0.00409999862
v -0.00139453262 0.00190797448 0.00450000539
v -0.00152148306 0.00185370445 0.00409999862
v -0.00152148306 0.00185370445 0.00450000539
v -0.00163649023 0.00178541243 0.00409999862
v -0.00163649023 0.00178541243 0.00450000539
v -0.00173874944 0.00170375407 0.00409999862
v -0.00173874944 0.00170375407 0.00450000539
v -0.00182747096 0.00160938501 0.00409999862
v -0.00182747096 0.00160938501 0.00450000539
v -0.0019018501 0.00150296092 0.00409999862
v -0.0019018501 0.00150296092 0.00450000539
v -0.00196109712 0.00138515234 0.00409999862
v -0.00196109712 0.00138515234 0.00450000539
v -0.0020043999 0.00125661492 0.00409999862
v -0.0020043999 0.00125661492 0.00450000539
v -0.00203096867 0.00111801922 0.00409999862
v -0.00203096867 0.00111801922 0.00450000539
v -0.00203999877 0.000969991088 0.00409999862
v -0.00203999877 0.000969991088 0.00450000539
v -0.00203002244 0.000831902027 0.00409999862
v -0.00203002244 0.000831902027 0.00450000539
v -0.00200101733 0.000698521733 0.00409999862
v -0.00200101733 0.000698521733 0.00450000539
v -0.0019543767 0.000571250916 0.00409999862
v -0.0019543767 0.000571250916 0.00450000539
v -0.00189148635 0.000451475382 0.00409999862
v -0.00189148635 0.000451475382 0.00450000539
v -0.00181373209 0.000340595841 0.00409999862
v -0.00181373209 0.000340595841 0.00450000539
v -0.00172249973 0.000239998102 0.00409999862
v -0.00172249973 0.000239998102 0.00450000539
v -0.00161918998 0.000151067972 0.00409999862
v -0.00161918998 0.000151067972 0.00450000539
v -0.00150518864 7.51763582e-05 0.00409999862
v -0.00150518864 7.51763582e-05 0.00450000539
v -0.00138187408 1.37537718e-05 0.00409999862
v -0.00138187408 1.37537718e-05 0.00450000539
v -0.00125064701 -3.18586826e-05 0.00409999862
v -0.00125064701 -3.18586826e-05 0.00450000539
v -0.00111289322 -6.02304935e-05 0.00409999862
v -0.00111289322 -6.02304935e-05 0.00450000539
v -0.000969998538 -7.00056553e-05 0.00409999862
v -0.000969998538 -7.00056553e-05 0.00450000539
v -0.00082501024 -6.04391098e-05 0.00409999862
v -0.00082501024 -6.04391098e-05 0.00450000539
v -0.000685878098 -3.26484442e-05 0.00409999862
v -0.000685878098 -3.26484442e-05 0.00450000539
v -0.000553905964 1.20252371e-05 0.00409999862
v -0.000553905964 1.20252371e-05 0.00450000539
v -0.000430375338 7.22259283e-05 0.00409999862
v -0.000430375338 7.22259283e-05 0.00450000539
v -0.000316560268 0.000146582723 0.00409999862
v -0.000316560268 0.000146582723 0.00450000539
v -0.000213749707 0.000233754516 0.00409999862
v -0.000213749707 0.000233754516 0.00450000539
v -0.000123240054 0.0003323704 0.00409999862
v -0.000123240054 0.0003323704 0.00450000539
v -4.62979078e-05 0.000441104174 0.00409999862
v -4.62979078e-05 0.000441104174 0.00450000539
v 1.57803297e-05 0.000558584929 0.00409999862
v 1.57803297e-05 0.000558584929 0.00450000539
v 6.17131591e-05 0.00068347156 0.00409999862
v 6.17131591e-05 0.00068347156 0.00450000539
v 9.02116299e-05 0.000814393163 0.00409999862
v 9.02116299e-05 0.000814393163 0.00450000539
v 0.000100001693 0.00094999373 0.00409999862
v 0.000100001693 0.00094999373 0.00450000539
v 9.09864902e-05 0.00109420717 0.00409999862
v 9.09864902e-05 0.00109420717 0.00450000539
v 6.45816326e-05 0.00123114884 0.00409999862
v 6.45816326e-05 0.00123114884 0.00450000539
v 2.17184424e-05 0.00135983527 0.00409999862
v 2.17184424e-05 0.00135983527 0.00450000539
v -3.66717577e-05 0.00147925317 0.00409999862
v -3.66717577e-05 0.00147925317 0.00450000539
v -0.000109635293 0.00158838928 0.00409999862
v -0.000109635293 0.00158838928 0.00450000539
v -0.000196248293 0.0016862452 0.00409999862
v -0.000196248293 0.0016862452 0.00450000539
v -0.000295571983 0.00177180767 0.00409999862
v -0.000295571983 0.00177180767 0.00450000539
v -0.00040666759 0.0018440783 0.00409999862
v -0.00040666759 0.0018440783 0.00450000539
v -0.000528596342 0.00190202892 0.00409999862
v -0.000528596342 0.00190202892 0.00450000539
v -0.000660419464 0.00194467604 0.00409999862
v -0.000660419464 0.00194467604 0.00450000539
v -0.000801198184 0.00197100639 0.00409999862
v -0.000801198184 0.00197100639 0.00450000539
v -0.00095000118 0.00197999179 0.00409999862
v -0.00095000118 0.00197999179 0.00450000539
v -0.00115945935 -0.00100903213 0.00409999862
v -0.00115945935 -0.00100903213 0.00450000539
v -0.00132731348 -0.0010355562 0.00409999862
v -0.00132731348 -0.0010355562 0.00450000539
v -0.00148281455 -0.00107875466 0.00409999862
v -0.00148281455 -0.00107875466 0.00450000539
v -0.0016251877 -0.00113777816 0.00409999862
v -0.0016251877 -0.00113777816 0.00450000539
v -0.00175367296 -0.00121180713 0.00409999862
v -0.00175367296 -0.00121180713 0.00450000539
v -0.00186750293 -0.0013000071 0.00409999862
v -0.00186750293 -0.0013000071 0.00450000539
v -0.00196591765 -0.00140152872 0.00409999862
v -0.00196591765 -0.00140152872 0.00450000539
v -0.0020481497 -0.0015155524 0.00409999862
v -0.0020481497 -0.0015155524 0.00450000539
v -0.00211343914 -0.0016412586 0.00409999862
v -0.00211343914 -0.0016412586 0.00450000539
v -0.00216101855 -0.00177778304 0.00409999862
v -0.00216101855 -0.00177778304 0.00450000539
v -0.00219012797 -0.00192430615 0.00409999862
v -0.00219012797 -0.00192430615 0.00450000539
v -0.00219999999 -0.00208000839 0.00409999862
v -0.00219999999 -0.00208000839 0.00450000539
v -0.00218975544 -0.00223359466 0.00409999862
v -0.00218975544 -0.00223359466 0.00450000539
v -0.00215972215 -0.00237874687 0.00409999862
v -0.00215972215 -0.00237874687 0.00450000539
v -0.00211093575 -0.00251452625 0.00409999862
v -0.00211093575 -0.00251452625 0.00450000539
v -0.00204444677 -0.00264000893 0.00409999862
v -0.00204444677 -0.00264000893 0.00450000539
v -0.00196128339 -0.00275422633 0.00409999862
v -0.00196128339 -0.00275422633 0.00450000539
v -0.00186250359 -0.00285625458 0.00409999862
v -0.00186250359 -0.00285625458 0.00450000539
v -0.00174913555 -0.00294515491 0.00409999862
v -0.00174913555 -0.00294515491 0.00450000539
v -0.00162222236 -0.00302000344 0.00409999862
v -0.00162222236 -0.00302000344 0.00450000539
v -0.00148281455 -0.0030798465 0.00409999862
v -0.00148281455 -0.0030798465 0.00450000539
v -0.00133194774 -0.00312374532 0.00409999862
v -0.00133194774 -0.00312374532 0.00450000539
v -0.00117066503 -0.00315077603 0.00409999862
v -0.00117066503 -0.00315077603 0.00450000539
v -0.00100000203 -0.00315999985 0.00409999862
v -0.00100000203 -0.00315999985 0.00450000539
v -0.000810436904 -0.00314964354 0.00409999862
v -0.000810436904 -0.00314964354 0.00450000539
v -0.000636808574 -0.0031195879 0.00409999862
v -0.000636808574 -0.0031195879 0.00450000539
v -0.000479221344 -0.00307141244 0.00409999862
v -0.000479221344 -0.00307141244 0.00450000539
v -0.000337779522 -0.0030066669 0.00409999862
v -0.000337779522 -0.0030066669 0.00450000539
v -0.000212587416 -0.00292693079 0.00409999862
v -0.000212587416 -0.00292693079 0.00450000539
v -0.000103749335 -0.00283375382 0.00409999862
v -0.000103749335 -0.00283375382 0.00450000539
v -1.13770366e-05 -0.00272870064 0.00409999862
v -1.13770366e-05 -0.00272870064 0.00450000539
v 6.44400716e-05 -0.00261333585 0.00409999862
v 6.44400716e-05 -0.00261333585 0.00450000539
v 0.000123590231 -0.00248922408 0.00409999862
v 0.000123590231 -0.00248922408 0.00450000539
v 0.000165969133 -0.00235791504 0.00409999862
v 0.000165969133 -0.00235791504 0.00450000539
v 0.000191472471 -0.00222098827 0.00409999862
v 0.000191472471 -0.00222098827 0.00450000539
v 0.000199995935 -0.00208000839 0.00409999862
v 0.000199995935 -0.00208000839 0.00450000539
v 0.000189960003 -0.00192850828 0.00409999862
v 0.000189960003 -0.00192850828 0.00450000539
v 0.000160507858 -0.00178472698 0.00409999862
v 0.000160507858 -0.00178472698 0.00450000539
v 0.000112652779 -0.00164969265 0.00409999862
v 0.000112652779 -0.00164969265 0.00450000539
v 4.74080443e-05 -0.00152444839 0.00409999862
v 4.74080443e-05 -0.00152444839 0.00450000539
v -3.42354178e-05 -0.00141003728 0.00409999862
v -3.42354178e-05 -0.00141003728 0.00450000539
v -0.000131249428 -0.00130750239 0.00409999862
v -0.000131249428 -0.00130750239 0.00450000539
v -0.000242643058 -0.00121788681 0.00409999862
v -0.000242643058 -0.00121788681 0.00450000539
v -0.000367410481 -0.00114221871 0.00409999862
v -0.000367410481 -0.00114221871 0.00450000539
v -0.000504530966 -0.00108157098 0.00409999862
v -0.000504530966 -0.00108157098 0.00450000539
v -0.000653013587 -0.00103694201 0.00409999862
v -0.000653013587 -0.00103694201 0.00450000539
v -0.000811837614 -0.00100940466 0.00409999862
v -0.000811837614 -0.00100940466 0.00450000539
v -0.000980004668 -0.00100000203 0.00409999862
v -0.000980004668 -0.00100000203 0.00450000539
usemtl screen_white_text_003
f 199 201 200
f 198 201 199
f 198 202 201
f 197 202 198
f 197 203 202
f 196 203 197
f 196 204 203
f 195 204 196
f 195 205 204
f 194 205 195
f 194 206 205
f 193 206 194
f 193 207 206
f 192 207 193
f 192 296 207
f 296 208 207
f 192 249 296
f 295 208 296
f 192 250 249
f 294 208 295
f 191 250 192
f 191 251 250
f 294 209 208
f 293 209 294
f 191 252 251
f 292 209 293
f 191 253 252
f 291 209 292
f 191 254 253
f 290 209 291
f 190 254 191
f 290 210 209
f 190 255 254
f 289 210 290
f 190 256 255
f 288 210 289
f 190 257 256
f 189 257 190
f 287 210 288
f 287 211 210
f 189 258 257
f 286 211 287
f 189 259 258
f 285 211 286
f 188 259 189
f 285 212 211
f 188 260 259
f 284 212 285
f 188 261 260
f 187 261 188
f 283 212 284
f 283 213 212
f 187 262 261
f 282 213 283
f 186 262 187
f 282 214 213
f 186 263 262
f 281 214 282
f 281 215 214
f 185 263 186
f 185 264 263
f 280 215 281
f 280 216 215
f 184 264 185
f 184 265 264
f 279 216 280
f 279 217 216
f 183 265 184
f 183 266 265
f 278 217 279
f 278 218 217
f 182 266 183
f 182 267 266
f 277 218 278
f 277 219 218
f 182 268 267
f 276 219 277
f 181 268 182
f 181 269 268
f 275 219 276
f 275 220 219
f 180 269 181
f 180 270 269
f 274 220 275
f 180 271 270
f 273 220 274
f 180 272 271
f 272 220 273
f 180 220 272
f 180 221 220
f 179 221 180
f 179 222 221
f 178 222 179
f 178 223 222
f 177 223 178
f 177 224 223
f 176 224 177
f 175 224 176
f 175 225 224
f 175 226 225
f 174 226 175
f 174 227 226
f 173 227 174
f 173 228 227
f 172 228 173
f 172 344 228
f 344 229 228
f 171 344 172
f 171 297 344
f 343 229 344
f 171 298 297
f 342 229 343
f 171 299 298
f 341 229 342
f 341 230 229
f 170 299 171
f 170 300 299
f 340 230 341
f 170 301 300
f 339 230 340
f 339 231 230
f 169 301 170
f 169 302 301
f 338 231 339
f 169 303 302
f 337 231 338
f 168 303 169
f 337 232 231
f 168 304 303
f 336 232 337
f 167 304 168
f 336 233 232
f 167 305 304
f 335 233 336
f 167 306 305
f 166 306 167
f 334 233 335
f 334 234 233
f 166 307 306
f 333 234 334
f 165 307 166
f 333 235 234
f 165 308 307
f 332 235 333
f 164 308 165
f 332 236 235
f 164 309 308
f 331 236 332
f 163 309 164
f 331 237 236
f 330 237 331
f 163 310 309
f 329 237 330
f 163 311 310
f 162 311 163
f 329 238 237
f 328 238 329
f 162 312 311
f 327 238 328
f 162 313 312
f 161 313 162
f 327 239 238
f 326 239 327
f 161 314 313
f 325 239 326
f 161 315 314
f 160 315 161
f 325 240 239
f 324 240 325
f 160 316 315
f 323 240 324
f 160 317 316
f 322 240 323
f 160 318 317
f 321 240 322
f 160 319 318
f 159 319 160
f 321 241 240
f 320 241 321
f 159 320 319
f 159 241 320
f 158 241 159
f 158 242 241
f 157 242 158
f 157 243 242
f 156 243 157
f 156 244 243
f 155 244 156
f 155 245 244
f 154 245 155
f 154 246 245
f 153 246 154
f 153 247 246
f 248 247 153
f 391 392 393
f 390 391 393
f 390 393 394
f 389 390 394
f 389 394 395
f 388 389 395
f 388 395 396
f 387 388 396
f 387 396 397
f 386 387 397
f 386 397 398
f 385 386 398
f 385 398 399
f 384 385 399
f 384 399 488
f 488 399 400
f 384 488 441
f 487 488 400
f 384 441 442
f 486 487 400
f 383 384 442
f 383 442 443
f 486 400 401
f 485 486 401
f 383 443 444
f 484 485 401
f 383 444 445
f 483 484 401
f 383 445 446
f 482 483 401
f 382 383 446
f 482 401 402
f 382 446 447
f 481 482 402
f 382 447 448
f 480 481 402
f 382 448 449
f 381 382 449
f 479 480 402
f 479 402 403
f 381 449 450
f 478 479 403
f 381 450 451
f 477 478 403
f 380 381 451
f 477 403 404
f 380 451 452
f 476 477 404
f 380 452 453
f 379 380 453
f 475 476 404
f 475 404 405
f 379 453 454
f 474 475 405
f 378 379 454
f 474 405 406
f 378 454 455
f 473 474 406
f 473 406 407
f 377 378 455
f 377 455 456
f 472 473 407
f 472 407 408
f 376 377 456
f 376 456 457
f 471 472 408
f 471 408 409
f 375 376 457
f 375 457 458
f 470 471 409
f 470 409 410
f 374 375 458
f 374 458 459
f 469 470 410
f 469 410 411
f 374 459 460
f 468 469 411
f 373 374 460
f 373 460 461
f 467 468 411
f 467 411 412
f 372 373 461
f 372 461 462
f 466 467 412
f 372 462 463
f 465 466 412
f 372 463 464
f 464 465 412
f 372 464 412
f 372 412 413
f 371 372 413
f 371 413 414
f 370 371 414
f 370 414 415
f 369 370 415
f 369 415 416
f 368 369 416
f 367 368 416
f 367 416 417
f 367 417 418
f 366 367 418
f 366 418 419
f 365 366 419
f 365 419 420
f 364 365 420
f 364 420 536
f 536 420 421
f 363 364 536
f 363 536 489
f 535 536 421
f 363 489 490
f 534 535 421
f 363 490 491
f 533 534 421
f 533 421 422
f 362 363 491
f 362 491 492
f 532 533 422
f 362 492 493
f 531 532 422
f 531 422 423
f 361 362 493
f 361 493 494
f 530 531 423
f 361 494 495
f 529 530 423
f 360 361 495
f 529 423 424
f 360 495 496
f 528 529 424
f 359 360 496
f 528 424 425
f 359 496 497
f 527 528 425
f 359 497 498
f 358 359 498
f 526 527 425
f 526 425 426
f 358 498 499
f 525 526 426
f 357 358 499
f 525 426 427
f 357 499 500
f 524 525 427
f 356 357 500
f 524 427 428
f 356 500 501
f 523 524 428
f 355 356 501
f 523 428 429
f 522 523 429
f 355 501 502
f 521 522 429
f 355 502 503
f 354 355 503
f 521 429 430
f 520 521 430
f 354 503 504
f 519 520 430
f 354 504 505
f 353 354 505
f 519 430 431
f 518 519 431
f 353 505 506
f 517 518 431
f 353 506 507
f 352 353 507
f 517 431 432
f 516 517 432
f 352 507 508
f 515 516 432
f 352 508 509
f 514 515 432
f 352 509 510
f 513 514 432
f 352 510 511
f 351 352 511
f 513 432 433
f 512 513 433
f 351 511 512
f 351 512 433
f 350 351 433
f 350 433 434
f 349 350 434
f 349 434 435
f 348 349 435
f 348 435 436
f 347 348 436
f 347 436 437
f 346 347 437
f 346 437 438
f 345 346 438
f 345 438 439
f 440 345 439
f 538 540 539 537
f 540 542 541 539
f 542 544 543 541
f 544 546 545 543
f 546 548 547 545
f 548 550 549 547
f 550 552 551 549
f 552 554 553 551
f 554 556 555 553
f 556 558 557 555
f 558 560 559 557
f 560 562 561 559
f 562 564 563 561
f 564 566 565 563
f 566 568 567 565
f 568 570 569 567
f 570 572 571 569
f 572 574 573 571
f 574 576 575 573
f 576 578 577 575
f 578 580 579 577
f 580 582 581 579
f 582 584 583 581
f 584 586 585 583
f 586 588 587 585
f 588 590 589 587
f 590 592 591 589
f 592 594 593 591
f 594 596 595 593
f 596 598 597 595
f 598 600 599 597
f 600 602 601 599
f 602 604 603 601
f 604 606 605 603
f 606 608 607 605
f 608 610 609 607
f 610 612 611 609
f 612 614 613 611
f 614 616 615 613
f 616 618 617 615
f 618 620 619 617
f 620 622 621 619
f 622 624 623 621
f 624 626 625 623
f 626 628 627 625
f 628 630 629 627
f 630 632 631 629
f 632 634 633 631
f 634 636 635 633
f 636 638 637 635
f 638 640 639 637
f 640 642 641 639
f 642 644 643 641
f 644 646 645 643
f 646 648 647 645
f 648 650 649 647
f 650 652 651 649
f 652 654 653 651
f 654 656 655 653
f 656 658 657 655
f 658 660 659 657
f 660 662 661 659
f 662 664 663 661
f 664 666 665 663
f 666 668 667 665
f 668 670 669 667
f 670 672 671 669
f 672 674 673 671
f 674 676 675 673
f 676 678 677 675
f 678 680 679 677
f 680 682 681 679
f 682 684 683 681
f 684 686 685 683
f 686 688 687 685
f 688 690 689 687
f 690 692 691 689
f 692 694 693 691
f 694 696 695 693
f 696 698 697 695
f 698 700 699 697
f 700 702 701 699
f 702 704 703 701
f 704 706 705 703
f 706 708 707 705
f 708 710 709 707
f 710 712 711 709
f 712 714 713 711
f 714 716 715 713
f 716 718 717 715
f 718 720 719 717
f 720 722 721 719
f 722 724 723 721
f 724 726 725 723
f 726 728 727 725
f 728 538 537 727
f 730 732 731 729
f 732 734 733 731
f 734 736 735 733
f 736 738 737 735
f 738 740 739 737
f 740 742 741 739
f 742 744 743 741
f 744 746 745 743
f 746 748 747 745
f 748 750 749 747
f 750 752 751 749
f 752 754 753 751
f 754 756 755 753
f 756 758 757 755
f 758 760 759 757
f 760 762 761 759
f 762 764 763 761
f 764 766 765 763
f 766 768 767 765
f 768 770 769 767
f 770 772 771 769
f 772 774 773 771
f 774 776 775 773
f 776 778 777 775
f 778 780 779 777
f 780 782 781 779
f 782 784 783 781
f 784 786 785 783
f 786 788 787 785
f 788 790 789 787
f 790 792 791 789
f 792 794 793 791
f 794 796 795 793
f 796 798 797 795
f 798 800 799 797
f 800 802 801 799
f 802 804 803 801
f 804 806 805 803
f 806 808 807 805
f 808 810 809 807
f 810 812 811 809
f 812 814 813 811
f 814 816 815 813
f 816 818 817 815
f 818 820 819 817
f 820 822 821 819
f 822 824 823 821
f 824 730 729 823
f 826 828 827 825
f 828 830 829 827
f 830 832 831 829
f 832 834 833 831
f 834 836 835 833
f 836 838 837 835
f 838 840 839 837
f 840 842 841 839
f 842 844 843 841
f 844 846 845 843
f 846 848 847 845
f 848 850 849 847
f 850 852 851 849
f 852 854 853 851
f 854 856 855 853
f 856 858 857 855
f 858 860 859 857
f 860 862 861 859
f 862 864 863 861
f 864 866 865 863
f 866 868 867 865
f 868 870 869 867
f 870 872 871 869
f 872 874 873 871
f 874 876 875 873
f 876 878 877 875
f 878 880 879 877
f 880 882 881 879
f 882 884 883 881
f 884 886 885 883
f 886 888 887 885
f 888 890 889 887
f 890 892 891 889
f 892 894 893 891
f 894 896 895 893
f 896 898 897 895
f 898 900 899 897
f 900 902 901 899
f 902 904 903 901
f 904 906 905 903
f 906 908 907 905
f 908 910 909 907
f 910 912 911 909
f 912 914 913 911
f 914 916 915 913
f 916 918 917 915
f 918 920 919 917
f 920 826 825 919
