mtllib keyboard_key_3_2_S_link.mtl
o keyboard_key_3_2_S_link

g keyboard_key_3_2_S_SOLID
v -0.0199999958 -0.0164999999 0
v -0.0199999958 -0.0130000003 -0.00349999964
v -0.0234999955 -0.0130000003 0
v -0.0199999958 -0.0162335783 -0.0013393946
v -0.0199999958 -0.0154748745 -0.00247487426
v -0.0213393867 -0.0162335783 0
v -0.021372959 -0.0159120411 -0.00137295946
v -0.0213032961 -0.0152968913 -0.00229689106
v -0.0220207274 -0.0150207281 -0.00202072784
v -0.0213393867 -0.0130000003 -0.00323357806
v -0.0224748701 -0.0130000003 -0.00247487426
v -0.0199999958 -0.0143393911 -0.00323357806
v -0.021372959 -0.0143729597 -0.0029120408
v -0.0222968906 -0.0143032968 -0.00229689106
v -0.0232335776 -0.0143393911 0
v -0.0224748701 -0.0154748745 0
v -0.0232335776 -0.0130000003 -0.00133939087
v -0.0229120404 -0.0143729597 -0.00137295946
v -0.0222968906 -0.0152968913 -0.00130329654
v 0.0199999958 -0.0164999999 0
v 0.0234999955 -0.0130000003 0
v 0.0199999958 -0.0130000003 -0.00349999964
v 0.0213393867 -0.0162335783 0
v 0.0224748701 -0.0154748745 0
v 0.0199999958 -0.0162335783 -0.00133939087
v 0.021372959 -0.0159120411 -0.00137295946
v 0.0222968906 -0.0152968913 -0.00130329654
v 0.0220207274 -0.0150207281 -0.00202072784
v 0.0232335776 -0.0130000003 -0.0013393946
v 0.0224748701 -0.0130000003 -0.00247487426
v 0.0232335776 -0.0143393911 0
v 0.0229120404 -0.0143729597 -0.00137295946
v 0.0222968906 -0.0143032968 -0.00229689106
v 0.0199999958 -0.0143393911 -0.00323357806
v 0.0199999958 -0.0154748745 -0.00247487426
v 0.0213393867 -0.0130000003 -0.00323357806
v 0.021372959 -0.0143729597 -0.0029120408
v 0.0213032961 -0.0152968913 -0.00229689106
v 0.0199999958 0.0164999962 0
v 0.0199999958 0.0129999965 -0.00349999964
v 0.0234999955 0.0129999965 0
v 0.0199999958 0.0162335783 -0.0013393946
v 0.0199999958 0.0154748708 -0.00247487426
v 0.0213393867 0.0162335783 0
v 0.021372959 0.0159120411 -0.00137295946
v 0.0213032961 0.0152968913 -0.00229689106
v 0.0220207274 0.0150207281 -0.00202072784
v 0.0213393867 0.0129999965 -0.00323357806
v 0.0224748701 0.0129999965 -0.00247487426
v 0.0199999958 0.0143393949 -0.00323357806
v 0.021372959 0.0143729597 -0.0029120408
v 0.0222968906 0.0143032968 -0.00229689106
v 0.0232335776 0.0143393949 0
v 0.0224748701 0.0154748708 0
v 0.0232335776 0.0129999965 -0.00133939087
v 0.0229120404 0.0143729597 -0.00137295946
v 0.0222968906 0.0152968913 -0.00130329654
v -0.0199999958 0.0164999962 0
v -0.0234999955 0.0129999965 0
v -0.0199999958 0.0129999965 -0.00349999964
v -0.0213393867 0.0162335783 0
v -0.0224748701 0.0154748708 0
v -0.0199999958 0.0162335783 -0.00133939087
v -0.021372959 0.0159120411 -0.00137295946
v -0.0222968906 0.0152968913 -0.00130329654
v -0.0220207274 0.0150207281 -0.00202072784
v -0.0232335776 0.0129999965 -0.0013393946
v -0.0224748701 0.0129999965 -0.00247487426
v -0.0232335776 0.0143393949 0
v -0.0229120404 0.0143729597 -0.00137295946
v -0.0222968906 0.0143032968 -0.00229689106
v -0.0199999958 0.0143393949 -0.00323357806
v -0.0199999958 0.0154748708 -0.00247487426
v -0.0213393867 0.0129999965 -0.00323357806
v -0.021372959 0.0143729597 -0.0029120408
v -0.0213032961 0.0152968913 -0.00229689106
v -0.0234999955 -0.0130000003 0
v -0.0199999958 -0.0130000003 0.00350000337
v -0.0199999958 -0.0164999999 0
v -0.0232335776 -0.0130000003 0.0013393946
v -0.0224748701 -0.0130000003 0.00247487426
v -0.0232335776 -0.0143393911 0
v -0.0229120404 -0.0143729597 0.00137295946
v -0.0222968906 -0.0143032968 0.00229689106
v -0.0220207274 -0.0150207281 0.00202072784
v -0.0199999958 -0.0143393911 0.00323357806
v -0.0199999958 -0.0154748745 0.00247487426
v -0.0213393867 -0.0130000003 0.00323357806
v -0.021372959 -0.0143729597 0.0029120408
v -0.0213032961 -0.0152968913 0.00229689106
v -0.0213393867 -0.0162335783 0
v -0.0224748701 -0.0154748745 0
v -0.0199999958 -0.0162335783 0.00133939087
v -0.021372959 -0.0159120411 0.00137295946
v -0.0222968906 -0.0152968913 0.00130329654
v 0.0199999958 -0.0164999999 0
v 0.0199999958 -0.0130000003 0.00350000337
v 0.0234999955 -0.0130000003 0
v 0.0199999958 -0.0162335783 0.0013393946
v 0.0199999958 -0.0154748745 0.00247487426
v 0.0213393867 -0.0162335783 0
v 0.021372959 -0.0159120411 0.00137295946
v 0.0213032961 -0.0152968913 0.00229689106
v 0.0220207274 -0.0150207281 0.00202072784
v 0.0213393867 -0.0130000003 0.00323357806
v 0.0224748701 -0.0130000003 0.00247487426
v 0.0199999958 -0.0143393911 0.00323357806
v 0.021372959 -0.0143729597 0.0029120408
v 0.0222968906 -0.0143032968 0.00229689106
v 0.0232335776 -0.0143393911 0
v 0.0224748701 -0.0154748745 0
v 0.0232335776 -0.0130000003 0.00133939087
v 0.0229120404 -0.0143729597 0.00137295946
v 0.0222968906 -0.0152968913 0.00130329654
v 0.0199999958 0.0129999965 0.00350000337
v 0.0199999958 0.0164999962 0
v 0.0234999955 0.0129999965 0
v 0.0199999958 0.0143393949 0.00323357806
v 0.0199999958 0.0154748708 0.00247487426
v 0.0213393867 0.0129999965 0.00323357806
v 0.021372959 0.0143729597 0.0029120408
v 0.0213032961 0.0152968913 0.00229689106
v 0.0220207274 0.0150207281 0.00202072784
v 0.0213393867 0.0162335783 0
v 0.0224748701 0.0154748708 0
v 0.0199999958 0.0162335783 0.00133939087
v 0.021372959 0.0159120411 0.00137295946
v 0.0222968906 0.0152968913 0.00130329654
v 0.0232335776 0.0129999965 0.0013393946
v 0.0224748701 0.0129999965 0.00247487426
v 0.0232335776 0.0143393949 0
v 0.0229120404 0.0143729597 0.00137295946
v 0.0222968906 0.0143032968 0.00229689106
v -0.0234999955 0.0129999965 0
v -0.0199999958 0.0164999962 0
v -0.0199999958 0.0129999965 0.00350000337
v -0.0232335776 0.0143393949 0
v -0.0224748701 0.0154748708 0
v -0.0232335776 0.0129999965 0.00133939087
v -0.0229120404 0.0143729597 0.00137295946
v -0.0222968906 0.0152968913 0.00130329654
v -0.0220207274 0.0150207281 0.00202072784
v -0.0199999958 0.0162335783 0.0013393946
v -0.0199999958 0.0154748708 0.00247487426
v -0.0213393867 0.0162335783 0
v -0.021372959 0.0159120411 0.00137295946
v -0.0213032961 0.0152968913 0.00229689106
v -0.0213393867 0.0129999965 0.00323357806
v -0.0224748701 0.0129999965 0.00247487426
v -0.0199999958 0.0143393949 0.00323357806
v -0.021372959 0.0143729597 0.0029120408
v -0.0222968906 0.0143032968 0.00229689106
usemtl matte_black_keycaps_003
f 59 134 77 3
f 2 22 40 60
f 39 116 135 58
f 78 136 115 97
f 21 98 117 41
f 1 4 7 6
f 4 5 8 7
f 6 7 19 16
f 7 8 9 19
f 2 10 13 12
f 10 11 14 13
f 12 13 8 5
f 13 14 9 8
f 3 15 18 17
f 15 16 19 18
f 17 18 14 11
f 18 19 9 14
f 20 23 26 25
f 23 24 27 26
f 25 26 38 35
f 26 27 28 38
f 21 29 32 31
f 29 30 33 32
f 31 32 27 24
f 32 33 28 27
f 22 34 37 36
f 34 35 38 37
f 36 37 33 30
f 37 38 28 33
f 39 42 45 44
f 42 43 46 45
f 44 45 57 54
f 45 46 47 57
f 40 48 51 50
f 48 49 52 51
f 50 51 46 43
f 51 52 47 46
f 41 53 56 55
f 53 54 57 56
f 55 56 52 49
f 56 57 47 52
f 58 61 64 63
f 61 62 65 64
f 63 64 76 73
f 64 65 66 76
f 59 67 70 69
f 67 68 71 70
f 69 70 65 62
f 70 71 66 65
f 60 72 75 74
f 72 73 76 75
f 74 75 71 68
f 75 76 66 71
f 77 80 83 82
f 80 81 84 83
f 82 83 95 92
f 83 84 85 95
f 78 86 89 88
f 86 87 90 89
f 88 89 84 81
f 89 90 85 84
f 79 91 94 93
f 91 92 95 94
f 93 94 90 87
f 94 95 85 90
f 96 99 102 101
f 99 100 103 102
f 101 102 114 111
f 102 103 104 114
f 97 105 108 107
f 105 106 109 108
f 107 108 103 100
f 108 109 104 103
f 98 110 113 112
f 110 111 114 113
f 112 113 109 106
f 113 114 104 109
f 115 118 121 120
f 118 119 122 121
f 120 121 133 130
f 121 122 123 133
f 116 124 127 126
f 124 125 128 127
f 126 127 122 119
f 127 128 123 122
f 117 129 132 131
f 129 130 133 132
f 131 132 128 125
f 132 133 123 128
f 134 137 140 139
f 137 138 141 140
f 139 140 152 149
f 140 141 142 152
f 135 143 146 145
f 143 144 147 146
f 145 146 141 138
f 146 147 142 141
f 136 148 151 150
f 148 149 152 151
f 150 151 147 144
f 151 152 142 147
f 39 58 63 42
f 42 63 73 43
f 43 73 72 50
f 50 72 60 40
f 1 20 25 4
f 4 25 35 5
f 5 35 34 12
f 12 34 22 2
f 21 41 55 29
f 29 55 49 30
f 30 49 48 36
f 36 48 40 22
f 2 60 74 10
f 10 74 68 11
f 11 68 67 17
f 17 67 59 3
f 3 77 82 15
f 15 82 92 16
f 16 92 91 6
f 6 91 79 1
f 78 97 107 86
f 86 107 100 87
f 87 100 99 93
f 93 99 96 79
f 97 115 120 105
f 105 120 130 106
f 106 130 129 112
f 112 129 117 98
f 77 134 139 80
f 80 139 149 81
f 81 149 148 88
f 88 148 136 78
f 20 96 101 23
f 23 101 111 24
f 24 111 110 31
f 31 110 98 21
f 41 117 131 53
f 53 131 125 54
f 54 125 124 44
f 44 124 116 39
f 115 136 150 118
f 118 150 144 119
f 119 144 143 126
f 126 143 135 116
f 58 135 145 61
f 61 145 138 62
f 62 138 137 69
f 69 137 134 59
f 1 79 96 20

g key_legend_3_2_S
v 0.000555455685 0.001449503 0.00450000539
v 0.000412032008 0.00156356394 0.00450000539
v 0.00026999414 0.00166296959 0.00450000539
v 0.000129625201 0.00174851716 0.00450000539
v -8.7916851e-06 0.0018210113 0.00450000539
v -0.0001450032 0.00188124925 0.00450000539
v -0.000278711319 0.0019300282 0.00450000539
v -0.000409632921 0.00196814537 0.00450000539
v -0.000537499785 0.00199640542 0.00450000539
v -0.000662043691 0.00201559812 0.00450000539
v -0.000782966614 0.00202652812 0.00450000539
v -0.000900000334 0.00203000009 0.00450000539
v -0.0010536015 0.00202322751 0.00450000539
v -0.00119875371 0.00200333446 0.00450000539
v -0.0013345331 0.00197093189 0.00450000539
v -0.00146000087 0.00192666799 0.00450000539
v -0.00157421827 0.00187114626 0.00450000539
v -0.00167624652 0.00180500001 0.00450000539
v -0.00176516175 0.00172885507 0.00450000539
v -0.00183999538 0.00164332986 0.00450000539
v -0.00189983845 0.00154905766 0.00450000539
v -0.00194375217 0.00144666433 0.00450000539
v -0.00197078288 0.00133676827 0.00450000539
v -0.00198000669 0.00121999532 0.00450000539
v -0.00192195177 0.0009181723 0.00450000539
v -0.00176148117 0.000659532845 0.00450000539
v -0.00151906908 0.000431872904 0.00450000539
v -0.0012151897 0.000222958624 0.00450000539
v -0.000870332122 2.05785036e-05 0.00450000539
v -0.000505000353 -0.000187501311 0.00450000539
v -0.000139668584 -0.000413499773 0.00450000539
v 0.00020518899 -0.000669628382 0.00450000539
v 0.000509053469 -0.000968128443 0.00450000539
v 0.00075148046 -0.00132120401 0.00450000539
v 0.000911951065 -0.00174108893 0.00450000539
v 0.000969991088 -0.00224000216 0.00450000539
v 0.000953420997 -0.00250117481 0.00450000539
v 0.000904902816 -0.00274856389 0.00450000539
v 0.000826254487 -0.00298047066 0.00450000539
v 0.00071926415 -0.00319518894 0.00450000539
v 0.000585734844 -0.00339101255 0.00450000539
v 0.000427499413 -0.00356625393 0.00450000539
v 0.000246345997 -0.00371919945 0.00450000539
v 4.40776348e-05 -0.00384815037 0.00450000539
v -0.000177502632 -0.00395140797 0.00450000539
v -0.000416576862 -0.00402726978 0.00450000539
v -0.000671342015 -0.00407403708 0.00450000539
v -0.00093999505 -0.00409000367 0.00450000539
v -0.00112214684 -0.00408581644 0.00450000539
v -0.00129884481 -0.00407319516 0.00450000539
v -0.00147047639 -0.00405203179 0.00450000539
v -0.0016374141 -0.00402222574 0.00450000539
v -0.00180004537 -0.00398366526 0.00450000539
v -0.00195875764 -0.00393625349 0.00450000539
v -0.00211392343 -0.00387987867 0.00450000539
v -0.00226593018 -0.00381444767 0.00450000539
v -0.00241516531 -0.00373984501 0.00450000539
v -0.00256198645 -0.00365597382 0.00450000539
v -0.00270681083 -0.00356272608 0.00450000539
v -0.00284999609 -0.00346000493 0.00450000539
v -0.00284999609 -0.0022200048 0.00450000539
v -0.00272235274 -0.00237392634 0.00450000539
v -0.0025895834 -0.00251555443 0.00450000539
v -0.00245203078 -0.00264468789 0.00450000539
v -0.00231000781 -0.00276111066 0.00450000539
v -0.00216379762 -0.00286462158 0.00450000539
v -0.00201375782 -0.00295500457 0.00450000539
v -0.00186015666 -0.00303205103 0.00450000539
v -0.00170333683 -0.00309555978 0.00450000539
v -0.00154359639 -0.00314531475 0.00450000539
v -0.00138124824 -0.00318111479 0.00450000539
v -0.00121662021 -0.00320274383 0.00450000539
v -0.00104999542 -0.00321000069 0.00450000539
v -0.00086851418 -0.00320033729 0.00450000539
v -0.000703886151 -0.00317268819 0.00450000539
v -0.000555932522 -0.00312906504 0.00450000539
v -0.000424444675 -0.00307148695 0.00450000539
v -0.000309199095 -0.00300195813 0.00450000539
v -0.000210002065 -0.00292250514 0.00450000539
v -0.000126630068 -0.00283513218 0.00450000539
v -5.8889389e-05 -0.00274185091 0.00450000539
v -6.57141209e-06 -0.00264468789 0.00450000539
v 3.05473804e-05 -0.00254564732 0.00450000539
v 5.26756048e-05 -0.00244674832 0.00450000539
v 5.9992075e-05 -0.00235000253 0.00450000539
v 1.95205212e-06 -0.00202183425 0.00450000539
v -0.000158518553 -0.00173546374 0.00450000539
v -0.000400945544 -0.00148062408 0.00450000539
v -0.000704810023 -0.00124704093 0.00450000539
v -0.0010496676 -0.00102442503 0.00450000539
v -0.00141499937 -0.000802502036 0.00450000539
v -0.00178033113 -0.000570997596 0.00450000539
v -0.00212518871 -0.000319629908 0.00450000539
v -0.00242906809 -3.81246209e-05 0.00450000539
v -0.00267148018 0.000283792615 0.00450000539
v -0.00283195078 0.000656411052 0.00450000539
v -0.00289000571 0.00108999759 0.00450000539
v -0.00287313759 0.0013589859 0.00450000539
v -0.00282347202 0.00161022693 0.00450000539
v -0.0027423501 0.00184265524 0.00450000539
v -0.00263111293 0.00205518305 0.00450000539
v -0.00249113142 0.00224673748 0.00450000539
v -0.00232374668 0.00241624564 0.00450000539
v -0.00213032961 0.00256263465 0.00450000539
v -0.00191222131 0.00268481672 0.00450000539
v -0.0016707778 0.00278171897 0.00450000539
v -0.00140736997 0.00285226852 0.00450000539
v -0.00112332404 0.00289538503 0.00450000539
v -0.000819995999 0.00290999562 0.00450000539
v -0.000690028071 0.00290666521 0.00450000539
v -0.000560194254 0.00289666653 0.00450000539
v -0.000430628657 0.00287999958 0.00450000539
v -0.000301480293 0.00285666436 0.00450000539
v -0.000172898173 0.00282666832 0.00450000539
v -4.50015068e-05 0.00278999656 0.00450000539
v 8.20606947e-05 0.00274666399 0.00450000539
v 0.00020813942 0.00269666314 0.00450000539
v 0.00033313036 0.00264000148 0.00450000539
v 0.000456854701 0.00257666409 0.00450000539
v 0.000579193234 0.00250666589 0.00450000539
v 0.000699996948 0.00242999941 0.00450000539
v 0.000699996948 0.00131999701 0.00450000539
v 0.000555455685 0.001449503 0.00409999862
v 0.000412032008 0.00156356394 0.00409999862
v 0.00026999414 0.00166296959 0.00409999862
v 0.000129625201 0.00174851716 0.00409999862
v -8.7916851e-06 0.0018210113 0.00409999862
v -0.0001450032 0.00188124925 0.00409999862
v -0.000278711319 0.0019300282 0.00409999862
v -0.000409632921 0.00196814537 0.00409999862
v -0.000537499785 0.00199640542 0.00409999862
v -0.000662043691 0.00201559812 0.00409999862
v -0.000782966614 0.00202652812 0.00409999862
v -0.000900000334 0.00203000009 0.00409999862
v -0.0010536015 0.00202322751 0.00409999862
v -0.00119875371 0.00200333446 0.00409999862
v -0.0013345331 0.00197093189 0.00409999862
v -0.00146000087 0.00192666799 0.00409999862
v -0.00157421827 0.00187114626 0.00409999862
v -0.00167624652 0.00180500001 0.00409999862
v -0.00176516175 0.00172885507 0.00409999862
v -0.00183999538 0.00164332986 0.00409999862
v -0.00189983845 0.00154905766 0.00409999862
v -0.00194375217 0.00144666433 0.00409999862
v -0.00197078288 0.00133676827 0.00409999862
v -0.00198000669 0.00121999532 0.00409999862
v -0.00192195177 0.0009181723 0.00409999862
v -0.00176148117 0.000659532845 0.00409999862
v -0.00151906908 0.000431872904 0.00409999862
v -0.0012151897 0.000222958624 0.00409999862
v -0.000870332122 2.05785036e-05 0.00409999862
v -0.000505000353 -0.000187501311 0.00409999862
v -0.000139668584 -0.000413499773 0.00409999862
v 0.00020518899 -0.000669628382 0.00409999862
v 0.000509053469 -0.000968128443 0.00409999862
v 0.00075148046 -0.00132120401 0.00409999862
v 0.000911951065 -0.00174108893 0.00409999862
v 0.000969991088 -0.00224000216 0.00409999862
v 0.000953420997 -0.00250117481 0.00409999862
v 0.000904902816 -0.00274856389 0.00409999862
v 0.000826254487 -0.00298047066 0.00409999862
v 0.00071926415 -0.00319518894 0.00409999862
v 0.000585734844 -0.00339101255 0.00409999862
v 0.000427499413 -0.00356625393 0.00409999862
v 0.000246345997 -0.00371919945 0.00409999862
v 4.40776348e-05 -0.00384815037 0.00409999862
v -0.000177502632 -0.00395140797 0.00409999862
v -0.000416576862 -0.00402726978 0.00409999862
v -0.000671342015 -0.00407403708 0.00409999862
v -0.00093999505 -0.00409000367 0.00409999862
v -0.00112214684 -0.00408581644 0.00409999862
v -0.00129884481 -0.00407319516 0.00409999862
v -0.00147047639 -0.00405203179 0.00409999862
v -0.0016374141 -0.00402222574 0.00409999862
v -0.00180004537 -0.00398366526 0.00409999862
v -0.00195875764 -0.00393625349 0.00409999862
v -0.00211392343 -0.00387987867 0.00409999862
v -0.00226593018 -0.00381444767 0.00409999862
v -0.00241516531 -0.00373984501 0.00409999862
v -0.00256198645 -0.00365597382 0.00409999862
v -0.00270681083 -0.00356272608 0.00409999862
v -0.00284999609 -0.00346000493 0.00409999862
v -0.00284999609 -0.0022200048 0.00409999862
v -0.00272235274 -0.00237392634 0.00409999862
v -0.0025895834 -0.00251555443 0.00409999862
v -0.00245203078 -0.00264468789 0.00409999862
v -0.00231000781 -0.00276111066 0.00409999862
v -0.00216379762 -0.00286462158 0.00409999862
v -0.00201375782 -0.00295500457 0.00409999862
v -0.00186015666 -0.00303205103 0.00409999862
v -0.00170333683 -0.00309555978 0.00409999862
v -0.00154359639 -0.00314531475 0.00409999862
v -0.00138124824 -0.00318111479 0.00409999862
v -0.00121662021 -0.00320274383 0.00409999862
v -0.00104999542 -0.00321000069 0.00409999862
v -0.00086851418 -0.00320033729 0.00409999862
v -0.000703886151 -0.00317268819 0.00409999862
v -0.000555932522 -0.00312906504 0.00409999862
v -0.000424444675 -0.00307148695 0.00409999862
v -0.000309199095 -0.00300195813 0.00409999862
v -0.000210002065 -0.00292250514 0.00409999862
v -0.000126630068 -0.00283513218 0.00409999862
v -5.8889389e-05 -0.00274185091 0.00409999862
v -6.57141209e-06 -0.00264468789 0.00409999862
v 3.05473804e-05 -0.00254564732 0.00409999862
v 5.26756048e-05 -0.00244674832 0.00409999862
v 5.9992075e-05 -0.00235000253 0.00409999862
v 1.95205212e-06 -0.00202183425 0.00409999862
v -0.000158518553 -0.00173546374 0.00409999862
v -0.000400945544 -0.00148062408 0.00409999862
v -0.000704810023 -0.00124704093 0.00409999862
v -0.0010496676 -0.00102442503 0.00409999862
v -0.00141499937 -0.000802502036 0.00409999862
v -0.00178033113 -0.000570997596 0.00409999862
v -0.00212518871 -0.000319629908 0.00409999862
v -0.00242906809 -3.81246209e-05 0.00409999862
v -0.00267148018 0.000283792615 0.00409999862
v -0.00283195078 0.000656411052 0.00409999862
v -0.00289000571 0.00108999759 0.00409999862
v -0.00287313759 0.0013589859 0.00409999862
v -0.00282347202 0.00161022693 0.00409999862
v -0.0027423501 0.00184265524 0.00409999862
v -0.00263111293 0.00205518305 0.00409999862
v -0.00249113142 0.00224673748 0.00409999862
v -0.00232374668 0.00241624564 0.00409999862
v -0.00213032961 0.00256263465 0.00409999862
v -0.00191222131 0.00268481672 0.00409999862
v -0.0016707778 0.00278171897 0.00409999862
v -0.00140736997 0.00285226852 0.00409999862
v -0.00112332404 0.00289538503 0.00409999862
v -0.000819995999 0.00290999562 0.00409999862
v -0.000690028071 0.00290666521 0.00409999862
v -0.000560194254 0.00289666653 0.00409999862
v -0.000430628657 0.00287999958 0.00409999862
v -0.000301480293 0.00285666436 0.00409999862
v -0.000172898173 0.00282666832 0.00409999862
v -4.50015068e-05 0.00278999656 0.00409999862
v 8.20606947e-05 0.00274666399 0.00409999862
v 0.00020813942 0.00269666314 0.00409999862
v 0.00033313036 0.00264000148 0.00409999862
v 0.000456854701 0.00257666409 0.00409999862
v 0.000579193234 0.00250666589 0.00409999862
v 0.000699996948 0.00242999941 0.00409999862
v 0.000699996948 0.00131999701 0.00409999862
v 0.000555455685 0.001449503 0.00409999862
v 0.000555455685 0.001449503 0.00450000539
v 0.000412032008 0.00156356394 0.00409999862
v 0.000412032008 0.00156356394 0.00450000539
v 0.00026999414 0.00166296959 0.00409999862
v 0.00026999414 0.00166296959 0.00450000539
v 0.000129625201 0.00174851716 0.00409999862
v 0.000129625201 0.00174851716 0.00450000539
v -8.7916851e-06 0.0018210113 0.00409999862
v -8.7916851e-06 0.0018210113 0.00450000539
v -0.0001450032 0.00188124925 0.00409999862
v -0.0001450032 0.00188124925 0.00450000539
v -0.000278711319 0.0019300282 0.00409999862
v -0.000278711319 0.0019300282 0.00450000539
v -0.000409632921 0.00196814537 0.00409999862
v -0.000409632921 0.00196814537 0.00450000539
v -0.000537499785 0.00199640542 0.00409999862
v -0.000537499785 0.00199640542 0.00450000539
v -0.000662043691 0.00201559812 0.00409999862
v -0.000662043691 0.00201559812 0.00450000539
v -0.000782966614 0.00202652812 0.00409999862
v -0.000782966614 0.00202652812 0.00450000539
v -0.000900000334 0.00203000009 0.00409999862
v -0.000900000334 0.00203000009 0.00450000539
v -0.0010536015 0.00202322751 0.00409999862
v -0.0010536015 0.00202322751 0.00450000539
v -0.00119875371 0.00200333446 0.00409999862
v -0.00119875371 0.00200333446 0.00450000539
v -0.0013345331 0.00197093189 0.00409999862
v -0.0013345331 0.00197093189 0.00450000539
v -0.00146000087 0.00192666799 0.00409999862
v -0.00146000087 0.00192666799 0.00450000539
v -0.00157421827 0.00187114626 0.00409999862
v -0.00157421827 0.00187114626 0.00450000539
v -0.00167624652 0.00180500001 0.00409999862
v -0.00167624652 0.00180500001 0.00450000539
v -0.00176516175 0.00172885507 0.00409999862
v -0.00176516175 0.00172885507 0.00450000539
v -0.00183999538 0.00164332986 0.00409999862
v -0.00183999538 0.00164332986 0.00450000539
v -0.00189983845 0.00154905766 0.00409999862
v -0.00189983845 0.00154905766 0.00450000539
v -0.00194375217 0.00144666433 0.00409999862
v -0.00194375217 0.00144666433 0.00450000539
v -0.00197078288 0.00133676827 0.00409999862
v -0.00197078288 0.00133676827 0.00450000539
v -0.00198000669 0.00121999532 0.00409999862
v -0.00198000669 0.00121999532 0.00450000539
v -0.00192195177 0.0009181723 0.00409999862
v -0.00192195177 0.0009181723 0.00450000539
v -0.00176148117 0.000659532845 0.00409999862
v -0.00176148117 0.000659532845 0.00450000539
v -0.00151906908 0.000431872904 0.00409999862
v -0.00151906908 0.000431872904 0.00450000539
v -0.0012151897 0.000222958624 0.00409999862
v -0.0012151897 0.000222958624 0.00450000539
v -0.000870332122 2.05785036e-05 0.00409999862
v -0.000870332122 2.05785036e-05 0.00450000539
v -0.000505000353 -0.000187501311 0.00409999862
v -0.000505000353 -0.000187501311 0.00450000539
v -0.000139668584 -0.000413499773 0.00409999862
v -0.000139668584 -0.000413499773 0.00450000539
v 0.00020518899 -0.000669628382 0.00409999862
v 0.00020518899 -0.000669628382 0.00450000539
v 0.000509053469 -0.000968128443 0.00409999862
v 0.000509053469 -0.000968128443 0.00450000539
v 0.00075148046 -0.00132120401 0.00409999862
v 0.00075148046 -0.00132120401 0.00450000539
v 0.000911951065 -0.00174108893 0.00409999862
v 0.000911951065 -0.00174108893 0.00450000539
v 0.000969991088 -0.00224000216 0.00409999862
v 0.000969991088 -0.00224000216 0.00450000539
v 0.000953420997 -0.00250117481 0.00409999862
v 0.000953420997 -0.00250117481 0.00450000539
v 0.000904902816 -0.00274856389 0.00409999862
v 0.000904902816 -0.00274856389 0.00450000539
v 0.000826254487 -0.00298047066 0.00409999862
v 0.000826254487 -0.00298047066 0.00450000539
v 0.00071926415 -0.00319518894 0.00409999862
v 0.00071926415 -0.00319518894 0.00450000539
v 0.000585734844 -0.00339101255 0.00409999862
v 0.000585734844 -0.00339101255 0.00450000539
v 0.000427499413 -0.00356625393 0.00409999862
v 0.000427499413 -0.00356625393 0.00450000539
v 0.000246345997 -0.00371919945 0.00409999862
v 0.000246345997 -0.00371919945 0.00450000539
v 4.40776348e-05 -0.00384815037 0.00409999862
v 4.40776348e-05 -0.00384815037 0.00450000539
v -0.000177502632 -0.00395140797 0.00409999862
v -0.000177502632 -0.00395140797 0.00450000539
v -0.000416576862 -0.00402726978 0.00409999862
v -0.000416576862 -0.00402726978 0.00450000539
v -0.000671342015 -0.00407403708 0.00409999862
v -0.000671342015 -0.00407403708 0.00450000539
v -0.00093999505 -0.00409000367 0.00409999862
v -0.00093999505 -0.00409000367 0.00450000539
v -0.00112214684 -0.00408581644 0.00409999862
v -0.00112214684 -0.00408581644 0.00450000539
v -0.00129884481 -0.00407319516 0.00409999862
v -0.00129884481 -0.00407319516 0.00450000539
v -0.00147047639 -0.00405203179 0.00409999862
v -0.00147047639 -0.00405203179 0.00450000539
v -0.0016374141 -0.00402222574 0.00409999862
v -0.0016374141 -0.00402222574 0.00450000539
v -0.00180004537 -0.00398366526 0.00409999862
v -0.00180004537 -0.00398366526 0.00450000539
v -0.00195875764 -0.00393625349 0.00409999862
v -0.00195875764 -0.00393625349 0.00450000539
v -0.00211392343 -0.00387987867 0.00409999862
v -0.00211392343 -0.00387987867 0.00450000539
v -0.00226593018 -0.00381444767 0.00409999862
v -0.00226593018 -0.00381444767 0.00450000539
v -0.00241516531 -0.00373984501 0.00409999862
v -0.00241516531 -0.00373984501 0.00450000539
v -0.00256198645 -0.00365597382 0.00409999862
v -0.00256198645 -0.00365597382 0.00450000539
v -0.00270681083 -0.00356272608 0.00409999862
v -0.00270681083 -0.00356272608 0.00450000539
v -0.00284999609 -0.00346000493 0.00409999862
v -0.00284999609 -0.00346000493 0.00450000539
v -0.00284999609 -0.0022200048 0.00409999862
v -0.00284999609 -0.0022200048 0.00450000539
v -0.00272235274 -0.00237392634 0.00409999862
v -0.00272235274 -0.00237392634 0.00450000539
v -0.0025895834 -0.00251555443 0.00409999862
v -0.0025895834 -0.00251555443 0.00450000539
v -0.00245203078 -0.00264468789 0.00409999862
v -0.00245203078 -0.00264468789 0.00450000539
v -0.00231000781 -0.00276111066 0.00409999862
v -0.00231000781 -0.00276111066 0.00450000539
v -0.00216379762 -0.00286462158 0.00409999862
v -0.00216379762 -0.00286462158 0.00450000539
v -0.00201375782 -0.00295500457 0.00409999862
v -0.00201375782 -0.00295500457 0.00450000539
v -0.00186015666 -0.00303205103 0.00409999862
v -0.00186015666 -0.00303205103 0.00450000539
v -0.00170333683 -0.00309555978 0.00409999862
v -0.00170333683 -0.00309555978 0.00450000539
v -0.00154359639 -0.00314531475 0.00409999862
v -0.00154359639 -0.00314531475 0.00450000539
v -0.00138124824 -0.00318111479 0.00409999862
v -0.00138124824 -0.00318111479 0.00450000539
v -0.00121662021 -0.00320274383 0.00409999862
v -0.00121662021 -0.00320274383 0.00450000539
v -0.00104999542 -0.00321000069 0.00409999862
v -0.00104999542 -0.00321000069 0.00450000539
v -0.00086851418 -0.00320033729 0.00409999862
v -0.00086851418 -0.00320033729 0.00450000539
v -0.000703886151 -0.00317268819 0.00409999862
v -0.000703886151 -0.00317268819 0.00450000539
v -0.000555932522 -0.00312906504 0.00409999862
v -0.000555932522 -0.00312906504 0.00450000539
v -0.000424444675 -0.00307148695 0.00409999862
v -0.000424444675 -0.00307148695 0.00450000539
v -0.000309199095 -0.00300195813 0.00409999862
v -0.000309199095 -0.00300195813 0.00450000539
v -0.000210002065 -0.00292250514 0.00409999862
v -0.000210002065 -0.00292250514 0.00450000539
v -0.000126630068 -0.00283513218 0.00409999862
v -0.000126630068 -0.00283513218 0.00450000539
v -5.8889389e-05 -0.00274185091 0.00409999862
v -5.8889389e-05 -0.00274185091 0.00450000539
v -6.57141209e-06 -0.00264468789 0.00409999862
v -6.57141209e-06 -0.00264468789 0.00450000539
v 3.05473804e-05 -0.00254564732 0.00409999862
v 3.05473804e-05 -0.00254564732 0.00450000539
v 5.26756048e-05 -0.00244674832 0.00409999862
v 5.26756048e-05 -0.00244674832 0.00450000539
v 5.9992075e-05 -0.00235000253 0.00409999862
v 5.9992075e-05 -0.00235000253 0.00450000539
v 1.95205212e-06 -0.00202183425 0.00409999862
v 1.95205212e-06 -0.00202183425 0.00450000539
v -0.000158518553 -0.00173546374 0.00409999862
v -0.000158518553 -0.00173546374 0.00450000539
v -0.000400945544 -0.00148062408 0.00409999862
v -0.000400945544 -0.00148062408 0.00450000539
v -0.000704810023 -0.00124704093 0.00409999862
v -0.000704810023 -0.00124704093 0.00450000539
v -0.0010496676 -0.00102442503 0.00409999862
v -0.0010496676 -0.00102442503 0.00450000539
v -0.00141499937 -0.000802502036 0.00409999862
v -0.00141499937 -0.000802502036 0.00450000539
v -0.00178033113 -0.000570997596 0.00409999862
v -0.00178033113 -0.000570997596 0.00450000539
v -0.00212518871 -0.000319629908 0.00409999862
v -0.00212518871 -0.000319629908 0.00450000539
v -0.00242906809 -3.81246209e-05 0.00409999862
v -0.00242906809 -3.81246209e-05 0.00450000539
v -0.00267148018 0.000283792615 0.00409999862
v -0.00267148018 0.000283792615 0.00450000539
v -0.00283195078 0.000656411052 0.00409999862
v -0.00283195078 0.000656411052 0.00450000539
v -0.00289000571 0.00108999759 0.00409999862
v -0.00289000571 0.00108999759 0.00450000539
v -0.00287313759 0.0013589859 0.00409999862
v -0.00287313759 0.0013589859 0.00450000539
v -0.00282347202 0.00161022693 0.00409999862
v -0.00282347202 0.00161022693 0.00450000539
v -0.0027423501 0.00184265524 0.00409999862
v -0.0027423501 0.00184265524 0.00450000539
v -0.00263111293 0.00205518305 0.00409999862
v -0.00263111293 0.00205518305 0.00450000539
v -0.00249113142 0.00224673748 0.00409999862
v -0.00249113142 0.00224673748 0.00450000539
v -0.00232374668 0.00241624564 0.00409999862
v -0.00232374668 0.00241624564 0.00450000539
v -0.00213032961 0.00256263465 0.00409999862
v -0.00213032961 0.00256263465 0.00450000539
v -0.00191222131 0.00268481672 0.00409999862
v -0.00191222131 0.00268481672 0.00450000539
v -0.0016707778 0.00278171897 0.00409999862
v -0.0016707778 0.00278171897 0.00450000539
v -0.00140736997 0.00285226852 0.00409999862
v -0.00140736997 0.00285226852 0.00450000539
v -0.00112332404 0.00289538503 0.00409999862
v -0.00112332404 0.00289538503 0.00450000539
v -0.000819995999 0.00290999562 0.00409999862
v -0.000819995999 0.00290999562 0.00450000539
v -0.000690028071 0.00290666521 0.00409999862
v -0.000690028071 0.00290666521 0.00450000539
v -0.000560194254 0.00289666653 0.00409999862
v -0.000560194254 0.00289666653 0.00450000539
v -0.000430628657 0.00287999958 0.00409999862
v -0.000430628657 0.00287999958 0.00450000539
v -0.000301480293 0.00285666436 0.00409999862
v -0.000301480293 0.00285666436 0.00450000539
v -0.000172898173 0.00282666832 0.00409999862
v -0.000172898173 0.00282666832 0.00450000539
v -4.50015068e-05 0.00278999656 0.00409999862
v -4.50015068e-05 0.00278999656 0.00450000539
v 8.20606947e-05 0.00274666399 0.00409999862
v 8.20606947e-05 0.00274666399 0.00450000539
v 0.00020813942 0.00269666314 0.00409999862
v 0.00020813942 0.00269666314 0.00450000539
v 0.00033313036 0.00264000148 0.00409999862
v 0.00033313036 0.00264000148 0.00450000539
v 0.000456854701 0.00257666409 0.00409999862
v 0.000456854701 0.00257666409 0.00450000539
v 0.000579193234 0.00250666589 0.00409999862
v 0.000579193234 0.00250666589 0.00450000539
v 0.000699996948 0.00242999941 0.00409999862
v 0.000699996948 0.00242999941 0.00450000539
v 0.000699996948 0.00131999701 0.00409999862
v 0.000699996948 0.00131999701 0.00450000539
usemtl screen_white_text_003
f 260 262 261
f 260 263 262
f 260 264 263
f 259 264 260
f 259 265 264
f 259 266 265
f 258 266 259
f 258 267 266
f 258 268 267
f 257 268 258
f 257 269 268
f 257 270 269
f 256 270 257
f 256 271 270
f 256 272 271
f 255 272 256
f 255 273 272
f 255 160 273
f 160 159 273
f 159 158 273
f 158 157 273
f 157 156 273
f 156 155 273
f 155 154 273
f 154 153 273
f 153 274 273
f 254 162 255
f 162 161 255
f 161 160 255
f 253 164 254
f 164 163 254
f 163 162 254
f 252 165 253
f 165 164 253
f 252 166 165
f 252 167 166
f 252 168 167
f 252 169 168
f 252 170 169
f 251 170 252
f 251 171 170
f 251 172 171
f 251 173 172
f 250 173 251
f 250 174 173
f 250 175 174
f 249 175 250
f 249 176 175
f 249 177 176
f 248 177 249
f 248 178 177
f 248 179 178
f 247 179 248
f 247 180 179
f 246 180 247
f 246 181 180
f 246 182 181
f 245 182 246
f 245 183 182
f 244 183 245
f 244 184 183
f 243 184 244
f 243 185 184
f 242 185 243
f 242 186 185
f 241 186 242
f 240 186 241
f 240 187 186
f 239 187 240
f 238 187 239
f 238 188 187
f 237 188 238
f 212 214 213
f 237 189 188
f 236 189 237
f 212 215 214
f 235 189 236
f 235 190 189
f 212 216 215
f 234 190 235
f 233 190 234
f 212 217 216
f 232 190 233
f 232 191 190
f 212 218 217
f 231 191 232
f 212 219 218
f 230 191 231
f 212 220 219
f 230 192 191
f 229 192 230
f 212 221 220
f 228 192 229
f 212 222 221
f 227 192 228
f 212 223 222
f 226 192 227
f 212 224 223
f 226 193 192
f 225 193 226
f 212 225 224
f 212 193 225
f 212 194 193
f 211 194 212
f 210 194 211
f 210 195 194
f 209 195 210
f 209 196 195
f 208 196 209
f 207 196 208
f 207 197 196
f 206 197 207
f 205 197 206
f 205 198 197
f 204 198 205
f 203 198 204
f 203 199 198
f 202 199 203
f 201 199 202
f 201 200 199
f 382 383 384
f 382 384 385
f 382 385 386
f 381 382 386
f 381 386 387
f 381 387 388
f 380 381 388
f 380 388 389
f 380 389 390
f 379 380 390
f 379 390 391
f 379 391 392
f 378 379 392
f 378 392 393
f 378 393 394
f 377 378 394
f 377 394 395
f 377 395 282
f 282 395 281
f 281 395 280
f 280 395 279
f 279 395 278
f 278 395 277
f 277 395 276
f 276 395 275
f 275 395 396
f 376 377 284
f 284 377 283
f 283 377 282
f 375 376 286
f 286 376 285
f 285 376 284
f 374 375 287
f 287 375 286
f 374 287 288
f 374 288 289
f 374 289 290
f 374 290 291
f 374 291 292
f 373 374 292
f 373 292 293
f 373 293 294
f 373 294 295
f 372 373 295
f 372 295 296
f 372 296 297
f 371 372 297
f 371 297 298
f 371 298 299
f 370 371 299
f 370 299 300
f 370 300 301
f 369 370 301
f 369 301 302
f 368 369 302
f 368 302 303
f 368 303 304
f 367 368 304
f 367 304 305
f 366 367 305
f 366 305 306
f 365 366 306
f 365 306 307
f 364 365 307
f 364 307 308
f 363 364 308
f 362 363 308
f 362 308 309
f 361 362 309
f 360 361 309
f 360 309 310
f 359 360 310
f 334 335 336
f 359 310 311
f 358 359 311
f 334 336 337
f 357 358 311
f 357 311 312
f 334 337 338
f 356 357 312
f 355 356 312
f 334 338 339
f 354 355 312
f 354 312 313
f 334 339 340
f 353 354 313
f 334 340 341
f 352 353 313
f 334 341 342
f 352 313 314
f 351 352 314
f 334 342 343
f 350 351 314
f 334 343 344
f 349 350 314
f 334 344 345
f 348 349 314
f 334 345 346
f 348 314 315
f 347 348 315
f 334 346 347
f 334 347 315
f 334 315 316
f 333 334 316
f 332 333 316
f 332 316 317
f 331 332 317
f 331 317 318
f 330 331 318
f 329 330 318
f 329 318 319
f 328 329 319
f 327 328 319
f 327 319 320
f 326 327 320
f 325 326 320
f 325 320 321
f 324 325 321
f 323 324 321
f 323 321 322
f 398 400 399 397
f 400 402 401 399
f 402 404 403 401
f 404 406 405 403
f 406 408 407 405
f 408 410 409 407
f 410 412 411 409
f 412 414 413 411
f 414 416 415 413
f 416 418 417 415
f 418 420 419 417
f 420 422 421 419
f 422 424 423 421
f 424 426 425 423
f 426 428 427 425
f 428 430 429 427
f 430 432 431 429
f 432 434 433 431
f 434 436 435 433
f 436 438 437 435
f 438 440 439 437
f 440 442 441 439
f 442 444 443 441
f 444 446 445 443
f 446 448 447 445
f 448 450 449 447
f 450 452 451 449
f 452 454 453 451
f 454 456 455 453
f 456 458 457 455
f 458 460 459 457
f 460 462 461 459
f 462 464 463 461
f 464 466 465 463
f 466 468 467 465
f 468 470 469 467
f 470 472 471 469
f 472 474 473 471
f 474 476 475 473
f 476 478 477 475
f 478 480 479 477
f 480 482 481 479
f 482 484 483 481
f 484 486 485 483
f 486 488 487 485
f 488 490 489 487
f 490 492 491 489
f 492 494 493 491
f 494 496 495 493
f 496 498 497 495
f 498 500 499 497
f 500 502 501 499
f 502 504 503 501
f 504 506 505 503
f 506 508 507 505
f 508 510 509 507
f 510 512 511 509
f 512 514 513 511
f 514 516 515 513
f 516 518 517 515
f 518 520 519 517
f 520 522 521 519
f 522 524 523 521
f 524 526 525 523
f 526 528 527 525
f 528 530 529 527
f 530 532 531 529
f 532 534 533 531
f 534 536 535 533
f 536 538 537 535
f 538 540 539 537
f 540 542 541 539
f 542 544 543 541
f 544 546 545 543
f 546 548 547 545
f 548 550 549 547
f 550 552 551 549
f 552 554 553 551
f 554 556 555 553
f 556 558 557 555
f 558 560 559 557
f 560 562 561 559
f 562 564 563 561
f 564 566 565 563
f 566 568 567 565
f 568 570 569 567
f 570 572 571 569
f 572 574 573 571
f 574 576 575 573
f 576 578 577 575
f 578 580 579 577
f 580 582 581 579
f 582 584 583 581
f 584 586 585 583
f 586 588 587 585
f 588 590 589 587
f 590 592 591 589
f 592 594 593 591
f 594 596 595 593
f 596 598 597 595
f 598 600 599 597
f 600 602 601 599
f 602 604 603 601
f 604 606 605 603
f 606 608 607 605
f 608 610 609 607
f 610 612 611 609
f 612 614 613 611
f 614 616 615 613
f 616 618 617 615
f 618 620 619 617
f 620 622 621 619
f 622 624 623 621
f 624 626 625 623
f 626 628 627 625
f 628 630 629 627
f 630 632 631 629
f 632 634 633 631
f 634 636 635 633
f 636 638 637 635
f 638 640 639 637
f 640 398 397 639
