mtllib keyboard_key_1_4_4_link.mtl
o keyboard_key_1_4_4_link

g keyboard_key_1_4_4_SOLID
v -0.0180000067 -0.0154999942 0
v -0.0180000067 -0.0119999945 -0.00349999964
v -0.0215000063 -0.0119999945 0
v -0.0180000067 -0.0152335763 -0.0013393946
v -0.0180000067 -0.0144748688 -0.00247487426
v -0.0193393975 -0.0152335763 0
v -0.019372955 -0.014912039 -0.00137295946
v -0.019303292 -0.0142968893 -0.00229689106
v -0.0200207233 -0.0140207261 -0.00202072784
v -0.0193393975 -0.0119999945 -0.00323357806
v -0.0204748809 -0.0119999945 -0.00247487426
v -0.0180000067 -0.0133393854 -0.00323357806
v -0.019372955 -0.0133729577 -0.0029120408
v -0.0202969015 -0.0133032948 -0.00229689106
v -0.0212335885 -0.0133393854 0
v -0.0204748809 -0.0144748688 0
v -0.0212335885 -0.0119999945 -0.00133939087
v -0.0209120363 -0.0133729577 -0.00137295946
v -0.0202969015 -0.0142968893 -0.00130329654
v 0.0179999992 -0.0154999942 0
v 0.0214999989 -0.0119999945 0
v 0.0179999992 -0.0119999945 -0.00349999964
v 0.0193393975 -0.0152335763 0
v 0.0204748809 -0.0144748688 0
v 0.0180000067 -0.0152335763 -0.00133939087
v 0.0193729624 -0.014912039 -0.00137295946
v 0.020296894 -0.0142968893 -0.00130329654
v 0.0200207308 -0.0140207261 -0.00202072784
v 0.021233581 -0.0119999945 -0.0013393946
v 0.0204748809 -0.0119999945 -0.00247487426
v 0.021233581 -0.0133393854 0
v 0.0209120438 -0.0133729577 -0.00137295946
v 0.020296894 -0.0133032948 -0.00229689106
v 0.0180000067 -0.0133393854 -0.00323357806
v 0.0180000067 -0.0144748688 -0.00247487426
v 0.0193393975 -0.0119999945 -0.00323357806
v 0.0193729624 -0.0133729577 -0.0029120408
v 0.0193032995 -0.0142968893 -0.00229689106
v 0.0179999992 0.0154999942 0
v 0.0179999992 0.0119999945 -0.00349999964
v 0.0214999989 0.0119999945 0
v 0.0180000067 0.0152335763 -0.0013393946
v 0.0180000067 0.0144748688 -0.00247487426
v 0.0193393975 0.0152335763 0
v 0.0193729624 0.014912039 -0.00137295946
v 0.0193032995 0.0142968893 -0.00229689106
v 0.0200207308 0.0140207261 -0.00202072784
v 0.0193393975 0.0119999945 -0.00323357806
v 0.0204748809 0.0119999945 -0.00247487426
v 0.0180000067 0.0133393854 -0.00323357806
v 0.0193729624 0.0133729577 -0.0029120408
v 0.020296894 0.0133032948 -0.00229689106
v 0.021233581 0.0133393854 0
v 0.0204748809 0.0144748688 0
v 0.021233581 0.0119999945 -0.00133939087
v 0.0209120438 0.0133729577 -0.00137295946
v 0.020296894 0.0142968893 -0.00130329654
v -0.0180000067 0.0154999942 0
v -0.0215000063 0.0119999945 0
v -0.0180000067 0.0119999945 -0.00349999964
v -0.0193393975 0.0152335763 0
v -0.0204748809 0.0144748688 0
v -0.0180000067 0.0152335763 -0.00133939087
v -0.019372955 0.014912039 -0.00137295946
v -0.0202969015 0.0142968893 -0.00130329654
v -0.0200207233 0.0140207261 -0.00202072784
v -0.0212335885 0.0119999945 -0.0013393946
v -0.0204748809 0.0119999945 -0.00247487426
v -0.0212335885 0.0133393854 0
v -0.0209120363 0.0133729577 -0.00137295946
v -0.0202969015 0.0133032948 -0.00229689106
v -0.0180000067 0.0133393854 -0.00323357806
v -0.0180000067 0.0144748688 -0.00247487426
v -0.0193393975 0.0119999945 -0.00323357806
v -0.019372955 0.0133729577 -0.0029120408
v -0.019303292 0.0142968893 -0.00229689106
v -0.0215000063 -0.0119999945 0
v -0.0180000067 -0.0119999945 0.00350000337
v -0.0180000067 -0.0154999942 0
v -0.0212335885 -0.0119999945 0.0013393946
v -0.0204748809 -0.0119999945 0.00247487426
v -0.0212335885 -0.0133393854 0
v -0.0209120363 -0.0133729577 0.00137295946
v -0.0202969015 -0.0133032948 0.00229689106
v -0.0200207233 -0.0140207261 0.00202072784
v -0.0180000067 -0.0133393854 0.00323357806
v -0.0180000067 -0.0144748688 0.00247487426
v -0.0193393975 -0.0119999945 0.00323357806
v -0.019372955 -0.0133729577 0.0029120408
v -0.019303292 -0.0142968893 0.00229689106
v -0.0193393975 -0.0152335763 0
v -0.0204748809 -0.0144748688 0
v -0.0180000067 -0.0152335763 0.00133939087
v -0.019372955 -0.014912039 0.00137295946
v -0.0202969015 -0.0142968893 0.00130329654
v 0.0179999992 -0.0154999942 0
v 0.0179999992 -0.0119999945 0.00350000337
v 0.0214999989 -0.0119999945 0
v 0.0180000067 -0.0152335763 0.0013393946
v 0.0180000067 -0.0144748688 0.00247487426
v 0.0193393975 -0.0152335763 0
v 0.0193729624 -0.014912039 0.00137295946
v 0.0193032995 -0.0142968893 0.00229689106
v 0.0200207308 -0.0140207261 0.00202072784
v 0.0193393975 -0.0119999945 0.00323357806
v 0.0204748809 -0.0119999945 0.00247487426
v 0.0180000067 -0.0133393854 0.00323357806
v 0.0193729624 -0.0133729577 0.0029120408
v 0.020296894 -0.0133032948 0.00229689106
v 0.021233581 -0.0133393854 0
v 0.0204748809 -0.0144748688 0
v 0.021233581 -0.0119999945 0.00133939087
v 0.0209120438 -0.0133729577 0.00137295946
v 0.020296894 -0.0142968893 0.00130329654
v 0.0179999992 0.0119999945 0.00350000337
v 0.0179999992 0.0154999942 0
v 0.0214999989 0.0119999945 0
v 0.0180000067 0.0133393854 0.00323357806
v 0.0180000067 0.0144748688 0.00247487426
v 0.0193393975 0.0119999945 0.00323357806
v 0.0193729624 0.0133729577 0.0029120408
v 0.0193032995 0.0142968893 0.00229689106
v 0.0200207308 0.0140207261 0.00202072784
v 0.0193393975 0.0152335763 0
v 0.0204748809 0.0144748688 0
v 0.0180000067 0.0152335763 0.00133939087
v 0.0193729624 0.014912039 0.00137295946
v 0.020296894 0.0142968893 0.00130329654
v 0.021233581 0.0119999945 0.0013393946
v 0.0204748809 0.0119999945 0.00247487426
v 0.021233581 0.0133393854 0
v 0.0209120438 0.0133729577 0.00137295946
v 0.020296894 0.0133032948 0.00229689106
v -0.0215000063 0.0119999945 0
v -0.0180000067 0.0154999942 0
v -0.0180000067 0.0119999945 0.00350000337
v -0.0212335885 0.0133393854 0
v -0.0204748809 0.0144748688 0
v -0.0212335885 0.0119999945 0.00133939087
v -0.0209120363 0.0133729577 0.00137295946
v -0.0202969015 0.0142968893 0.00130329654
v -0.0200207233 0.0140207261 0.00202072784
v -0.0180000067 0.0152335763 0.0013393946
v -0.0180000067 0.0144748688 0.00247487426
v -0.0193393975 0.0152335763 0
v -0.019372955 0.014912039 0.00137295946
v -0.019303292 0.0142968893 0.00229689106
v -0.0193393975 0.0119999945 0.00323357806
v -0.0204748809 0.0119999945 0.00247487426
v -0.0180000067 0.0133393854 0.00323357806
v -0.019372955 0.0133729577 0.0029120408
v -0.0202969015 0.0133032948 0.00229689106
usemtl matte_black_keycaps_003
f 59 134 77 3
f 2 22 40 60
f 39 116 135 58
f 78 136 115 97
f 21 98 117 41
f 1 4 7 6
f 4 5 8 7
f 6 7 19 16
f 7 8 9 19
f 2 10 13 12
f 10 11 14 13
f 12 13 8 5
f 13 14 9 8
f 3 15 18 17
f 15 16 19 18
f 17 18 14 11
f 18 19 9 14
f 20 23 26 25
f 23 24 27 26
f 25 26 38 35
f 26 27 28 38
f 21 29 32 31
f 29 30 33 32
f 31 32 27 24
f 32 33 28 27
f 22 34 37 36
f 34 35 38 37
f 36 37 33 30
f 37 38 28 33
f 39 42 45 44
f 42 43 46 45
f 44 45 57 54
f 45 46 47 57
f 40 48 51 50
f 48 49 52 51
f 50 51 46 43
f 51 52 47 46
f 41 53 56 55
f 53 54 57 56
f 55 56 52 49
f 56 57 47 52
f 58 61 64 63
f 61 62 65 64
f 63 64 76 73
f 64 65 66 76
f 59 67 70 69
f 67 68 71 70
f 69 70 65 62
f 70 71 66 65
f 60 72 75 74
f 72 73 76 75
f 74 75 71 68
f 75 76 66 71
f 77 80 83 82
f 80 81 84 83
f 82 83 95 92
f 83 84 85 95
f 78 86 89 88
f 86 87 90 89
f 88 89 84 81
f 89 90 85 84
f 79 91 94 93
f 91 92 95 94
f 93 94 90 87
f 94 95 85 90
f 96 99 102 101
f 99 100 103 102
f 101 102 114 111
f 102 103 104 114
f 97 105 108 107
f 105 106 109 108
f 107 108 103 100
f 108 109 104 103
f 98 110 113 112
f 110 111 114 113
f 112 113 109 106
f 113 114 104 109
f 115 118 121 120
f 118 119 122 121
f 120 121 133 130
f 121 122 123 133
f 116 124 127 126
f 124 125 128 127
f 126 127 122 119
f 127 128 123 122
f 117 129 132 131
f 129 130 133 132
f 131 132 128 125
f 132 133 123 128
f 134 137 140 139
f 137 138 141 140
f 139 140 152 149
f 140 141 142 152
f 135 143 146 145
f 143 144 147 146
f 145 146 141 138
f 146 147 142 141
f 136 148 151 150
f 148 149 152 151
f 150 151 147 144
f 151 152 142 147
f 39 58 63 42
f 42 63 73 43
f 43 73 72 50
f 50 72 60 40
f 1 20 25 4
f 4 25 35 5
f 5 35 34 12
f 12 34 22 2
f 21 41 55 29
f 29 55 49 30
f 30 49 48 36
f 36 48 40 22
f 2 60 74 10
f 10 74 68 11
f 11 68 67 17
f 17 67 59 3
f 3 77 82 15
f 15 82 92 16
f 16 92 91 6
f 6 91 79 1
f 78 97 107 86
f 86 107 100 87
f 87 100 99 93
f 93 99 96 79
f 97 115 120 105
f 105 120 130 106
f 106 130 129 112
f 112 129 117 98
f 77 134 139 80
f 80 139 149 81
f 81 149 148 88
f 88 148 136 78
f 20 96 101 23
f 23 101 111 24
f 24 111 110 31
f 31 110 98 21
f 41 117 131 53
f 53 131 125 54
f 54 125 124 44
f 44 124 116 39
f 115 136 150 118
f 118 150 144 119
f 119 144 143 126
f 126 143 135 116
f 58 135 145 61
f 61 145 138 62
f 62 138 137 69
f 69 137 134 59
f 1 79 96 20

g key_legend_1_4_4
v 0.00121000409 -0.000880002975 0.00450000539
v 0.00121000409 -0.00176000595 0.00450000539
v 0.000480003655 -0.00176000595 0.00450000539
v 0.000480003655 -0.00400000811 0.00450000539
v -0.000499993563 -0.00400000811 0.00450000539
v -0.000499993563 -0.00176000595 0.00450000539
v -0.00338999927 -0.00176000595 0.00450000539
v -0.00338999927 -0.00131000578 0.00450000539
v 6.00069761e-05 0.00291000307 0.00450000539
v 0.000480003655 0.00291000307 0.00450000539
v 0.000480003655 -0.000880002975 0.00450000539
v -0.000499993563 -0.000880002975 0.00450000539
v -0.000499993563 0.0010599941 0.00450000539
v -0.000519990921 0.0010599941 0.00450000539
v -0.00207999349 -0.000880002975 0.00450000539
v 0.00121000409 -0.000880002975 0.00409999862
v 0.00121000409 -0.00176000595 0.00409999862
v 0.000480003655 -0.00176000595 0.00409999862
v 0.000480003655 -0.00400000811 0.00409999862
v -0.000499993563 -0.00400000811 0.00409999862
v -0.000499993563 -0.00176000595 0.00409999862
v -0.00338999927 -0.00176000595 0.00409999862
v -0.00338999927 -0.00131000578 0.00409999862
v 6.00069761e-05 0.00291000307 0.00409999862
v 0.000480003655 0.00291000307 0.00409999862
v 0.000480003655 -0.000880002975 0.00409999862
v -0.000499993563 -0.000880002975 0.00409999862
v -0.000499993563 0.0010599941 0.00409999862
v -0.000519990921 0.0010599941 0.00409999862
v -0.00207999349 -0.000880002975 0.00409999862
v 0.00121000409 -0.000880002975 0.00409999862
v 0.00121000409 -0.000880002975 0.00450000539
v 0.00121000409 -0.00176000595 0.00409999862
v 0.00121000409 -0.00176000595 0.00450000539
v 0.000480003655 -0.00176000595 0.00409999862
v 0.000480003655 -0.00176000595 0.00450000539
v 0.000480003655 -0.00400000811 0.00409999862
v 0.000480003655 -0.00400000811 0.00450000539
v -0.000499993563 -0.00400000811 0.00409999862
v -0.000499993563 -0.00400000811 0.00450000539
v -0.000499993563 -0.00176000595 0.00409999862
v -0.000499993563 -0.00176000595 0.00450000539
v -0.00338999927 -0.00176000595 0.00409999862
v -0.00338999927 -0.00176000595 0.00450000539
v -0.00338999927 -0.00131000578 0.00409999862
v -0.00338999927 -0.00131000578 0.00450000539
v 6.00069761e-05 0.00291000307 0.00409999862
v 6.00069761e-05 0.00291000307 0.00450000539
v 0.000480003655 0.00291000307 0.00409999862
v 0.000480003655 0.00291000307 0.00450000539
v 0.000480003655 -0.000880002975 0.00409999862
v 0.000480003655 -0.000880002975 0.00450000539
v -0.000499993563 -0.000880002975 0.00409999862
v -0.000499993563 -0.000880002975 0.00450000539
v -0.000499993563 0.0010599941 0.00409999862
v -0.000499993563 0.0010599941 0.00450000539
v -0.000519990921 0.0010599941 0.00409999862
v -0.000519990921 0.0010599941 0.00450000539
v -0.00207999349 -0.000880002975 0.00409999862
v -0.00207999349 -0.000880002975 0.00450000539
usemtl screen_white_text_003
f 160 162 161
f 160 166 162
f 166 165 162
f 165 163 162
f 160 167 166
f 164 163 165
f 160 164 167
f 160 163 164
f 160 153 163
f 160 154 153
f 159 154 160
f 158 154 159
f 157 155 158
f 155 154 158
f 157 156 155
f 175 176 177
f 175 177 181
f 181 177 180
f 180 177 178
f 175 181 182
f 179 180 178
f 175 182 179
f 175 179 178
f 175 178 168
f 175 168 169
f 174 175 169
f 173 174 169
f 172 173 170
f 170 173 169
f 172 170 171
f 184 186 185 183
f 186 188 187 185
f 188 190 189 187
f 190 192 191 189
f 192 194 193 191
f 194 196 195 193
f 196 198 197 195
f 198 200 199 197
f 200 202 201 199
f 202 204 203 201
f 204 184 183 203
f 206 208 207 205
f 208 210 209 207
f 210 212 211 209
f 212 206 205 211
