mtllib keyboard_key_3_5_G_link.mtl
o keyboard_key_3_5_G_link

g keyboard_key_3_5_G_SOLID
v -0.0199999977 -0.0164999999 0
v -0.0199999977 -0.0130000003 -0.00349999964
v -0.0234999973 -0.0130000003 0
v -0.0200000014 -0.0162335783 -0.0013393946
v -0.0200000014 -0.0154748745 -0.00247487426
v -0.021339396 -0.0162335783 0
v -0.0213729609 -0.0159120411 -0.00137295946
v -0.021303298 -0.0152968913 -0.00229689106
v -0.0220207293 -0.0150207281 -0.00202072784
v -0.021339396 -0.0130000003 -0.00323357806
v -0.0224748757 -0.0130000003 -0.00247487426
v -0.0200000014 -0.0143393911 -0.00323357806
v -0.0213729609 -0.0143729597 -0.0029120408
v -0.0222968925 -0.0143032968 -0.00229689106
v -0.0232335795 -0.0143393911 0
v -0.0224748757 -0.0154748745 0
v -0.0232335795 -0.0130000003 -0.00133939087
v -0.0229120422 -0.0143729597 -0.00137295946
v -0.0222968925 -0.0152968913 -0.00130329654
v 0.0199999996 -0.0164999999 0
v 0.0234999992 -0.0130000003 0
v 0.0199999996 -0.0130000003 -0.00349999964
v 0.0213393942 -0.0162335783 0
v 0.0224748757 -0.0154748745 0
v 0.0200000014 -0.0162335783 -0.00133939087
v 0.021372959 -0.0159120411 -0.00137295946
v 0.0222968925 -0.0152968913 -0.00130329654
v 0.0220207274 -0.0150207281 -0.00202072784
v 0.0232335795 -0.0130000003 -0.0013393946
v 0.0224748757 -0.0130000003 -0.00247487426
v 0.0232335795 -0.0143393911 0
v 0.0229120404 -0.0143729597 -0.00137295946
v 0.0222968925 -0.0143032968 -0.00229689106
v 0.0200000014 -0.0143393911 -0.00323357806
v 0.0200000014 -0.0154748745 -0.00247487426
v 0.0213393942 -0.0130000003 -0.00323357806
v 0.021372959 -0.0143729597 -0.0029120408
v 0.021303298 -0.0152968913 -0.00229689106
v 0.0199999996 0.0164999962 0
v 0.0199999996 0.0129999965 -0.00349999964
v 0.0234999992 0.0129999965 0
v 0.0200000014 0.0162335783 -0.0013393946
v 0.0200000014 0.0154748708 -0.00247487426
v 0.0213393942 0.0162335783 0
v 0.021372959 0.0159120411 -0.00137295946
v 0.021303298 0.0152968913 -0.00229689106
v 0.0220207274 0.0150207281 -0.00202072784
v 0.0213393942 0.0129999965 -0.00323357806
v 0.0224748757 0.0129999965 -0.00247487426
v 0.0200000014 0.0143393949 -0.00323357806
v 0.021372959 0.0143729597 -0.0029120408
v 0.0222968925 0.0143032968 -0.00229689106
v 0.0232335795 0.0143393949 0
v 0.0224748757 0.0154748708 0
v 0.0232335795 0.0129999965 -0.00133939087
v 0.0229120404 0.0143729597 -0.00137295946
v 0.0222968925 0.0152968913 -0.00130329654
v -0.0199999977 0.0164999962 0
v -0.0234999973 0.0129999965 0
v -0.0199999977 0.0129999965 -0.00349999964
v -0.021339396 0.0162335783 0
v -0.0224748757 0.0154748708 0
v -0.0200000014 0.0162335783 -0.00133939087
v -0.0213729609 0.0159120411 -0.00137295946
v -0.0222968925 0.0152968913 -0.00130329654
v -0.0220207293 0.0150207281 -0.00202072784
v -0.0232335795 0.0129999965 -0.0013393946
v -0.0224748757 0.0129999965 -0.00247487426
v -0.0232335795 0.0143393949 0
v -0.0229120422 0.0143729597 -0.00137295946
v -0.0222968925 0.0143032968 -0.00229689106
v -0.0200000014 0.0143393949 -0.00323357806
v -0.0200000014 0.0154748708 -0.00247487426
v -0.021339396 0.0129999965 -0.00323357806
v -0.0213729609 0.0143729597 -0.0029120408
v -0.021303298 0.0152968913 -0.00229689106
v -0.0234999973 -0.0130000003 0
v -0.0199999977 -0.0130000003 0.00350000337
v -0.0199999977 -0.0164999999 0
v -0.0232335795 -0.0130000003 0.0013393946
v -0.0224748757 -0.0130000003 0.00247487426
v -0.0232335795 -0.0143393911 0
v -0.0229120422 -0.0143729597 0.00137295946
v -0.0222968925 -0.0143032968 0.00229689106
v -0.0220207293 -0.0150207281 0.00202072784
v -0.0200000014 -0.0143393911 0.00323357806
v -0.0200000014 -0.0154748745 0.00247487426
v -0.021339396 -0.0130000003 0.00323357806
v -0.0213729609 -0.0143729597 0.0029120408
v -0.021303298 -0.0152968913 0.00229689106
v -0.021339396 -0.0162335783 0
v -0.0224748757 -0.0154748745 0
v -0.0200000014 -0.0162335783 0.00133939087
v -0.0213729609 -0.0159120411 0.00137295946
v -0.0222968925 -0.0152968913 0.00130329654
v 0.0199999996 -0.0164999999 0
v 0.0199999996 -0.0130000003 0.00350000337
v 0.0234999992 -0.0130000003 0
v 0.0200000014 -0.0162335783 0.0013393946
v 0.0200000014 -0.0154748745 0.00247487426
v 0.0213393942 -0.0162335783 0
v 0.021372959 -0.0159120411 0.00137295946
v 0.021303298 -0.0152968913 0.00229689106
v 0.0220207274 -0.0150207281 0.00202072784
v 0.0213393942 -0.0130000003 0.00323357806
v 0.0224748757 -0.0130000003 0.00247487426
v 0.0200000014 -0.0143393911 0.00323357806
v 0.021372959 -0.0143729597 0.0029120408
v 0.0222968925 -0.0143032968 0.00229689106
v 0.0232335795 -0.0143393911 0
v 0.0224748757 -0.0154748745 0
v 0.0232335795 -0.0130000003 0.00133939087
v 0.0229120404 -0.0143729597 0.00137295946
v 0.0222968925 -0.0152968913 0.00130329654
v 0.0199999996 0.0129999965 0.00350000337
v 0.0199999996 0.0164999962 0
v 0.0234999992 0.0129999965 0
v 0.0200000014 0.0143393949 0.00323357806
v 0.0200000014 0.0154748708 0.00247487426
v 0.0213393942 0.0129999965 0.00323357806
v 0.021372959 0.0143729597 0.0029120408
v 0.021303298 0.0152968913 0.00229689106
v 0.0220207274 0.0150207281 0.00202072784
v 0.0213393942 0.0162335783 0
v 0.0224748757 0.0154748708 0
v 0.0200000014 0.0162335783 0.00133939087
v 0.021372959 0.0159120411 0.00137295946
v 0.0222968925 0.0152968913 0.00130329654
v 0.0232335795 0.0129999965 0.0013393946
v 0.0224748757 0.0129999965 0.00247487426
v 0.0232335795 0.0143393949 0
v 0.0229120404 0.0143729597 0.00137295946
v 0.0222968925 0.0143032968 0.00229689106
v -0.0234999973 0.0129999965 0
v -0.0199999977 0.0164999962 0
v -0.0199999977 0.0129999965 0.00350000337
v -0.0232335795 0.0143393949 0
v -0.0224748757 0.0154748708 0
v -0.0232335795 0.0129999965 0.00133939087
v -0.0229120422 0.0143729597 0.00137295946
v -0.0222968925 0.0152968913 0.00130329654
v -0.0220207293 0.0150207281 0.00202072784
v -0.0200000014 0.0162335783 0.0013393946
v -0.0200000014 0.0154748708 0.00247487426
v -0.021339396 0.0162335783 0
v -0.0213729609 0.0159120411 0.00137295946
v -0.021303298 0.0152968913 0.00229689106
v -0.021339396 0.0129999965 0.00323357806
v -0.0224748757 0.0129999965 0.00247487426
v -0.0200000014 0.0143393949 0.00323357806
v -0.0213729609 0.0143729597 0.0029120408
v -0.0222968925 0.0143032968 0.00229689106
usemtl matte_black_keycaps_003
f 59 134 77 3
f 2 22 40 60
f 39 116 135 58
f 78 136 115 97
f 21 98 117 41
f 1 4 7 6
f 4 5 8 7
f 6 7 19 16
f 7 8 9 19
f 2 10 13 12
f 10 11 14 13
f 12 13 8 5
f 13 14 9 8
f 3 15 18 17
f 15 16 19 18
f 17 18 14 11
f 18 19 9 14
f 20 23 26 25
f 23 24 27 26
f 25 26 38 35
f 26 27 28 38
f 21 29 32 31
f 29 30 33 32
f 31 32 27 24
f 32 33 28 27
f 22 34 37 36
f 34 35 38 37
f 36 37 33 30
f 37 38 28 33
f 39 42 45 44
f 42 43 46 45
f 44 45 57 54
f 45 46 47 57
f 40 48 51 50
f 48 49 52 51
f 50 51 46 43
f 51 52 47 46
f 41 53 56 55
f 53 54 57 56
f 55 56 52 49
f 56 57 47 52
f 58 61 64 63
f 61 62 65 64
f 63 64 76 73
f 64 65 66 76
f 59 67 70 69
f 67 68 71 70
f 69 70 65 62
f 70 71 66 65
f 60 72 75 74
f 72 73 76 75
f 74 75 71 68
f 75 76 66 71
f 77 80 83 82
f 80 81 84 83
f 82 83 95 92
f 83 84 85 95
f 78 86 89 88
f 86 87 90 89
f 88 89 84 81
f 89 90 85 84
f 79 91 94 93
f 91 92 95 94
f 93 94 90 87
f 94 95 85 90
f 96 99 102 101
f 99 100 103 102
f 101 102 114 111
f 102 103 104 114
f 97 105 108 107
f 105 106 109 108
f 107 108 103 100
f 108 109 104 103
f 98 110 113 112
f 110 111 114 113
f 112 113 109 106
f 113 114 104 109
f 115 118 121 120
f 118 119 122 121
f 120 121 133 130
f 121 122 123 133
f 116 124 127 126
f 124 125 128 127
f 126 127 122 119
f 127 128 123 122
f 117 129 132 131
f 129 130 133 132
f 131 132 128 125
f 132 133 123 128
f 134 137 140 139
f 137 138 141 140
f 139 140 152 149
f 140 141 142 152
f 135 143 146 145
f 143 144 147 146
f 145 146 141 138
f 146 147 142 141
f 136 148 151 150
f 148 149 152 151
f 150 151 147 144
f 151 152 142 147
f 39 58 63 42
f 42 63 73 43
f 43 73 72 50
f 50 72 60 40
f 1 20 25 4
f 4 25 35 5
f 5 35 34 12
f 12 34 22 2
f 21 41 55 29
f 29 55 49 30
f 30 49 48 36
f 36 48 40 22
f 2 60 74 10
f 10 74 68 11
f 11 68 67 17
f 17 67 59 3
f 3 77 82 15
f 15 82 92 16
f 16 92 91 6
f 6 91 79 1
f 78 97 107 86
f 86 107 100 87
f 87 100 99 93
f 93 99 96 79
f 97 115 120 105
f 105 120 130 106
f 106 130 129 112
f 112 129 117 98
f 77 134 139 80
f 80 139 149 81
f 81 149 148 88
f 88 148 136 78
f 20 96 101 23
f 23 101 111 24
f 24 111 110 31
f 31 110 98 21
f 41 117 131 53
f 53 131 125 54
f 54 125 124 44
f 44 124 116 39
f 115 136 150 118
f 118 150 144 119
f 119 144 143 126
f 126 143 135 116
f 58 135 145 61
f 61 145 138 62
f 62 138 137 69
f 69 137 134 59
f 1 79 96 20

g key_legend_3_5_G
v 0.00180582143 -0.00362505019 0.00450000539
v 0.00158740766 -0.00371037424 0.00450000539
v 0.00137343816 -0.00378625095 0.00450000539
v 0.00116259232 -0.00385296345 0.00450000539
v 0.000953553244 -0.0039107874 0.00450000539
v 0.000745000318 -0.00396000221 0.00450000539
v 0.000535612926 -0.00400087982 0.00450000539
v 0.000324074179 -0.00403370708 0.00450000539
v 0.000109061599 -0.00405875221 0.00450000539
v -0.000110739842 -0.00407629833 0.00450000539
v -0.000336654484 -0.00408662111 0.00450000539
v -0.000569999218 -0.00409000367 0.00450000539
v -0.0010804683 -0.00406011567 0.00450000539
v -0.00156458281 -0.00397259369 0.00450000539
v -0.00201890618 -0.00383062661 0.00450000539
v -0.00243999995 -0.0036374107 0.00450000539
v -0.00282442756 -0.00339613855 0.00450000539
v -0.00316875055 -0.003109999 0.00450000539
v -0.00346953049 -0.00278220326 0.00450000539
v -0.00372333266 -0.00241592526 0.00450000539
v -0.00392671861 -0.00201437622 0.00450000539
v -0.0040762499 -0.00158074498 0.00450000539
v -0.00416848995 -0.00111822039 0.00450000539
v -0.00420000032 -0.000629998744 0.00450000539
v -0.00416770764 -0.000138111413 0.00450000539
v -0.004073333 0.000330135226 0.00450000539
v -0.0039206259 0.000771090388 0.00450000539
v -0.00371333398 0.00118111074 0.00450000539
v -0.00345520861 0.0015565455 0.00450000539
v -0.00314999931 0.00189375132 0.00450000539
v -0.00280145928 0.00218907744 0.00450000539
v -0.00241333432 0.00243888795 0.00450000539
v -0.0019893758 0.00263953209 0.00450000539
v -0.00153333321 0.00278735906 0.00450000539
v -0.00104895793 0.00287873298 0.00450000539
v -0.000539999455 0.00290999562 0.00450000539
v -0.000344565138 0.0029071793 0.00450000539
v -0.000156527385 0.0028982833 0.00450000539
v 2.67196447e-05 0.00288265198 0.00450000539
v 0.000207778066 0.00285962969 0.00450000539
v 0.000389253721 0.00282854587 0.00450000539
v 0.000573750585 0.00278874487 0.00450000539
v 0.000763870776 0.00273957849 0.00450000539
v 0.000962221995 0.00268036872 0.00450000539
v 0.00117140636 0.00261046737 0.00450000539
v 0.00139402784 0.00252921134 0.00450000539
v 0.00163269043 0.00243593752 0.00450000539
v 0.00188999996 0.00232999772 0.00450000539
v 0.00188999996 0.00134000182 0.00450000539
v 0.00168939866 0.0014456138 0.00450000539
v 0.00148768537 0.00154240429 0.00450000539
v 0.00128499977 0.00163031369 0.00450000539
v 0.00108148158 0.00170926005 0.00450000539
v 0.000877268612 0.00177917629 0.00450000539
v 0.000672500581 0.00183999538 0.00450000539
v 0.000467315316 0.00189165026 0.00450000539
v 0.000261852518 0.00193407387 0.00450000539
v 5.62500209e-05 0.00196718425 0.00450000539
v -0.000149352476 0.0019909218 0.00450000539
v -0.000354815274 0.00200521946 0.00450000539
v -0.000560000539 0.00200999528 0.00450000539
v -0.000922650099 0.00198690593 0.00450000539
v -0.00126870349 0.00191944093 0.00450000539
v -0.00159531273 0.00181031227 0.00450000539
v -0.00189962983 0.00166221708 0.00450000539
v -0.00217880867 0.00147788227 0.00450000539
v -0.00242999941 0.00125999749 0.00450000539
v -0.00265035965 0.00101128221 0.00450000539
v -0.00283703767 0.000734440982 0.00450000539
v -0.00298718736 0.000432185829 0.00450000539
v -0.00309796259 0.000107221305 0.00450000539
v -0.00316651724 -0.000237748027 0.00450000539
v -0.00318999961 -0.000600002706 0.00450000539
v -0.00316663086 -0.000970266759 0.00450000539
v -0.00309805572 -0.00131963193 0.00450000539
v -0.00298656151 -0.00164593756 0.00450000539
v -0.00283444487 -0.00194703788 0.00450000539
v -0.00264399312 -0.00222077966 0.00450000539
v -0.0024174992 -0.00246500224 0.00450000539
v -0.00215725601 -0.00267755985 0.00450000539
v -0.0018655546 -0.00285629928 0.00450000539
v -0.0015446879 -0.00299906731 0.00450000539
v -0.00119694509 -0.00310370326 0.00450000539
v -0.000824617222 -0.00316806883 0.00450000539
v -0.000430000946 -0.00319000334 0.00450000539
v -0.000298518687 -0.00318755209 0.00450000539
v -0.000168981031 -0.00318042189 0.00450000539
v -4.12501395e-05 -0.00316891074 0.00450000539
v 8.48155469e-05 -0.00315333158 0.00450000539
v 0.000209352002 -0.00313401222 0.00450000539
v 0.000332498923 -0.0031112507 0.00450000539
v 0.000454397872 -0.00308536738 0.00450000539
v 0.000575184822 -0.00305666775 0.00450000539
v 0.000694999471 -0.00302547216 0.00450000539
v 0.000813981518 -0.00299208611 0.00450000539
v 0.000932268798 -0.00295682251 0.00450000539
v 0.00105000101 -0.00292000175 0.00450000539
v 0.00105000101 -0.0015200004 0.00450000539
v -0.000259999186 -0.0015200004 0.00450000539
v -0.000259999186 -0.000640004873 0.00450000539
v 0.00203000009 -0.000640004873 0.00450000539
v 0.00203000009 -0.00353000313 0.00450000539
v 0.00180582143 -0.00362505019 0.00409999862
v 0.00158740766 -0.00371037424 0.00409999862
v 0.00137343816 -0.00378625095 0.00409999862
v 0.00116259232 -0.00385296345 0.00409999862
v 0.000953553244 -0.0039107874 0.00409999862
v 0.000745000318 -0.00396000221 0.00409999862
v 0.000535612926 -0.00400087982 0.00409999862
v 0.000324074179 -0.00403370708 0.00409999862
v 0.000109061599 -0.00405875221 0.00409999862
v -0.000110739842 -0.00407629833 0.00409999862
v -0.000336654484 -0.00408662111 0.00409999862
v -0.000569999218 -0.00409000367 0.00409999862
v -0.0010804683 -0.00406011567 0.00409999862
v -0.00156458281 -0.00397259369 0.00409999862
v -0.00201890618 -0.00383062661 0.00409999862
v -0.00243999995 -0.0036374107 0.00409999862
v -0.00282442756 -0.00339613855 0.00409999862
v -0.00316875055 -0.003109999 0.00409999862
v -0.00346953049 -0.00278220326 0.00409999862
v -0.00372333266 -0.00241592526 0.00409999862
v -0.00392671861 -0.00201437622 0.00409999862
v -0.0040762499 -0.00158074498 0.00409999862
v -0.00416848995 -0.00111822039 0.00409999862
v -0.00420000032 -0.000629998744 0.00409999862
v -0.00416770764 -0.000138111413 0.00409999862
v -0.004073333 0.000330135226 0.00409999862
v -0.0039206259 0.000771090388 0.00409999862
v -0.00371333398 0.00118111074 0.00409999862
v -0.00345520861 0.0015565455 0.00409999862
v -0.00314999931 0.00189375132 0.00409999862
v -0.00280145928 0.00218907744 0.00409999862
v -0.00241333432 0.00243888795 0.00409999862
v -0.0019893758 0.00263953209 0.00409999862
v -0.00153333321 0.00278735906 0.00409999862
v -0.00104895793 0.00287873298 0.00409999862
v -0.000539999455 0.00290999562 0.00409999862
v -0.000344565138 0.0029071793 0.00409999862
v -0.000156527385 0.0028982833 0.00409999862
v 2.67196447e-05 0.00288265198 0.00409999862
v 0.000207778066 0.00285962969 0.00409999862
v 0.000389253721 0.00282854587 0.00409999862
v 0.000573750585 0.00278874487 0.00409999862
v 0.000763870776 0.00273957849 0.00409999862
v 0.000962221995 0.00268036872 0.00409999862
v 0.00117140636 0.00261046737 0.00409999862
v 0.00139402784 0.00252921134 0.00409999862
v 0.00163269043 0.00243593752 0.00409999862
v 0.00188999996 0.00232999772 0.00409999862
v 0.00188999996 0.00134000182 0.00409999862
v 0.00168939866 0.0014456138 0.00409999862
v 0.00148768537 0.00154240429 0.00409999862
v 0.00128499977 0.00163031369 0.00409999862
v 0.00108148158 0.00170926005 0.00409999862
v 0.000877268612 0.00177917629 0.00409999862
v 0.000672500581 0.00183999538 0.00409999862
v 0.000467315316 0.00189165026 0.00409999862
v 0.000261852518 0.00193407387 0.00409999862
v 5.62500209e-05 0.00196718425 0.00409999862
v -0.000149352476 0.0019909218 0.00409999862
v -0.000354815274 0.00200521946 0.00409999862
v -0.000560000539 0.00200999528 0.00409999862
v -0.000922650099 0.00198690593 0.00409999862
v -0.00126870349 0.00191944093 0.00409999862
v -0.00159531273 0.00181031227 0.00409999862
v -0.00189962983 0.00166221708 0.00409999862
v -0.00217880867 0.00147788227 0.00409999862
v -0.00242999941 0.00125999749 0.00409999862
v -0.00265035965 0.00101128221 0.00409999862
v -0.00283703767 0.000734440982 0.00409999862
v -0.00298718736 0.000432185829 0.00409999862
v -0.00309796259 0.000107221305 0.00409999862
v -0.00316651724 -0.000237748027 0.00409999862
v -0.00318999961 -0.000600002706 0.00409999862
v -0.00316663086 -0.000970266759 0.00409999862
v -0.00309805572 -0.00131963193 0.00409999862
v -0.00298656151 -0.00164593756 0.00409999862
v -0.00283444487 -0.00194703788 0.00409999862
v -0.00264399312 -0.00222077966 0.00409999862
v -0.0024174992 -0.00246500224 0.00409999862
v -0.00215725601 -0.00267755985 0.00409999862
v -0.0018655546 -0.00285629928 0.00409999862
v -0.0015446879 -0.00299906731 0.00409999862
v -0.00119694509 -0.00310370326 0.00409999862
v -0.000824617222 -0.00316806883 0.00409999862
v -0.000430000946 -0.00319000334 0.00409999862
v -0.000298518687 -0.00318755209 0.00409999862
v -0.000168981031 -0.00318042189 0.00409999862
v -4.12501395e-05 -0.00316891074 0.00409999862
v 8.48155469e-05 -0.00315333158 0.00409999862
v 0.000209352002 -0.00313401222 0.00409999862
v 0.000332498923 -0.0031112507 0.00409999862
v 0.000454397872 -0.00308536738 0.00409999862
v 0.000575184822 -0.00305666775 0.00409999862
v 0.000694999471 -0.00302547216 0.00409999862
v 0.000813981518 -0.00299208611 0.00409999862
v 0.000932268798 -0.00295682251 0.00409999862
v 0.00105000101 -0.00292000175 0.00409999862
v 0.00105000101 -0.0015200004 0.00409999862
v -0.000259999186 -0.0015200004 0.00409999862
v -0.000259999186 -0.000640004873 0.00409999862
v 0.00203000009 -0.000640004873 0.00409999862
v 0.00203000009 -0.00353000313 0.00409999862
v 0.00180582143 -0.00362505019 0.00409999862
v 0.00180582143 -0.00362505019 0.00450000539
v 0.00158740766 -0.00371037424 0.00409999862
v 0.00158740766 -0.00371037424 0.00450000539
v 0.00137343816 -0.00378625095 0.00409999862
v 0.00137343816 -0.00378625095 0.00450000539
v 0.00116259232 -0.00385296345 0.00409999862
v 0.00116259232 -0.00385296345 0.00450000539
v 0.000953553244 -0.0039107874 0.00409999862
v 0.000953553244 -0.0039107874 0.00450000539
v 0.000745000318 -0.00396000221 0.00409999862
v 0.000745000318 -0.00396000221 0.00450000539
v 0.000535612926 -0.00400087982 0.00409999862
v 0.000535612926 -0.00400087982 0.00450000539
v 0.000324074179 -0.00403370708 0.00409999862
v 0.000324074179 -0.00403370708 0.00450000539
v 0.000109061599 -0.00405875221 0.00409999862
v 0.000109061599 -0.00405875221 0.00450000539
v -0.000110739842 -0.00407629833 0.00409999862
v -0.000110739842 -0.00407629833 0.00450000539
v -0.000336654484 -0.00408662111 0.00409999862
v -0.000336654484 -0.00408662111 0.00450000539
v -0.000569999218 -0.00409000367 0.00409999862
v -0.000569999218 -0.00409000367 0.00450000539
v -0.0010804683 -0.00406011567 0.00409999862
v -0.0010804683 -0.00406011567 0.00450000539
v -0.00156458281 -0.00397259369 0.00409999862
v -0.00156458281 -0.00397259369 0.00450000539
v -0.00201890618 -0.00383062661 0.00409999862
v -0.00201890618 -0.00383062661 0.00450000539
v -0.00243999995 -0.0036374107 0.00409999862
v -0.00243999995 -0.0036374107 0.00450000539
v -0.00282442756 -0.00339613855 0.00409999862
v -0.00282442756 -0.00339613855 0.00450000539
v -0.00316875055 -0.003109999 0.00409999862
v -0.00316875055 -0.003109999 0.00450000539
v -0.00346953049 -0.00278220326 0.00409999862
v -0.00346953049 -0.00278220326 0.00450000539
v -0.00372333266 -0.00241592526 0.00409999862
v -0.00372333266 -0.00241592526 0.00450000539
v -0.00392671861 -0.00201437622 0.00409999862
v -0.00392671861 -0.00201437622 0.00450000539
v -0.0040762499 -0.00158074498 0.00409999862
v -0.0040762499 -0.00158074498 0.00450000539
v -0.00416848995 -0.00111822039 0.00409999862
v -0.00416848995 -0.00111822039 0.00450000539
v -0.00420000032 -0.000629998744 0.00409999862
v -0.00420000032 -0.000629998744 0.00450000539
v -0.00416770764 -0.000138111413 0.00409999862
v -0.00416770764 -0.000138111413 0.00450000539
v -0.004073333 0.000330135226 0.00409999862
v -0.004073333 0.000330135226 0.00450000539
v -0.0039206259 0.000771090388 0.00409999862
v -0.0039206259 0.000771090388 0.00450000539
v -0.00371333398 0.00118111074 0.00409999862
v -0.00371333398 0.00118111074 0.00450000539
v -0.00345520861 0.0015565455 0.00409999862
v -0.00345520861 0.0015565455 0.00450000539
v -0.00314999931 0.00189375132 0.00409999862
v -0.00314999931 0.00189375132 0.00450000539
v -0.00280145928 0.00218907744 0.00409999862
v -0.00280145928 0.00218907744 0.00450000539
v -0.00241333432 0.00243888795 0.00409999862
v -0.00241333432 0.00243888795 0.00450000539
v -0.0019893758 0.00263953209 0.00409999862
v -0.0019893758 0.00263953209 0.00450000539
v -0.00153333321 0.00278735906 0.00409999862
v -0.00153333321 0.00278735906 0.00450000539
v -0.00104895793 0.00287873298 0.00409999862
v -0.00104895793 0.00287873298 0.00450000539
v -0.000539999455 0.00290999562 0.00409999862
v -0.000539999455 0.00290999562 0.00450000539
v -0.000344565138 0.0029071793 0.00409999862
v -0.000344565138 0.0029071793 0.00450000539
v -0.000156527385 0.0028982833 0.00409999862
v -0.000156527385 0.0028982833 0.00450000539
v 2.67196447e-05 0.00288265198 0.00409999862
v 2.67196447e-05 0.00288265198 0.00450000539
v 0.000207778066 0.00285962969 0.00409999862
v 0.000207778066 0.00285962969 0.00450000539
v 0.000389253721 0.00282854587 0.00409999862
v 0.000389253721 0.00282854587 0.00450000539
v 0.000573750585 0.00278874487 0.00409999862
v 0.000573750585 0.00278874487 0.00450000539
v 0.000763870776 0.00273957849 0.00409999862
v 0.000763870776 0.00273957849 0.00450000539
v 0.000962221995 0.00268036872 0.00409999862
v 0.000962221995 0.00268036872 0.00450000539
v 0.00117140636 0.00261046737 0.00409999862
v 0.00117140636 0.00261046737 0.00450000539
v 0.00139402784 0.00252921134 0.00409999862
v 0.00139402784 0.00252921134 0.00450000539
v 0.00163269043 0.00243593752 0.00409999862
v 0.00163269043 0.00243593752 0.00450000539
v 0.00188999996 0.00232999772 0.00409999862
v 0.00188999996 0.00232999772 0.00450000539
v 0.00188999996 0.00134000182 0.00409999862
v 0.00188999996 0.00134000182 0.00450000539
v 0.00168939866 0.0014456138 0.00409999862
v 0.00168939866 0.0014456138 0.00450000539
v 0.00148768537 0.00154240429 0.00409999862
v 0.00148768537 0.00154240429 0.00450000539
v 0.00128499977 0.00163031369 0.00409999862
v 0.00128499977 0.00163031369 0.00450000539
v 0.00108148158 0.00170926005 0.00409999862
v 0.00108148158 0.00170926005 0.00450000539
v 0.000877268612 0.00177917629 0.00409999862
v 0.000877268612 0.00177917629 0.00450000539
v 0.000672500581 0.00183999538 0.00409999862
v 0.000672500581 0.00183999538 0.00450000539
v 0.000467315316 0.00189165026 0.00409999862
v 0.000467315316 0.00189165026 0.00450000539
v 0.000261852518 0.00193407387 0.00409999862
v 0.000261852518 0.00193407387 0.00450000539
v 5.62500209e-05 0.00196718425 0.00409999862
v 5.62500209e-05 0.00196718425 0.00450000539
v -0.000149352476 0.0019909218 0.00409999862
v -0.000149352476 0.0019909218 0.00450000539
v -0.000354815274 0.00200521946 0.00409999862
v -0.000354815274 0.00200521946 0.00450000539
v -0.000560000539 0.00200999528 0.00409999862
v -0.000560000539 0.00200999528 0.00450000539
v -0.000922650099 0.00198690593 0.00409999862
v -0.000922650099 0.00198690593 0.00450000539
v -0.00126870349 0.00191944093 0.00409999862
v -0.00126870349 0.00191944093 0.00450000539
v -0.00159531273 0.00181031227 0.00409999862
v -0.00159531273 0.00181031227 0.00450000539
v -0.00189962983 0.00166221708 0.00409999862
v -0.00189962983 0.00166221708 0.00450000539
v -0.00217880867 0.00147788227 0.00409999862
v -0.00217880867 0.00147788227 0.00450000539
v -0.00242999941 0.00125999749 0.00409999862
v -0.00242999941 0.00125999749 0.00450000539
v -0.00265035965 0.00101128221 0.00409999862
v -0.00265035965 0.00101128221 0.00450000539
v -0.00283703767 0.000734440982 0.00409999862
v -0.00283703767 0.000734440982 0.00450000539
v -0.00298718736 0.000432185829 0.00409999862
v -0.00298718736 0.000432185829 0.00450000539
v -0.00309796259 0.000107221305 0.00409999862
v -0.00309796259 0.000107221305 0.00450000539
v -0.00316651724 -0.000237748027 0.00409999862
v -0.00316651724 -0.000237748027 0.00450000539
v -0.00318999961 -0.000600002706 0.00409999862
v -0.00318999961 -0.000600002706 0.00450000539
v -0.00316663086 -0.000970266759 0.00409999862
v -0.00316663086 -0.000970266759 0.00450000539
v -0.00309805572 -0.00131963193 0.00409999862
v -0.00309805572 -0.00131963193 0.00450000539
v -0.00298656151 -0.00164593756 0.00409999862
v -0.00298656151 -0.00164593756 0.00450000539
v -0.00283444487 -0.00194703788 0.00409999862
v -0.00283444487 -0.00194703788 0.00450000539
v -0.00264399312 -0.00222077966 0.00409999862
v -0.00264399312 -0.00222077966 0.00450000539
v -0.0024174992 -0.00246500224 0.00409999862
v -0.0024174992 -0.00246500224 0.00450000539
v -0.00215725601 -0.00267755985 0.00409999862
v -0.00215725601 -0.00267755985 0.00450000539
v -0.0018655546 -0.00285629928 0.00409999862
v -0.0018655546 -0.00285629928 0.00450000539
v -0.0015446879 -0.00299906731 0.00409999862
v -0.0015446879 -0.00299906731 0.00450000539
v -0.00119694509 -0.00310370326 0.00409999862
v -0.00119694509 -0.00310370326 0.00450000539
v -0.000824617222 -0.00316806883 0.00409999862
v -0.000824617222 -0.00316806883 0.00450000539
v -0.000430000946 -0.00319000334 0.00409999862
v -0.000430000946 -0.00319000334 0.00450000539
v -0.000298518687 -0.00318755209 0.00409999862
v -0.000298518687 -0.00318755209 0.00450000539
v -0.000168981031 -0.00318042189 0.00409999862
v -0.000168981031 -0.00318042189 0.00450000539
v -4.12501395e-05 -0.00316891074 0.00409999862
v -4.12501395e-05 -0.00316891074 0.00450000539
v 8.48155469e-05 -0.00315333158 0.00409999862
v 8.48155469e-05 -0.00315333158 0.00450000539
v 0.000209352002 -0.00313401222 0.00409999862
v 0.000209352002 -0.00313401222 0.00450000539
v 0.000332498923 -0.0031112507 0.00409999862
v 0.000332498923 -0.0031112507 0.00450000539
v 0.000454397872 -0.00308536738 0.00409999862
v 0.000454397872 -0.00308536738 0.00450000539
v 0.000575184822 -0.00305666775 0.00409999862
v 0.000575184822 -0.00305666775 0.00450000539
v 0.000694999471 -0.00302547216 0.00409999862
v 0.000694999471 -0.00302547216 0.00450000539
v 0.000813981518 -0.00299208611 0.00409999862
v 0.000813981518 -0.00299208611 0.00450000539
v 0.000932268798 -0.00295682251 0.00409999862
v 0.000932268798 -0.00295682251 0.00450000539
v 0.00105000101 -0.00292000175 0.00409999862
v 0.00105000101 -0.00292000175 0.00450000539
v 0.00105000101 -0.0015200004 0.00409999862
v 0.00105000101 -0.0015200004 0.00450000539
v -0.000259999186 -0.0015200004 0.00409999862
v -0.000259999186 -0.0015200004 0.00450000539
v -0.000259999186 -0.000640004873 0.00409999862
v -0.000259999186 -0.000640004873 0.00450000539
v 0.00203000009 -0.000640004873 0.00409999862
v 0.00203000009 -0.000640004873 0.00450000539
v 0.00203000009 -0.00353000313 0.00409999862
v 0.00203000009 -0.00353000313 0.00450000539
usemtl screen_white_text_003
f 187 189 188
f 187 190 189
f 187 191 190
f 187 192 191
f 186 192 187
f 186 193 192
f 186 194 193
f 186 195 194
f 185 195 186
f 185 196 195
f 185 197 196
f 184 197 185
f 184 198 197
f 184 199 198
f 183 199 184
f 183 200 199
f 183 211 200
f 211 210 200
f 210 209 200
f 209 208 200
f 208 207 200
f 207 206 200
f 206 205 200
f 205 204 200
f 204 203 200
f 203 202 200
f 202 201 200
f 182 213 183
f 213 212 183
f 212 211 183
f 182 214 213
f 182 215 214
f 182 216 215
f 181 216 182
f 181 217 216
f 181 218 217
f 180 218 181
f 180 219 218
f 180 220 219
f 179 220 180
f 179 221 220
f 178 221 179
f 178 222 221
f 178 223 222
f 177 223 178
f 177 224 223
f 176 224 177
f 176 225 224
f 176 226 225
f 175 226 176
f 251 253 252
f 251 250 253
f 250 254 253
f 175 227 226
f 174 227 175
f 174 228 227
f 249 254 250
f 173 228 174
f 173 229 228
f 173 230 229
f 172 230 173
f 172 231 230
f 171 231 172
f 171 232 231
f 171 233 232
f 170 233 171
f 170 234 233
f 248 254 249
f 247 254 248
f 246 254 247
f 170 235 234
f 245 254 246
f 244 254 245
f 243 254 244
f 170 236 235
f 169 236 170
f 242 254 243
f 241 254 242
f 240 254 241
f 169 237 236
f 239 254 240
f 238 254 239
f 237 254 238
f 169 254 237
f 168 254 169
f 168 153 254
f 168 154 153
f 167 154 168
f 167 155 154
f 167 156 155
f 166 156 167
f 166 157 156
f 166 158 157
f 166 159 158
f 165 159 166
f 165 160 159
f 165 161 160
f 165 162 161
f 164 162 165
f 164 163 162
f 289 290 291
f 289 291 292
f 289 292 293
f 289 293 294
f 288 289 294
f 288 294 295
f 288 295 296
f 288 296 297
f 287 288 297
f 287 297 298
f 287 298 299
f 286 287 299
f 286 299 300
f 286 300 301
f 285 286 301
f 285 301 302
f 285 302 313
f 313 302 312
f 312 302 311
f 311 302 310
f 310 302 309
f 309 302 308
f 308 302 307
f 307 302 306
f 306 302 305
f 305 302 304
f 304 302 303
f 284 285 315
f 315 285 314
f 314 285 313
f 284 315 316
f 284 316 317
f 284 317 318
f 283 284 318
f 283 318 319
f 283 319 320
f 282 283 320
f 282 320 321
f 282 321 322
f 281 282 322
f 281 322 323
f 280 281 323
f 280 323 324
f 280 324 325
f 279 280 325
f 279 325 326
f 278 279 326
f 278 326 327
f 278 327 328
f 277 278 328
f 353 354 355
f 353 355 352
f 352 355 356
f 277 328 329
f 276 277 329
f 276 329 330
f 351 352 356
f 275 276 330
f 275 330 331
f 275 331 332
f 274 275 332
f 274 332 333
f 273 274 333
f 273 333 334
f 273 334 335
f 272 273 335
f 272 335 336
f 350 351 356
f 349 350 356
f 348 349 356
f 272 336 337
f 347 348 356
f 346 347 356
f 345 346 356
f 272 337 338
f 271 272 338
f 344 345 356
f 343 344 356
f 342 343 356
f 271 338 339
f 341 342 356
f 340 341 356
f 339 340 356
f 271 339 356
f 270 271 356
f 270 356 255
f 270 255 256
f 269 270 256
f 269 256 257
f 269 257 258
f 268 269 258
f 268 258 259
f 268 259 260
f 268 260 261
f 267 268 261
f 267 261 262
f 267 262 263
f 267 263 264
f 266 267 264
f 266 264 265
f 358 360 359 357
f 360 362 361 359
f 362 364 363 361
f 364 366 365 363
f 366 368 367 365
f 368 370 369 367
f 370 372 371 369
f 372 374 373 371
f 374 376 375 373
f 376 378 377 375
f 378 380 379 377
f 380 382 381 379
f 382 384 383 381
f 384 386 385 383
f 386 388 387 385
f 388 390 389 387
f 390 392 391 389
f 392 394 393 391
f 394 396 395 393
f 396 398 397 395
f 398 400 399 397
f 400 402 401 399
f 402 404 403 401
f 404 406 405 403
f 406 408 407 405
f 408 410 409 407
f 410 412 411 409
f 412 414 413 411
f 414 416 415 413
f 416 418 417 415
f 418 420 419 417
f 420 422 421 419
f 422 424 423 421
f 424 426 425 423
f 426 428 427 425
f 428 430 429 427
f 430 432 431 429
f 432 434 433 431
f 434 436 435 433
f 436 438 437 435
f 438 440 439 437
f 440 442 441 439
f 442 444 443 441
f 444 446 445 443
f 446 448 447 445
f 448 450 449 447
f 450 452 451 449
f 452 454 453 451
f 454 456 455 453
f 456 458 457 455
f 458 460 459 457
f 460 462 461 459
f 462 464 463 461
f 464 466 465 463
f 466 468 467 465
f 468 470 469 467
f 470 472 471 469
f 472 474 473 471
f 474 476 475 473
f 476 478 477 475
f 478 480 479 477
f 480 482 481 479
f 482 484 483 481
f 484 486 485 483
f 486 488 487 485
f 488 490 489 487
f 490 492 491 489
f 492 494 493 491
f 494 496 495 493
f 496 498 497 495
f 498 500 499 497
f 500 502 501 499
f 502 504 503 501
f 504 506 505 503
f 506 508 507 505
f 508 510 509 507
f 510 512 511 509
f 512 514 513 511
f 514 516 515 513
f 516 518 517 515
f 518 520 519 517
f 520 522 521 519
f 522 524 523 521
f 524 526 525 523
f 526 528 527 525
f 528 530 529 527
f 530 532 531 529
f 532 534 533 531
f 534 536 535 533
f 536 538 537 535
f 538 540 539 537
f 540 542 541 539
f 542 544 543 541
f 544 546 545 543
f 546 548 547 545
f 548 550 549 547
f 550 552 551 549
f 552 554 553 551
f 554 556 555 553
f 556 558 557 555
f 558 560 559 557
f 560 358 357 559
