mtllib keyboard_key_1_2_2_link.mtl
o keyboard_key_1_2_2_link

g keyboard_key_1_2_2_SOLID
v -0.0180000067 -0.0154999942 0
v -0.0180000067 -0.0119999945 -0.00349999964
v -0.0215000063 -0.0119999945 0
v -0.0180000067 -0.0152335763 -0.0013393946
v -0.0180000067 -0.0144748688 -0.00247487426
v -0.0193393975 -0.0152335763 0
v -0.019372955 -0.014912039 -0.00137295946
v -0.0193033069 -0.0142968893 -0.00229689106
v -0.0200207233 -0.0140207261 -0.00202072784
v -0.0193393975 -0.0119999945 -0.00323357806
v -0.0204748809 -0.0119999945 -0.00247487426
v -0.0180000067 -0.0133393854 -0.00323357806
v -0.019372955 -0.0133729577 -0.0029120408
v -0.0202968866 -0.0133032948 -0.00229689106
v -0.0212335736 -0.0133393854 0
v -0.0204748809 -0.0144748688 0
v -0.0212335736 -0.0119999945 -0.00133939087
v -0.0209120363 -0.0133729577 -0.00137295946
v -0.0202968866 -0.0142968893 -0.00130329654
v 0.0180000067 -0.0154999942 0
v 0.0215000063 -0.0119999945 0
v 0.0180000067 -0.0119999945 -0.00349999964
v 0.0193393975 -0.0152335763 0
v 0.0204748809 -0.0144748688 0
v 0.0180000067 -0.0152335763 -0.00133939087
v 0.019372955 -0.014912039 -0.00137295946
v 0.0202968866 -0.0142968893 -0.00130329654
v 0.0200207233 -0.0140207261 -0.00202072784
v 0.0212335736 -0.0119999945 -0.0013393946
v 0.0204748809 -0.0119999945 -0.00247487426
v 0.0212335736 -0.0133393854 0
v 0.0209120363 -0.0133729577 -0.00137295946
v 0.0202968866 -0.0133032948 -0.00229689106
v 0.0180000067 -0.0133393854 -0.00323357806
v 0.0180000067 -0.0144748688 -0.00247487426
v 0.0193393975 -0.0119999945 -0.00323357806
v 0.019372955 -0.0133729577 -0.0029120408
v 0.0193033069 -0.0142968893 -0.00229689106
v 0.0180000067 0.0154999942 0
v 0.0180000067 0.0119999945 -0.00349999964
v 0.0215000063 0.0119999945 0
v 0.0180000067 0.0152335763 -0.0013393946
v 0.0180000067 0.0144748688 -0.00247487426
v 0.0193393975 0.0152335763 0
v 0.019372955 0.014912039 -0.00137295946
v 0.0193033069 0.0142968893 -0.00229689106
v 0.0200207233 0.0140207261 -0.00202072784
v 0.0193393975 0.0119999945 -0.00323357806
v 0.0204748809 0.0119999945 -0.00247487426
v 0.0180000067 0.0133393854 -0.00323357806
v 0.019372955 0.0133729577 -0.0029120408
v 0.0202968866 0.0133032948 -0.00229689106
v 0.0212335736 0.0133393854 0
v 0.0204748809 0.0144748688 0
v 0.0212335736 0.0119999945 -0.00133939087
v 0.0209120363 0.0133729577 -0.00137295946
v 0.0202968866 0.0142968893 -0.00130329654
v -0.0180000067 0.0154999942 0
v -0.0215000063 0.0119999945 0
v -0.0180000067 0.0119999945 -0.00349999964
v -0.0193393975 0.0152335763 0
v -0.0204748809 0.0144748688 0
v -0.0180000067 0.0152335763 -0.00133939087
v -0.019372955 0.014912039 -0.00137295946
v -0.0202968866 0.0142968893 -0.00130329654
v -0.0200207233 0.0140207261 -0.00202072784
v -0.0212335736 0.0119999945 -0.0013393946
v -0.0204748809 0.0119999945 -0.00247487426
v -0.0212335736 0.0133393854 0
v -0.0209120363 0.0133729577 -0.00137295946
v -0.0202968866 0.0133032948 -0.00229689106
v -0.0180000067 0.0133393854 -0.00323357806
v -0.0180000067 0.0144748688 -0.00247487426
v -0.0193393975 0.0119999945 -0.00323357806
v -0.019372955 0.0133729577 -0.0029120408
v -0.0193033069 0.0142968893 -0.00229689106
v -0.0215000063 -0.0119999945 0
v -0.0180000067 -0.0119999945 0.00350000337
v -0.0180000067 -0.0154999942 0
v -0.0212335736 -0.0119999945 0.0013393946
v -0.0204748809 -0.0119999945 0.00247487426
v -0.0212335736 -0.0133393854 0
v -0.0209120363 -0.0133729577 0.00137295946
v -0.0202968866 -0.0133032948 0.00229689106
v -0.0200207233 -0.0140207261 0.00202072784
v -0.0180000067 -0.0133393854 0.00323357806
v -0.0180000067 -0.0144748688 0.00247487426
v -0.0193393975 -0.0119999945 0.00323357806
v -0.019372955 -0.0133729577 0.0029120408
v -0.0193033069 -0.0142968893 0.00229689106
v -0.0193393975 -0.0152335763 0
v -0.0204748809 -0.0144748688 0
v -0.0180000067 -0.0152335763 0.00133939087
v -0.019372955 -0.014912039 0.00137295946
v -0.0202968866 -0.0142968893 0.00130329654
v 0.0180000067 -0.0154999942 0
v 0.0180000067 -0.0119999945 0.00350000337
v 0.0215000063 -0.0119999945 0
v 0.0180000067 -0.0152335763 0.0013393946
v 0.0180000067 -0.0144748688 0.00247487426
v 0.0193393975 -0.0152335763 0
v 0.019372955 -0.014912039 0.00137295946
v 0.0193033069 -0.0142968893 0.00229689106
v 0.0200207233 -0.0140207261 0.00202072784
v 0.0193393975 -0.0119999945 0.00323357806
v 0.0204748809 -0.0119999945 0.00247487426
v 0.0180000067 -0.0133393854 0.00323357806
v 0.019372955 -0.0133729577 0.0029120408
v 0.0202968866 -0.0133032948 0.00229689106
v 0.0212335736 -0.0133393854 0
v 0.0204748809 -0.0144748688 0
v 0.0212335736 -0.0119999945 0.00133939087
v 0.0209120363 -0.0133729577 0.00137295946
v 0.0202968866 -0.0142968893 0.00130329654
v 0.0180000067 0.0119999945 0.00350000337
v 0.0180000067 0.0154999942 0
v 0.0215000063 0.0119999945 0
v 0.0180000067 0.0133393854 0.00323357806
v 0.0180000067 0.0144748688 0.00247487426
v 0.0193393975 0.0119999945 0.00323357806
v 0.019372955 0.0133729577 0.0029120408
v 0.0193033069 0.0142968893 0.00229689106
v 0.0200207233 0.0140207261 0.00202072784
v 0.0193393975 0.0152335763 0
v 0.0204748809 0.0144748688 0
v 0.0180000067 0.0152335763 0.00133939087
v 0.019372955 0.014912039 0.00137295946
v 0.0202968866 0.0142968893 0.00130329654
v 0.0212335736 0.0119999945 0.0013393946
v 0.0204748809 0.0119999945 0.00247487426
v 0.0212335736 0.0133393854 0
v 0.0209120363 0.0133729577 0.00137295946
v 0.0202968866 0.0133032948 0.00229689106
v -0.0215000063 0.0119999945 0
v -0.0180000067 0.0154999942 0
v -0.0180000067 0.0119999945 0.00350000337
v -0.0212335736 0.0133393854 0
v -0.0204748809 0.0144748688 0
v -0.0212335736 0.0119999945 0.00133939087
v -0.0209120363 0.0133729577 0.00137295946
v -0.0202968866 0.0142968893 0.00130329654
v -0.0200207233 0.0140207261 0.00202072784
v -0.0180000067 0.0152335763 0.0013393946
v -0.0180000067 0.0144748688 0.00247487426
v -0.0193393975 0.0152335763 0
v -0.019372955 0.014912039 0.00137295946
v -0.0193033069 0.0142968893 0.00229689106
v -0.0193393975 0.0119999945 0.00323357806
v -0.0204748809 0.0119999945 0.00247487426
v -0.0180000067 0.0133393854 0.00323357806
v -0.019372955 0.0133729577 0.0029120408
v -0.0202968866 0.0133032948 0.00229689106
usemtl matte_black_keycaps_003
f 59 134 77 3
f 2 22 40 60
f 39 116 135 58
f 78 136 115 97
f 21 98 117 41
f 1 4 7 6
f 4 5 8 7
f 6 7 19 16
f 7 8 9 19
f 2 10 13 12
f 10 11 14 13
f 12 13 8 5
f 13 14 9 8
f 3 15 18 17
f 15 16 19 18
f 17 18 14 11
f 18 19 9 14
f 20 23 26 25
f 23 24 27 26
f 25 26 38 35
f 26 27 28 38
f 21 29 32 31
f 29 30 33 32
f 31 32 27 24
f 32 33 28 27
f 22 34 37 36
f 34 35 38 37
f 36 37 33 30
f 37 38 28 33
f 39 42 45 44
f 42 43 46 45
f 44 45 57 54
f 45 46 47 57
f 40 48 51 50
f 48 49 52 51
f 50 51 46 43
f 51 52 47 46
f 41 53 56 55
f 53 54 57 56
f 55 56 52 49
f 56 57 47 52
f 58 61 64 63
f 61 62 65 64
f 63 64 76 73
f 64 65 66 76
f 59 67 70 69
f 67 68 71 70
f 69 70 65 62
f 70 71 66 65
f 60 72 75 74
f 72 73 76 75
f 74 75 71 68
f 75 76 66 71
f 77 80 83 82
f 80 81 84 83
f 82 83 95 92
f 83 84 85 95
f 78 86 89 88
f 86 87 90 89
f 88 89 84 81
f 89 90 85 84
f 79 91 94 93
f 91 92 95 94
f 93 94 90 87
f 94 95 85 90
f 96 99 102 101
f 99 100 103 102
f 101 102 114 111
f 102 103 104 114
f 97 105 108 107
f 105 106 109 108
f 107 108 103 100
f 108 109 104 103
f 98 110 113 112
f 110 111 114 113
f 112 113 109 106
f 113 114 104 109
f 115 118 121 120
f 118 119 122 121
f 120 121 133 130
f 121 122 123 133
f 116 124 127 126
f 124 125 128 127
f 126 127 122 119
f 127 128 123 122
f 117 129 132 131
f 129 130 133 132
f 131 132 128 125
f 132 133 123 128
f 134 137 140 139
f 137 138 141 140
f 139 140 152 149
f 140 141 142 152
f 135 143 146 145
f 143 144 147 146
f 145 146 141 138
f 146 147 142 141
f 136 148 151 150
f 148 149 152 151
f 150 151 147 144
f 151 152 142 147
f 39 58 63 42
f 42 63 73 43
f 43 73 72 50
f 50 72 60 40
f 1 20 25 4
f 4 25 35 5
f 5 35 34 12
f 12 34 22 2
f 21 41 55 29
f 29 55 49 30
f 30 49 48 36
f 36 48 40 22
f 2 60 74 10
f 10 74 68 11
f 11 68 67 17
f 17 67 59 3
f 3 77 82 15
f 15 82 92 16
f 16 92 91 6
f 6 91 79 1
f 78 97 107 86
f 86 107 100 87
f 87 100 99 93
f 93 99 96 79
f 97 115 120 105
f 105 120 130 106
f 106 130 129 112
f 112 129 117 98
f 77 134 139 80
f 80 139 149 81
f 81 149 148 88
f 88 148 136 78
f 20 96 101 23
f 23 101 111 24
f 24 111 110 31
f 31 110 98 21
f 41 117 131 53
f 53 131 125 54
f 54 125 124 44
f 44 124 116 39
f 115 136 150 118
f 118 150 144 119
f 119 144 143 126
f 126 143 135 116
f 58 135 145 61
f 61 145 138 62
f 62 138 137 69
f 69 137 134 59
f 1 79 96 20

g key_legend_1_2_2
v -0.00315998495 -0.00400000811 0.00450000539
v -0.00315998495 -0.00393000245 0.00450000539
v -0.0029668808 -0.00369596481 0.00450000539
v -0.00276429951 -0.00345018506 0.00450000539
v -0.00255483389 -0.00319468975 0.00450000539
v -0.00234109163 -0.00293149054 0.00450000539
v -0.00212569535 -0.00266258419 0.00450000539
v -0.00191123784 -0.00238999724 0.00450000539
v -0.0017003119 -0.00211575627 0.00450000539
v -0.00149554014 -0.00184185803 0.00450000539
v -0.00129951537 -0.00157031417 0.00450000539
v -0.00111484528 -0.00130315125 0.00450000539
v -0.000944137573 -0.00104238093 0.00450000539
v -0.000789985061 -0.000789999962 0.00450000539
v -0.000713318586 -0.000656619668 0.00450000539
v -0.000643312931 -0.000530466437 0.00450000539
v -0.000579982996 -0.00041000545 0.00450000539
v -0.00052331388 -0.000293701887 0.00450000539
v -0.000473320484 -0.000180050731 0.00450000539
v -0.000429987907 -6.75022602e-05 0.00450000539
v -0.00039331615 4.54634428e-05 0.00450000539
v -0.000363320112 0.000160366297 0.00450000539
v -0.000339984894 0.000278741121 0.00450000539
v -0.000323325396 0.000402122736 0.00450000539
v -0.000313326716 0.000532031059 0.00450000539
v -0.000309988856 0.000670000911 0.00450000539
v -0.000320211053 0.00085273385 0.00450000539
v -0.000350132585 0.00102522969 0.00450000539
v -0.00039857626 0.00118640065 0.00450000539
v -0.000464424491 0.00133518875 0.00450000539
v -0.000546529889 0.00147049129 0.00450000539
v -0.000643730164 0.0015912503 0.00450000539
v -0.000754892826 0.00169637799 0.00450000539
v -0.000878870487 0.00178481638 0.00450000539
v -0.00101451576 0.00185546279 0.00450000539
v -0.00116068125 0.00190725923 0.00450000539
v -0.00131621957 0.00193913281 0.00450000539
v -0.00147998333 0.00194999576 0.00450000539
v -0.00160272419 0.00194525719 0.00450000539
v -0.0017260015 0.00193046033 0.00450000539
v -0.00184999406 0.00190468132 0.00450000539
v -0.00197480619 0.00186704099 0.00450000539
v -0.00210058689 0.00181660056 0.00450000539
v -0.00222748518 0.00175249577 0.00450000539
v -0.00235563517 0.00167380273 0.00450000539
v -0.00248517096 0.00157962739 0.00450000539
v -0.00261624157 0.00146906078 0.00450000539
v -0.00274896622 0.00134120882 0.00450000539
v -0.0028835088 0.00119514763 0.00450000539
v -0.00301998854 0.00102999806 0.00450000539
v -0.00301998854 0.00225999951 0.00450000539
v -0.00288327038 0.00236521661 0.00450000539
v -0.00274795294 0.00246092677 0.00450000539
v -0.00261373818 0.00254718959 0.00450000539
v -0.00248035789 0.00262406468 0.00450000539
v -0.00234752893 0.00269165635 0.00450000539
v -0.00221498311 0.0027499944 0.00450000539
v -0.00208243728 0.00279918313 0.00450000539
v -0.00194962323 0.00283925235 0.00450000539
v -0.00181624293 0.00287030637 0.00450000539
v -0.00168202817 0.00289240479 0.00450000539
v -0.00154669583 0.00290560722 0.00450000539
v -0.00140999258 0.00291000307 0.00450000539
v -0.00111067295 0.00289215147 0.00450000539
v -0.000828832388 0.00283971429 0.00450000539
v -0.000566080213 0.00275437534 0.00450000539
v -0.000324055552 0.00263777375 0.00450000539
v -0.000104397535 0.00249159336 0.00450000539
v 9.12696123e-05 0.00231750309 0.00450000539
v 0.000261306763 0.00211715698 0.00450000539
v 0.000404089689 0.00189222395 0.00450000539
v 0.000517979264 0.00164437294 0.00450000539
v 0.000601351261 0.00137527287 0.00450000539
v 0.000652581453 0.00108659267 0.00450000539
v 0.000670015812 0.000780001283 0.00450000539
v 0.000657334924 0.000505641103 0.00450000539
v 0.0006185323 0.00023509562 0.00450000539
v 0.000552520156 -3.5315752e-05 0.00450000539
v 0.000458166003 -0.000309258699 0.00450000539
v 0.000334367156 -0.00059042871 0.00450000539
v 0.000180006027 -0.000882506371 0.00450000539
v -6.00516796e-06 -0.00118915737 0.00450000539
v -0.000224798918 -0.00151407719 0.00450000539
v -0.000477492809 -0.00186094642 0.00450000539
v -0.000765174627 -0.00223343074 0.00450000539
v -0.00108896196 -0.00263522565 0.00450000539
v -0.00144998729 -0.00306999683 0.00450000539
v 0.0011600107 -0.00306999683 0.00450000539
v 0.0011600107 -0.00400000811 0.00450000539
v -0.00315998495 -0.00400000811 0.00409999862
v -0.00315998495 -0.00393000245 0.00409999862
v -0.0029668808 -0.00369596481 0.00409999862
v -0.00276429951 -0.00345018506 0.00409999862
v -0.00255483389 -0.00319468975 0.00409999862
v -0.00234109163 -0.00293149054 0.00409999862
v -0.00212569535 -0.00266258419 0.00409999862
v -0.00191123784 -0.00238999724 0.00409999862
v -0.0017003119 -0.00211575627 0.00409999862
v -0.00149554014 -0.00184185803 0.00409999862
v -0.00129951537 -0.00157031417 0.00409999862
v -0.00111484528 -0.00130315125 0.00409999862
v -0.000944137573 -0.00104238093 0.00409999862
v -0.000789985061 -0.000789999962 0.00409999862
v -0.000713318586 -0.000656619668 0.00409999862
v -0.000643312931 -0.000530466437 0.00409999862
v -0.000579982996 -0.00041000545 0.00409999862
v -0.00052331388 -0.000293701887 0.00409999862
v -0.000473320484 -0.000180050731 0.00409999862
v -0.000429987907 -6.75022602e-05 0.00409999862
v -0.00039331615 4.54634428e-05 0.00409999862
v -0.000363320112 0.000160366297 0.00409999862
v -0.000339984894 0.000278741121 0.00409999862
v -0.000323325396 0.000402122736 0.00409999862
v -0.000313326716 0.000532031059 0.00409999862
v -0.000309988856 0.000670000911 0.00409999862
v -0.000320211053 0.00085273385 0.00409999862
v -0.000350132585 0.00102522969 0.00409999862
v -0.00039857626 0.00118640065 0.00409999862
v -0.000464424491 0.00133518875 0.00409999862
v -0.000546529889 0.00147049129 0.00409999862
v -0.000643730164 0.0015912503 0.00409999862
v -0.000754892826 0.00169637799 0.00409999862
v -0.000878870487 0.00178481638 0.00409999862
v -0.00101451576 0.00185546279 0.00409999862
v -0.00116068125 0.00190725923 0.00409999862
v -0.00131621957 0.00193913281 0.00409999862
v -0.00147998333 0.00194999576 0.00409999862
v -0.00160272419 0.00194525719 0.00409999862
v -0.0017260015 0.00193046033 0.00409999862
v -0.00184999406 0.00190468132 0.00409999862
v -0.00197480619 0.00186704099 0.00409999862
v -0.00210058689 0.00181660056 0.00409999862
v -0.00222748518 0.00175249577 0.00409999862
v -0.00235563517 0.00167380273 0.00409999862
v -0.00248517096 0.00157962739 0.00409999862
v -0.00261624157 0.00146906078 0.00409999862
v -0.00274896622 0.00134120882 0.00409999862
v -0.0028835088 0.00119514763 0.00409999862
v -0.00301998854 0.00102999806 0.00409999862
v -0.00301998854 0.00225999951 0.00409999862
v -0.00288327038 0.00236521661 0.00409999862
v -0.00274795294 0.00246092677 0.00409999862
v -0.00261373818 0.00254718959 0.00409999862
v -0.00248035789 0.00262406468 0.00409999862
v -0.00234752893 0.00269165635 0.00409999862
v -0.00221498311 0.0027499944 0.00409999862
v -0.00208243728 0.00279918313 0.00409999862
v -0.00194962323 0.00283925235 0.00409999862
v -0.00181624293 0.00287030637 0.00409999862
v -0.00168202817 0.00289240479 0.00409999862
v -0.00154669583 0.00290560722 0.00409999862
v -0.00140999258 0.00291000307 0.00409999862
v -0.00111067295 0.00289215147 0.00409999862
v -0.000828832388 0.00283971429 0.00409999862
v -0.000566080213 0.00275437534 0.00409999862
v -0.000324055552 0.00263777375 0.00409999862
v -0.000104397535 0.00249159336 0.00409999862
v 9.12696123e-05 0.00231750309 0.00409999862
v 0.000261306763 0.00211715698 0.00409999862
v 0.000404089689 0.00189222395 0.00409999862
v 0.000517979264 0.00164437294 0.00409999862
v 0.000601351261 0.00137527287 0.00409999862
v 0.000652581453 0.00108659267 0.00409999862
v 0.000670015812 0.000780001283 0.00409999862
v 0.000657334924 0.000505641103 0.00409999862
v 0.0006185323 0.00023509562 0.00409999862
v 0.000552520156 -3.5315752e-05 0.00409999862
v 0.000458166003 -0.000309258699 0.00409999862
v 0.000334367156 -0.00059042871 0.00409999862
v 0.000180006027 -0.000882506371 0.00409999862
v -6.00516796e-06 -0.00118915737 0.00409999862
v -0.000224798918 -0.00151407719 0.00409999862
v -0.000477492809 -0.00186094642 0.00409999862
v -0.000765174627 -0.00223343074 0.00409999862
v -0.00108896196 -0.00263522565 0.00409999862
v -0.00144998729 -0.00306999683 0.00409999862
v 0.0011600107 -0.00306999683 0.00409999862
v 0.0011600107 -0.00400000811 0.00409999862
v -0.00315998495 -0.00400000811 0.00409999862
v -0.00315998495 -0.00400000811 0.00450000539
v -0.00315998495 -0.00393000245 0.00409999862
v -0.00315998495 -0.00393000245 0.00450000539
v -0.0029668808 -0.00369596481 0.00409999862
v -0.0029668808 -0.00369596481 0.00450000539
v -0.00276429951 -0.00345018506 0.00409999862
v -0.00276429951 -0.00345018506 0.00450000539
v -0.00255483389 -0.00319468975 0.00409999862
v -0.00255483389 -0.00319468975 0.00450000539
v -0.00234109163 -0.00293149054 0.00409999862
v -0.00234109163 -0.00293149054 0.00450000539
v -0.00212569535 -0.00266258419 0.00409999862
v -0.00212569535 -0.00266258419 0.00450000539
v -0.00191123784 -0.00238999724 0.00409999862
v -0.00191123784 -0.00238999724 0.00450000539
v -0.0017003119 -0.00211575627 0.00409999862
v -0.0017003119 -0.00211575627 0.00450000539
v -0.00149554014 -0.00184185803 0.00409999862
v -0.00149554014 -0.00184185803 0.00450000539
v -0.00129951537 -0.00157031417 0.00409999862
v -0.00129951537 -0.00157031417 0.00450000539
v -0.00111484528 -0.00130315125 0.00409999862
v -0.00111484528 -0.00130315125 0.00450000539
v -0.000944137573 -0.00104238093 0.00409999862
v -0.000944137573 -0.00104238093 0.00450000539
v -0.000789985061 -0.000789999962 0.00409999862
v -0.000789985061 -0.000789999962 0.00450000539
v -0.000713318586 -0.000656619668 0.00409999862
v -0.000713318586 -0.000656619668 0.00450000539
v -0.000643312931 -0.000530466437 0.00409999862
v -0.000643312931 -0.000530466437 0.00450000539
v -0.000579982996 -0.00041000545 0.00409999862
v -0.000579982996 -0.00041000545 0.00450000539
v -0.00052331388 -0.000293701887 0.00409999862
v -0.00052331388 -0.000293701887 0.00450000539
v -0.000473320484 -0.000180050731 0.00409999862
v -0.000473320484 -0.000180050731 0.00450000539
v -0.000429987907 -6.75022602e-05 0.00409999862
v -0.000429987907 -6.75022602e-05 0.00450000539
v -0.00039331615 4.54634428e-05 0.00409999862
v -0.00039331615 4.54634428e-05 0.00450000539
v -0.000363320112 0.000160366297 0.00409999862
v -0.000363320112 0.000160366297 0.00450000539
v -0.000339984894 0.000278741121 0.00409999862
v -0.000339984894 0.000278741121 0.00450000539
v -0.000323325396 0.000402122736 0.00409999862
v -0.000323325396 0.000402122736 0.00450000539
v -0.000313326716 0.000532031059 0.00409999862
v -0.000313326716 0.000532031059 0.00450000539
v -0.000309988856 0.000670000911 0.00409999862
v -0.000309988856 0.000670000911 0.00450000539
v -0.000320211053 0.00085273385 0.00409999862
v -0.000320211053 0.00085273385 0.00450000539
v -0.000350132585 0.00102522969 0.00409999862
v -0.000350132585 0.00102522969 0.00450000539
v -0.00039857626 0.00118640065 0.00409999862
v -0.00039857626 0.00118640065 0.00450000539
v -0.000464424491 0.00133518875 0.00409999862
v -0.000464424491 0.00133518875 0.00450000539
v -0.000546529889 0.00147049129 0.00409999862
v -0.000546529889 0.00147049129 0.00450000539
v -0.000643730164 0.0015912503 0.00409999862
v -0.000643730164 0.0015912503 0.00450000539
v -0.000754892826 0.00169637799 0.00409999862
v -0.000754892826 0.00169637799 0.00450000539
v -0.000878870487 0.00178481638 0.00409999862
v -0.000878870487 0.00178481638 0.00450000539
v -0.00101451576 0.00185546279 0.00409999862
v -0.00101451576 0.00185546279 0.00450000539
v -0.00116068125 0.00190725923 0.00409999862
v -0.00116068125 0.00190725923 0.00450000539
v -0.00131621957 0.00193913281 0.00409999862
v -0.00131621957 0.00193913281 0.00450000539
v -0.00147998333 0.00194999576 0.00409999862
v -0.00147998333 0.00194999576 0.00450000539
v -0.00160272419 0.00194525719 0.00409999862
v -0.00160272419 0.00194525719 0.00450000539
v -0.0017260015 0.00193046033 0.00409999862
v -0.0017260015 0.00193046033 0.00450000539
v -0.00184999406 0.00190468132 0.00409999862
v -0.00184999406 0.00190468132 0.00450000539
v -0.00197480619 0.00186704099 0.00409999862
v -0.00197480619 0.00186704099 0.00450000539
v -0.00210058689 0.00181660056 0.00409999862
v -0.00210058689 0.00181660056 0.00450000539
v -0.00222748518 0.00175249577 0.00409999862
v -0.00222748518 0.00175249577 0.00450000539
v -0.00235563517 0.00167380273 0.00409999862
v -0.00235563517 0.00167380273 0.00450000539
v -0.00248517096 0.00157962739 0.00409999862
v -0.00248517096 0.00157962739 0.00450000539
v -0.00261624157 0.00146906078 0.00409999862
v -0.00261624157 0.00146906078 0.00450000539
v -0.00274896622 0.00134120882 0.00409999862
v -0.00274896622 0.00134120882 0.00450000539
v -0.0028835088 0.00119514763 0.00409999862
v -0.0028835088 0.00119514763 0.00450000539
v -0.00301998854 0.00102999806 0.00409999862
v -0.00301998854 0.00102999806 0.00450000539
v -0.00301998854 0.00225999951 0.00409999862
v -0.00301998854 0.00225999951 0.00450000539
v -0.00288327038 0.00236521661 0.00409999862
v -0.00288327038 0.00236521661 0.00450000539
v -0.00274795294 0.00246092677 0.00409999862
v -0.00274795294 0.00246092677 0.00450000539
v -0.00261373818 0.00254718959 0.00409999862
v -0.00261373818 0.00254718959 0.00450000539
v -0.00248035789 0.00262406468 0.00409999862
v -0.00248035789 0.00262406468 0.00450000539
v -0.00234752893 0.00269165635 0.00409999862
v -0.00234752893 0.00269165635 0.00450000539
v -0.00221498311 0.0027499944 0.00409999862
v -0.00221498311 0.0027499944 0.00450000539
v -0.00208243728 0.00279918313 0.00409999862
v -0.00208243728 0.00279918313 0.00450000539
v -0.00194962323 0.00283925235 0.00409999862
v -0.00194962323 0.00283925235 0.00450000539
v -0.00181624293 0.00287030637 0.00409999862
v -0.00181624293 0.00287030637 0.00450000539
v -0.00168202817 0.00289240479 0.00409999862
v -0.00168202817 0.00289240479 0.00450000539
v -0.00154669583 0.00290560722 0.00409999862
v -0.00154669583 0.00290560722 0.00450000539
v -0.00140999258 0.00291000307 0.00409999862
v -0.00140999258 0.00291000307 0.00450000539
v -0.00111067295 0.00289215147 0.00409999862
v -0.00111067295 0.00289215147 0.00450000539
v -0.000828832388 0.00283971429 0.00409999862
v -0.000828832388 0.00283971429 0.00450000539
v -0.000566080213 0.00275437534 0.00409999862
v -0.000566080213 0.00275437534 0.00450000539
v -0.000324055552 0.00263777375 0.00409999862
v -0.000324055552 0.00263777375 0.00450000539
v -0.000104397535 0.00249159336 0.00409999862
v -0.000104397535 0.00249159336 0.00450000539
v 9.12696123e-05 0.00231750309 0.00409999862
v 9.12696123e-05 0.00231750309 0.00450000539
v 0.000261306763 0.00211715698 0.00409999862
v 0.000261306763 0.00211715698 0.00450000539
v 0.000404089689 0.00189222395 0.00409999862
v 0.000404089689 0.00189222395 0.00450000539
v 0.000517979264 0.00164437294 0.00409999862
v 0.000517979264 0.00164437294 0.00450000539
v 0.000601351261 0.00137527287 0.00409999862
v 0.000601351261 0.00137527287 0.00450000539
v 0.000652581453 0.00108659267 0.00409999862
v 0.000652581453 0.00108659267 0.00450000539
v 0.000670015812 0.000780001283 0.00409999862
v 0.000670015812 0.000780001283 0.00450000539
v 0.000657334924 0.000505641103 0.00409999862
v 0.000657334924 0.000505641103 0.00450000539
v 0.0006185323 0.00023509562 0.00409999862
v 0.0006185323 0.00023509562 0.00450000539
v 0.000552520156 -3.5315752e-05 0.00409999862
v 0.000552520156 -3.5315752e-05 0.00450000539
v 0.000458166003 -0.000309258699 0.00409999862
v 0.000458166003 -0.000309258699 0.00450000539
v 0.000334367156 -0.00059042871 0.00409999862
v 0.000334367156 -0.00059042871 0.00450000539
v 0.000180006027 -0.000882506371 0.00409999862
v 0.000180006027 -0.000882506371 0.00450000539
v -6.00516796e-06 -0.00118915737 0.00409999862
v -6.00516796e-06 -0.00118915737 0.00450000539
v -0.000224798918 -0.00151407719 0.00409999862
v -0.000224798918 -0.00151407719 0.00450000539
v -0.000477492809 -0.00186094642 0.00409999862
v -0.000477492809 -0.00186094642 0.00450000539
v -0.000765174627 -0.00223343074 0.00409999862
v -0.000765174627 -0.00223343074 0.00450000539
v -0.00108896196 -0.00263522565 0.00409999862
v -0.00108896196 -0.00263522565 0.00450000539
v -0.00144998729 -0.00306999683 0.00409999862
v -0.00144998729 -0.00306999683 0.00450000539
v 0.0011600107 -0.00306999683 0.00409999862
v 0.0011600107 -0.00306999683 0.00450000539
v 0.0011600107 -0.00400000811 0.00409999862
v 0.0011600107 -0.00400000811 0.00450000539
usemtl screen_white_text_003
f 214 216 215
f 213 216 214
f 212 216 213
f 212 217 216
f 211 217 212
f 211 218 217
f 210 218 211
f 209 218 210
f 209 219 218
f 208 219 209
f 207 219 208
f 207 220 219
f 206 220 207
f 205 220 206
f 205 221 220
f 204 221 205
f 203 221 204
f 203 222 221
f 202 201 203
f 201 200 203
f 200 199 203
f 199 198 203
f 198 197 203
f 197 196 203
f 196 195 203
f 195 194 203
f 194 193 203
f 193 192 203
f 192 191 203
f 191 222 203
f 191 190 222
f 190 223 222
f 189 223 190
f 188 223 189
f 187 223 188
f 187 224 223
f 186 224 187
f 185 224 186
f 184 224 185
f 184 225 224
f 183 225 184
f 182 225 183
f 182 226 225
f 181 226 182
f 180 226 181
f 180 227 226
f 179 227 180
f 178 227 179
f 178 228 227
f 177 228 178
f 176 228 177
f 176 229 228
f 175 229 176
f 174 229 175
f 174 230 229
f 173 230 174
f 172 230 173
f 172 231 230
f 171 231 172
f 170 231 171
f 169 231 170
f 169 232 231
f 168 232 169
f 167 232 168
f 167 233 232
f 166 233 167
f 165 233 166
f 165 234 233
f 164 234 165
f 164 235 234
f 163 235 164
f 163 236 235
f 162 236 163
f 161 236 162
f 161 237 236
f 160 237 161
f 160 238 237
f 159 238 160
f 159 239 238
f 158 239 159
f 157 239 158
f 157 240 239
f 157 241 240
f 156 241 157
f 155 241 156
f 154 241 155
f 153 241 154
f 303 304 305
f 302 303 305
f 301 302 305
f 301 305 306
f 300 301 306
f 300 306 307
f 299 300 307
f 298 299 307
f 298 307 308
f 297 298 308
f 296 297 308
f 296 308 309
f 295 296 309
f 294 295 309
f 294 309 310
f 293 294 310
f 292 293 310
f 292 310 311
f 291 292 290
f 290 292 289
f 289 292 288
f 288 292 287
f 287 292 286
f 286 292 285
f 285 292 284
f 284 292 283
f 283 292 282
f 282 292 281
f 281 292 280
f 280 292 311
f 280 311 279
f 279 311 312
f 278 279 312
f 277 278 312
f 276 277 312
f 276 312 313
f 275 276 313
f 274 275 313
f 273 274 313
f 273 313 314
f 272 273 314
f 271 272 314
f 271 314 315
f 270 271 315
f 269 270 315
f 269 315 316
f 268 269 316
f 267 268 316
f 267 316 317
f 266 267 317
f 265 266 317
f 265 317 318
f 264 265 318
f 263 264 318
f 263 318 319
f 262 263 319
f 261 262 319
f 261 319 320
f 260 261 320
f 259 260 320
f 258 259 320
f 258 320 321
f 257 258 321
f 256 257 321
f 256 321 322
f 255 256 322
f 254 255 322
f 254 322 323
f 253 254 323
f 253 323 324
f 252 253 324
f 252 324 325
f 251 252 325
f 250 251 325
f 250 325 326
f 249 250 326
f 249 326 327
f 248 249 327
f 248 327 328
f 247 248 328
f 246 247 328
f 246 328 329
f 246 329 330
f 245 246 330
f 244 245 330
f 243 244 330
f 242 243 330
f 332 334 333 331
f 334 336 335 333
f 336 338 337 335
f 338 340 339 337
f 340 342 341 339
f 342 344 343 341
f 344 346 345 343
f 346 348 347 345
f 348 350 349 347
f 350 352 351 349
f 352 354 353 351
f 354 356 355 353
f 356 358 357 355
f 358 360 359 357
f 360 362 361 359
f 362 364 363 361
f 364 366 365 363
f 366 368 367 365
f 368 370 369 367
f 370 372 371 369
f 372 374 373 371
f 374 376 375 373
f 376 378 377 375
f 378 380 379 377
f 380 382 381 379
f 382 384 383 381
f 384 386 385 383
f 386 388 387 385
f 388 390 389 387
f 390 392 391 389
f 392 394 393 391
f 394 396 395 393
f 396 398 397 395
f 398 400 399 397
f 400 402 401 399
f 402 404 403 401
f 404 406 405 403
f 406 408 407 405
f 408 410 409 407
f 410 412 411 409
f 412 414 413 411
f 414 416 415 413
f 416 418 417 415
f 418 420 419 417
f 420 422 421 419
f 422 424 423 421
f 424 426 425 423
f 426 428 427 425
f 428 430 429 427
f 430 432 431 429
f 432 434 433 431
f 434 436 435 433
f 436 438 437 435
f 438 440 439 437
f 440 442 441 439
f 442 444 443 441
f 444 446 445 443
f 446 448 447 445
f 448 450 449 447
f 450 452 451 449
f 452 454 453 451
f 454 456 455 453
f 456 458 457 455
f 458 460 459 457
f 460 462 461 459
f 462 464 463 461
f 464 466 465 463
f 466 468 467 465
f 468 470 469 467
f 470 472 471 469
f 472 474 473 471
f 474 476 475 473
f 476 478 477 475
f 478 480 479 477
f 480 482 481 479
f 482 484 483 481
f 484 486 485 483
f 486 488 487 485
f 488 490 489 487
f 490 492 491 489
f 492 494 493 491
f 494 496 495 493
f 496 498 497 495
f 498 500 499 497
f 500 502 501 499
f 502 504 503 501
f 504 506 505 503
f 506 508 507 505
f 508 332 331 507
