mtllib keyboard_key_bottom_3_cmd_link.mtl
o keyboard_key_bottom_3_cmd_link

g keyboard_key_bottom_3_cmd_SOLID
v -0.0240000039 -0.0164999999 0
v -0.0240000039 -0.0130000003 -0.00349999964
v -0.0275000036 -0.0130000003 0
v -0.0240000039 -0.0162335783 -0.00133939087
v -0.0240000039 -0.0154748745 -0.00247487426
v -0.0253393948 -0.0162335783 0
v -0.0253729522 -0.0159120411 -0.00137295946
v -0.0253032893 -0.0152968913 -0.00229689106
v -0.0260207206 -0.0150207281 -0.00202072784
v -0.0253393948 -0.0130000003 -0.00323357806
v -0.0264748782 -0.0130000003 -0.00247487426
v -0.0240000039 -0.0143393911 -0.00323357806
v -0.0253729522 -0.0143729597 -0.0029120408
v -0.0262968838 -0.0143032968 -0.00229689106
v -0.0272335708 -0.0143393911 0
v -0.0264748782 -0.0154748745 0
v -0.0272335708 -0.0130000003 -0.00133939087
v -0.0269120336 -0.0143729597 -0.00137295946
v -0.0262968838 -0.0152968913 -0.00130329654
v 0.0240000039 -0.0164999999 0
v 0.0275000036 -0.0130000003 0
v 0.0240000039 -0.0130000003 -0.00349999964
v 0.0253393948 -0.0162335783 0
v 0.0264748782 -0.0154748745 0
v 0.0240000039 -0.0162335783 -0.00133939087
v 0.0253729522 -0.0159120411 -0.00137295946
v 0.0262968838 -0.0152968913 -0.00130329654
v 0.0260207206 -0.0150207281 -0.00202072784
v 0.0272335708 -0.0130000003 -0.0013393946
v 0.0264748782 -0.0130000003 -0.00247487426
v 0.0272335708 -0.0143393911 0
v 0.0269120336 -0.0143729597 -0.00137295946
v 0.0262968838 -0.0143032968 -0.00229689106
v 0.0240000039 -0.0143393911 -0.00323357806
v 0.0240000039 -0.0154748745 -0.00247487426
v 0.0253393948 -0.0130000003 -0.00323357806
v 0.0253729522 -0.0143729597 -0.0029120408
v 0.0253032893 -0.0152968913 -0.00229689106
v 0.0240000039 0.0164999999 0
v 0.0240000039 0.0130000003 -0.00349999964
v 0.0275000036 0.0130000003 0
v 0.0240000039 0.0162335783 -0.00133939087
v 0.0240000039 0.0154748736 -0.00247487426
v 0.0253393948 0.0162335783 0
v 0.0253729522 0.0159120392 -0.00137295946
v 0.0253032893 0.0152968913 -0.00229689106
v 0.0260207206 0.0150207262 -0.00202072784
v 0.0253393948 0.0130000003 -0.00323357806
v 0.0264748782 0.0130000003 -0.00247487426
v 0.0240000039 0.0143393921 -0.00323357806
v 0.0253729522 0.0143729588 -0.0029120408
v 0.0262968838 0.0143032968 -0.00229689106
v 0.0272335708 0.0143393921 0
v 0.0264748782 0.0154748736 0
v 0.0272335708 0.0130000003 -0.00133939087
v 0.0269120336 0.0143729588 -0.00137295946
v 0.0262968838 0.0152968913 -0.00130329654
v -0.0240000039 0.0164999999 0
v -0.0275000036 0.0130000003 0
v -0.0240000039 0.0130000003 -0.00349999964
v -0.0253393948 0.0162335783 0
v -0.0264748782 0.0154748736 0
v -0.0240000039 0.0162335783 -0.00133939087
v -0.0253729522 0.0159120392 -0.00137295946
v -0.0262968838 0.0152968913 -0.00130329654
v -0.0260207206 0.0150207262 -0.00202072784
v -0.0272335708 0.0130000003 -0.0013393946
v -0.0264748782 0.0130000003 -0.00247487426
v -0.0272335708 0.0143393921 0
v -0.0269120336 0.0143729588 -0.00137295946
v -0.0262968838 0.0143032968 -0.00229689106
v -0.0240000039 0.0143393921 -0.00323357806
v -0.0240000039 0.0154748736 -0.00247487426
v -0.0253393948 0.0130000003 -0.00323357806
v -0.0253729522 0.0143729588 -0.0029120408
v -0.0253032893 0.0152968913 -0.00229689106
v -0.0275000036 -0.0130000003 0
v -0.0240000039 -0.0130000003 0.00350000337
v -0.0240000039 -0.0164999999 0
v -0.0272335708 -0.0130000003 0.0013393946
v -0.0264748782 -0.0130000003 0.00247487426
v -0.0272335708 -0.0143393911 0
v -0.0269120336 -0.0143729597 0.00137295946
v -0.0262968838 -0.0143032968 0.00229689106
v -0.0260207206 -0.0150207281 0.00202072784
v -0.0240000039 -0.0143393911 0.00323357806
v -0.0240000039 -0.0154748745 0.00247487426
v -0.0253393948 -0.0130000003 0.00323357806
v -0.0253729522 -0.0143729597 0.0029120408
v -0.0253032893 -0.0152968913 0.00229689106
v -0.0253393948 -0.0162335783 0
v -0.0264748782 -0.0154748745 0
v -0.0240000039 -0.0162335783 0.00133939087
v -0.0253729522 -0.0159120411 0.00137295946
v -0.0262968838 -0.0152968913 0.00130329654
v 0.0240000039 -0.0164999999 0
v 0.0240000039 -0.0130000003 0.00350000337
v 0.0275000036 -0.0130000003 0
v 0.0240000039 -0.0162335783 0.00133939087
v 0.0240000039 -0.0154748745 0.00247487426
v 0.0253393948 -0.0162335783 0
v 0.0253729522 -0.0159120411 0.00137295946
v 0.0253032893 -0.0152968913 0.00229689106
v 0.0260207206 -0.0150207281 0.00202072784
v 0.0253393948 -0.0130000003 0.00323357806
v 0.0264748782 -0.0130000003 0.00247487426
v 0.0240000039 -0.0143393911 0.00323357806
v 0.0253729522 -0.0143729597 0.0029120408
v 0.0262968838 -0.0143032968 0.00229689106
v 0.0272335708 -0.0143393911 0
v 0.0264748782 -0.0154748745 0
v 0.0272335708 -0.0130000003 0.00133939087
v 0.0269120336 -0.0143729597 0.00137295946
v 0.0262968838 -0.0152968913 0.00130329654
v 0.0240000039 0.0130000003 0.00350000337
v 0.0240000039 0.0164999999 0
v 0.0275000036 0.0130000003 0
v 0.0240000039 0.0143393921 0.00323357806
v 0.0240000039 0.0154748736 0.00247487426
v 0.0253393948 0.0130000003 0.00323357806
v 0.0253729522 0.0143729588 0.0029120408
v 0.0253032893 0.0152968913 0.00229689106
v 0.0260207206 0.0150207262 0.00202072784
v 0.0253393948 0.0162335783 0
v 0.0264748782 0.0154748736 0
v 0.0240000039 0.0162335783 0.00133939087
v 0.0253729522 0.0159120392 0.00137295946
v 0.0262968838 0.0152968913 0.00130329654
v 0.0272335708 0.0130000003 0.0013393946
v 0.0264748782 0.0130000003 0.00247487426
v 0.0272335708 0.0143393921 0
v 0.0269120336 0.0143729588 0.00137295946
v 0.0262968838 0.0143032968 0.00229689106
v -0.0275000036 0.0130000003 0
v -0.0240000039 0.0164999999 0
v -0.0240000039 0.0130000003 0.00350000337
v -0.0272335708 0.0143393921 0
v -0.0264748782 0.0154748736 0
v -0.0272335708 0.0130000003 0.00133939087
v -0.0269120336 0.0143729588 0.00137295946
v -0.0262968838 0.0152968913 0.00130329654
v -0.0260207206 0.0150207262 0.00202072784
v -0.0240000039 0.0162335783 0.00133939087
v -0.0240000039 0.0154748736 0.00247487426
v -0.0253393948 0.0162335783 0
v -0.0253729522 0.0159120392 0.00137295946
v -0.0253032893 0.0152968913 0.00229689106
v -0.0253393948 0.0130000003 0.00323357806
v -0.0264748782 0.0130000003 0.00247487426
v -0.0240000039 0.0143393921 0.00323357806
v -0.0253729522 0.0143729588 0.0029120408
v -0.0262968838 0.0143032968 0.00229689106
usemtl matte_black_keycaps_003
f 59 134 77 3
f 2 22 40 60
f 39 116 135 58
f 78 136 115 97
f 21 98 117 41
f 1 4 7 6
f 4 5 8 7
f 6 7 19 16
f 7 8 9 19
f 2 10 13 12
f 10 11 14 13
f 12 13 8 5
f 13 14 9 8
f 3 15 18 17
f 15 16 19 18
f 17 18 14 11
f 18 19 9 14
f 20 23 26 25
f 23 24 27 26
f 25 26 38 35
f 26 27 28 38
f 21 29 32 31
f 29 30 33 32
f 31 32 27 24
f 32 33 28 27
f 22 34 37 36
f 34 35 38 37
f 36 37 33 30
f 37 38 28 33
f 39 42 45 44
f 42 43 46 45
f 44 45 57 54
f 45 46 47 57
f 40 48 51 50
f 48 49 52 51
f 50 51 46 43
f 51 52 47 46
f 41 53 56 55
f 53 54 57 56
f 55 56 52 49
f 56 57 47 52
f 58 61 64 63
f 61 62 65 64
f 63 64 76 73
f 64 65 66 76
f 59 67 70 69
f 67 68 71 70
f 69 70 65 62
f 70 71 66 65
f 60 72 75 74
f 72 73 76 75
f 74 75 71 68
f 75 76 66 71
f 77 80 83 82
f 80 81 84 83
f 82 83 95 92
f 83 84 85 95
f 78 86 89 88
f 86 87 90 89
f 88 89 84 81
f 89 90 85 84
f 79 91 94 93
f 91 92 95 94
f 93 94 90 87
f 94 95 85 90
f 96 99 102 101
f 99 100 103 102
f 101 102 114 111
f 102 103 104 114
f 97 105 108 107
f 105 106 109 108
f 107 108 103 100
f 108 109 104 103
f 98 110 113 112
f 110 111 114 113
f 112 113 109 106
f 113 114 104 109
f 115 118 121 120
f 118 119 122 121
f 120 121 133 130
f 121 122 123 133
f 116 124 127 126
f 124 125 128 127
f 126 127 122 119
f 127 128 123 122
f 117 129 132 131
f 129 130 133 132
f 131 132 128 125
f 132 133 123 128
f 134 137 140 139
f 137 138 141 140
f 139 140 152 149
f 140 141 142 152
f 135 143 146 145
f 143 144 147 146
f 145 146 141 138
f 146 147 142 141
f 136 148 151 150
f 148 149 152 151
f 150 151 147 144
f 151 152 142 147
f 39 58 63 42
f 42 63 73 43
f 43 73 72 50
f 50 72 60 40
f 1 20 25 4
f 4 25 35 5
f 5 35 34 12
f 12 34 22 2
f 21 41 55 29
f 29 55 49 30
f 30 49 48 36
f 36 48 40 22
f 2 60 74 10
f 10 74 68 11
f 11 68 67 17
f 17 67 59 3
f 3 77 82 15
f 15 82 92 16
f 16 92 91 6
f 6 91 79 1
f 78 97 107 86
f 86 107 100 87
f 87 100 99 93
f 93 99 96 79
f 97 115 120 105
f 105 120 130 106
f 106 130 129 112
f 112 129 117 98
f 77 134 139 80
f 80 139 149 81
f 81 149 148 88
f 88 148 136 78
f 20 96 101 23
f 23 101 111 24
f 24 111 110 31
f 31 110 98 21
f 41 117 131 53
f 53 131 125 54
f 54 125 124 44
f 44 124 116 39
f 115 136 150 118
f 118 150 144 119
f 119 144 143 126
f 126 143 135 116
f 58 135 145 61
f 61 145 138 62
f 62 138 137 69
f 69 137 134 59
f 1 79 96 20

g key_legend_bottom_3_cmd
v 0.00489200652 -0.00339999981 0.00450000539
v 0.00463248789 -0.00338500924 0.00450000539
v 0.00439059734 -0.00334074162 0.00450000539
v 0.00416724384 -0.0032682512 0.00450000539
v 0.00396341085 -0.00316859409 0.00450000539
v 0.00378000736 -0.00304282457 0.00450000539
v 0.00361800194 -0.0028920006 0.00450000539
v 0.00347831845 -0.00271717645 0.00450000539
v 0.00336192548 -0.00251940824 0.00450000539
v 0.0032697469 -0.00229975022 0.00450000539
v 0.00320273638 -0.00205925852 0.00450000539
v 0.00316184759 -0.00179899111 0.00450000539
v 0.00314800441 -0.0015200004 0.00450000539
v 0.0031632483 -0.00126642548 0.00450000539
v 0.00320796669 -0.0010267403 0.00450000539
v 0.00328062475 -0.000802500173 0.00450000539
v 0.00337970257 -0.000595258549 0.00450000539
v 0.00350366533 -0.000406574458 0.00450000539
v 0.00365100801 -0.000237999484 0.00450000539
v 0.00382016599 -9.1092661e-05 0.00450000539
v 0.00400963426 3.25925648e-05 0.00450000539
v 0.00421787798 0.000131499022 0.00450000539
v 0.00444337726 0.000204073265 0.00450000539
v 0.00468458235 0.000248759985 0.00450000539
v 0.00494000316 0.000264000148 0.00450000539
v 0.00499971211 0.000263152644 0.00450000539
v 0.00505903363 0.000260556117 0.00450000539
v 0.00511825085 0.000256124884 0.00450000539
v 0.00517763197 0.000249776989 0.00450000539
v 0.00523746014 0.000241430476 0.00450000539
v 0.00529800355 0.000230999663 0.00450000539
v 0.00535954535 0.000218402594 0.00450000539
v 0.00542236865 0.00020355545 0.00450000539
v 0.00548675656 0.000186374411 0.00450000539
v 0.00555296242 0.000166777521 0.00450000539
v 0.00562128425 0.000144680962 0.00450000539
v 0.00569200516 0.000119999051 0.00450000539
v 0.00569200516 0.00205600075 0.00450000539
v 0.00640399754 0.00205600075 0.00450000539
v 0.00640399754 -0.00339999981 0.00450000539
v 0.00563310087 -0.000489156693 0.00450000539
v 0.00557614863 -0.000468593091 0.00450000539
v 0.00552074611 -0.000450249761 0.00450000539
v 0.00546652079 -0.000434074551 0.00450000539
v 0.00541307032 -0.000420009717 0.00450000539
v 0.00536000729 -0.000407999381 0.00450000539
v 0.00530692935 -0.000397991389 0.00450000539
v 0.00525347888 -0.000389926136 0.00450000539
v 0.00519925356 -0.000383749604 0.00450000539
v 0.00514385104 -0.000379407778 0.00450000539
v 0.0050868988 -0.000376842916 0.00450000539
v 0.00502799451 -0.000376001 0.00450000539
v 0.00486080348 -0.000386195257 0.00450000539
v 0.00470377505 -0.00041622296 0.00450000539
v 0.00455774367 -0.000465249643 0.00450000539
v 0.00442355871 -0.000532444566 0.00450000539
v 0.00430202484 -0.000616973266 0.00450000539
v 0.00419400632 -0.000717999414 0.00450000539
v 0.00410030782 -0.000834694132 0.00450000539
v 0.0040217787 -0.000966222957 0.00450000539
v 0.00395925343 -0.00111174956 0.00450000539
v 0.00391355157 -0.00127044506 0.00450000539
v 0.00388552248 -0.00144147314 0.00450000539
v 0.00387600064 -0.00162399933 0.00450000539
v 0.003881827 -0.00178830512 0.00450000539
v 0.00389996171 -0.00194444507 0.00450000539
v 0.00393137336 -0.00209124945 0.00450000539
v 0.00397704542 -0.00222755596 0.00450000539
v 0.00403791666 -0.00235219486 0.00450000539
v 0.00411500037 -0.00246400014 0.00450000539
v 0.00420925021 -0.00256180577 0.00450000539
v 0.00432163477 -0.00264444575 0.00450000539
v 0.00445312262 -0.00271075033 0.00450000539
v 0.00460471213 -0.00275955535 0.00450000539
v 0.00477734208 -0.00278969482 0.00450000539
v 0.00497199595 -0.00280000083 0.00450000539
v 0.00569200516 -0.00280000083 0.00450000539
v 0.00569200516 -0.000512000173 0.00450000539
v -0.0021879971 -0.000280000269 0.00450000539
v -0.00209648907 -0.000191990286 0.00450000539
v -0.00200591981 -0.000111926347 0.00450000539
v -0.00191624463 -3.97507101e-05 0.00450000539
v -0.0018274039 2.45925039e-05 0.00450000539
v -0.00173933804 8.11573118e-05 0.00450000539
v -0.00165200233 0.000129999593 0.00450000539
v -0.00156532228 0.000171175227 0.00450000539
v -0.00147925317 0.000204740092 0.00450000539
v -0.00139375031 0.000230750069 0.00450000539
v -0.00130873919 0.000249259174 0.00450000539
v -0.0012241751 0.000260323286 0.00450000539
v -0.00113999844 0.000264000148 0.00450000539
v -0.00102770329 0.00025934726 0.00450000539
v -0.000918924809 0.000245444477 0.00450000539
v -0.000813871622 0.000222375616 0.00450000539
v -0.000712737441 0.000190222636 0.00450000539
v -0.000615715981 0.000149069354 0.00450000539
v -0.000523000956 9.89995897e-05 0.00450000539
v -0.000434786081 4.00971621e-05 0.00450000539
v -0.000351265073 -2.75559723e-05 0.00450000539
v -0.000272631645 -0.000103875995 0.00450000539
v -0.000199079514 -0.000188777223 0.00450000539
v -0.000130802393 -0.000282181427 0.00450000539
v -6.79939985e-05 -0.000384001061 0.00450000539
v 1.1369586e-05 -0.000297306105 0.00450000539
v 9.36686993e-05 -0.000213777646 0.00450000539
v 0.000179126859 -0.000134250149 0.00450000539
v 0.000267997384 -5.9556216e-05 0.00450000539
v 0.000360548496 9.47155058e-06 0.00450000539
v 0.000457003713 7.20005482e-05 0.00450000539
v 0.000557631254 0.000127194449 0.00450000539
v 0.000662669539 0.000174222514 0.00450000539
v 0.000772371888 0.000212250277 0.00450000539
v 0.000887006521 0.000240445137 0.00450000539
v 0.00100679696 0.000257972628 0.00450000539
v 0.00113199651 0.000264000148 0.00450000539
v 0.00130838156 0.000252490863 0.00450000539
v 0.00147306919 0.000218592584 0.00450000539
v 0.00162537396 0.000163249671 0.00450000539
v 0.00176459551 8.74064863e-05 0.00450000539
v 0.00189003348 -7.99074769e-06 0.00450000539
v 0.00200100243 -0.000121999532 0.00450000539
v 0.002096802 -0.000253675506 0.00450000539
v 0.00217674673 -0.000402074307 0.00450000539
v 0.00224012136 -0.000566249713 0.00450000539
v 0.00228625536 -0.000745259225 0.00450000539
v 0.00231444836 -0.000938158482 0.00450000539
v 0.002324 -0.0011439994 0.00450000539
v 0.002324 -0.00339999981 0.00450000539
v 0.00161199272 -0.00339999981 0.00450000539
v 0.00161199272 -0.00117599964 0.00450000539
v 0.00160515308 -0.00104519539 0.00450000539
v 0.00158521533 -0.000924888998 0.00450000539
v 0.00155311823 -0.000815249979 0.00450000539
v 0.00150977075 -0.000716444105 0.00450000539
v 0.00145609677 -0.000628639013 0.00450000539
v 0.00139300525 -0.000552000478 0.00450000539
v 0.00132140517 -0.000486694276 0.00450000539
v 0.0012422204 -0.000432889909 0.00450000539
v 0.00115637481 -0.000390749425 0.00450000539
v 0.00106477737 -0.000360444188 0.00450000539
v 0.00096835196 -0.000342138112 0.00450000539
v 0.000868007541 -0.000336000696 0.00450000539
v 0.000808417797 -0.000338250771 0.00450000539
v 0.000745967031 -0.000348666683 0.00450000539
v 0.000681132078 -0.000366749242 0.00450000539
v 0.000614374876 -0.00039199926 0.00450000539
v 0.000546172261 -0.000423917547 0.00450000539
v 0.000477001071 -0.000461999327 0.00450000539
v 0.000407323241 -0.000505750999 0.00450000539
v 0.00033763051 -0.000554665923 0.00450000539
v 0.000268369913 -0.000608250499 0.00450000539
v 0.000200033188 -0.000665999949 0.00450000539
v 0.000133082271 -0.000727416947 0.00450000539
v 6.79939985e-05 -0.000792000443 0.00450000539
v 6.79939985e-05 -0.00339999981 0.00450000539
v -0.000643998384 -0.00339999981 0.00450000539
v -0.000643998384 -0.00116799958 0.00450000539
v -0.000650033355 -0.00102894939 0.00450000539
v -0.00066755712 -0.000903593376 0.00450000539
v -0.000695750117 -0.000791624188 0.00450000539
v -0.000733777881 -0.000692740083 0.00450000539
v -0.000780805945 -0.000606633723 0.00450000539
v -0.000835999846 -0.000532999635 0.00450000539
v -0.000898525119 -0.000471532345 0.00450000539
v -0.000967562199 -0.000421926379 0.00450000539
v -0.00104224682 -0.000383874401 0.00450000539
v -0.00112177432 -0.000357074663 0.00450000539
v -0.00120531023 -0.000341217965 0.00450000539
v -0.00129200518 -0.000336000696 0.00450000539
v -0.00137960911 -0.000338403508 0.00450000539
v -0.00146281719 -0.000345889479 0.00450000539
v -0.00154225528 -0.000358875841 0.00450000539
v -0.00161851943 -0.000377777964 0.00450000539
v -0.00169223547 -0.00040301308 0.00450000539
v -0.00176399946 -0.000435000286 0.00450000539
v -0.00183443725 -0.000474153087 0.00450000539
v -0.00190414488 -0.000520888716 0.00450000539
v -0.00197374821 -0.000575624406 0.00450000539
v -0.00204385817 -0.00063877739 0.00450000539
v -0.00211507082 -0.0007107649 0.00450000539
v -0.0021879971 -0.000792000443 0.00450000539
v -0.0021879971 -0.00339999981 0.00450000539
v -0.00290000439 -0.00339999981 0.00450000539
v -0.00290000439 0.000191999599 0.00450000539
v -0.0021879971 0.000191999599 0.00450000539
v -0.00383126736 -0.00067993626 0.00450000539
v -0.0039254874 -0.000623481348 0.00450000539
v -0.00401525199 -0.000574249774 0.00450000539
v -0.00410118699 -0.000531852245 0.00450000539
v -0.00418390334 -0.000495897606 0.00450000539
v -0.00426399708 -0.000466000289 0.00450000539
v -0.00434209406 -0.000441769138 0.00450000539
v -0.00441882014 -0.000422814861 0.00450000539
v -0.00449475646 -0.000408750027 0.00450000539
v -0.00457051396 -0.000399185345 0.00450000539
v -0.0046467334 -0.00039373152 0.00450000539
v -0.00472399592 -0.00039199926 0.00450000539
v -0.00488169491 -0.000402024016 0.00450000539
v -0.00503018498 -0.000431519002 0.00450000539
v -0.00516863167 -0.000479625538 0.00450000539
v -0.00529615581 -0.00054548122 0.00450000539
v -0.00541189313 -0.000628227368 0.00450000539
v -0.00551499426 -0.000726999715 0.00450000539
v -0.00560460985 -0.000840939581 0.00450000539
v -0.00567984581 -0.000969184563 0.00450000539
v -0.00573988259 -0.00111087598 0.00450000539
v -0.00578381121 -0.0012651477 0.00450000539
v -0.00581081212 -0.00143114291 0.00450000539
v -0.00582000613 -0.00160800107 0.00450000539
v -0.00581012666 -0.00178774633 0.00450000539
v -0.0057810396 -0.00195463002 0.00450000539
v -0.00573350489 -0.00210812502 0.00450000539
v -0.00566829741 -0.00224770419 0.00450000539
v -0.00558620691 -0.00237283856 0.00450000539
v -0.00548799336 -0.00248300098 0.00450000539
v -0.00537446141 -0.00257766247 0.00450000539
v -0.00524637103 -0.0026562959 0.00450000539
v -0.00510449708 -0.002718376 0.00450000539
v -0.00494962931 -0.00276337005 0.00450000539
v -0.00478254259 -0.00279075466 0.00450000539
v -0.00460399687 -0.00280000083 0.00450000539
v -0.00452828407 -0.00279833376 0.00450000539
v -0.0044529289 -0.00279333442 0.00450000539
v -0.00437761843 -0.00278500095 0.00450000539
v -0.00430206954 -0.00277333334 0.00450000539
v -0.00422596931 -0.00275833346 0.00450000539
v -0.00414900482 -0.00273999944 0.00450000539
v -0.00407086313 -0.00271833315 0.00450000539
v -0.00399126112 -0.00269333459 0.00450000539
v -0.00390987098 -0.00266500004 0.00450000539
v -0.00382640958 -0.00263333321 0.00450000539
v -0.00374054909 -0.0025983341 0.00450000539
v -0.00365200639 -0.00256000087 0.00450000539
v -0.00365200639 -0.00326400064 0.00450000539
v -0.0037163347 -0.0032916218 0.00450000539
v -0.00378863513 -0.00331829675 0.00450000539
v -0.00386787951 -0.00334374979 0.00450000539
v -0.00395303965 -0.00336770341 0.00450000539
v -0.00404308736 -0.00338988006 0.00450000539
v -0.00413699448 -0.00341000035 0.00450000539
v -0.00423374772 -0.00342778675 0.00450000539
v -0.0043322891 -0.00344296359 0.00450000539
v -0.00443162024 -0.00345524959 0.00450000539
v -0.00453069806 -0.00346437097 0.00450000539
v -0.00462850928 -0.00347004645 0.00450000539
v -0.00472399592 -0.00347200036 0.00450000539
v -0.00498507917 -0.00345675088 0.00450000539
v -0.00523133576 -0.00341200083 0.00450000539
v -0.00546124578 -0.00333924964 0.00450000539
v -0.005673334 -0.00324000046 0.00450000539
v -0.00586608052 -0.00311575085 0.00450000539
v -0.00603799522 -0.00296800025 0.00450000539
v -0.00618758798 -0.00279824995 0.00450000539
v -0.00631333888 -0.00260800123 0.00450000539
v -0.0064137429 -0.00239874981 0.00450000539
v -0.00648733974 -0.00217200071 0.00450000539
v -0.00653257966 -0.00192924961 0.00450000539
v -0.00654800236 -0.00167199969 0.00450000539
v -0.00653383136 -0.00138518587 0.00450000539
v -0.0064920038 -0.00111748092 0.00450000539
v -0.00642350316 -0.000870000571 0.00450000539
v -0.00632932782 -0.000643851236 0.00450000539
v -0.00621050596 -0.000440148637 0.00450000539
v -0.00606800616 -0.000259999186 0.00450000539
v -0.00590282679 -0.000104518607 0.00450000539
v -0.00571599603 2.51848251e-05 0.00450000539
v -0.00550849736 0.000128000975 0.00450000539
v -0.00528132915 0.000202814117 0.00450000539
v -0.0050355047 0.000248517841 0.00450000539
v -0.00477200747 0.000264000148 0.00450000539
v -0.00467072427 0.000262023881 0.00450000539
v -0.00457440317 0.000256184489 0.00450000539
v -0.0044823736 0.000246625394 0.00450000539
v -0.0043939203 0.000233480707 0.00450000539
v -0.00430837274 0.000216893852 0.00450000539
v -0.00422500074 0.000197000802 0.00450000539
v -0.00414313376 0.000173939392 0.00450000539
v -0.00406207144 0.000147851184 0.00450000539
v -0.00398112833 0.000118874013 0.00450000539
v -0.00389958918 8.71475786e-05 0.00450000539
v -0.00381678343 5.28097153e-05 0.00450000539
v -0.00373199582 1.60001218e-05 0.00450000539
v -0.00373199582 -0.000744000077 0.00450000539
v 0.00489200652 -0.00339999981 0.00409999862
v 0.00463248789 -0.00338500924 0.00409999862
v 0.00439059734 -0.00334074162 0.00409999862
v 0.00416724384 -0.0032682512 0.00409999862
v 0.00396341085 -0.00316859409 0.00409999862
v 0.00378000736 -0.00304282457 0.00409999862
v 0.00361800194 -0.0028920006 0.00409999862
v 0.00347831845 -0.00271717645 0.00409999862
v 0.00336192548 -0.00251940824 0.00409999862
v 0.0032697469 -0.00229975022 0.00409999862
v 0.00320273638 -0.00205925852 0.00409999862
v 0.00316184759 -0.00179899111 0.00409999862
v 0.00314800441 -0.0015200004 0.00409999862
v 0.0031632483 -0.00126642548 0.00409999862
v 0.00320796669 -0.0010267403 0.00409999862
v 0.00328062475 -0.000802500173 0.00409999862
v 0.00337970257 -0.000595258549 0.00409999862
v 0.00350366533 -0.000406574458 0.00409999862
v 0.00365100801 -0.000237999484 0.00409999862
v 0.00382016599 -9.1092661e-05 0.00409999862
v 0.00400963426 3.25925648e-05 0.00409999862
v 0.00421787798 0.000131499022 0.00409999862
v 0.00444337726 0.000204073265 0.00409999862
v 0.00468458235 0.000248759985 0.00409999862
v 0.00494000316 0.000264000148 0.00409999862
v 0.00499971211 0.000263152644 0.00409999862
v 0.00505903363 0.000260556117 0.00409999862
v 0.00511825085 0.000256124884 0.00409999862
v 0.00517763197 0.000249776989 0.00409999862
v 0.00523746014 0.000241430476 0.00409999862
v 0.00529800355 0.000230999663 0.00409999862
v 0.00535954535 0.000218402594 0.00409999862
v 0.00542236865 0.00020355545 0.00409999862
v 0.00548675656 0.000186374411 0.00409999862
v 0.00555296242 0.000166777521 0.00409999862
v 0.00562128425 0.000144680962 0.00409999862
v 0.00569200516 0.000119999051 0.00409999862
v 0.00569200516 0.00205600075 0.00409999862
v 0.00640399754 0.00205600075 0.00409999862
v 0.00640399754 -0.00339999981 0.00409999862
v 0.00563310087 -0.000489156693 0.00409999862
v 0.00557614863 -0.000468593091 0.00409999862
v 0.00552074611 -0.000450249761 0.00409999862
v 0.00546652079 -0.000434074551 0.00409999862
v 0.00541307032 -0.000420009717 0.00409999862
v 0.00536000729 -0.000407999381 0.00409999862
v 0.00530692935 -0.000397991389 0.00409999862
v 0.00525347888 -0.000389926136 0.00409999862
v 0.00519925356 -0.000383749604 0.00409999862
v 0.00514385104 -0.000379407778 0.00409999862
v 0.0050868988 -0.000376842916 0.00409999862
v 0.00502799451 -0.000376001 0.00409999862
v 0.00486080348 -0.000386195257 0.00409999862
v 0.00470377505 -0.00041622296 0.00409999862
v 0.00455774367 -0.000465249643 0.00409999862
v 0.00442355871 -0.000532444566 0.00409999862
v 0.00430202484 -0.000616973266 0.00409999862
v 0.00419400632 -0.000717999414 0.00409999862
v 0.00410030782 -0.000834694132 0.00409999862
v 0.0040217787 -0.000966222957 0.00409999862
v 0.00395925343 -0.00111174956 0.00409999862
v 0.00391355157 -0.00127044506 0.00409999862
v 0.00388552248 -0.00144147314 0.00409999862
v 0.00387600064 -0.00162399933 0.00409999862
v 0.003881827 -0.00178830512 0.00409999862
v 0.00389996171 -0.00194444507 0.00409999862
v 0.00393137336 -0.00209124945 0.00409999862
v 0.00397704542 -0.00222755596 0.00409999862
v 0.00403791666 -0.00235219486 0.00409999862
v 0.00411500037 -0.00246400014 0.00409999862
v 0.00420925021 -0.00256180577 0.00409999862
v 0.00432163477 -0.00264444575 0.00409999862
v 0.00445312262 -0.00271075033 0.00409999862
v 0.00460471213 -0.00275955535 0.00409999862
v 0.00477734208 -0.00278969482 0.00409999862
v 0.00497199595 -0.00280000083 0.00409999862
v 0.00569200516 -0.00280000083 0.00409999862
v 0.00569200516 -0.000512000173 0.00409999862
v -0.0021879971 -0.000280000269 0.00409999862
v -0.00209648907 -0.000191990286 0.00409999862
v -0.00200591981 -0.000111926347 0.00409999862
v -0.00191624463 -3.97507101e-05 0.00409999862
v -0.0018274039 2.45925039e-05 0.00409999862
v -0.00173933804 8.11573118e-05 0.00409999862
v -0.00165200233 0.000129999593 0.00409999862
v -0.00156532228 0.000171175227 0.00409999862
v -0.00147925317 0.000204740092 0.00409999862
v -0.00139375031 0.000230750069 0.00409999862
v -0.00130873919 0.000249259174 0.00409999862
v -0.0012241751 0.000260323286 0.00409999862
v -0.00113999844 0.000264000148 0.00409999862
v -0.00102770329 0.00025934726 0.00409999862
v -0.000918924809 0.000245444477 0.00409999862
v -0.000813871622 0.000222375616 0.00409999862
v -0.000712737441 0.000190222636 0.00409999862
v -0.000615715981 0.000149069354 0.00409999862
v -0.000523000956 9.89995897e-05 0.00409999862
v -0.000434786081 4.00971621e-05 0.00409999862
v -0.000351265073 -2.75559723e-05 0.00409999862
v -0.000272631645 -0.000103875995 0.00409999862
v -0.000199079514 -0.000188777223 0.00409999862
v -0.000130802393 -0.000282181427 0.00409999862
v -6.79939985e-05 -0.000384001061 0.00409999862
v 1.1369586e-05 -0.000297306105 0.00409999862
v 9.36686993e-05 -0.000213777646 0.00409999862
v 0.000179126859 -0.000134250149 0.00409999862
v 0.000267997384 -5.9556216e-05 0.00409999862
v 0.000360548496 9.47155058e-06 0.00409999862
v 0.000457003713 7.20005482e-05 0.00409999862
v 0.000557631254 0.000127194449 0.00409999862
v 0.000662669539 0.000174222514 0.00409999862
v 0.000772371888 0.000212250277 0.00409999862
v 0.000887006521 0.000240445137 0.00409999862
v 0.00100679696 0.000257972628 0.00409999862
v 0.00113199651 0.000264000148 0.00409999862
v 0.00130838156 0.000252490863 0.00409999862
v 0.00147306919 0.000218592584 0.00409999862
v 0.00162537396 0.000163249671 0.00409999862
v 0.00176459551 8.74064863e-05 0.00409999862
v 0.00189003348 -7.99074769e-06 0.00409999862
v 0.00200100243 -0.000121999532 0.00409999862
v 0.002096802 -0.000253675506 0.00409999862
v 0.00217674673 -0.000402074307 0.00409999862
v 0.00224012136 -0.000566249713 0.00409999862
v 0.00228625536 -0.000745259225 0.00409999862
v 0.00231444836 -0.000938158482 0.00409999862
v 0.002324 -0.0011439994 0.00409999862
v 0.002324 -0.00339999981 0.00409999862
v 0.00161199272 -0.00339999981 0.00409999862
v 0.00161199272 -0.00117599964 0.00409999862
v 0.00160515308 -0.00104519539 0.00409999862
v 0.00158521533 -0.000924888998 0.00409999862
v 0.00155311823 -0.000815249979 0.00409999862
v 0.00150977075 -0.000716444105 0.00409999862
v 0.00145609677 -0.000628639013 0.00409999862
v 0.00139300525 -0.000552000478 0.00409999862
v 0.00132140517 -0.000486694276 0.00409999862
v 0.0012422204 -0.000432889909 0.00409999862
v 0.00115637481 -0.000390749425 0.00409999862
v 0.00106477737 -0.000360444188 0.00409999862
v 0.00096835196 -0.000342138112 0.00409999862
v 0.000868007541 -0.000336000696 0.00409999862
v 0.000808417797 -0.000338250771 0.00409999862
v 0.000745967031 -0.000348666683 0.00409999862
v 0.000681132078 -0.000366749242 0.00409999862
v 0.000614374876 -0.00039199926 0.00409999862
v 0.000546172261 -0.000423917547 0.00409999862
v 0.000477001071 -0.000461999327 0.00409999862
v 0.000407323241 -0.000505750999 0.00409999862
v 0.00033763051 -0.000554665923 0.00409999862
v 0.000268369913 -0.000608250499 0.00409999862
v 0.000200033188 -0.000665999949 0.00409999862
v 0.000133082271 -0.000727416947 0.00409999862
v 6.79939985e-05 -0.000792000443 0.00409999862
v 6.79939985e-05 -0.00339999981 0.00409999862
v -0.000643998384 -0.00339999981 0.00409999862
v -0.000643998384 -0.00116799958 0.00409999862
v -0.000650033355 -0.00102894939 0.00409999862
v -0.00066755712 -0.000903593376 0.00409999862
v -0.000695750117 -0.000791624188 0.00409999862
v -0.000733777881 -0.000692740083 0.00409999862
v -0.000780805945 -0.000606633723 0.00409999862
v -0.000835999846 -0.000532999635 0.00409999862
v -0.000898525119 -0.000471532345 0.00409999862
v -0.000967562199 -0.000421926379 0.00409999862
v -0.00104224682 -0.000383874401 0.00409999862
v -0.00112177432 -0.000357074663 0.00409999862
v -0.00120531023 -0.000341217965 0.00409999862
v -0.00129200518 -0.000336000696 0.00409999862
v -0.00137960911 -0.000338403508 0.00409999862
v -0.00146281719 -0.000345889479 0.00409999862
v -0.00154225528 -0.000358875841 0.00409999862
v -0.00161851943 -0.000377777964 0.00409999862
v -0.00169223547 -0.00040301308 0.00409999862
v -0.00176399946 -0.000435000286 0.00409999862
v -0.00183443725 -0.000474153087 0.00409999862
v -0.00190414488 -0.000520888716 0.00409999862
v -0.00197374821 -0.000575624406 0.00409999862
v -0.00204385817 -0.00063877739 0.00409999862
v -0.00211507082 -0.0007107649 0.00409999862
v -0.0021879971 -0.000792000443 0.00409999862
v -0.0021879971 -0.00339999981 0.00409999862
v -0.00290000439 -0.00339999981 0.00409999862
v -0.00290000439 0.000191999599 0.00409999862
v -0.0021879971 0.000191999599 0.00409999862
v -0.00383126736 -0.00067993626 0.00409999862
v -0.0039254874 -0.000623481348 0.00409999862
v -0.00401525199 -0.000574249774 0.00409999862
v -0.00410118699 -0.000531852245 0.00409999862
v -0.00418390334 -0.000495897606 0.00409999862
v -0.00426399708 -0.000466000289 0.00409999862
v -0.00434209406 -0.000441769138 0.00409999862
v -0.00441882014 -0.000422814861 0.00409999862
v -0.00449475646 -0.000408750027 0.00409999862
v -0.00457051396 -0.000399185345 0.00409999862
v -0.0046467334 -0.00039373152 0.00409999862
v -0.00472399592 -0.00039199926 0.00409999862
v -0.00488169491 -0.000402024016 0.00409999862
v -0.00503018498 -0.000431519002 0.00409999862
v -0.00516863167 -0.000479625538 0.00409999862
v -0.00529615581 -0.00054548122 0.00409999862
v -0.00541189313 -0.000628227368 0.00409999862
v -0.00551499426 -0.000726999715 0.00409999862
v -0.00560460985 -0.000840939581 0.00409999862
v -0.00567984581 -0.000969184563 0.00409999862
v -0.00573988259 -0.00111087598 0.00409999862
v -0.00578381121 -0.0012651477 0.00409999862
v -0.00581081212 -0.00143114291 0.00409999862
v -0.00582000613 -0.00160800107 0.00409999862
v -0.00581012666 -0.00178774633 0.00409999862
v -0.0057810396 -0.00195463002 0.00409999862
v -0.00573350489 -0.00210812502 0.00409999862
v -0.00566829741 -0.00224770419 0.00409999862
v -0.00558620691 -0.00237283856 0.00409999862
v -0.00548799336 -0.00248300098 0.00409999862
v -0.00537446141 -0.00257766247 0.00409999862
v -0.00524637103 -0.0026562959 0.00409999862
v -0.00510449708 -0.002718376 0.00409999862
v -0.00494962931 -0.00276337005 0.00409999862
v -0.00478254259 -0.00279075466 0.00409999862
v -0.00460399687 -0.00280000083 0.00409999862
v -0.00452828407 -0.00279833376 0.00409999862
v -0.0044529289 -0.00279333442 0.00409999862
v -0.00437761843 -0.00278500095 0.00409999862
v -0.00430206954 -0.00277333334 0.00409999862
v -0.00422596931 -0.00275833346 0.00409999862
v -0.00414900482 -0.00273999944 0.00409999862
v -0.00407086313 -0.00271833315 0.00409999862
v -0.00399126112 -0.00269333459 0.00409999862
v -0.00390987098 -0.00266500004 0.00409999862
v -0.00382640958 -0.00263333321 0.00409999862
v -0.00374054909 -0.0025983341 0.00409999862
v -0.00365200639 -0.00256000087 0.00409999862
v -0.00365200639 -0.00326400064 0.00409999862
v -0.0037163347 -0.0032916218 0.00409999862
v -0.00378863513 -0.00331829675 0.00409999862
v -0.00386787951 -0.00334374979 0.00409999862
v -0.00395303965 -0.00336770341 0.00409999862
v -0.00404308736 -0.00338988006 0.00409999862
v -0.00413699448 -0.00341000035 0.00409999862
v -0.00423374772 -0.00342778675 0.00409999862
v -0.0043322891 -0.00344296359 0.00409999862
v -0.00443162024 -0.00345524959 0.00409999862
v -0.00453069806 -0.00346437097 0.00409999862
v -0.00462850928 -0.00347004645 0.00409999862
v -0.00472399592 -0.00347200036 0.00409999862
v -0.00498507917 -0.00345675088 0.00409999862
v -0.00523133576 -0.00341200083 0.00409999862
v -0.00546124578 -0.00333924964 0.00409999862
v -0.005673334 -0.00324000046 0.00409999862
v -0.00586608052 -0.00311575085 0.00409999862
v -0.00603799522 -0.00296800025 0.00409999862
v -0.00618758798 -0.00279824995 0.00409999862
v -0.00631333888 -0.00260800123 0.00409999862
v -0.0064137429 -0.00239874981 0.00409999862
v -0.00648733974 -0.00217200071 0.00409999862
v -0.00653257966 -0.00192924961 0.00409999862
v -0.00654800236 -0.00167199969 0.00409999862
v -0.00653383136 -0.00138518587 0.00409999862
v -0.0064920038 -0.00111748092 0.00409999862
v -0.00642350316 -0.000870000571 0.00409999862
v -0.00632932782 -0.000643851236 0.00409999862
v -0.00621050596 -0.000440148637 0.00409999862
v -0.00606800616 -0.000259999186 0.00409999862
v -0.00590282679 -0.000104518607 0.00409999862
v -0.00571599603 2.51848251e-05 0.00409999862
v -0.00550849736 0.000128000975 0.00409999862
v -0.00528132915 0.000202814117 0.00409999862
v -0.0050355047 0.000248517841 0.00409999862
v -0.00477200747 0.000264000148 0.00409999862
v -0.00467072427 0.000262023881 0.00409999862
v -0.00457440317 0.000256184489 0.00409999862
v -0.0044823736 0.000246625394 0.00409999862
v -0.0043939203 0.000233480707 0.00409999862
v -0.00430837274 0.000216893852 0.00409999862
v -0.00422500074 0.000197000802 0.00409999862
v -0.00414313376 0.000173939392 0.00409999862
v -0.00406207144 0.000147851184 0.00409999862
v -0.00398112833 0.000118874013 0.00409999862
v -0.00389958918 8.71475786e-05 0.00409999862
v -0.00381678343 5.28097153e-05 0.00409999862
v -0.00373199582 1.60001218e-05 0.00409999862
v -0.00373199582 -0.000744000077 0.00409999862
v -0.00383126736 -0.00067993626 0.00409999862
v -0.00383126736 -0.00067993626 0.00450000539
v -0.0039254874 -0.000623481348 0.00409999862
v -0.0039254874 -0.000623481348 0.00450000539
v -0.00401525199 -0.000574249774 0.00409999862
v -0.00401525199 -0.000574249774 0.00450000539
v -0.00410118699 -0.000531852245 0.00409999862
v -0.00410118699 -0.000531852245 0.00450000539
v -0.00418390334 -0.000495897606 0.00409999862
v -0.00418390334 -0.000495897606 0.00450000539
v -0.00426399708 -0.000466000289 0.00409999862
v -0.00426399708 -0.000466000289 0.00450000539
v -0.00434209406 -0.000441769138 0.00409999862
v -0.00434209406 -0.000441769138 0.00450000539
v -0.00441882014 -0.000422814861 0.00409999862
v -0.00441882014 -0.000422814861 0.00450000539
v -0.00449475646 -0.000408750027 0.00409999862
v -0.00449475646 -0.000408750027 0.00450000539
v -0.00457051396 -0.000399185345 0.00409999862
v -0.00457051396 -0.000399185345 0.00450000539
v -0.0046467334 -0.00039373152 0.00409999862
v -0.0046467334 -0.00039373152 0.00450000539
v -0.00472399592 -0.00039199926 0.00409999862
v -0.00472399592 -0.00039199926 0.00450000539
v -0.00488169491 -0.000402024016 0.00409999862
v -0.00488169491 -0.000402024016 0.00450000539
v -0.00503018498 -0.000431519002 0.00409999862
v -0.00503018498 -0.000431519002 0.00450000539
v -0.00516863167 -0.000479625538 0.00409999862
v -0.00516863167 -0.000479625538 0.00450000539
v -0.00529615581 -0.00054548122 0.00409999862
v -0.00529615581 -0.00054548122 0.00450000539
v -0.00541189313 -0.000628227368 0.00409999862
v -0.00541189313 -0.000628227368 0.00450000539
v -0.00551499426 -0.000726999715 0.00409999862
v -0.00551499426 -0.000726999715 0.00450000539
v -0.00560460985 -0.000840939581 0.00409999862
v -0.00560460985 -0.000840939581 0.00450000539
v -0.00567984581 -0.000969184563 0.00409999862
v -0.00567984581 -0.000969184563 0.00450000539
v -0.00573988259 -0.00111087598 0.00409999862
v -0.00573988259 -0.00111087598 0.00450000539
v -0.00578381121 -0.0012651477 0.00409999862
v -0.00578381121 -0.0012651477 0.00450000539
v -0.00581081212 -0.00143114291 0.00409999862
v -0.00581081212 -0.00143114291 0.00450000539
v -0.00582000613 -0.00160800107 0.00409999862
v -0.00582000613 -0.00160800107 0.00450000539
v -0.00581012666 -0.00178774633 0.00409999862
v -0.00581012666 -0.00178774633 0.00450000539
v -0.0057810396 -0.00195463002 0.00409999862
v -0.0057810396 -0.00195463002 0.00450000539
v -0.00573350489 -0.00210812502 0.00409999862
v -0.00573350489 -0.00210812502 0.00450000539
v -0.00566829741 -0.00224770419 0.00409999862
v -0.00566829741 -0.00224770419 0.00450000539
v -0.00558620691 -0.00237283856 0.00409999862
v -0.00558620691 -0.00237283856 0.00450000539
v -0.00548799336 -0.00248300098 0.00409999862
v -0.00548799336 -0.00248300098 0.00450000539
v -0.00537446141 -0.00257766247 0.00409999862
v -0.00537446141 -0.00257766247 0.00450000539
v -0.00524637103 -0.0026562959 0.00409999862
v -0.00524637103 -0.0026562959 0.00450000539
v -0.00510449708 -0.002718376 0.00409999862
v -0.00510449708 -0.002718376 0.00450000539
v -0.00494962931 -0.00276337005 0.00409999862
v -0.00494962931 -0.00276337005 0.00450000539
v -0.00478254259 -0.00279075466 0.00409999862
v -0.00478254259 -0.00279075466 0.00450000539
v -0.00460399687 -0.00280000083 0.00409999862
v -0.00460399687 -0.00280000083 0.00450000539
v -0.00452828407 -0.00279833376 0.00409999862
v -0.00452828407 -0.00279833376 0.00450000539
v -0.0044529289 -0.00279333442 0.00409999862
v -0.0044529289 -0.00279333442 0.00450000539
v -0.00437761843 -0.00278500095 0.00409999862
v -0.00437761843 -0.00278500095 0.00450000539
v -0.00430206954 -0.00277333334 0.00409999862
v -0.00430206954 -0.00277333334 0.00450000539
v -0.00422596931 -0.00275833346 0.00409999862
v -0.00422596931 -0.00275833346 0.00450000539
v -0.00414900482 -0.00273999944 0.00409999862
v -0.00414900482 -0.00273999944 0.00450000539
v -0.00407086313 -0.00271833315 0.00409999862
v -0.00407086313 -0.00271833315 0.00450000539
v -0.00399126112 -0.00269333459 0.00409999862
v -0.00399126112 -0.00269333459 0.00450000539
v -0.00390987098 -0.00266500004 0.00409999862
v -0.00390987098 -0.00266500004 0.00450000539
v -0.00382640958 -0.00263333321 0.00409999862
v -0.00382640958 -0.00263333321 0.00450000539
v -0.00374054909 -0.0025983341 0.00409999862
v -0.00374054909 -0.0025983341 0.00450000539
v -0.00365200639 -0.00256000087 0.00409999862
v -0.00365200639 -0.00256000087 0.00450000539
v -0.00365200639 -0.00326400064 0.00409999862
v -0.00365200639 -0.00326400064 0.00450000539
v -0.0037163347 -0.0032916218 0.00409999862
v -0.0037163347 -0.0032916218 0.00450000539
v -0.00378863513 -0.00331829675 0.00409999862
v -0.00378863513 -0.00331829675 0.00450000539
v -0.00386787951 -0.00334374979 0.00409999862
v -0.00386787951 -0.00334374979 0.00450000539
v -0.00395303965 -0.00336770341 0.00409999862
v -0.00395303965 -0.00336770341 0.00450000539
v -0.00404308736 -0.00338988006 0.00409999862
v -0.00404308736 -0.00338988006 0.00450000539
v -0.00413699448 -0.00341000035 0.00409999862
v -0.00413699448 -0.00341000035 0.00450000539
v -0.00423374772 -0.00342778675 0.00409999862
v -0.00423374772 -0.00342778675 0.00450000539
v -0.0043322891 -0.00344296359 0.00409999862
v -0.0043322891 -0.00344296359 0.00450000539
v -0.00443162024 -0.00345524959 0.00409999862
v -0.00443162024 -0.00345524959 0.00450000539
v -0.00453069806 -0.00346437097 0.00409999862
v -0.00453069806 -0.00346437097 0.00450000539
v -0.00462850928 -0.00347004645 0.00409999862
v -0.00462850928 -0.00347004645 0.00450000539
v -0.00472399592 -0.00347200036 0.00409999862
v -0.00472399592 -0.00347200036 0.00450000539
v -0.00498507917 -0.00345675088 0.00409999862
v -0.00498507917 -0.00345675088 0.00450000539
v -0.00523133576 -0.00341200083 0.00409999862
v -0.00523133576 -0.00341200083 0.00450000539
v -0.00546124578 -0.00333924964 0.00409999862
v -0.00546124578 -0.00333924964 0.00450000539
v -0.005673334 -0.00324000046 0.00409999862
v -0.005673334 -0.00324000046 0.00450000539
v -0.00586608052 -0.00311575085 0.00409999862
v -0.00586608052 -0.00311575085 0.00450000539
v -0.00603799522 -0.00296800025 0.00409999862
v -0.00603799522 -0.00296800025 0.00450000539
v -0.00618758798 -0.00279824995 0.00409999862
v -0.00618758798 -0.00279824995 0.00450000539
v -0.00631333888 -0.00260800123 0.00409999862
v -0.00631333888 -0.00260800123 0.00450000539
v -0.0064137429 -0.00239874981 0.00409999862
v -0.0064137429 -0.00239874981 0.00450000539
v -0.00648733974 -0.00217200071 0.00409999862
v -0.00648733974 -0.00217200071 0.00450000539
v -0.00653257966 -0.00192924961 0.00409999862
v -0.00653257966 -0.00192924961 0.00450000539
v -0.00654800236 -0.00167199969 0.00409999862
v -0.00654800236 -0.00167199969 0.00450000539
v -0.00653383136 -0.00138518587 0.00409999862
v -0.00653383136 -0.00138518587 0.00450000539
v -0.0064920038 -0.00111748092 0.00409999862
v -0.0064920038 -0.00111748092 0.00450000539
v -0.00642350316 -0.000870000571 0.00409999862
v -0.00642350316 -0.000870000571 0.00450000539
v -0.00632932782 -0.000643851236 0.00409999862
v -0.00632932782 -0.000643851236 0.00450000539
v -0.00621050596 -0.000440148637 0.00409999862
v -0.00621050596 -0.000440148637 0.00450000539
v -0.00606800616 -0.000259999186 0.00409999862
v -0.00606800616 -0.000259999186 0.00450000539
v -0.00590282679 -0.000104518607 0.00409999862
v -0.00590282679 -0.000104518607 0.00450000539
v -0.00571599603 2.51848251e-05 0.00409999862
v -0.00571599603 2.51848251e-05 0.00450000539
v -0.00550849736 0.000128000975 0.00409999862
v -0.00550849736 0.000128000975 0.00450000539
v -0.00528132915 0.000202814117 0.00409999862
v -0.00528132915 0.000202814117 0.00450000539
v -0.0050355047 0.000248517841 0.00409999862
v -0.0050355047 0.000248517841 0.00450000539
v -0.00477200747 0.000264000148 0.00409999862
v -0.00477200747 0.000264000148 0.00450000539
v -0.00467072427 0.000262023881 0.00409999862
v -0.00467072427 0.000262023881 0.00450000539
v -0.00457440317 0.000256184489 0.00409999862
v -0.00457440317 0.000256184489 0.00450000539
v -0.0044823736 0.000246625394 0.00409999862
v -0.0044823736 0.000246625394 0.00450000539
v -0.0043939203 0.000233480707 0.00409999862
v -0.0043939203 0.000233480707 0.00450000539
v -0.00430837274 0.000216893852 0.00409999862
v -0.00430837274 0.000216893852 0.00450000539
v -0.00422500074 0.000197000802 0.00409999862
v -0.00422500074 0.000197000802 0.00450000539
v -0.00414313376 0.000173939392 0.00409999862
v -0.00414313376 0.000173939392 0.00450000539
v -0.00406207144 0.000147851184 0.00409999862
v -0.00406207144 0.000147851184 0.00450000539
v -0.00398112833 0.000118874013 0.00409999862
v -0.00398112833 0.000118874013 0.00450000539
v -0.00389958918 8.71475786e-05 0.00409999862
v -0.00389958918 8.71475786e-05 0.00450000539
v -0.00381678343 5.28097153e-05 0.00409999862
v -0.00381678343 5.28097153e-05 0.00450000539
v -0.00373199582 1.60001218e-05 0.00409999862
v -0.00373199582 1.60001218e-05 0.00450000539
v -0.00373199582 -0.000744000077 0.00409999862
v -0.00373199582 -0.000744000077 0.00450000539
v -0.0021879971 -0.000280000269 0.00409999862
v -0.0021879971 -0.000280000269 0.00450000539
v -0.00209648907 -0.000191990286 0.00409999862
v -0.00209648907 -0.000191990286 0.00450000539
v -0.00200591981 -0.000111926347 0.00409999862
v -0.00200591981 -0.000111926347 0.00450000539
v -0.00191624463 -3.97507101e-05 0.00409999862
v -0.00191624463 -3.97507101e-05 0.00450000539
v -0.0018274039 2.45925039e-05 0.00409999862
v -0.0018274039 2.45925039e-05 0.00450000539
v -0.00173933804 8.11573118e-05 0.00409999862
v -0.00173933804 8.11573118e-05 0.00450000539
v -0.00165200233 0.000129999593 0.00409999862
v -0.00165200233 0.000129999593 0.00450000539
v -0.00156532228 0.000171175227 0.00409999862
v -0.00156532228 0.000171175227 0.00450000539
v -0.00147925317 0.000204740092 0.00409999862
v -0.00147925317 0.000204740092 0.00450000539
v -0.00139375031 0.000230750069 0.00409999862
v -0.00139375031 0.000230750069 0.00450000539
v -0.00130873919 0.000249259174 0.00409999862
v -0.00130873919 0.000249259174 0.00450000539
v -0.0012241751 0.000260323286 0.00409999862
v -0.0012241751 0.000260323286 0.00450000539
v -0.00113999844 0.000264000148 0.00409999862
v -0.00113999844 0.000264000148 0.00450000539
v -0.00102770329 0.00025934726 0.00409999862
v -0.00102770329 0.00025934726 0.00450000539
v -0.000918924809 0.000245444477 0.00409999862
v -0.000918924809 0.000245444477 0.00450000539
v -0.000813871622 0.000222375616 0.00409999862
v -0.000813871622 0.000222375616 0.00450000539
v -0.000712737441 0.000190222636 0.00409999862
v -0.000712737441 0.000190222636 0.00450000539
v -0.000615715981 0.000149069354 0.00409999862
v -0.000615715981 0.000149069354 0.00450000539
v -0.000523000956 9.89995897e-05 0.00409999862
v -0.000523000956 9.89995897e-05 0.00450000539
v -0.000434786081 4.00971621e-05 0.00409999862
v -0.000434786081 4.00971621e-05 0.00450000539
v -0.000351265073 -2.75559723e-05 0.00409999862
v -0.000351265073 -2.75559723e-05 0.00450000539
v -0.000272631645 -0.000103875995 0.00409999862
v -0.000272631645 -0.000103875995 0.00450000539
v -0.000199079514 -0.000188777223 0.00409999862
v -0.000199079514 -0.000188777223 0.00450000539
v -0.000130802393 -0.000282181427 0.00409999862
v -0.000130802393 -0.000282181427 0.00450000539
v -6.79939985e-05 -0.000384001061 0.00409999862
v -6.79939985e-05 -0.000384001061 0.00450000539
v 1.1369586e-05 -0.000297306105 0.00409999862
v 1.1369586e-05 -0.000297306105 0.00450000539
v 9.36686993e-05 -0.000213777646 0.00409999862
v 9.36686993e-05 -0.000213777646 0.00450000539
v 0.000179126859 -0.000134250149 0.00409999862
v 0.000179126859 -0.000134250149 0.00450000539
v 0.000267997384 -5.9556216e-05 0.00409999862
v 0.000267997384 -5.9556216e-05 0.00450000539
v 0.000360548496 9.47155058e-06 0.00409999862
v 0.000360548496 9.47155058e-06 0.00450000539
v 0.000457003713 7.20005482e-05 0.00409999862
v 0.000457003713 7.20005482e-05 0.00450000539
v 0.000557631254 0.000127194449 0.00409999862
v 0.000557631254 0.000127194449 0.00450000539
v 0.000662669539 0.000174222514 0.00409999862
v 0.000662669539 0.000174222514 0.00450000539
v 0.000772371888 0.000212250277 0.00409999862
v 0.000772371888 0.000212250277 0.00450000539
v 0.000887006521 0.000240445137 0.00409999862
v 0.000887006521 0.000240445137 0.00450000539
v 0.00100679696 0.000257972628 0.00409999862
v 0.00100679696 0.000257972628 0.00450000539
v 0.00113199651 0.000264000148 0.00409999862
v 0.00113199651 0.000264000148 0.00450000539
v 0.00130838156 0.000252490863 0.00409999862
v 0.00130838156 0.000252490863 0.00450000539
v 0.00147306919 0.000218592584 0.00409999862
v 0.00147306919 0.000218592584 0.00450000539
v 0.00162537396 0.000163249671 0.00409999862
v 0.00162537396 0.000163249671 0.00450000539
v 0.00176459551 8.74064863e-05 0.00409999862
v 0.00176459551 8.74064863e-05 0.00450000539
v 0.00189003348 -7.99074769e-06 0.00409999862
v 0.00189003348 -7.99074769e-06 0.00450000539
v 0.00200100243 -0.000121999532 0.00409999862
v 0.00200100243 -0.000121999532 0.00450000539
v 0.002096802 -0.000253675506 0.00409999862
v 0.002096802 -0.000253675506 0.00450000539
v 0.00217674673 -0.000402074307 0.00409999862
v 0.00217674673 -0.000402074307 0.00450000539
v 0.00224012136 -0.000566249713 0.00409999862
v 0.00224012136 -0.000566249713 0.00450000539
v 0.00228625536 -0.000745259225 0.00409999862
v 0.00228625536 -0.000745259225 0.00450000539
v 0.00231444836 -0.000938158482 0.00409999862
v 0.00231444836 -0.000938158482 0.00450000539
v 0.002324 -0.0011439994 0.00409999862
v 0.002324 -0.0011439994 0.00450000539
v 0.002324 -0.00339999981 0.00409999862
v 0.002324 -0.00339999981 0.00450000539
v 0.00161199272 -0.00339999981 0.00409999862
v 0.00161199272 -0.00339999981 0.00450000539
v 0.00161199272 -0.00117599964 0.00409999862
v 0.00161199272 -0.00117599964 0.00450000539
v 0.00160515308 -0.00104519539 0.00409999862
v 0.00160515308 -0.00104519539 0.00450000539
v 0.00158521533 -0.000924888998 0.00409999862
v 0.00158521533 -0.000924888998 0.00450000539
v 0.00155311823 -0.000815249979 0.00409999862
v 0.00155311823 -0.000815249979 0.00450000539
v 0.00150977075 -0.000716444105 0.00409999862
v 0.00150977075 -0.000716444105 0.00450000539
v 0.00145609677 -0.000628639013 0.00409999862
v 0.00145609677 -0.000628639013 0.00450000539
v 0.00139300525 -0.000552000478 0.00409999862
v 0.00139300525 -0.000552000478 0.00450000539
v 0.00132140517 -0.000486694276 0.00409999862
v 0.00132140517 -0.000486694276 0.00450000539
v 0.0012422204 -0.000432889909 0.00409999862
v 0.0012422204 -0.000432889909 0.00450000539
v 0.00115637481 -0.000390749425 0.00409999862
v 0.00115637481 -0.000390749425 0.00450000539
v 0.00106477737 -0.000360444188 0.00409999862
v 0.00106477737 -0.000360444188 0.00450000539
v 0.00096835196 -0.000342138112 0.00409999862
v 0.00096835196 -0.000342138112 0.00450000539
v 0.000868007541 -0.000336000696 0.00409999862
v 0.000868007541 -0.000336000696 0.00450000539
v 0.000808417797 -0.000338250771 0.00409999862
v 0.000808417797 -0.000338250771 0.00450000539
v 0.000745967031 -0.000348666683 0.00409999862
v 0.000745967031 -0.000348666683 0.00450000539
v 0.000681132078 -0.000366749242 0.00409999862
v 0.000681132078 -0.000366749242 0.00450000539
v 0.000614374876 -0.00039199926 0.00409999862
v 0.000614374876 -0.00039199926 0.00450000539
v 0.000546172261 -0.000423917547 0.00409999862
v 0.000546172261 -0.000423917547 0.00450000539
v 0.000477001071 -0.000461999327 0.00409999862
v 0.000477001071 -0.000461999327 0.00450000539
v 0.000407323241 -0.000505750999 0.00409999862
v 0.000407323241 -0.000505750999 0.00450000539
v 0.00033763051 -0.000554665923 0.00409999862
v 0.00033763051 -0.000554665923 0.00450000539
v 0.000268369913 -0.000608250499 0.00409999862
v 0.000268369913 -0.000608250499 0.00450000539
v 0.000200033188 -0.000665999949 0.00409999862
v 0.000200033188 -0.000665999949 0.00450000539
v 0.000133082271 -0.000727416947 0.00409999862
v 0.000133082271 -0.000727416947 0.00450000539
v 6.79939985e-05 -0.000792000443 0.00409999862
v 6.79939985e-05 -0.000792000443 0.00450000539
v 6.79939985e-05 -0.00339999981 0.00409999862
v 6.79939985e-05 -0.00339999981 0.00450000539
v -0.000643998384 -0.00339999981 0.00409999862
v -0.000643998384 -0.00339999981 0.00450000539
v -0.000643998384 -0.00116799958 0.00409999862
v -0.000643998384 -0.00116799958 0.00450000539
v -0.000650033355 -0.00102894939 0.00409999862
v -0.000650033355 -0.00102894939 0.00450000539
v -0.00066755712 -0.000903593376 0.00409999862
v -0.00066755712 -0.000903593376 0.00450000539
v -0.000695750117 -0.000791624188 0.00409999862
v -0.000695750117 -0.000791624188 0.00450000539
v -0.000733777881 -0.000692740083 0.00409999862
v -0.000733777881 -0.000692740083 0.00450000539
v -0.000780805945 -0.000606633723 0.00409999862
v -0.000780805945 -0.000606633723 0.00450000539
v -0.000835999846 -0.000532999635 0.00409999862
v -0.000835999846 -0.000532999635 0.00450000539
v -0.000898525119 -0.000471532345 0.00409999862
v -0.000898525119 -0.000471532345 0.00450000539
v -0.000967562199 -0.000421926379 0.00409999862
v -0.000967562199 -0.000421926379 0.00450000539
v -0.00104224682 -0.000383874401 0.00409999862
v -0.00104224682 -0.000383874401 0.00450000539
v -0.00112177432 -0.000357074663 0.00409999862
v -0.00112177432 -0.000357074663 0.00450000539
v -0.00120531023 -0.000341217965 0.00409999862
v -0.00120531023 -0.000341217965 0.00450000539
v -0.00129200518 -0.000336000696 0.00409999862
v -0.00129200518 -0.000336000696 0.00450000539
v -0.00137960911 -0.000338403508 0.00409999862
v -0.00137960911 -0.000338403508 0.00450000539
v -0.00146281719 -0.000345889479 0.00409999862
v -0.00146281719 -0.000345889479 0.00450000539
v -0.00154225528 -0.000358875841 0.00409999862
v -0.00154225528 -0.000358875841 0.00450000539
v -0.00161851943 -0.000377777964 0.00409999862
v -0.00161851943 -0.000377777964 0.00450000539
v -0.00169223547 -0.00040301308 0.00409999862
v -0.00169223547 -0.00040301308 0.00450000539
v -0.00176399946 -0.000435000286 0.00409999862
v -0.00176399946 -0.000435000286 0.00450000539
v -0.00183443725 -0.000474153087 0.00409999862
v -0.00183443725 -0.000474153087 0.00450000539
v -0.00190414488 -0.000520888716 0.00409999862
v -0.00190414488 -0.000520888716 0.00450000539
v -0.00197374821 -0.000575624406 0.00409999862
v -0.00197374821 -0.000575624406 0.00450000539
v -0.00204385817 -0.00063877739 0.00409999862
v -0.00204385817 -0.00063877739 0.00450000539
v -0.00211507082 -0.0007107649 0.00409999862
v -0.00211507082 -0.0007107649 0.00450000539
v -0.0021879971 -0.000792000443 0.00409999862
v -0.0021879971 -0.000792000443 0.00450000539
v -0.0021879971 -0.00339999981 0.00409999862
v -0.0021879971 -0.00339999981 0.00450000539
v -0.00290000439 -0.00339999981 0.00409999862
v -0.00290000439 -0.00339999981 0.00450000539
v -0.00290000439 0.000191999599 0.00409999862
v -0.00290000439 0.000191999599 0.00450000539
v -0.0021879971 0.000191999599 0.00409999862
v -0.0021879971 0.000191999599 0.00450000539
v 0.00489200652 -0.00339999981 0.00409999862
v 0.00489200652 -0.00339999981 0.00450000539
v 0.00463248789 -0.00338500924 0.00409999862
v 0.00463248789 -0.00338500924 0.00450000539
v 0.00439059734 -0.00334074162 0.00409999862
v 0.00439059734 -0.00334074162 0.00450000539
v 0.00416724384 -0.0032682512 0.00409999862
v 0.00416724384 -0.0032682512 0.00450000539
v 0.00396341085 -0.00316859409 0.00409999862
v 0.00396341085 -0.00316859409 0.00450000539
v 0.00378000736 -0.00304282457 0.00409999862
v 0.00378000736 -0.00304282457 0.00450000539
v 0.00361800194 -0.0028920006 0.00409999862
v 0.00361800194 -0.0028920006 0.00450000539
v 0.00347831845 -0.00271717645 0.00409999862
v 0.00347831845 -0.00271717645 0.00450000539
v 0.00336192548 -0.00251940824 0.00409999862
v 0.00336192548 -0.00251940824 0.00450000539
v 0.0032697469 -0.00229975022 0.00409999862
v 0.0032697469 -0.00229975022 0.00450000539
v 0.00320273638 -0.00205925852 0.00409999862
v 0.00320273638 -0.00205925852 0.00450000539
v 0.00316184759 -0.00179899111 0.00409999862
v 0.00316184759 -0.00179899111 0.00450000539
v 0.00314800441 -0.0015200004 0.00409999862
v 0.00314800441 -0.0015200004 0.00450000539
v 0.0031632483 -0.00126642548 0.00409999862
v 0.0031632483 -0.00126642548 0.00450000539
v 0.00320796669 -0.0010267403 0.00409999862
v 0.00320796669 -0.0010267403 0.00450000539
v 0.00328062475 -0.000802500173 0.00409999862
v 0.00328062475 -0.000802500173 0.00450000539
v 0.00337970257 -0.000595258549 0.00409999862
v 0.00337970257 -0.000595258549 0.00450000539
v 0.00350366533 -0.000406574458 0.00409999862
v 0.00350366533 -0.000406574458 0.00450000539
v 0.00365100801 -0.000237999484 0.00409999862
v 0.00365100801 -0.000237999484 0.00450000539
v 0.00382016599 -9.1092661e-05 0.00409999862
v 0.00382016599 -9.1092661e-05 0.00450000539
v 0.00400963426 3.25925648e-05 0.00409999862
v 0.00400963426 3.25925648e-05 0.00450000539
v 0.00421787798 0.000131499022 0.00409999862
v 0.00421787798 0.000131499022 0.00450000539
v 0.00444337726 0.000204073265 0.00409999862
v 0.00444337726 0.000204073265 0.00450000539
v 0.00468458235 0.000248759985 0.00409999862
v 0.00468458235 0.000248759985 0.00450000539
v 0.00494000316 0.000264000148 0.00409999862
v 0.00494000316 0.000264000148 0.00450000539
v 0.00499971211 0.000263152644 0.00409999862
v 0.00499971211 0.000263152644 0.00450000539
v 0.00505903363 0.000260556117 0.00409999862
v 0.00505903363 0.000260556117 0.00450000539
v 0.00511825085 0.000256124884 0.00409999862
v 0.00511825085 0.000256124884 0.00450000539
v 0.00517763197 0.000249776989 0.00409999862
v 0.00517763197 0.000249776989 0.00450000539
v 0.00523746014 0.000241430476 0.00409999862
v 0.00523746014 0.000241430476 0.00450000539
v 0.00529800355 0.000230999663 0.00409999862
v 0.00529800355 0.000230999663 0.00450000539
v 0.00535954535 0.000218402594 0.00409999862
v 0.00535954535 0.000218402594 0.00450000539
v 0.00542236865 0.00020355545 0.00409999862
v 0.00542236865 0.00020355545 0.00450000539
v 0.00548675656 0.000186374411 0.00409999862
v 0.00548675656 0.000186374411 0.00450000539
v 0.00555296242 0.000166777521 0.00409999862
v 0.00555296242 0.000166777521 0.00450000539
v 0.00562128425 0.000144680962 0.00409999862
v 0.00562128425 0.000144680962 0.00450000539
v 0.00569200516 0.000119999051 0.00409999862
v 0.00569200516 0.000119999051 0.00450000539
v 0.00569200516 0.00205600075 0.00409999862
v 0.00569200516 0.00205600075 0.00450000539
v 0.00640399754 0.00205600075 0.00409999862
v 0.00640399754 0.00205600075 0.00450000539
v 0.00640399754 -0.00339999981 0.00409999862
v 0.00640399754 -0.00339999981 0.00450000539
v 0.00563310087 -0.000489156693 0.00409999862
v 0.00563310087 -0.000489156693 0.00450000539
v 0.00557614863 -0.000468593091 0.00409999862
v 0.00557614863 -0.000468593091 0.00450000539
v 0.00552074611 -0.000450249761 0.00409999862
v 0.00552074611 -0.000450249761 0.00450000539
v 0.00546652079 -0.000434074551 0.00409999862
v 0.00546652079 -0.000434074551 0.00450000539
v 0.00541307032 -0.000420009717 0.00409999862
v 0.00541307032 -0.000420009717 0.00450000539
v 0.00536000729 -0.000407999381 0.00409999862
v 0.00536000729 -0.000407999381 0.00450000539
v 0.00530692935 -0.000397991389 0.00409999862
v 0.00530692935 -0.000397991389 0.00450000539
v 0.00525347888 -0.000389926136 0.00409999862
v 0.00525347888 -0.000389926136 0.00450000539
v 0.00519925356 -0.000383749604 0.00409999862
v 0.00519925356 -0.000383749604 0.00450000539
v 0.00514385104 -0.000379407778 0.00409999862
v 0.00514385104 -0.000379407778 0.00450000539
v 0.0050868988 -0.000376842916 0.00409999862
v 0.0050868988 -0.000376842916 0.00450000539
v 0.00502799451 -0.000376001 0.00409999862
v 0.00502799451 -0.000376001 0.00450000539
v 0.00486080348 -0.000386195257 0.00409999862
v 0.00486080348 -0.000386195257 0.00450000539
v 0.00470377505 -0.00041622296 0.00409999862
v 0.00470377505 -0.00041622296 0.00450000539
v 0.00455774367 -0.000465249643 0.00409999862
v 0.00455774367 -0.000465249643 0.00450000539
v 0.00442355871 -0.000532444566 0.00409999862
v 0.00442355871 -0.000532444566 0.00450000539
v 0.00430202484 -0.000616973266 0.00409999862
v 0.00430202484 -0.000616973266 0.00450000539
v 0.00419400632 -0.000717999414 0.00409999862
v 0.00419400632 -0.000717999414 0.00450000539
v 0.00410030782 -0.000834694132 0.00409999862
v 0.00410030782 -0.000834694132 0.00450000539
v 0.0040217787 -0.000966222957 0.00409999862
v 0.0040217787 -0.000966222957 0.00450000539
v 0.00395925343 -0.00111174956 0.00409999862
v 0.00395925343 -0.00111174956 0.00450000539
v 0.00391355157 -0.00127044506 0.00409999862
v 0.00391355157 -0.00127044506 0.00450000539
v 0.00388552248 -0.00144147314 0.00409999862
v 0.00388552248 -0.00144147314 0.00450000539
v 0.00387600064 -0.00162399933 0.00409999862
v 0.00387600064 -0.00162399933 0.00450000539
v 0.003881827 -0.00178830512 0.00409999862
v 0.003881827 -0.00178830512 0.00450000539
v 0.00389996171 -0.00194444507 0.00409999862
v 0.00389996171 -0.00194444507 0.00450000539
v 0.00393137336 -0.00209124945 0.00409999862
v 0.00393137336 -0.00209124945 0.00450000539
v 0.00397704542 -0.00222755596 0.00409999862
v 0.00397704542 -0.00222755596 0.00450000539
v 0.00403791666 -0.00235219486 0.00409999862
v 0.00403791666 -0.00235219486 0.00450000539
v 0.00411500037 -0.00246400014 0.00409999862
v 0.00411500037 -0.00246400014 0.00450000539
v 0.00420925021 -0.00256180577 0.00409999862
v 0.00420925021 -0.00256180577 0.00450000539
v 0.00432163477 -0.00264444575 0.00409999862
v 0.00432163477 -0.00264444575 0.00450000539
v 0.00445312262 -0.00271075033 0.00409999862
v 0.00445312262 -0.00271075033 0.00450000539
v 0.00460471213 -0.00275955535 0.00409999862
v 0.00460471213 -0.00275955535 0.00450000539
v 0.00477734208 -0.00278969482 0.00409999862
v 0.00477734208 -0.00278969482 0.00450000539
v 0.00497199595 -0.00280000083 0.00409999862
v 0.00497199595 -0.00280000083 0.00450000539
v 0.00569200516 -0.00280000083 0.00409999862
v 0.00569200516 -0.00280000083 0.00450000539
v 0.00569200516 -0.000512000173 0.00409999862
v 0.00569200516 -0.000512000173 0.00450000539
usemtl screen_white_text_003
f 189 191 190
f 189 192 191
f 176 178 177
f 176 179 178
f 176 180 179
f 176 181 180
f 176 182 181
f 175 182 176
f 175 183 182
f 175 184 183
f 175 185 184
f 174 185 175
f 174 186 185
f 174 187 186
f 174 188 187
f 174 189 188
f 173 189 174
f 173 195 189
f 195 194 189
f 194 193 189
f 193 230 189
f 230 192 189
f 172 198 173
f 198 197 173
f 197 196 173
f 196 195 173
f 171 201 172
f 201 200 172
f 200 199 172
f 199 198 172
f 170 204 171
f 204 203 171
f 203 202 171
f 202 201 171
f 170 205 204
f 170 206 205
f 169 206 170
f 169 207 206
f 169 208 207
f 229 192 230
f 169 209 208
f 168 209 169
f 168 210 209
f 168 211 210
f 167 211 168
f 167 212 211
f 167 213 212
f 166 213 167
f 166 214 213
f 165 214 166
f 165 215 214
f 165 216 215
f 164 216 165
f 164 217 216
f 164 218 217
f 163 218 164
f 163 219 218
f 162 219 163
f 162 220 219
f 162 221 220
f 161 221 162
f 161 222 221
f 161 223 222
f 160 223 161
f 160 224 223
f 160 225 224
f 160 226 225
f 159 226 160
f 159 227 226
f 159 228 227
f 159 229 228
f 159 192 229
f 158 192 159
f 157 192 158
f 156 192 157
f 155 192 156
f 154 192 155
f 153 192 154
f 242 244 243
f 266 268 267
f 241 244 242
f 241 245 244
f 265 268 266
f 265 269 268
f 240 245 241
f 240 246 245
f 264 269 265
f 239 246 240
f 239 247 246
f 264 270 269
f 263 270 264
f 238 247 239
f 335 337 336
f 335 231 337
f 238 248 247
f 262 270 263
f 237 248 238
f 262 271 270
f 237 249 248
f 236 249 237
f 261 271 262
f 236 250 249
f 261 272 271
f 235 250 236
f 260 272 261
f 235 251 250
f 234 251 235
f 259 272 260
f 259 273 272
f 234 252 251
f 233 252 234
f 258 273 259
f 233 253 252
f 232 253 233
f 258 274 273
f 257 274 258
f 232 254 253
f 231 254 232
f 256 274 257
f 256 294 274
f 294 275 274
f 335 333 231
f 333 332 231
f 332 331 231
f 331 330 231
f 330 329 231
f 329 328 231
f 328 327 231
f 327 326 231
f 326 325 231
f 325 324 231
f 324 323 231
f 323 322 231
f 322 254 231
f 322 321 254
f 321 255 254
f 255 295 256
f 295 294 256
f 320 255 321
f 293 275 294
f 255 296 295
f 319 255 320
f 292 275 293
f 255 297 296
f 318 255 319
f 291 275 292
f 255 298 297
f 317 255 318
f 317 298 255
f 290 275 291
f 317 299 298
f 290 276 275
f 316 299 317
f 316 300 299
f 289 276 290
f 316 301 300
f 315 301 316
f 288 276 289
f 315 302 301
f 314 302 315
f 287 276 288
f 314 303 302
f 287 277 276
f 313 303 314
f 313 304 303
f 286 277 287
f 313 305 304
f 312 305 313
f 285 277 286
f 312 306 305
f 285 278 277
f 311 306 312
f 335 334 333
f 311 307 306
f 284 278 285
f 310 307 311
f 283 278 284
f 283 279 278
f 309 307 310
f 282 279 283
f 282 280 279
f 308 307 309
f 281 280 282
f 421 423 422
f 421 424 423
f 421 425 424
f 420 425 421
f 420 426 425
f 420 427 426
f 420 428 427
f 419 428 420
f 419 429 428
f 419 430 429
f 419 431 430
f 418 431 419
f 418 432 431
f 418 433 432
f 418 434 433
f 417 434 418
f 417 345 434
f 345 344 434
f 344 343 434
f 343 342 434
f 342 341 434
f 341 340 434
f 340 339 434
f 339 338 434
f 338 435 434
f 416 347 417
f 347 346 417
f 346 345 417
f 415 349 416
f 349 348 416
f 348 347 416
f 415 350 349
f 415 351 350
f 415 352 351
f 414 352 415
f 414 353 352
f 414 354 353
f 414 355 354
f 413 355 414
f 413 356 355
f 413 357 356
f 412 357 413
f 412 358 357
f 412 359 358
f 411 359 412
f 411 360 359
f 410 360 411
f 410 361 360
f 410 362 361
f 409 362 410
f 409 363 362
f 408 363 409
f 408 364 363
f 408 365 364
f 407 365 408
f 407 366 365
f 407 367 366
f 406 367 407
f 406 368 367
f 384 386 385
f 406 369 368
f 383 386 384
f 405 369 406
f 382 386 383
f 405 370 369
f 381 386 382
f 380 386 381
f 379 386 380
f 405 371 370
f 378 386 379
f 377 386 378
f 405 372 371
f 376 386 377
f 375 386 376
f 405 373 372
f 374 386 375
f 404 373 405
f 373 386 374
f 404 386 373
f 403 386 404
f 402 386 403
f 401 386 402
f 401 387 386
f 401 388 387
f 401 389 388
f 400 389 401
f 400 390 389
f 400 391 390
f 400 392 391
f 400 393 392
f 399 393 400
f 399 394 393
f 399 395 394
f 399 396 395
f 398 396 399
f 398 397 396
f 472 473 474
f 472 474 475
f 459 460 461
f 459 461 462
f 459 462 463
f 459 463 464
f 459 464 465
f 458 459 465
f 458 465 466
f 458 466 467
f 458 467 468
f 457 458 468
f 457 468 469
f 457 469 470
f 457 470 471
f 457 471 472
f 456 457 472
f 456 472 478
f 478 472 477
f 477 472 476
f 476 472 513
f 513 472 475
f 455 456 481
f 481 456 480
f 480 456 479
f 479 456 478
f 454 455 484
f 484 455 483
f 483 455 482
f 482 455 481
f 453 454 487
f 487 454 486
f 486 454 485
f 485 454 484
f 453 487 488
f 453 488 489
f 452 453 489
f 452 489 490
f 452 490 491
f 512 513 475
f 452 491 492
f 451 452 492
f 451 492 493
f 451 493 494
f 450 451 494
f 450 494 495
f 450 495 496
f 449 450 496
f 449 496 497
f 448 449 497
f 448 497 498
f 448 498 499
f 447 448 499
f 447 499 500
f 447 500 501
f 446 447 501
f 446 501 502
f 445 446 502
f 445 502 503
f 445 503 504
f 444 445 504
f 444 504 505
f 444 505 506
f 443 444 506
f 443 506 507
f 443 507 508
f 443 508 509
f 442 443 509
f 442 509 510
f 442 510 511
f 442 511 512
f 442 512 475
f 441 442 475
f 440 441 475
f 439 440 475
f 438 439 475
f 437 438 475
f 436 437 475
f 525 526 527
f 549 550 551
f 524 525 527
f 524 527 528
f 548 549 551
f 548 551 552
f 523 524 528
f 523 528 529
f 547 548 552
f 522 523 529
f 522 529 530
f 547 552 553
f 546 547 553
f 521 522 530
f 618 619 620
f 618 620 514
f 521 530 531
f 545 546 553
f 520 521 531
f 545 553 554
f 520 531 532
f 519 520 532
f 544 545 554
f 519 532 533
f 544 554 555
f 518 519 533
f 543 544 555
f 518 533 534
f 517 518 534
f 542 543 555
f 542 555 556
f 517 534 535
f 516 517 535
f 541 542 556
f 516 535 536
f 515 516 536
f 541 556 557
f 540 541 557
f 515 536 537
f 514 515 537
f 539 540 557
f 539 557 577
f 577 557 558
f 618 514 616
f 616 514 615
f 615 514 614
f 614 514 613
f 613 514 612
f 612 514 611
f 611 514 610
f 610 514 609
f 609 514 608
f 608 514 607
f 607 514 606
f 606 514 605
f 605 514 537
f 605 537 604
f 604 537 538
f 538 539 578
f 578 539 577
f 603 604 538
f 576 577 558
f 538 578 579
f 602 603 538
f 575 576 558
f 538 579 580
f 601 602 538
f 574 575 558
f 538 580 581
f 600 601 538
f 600 538 581
f 573 574 558
f 600 581 582
f 573 558 559
f 599 600 582
f 599 582 583
f 572 573 559
f 599 583 584
f 598 599 584
f 571 572 559
f 598 584 585
f 597 598 585
f 570 571 559
f 597 585 586
f 570 559 560
f 596 597 586
f 596 586 587
f 569 570 560
f 596 587 588
f 595 596 588
f 568 569 560
f 595 588 589
f 568 560 561
f 594 595 589
f 618 616 617
f 594 589 590
f 567 568 561
f 593 594 590
f 566 567 561
f 566 561 562
f 592 593 590
f 565 566 562
f 565 562 563
f 591 592 590
f 564 565 563
f 704 705 706
f 704 706 707
f 704 707 708
f 703 704 708
f 703 708 709
f 703 709 710
f 703 710 711
f 702 703 711
f 702 711 712
f 702 712 713
f 702 713 714
f 701 702 714
f 701 714 715
f 701 715 716
f 701 716 717
f 700 701 717
f 700 717 628
f 628 717 627
f 627 717 626
f 626 717 625
f 625 717 624
f 624 717 623
f 623 717 622
f 622 717 621
f 621 717 718
f 699 700 630
f 630 700 629
f 629 700 628
f 698 699 632
f 632 699 631
f 631 699 630
f 698 632 633
f 698 633 634
f 698 634 635
f 697 698 635
f 697 635 636
f 697 636 637
f 697 637 638
f 696 697 638
f 696 638 639
f 696 639 640
f 695 696 640
f 695 640 641
f 695 641 642
f 694 695 642
f 694 642 643
f 693 694 643
f 693 643 644
f 693 644 645
f 692 693 645
f 692 645 646
f 691 692 646
f 691 646 647
f 691 647 648
f 690 691 648
f 690 648 649
f 690 649 650
f 689 690 650
f 689 650 651
f 667 668 669
f 689 651 652
f 666 667 669
f 688 689 652
f 665 666 669
f 688 652 653
f 664 665 669
f 663 664 669
f 662 663 669
f 688 653 654
f 661 662 669
f 660 661 669
f 688 654 655
f 659 660 669
f 658 659 669
f 688 655 656
f 657 658 669
f 687 688 656
f 656 657 669
f 687 656 669
f 686 687 669
f 685 686 669
f 684 685 669
f 684 669 670
f 684 670 671
f 684 671 672
f 683 684 672
f 683 672 673
f 683 673 674
f 683 674 675
f 683 675 676
f 682 683 676
f 682 676 677
f 682 677 678
f 682 678 679
f 681 682 679
f 681 679 680
f 720 722 721 719
f 722 724 723 721
f 724 726 725 723
f 726 728 727 725
f 728 730 729 727
f 730 732 731 729
f 732 734 733 731
f 734 736 735 733
f 736 738 737 735
f 738 740 739 737
f 740 742 741 739
f 742 744 743 741
f 744 746 745 743
f 746 748 747 745
f 748 750 749 747
f 750 752 751 749
f 752 754 753 751
f 754 756 755 753
f 756 758 757 755
f 758 760 759 757
f 760 762 761 759
f 762 764 763 761
f 764 766 765 763
f 766 768 767 765
f 768 770 769 767
f 770 772 771 769
f 772 774 773 771
f 774 776 775 773
f 776 778 777 775
f 778 780 779 777
f 780 782 781 779
f 782 784 783 781
f 784 786 785 783
f 786 788 787 785
f 788 790 789 787
f 790 792 791 789
f 792 794 793 791
f 794 796 795 793
f 796 798 797 795
f 798 800 799 797
f 800 802 801 799
f 802 804 803 801
f 804 806 805 803
f 806 808 807 805
f 808 810 809 807
f 810 812 811 809
f 812 814 813 811
f 814 816 815 813
f 816 818 817 815
f 818 820 819 817
f 820 822 821 819
f 822 824 823 821
f 824 826 825 823
f 826 828 827 825
f 828 830 829 827
f 830 832 831 829
f 832 834 833 831
f 834 836 835 833
f 836 838 837 835
f 838 840 839 837
f 840 842 841 839
f 842 844 843 841
f 844 846 845 843
f 846 848 847 845
f 848 850 849 847
f 850 852 851 849
f 852 854 853 851
f 854 856 855 853
f 856 858 857 855
f 858 860 859 857
f 860 862 861 859
f 862 864 863 861
f 864 866 865 863
f 866 868 867 865
f 868 870 869 867
f 870 872 871 869
f 872 874 873 871
f 874 876 875 873
f 876 878 877 875
f 878 880 879 877
f 880 882 881 879
f 882 884 883 881
f 884 886 885 883
f 886 888 887 885
f 888 890 889 887
f 890 892 891 889
f 892 894 893 891
f 894 896 895 893
f 896 898 897 895
f 898 900 899 897
f 900 902 901 899
f 902 904 903 901
f 904 906 905 903
f 906 908 907 905
f 908 910 909 907
f 910 912 911 909
f 912 914 913 911
f 914 720 719 913
f 916 918 917 915
f 918 920 919 917
f 920 922 921 919
f 922 924 923 921
f 924 926 925 923
f 926 928 927 925
f 928 930 929 927
f 930 932 931 929
f 932 934 933 931
f 934 936 935 933
f 936 938 937 935
f 938 940 939 937
f 940 942 941 939
f 942 944 943 941
f 944 946 945 943
f 946 948 947 945
f 948 950 949 947
f 950 952 951 949
f 952 954 953 951
f 954 956 955 953
f 956 958 957 955
f 958 960 959 957
f 960 962 961 959
f 962 964 963 961
f 964 966 965 963
f 966 968 967 965
f 968 970 969 967
f 970 972 971 969
f 972 974 973 971
f 974 976 975 973
f 976 978 977 975
f 978 980 979 977
f 980 982 981 979
f 982 984 983 981
f 984 986 985 983
f 986 988 987 985
f 988 990 989 987
f 990 992 991 989
f 992 994 993 991
f 994 996 995 993
f 996 998 997 995
f 998 1000 999 997
f 1000 1002 1001 999
f 1002 1004 1003 1001
f 1004 1006 1005 1003
f 1006 1008 1007 1005
f 1008 1010 1009 1007
f 1010 1012 1011 1009
f 1012 1014 1013 1011
f 1014 1016 1015 1013
f 1016 1018 1017 1015
f 1018 1020 1019 1017
f 1020 1022 1021 1019
f 1022 1024 1023 1021
f 1024 1026 1025 1023
f 1026 1028 1027 1025
f 1028 1030 1029 1027
f 1030 1032 1031 1029
f 1032 1034 1033 1031
f 1034 1036 1035 1033
f 1036 1038 1037 1035
f 1038 1040 1039 1037
f 1040 1042 1041 1039
f 1042 1044 1043 1041
f 1044 1046 1045 1043
f 1046 1048 1047 1045
f 1048 1050 1049 1047
f 1050 1052 1051 1049
f 1052 1054 1053 1051
f 1054 1056 1055 1053
f 1056 1058 1057 1055
f 1058 1060 1059 1057
f 1060 1062 1061 1059
f 1062 1064 1063 1061
f 1064 1066 1065 1063
f 1066 1068 1067 1065
f 1068 1070 1069 1067
f 1070 1072 1071 1069
f 1072 1074 1073 1071
f 1074 1076 1075 1073
f 1076 1078 1077 1075
f 1078 1080 1079 1077
f 1080 1082 1081 1079
f 1082 1084 1083 1081
f 1084 1086 1085 1083
f 1086 1088 1087 1085
f 1088 1090 1089 1087
f 1090 1092 1091 1089
f 1092 1094 1093 1091
f 1094 1096 1095 1093
f 1096 1098 1097 1095
f 1098 1100 1099 1097
f 1100 1102 1101 1099
f 1102 1104 1103 1101
f 1104 1106 1105 1103
f 1106 1108 1107 1105
f 1108 1110 1109 1107
f 1110 1112 1111 1109
f 1112 1114 1113 1111
f 1114 1116 1115 1113
f 1116 1118 1117 1115
f 1118 1120 1119 1117
f 1120 1122 1121 1119
f 1122 1124 1123 1121
f 1124 1126 1125 1123
f 1126 1128 1127 1125
f 1128 916 915 1127
f 1130 1132 1131 1129
f 1132 1134 1133 1131
f 1134 1136 1135 1133
f 1136 1138 1137 1135
f 1138 1140 1139 1137
f 1140 1142 1141 1139
f 1142 1144 1143 1141
f 1144 1146 1145 1143
f 1146 1148 1147 1145
f 1148 1150 1149 1147
f 1150 1152 1151 1149
f 1152 1154 1153 1151
f 1154 1156 1155 1153
f 1156 1158 1157 1155
f 1158 1160 1159 1157
f 1160 1162 1161 1159
f 1162 1164 1163 1161
f 1164 1166 1165 1163
f 1166 1168 1167 1165
f 1168 1170 1169 1167
f 1170 1172 1171 1169
f 1172 1174 1173 1171
f 1174 1176 1175 1173
f 1176 1178 1177 1175
f 1178 1180 1179 1177
f 1180 1182 1181 1179
f 1182 1184 1183 1181
f 1184 1186 1185 1183
f 1186 1188 1187 1185
f 1188 1190 1189 1187
f 1190 1192 1191 1189
f 1192 1194 1193 1191
f 1194 1196 1195 1193
f 1196 1198 1197 1195
f 1198 1200 1199 1197
f 1200 1202 1201 1199
f 1202 1204 1203 1201
f 1204 1206 1205 1203
f 1206 1208 1207 1205
f 1208 1130 1129 1207
f 1210 1212 1211 1209
f 1212 1214 1213 1211
f 1214 1216 1215 1213
f 1216 1218 1217 1215
f 1218 1220 1219 1217
f 1220 1222 1221 1219
f 1222 1224 1223 1221
f 1224 1226 1225 1223
f 1226 1228 1227 1225
f 1228 1230 1229 1227
f 1230 1232 1231 1229
f 1232 1234 1233 1231
f 1234 1236 1235 1233
f 1236 1238 1237 1235
f 1238 1240 1239 1237
f 1240 1242 1241 1239
f 1242 1244 1243 1241
f 1244 1246 1245 1243
f 1246 1248 1247 1245
f 1248 1250 1249 1247
f 1250 1252 1251 1249
f 1252 1254 1253 1251
f 1254 1256 1255 1253
f 1256 1258 1257 1255
f 1258 1260 1259 1257
f 1260 1262 1261 1259
f 1262 1264 1263 1261
f 1264 1266 1265 1263
f 1266 1268 1267 1265
f 1268 1270 1269 1267
f 1270 1272 1271 1269
f 1272 1274 1273 1271
f 1274 1276 1275 1273
f 1276 1278 1277 1275
f 1278 1280 1279 1277
f 1280 1282 1281 1279
f 1282 1284 1283 1281
f 1284 1210 1209 1283
