mtllib keyboard_key_bottom_1_ctrl_link.mtl
o keyboard_key_bottom_1_ctrl_link

g keyboard_key_bottom_1_ctrl_SOLID
v -0.0189999938 -0.0164999999 0
v -0.0189999938 -0.0130000003 -0.00349999964
v -0.0225000083 -0.0130000003 0
v -0.0189999938 -0.0162335783 -0.0013393946
v -0.0189999938 -0.0154748745 -0.00247487426
v -0.0203393996 -0.0162335783 0
v -0.020372957 -0.0159120411 -0.00137295946
v -0.020303309 -0.0152968913 -0.00229689106
v -0.0210207403 -0.0150207281 -0.00202072784
v -0.0203393996 -0.0130000003 -0.00323357806
v -0.0214748681 -0.0130000003 -0.00247487426
v -0.0189999938 -0.0143393911 -0.00323357806
v -0.020372957 -0.0143729597 -0.0029120408
v -0.0212968886 -0.0143032968 -0.00229689106
v -0.0222335756 -0.0143393911 0
v -0.0214748681 -0.0154748745 0
v -0.0222335756 -0.0130000003 -0.00133939087
v -0.0219120383 -0.0143729597 -0.00137295946
v -0.0212968886 -0.0152968913 -0.00130329654
v 0.0189999938 -0.0164999999 0
v 0.0225000083 -0.0130000003 0
v 0.0189999938 -0.0130000003 -0.00349999964
v 0.0203393996 -0.0162335783 0
v 0.0214748681 -0.0154748745 0
v 0.0189999938 -0.0162335783 -0.00133939087
v 0.020372957 -0.0159120411 -0.00137295946
v 0.0212968886 -0.0152968913 -0.00130329654
v 0.0210207254 -0.0150207281 -0.00202072784
v 0.0222335756 -0.0130000003 -0.0013393946
v 0.0214748681 -0.0130000003 -0.00247487426
v 0.0222335756 -0.0143393911 0
v 0.0219120383 -0.0143729597 -0.00137295946
v 0.0212968886 -0.0143032968 -0.00229689106
v 0.0189999938 -0.0143393911 -0.00323357806
v 0.0189999938 -0.0154748745 -0.00247487426
v 0.0203393996 -0.0130000003 -0.00323357806
v 0.020372957 -0.0143729597 -0.0029120408
v 0.0203032941 -0.0152968913 -0.00229689106
v 0.0189999938 0.0164999999 0
v 0.0189999938 0.0130000003 -0.00349999964
v 0.0225000083 0.0130000003 0
v 0.0189999938 0.0162335783 -0.0013393946
v 0.0189999938 0.0154748736 -0.00247487426
v 0.0203393996 0.0162335783 0
v 0.020372957 0.0159120392 -0.00137295946
v 0.0203032941 0.0152968913 -0.00229689106
v 0.0210207254 0.0150207262 -0.00202072784
v 0.0203393996 0.0130000003 -0.00323357806
v 0.0214748681 0.0130000003 -0.00247487426
v 0.0189999938 0.0143393921 -0.00323357806
v 0.020372957 0.0143729588 -0.0029120408
v 0.0212968886 0.0143032968 -0.00229689106
v 0.0222335756 0.0143393921 0
v 0.0214748681 0.0154748736 0
v 0.0222335756 0.0130000003 -0.00133939087
v 0.0219120383 0.0143729588 -0.00137295946
v 0.0212968886 0.0152968913 -0.00130329654
v -0.0189999938 0.0164999999 0
v -0.0225000083 0.0130000003 0
v -0.0189999938 0.0130000003 -0.00349999964
v -0.0203393996 0.0162335783 0
v -0.0214748681 0.0154748736 0
v -0.0189999938 0.0162335783 -0.00133939087
v -0.020372957 0.0159120392 -0.00137295946
v -0.0212968886 0.0152968913 -0.00130329654
v -0.0210207403 0.0150207262 -0.00202072784
v -0.0222335756 0.0130000003 -0.0013393946
v -0.0214748681 0.0130000003 -0.00247487426
v -0.0222335756 0.0143393921 0
v -0.0219120383 0.0143729588 -0.00137295946
v -0.0212968886 0.0143032968 -0.00229689106
v -0.0189999938 0.0143393921 -0.00323357806
v -0.0189999938 0.0154748736 -0.00247487426
v -0.0203393996 0.0130000003 -0.00323357806
v -0.020372957 0.0143729588 -0.0029120408
v -0.020303309 0.0152968913 -0.00229689106
v -0.0225000083 -0.0130000003 0
v -0.0189999938 -0.0130000003 0.00350000337
v -0.0189999938 -0.0164999999 0
v -0.0222335756 -0.0130000003 0.0013393946
v -0.0214748681 -0.0130000003 0.00247487426
v -0.0222335756 -0.0143393911 0
v -0.0219120383 -0.0143729597 0.00137295946
v -0.0212968886 -0.0143032968 0.00229689106
v -0.0210207403 -0.0150207281 0.00202072784
v -0.0189999938 -0.0143393911 0.00323357806
v -0.0189999938 -0.0154748745 0.00247487426
v -0.0203393996 -0.0130000003 0.00323357806
v -0.020372957 -0.0143729597 0.0029120408
v -0.020303309 -0.0152968913 0.00229689106
v -0.0203393996 -0.0162335783 0
v -0.0214748681 -0.0154748745 0
v -0.0189999938 -0.0162335783 0.00133939087
v -0.020372957 -0.0159120411 0.00137295946
v -0.0212968886 -0.0152968913 0.00130329654
v 0.0189999938 -0.0164999999 0
v 0.0189999938 -0.0130000003 0.00350000337
v 0.0225000083 -0.0130000003 0
v 0.0189999938 -0.0162335783 0.0013393946
v 0.0189999938 -0.0154748745 0.00247487426
v 0.0203393996 -0.0162335783 0
v 0.020372957 -0.0159120411 0.00137295946
v 0.0203032941 -0.0152968913 0.00229689106
v 0.0210207254 -0.0150207281 0.00202072784
v 0.0203393996 -0.0130000003 0.00323357806
v 0.0214748681 -0.0130000003 0.00247487426
v 0.0189999938 -0.0143393911 0.00323357806
v 0.020372957 -0.0143729597 0.0029120408
v 0.0212968886 -0.0143032968 0.00229689106
v 0.0222335756 -0.0143393911 0
v 0.0214748681 -0.0154748745 0
v 0.0222335756 -0.0130000003 0.00133939087
v 0.0219120383 -0.0143729597 0.00137295946
v 0.0212968886 -0.0152968913 0.00130329654
v 0.0189999938 0.0130000003 0.00350000337
v 0.0189999938 0.0164999999 0
v 0.0225000083 0.0130000003 0
v 0.0189999938 0.0143393921 0.00323357806
v 0.0189999938 0.0154748736 0.00247487426
v 0.0203393996 0.0130000003 0.00323357806
v 0.020372957 0.0143729588 0.0029120408
v 0.0203032941 0.0152968913 0.00229689106
v 0.0210207254 0.0150207262 0.00202072784
v 0.0203393996 0.0162335783 0
v 0.0214748681 0.0154748736 0
v 0.0189999938 0.0162335783 0.00133939087
v 0.020372957 0.0159120392 0.00137295946
v 0.0212968886 0.0152968913 0.00130329654
v 0.0222335756 0.0130000003 0.0013393946
v 0.0214748681 0.0130000003 0.00247487426
v 0.0222335756 0.0143393921 0
v 0.0219120383 0.0143729588 0.00137295946
v 0.0212968886 0.0143032968 0.00229689106
v -0.0225000083 0.0130000003 0
v -0.0189999938 0.0164999999 0
v -0.0189999938 0.0130000003 0.00350000337
v -0.0222335756 0.0143393921 0
v -0.0214748681 0.0154748736 0
v -0.0222335756 0.0130000003 0.00133939087
v -0.0219120383 0.0143729588 0.00137295946
v -0.0212968886 0.0152968913 0.00130329654
v -0.0210207403 0.0150207262 0.00202072784
v -0.0189999938 0.0162335783 0.0013393946
v -0.0189999938 0.0154748736 0.00247487426
v -0.0203393996 0.0162335783 0
v -0.020372957 0.0159120392 0.00137295946
v -0.020303309 0.0152968913 0.00229689106
v -0.0203393996 0.0130000003 0.00323357806
v -0.0214748681 0.0130000003 0.00247487426
v -0.0189999938 0.0143393921 0.00323357806
v -0.020372957 0.0143729588 0.0029120408
v -0.0212968886 0.0143032968 0.00229689106
usemtl matte_black_keycaps_003
f 59 134 77 3
f 2 22 40 60
f 39 116 135 58
f 78 136 115 97
f 21 98 117 41
f 1 4 7 6
f 4 5 8 7
f 6 7 19 16
f 7 8 9 19
f 2 10 13 12
f 10 11 14 13
f 12 13 8 5
f 13 14 9 8
f 3 15 18 17
f 15 16 19 18
f 17 18 14 11
f 18 19 9 14
f 20 23 26 25
f 23 24 27 26
f 25 26 38 35
f 26 27 28 38
f 21 29 32 31
f 29 30 33 32
f 31 32 27 24
f 32 33 28 27
f 22 34 37 36
f 34 35 38 37
f 36 37 33 30
f 37 38 28 33
f 39 42 45 44
f 42 43 46 45
f 44 45 57 54
f 45 46 47 57
f 40 48 51 50
f 48 49 52 51
f 50 51 46 43
f 51 52 47 46
f 41 53 56 55
f 53 54 57 56
f 55 56 52 49
f 56 57 47 52
f 58 61 64 63
f 61 62 65 64
f 63 64 76 73
f 64 65 66 76
f 59 67 70 69
f 67 68 71 70
f 69 70 65 62
f 70 71 66 65
f 60 72 75 74
f 72 73 76 75
f 74 75 71 68
f 75 76 66 71
f 77 80 83 82
f 80 81 84 83
f 82 83 95 92
f 83 84 85 95
f 78 86 89 88
f 86 87 90 89
f 88 89 84 81
f 89 90 85 84
f 79 91 94 93
f 91 92 95 94
f 93 94 90 87
f 94 95 85 90
f 96 99 102 101
f 99 100 103 102
f 101 102 114 111
f 102 103 104 114
f 97 105 108 107
f 105 106 109 108
f 107 108 103 100
f 108 109 104 103
f 98 110 113 112
f 110 111 114 113
f 112 113 109 106
f 113 114 104 109
f 115 118 121 120
f 118 119 122 121
f 120 121 133 130
f 121 122 123 133
f 116 124 127 126
f 124 125 128 127
f 126 127 122 119
f 127 128 123 122
f 117 129 132 131
f 129 130 133 132
f 131 132 128 125
f 132 133 123 128
f 134 137 140 139
f 137 138 141 140
f 139 140 152 149
f 140 141 142 152
f 135 143 146 145
f 143 144 147 146
f 145 146 141 138
f 146 147 142 141
f 136 148 151 150
f 148 149 152 151
f 150 151 147 144
f 151 152 142 147
f 39 58 63 42
f 42 63 73 43
f 43 73 72 50
f 50 72 60 40
f 1 20 25 4
f 4 25 35 5
f 5 35 34 12
f 12 34 22 2
f 21 41 55 29
f 29 55 49 30
f 30 49 48 36
f 36 48 40 22
f 2 60 74 10
f 10 74 68 11
f 11 68 67 17
f 17 67 59 3
f 3 77 82 15
f 15 82 92 16
f 16 92 91 6
f 6 91 79 1
f 78 97 107 86
f 86 107 100 87
f 87 100 99 93
f 93 99 96 79
f 97 115 120 105
f 105 120 130 106
f 106 130 129 112
f 112 129 117 98
f 77 134 139 80
f 80 139 149 81
f 81 149 148 88
f 88 148 136 78
f 20 96 101 23
f 23 101 111 24
f 24 111 110 31
f 31 110 98 21
f 41 117 131 53
f 53 131 125 54
f 54 125 124 44
f 44 124 116 39
f 115 136 150 118
f 118 150 144 119
f 119 144 143 126
f 126 143 135 116
f 58 135 145 61
f 61 145 138 62
f 62 138 137 69
f 69 137 134 59
f 1 79 96 20

g key_legend_bottom_1_ctrl
v 0.00431200862 -0.00339999981 0.00450000539
v 0.00431200862 0.00205600075 0.00450000539
v 0.0050239861 0.00205600075 0.00450000539
v 0.0050239861 -0.00339999981 0.00450000539
v 0.00188800693 -0.000631999224 0.00450000539
v 0.00190401077 -0.000631999224 0.00450000539
v 0.00199368596 -0.000481607392 0.00450000539
v 0.0020827055 -0.00034618564 0.00450000539
v 0.00217112899 -0.000225374475 0.00450000539
v 0.00225895643 -0.000118814409 0.00450000539
v 0.00234624743 -2.61440873e-05 0.00450000539
v 0.002433002 5.29997051e-05 0.00450000539
v 0.00251924992 0.000118976459 0.00450000539
v 0.0026050508 0.000172147527 0.00450000539
v 0.00269037485 0.000212874264 0.00450000539
v 0.00277531147 0.000241518021 0.00450000539
v 0.00285983086 0.000258440152 0.00450000539
v 0.00294399261 0.000264000148 0.00450000539
v 0.003015697 0.000261161476 0.00450000539
v 0.00308686495 0.000252630562 0.00450000539
v 0.00315761566 0.000238375738 0.00450000539
v 0.00322815776 0.000218370929 0.00450000539
v 0.00329855084 0.000192588195 0.00450000539
v 0.00336900353 0.000160999596 0.00450000539
v 0.00343960524 0.000123579055 0.00450000539
v 0.00351050496 8.02967697e-05 0.00450000539
v 0.00358188152 3.11248004e-05 0.00450000539
v 0.00365382433 -2.39629298e-05 0.00450000539
v 0.00372648239 -8.49962234e-05 0.00450000539
v 0.00380000472 -0.000151999295 0.00450000539
v 0.00342398882 -0.00076800026 0.00450000539
v 0.00336876512 -0.000717379153 0.00450000539
v 0.00331148505 -0.000669702888 0.00450000539
v 0.00325274467 -0.000625250861 0.00450000539
v 0.00319319963 -0.000584296882 0.00450000539
v 0.00313338637 -0.000547120348 0.00450000539
v 0.00307399035 -0.000514000654 0.00450000539
v 0.0030156076 -0.000485213473 0.00450000539
v 0.00295880437 -0.000461036339 0.00450000539
v 0.00290423632 -0.000441750512 0.00450000539
v 0.00285252929 -0.000427629799 0.00450000539
v 0.00280421972 -0.000418953598 0.00450000539
v 0.00275999308 -0.000415999442 0.00450000539
v 0.00264033675 -0.000425959006 0.00450000539
v 0.00252595544 -0.000454999506 0.00450000539
v 0.00241786242 -0.000501874834 0.00450000539
v 0.00231704116 -0.000565333292 0.00450000539
v 0.00222441554 -0.000644125044 0.00450000539
v 0.00214099884 -0.000737000257 0.00450000539
v 0.00206774473 -0.000842709094 0.00450000539
v 0.00200563669 -0.000959999859 0.00450000539
v 0.0019556284 -0.00108762458 0.00450000539
v 0.00191870332 -0.00122433342 0.00450000539
v 0.00189584494 -0.00136887468 0.00450000539
v 0.00188800693 -0.0015200004 0.00450000539
v 0.00188800693 -0.00339999981 0.00450000539
v 0.00117599964 -0.00339999981 0.00450000539
v 0.00117599964 0.000191999599 0.00450000539
v 0.00188800693 0.000191999599 0.00450000539
v 0.000432014465 0.000191999599 0.00450000539
v 0.000432014465 -0.000447999686 0.00450000539
v -0.000703990459 -0.000447999686 0.00450000539
v -0.000703990459 -0.00228800066 0.00450000539
v -0.000697910786 -0.00238777325 0.00450000539
v -0.000680506229 -0.00247551873 0.00450000539
v -0.000653237104 -0.00255187601 0.00450000539
v -0.000617474318 -0.0026174821 0.00450000539
v -0.000574588776 -0.00267297775 0.00450000539
v -0.00052601099 -0.00271899998 0.00450000539
v -0.000473052263 -0.00275618955 0.00450000539
v -0.000417172909 -0.00278518535 0.00450000539
v -0.000359743834 -0.00280662626 0.00450000539
v -0.000302135944 -0.0028211493 0.00450000539
v -0.000245779753 -0.00282939337 0.00450000539
v -0.000191986561 -0.00283200108 0.00450000539
v -0.000127822161 -0.00283016637 0.00450000539
v -6.32703304e-05 -0.00282466784 0.00450000539
v 1.75833702e-06 -0.0028154999 0.00450000539
v 6.72638416e-05 -0.00280266628 0.00450000539
v 0.00013333559 -0.00278616697 0.00450000539
v 0.000200003386 -0.00276600011 0.00450000539
v 0.000267356634 -0.00274216756 0.00450000539
v 0.000335395336 -0.00271466747 0.00450000539
v 0.000404238701 -0.00268349983 0.00450000539
v 0.000473916531 -0.0026486665 0.00450000539
v 0.00054448843 -0.00261016749 0.00450000539
v 0.000616014004 -0.00256800093 0.00450000539
v 0.000616014004 -0.0032320004 0.00450000539
v 0.000551342964 -0.00326529145 0.00450000539
v 0.00048199296 -0.00329700112 0.00450000539
v 0.000409007072 -0.00332687423 0.00450000539
v 0.000333338976 -0.00335466675 0.00450000539
v 0.000256001949 -0.00338012539 0.00450000539
v 0.000178009272 -0.00340300053 0.00450000539
v 0.000100344419 -0.0034230426 0.00450000539
v 2.39908695e-05 -0.00344000012 0.00450000539
v -5.0008297e-05 -0.00345362537 0.00450000539
v -0.000120669603 -0.00346366689 0.00450000539
v -0.000187009573 -0.00346987508 0.00450000539
v -0.000247985125 -0.00347200036 0.00450000539
v -0.000433981419 -0.0034621805 0.00450000539
v -0.000603973866 -0.00343344547 0.00450000539
v -0.000757873058 -0.00338687561 0.00450000539
v -0.000895708799 -0.00332355499 0.00450000539
v -0.00101742148 -0.00324456953 0.00450000539
v -0.00112301111 -0.00315099955 0.00450000539
v -0.00121241808 -0.00304393098 0.00450000539
v -0.00128564239 -0.00292444415 0.00450000539
v -0.00134262443 -0.002793625 0.00450000539
v -0.0013833642 -0.0026525557 0.00450000539
v -0.00140783191 -0.00250232033 0.00450000539
v -0.00141599774 -0.00234400108 0.00450000539
v -0.00141599774 -0.000447999686 0.00450000539
v -0.00203999877 -0.000447999686 0.00450000539
v -0.00203999877 -0.000368000939 0.00450000539
v -0.000703990459 0.000935999677 0.00450000539
v -0.000703990459 0.000191999599 0.00450000539
v -0.00249928236 -0.00067993626 0.00450000539
v -0.0025934875 -0.000623481348 0.00450000539
v -0.0026832521 -0.000574249774 0.00450000539
v -0.00276917219 -0.000531852245 0.00450000539
v -0.00285190344 -0.000495897606 0.00450000539
v -0.00293201208 -0.000466000289 0.00450000539
v -0.00301009417 -0.000441769138 0.00450000539
v -0.00308680534 -0.000422814861 0.00450000539
v -0.00316274166 -0.000408750027 0.00450000539
v -0.00323852897 -0.000399185345 0.00450000539
v -0.00331473351 -0.00039373152 0.00450000539
v -0.00339201093 -0.00039199926 0.00450000539
v -0.00354969501 -0.000402024016 0.00450000539
v -0.00369819999 -0.000431519002 0.00450000539
v -0.00383663177 -0.000479625538 0.00450000539
v -0.00396415591 -0.00054548122 0.00450000539
v -0.00407990813 -0.000628227368 0.00450000539
v -0.00418299437 -0.000726999715 0.00450000539
v -0.00427260995 -0.000840939581 0.00450000539
v -0.00434786081 -0.000969184563 0.00450000539
v -0.00440788269 -0.00111087598 0.00450000539
v -0.00445181131 -0.0012651477 0.00450000539
v -0.00447881222 -0.00143114291 0.00450000539
v -0.00448799133 -0.00160800107 0.00450000539
v -0.00447812676 -0.00178774633 0.00450000539
v -0.0044490397 -0.00195463002 0.00450000539
v -0.00440150499 -0.00210812502 0.00450000539
v -0.00433629751 -0.00224770419 0.00450000539
v -0.00425419211 -0.00237283856 0.00450000539
v -0.00415599346 -0.00248300098 0.00450000539
v -0.00404247642 -0.00257766247 0.00450000539
v -0.00391435623 -0.0026562959 0.00450000539
v -0.00377249718 -0.002718376 0.00450000539
v -0.00361764431 -0.00276337005 0.00450000539
v -0.00345054269 -0.00279075466 0.00450000539
v -0.00327199697 -0.00280000083 0.00450000539
v -0.00319626927 -0.00279833376 0.00450000539
v -0.003120929 -0.00279333442 0.00450000539
v -0.00304561853 -0.00278500095 0.00450000539
v -0.00297006965 -0.00277333334 0.00450000539
v -0.00289395452 -0.00275833346 0.00450000539
v -0.00281700492 -0.00273999944 0.00450000539
v -0.00273886323 -0.00271833315 0.00450000539
v -0.00265926123 -0.00269333459 0.00450000539
v -0.00257787108 -0.00266500004 0.00450000539
v -0.00249439478 -0.00263333321 0.00450000539
v -0.00240856409 -0.0025983341 0.00450000539
v -0.00231999159 -0.00256000087 0.00450000539
v -0.00231999159 -0.00326400064 0.00450000539
v -0.0023843348 -0.0032916218 0.00450000539
v -0.00245663524 -0.00331829675 0.00450000539
v -0.00253587961 -0.00334374979 0.00450000539
v -0.00262102485 -0.00336770341 0.00450000539
v -0.00271108747 -0.00338988006 0.00450000539
v -0.00280499458 -0.00341000035 0.00450000539
v -0.00290173292 -0.00342778675 0.00450000539
v -0.0030002892 -0.00344296359 0.00450000539
v -0.00309962034 -0.00345524959 0.00450000539
v -0.00319871306 -0.00346437097 0.00450000539
v -0.00329649448 -0.00347004645 0.00450000539
v -0.00339201093 -0.00347200036 0.00450000539
v -0.00365307927 -0.00345675088 0.00450000539
v -0.00389933586 -0.00341200083 0.00450000539
v -0.00412926078 -0.00333924964 0.00450000539
v -0.0043413341 -0.00324000046 0.00450000539
v -0.00453409553 -0.00311575085 0.00450000539
v -0.00470599532 -0.00296800025 0.00450000539
v -0.00485557318 -0.00279824995 0.00450000539
v -0.00498133898 -0.00260800123 0.00450000539
v -0.005081743 -0.00239874981 0.00450000539
v -0.00515532494 -0.00217200071 0.00450000539
v -0.00520059466 -0.00192924961 0.00450000539
v -0.00521600246 -0.00167199969 0.00450000539
v -0.00520184636 -0.00138518587 0.00450000539
v -0.0051600039 -0.00111748092 0.00450000539
v -0.00509148836 -0.000870000571 0.00450000539
v -0.00499734282 -0.000643851236 0.00450000539
v -0.00487849116 -0.000440148637 0.00450000539
v -0.00473600626 -0.000259999186 0.00450000539
v -0.00457084179 -0.000104518607 0.00450000539
v -0.00438401103 2.51848251e-05 0.00450000539
v -0.00417649746 0.000128000975 0.00450000539
v -0.00394934416 0.000202814117 0.00450000539
v -0.0037035048 0.000248517841 0.00450000539
v -0.00343999267 0.000264000148 0.00450000539
v -0.00333872437 0.000262023881 0.00450000539
v -0.00324240327 0.000256184489 0.00450000539
v -0.0031503737 0.000246625394 0.00450000539
v -0.0030619204 0.000233480707 0.00450000539
v -0.00297635794 0.000216893852 0.00450000539
v -0.00289300084 0.000197000802 0.00450000539
v -0.00281113386 0.000173939392 0.00450000539
v -0.00273007154 0.000147851184 0.00450000539
v -0.00264912844 0.000118874013 0.00450000539
v -0.00256758928 8.71475786e-05 0.00450000539
v -0.00248476863 5.28097153e-05 0.00450000539
v -0.00240001082 1.60001218e-05 0.00450000539
v -0.00240001082 -0.000744000077 0.00450000539
v 0.00431200862 -0.00339999981 0.00409999862
v 0.00431200862 0.00205600075 0.00409999862
v 0.0050239861 0.00205600075 0.00409999862
v 0.0050239861 -0.00339999981 0.00409999862
v 0.00188800693 -0.000631999224 0.00409999862
v 0.00190401077 -0.000631999224 0.00409999862
v 0.00199368596 -0.000481607392 0.00409999862
v 0.0020827055 -0.00034618564 0.00409999862
v 0.00217112899 -0.000225374475 0.00409999862
v 0.00225895643 -0.000118814409 0.00409999862
v 0.00234624743 -2.61440873e-05 0.00409999862
v 0.002433002 5.29997051e-05 0.00409999862
v 0.00251924992 0.000118976459 0.00409999862
v 0.0026050508 0.000172147527 0.00409999862
v 0.00269037485 0.000212874264 0.00409999862
v 0.00277531147 0.000241518021 0.00409999862
v 0.00285983086 0.000258440152 0.00409999862
v 0.00294399261 0.000264000148 0.00409999862
v 0.003015697 0.000261161476 0.00409999862
v 0.00308686495 0.000252630562 0.00409999862
v 0.00315761566 0.000238375738 0.00409999862
v 0.00322815776 0.000218370929 0.00409999862
v 0.00329855084 0.000192588195 0.00409999862
v 0.00336900353 0.000160999596 0.00409999862
v 0.00343960524 0.000123579055 0.00409999862
v 0.00351050496 8.02967697e-05 0.00409999862
v 0.00358188152 3.11248004e-05 0.00409999862
v 0.00365382433 -2.39629298e-05 0.00409999862
v 0.00372648239 -8.49962234e-05 0.00409999862
v 0.00380000472 -0.000151999295 0.00409999862
v 0.00342398882 -0.00076800026 0.00409999862
v 0.00336876512 -0.000717379153 0.00409999862
v 0.00331148505 -0.000669702888 0.00409999862
v 0.00325274467 -0.000625250861 0.00409999862
v 0.00319319963 -0.000584296882 0.00409999862
v 0.00313338637 -0.000547120348 0.00409999862
v 0.00307399035 -0.000514000654 0.00409999862
v 0.0030156076 -0.000485213473 0.00409999862
v 0.00295880437 -0.000461036339 0.00409999862
v 0.00290423632 -0.000441750512 0.00409999862
v 0.00285252929 -0.000427629799 0.00409999862
v 0.00280421972 -0.000418953598 0.00409999862
v 0.00275999308 -0.000415999442 0.00409999862
v 0.00264033675 -0.000425959006 0.00409999862
v 0.00252595544 -0.000454999506 0.00409999862
v 0.00241786242 -0.000501874834 0.00409999862
v 0.00231704116 -0.000565333292 0.00409999862
v 0.00222441554 -0.000644125044 0.00409999862
v 0.00214099884 -0.000737000257 0.00409999862
v 0.00206774473 -0.000842709094 0.00409999862
v 0.00200563669 -0.000959999859 0.00409999862
v 0.0019556284 -0.00108762458 0.00409999862
v 0.00191870332 -0.00122433342 0.00409999862
v 0.00189584494 -0.00136887468 0.00409999862
v 0.00188800693 -0.0015200004 0.00409999862
v 0.00188800693 -0.00339999981 0.00409999862
v 0.00117599964 -0.00339999981 0.00409999862
v 0.00117599964 0.000191999599 0.00409999862
v 0.00188800693 0.000191999599 0.00409999862
v 0.000432014465 0.000191999599 0.00409999862
v 0.000432014465 -0.000447999686 0.00409999862
v -0.000703990459 -0.000447999686 0.00409999862
v -0.000703990459 -0.00228800066 0.00409999862
v -0.000697910786 -0.00238777325 0.00409999862
v -0.000680506229 -0.00247551873 0.00409999862
v -0.000653237104 -0.00255187601 0.00409999862
v -0.000617474318 -0.0026174821 0.00409999862
v -0.000574588776 -0.00267297775 0.00409999862
v -0.00052601099 -0.00271899998 0.00409999862
v -0.000473052263 -0.00275618955 0.00409999862
v -0.000417172909 -0.00278518535 0.00409999862
v -0.000359743834 -0.00280662626 0.00409999862
v -0.000302135944 -0.0028211493 0.00409999862
v -0.000245779753 -0.00282939337 0.00409999862
v -0.000191986561 -0.00283200108 0.00409999862
v -0.000127822161 -0.00283016637 0.00409999862
v -6.32703304e-05 -0.00282466784 0.00409999862
v 1.75833702e-06 -0.0028154999 0.00409999862
v 6.72638416e-05 -0.00280266628 0.00409999862
v 0.00013333559 -0.00278616697 0.00409999862
v 0.000200003386 -0.00276600011 0.00409999862
v 0.000267356634 -0.00274216756 0.00409999862
v 0.000335395336 -0.00271466747 0.00409999862
v 0.000404238701 -0.00268349983 0.00409999862
v 0.000473916531 -0.0026486665 0.00409999862
v 0.00054448843 -0.00261016749 0.00409999862
v 0.000616014004 -0.00256800093 0.00409999862
v 0.000616014004 -0.0032320004 0.00409999862
v 0.000551342964 -0.00326529145 0.00409999862
v 0.00048199296 -0.00329700112 0.00409999862
v 0.000409007072 -0.00332687423 0.00409999862
v 0.000333338976 -0.00335466675 0.00409999862
v 0.000256001949 -0.00338012539 0.00409999862
v 0.000178009272 -0.00340300053 0.00409999862
v 0.000100344419 -0.0034230426 0.00409999862
v 2.39908695e-05 -0.00344000012 0.00409999862
v -5.0008297e-05 -0.00345362537 0.00409999862
v -0.000120669603 -0.00346366689 0.00409999862
v -0.000187009573 -0.00346987508 0.00409999862
v -0.000247985125 -0.00347200036 0.00409999862
v -0.000433981419 -0.0034621805 0.00409999862
v -0.000603973866 -0.00343344547 0.00409999862
v -0.000757873058 -0.00338687561 0.00409999862
v -0.000895708799 -0.00332355499 0.00409999862
v -0.00101742148 -0.00324456953 0.00409999862
v -0.00112301111 -0.00315099955 0.00409999862
v -0.00121241808 -0.00304393098 0.00409999862
v -0.00128564239 -0.00292444415 0.00409999862
v -0.00134262443 -0.002793625 0.00409999862
v -0.0013833642 -0.0026525557 0.00409999862
v -0.00140783191 -0.00250232033 0.00409999862
v -0.00141599774 -0.00234400108 0.00409999862
v -0.00141599774 -0.000447999686 0.00409999862
v -0.00203999877 -0.000447999686 0.00409999862
v -0.00203999877 -0.000368000939 0.00409999862
v -0.000703990459 0.000935999677 0.00409999862
v -0.000703990459 0.000191999599 0.00409999862
v -0.00249928236 -0.00067993626 0.00409999862
v -0.0025934875 -0.000623481348 0.00409999862
v -0.0026832521 -0.000574249774 0.00409999862
v -0.00276917219 -0.000531852245 0.00409999862
v -0.00285190344 -0.000495897606 0.00409999862
v -0.00293201208 -0.000466000289 0.00409999862
v -0.00301009417 -0.000441769138 0.00409999862
v -0.00308680534 -0.000422814861 0.00409999862
v -0.00316274166 -0.000408750027 0.00409999862
v -0.00323852897 -0.000399185345 0.00409999862
v -0.00331473351 -0.00039373152 0.00409999862
v -0.00339201093 -0.00039199926 0.00409999862
v -0.00354969501 -0.000402024016 0.00409999862
v -0.00369819999 -0.000431519002 0.00409999862
v -0.00383663177 -0.000479625538 0.00409999862
v -0.00396415591 -0.00054548122 0.00409999862
v -0.00407990813 -0.000628227368 0.00409999862
v -0.00418299437 -0.000726999715 0.00409999862
v -0.00427260995 -0.000840939581 0.00409999862
v -0.00434786081 -0.000969184563 0.00409999862
v -0.00440788269 -0.00111087598 0.00409999862
v -0.00445181131 -0.0012651477 0.00409999862
v -0.00447881222 -0.00143114291 0.00409999862
v -0.00448799133 -0.00160800107 0.00409999862
v -0.00447812676 -0.00178774633 0.00409999862
v -0.0044490397 -0.00195463002 0.00409999862
v -0.00440150499 -0.00210812502 0.00409999862
v -0.00433629751 -0.00224770419 0.00409999862
v -0.00425419211 -0.00237283856 0.00409999862
v -0.00415599346 -0.00248300098 0.00409999862
v -0.00404247642 -0.00257766247 0.00409999862
v -0.00391435623 -0.0026562959 0.00409999862
v -0.00377249718 -0.002718376 0.00409999862
v -0.00361764431 -0.00276337005 0.00409999862
v -0.00345054269 -0.00279075466 0.00409999862
v -0.00327199697 -0.00280000083 0.00409999862
v -0.00319626927 -0.00279833376 0.00409999862
v -0.003120929 -0.00279333442 0.00409999862
v -0.00304561853 -0.00278500095 0.00409999862
v -0.00297006965 -0.00277333334 0.00409999862
v -0.00289395452 -0.00275833346 0.00409999862
v -0.00281700492 -0.00273999944 0.00409999862
v -0.00273886323 -0.00271833315 0.00409999862
v -0.00265926123 -0.00269333459 0.00409999862
v -0.00257787108 -0.00266500004 0.00409999862
v -0.00249439478 -0.00263333321 0.00409999862
v -0.00240856409 -0.0025983341 0.00409999862
v -0.00231999159 -0.00256000087 0.00409999862
v -0.00231999159 -0.00326400064 0.00409999862
v -0.0023843348 -0.0032916218 0.00409999862
v -0.00245663524 -0.00331829675 0.00409999862
v -0.00253587961 -0.00334374979 0.00409999862
v -0.00262102485 -0.00336770341 0.00409999862
v -0.00271108747 -0.00338988006 0.00409999862
v -0.00280499458 -0.00341000035 0.00409999862
v -0.00290173292 -0.00342778675 0.00409999862
v -0.0030002892 -0.00344296359 0.00409999862
v -0.00309962034 -0.00345524959 0.00409999862
v -0.00319871306 -0.00346437097 0.00409999862
v -0.00329649448 -0.00347004645 0.00409999862
v -0.00339201093 -0.00347200036 0.00409999862
v -0.00365307927 -0.00345675088 0.00409999862
v -0.00389933586 -0.00341200083 0.00409999862
v -0.00412926078 -0.00333924964 0.00409999862
v -0.0043413341 -0.00324000046 0.00409999862
v -0.00453409553 -0.00311575085 0.00409999862
v -0.00470599532 -0.00296800025 0.00409999862
v -0.00485557318 -0.00279824995 0.00409999862
v -0.00498133898 -0.00260800123 0.00409999862
v -0.005081743 -0.00239874981 0.00409999862
v -0.00515532494 -0.00217200071 0.00409999862
v -0.00520059466 -0.00192924961 0.00409999862
v -0.00521600246 -0.00167199969 0.00409999862
v -0.00520184636 -0.00138518587 0.00409999862
v -0.0051600039 -0.00111748092 0.00409999862
v -0.00509148836 -0.000870000571 0.00409999862
v -0.00499734282 -0.000643851236 0.00409999862
v -0.00487849116 -0.000440148637 0.00409999862
v -0.00473600626 -0.000259999186 0.00409999862
v -0.00457084179 -0.000104518607 0.00409999862
v -0.00438401103 2.51848251e-05 0.00409999862
v -0.00417649746 0.000128000975 0.00409999862
v -0.00394934416 0.000202814117 0.00409999862
v -0.0037035048 0.000248517841 0.00409999862
v -0.00343999267 0.000264000148 0.00409999862
v -0.00333872437 0.000262023881 0.00409999862
v -0.00324240327 0.000256184489 0.00409999862
v -0.0031503737 0.000246625394 0.00409999862
v -0.0030619204 0.000233480707 0.00409999862
v -0.00297635794 0.000216893852 0.00409999862
v -0.00289300084 0.000197000802 0.00409999862
v -0.00281113386 0.000173939392 0.00409999862
v -0.00273007154 0.000147851184 0.00409999862
v -0.00264912844 0.000118874013 0.00409999862
v -0.00256758928 8.71475786e-05 0.00409999862
v -0.00248476863 5.28097153e-05 0.00409999862
v -0.00240001082 1.60001218e-05 0.00409999862
v -0.00240001082 -0.000744000077 0.00409999862
v -0.00249928236 -0.00067993626 0.00409999862
v -0.00249928236 -0.00067993626 0.00450000539
v -0.0025934875 -0.000623481348 0.00409999862
v -0.0025934875 -0.000623481348 0.00450000539
v -0.0026832521 -0.000574249774 0.00409999862
v -0.0026832521 -0.000574249774 0.00450000539
v -0.00276917219 -0.000531852245 0.00409999862
v -0.00276917219 -0.000531852245 0.00450000539
v -0.00285190344 -0.000495897606 0.00409999862
v -0.00285190344 -0.000495897606 0.00450000539
v -0.00293201208 -0.000466000289 0.00409999862
v -0.00293201208 -0.000466000289 0.00450000539
v -0.00301009417 -0.000441769138 0.00409999862
v -0.00301009417 -0.000441769138 0.00450000539
v -0.00308680534 -0.000422814861 0.00409999862
v -0.00308680534 -0.000422814861 0.00450000539
v -0.00316274166 -0.000408750027 0.00409999862
v -0.00316274166 -0.000408750027 0.00450000539
v -0.00323852897 -0.000399185345 0.00409999862
v -0.00323852897 -0.000399185345 0.00450000539
v -0.00331473351 -0.00039373152 0.00409999862
v -0.00331473351 -0.00039373152 0.00450000539
v -0.00339201093 -0.00039199926 0.00409999862
v -0.00339201093 -0.00039199926 0.00450000539
v -0.00354969501 -0.000402024016 0.00409999862
v -0.00354969501 -0.000402024016 0.00450000539
v -0.00369819999 -0.000431519002 0.00409999862
v -0.00369819999 -0.000431519002 0.00450000539
v -0.00383663177 -0.000479625538 0.00409999862
v -0.00383663177 -0.000479625538 0.00450000539
v -0.00396415591 -0.00054548122 0.00409999862
v -0.00396415591 -0.00054548122 0.00450000539
v -0.00407990813 -0.000628227368 0.00409999862
v -0.00407990813 -0.000628227368 0.00450000539
v -0.00418299437 -0.000726999715 0.00409999862
v -0.00418299437 -0.000726999715 0.00450000539
v -0.00427260995 -0.000840939581 0.00409999862
v -0.00427260995 -0.000840939581 0.00450000539
v -0.00434786081 -0.000969184563 0.00409999862
v -0.00434786081 -0.000969184563 0.00450000539
v -0.00440788269 -0.00111087598 0.00409999862
v -0.00440788269 -0.00111087598 0.00450000539
v -0.00445181131 -0.0012651477 0.00409999862
v -0.00445181131 -0.0012651477 0.00450000539
v -0.00447881222 -0.00143114291 0.00409999862
v -0.00447881222 -0.00143114291 0.00450000539
v -0.00448799133 -0.00160800107 0.00409999862
v -0.00448799133 -0.00160800107 0.00450000539
v -0.00447812676 -0.00178774633 0.00409999862
v -0.00447812676 -0.00178774633 0.00450000539
v -0.0044490397 -0.00195463002 0.00409999862
v -0.0044490397 -0.00195463002 0.00450000539
v -0.00440150499 -0.00210812502 0.00409999862
v -0.00440150499 -0.00210812502 0.00450000539
v -0.00433629751 -0.00224770419 0.00409999862
v -0.00433629751 -0.00224770419 0.00450000539
v -0.00425419211 -0.00237283856 0.00409999862
v -0.00425419211 -0.00237283856 0.00450000539
v -0.00415599346 -0.00248300098 0.00409999862
v -0.00415599346 -0.00248300098 0.00450000539
v -0.00404247642 -0.00257766247 0.00409999862
v -0.00404247642 -0.00257766247 0.00450000539
v -0.00391435623 -0.0026562959 0.00409999862
v -0.00391435623 -0.0026562959 0.00450000539
v -0.00377249718 -0.002718376 0.00409999862
v -0.00377249718 -0.002718376 0.00450000539
v -0.00361764431 -0.00276337005 0.00409999862
v -0.00361764431 -0.00276337005 0.00450000539
v -0.00345054269 -0.00279075466 0.00409999862
v -0.00345054269 -0.00279075466 0.00450000539
v -0.00327199697 -0.00280000083 0.00409999862
v -0.00327199697 -0.00280000083 0.00450000539
v -0.00319626927 -0.00279833376 0.00409999862
v -0.00319626927 -0.00279833376 0.00450000539
v -0.003120929 -0.00279333442 0.00409999862
v -0.003120929 -0.00279333442 0.00450000539
v -0.00304561853 -0.00278500095 0.00409999862
v -0.00304561853 -0.00278500095 0.00450000539
v -0.00297006965 -0.00277333334 0.00409999862
v -0.00297006965 -0.00277333334 0.00450000539
v -0.00289395452 -0.00275833346 0.00409999862
v -0.00289395452 -0.00275833346 0.00450000539
v -0.00281700492 -0.00273999944 0.00409999862
v -0.00281700492 -0.00273999944 0.00450000539
v -0.00273886323 -0.00271833315 0.00409999862
v -0.00273886323 -0.00271833315 0.00450000539
v -0.00265926123 -0.00269333459 0.00409999862
v -0.00265926123 -0.00269333459 0.00450000539
v -0.00257787108 -0.00266500004 0.00409999862
v -0.00257787108 -0.00266500004 0.00450000539
v -0.00249439478 -0.00263333321 0.00409999862
v -0.00249439478 -0.00263333321 0.00450000539
v -0.00240856409 -0.0025983341 0.00409999862
v -0.00240856409 -0.0025983341 0.00450000539
v -0.00231999159 -0.00256000087 0.00409999862
v -0.00231999159 -0.00256000087 0.00450000539
v -0.00231999159 -0.00326400064 0.00409999862
v -0.00231999159 -0.00326400064 0.00450000539
v -0.0023843348 -0.0032916218 0.00409999862
v -0.0023843348 -0.0032916218 0.00450000539
v -0.00245663524 -0.00331829675 0.00409999862
v -0.00245663524 -0.00331829675 0.00450000539
v -0.00253587961 -0.00334374979 0.00409999862
v -0.00253587961 -0.00334374979 0.00450000539
v -0.00262102485 -0.00336770341 0.00409999862
v -0.00262102485 -0.00336770341 0.00450000539
v -0.00271108747 -0.00338988006 0.00409999862
v -0.00271108747 -0.00338988006 0.00450000539
v -0.00280499458 -0.00341000035 0.00409999862
v -0.00280499458 -0.00341000035 0.00450000539
v -0.00290173292 -0.00342778675 0.00409999862
v -0.00290173292 -0.00342778675 0.00450000539
v -0.0030002892 -0.00344296359 0.00409999862
v -0.0030002892 -0.00344296359 0.00450000539
v -0.00309962034 -0.00345524959 0.00409999862
v -0.00309962034 -0.00345524959 0.00450000539
v -0.00319871306 -0.00346437097 0.00409999862
v -0.00319871306 -0.00346437097 0.00450000539
v -0.00329649448 -0.00347004645 0.00409999862
v -0.00329649448 -0.00347004645 0.00450000539
v -0.00339201093 -0.00347200036 0.00409999862
v -0.00339201093 -0.00347200036 0.00450000539
v -0.00365307927 -0.00345675088 0.00409999862
v -0.00365307927 -0.00345675088 0.00450000539
v -0.00389933586 -0.00341200083 0.00409999862
v -0.00389933586 -0.00341200083 0.00450000539
v -0.00412926078 -0.00333924964 0.00409999862
v -0.00412926078 -0.00333924964 0.00450000539
v -0.0043413341 -0.00324000046 0.00409999862
v -0.0043413341 -0.00324000046 0.00450000539
v -0.00453409553 -0.00311575085 0.00409999862
v -0.00453409553 -0.00311575085 0.00450000539
v -0.00470599532 -0.00296800025 0.00409999862
v -0.00470599532 -0.00296800025 0.00450000539
v -0.00485557318 -0.00279824995 0.00409999862
v -0.00485557318 -0.00279824995 0.00450000539
v -0.00498133898 -0.00260800123 0.00409999862
v -0.00498133898 -0.00260800123 0.00450000539
v -0.005081743 -0.00239874981 0.00409999862
v -0.005081743 -0.00239874981 0.00450000539
v -0.00515532494 -0.00217200071 0.00409999862
v -0.00515532494 -0.00217200071 0.00450000539
v -0.00520059466 -0.00192924961 0.00409999862
v -0.00520059466 -0.00192924961 0.00450000539
v -0.00521600246 -0.00167199969 0.00409999862
v -0.00521600246 -0.00167199969 0.00450000539
v -0.00520184636 -0.00138518587 0.00409999862
v -0.00520184636 -0.00138518587 0.00450000539
v -0.0051600039 -0.00111748092 0.00409999862
v -0.0051600039 -0.00111748092 0.00450000539
v -0.00509148836 -0.000870000571 0.00409999862
v -0.00509148836 -0.000870000571 0.00450000539
v -0.00499734282 -0.000643851236 0.00409999862
v -0.00499734282 -0.000643851236 0.00450000539
v -0.00487849116 -0.000440148637 0.00409999862
v -0.00487849116 -0.000440148637 0.00450000539
v -0.00473600626 -0.000259999186 0.00409999862
v -0.00473600626 -0.000259999186 0.00450000539
v -0.00457084179 -0.000104518607 0.00409999862
v -0.00457084179 -0.000104518607 0.00450000539
v -0.00438401103 2.51848251e-05 0.00409999862
v -0.00438401103 2.51848251e-05 0.00450000539
v -0.00417649746 0.000128000975 0.00409999862
v -0.00417649746 0.000128000975 0.00450000539
v -0.00394934416 0.000202814117 0.00409999862
v -0.00394934416 0.000202814117 0.00450000539
v -0.0037035048 0.000248517841 0.00409999862
v -0.0037035048 0.000248517841 0.00450000539
v -0.00343999267 0.000264000148 0.00409999862
v -0.00343999267 0.000264000148 0.00450000539
v -0.00333872437 0.000262023881 0.00409999862
v -0.00333872437 0.000262023881 0.00450000539
v -0.00324240327 0.000256184489 0.00409999862
v -0.00324240327 0.000256184489 0.00450000539
v -0.0031503737 0.000246625394 0.00409999862
v -0.0031503737 0.000246625394 0.00450000539
v -0.0030619204 0.000233480707 0.00409999862
v -0.0030619204 0.000233480707 0.00450000539
v -0.00297635794 0.000216893852 0.00409999862
v -0.00297635794 0.000216893852 0.00450000539
v -0.00289300084 0.000197000802 0.00409999862
v -0.00289300084 0.000197000802 0.00450000539
v -0.00281113386 0.000173939392 0.00409999862
v -0.00281113386 0.000173939392 0.00450000539
v -0.00273007154 0.000147851184 0.00409999862
v -0.00273007154 0.000147851184 0.00450000539
v -0.00264912844 0.000118874013 0.00409999862
v -0.00264912844 0.000118874013 0.00450000539
v -0.00256758928 8.71475786e-05 0.00409999862
v -0.00256758928 8.71475786e-05 0.00450000539
v -0.00248476863 5.28097153e-05 0.00409999862
v -0.00248476863 5.28097153e-05 0.00450000539
v -0.00240001082 1.60001218e-05 0.00409999862
v -0.00240001082 1.60001218e-05 0.00450000539
v -0.00240001082 -0.000744000077 0.00409999862
v -0.00240001082 -0.000744000077 0.00450000539
v 0.000432014465 0.000191999599 0.00409999862
v 0.000432014465 0.000191999599 0.00450000539
v 0.000432014465 -0.000447999686 0.00409999862
v 0.000432014465 -0.000447999686 0.00450000539
v -0.000703990459 -0.000447999686 0.00409999862
v -0.000703990459 -0.000447999686 0.00450000539
v -0.000703990459 -0.00228800066 0.00409999862
v -0.000703990459 -0.00228800066 0.00450000539
v -0.000697910786 -0.00238777325 0.00409999862
v -0.000697910786 -0.00238777325 0.00450000539
v -0.000680506229 -0.00247551873 0.00409999862
v -0.000680506229 -0.00247551873 0.00450000539
v -0.000653237104 -0.00255187601 0.00409999862
v -0.000653237104 -0.00255187601 0.00450000539
v -0.000617474318 -0.0026174821 0.00409999862
v -0.000617474318 -0.0026174821 0.00450000539
v -0.000574588776 -0.00267297775 0.00409999862
v -0.000574588776 -0.00267297775 0.00450000539
v -0.00052601099 -0.00271899998 0.00409999862
v -0.00052601099 -0.00271899998 0.00450000539
v -0.000473052263 -0.00275618955 0.00409999862
v -0.000473052263 -0.00275618955 0.00450000539
v -0.000417172909 -0.00278518535 0.00409999862
v -0.000417172909 -0.00278518535 0.00450000539
v -0.000359743834 -0.00280662626 0.00409999862
v -0.000359743834 -0.00280662626 0.00450000539
v -0.000302135944 -0.0028211493 0.00409999862
v -0.000302135944 -0.0028211493 0.00450000539
v -0.000245779753 -0.00282939337 0.00409999862
v -0.000245779753 -0.00282939337 0.00450000539
v -0.000191986561 -0.00283200108 0.00409999862
v -0.000191986561 -0.00283200108 0.00450000539
v -0.000127822161 -0.00283016637 0.00409999862
v -0.000127822161 -0.00283016637 0.00450000539
v -6.32703304e-05 -0.00282466784 0.00409999862
v -6.32703304e-05 -0.00282466784 0.00450000539
v 1.75833702e-06 -0.0028154999 0.00409999862
v 1.75833702e-06 -0.0028154999 0.00450000539
v 6.72638416e-05 -0.00280266628 0.00409999862
v 6.72638416e-05 -0.00280266628 0.00450000539
v 0.00013333559 -0.00278616697 0.00409999862
v 0.00013333559 -0.00278616697 0.00450000539
v 0.000200003386 -0.00276600011 0.00409999862
v 0.000200003386 -0.00276600011 0.00450000539
v 0.000267356634 -0.00274216756 0.00409999862
v 0.000267356634 -0.00274216756 0.00450000539
v 0.000335395336 -0.00271466747 0.00409999862
v 0.000335395336 -0.00271466747 0.00450000539
v 0.000404238701 -0.00268349983 0.00409999862
v 0.000404238701 -0.00268349983 0.00450000539
v 0.000473916531 -0.0026486665 0.00409999862
v 0.000473916531 -0.0026486665 0.00450000539
v 0.00054448843 -0.00261016749 0.00409999862
v 0.00054448843 -0.00261016749 0.00450000539
v 0.000616014004 -0.00256800093 0.00409999862
v 0.000616014004 -0.00256800093 0.00450000539
v 0.000616014004 -0.0032320004 0.00409999862
v 0.000616014004 -0.0032320004 0.00450000539
v 0.000551342964 -0.00326529145 0.00409999862
v 0.000551342964 -0.00326529145 0.00450000539
v 0.00048199296 -0.00329700112 0.00409999862
v 0.00048199296 -0.00329700112 0.00450000539
v 0.000409007072 -0.00332687423 0.00409999862
v 0.000409007072 -0.00332687423 0.00450000539
v 0.000333338976 -0.00335466675 0.00409999862
v 0.000333338976 -0.00335466675 0.00450000539
v 0.000256001949 -0.00338012539 0.00409999862
v 0.000256001949 -0.00338012539 0.00450000539
v 0.000178009272 -0.00340300053 0.00409999862
v 0.000178009272 -0.00340300053 0.00450000539
v 0.000100344419 -0.0034230426 0.00409999862
v 0.000100344419 -0.0034230426 0.00450000539
v 2.39908695e-05 -0.00344000012 0.00409999862
v 2.39908695e-05 -0.00344000012 0.00450000539
v -5.0008297e-05 -0.00345362537 0.00409999862
v -5.0008297e-05 -0.00345362537 0.00450000539
v -0.000120669603 -0.00346366689 0.00409999862
v -0.000120669603 -0.00346366689 0.00450000539
v -0.000187009573 -0.00346987508 0.00409999862
v -0.000187009573 -0.00346987508 0.00450000539
v -0.000247985125 -0.00347200036 0.00409999862
v -0.000247985125 -0.00347200036 0.00450000539
v -0.000433981419 -0.0034621805 0.00409999862
v -0.000433981419 -0.0034621805 0.00450000539
v -0.000603973866 -0.00343344547 0.00409999862
v -0.000603973866 -0.00343344547 0.00450000539
v -0.000757873058 -0.00338687561 0.00409999862
v -0.000757873058 -0.00338687561 0.00450000539
v -0.000895708799 -0.00332355499 0.00409999862
v -0.000895708799 -0.00332355499 0.00450000539
v -0.00101742148 -0.00324456953 0.00409999862
v -0.00101742148 -0.00324456953 0.00450000539
v -0.00112301111 -0.00315099955 0.00409999862
v -0.00112301111 -0.00315099955 0.00450000539
v -0.00121241808 -0.00304393098 0.00409999862
v -0.00121241808 -0.00304393098 0.00450000539
v -0.00128564239 -0.00292444415 0.00409999862
v -0.00128564239 -0.00292444415 0.00450000539
v -0.00134262443 -0.002793625 0.00409999862
v -0.00134262443 -0.002793625 0.00450000539
v -0.0013833642 -0.0026525557 0.00409999862
v -0.0013833642 -0.0026525557 0.00450000539
v -0.00140783191 -0.00250232033 0.00409999862
v -0.00140783191 -0.00250232033 0.00450000539
v -0.00141599774 -0.00234400108 0.00409999862
v -0.00141599774 -0.00234400108 0.00450000539
v -0.00141599774 -0.000447999686 0.00409999862
v -0.00141599774 -0.000447999686 0.00450000539
v -0.00203999877 -0.000447999686 0.00409999862
v -0.00203999877 -0.000447999686 0.00450000539
v -0.00203999877 -0.000368000939 0.00409999862
v -0.00203999877 -0.000368000939 0.00450000539
v -0.000703990459 0.000935999677 0.00409999862
v -0.000703990459 0.000935999677 0.00450000539
v -0.000703990459 0.000191999599 0.00409999862
v -0.000703990459 0.000191999599 0.00450000539
v 0.00188800693 -0.000631999224 0.00409999862
v 0.00188800693 -0.000631999224 0.00450000539
v 0.00190401077 -0.000631999224 0.00409999862
v 0.00190401077 -0.000631999224 0.00450000539
v 0.00199368596 -0.000481607392 0.00409999862
v 0.00199368596 -0.000481607392 0.00450000539
v 0.0020827055 -0.00034618564 0.00409999862
v 0.0020827055 -0.00034618564 0.00450000539
v 0.00217112899 -0.000225374475 0.00409999862
v 0.00217112899 -0.000225374475 0.00450000539
v 0.00225895643 -0.000118814409 0.00409999862
v 0.00225895643 -0.000118814409 0.00450000539
v 0.00234624743 -2.61440873e-05 0.00409999862
v 0.00234624743 -2.61440873e-05 0.00450000539
v 0.002433002 5.29997051e-05 0.00409999862
v 0.002433002 5.29997051e-05 0.00450000539
v 0.00251924992 0.000118976459 0.00409999862
v 0.00251924992 0.000118976459 0.00450000539
v 0.0026050508 0.000172147527 0.00409999862
v 0.0026050508 0.000172147527 0.00450000539
v 0.00269037485 0.000212874264 0.00409999862
v 0.00269037485 0.000212874264 0.00450000539
v 0.00277531147 0.000241518021 0.00409999862
v 0.00277531147 0.000241518021 0.00450000539
v 0.00285983086 0.000258440152 0.00409999862
v 0.00285983086 0.000258440152 0.00450000539
v 0.00294399261 0.000264000148 0.00409999862
v 0.00294399261 0.000264000148 0.00450000539
v 0.003015697 0.000261161476 0.00409999862
v 0.003015697 0.000261161476 0.00450000539
v 0.00308686495 0.000252630562 0.00409999862
v 0.00308686495 0.000252630562 0.00450000539
v 0.00315761566 0.000238375738 0.00409999862
v 0.00315761566 0.000238375738 0.00450000539
v 0.00322815776 0.000218370929 0.00409999862
v 0.00322815776 0.000218370929 0.00450000539
v 0.00329855084 0.000192588195 0.00409999862
v 0.00329855084 0.000192588195 0.00450000539
v 0.00336900353 0.000160999596 0.00409999862
v 0.00336900353 0.000160999596 0.00450000539
v 0.00343960524 0.000123579055 0.00409999862
v 0.00343960524 0.000123579055 0.00450000539
v 0.00351050496 8.02967697e-05 0.00409999862
v 0.00351050496 8.02967697e-05 0.00450000539
v 0.00358188152 3.11248004e-05 0.00409999862
v 0.00358188152 3.11248004e-05 0.00450000539
v 0.00365382433 -2.39629298e-05 0.00409999862
v 0.00365382433 -2.39629298e-05 0.00450000539
v 0.00372648239 -8.49962234e-05 0.00409999862
v 0.00372648239 -8.49962234e-05 0.00450000539
v 0.00380000472 -0.000151999295 0.00409999862
v 0.00380000472 -0.000151999295 0.00450000539
v 0.00342398882 -0.00076800026 0.00409999862
v 0.00342398882 -0.00076800026 0.00450000539
v 0.00336876512 -0.000717379153 0.00409999862
v 0.00336876512 -0.000717379153 0.00450000539
v 0.00331148505 -0.000669702888 0.00409999862
v 0.00331148505 -0.000669702888 0.00450000539
v 0.00325274467 -0.000625250861 0.00409999862
v 0.00325274467 -0.000625250861 0.00450000539
v 0.00319319963 -0.000584296882 0.00409999862
v 0.00319319963 -0.000584296882 0.00450000539
v 0.00313338637 -0.000547120348 0.00409999862
v 0.00313338637 -0.000547120348 0.00450000539
v 0.00307399035 -0.000514000654 0.00409999862
v 0.00307399035 -0.000514000654 0.00450000539
v 0.0030156076 -0.000485213473 0.00409999862
v 0.0030156076 -0.000485213473 0.00450000539
v 0.00295880437 -0.000461036339 0.00409999862
v 0.00295880437 -0.000461036339 0.00450000539
v 0.00290423632 -0.000441750512 0.00409999862
v 0.00290423632 -0.000441750512 0.00450000539
v 0.00285252929 -0.000427629799 0.00409999862
v 0.00285252929 -0.000427629799 0.00450000539
v 0.00280421972 -0.000418953598 0.00409999862
v 0.00280421972 -0.000418953598 0.00450000539
v 0.00275999308 -0.000415999442 0.00409999862
v 0.00275999308 -0.000415999442 0.00450000539
v 0.00264033675 -0.000425959006 0.00409999862
v 0.00264033675 -0.000425959006 0.00450000539
v 0.00252595544 -0.000454999506 0.00409999862
v 0.00252595544 -0.000454999506 0.00450000539
v 0.00241786242 -0.000501874834 0.00409999862
v 0.00241786242 -0.000501874834 0.00450000539
v 0.00231704116 -0.000565333292 0.00409999862
v 0.00231704116 -0.000565333292 0.00450000539
v 0.00222441554 -0.000644125044 0.00409999862
v 0.00222441554 -0.000644125044 0.00450000539
v 0.00214099884 -0.000737000257 0.00409999862
v 0.00214099884 -0.000737000257 0.00450000539
v 0.00206774473 -0.000842709094 0.00409999862
v 0.00206774473 -0.000842709094 0.00450000539
v 0.00200563669 -0.000959999859 0.00409999862
v 0.00200563669 -0.000959999859 0.00450000539
v 0.0019556284 -0.00108762458 0.00409999862
v 0.0019556284 -0.00108762458 0.00450000539
v 0.00191870332 -0.00122433342 0.00409999862
v 0.00191870332 -0.00122433342 0.00450000539
v 0.00189584494 -0.00136887468 0.00409999862
v 0.00189584494 -0.00136887468 0.00450000539
v 0.00188800693 -0.0015200004 0.00409999862
v 0.00188800693 -0.0015200004 0.00450000539
v 0.00188800693 -0.00339999981 0.00409999862
v 0.00188800693 -0.00339999981 0.00450000539
v 0.00117599964 -0.00339999981 0.00409999862
v 0.00117599964 -0.00339999981 0.00450000539
v 0.00117599964 0.000191999599 0.00409999862
v 0.00117599964 0.000191999599 0.00450000539
v 0.00188800693 0.000191999599 0.00409999862
v 0.00188800693 0.000191999599 0.00450000539
v 0.00431200862 -0.00339999981 0.00409999862
v 0.00431200862 -0.00339999981 0.00450000539
v 0.00431200862 0.00205600075 0.00409999862
v 0.00431200862 0.00205600075 0.00450000539
v 0.0050239861 0.00205600075 0.00409999862
v 0.0050239861 0.00205600075 0.00450000539
v 0.0050239861 -0.00339999981 0.00409999862
v 0.0050239861 -0.00339999981 0.00450000539
usemtl screen_white_text_003
f 153 155 154
f 153 156 155
f 169 171 170
f 169 172 171
f 168 172 169
f 168 173 172
f 167 173 168
f 167 174 173
f 167 175 174
f 166 175 167
f 166 176 175
f 209 211 210
f 209 157 211
f 165 176 166
f 165 177 176
f 165 178 177
f 164 178 165
f 164 179 178
f 163 179 164
f 163 180 179
f 163 181 180
f 162 181 163
f 162 182 181
f 161 182 162
f 161 192 182
f 192 191 182
f 191 190 182
f 190 189 182
f 189 188 182
f 188 187 182
f 187 186 182
f 186 185 182
f 185 184 182
f 184 183 182
f 160 194 161
f 194 193 161
f 193 192 161
f 159 196 160
f 196 195 160
f 195 194 160
f 159 197 196
f 159 198 197
f 158 198 159
f 158 199 198
f 158 200 199
f 209 158 157
f 209 204 158
f 204 203 158
f 203 202 158
f 202 201 158
f 201 200 158
f 209 205 204
f 209 206 205
f 209 207 206
f 209 208 207
f 267 269 268
f 267 212 269
f 267 213 212
f 266 213 267
f 265 213 266
f 264 214 265
f 214 213 265
f 264 215 214
f 264 216 215
f 263 216 264
f 263 217 216
f 263 218 217
f 262 218 263
f 262 219 218
f 238 240 239
f 237 240 238
f 262 220 219
f 236 240 237
f 261 220 262
f 261 221 220
f 235 240 236
f 234 240 235
f 261 222 221
f 233 240 234
f 261 223 222
f 232 240 233
f 261 224 223
f 231 240 232
f 260 224 261
f 230 240 231
f 260 225 224
f 229 240 230
f 260 226 225
f 228 240 229
f 260 227 226
f 227 240 228
f 260 240 227
f 259 240 260
f 258 240 259
f 257 240 258
f 257 241 240
f 256 241 257
f 256 242 241
f 256 243 242
f 255 243 256
f 255 244 243
f 255 245 244
f 255 246 245
f 254 246 255
f 254 247 246
f 254 248 247
f 253 248 254
f 253 249 248
f 253 250 249
f 252 250 253
f 252 251 250
f 353 355 354
f 353 356 355
f 353 357 356
f 352 357 353
f 352 358 357
f 352 359 358
f 352 360 359
f 351 360 352
f 351 361 360
f 351 362 361
f 351 363 362
f 350 363 351
f 350 364 363
f 350 365 364
f 350 366 365
f 349 366 350
f 349 277 366
f 277 276 366
f 276 275 366
f 275 274 366
f 274 273 366
f 273 272 366
f 272 271 366
f 271 270 366
f 270 367 366
f 348 279 349
f 279 278 349
f 278 277 349
f 347 281 348
f 281 280 348
f 280 279 348
f 347 282 281
f 347 283 282
f 347 284 283
f 346 284 347
f 346 285 284
f 346 286 285
f 346 287 286
f 345 287 346
f 345 288 287
f 345 289 288
f 344 289 345
f 344 290 289
f 344 291 290
f 343 291 344
f 343 292 291
f 342 292 343
f 342 293 292
f 342 294 293
f 341 294 342
f 341 295 294
f 340 295 341
f 340 296 295
f 340 297 296
f 339 297 340
f 339 298 297
f 339 299 298
f 338 299 339
f 338 300 299
f 316 318 317
f 338 301 300
f 315 318 316
f 337 301 338
f 314 318 315
f 337 302 301
f 313 318 314
f 312 318 313
f 311 318 312
f 337 303 302
f 310 318 311
f 309 318 310
f 337 304 303
f 308 318 309
f 307 318 308
f 337 305 304
f 306 318 307
f 336 305 337
f 305 318 306
f 336 318 305
f 335 318 336
f 334 318 335
f 333 318 334
f 333 319 318
f 333 320 319
f 333 321 320
f 332 321 333
f 332 322 321
f 332 323 322
f 332 324 323
f 332 325 324
f 331 325 332
f 331 326 325
f 331 327 326
f 331 328 327
f 330 328 331
f 330 329 328
f 368 369 370
f 368 370 371
f 384 385 386
f 384 386 387
f 383 384 387
f 383 387 388
f 382 383 388
f 382 388 389
f 382 389 390
f 381 382 390
f 381 390 391
f 424 425 426
f 424 426 372
f 380 381 391
f 380 391 392
f 380 392 393
f 379 380 393
f 379 393 394
f 378 379 394
f 378 394 395
f 378 395 396
f 377 378 396
f 377 396 397
f 376 377 397
f 376 397 407
f 407 397 406
f 406 397 405
f 405 397 404
f 404 397 403
f 403 397 402
f 402 397 401
f 401 397 400
f 400 397 399
f 399 397 398
f 375 376 409
f 409 376 408
f 408 376 407
f 374 375 411
f 411 375 410
f 410 375 409
f 374 411 412
f 374 412 413
f 373 374 413
f 373 413 414
f 373 414 415
f 424 372 373
f 424 373 419
f 419 373 418
f 418 373 417
f 417 373 416
f 416 373 415
f 424 419 420
f 424 420 421
f 424 421 422
f 424 422 423
f 482 483 484
f 482 484 427
f 482 427 428
f 481 482 428
f 480 481 428
f 479 480 429
f 429 480 428
f 479 429 430
f 479 430 431
f 478 479 431
f 478 431 432
f 478 432 433
f 477 478 433
f 477 433 434
f 453 454 455
f 452 453 455
f 477 434 435
f 451 452 455
f 476 477 435
f 476 435 436
f 450 451 455
f 449 450 455
f 476 436 437
f 448 449 455
f 476 437 438
f 447 448 455
f 476 438 439
f 446 447 455
f 475 476 439
f 445 446 455
f 475 439 440
f 444 445 455
f 475 440 441
f 443 444 455
f 475 441 442
f 442 443 455
f 475 442 455
f 474 475 455
f 473 474 455
f 472 473 455
f 472 455 456
f 471 472 456
f 471 456 457
f 471 457 458
f 470 471 458
f 470 458 459
f 470 459 460
f 470 460 461
f 469 470 461
f 469 461 462
f 469 462 463
f 468 469 463
f 468 463 464
f 468 464 465
f 467 468 465
f 467 465 466
f 568 569 570
f 568 570 571
f 568 571 572
f 567 568 572
f 567 572 573
f 567 573 574
f 567 574 575
f 566 567 575
f 566 575 576
f 566 576 577
f 566 577 578
f 565 566 578
f 565 578 579
f 565 579 580
f 565 580 581
f 564 565 581
f 564 581 492
f 492 581 491
f 491 581 490
f 490 581 489
f 489 581 488
f 488 581 487
f 487 581 486
f 486 581 485
f 485 581 582
f 563 564 494
f 494 564 493
f 493 564 492
f 562 563 496
f 496 563 495
f 495 563 494
f 562 496 497
f 562 497 498
f 562 498 499
f 561 562 499
f 561 499 500
f 561 500 501
f 561 501 502
f 560 561 502
f 560 502 503
f 560 503 504
f 559 560 504
f 559 504 505
f 559 505 506
f 558 559 506
f 558 506 507
f 557 558 507
f 557 507 508
f 557 508 509
f 556 557 509
f 556 509 510
f 555 556 510
f 555 510 511
f 555 511 512
f 554 555 512
f 554 512 513
f 554 513 514
f 553 554 514
f 553 514 515
f 531 532 533
f 553 515 516
f 530 531 533
f 552 553 516
f 529 530 533
f 552 516 517
f 528 529 533
f 527 528 533
f 526 527 533
f 552 517 518
f 525 526 533
f 524 525 533
f 552 518 519
f 523 524 533
f 522 523 533
f 552 519 520
f 521 522 533
f 551 552 520
f 520 521 533
f 551 520 533
f 550 551 533
f 549 550 533
f 548 549 533
f 548 533 534
f 548 534 535
f 548 535 536
f 547 548 536
f 547 536 537
f 547 537 538
f 547 538 539
f 547 539 540
f 546 547 540
f 546 540 541
f 546 541 542
f 546 542 543
f 545 546 543
f 545 543 544
f 584 586 585 583
f 586 588 587 585
f 588 590 589 587
f 590 592 591 589
f 592 594 593 591
f 594 596 595 593
f 596 598 597 595
f 598 600 599 597
f 600 602 601 599
f 602 604 603 601
f 604 606 605 603
f 606 608 607 605
f 608 610 609 607
f 610 612 611 609
f 612 614 613 611
f 614 616 615 613
f 616 618 617 615
f 618 620 619 617
f 620 622 621 619
f 622 624 623 621
f 624 626 625 623
f 626 628 627 625
f 628 630 629 627
f 630 632 631 629
f 632 634 633 631
f 634 636 635 633
f 636 638 637 635
f 638 640 639 637
f 640 642 641 639
f 642 644 643 641
f 644 646 645 643
f 646 648 647 645
f 648 650 649 647
f 650 652 651 649
f 652 654 653 651
f 654 656 655 653
f 656 658 657 655
f 658 660 659 657
f 660 662 661 659
f 662 664 663 661
f 664 666 665 663
f 666 668 667 665
f 668 670 669 667
f 670 672 671 669
f 672 674 673 671
f 674 676 675 673
f 676 678 677 675
f 678 680 679 677
f 680 682 681 679
f 682 684 683 681
f 684 686 685 683
f 686 688 687 685
f 688 690 689 687
f 690 692 691 689
f 692 694 693 691
f 694 696 695 693
f 696 698 697 695
f 698 700 699 697
f 700 702 701 699
f 702 704 703 701
f 704 706 705 703
f 706 708 707 705
f 708 710 709 707
f 710 712 711 709
f 712 714 713 711
f 714 716 715 713
f 716 718 717 715
f 718 720 719 717
f 720 722 721 719
f 722 724 723 721
f 724 726 725 723
f 726 728 727 725
f 728 730 729 727
f 730 732 731 729
f 732 734 733 731
f 734 736 735 733
f 736 738 737 735
f 738 740 739 737
f 740 742 741 739
f 742 744 743 741
f 744 746 745 743
f 746 748 747 745
f 748 750 749 747
f 750 752 751 749
f 752 754 753 751
f 754 756 755 753
f 756 758 757 755
f 758 760 759 757
f 760 762 761 759
f 762 764 763 761
f 764 766 765 763
f 766 768 767 765
f 768 770 769 767
f 770 772 771 769
f 772 774 773 771
f 774 776 775 773
f 776 778 777 775
f 778 584 583 777
f 780 782 781 779
f 782 784 783 781
f 784 786 785 783
f 786 788 787 785
f 788 790 789 787
f 790 792 791 789
f 792 794 793 791
f 794 796 795 793
f 796 798 797 795
f 798 800 799 797
f 800 802 801 799
f 802 804 803 801
f 804 806 805 803
f 806 808 807 805
f 808 810 809 807
f 810 812 811 809
f 812 814 813 811
f 814 816 815 813
f 816 818 817 815
f 818 820 819 817
f 820 822 821 819
f 822 824 823 821
f 824 826 825 823
f 826 828 827 825
f 828 830 829 827
f 830 832 831 829
f 832 834 833 831
f 834 836 835 833
f 836 838 837 835
f 838 840 839 837
f 840 842 841 839
f 842 844 843 841
f 844 846 845 843
f 846 848 847 845
f 848 850 849 847
f 850 852 851 849
f 852 854 853 851
f 854 856 855 853
f 856 858 857 855
f 858 860 859 857
f 860 862 861 859
f 862 864 863 861
f 864 866 865 863
f 866 868 867 865
f 868 870 869 867
f 870 872 871 869
f 872 874 873 871
f 874 876 875 873
f 876 878 877 875
f 878 880 879 877
f 880 882 881 879
f 882 884 883 881
f 884 886 885 883
f 886 888 887 885
f 888 890 889 887
f 890 892 891 889
f 892 894 893 891
f 894 780 779 893
f 896 898 897 895
f 898 900 899 897
f 900 902 901 899
f 902 904 903 901
f 904 906 905 903
f 906 908 907 905
f 908 910 909 907
f 910 912 911 909
f 912 914 913 911
f 914 916 915 913
f 916 918 917 915
f 918 920 919 917
f 920 922 921 919
f 922 924 923 921
f 924 926 925 923
f 926 928 927 925
f 928 930 929 927
f 930 932 931 929
f 932 934 933 931
f 934 936 935 933
f 936 938 937 935
f 938 940 939 937
f 940 942 941 939
f 942 944 943 941
f 944 946 945 943
f 946 948 947 945
f 948 950 949 947
f 950 952 951 949
f 952 954 953 951
f 954 956 955 953
f 956 958 957 955
f 958 960 959 957
f 960 962 961 959
f 962 964 963 961
f 964 966 965 963
f 966 968 967 965
f 968 970 969 967
f 970 972 971 969
f 972 974 973 971
f 974 976 975 973
f 976 978 977 975
f 978 980 979 977
f 980 982 981 979
f 982 984 983 981
f 984 986 985 983
f 986 988 987 985
f 988 990 989 987
f 990 992 991 989
f 992 994 993 991
f 994 996 995 993
f 996 998 997 995
f 998 1000 999 997
f 1000 1002 1001 999
f 1002 1004 1003 1001
f 1004 896 895 1003
f 1006 1008 1007 1005
f 1008 1010 1009 1007
f 1010 1012 1011 1009
f 1012 1006 1005 1011
