mtllib keyboard_key_1_6_6_link.mtl
o keyboard_key_1_6_6_link

g keyboard_key_1_6_6_SOLID
v -0.0180000011 -0.0154999942 0
v -0.0180000011 -0.0119999945 -0.00349999964
v -0.0215000007 -0.0119999945 0
v -0.0180000048 -0.0152335763 -0.0013393946
v -0.0180000048 -0.0144748688 -0.00247487426
v -0.0193393957 -0.0152335763 0
v -0.0193729606 -0.014912039 -0.00137295946
v -0.0193032976 -0.0142968893 -0.00229689106
v -0.0200207289 -0.0140207261 -0.00202072784
v -0.0193393957 -0.0119999945 -0.00323357806
v -0.0204748791 -0.0119999945 -0.00247487426
v -0.0180000048 -0.0133393854 -0.00323357806
v -0.0193729606 -0.0133729577 -0.0029120408
v -0.0202968922 -0.0133032948 -0.00229689106
v -0.0212335791 -0.0133393854 0
v -0.0204748791 -0.0144748688 0
v -0.0212335791 -0.0119999945 -0.00133939087
v -0.0209120419 -0.0133729577 -0.00137295946
v -0.0202968922 -0.0142968893 -0.00130329654
v 0.0180000011 -0.0154999942 0
v 0.0215000007 -0.0119999945 0
v 0.0180000011 -0.0119999945 -0.00349999964
v 0.0193393957 -0.0152335763 0
v 0.0204748772 -0.0144748688 0
v 0.018000003 -0.0152335763 -0.00133939087
v 0.0193729606 -0.014912039 -0.00137295946
v 0.020296894 -0.0142968893 -0.00130329654
v 0.0200207289 -0.0140207261 -0.00202072784
v 0.021233581 -0.0119999945 -0.0013393946
v 0.0204748772 -0.0119999945 -0.00247487426
v 0.021233581 -0.0133393854 0
v 0.0209120419 -0.0133729577 -0.00137295946
v 0.020296894 -0.0133032948 -0.00229689106
v 0.018000003 -0.0133393854 -0.00323357806
v 0.018000003 -0.0144748688 -0.00247487426
v 0.0193393957 -0.0119999945 -0.00323357806
v 0.0193729606 -0.0133729577 -0.0029120408
v 0.0193032995 -0.0142968893 -0.00229689106
v 0.0180000011 0.0154999942 0
v 0.0180000011 0.0119999945 -0.00349999964
v 0.0215000007 0.0119999945 0
v 0.018000003 0.0152335763 -0.0013393946
v 0.018000003 0.0144748688 -0.00247487426
v 0.0193393957 0.0152335763 0
v 0.0193729606 0.014912039 -0.00137295946
v 0.0193032995 0.0142968893 -0.00229689106
v 0.0200207289 0.0140207261 -0.00202072784
v 0.0193393957 0.0119999945 -0.00323357806
v 0.0204748772 0.0119999945 -0.00247487426
v 0.018000003 0.0133393854 -0.00323357806
v 0.0193729606 0.0133729577 -0.0029120408
v 0.020296894 0.0133032948 -0.00229689106
v 0.021233581 0.0133393854 0
v 0.0204748772 0.0144748688 0
v 0.021233581 0.0119999945 -0.00133939087
v 0.0209120419 0.0133729577 -0.00137295946
v 0.020296894 0.0142968893 -0.00130329654
v -0.0180000011 0.0154999942 0
v -0.0215000007 0.0119999945 0
v -0.0180000011 0.0119999945 -0.00349999964
v -0.0193393957 0.0152335763 0
v -0.0204748791 0.0144748688 0
v -0.0180000048 0.0152335763 -0.00133939087
v -0.0193729606 0.014912039 -0.00137295946
v -0.0202968922 0.0142968893 -0.00130329654
v -0.0200207289 0.0140207261 -0.00202072784
v -0.0212335791 0.0119999945 -0.0013393946
v -0.0204748791 0.0119999945 -0.00247487426
v -0.0212335791 0.0133393854 0
v -0.0209120419 0.0133729577 -0.00137295946
v -0.0202968922 0.0133032948 -0.00229689106
v -0.0180000048 0.0133393854 -0.00323357806
v -0.0180000048 0.0144748688 -0.00247487426
v -0.0193393957 0.0119999945 -0.00323357806
v -0.0193729606 0.0133729577 -0.0029120408
v -0.0193032976 0.0142968893 -0.00229689106
v -0.0215000007 -0.0119999945 0
v -0.0180000011 -0.0119999945 0.00350000337
v -0.0180000011 -0.0154999942 0
v -0.0212335791 -0.0119999945 0.0013393946
v -0.0204748791 -0.0119999945 0.00247487426
v -0.0212335791 -0.0133393854 0
v -0.0209120419 -0.0133729577 0.00137295946
v -0.0202968922 -0.0133032948 0.00229689106
v -0.0200207289 -0.0140207261 0.00202072784
v -0.0180000048 -0.0133393854 0.00323357806
v -0.0180000048 -0.0144748688 0.00247487426
v -0.0193393957 -0.0119999945 0.00323357806
v -0.0193729606 -0.0133729577 0.0029120408
v -0.0193032976 -0.0142968893 0.00229689106
v -0.0193393957 -0.0152335763 0
v -0.0204748791 -0.0144748688 0
v -0.0180000048 -0.0152335763 0.00133939087
v -0.0193729606 -0.014912039 0.00137295946
v -0.0202968922 -0.0142968893 0.00130329654
v 0.0180000011 -0.0154999942 0
v 0.0180000011 -0.0119999945 0.00350000337
v 0.0215000007 -0.0119999945 0
v 0.018000003 -0.0152335763 0.0013393946
v 0.018000003 -0.0144748688 0.00247487426
v 0.0193393957 -0.0152335763 0
v 0.0193729606 -0.014912039 0.00137295946
v 0.0193032995 -0.0142968893 0.00229689106
v 0.0200207289 -0.0140207261 0.00202072784
v 0.0193393957 -0.0119999945 0.00323357806
v 0.0204748772 -0.0119999945 0.00247487426
v 0.018000003 -0.0133393854 0.00323357806
v 0.0193729606 -0.0133729577 0.0029120408
v 0.020296894 -0.0133032948 0.00229689106
v 0.021233581 -0.0133393854 0
v 0.0204748772 -0.0144748688 0
v 0.021233581 -0.0119999945 0.00133939087
v 0.0209120419 -0.0133729577 0.00137295946
v 0.020296894 -0.0142968893 0.00130329654
v 0.0180000011 0.0119999945 0.00350000337
v 0.0180000011 0.0154999942 0
v 0.0215000007 0.0119999945 0
v 0.018000003 0.0133393854 0.00323357806
v 0.018000003 0.0144748688 0.00247487426
v 0.0193393957 0.0119999945 0.00323357806
v 0.0193729606 0.0133729577 0.0029120408
v 0.0193032995 0.0142968893 0.00229689106
v 0.0200207289 0.0140207261 0.00202072784
v 0.0193393957 0.0152335763 0
v 0.0204748772 0.0144748688 0
v 0.018000003 0.0152335763 0.00133939087
v 0.0193729606 0.014912039 0.00137295946
v 0.020296894 0.0142968893 0.00130329654
v 0.021233581 0.0119999945 0.0013393946
v 0.0204748772 0.0119999945 0.00247487426
v 0.021233581 0.0133393854 0
v 0.0209120419 0.0133729577 0.00137295946
v 0.020296894 0.0133032948 0.00229689106
v -0.0215000007 0.0119999945 0
v -0.0180000011 0.0154999942 0
v -0.0180000011 0.0119999945 0.00350000337
v -0.0212335791 0.0133393854 0
v -0.0204748791 0.0144748688 0
v -0.0212335791 0.0119999945 0.00133939087
v -0.0209120419 0.0133729577 0.00137295946
v -0.0202968922 0.0142968893 0.00130329654
v -0.0200207289 0.0140207261 0.00202072784
v -0.0180000048 0.0152335763 0.0013393946
v -0.0180000048 0.0144748688 0.00247487426
v -0.0193393957 0.0152335763 0
v -0.0193729606 0.014912039 0.00137295946
v -0.0193032976 0.0142968893 0.00229689106
v -0.0193393957 0.0119999945 0.00323357806
v -0.0204748791 0.0119999945 0.00247487426
v -0.0180000048 0.0133393854 0.00323357806
v -0.0193729606 0.0133729577 0.0029120408
v -0.0202968922 0.0133032948 0.00229689106
usemtl matte_black_keycaps_003
f 59 134 77 3
f 2 22 40 60
f 39 116 135 58
f 78 136 115 97
f 21 98 117 41
f 1 4 7 6
f 4 5 8 7
f 6 7 19 16
f 7 8 9 19
f 2 10 13 12
f 10 11 14 13
f 12 13 8 5
f 13 14 9 8
f 3 15 18 17
f 15 16 19 18
f 17 18 14 11
f 18 19 9 14
f 20 23 26 25
f 23 24 27 26
f 25 26 38 35
f 26 27 28 38
f 21 29 32 31
f 29 30 33 32
f 31 32 27 24
f 32 33 28 27
f 22 34 37 36
f 34 35 38 37
f 36 37 33 30
f 37 38 28 33
f 39 42 45 44
f 42 43 46 45
f 44 45 57 54
f 45 46 47 57
f 40 48 51 50
f 48 49 52 51
f 50 51 46 43
f 51 52 47 46
f 41 53 56 55
f 53 54 57 56
f 55 56 52 49
f 56 57 47 52
f 58 61 64 63
f 61 62 65 64
f 63 64 76 73
f 64 65 66 76
f 59 67 70 69
f 67 68 71 70
f 69 70 65 62
f 70 71 66 65
f 60 72 75 74
f 72 73 76 75
f 74 75 71 68
f 75 76 66 71
f 77 80 83 82
f 80 81 84 83
f 82 83 95 92
f 83 84 85 95
f 78 86 89 88
f 86 87 90 89
f 88 89 84 81
f 89 90 85 84
f 79 91 94 93
f 91 92 95 94
f 93 94 90 87
f 94 95 85 90
f 96 99 102 101
f 99 100 103 102
f 101 102 114 111
f 102 103 104 114
f 97 105 108 107
f 105 106 109 108
f 107 108 103 100
f 108 109 104 103
f 98 110 113 112
f 110 111 114 113
f 112 113 109 106
f 113 114 104 109
f 115 118 121 120
f 118 119 122 121
f 120 121 133 130
f 121 122 123 133
f 116 124 127 126
f 124 125 128 127
f 126 127 122 119
f 127 128 123 122
f 117 129 132 131
f 129 130 133 132
f 131 132 128 125
f 132 133 123 128
f 134 137 140 139
f 137 138 141 140
f 139 140 152 149
f 140 141 142 152
f 135 143 146 145
f 143 144 147 146
f 145 146 141 138
f 146 147 142 141
f 136 148 151 150
f 148 149 152 151
f 150 151 147 144
f 151 152 142 147
f 39 58 63 42
f 42 63 73 43
f 43 73 72 50
f 50 72 60 40
f 1 20 25 4
f 4 25 35 5
f 5 35 34 12
f 12 34 22 2
f 21 41 55 29
f 29 55 49 30
f 30 49 48 36
f 36 48 40 22
f 2 60 74 10
f 10 74 68 11
f 11 68 67 17
f 17 67 59 3
f 3 77 82 15
f 15 82 92 16
f 16 92 91 6
f 6 91 79 1
f 78 97 107 86
f 86 107 100 87
f 87 100 99 93
f 93 99 96 79
f 97 115 120 105
f 105 120 130 106
f 106 130 129 112
f 112 129 117 98
f 77 134 139 80
f 80 139 149 81
f 81 149 148 88
f 88 148 136 78
f 20 96 101 23
f 23 101 111 24
f 24 111 110 31
f 31 110 98 21
f 41 117 131 53
f 53 131 125 54
f 54 125 124 44
f 44 124 116 39
f 115 136 150 118
f 118 150 144 119
f 119 144 143 126
f 126 143 135 116
f 58 135 145 61
f 61 145 138 62
f 62 138 137 69
f 69 137 134 59
f 1 79 96 20

g key_legend_1_6_6
v 2.25584954e-05 0.00201131403 0.00450000539
v -0.000208703801 0.00184634328 0.00450000539
v -0.000432187691 0.00166670978 0.00450000539
v -0.000646296889 0.00147406757 0.00450000539
v -0.000849433243 0.00127004087 0.00450000539
v -0.00104000047 0.00105625391 0.00450000539
v -0.00121640041 0.000834330916 0.00450000539
v -0.0013770368 0.000605925918 0.00450000539
v -0.00152031332 0.000372648239 0.00450000539
v -0.00164462999 0.00013615191 0.00450000539
v -0.0017483905 -0.000101938844 0.00450000539
v -0.00183000043 -0.000339999795 0.00450000539
v -0.00176082179 -0.000305086374 0.00450000539
v -0.0016882401 -0.000270649791 0.00450000539
v -0.00161218829 -0.000237196684 0.00450000539
v -0.00153259188 -0.00020518899 0.00450000539
v -0.00144938752 -0.000175133348 0.00450000539
v -0.00136250071 -0.000147506595 0.00450000539
v -0.0012718644 -0.000122785568 0.00450000539
v -0.0011774078 -0.000101476908 0.00450000539
v -0.001079062 -8.40574503e-05 0.00450000539
v -0.00097675994 -7.10189342e-05 0.00450000539
v -0.000870428979 -6.28381968e-05 0.00450000539
v -0.000760000199 -6.00069761e-05 0.00450000539
v -0.00049344264 -7.75754452e-05 0.00450000539
v -0.000240046531 -0.000128939748 0.00450000539
v -1.71922147e-06 -0.000212028623 0.00450000539
v 0.000219630077 -0.000324815512 0.00450000539
v 0.000422088429 -0.000465244055 0.00450000539
v 0.000603750348 -0.000631257892 0.00450000539
v 0.000762702897 -0.000820800662 0.00450000539
v 0.000897036865 -0.00103186071 0.00450000539
v 0.00100484304 -0.00126235187 0.00450000539
v 0.00108421408 -0.00151023269 0.00450000539
v 0.00113323517 -0.0017734617 0.00450000539
v 0.00115000084 -0.00204999745 0.00450000539
v 0.00113126822 -0.00232331455 0.00450000539
v 0.00107680447 -0.00258652866 0.00450000539
v 0.000989219174 -0.00283703208 0.00450000539
v 0.000871110708 -0.00307221711 0.00450000539
v 0.000725086778 -0.00328949094 0.00450000539
v 0.000553749502 -0.00348624587 0.00450000539
v 0.000359704718 -0.0036598742 0.00450000539
v 0.000145556405 -0.00380778313 0.00450000539
v -8.60933214e-05 -0.00392735004 0.00450000539
v -0.000332638621 -0.00401596725 0.00450000539
v -0.000591475517 -0.00407105684 0.00450000539
v -0.000860000029 -0.00408999622 0.00450000539
v -0.00117847882 -0.00406987965 0.00450000539
v -0.00147782452 -0.00401073694 0.00450000539
v -0.00175640732 -0.00391437113 0.00450000539
v -0.00201259367 -0.00378260016 0.00450000539
v -0.0022447519 -0.00361719728 0.00450000539
v -0.00245125033 -0.00341999531 0.00450000539
v -0.00263045728 -0.0031927973 0.00450000539
v -0.00278074108 -0.0029374063 0.00450000539
v -0.00290046819 -0.00265562534 0.00450000539
v -0.00298800878 -0.00234925747 0.00450000539
v -0.00304173119 -0.00202012062 0.00450000539
v -0.00306000002 -0.00167000294 0.00450000539
v -0.00304008648 -0.00124320388 0.00450000539
v -0.00298069417 -0.000818938017 0.00450000539
v -0.00288234279 -0.000398904085 0.00450000539
v -0.00274555571 1.51842833e-05 0.00450000539
v -0.00257085077 0.000421628356 0.00450000539
v -0.00235874951 0.000818744302 0.00450000539
v -0.00210977346 0.00120481849 0.00450000539
v -0.00182444416 0.00157815218 0.00450000539
v -0.0015032813 0.00193703175 0.00450000539
v -0.0011468064 0.00227977335 0.00450000539
v -0.000755539164 0.00260466337 0.00450000539
v -0.000329999253 0.00291000307 0.00450000539
v 0.000259999186 0.00215999782 0.00450000539
v -0.000762008131 -0.00315076113 0.00450000539
v -0.000613564625 -0.00312356651 0.00450000539
v -0.000475468114 -0.00307922065 0.00450000539
v -0.000348517671 -0.00301851332 0.00450000539
v -0.000233512372 -0.00294226408 0.00450000539
v -0.000131249428 -0.00285124779 0.00450000539
v -4.25297767e-05 -0.00274628401 0.00450000539
v 3.18512321e-05 -0.0026281476 0.00450000539
v 9.1092661e-05 -0.00249765813 0.00450000539
v 0.000134397298 -0.00235560536 0.00450000539
v 0.000160966069 -0.00220277905 0.00450000539
v 0.000169999897 -0.00203999877 0.00450000539
v 0.000160180032 -0.00189329684 0.00450000539
v 0.000131435692 -0.00175389647 0.00450000539
v 8.48434865e-05 -0.00162281096 0.00450000539
v 2.14818865e-05 -0.00150111318 0.00450000539
v -5.75762242e-05 -0.0013898313 0.00450000539
v -0.000151250511 -0.00129000843 0.00450000539
v -0.000258466229 -0.00120267272 0.00450000539
v -0.00037814863 -0.00112889707 0.00450000539
v -0.000509219244 -0.00106969476 0.00450000539
v -0.000650601462 -0.00102610886 0.00450000539
v -0.000801220536 -0.000999197364 0.00450000539
v -0.000959999859 -0.000990003347 0.00450000539
v -0.00106126815 -0.000991731882 0.00450000539
v -0.00115597248 -0.000997230411 0.00450000539
v -0.00124546885 -0.00100687146 0.00450000539
v -0.00133111142 -0.00102111697 0.00450000539
v -0.00141425431 -0.00104035437 0.00450000539
v -0.00149624981 -0.00106500089 0.00450000539
v -0.00157845579 -0.00109548867 0.00450000539
v -0.00166222267 -0.00113222003 0.00450000539
v -0.00174890645 -0.00117562711 0.00450000539
v -0.00183986127 -0.00122611225 0.00450000539
v -0.00193644129 -0.00128409266 0.00450000539
v -0.00204000063 -0.0013500005 0.00450000539
v -0.00208614022 -0.00162088871 0.00450000539
v -0.00209662132 -0.00187297165 0.00450000539
v -0.00207453035 -0.00210531056 0.00450000539
v -0.00202296302 -0.00231704116 0.00450000539
v -0.00194500573 -0.00250723958 0.00450000539
v -0.00184375048 -0.00267499685 0.00450000539
v -0.00172228552 -0.00281943381 0.00450000539
v -0.00158370286 -0.00293962657 0.00450000539
v -0.00143109448 -0.00303469598 0.00450000539
v -0.00126754679 -0.00310370326 0.00450000539
v -0.00109615177 -0.00314578414 0.00450000539
v -0.000919999555 -0.00315999985 0.00450000539
v 2.25584954e-05 0.00201131403 0.00409999862
v -0.000208703801 0.00184634328 0.00409999862
v -0.000432187691 0.00166670978 0.00409999862
v -0.000646296889 0.00147406757 0.00409999862
v -0.000849433243 0.00127004087 0.00409999862
v -0.00104000047 0.00105625391 0.00409999862
v -0.00121640041 0.000834330916 0.00409999862
v -0.0013770368 0.000605925918 0.00409999862
v -0.00152031332 0.000372648239 0.00409999862
v -0.00164462999 0.00013615191 0.00409999862
v -0.0017483905 -0.000101938844 0.00409999862
v -0.00183000043 -0.000339999795 0.00409999862
v -0.00176082179 -0.000305086374 0.00409999862
v -0.0016882401 -0.000270649791 0.00409999862
v -0.00161218829 -0.000237196684 0.00409999862
v -0.00153259188 -0.00020518899 0.00409999862
v -0.00144938752 -0.000175133348 0.00409999862
v -0.00136250071 -0.000147506595 0.00409999862
v -0.0012718644 -0.000122785568 0.00409999862
v -0.0011774078 -0.000101476908 0.00409999862
v -0.001079062 -8.40574503e-05 0.00409999862
v -0.00097675994 -7.10189342e-05 0.00409999862
v -0.000870428979 -6.28381968e-05 0.00409999862
v -0.000760000199 -6.00069761e-05 0.00409999862
v -0.00049344264 -7.75754452e-05 0.00409999862
v -0.000240046531 -0.000128939748 0.00409999862
v -1.71922147e-06 -0.000212028623 0.00409999862
v 0.000219630077 -0.000324815512 0.00409999862
v 0.000422088429 -0.000465244055 0.00409999862
v 0.000603750348 -0.000631257892 0.00409999862
v 0.000762702897 -0.000820800662 0.00409999862
v 0.000897036865 -0.00103186071 0.00409999862
v 0.00100484304 -0.00126235187 0.00409999862
v 0.00108421408 -0.00151023269 0.00409999862
v 0.00113323517 -0.0017734617 0.00409999862
v 0.00115000084 -0.00204999745 0.00409999862
v 0.00113126822 -0.00232331455 0.00409999862
v 0.00107680447 -0.00258652866 0.00409999862
v 0.000989219174 -0.00283703208 0.00409999862
v 0.000871110708 -0.00307221711 0.00409999862
v 0.000725086778 -0.00328949094 0.00409999862
v 0.000553749502 -0.00348624587 0.00409999862
v 0.000359704718 -0.0036598742 0.00409999862
v 0.000145556405 -0.00380778313 0.00409999862
v -8.60933214e-05 -0.00392735004 0.00409999862
v -0.000332638621 -0.00401596725 0.00409999862
v -0.000591475517 -0.00407105684 0.00409999862
v -0.000860000029 -0.00408999622 0.00409999862
v -0.00117847882 -0.00406987965 0.00409999862
v -0.00147782452 -0.00401073694 0.00409999862
v -0.00175640732 -0.00391437113 0.00409999862
v -0.00201259367 -0.00378260016 0.00409999862
v -0.0022447519 -0.00361719728 0.00409999862
v -0.00245125033 -0.00341999531 0.00409999862
v -0.00263045728 -0.0031927973 0.00409999862
v -0.00278074108 -0.0029374063 0.00409999862
v -0.00290046819 -0.00265562534 0.00409999862
v -0.00298800878 -0.00234925747 0.00409999862
v -0.00304173119 -0.00202012062 0.00409999862
v -0.00306000002 -0.00167000294 0.00409999862
v -0.00304008648 -0.00124320388 0.00409999862
v -0.00298069417 -0.000818938017 0.00409999862
v -0.00288234279 -0.000398904085 0.00409999862
v -0.00274555571 1.51842833e-05 0.00409999862
v -0.00257085077 0.000421628356 0.00409999862
v -0.00235874951 0.000818744302 0.00409999862
v -0.00210977346 0.00120481849 0.00409999862
v -0.00182444416 0.00157815218 0.00409999862
v -0.0015032813 0.00193703175 0.00409999862
v -0.0011468064 0.00227977335 0.00409999862
v -0.000755539164 0.00260466337 0.00409999862
v -0.000329999253 0.00291000307 0.00409999862
v 0.000259999186 0.00215999782 0.00409999862
v -0.000762008131 -0.00315076113 0.00409999862
v -0.000613564625 -0.00312356651 0.00409999862
v -0.000475468114 -0.00307922065 0.00409999862
v -0.000348517671 -0.00301851332 0.00409999862
v -0.000233512372 -0.00294226408 0.00409999862
v -0.000131249428 -0.00285124779 0.00409999862
v -4.25297767e-05 -0.00274628401 0.00409999862
v 3.18512321e-05 -0.0026281476 0.00409999862
v 9.1092661e-05 -0.00249765813 0.00409999862
v 0.000134397298 -0.00235560536 0.00409999862
v 0.000160966069 -0.00220277905 0.00409999862
v 0.000169999897 -0.00203999877 0.00409999862
v 0.000160180032 -0.00189329684 0.00409999862
v 0.000131435692 -0.00175389647 0.00409999862
v 8.48434865e-05 -0.00162281096 0.00409999862
v 2.14818865e-05 -0.00150111318 0.00409999862
v -5.75762242e-05 -0.0013898313 0.00409999862
v -0.000151250511 -0.00129000843 0.00409999862
v -0.000258466229 -0.00120267272 0.00409999862
v -0.00037814863 -0.00112889707 0.00409999862
v -0.000509219244 -0.00106969476 0.00409999862
v -0.000650601462 -0.00102610886 0.00409999862
v -0.000801220536 -0.000999197364 0.00409999862
v -0.000959999859 -0.000990003347 0.00409999862
v -0.00106126815 -0.000991731882 0.00409999862
v -0.00115597248 -0.000997230411 0.00409999862
v -0.00124546885 -0.00100687146 0.00409999862
v -0.00133111142 -0.00102111697 0.00409999862
v -0.00141425431 -0.00104035437 0.00409999862
v -0.00149624981 -0.00106500089 0.00409999862
v -0.00157845579 -0.00109548867 0.00409999862
v -0.00166222267 -0.00113222003 0.00409999862
v -0.00174890645 -0.00117562711 0.00409999862
v -0.00183986127 -0.00122611225 0.00409999862
v -0.00193644129 -0.00128409266 0.00409999862
v -0.00204000063 -0.0013500005 0.00409999862
v -0.00208614022 -0.00162088871 0.00409999862
v -0.00209662132 -0.00187297165 0.00409999862
v -0.00207453035 -0.00210531056 0.00409999862
v -0.00202296302 -0.00231704116 0.00409999862
v -0.00194500573 -0.00250723958 0.00409999862
v -0.00184375048 -0.00267499685 0.00409999862
v -0.00172228552 -0.00281943381 0.00409999862
v -0.00158370286 -0.00293962657 0.00409999862
v -0.00143109448 -0.00303469598 0.00409999862
v -0.00126754679 -0.00310370326 0.00409999862
v -0.00109615177 -0.00314578414 0.00409999862
v -0.000919999555 -0.00315999985 0.00409999862
v 2.25584954e-05 0.00201131403 0.00409999862
v 2.25584954e-05 0.00201131403 0.00450000539
v -0.000208703801 0.00184634328 0.00409999862
v -0.000208703801 0.00184634328 0.00450000539
v -0.000432187691 0.00166670978 0.00409999862
v -0.000432187691 0.00166670978 0.00450000539
v -0.000646296889 0.00147406757 0.00409999862
v -0.000646296889 0.00147406757 0.00450000539
v -0.000849433243 0.00127004087 0.00409999862
v -0.000849433243 0.00127004087 0.00450000539
v -0.00104000047 0.00105625391 0.00409999862
v -0.00104000047 0.00105625391 0.00450000539
v -0.00121640041 0.000834330916 0.00409999862
v -0.00121640041 0.000834330916 0.00450000539
v -0.0013770368 0.000605925918 0.00409999862
v -0.0013770368 0.000605925918 0.00450000539
v -0.00152031332 0.000372648239 0.00409999862
v -0.00152031332 0.000372648239 0.00450000539
v -0.00164462999 0.00013615191 0.00409999862
v -0.00164462999 0.00013615191 0.00450000539
v -0.0017483905 -0.000101938844 0.00409999862
v -0.0017483905 -0.000101938844 0.00450000539
v -0.00183000043 -0.000339999795 0.00409999862
v -0.00183000043 -0.000339999795 0.00450000539
v -0.00176082179 -0.000305086374 0.00409999862
v -0.00176082179 -0.000305086374 0.00450000539
v -0.0016882401 -0.000270649791 0.00409999862
v -0.0016882401 -0.000270649791 0.00450000539
v -0.00161218829 -0.000237196684 0.00409999862
v -0.00161218829 -0.000237196684 0.00450000539
v -0.00153259188 -0.00020518899 0.00409999862
v -0.00153259188 -0.00020518899 0.00450000539
v -0.00144938752 -0.000175133348 0.00409999862
v -0.00144938752 -0.000175133348 0.00450000539
v -0.00136250071 -0.000147506595 0.00409999862
v -0.00136250071 -0.000147506595 0.00450000539
v -0.0012718644 -0.000122785568 0.00409999862
v -0.0012718644 -0.000122785568 0.00450000539
v -0.0011774078 -0.000101476908 0.00409999862
v -0.0011774078 -0.000101476908 0.00450000539
v -0.001079062 -8.40574503e-05 0.00409999862
v -0.001079062 -8.40574503e-05 0.00450000539
v -0.00097675994 -7.10189342e-05 0.00409999862
v -0.00097675994 -7.10189342e-05 0.00450000539
v -0.000870428979 -6.28381968e-05 0.00409999862
v -0.000870428979 -6.28381968e-05 0.00450000539
v -0.000760000199 -6.00069761e-05 0.00409999862
v -0.000760000199 -6.00069761e-05 0.00450000539
v -0.00049344264 -7.75754452e-05 0.00409999862
v -0.00049344264 -7.75754452e-05 0.00450000539
v -0.000240046531 -0.000128939748 0.00409999862
v -0.000240046531 -0.000128939748 0.00450000539
v -1.71922147e-06 -0.000212028623 0.00409999862
v -1.71922147e-06 -0.000212028623 0.00450000539
v 0.000219630077 -0.000324815512 0.00409999862
v 0.000219630077 -0.000324815512 0.00450000539
v 0.000422088429 -0.000465244055 0.00409999862
v 0.000422088429 -0.000465244055 0.00450000539
v 0.000603750348 -0.000631257892 0.00409999862
v 0.000603750348 -0.000631257892 0.00450000539
v 0.000762702897 -0.000820800662 0.00409999862
v 0.000762702897 -0.000820800662 0.00450000539
v 0.000897036865 -0.00103186071 0.00409999862
v 0.000897036865 -0.00103186071 0.00450000539
v 0.00100484304 -0.00126235187 0.00409999862
v 0.00100484304 -0.00126235187 0.00450000539
v 0.00108421408 -0.00151023269 0.00409999862
v 0.00108421408 -0.00151023269 0.00450000539
v 0.00113323517 -0.0017734617 0.00409999862
v 0.00113323517 -0.0017734617 0.00450000539
v 0.00115000084 -0.00204999745 0.00409999862
v 0.00115000084 -0.00204999745 0.00450000539
v 0.00113126822 -0.00232331455 0.00409999862
v 0.00113126822 -0.00232331455 0.00450000539
v 0.00107680447 -0.00258652866 0.00409999862
v 0.00107680447 -0.00258652866 0.00450000539
v 0.000989219174 -0.00283703208 0.00409999862
v 0.000989219174 -0.00283703208 0.00450000539
v 0.000871110708 -0.00307221711 0.00409999862
v 0.000871110708 -0.00307221711 0.00450000539
v 0.000725086778 -0.00328949094 0.00409999862
v 0.000725086778 -0.00328949094 0.00450000539
v 0.000553749502 -0.00348624587 0.00409999862
v 0.000553749502 -0.00348624587 0.00450000539
v 0.000359704718 -0.0036598742 0.00409999862
v 0.000359704718 -0.0036598742 0.00450000539
v 0.000145556405 -0.00380778313 0.00409999862
v 0.000145556405 -0.00380778313 0.00450000539
v -8.60933214e-05 -0.00392735004 0.00409999862
v -8.60933214e-05 -0.00392735004 0.00450000539
v -0.000332638621 -0.00401596725 0.00409999862
v -0.000332638621 -0.00401596725 0.00450000539
v -0.000591475517 -0.00407105684 0.00409999862
v -0.000591475517 -0.00407105684 0.00450000539
v -0.000860000029 -0.00408999622 0.00409999862
v -0.000860000029 -0.00408999622 0.00450000539
v -0.00117847882 -0.00406987965 0.00409999862
v -0.00117847882 -0.00406987965 0.00450000539
v -0.00147782452 -0.00401073694 0.00409999862
v -0.00147782452 -0.00401073694 0.00450000539
v -0.00175640732 -0.00391437113 0.00409999862
v -0.00175640732 -0.00391437113 0.00450000539
v -0.00201259367 -0.00378260016 0.00409999862
v -0.00201259367 -0.00378260016 0.00450000539
v -0.0022447519 -0.00361719728 0.00409999862
v -0.0022447519 -0.00361719728 0.00450000539
v -0.00245125033 -0.00341999531 0.00409999862
v -0.00245125033 -0.00341999531 0.00450000539
v -0.00263045728 -0.0031927973 0.00409999862
v -0.00263045728 -0.0031927973 0.00450000539
v -0.00278074108 -0.0029374063 0.00409999862
v -0.00278074108 -0.0029374063 0.00450000539
v -0.00290046819 -0.00265562534 0.00409999862
v -0.00290046819 -0.00265562534 0.00450000539
v -0.00298800878 -0.00234925747 0.00409999862
v -0.00298800878 -0.00234925747 0.00450000539
v -0.00304173119 -0.00202012062 0.00409999862
v -0.00304173119 -0.00202012062 0.00450000539
v -0.00306000002 -0.00167000294 0.00409999862
v -0.00306000002 -0.00167000294 0.00450000539
v -0.00304008648 -0.00124320388 0.00409999862
v -0.00304008648 -0.00124320388 0.00450000539
v -0.00298069417 -0.000818938017 0.00409999862
v -0.00298069417 -0.000818938017 0.00450000539
v -0.00288234279 -0.000398904085 0.00409999862
v -0.00288234279 -0.000398904085 0.00450000539
v -0.00274555571 1.51842833e-05 0.00409999862
v -0.00274555571 1.51842833e-05 0.00450000539
v -0.00257085077 0.000421628356 0.00409999862
v -0.00257085077 0.000421628356 0.00450000539
v -0.00235874951 0.000818744302 0.00409999862
v -0.00235874951 0.000818744302 0.00450000539
v -0.00210977346 0.00120481849 0.00409999862
v -0.00210977346 0.00120481849 0.00450000539
v -0.00182444416 0.00157815218 0.00409999862
v -0.00182444416 0.00157815218 0.00450000539
v -0.0015032813 0.00193703175 0.00409999862
v -0.0015032813 0.00193703175 0.00450000539
v -0.0011468064 0.00227977335 0.00409999862
v -0.0011468064 0.00227977335 0.00450000539
v -0.000755539164 0.00260466337 0.00409999862
v -0.000755539164 0.00260466337 0.00450000539
v -0.000329999253 0.00291000307 0.00409999862
v -0.000329999253 0.00291000307 0.00450000539
v 0.000259999186 0.00215999782 0.00409999862
v 0.000259999186 0.00215999782 0.00450000539
v -0.000762008131 -0.00315076113 0.00409999862
v -0.000762008131 -0.00315076113 0.00450000539
v -0.000613564625 -0.00312356651 0.00409999862
v -0.000613564625 -0.00312356651 0.00450000539
v -0.000475468114 -0.00307922065 0.00409999862
v -0.000475468114 -0.00307922065 0.00450000539
v -0.000348517671 -0.00301851332 0.00409999862
v -0.000348517671 -0.00301851332 0.00450000539
v -0.000233512372 -0.00294226408 0.00409999862
v -0.000233512372 -0.00294226408 0.00450000539
v -0.000131249428 -0.00285124779 0.00409999862
v -0.000131249428 -0.00285124779 0.00450000539
v -4.25297767e-05 -0.00274628401 0.00409999862
v -4.25297767e-05 -0.00274628401 0.00450000539
v 3.18512321e-05 -0.0026281476 0.00409999862
v 3.18512321e-05 -0.0026281476 0.00450000539
v 9.1092661e-05 -0.00249765813 0.00409999862
v 9.1092661e-05 -0.00249765813 0.00450000539
v 0.000134397298 -0.00235560536 0.00409999862
v 0.000134397298 -0.00235560536 0.00450000539
v 0.000160966069 -0.00220277905 0.00409999862
v 0.000160966069 -0.00220277905 0.00450000539
v 0.000169999897 -0.00203999877 0.00409999862
v 0.000169999897 -0.00203999877 0.00450000539
v 0.000160180032 -0.00189329684 0.00409999862
v 0.000160180032 -0.00189329684 0.00450000539
v 0.000131435692 -0.00175389647 0.00409999862
v 0.000131435692 -0.00175389647 0.00450000539
v 8.48434865e-05 -0.00162281096 0.00409999862
v 8.48434865e-05 -0.00162281096 0.00450000539
v 2.14818865e-05 -0.00150111318 0.00409999862
v 2.14818865e-05 -0.00150111318 0.00450000539
v -5.75762242e-05 -0.0013898313 0.00409999862
v -5.75762242e-05 -0.0013898313 0.00450000539
v -0.000151250511 -0.00129000843 0.00409999862
v -0.000151250511 -0.00129000843 0.00450000539
v -0.000258466229 -0.00120267272 0.00409999862
v -0.000258466229 -0.00120267272 0.00450000539
v -0.00037814863 -0.00112889707 0.00409999862
v -0.00037814863 -0.00112889707 0.00450000539
v -0.000509219244 -0.00106969476 0.00409999862
v -0.000509219244 -0.00106969476 0.00450000539
v -0.000650601462 -0.00102610886 0.00409999862
v -0.000650601462 -0.00102610886 0.00450000539
v -0.000801220536 -0.000999197364 0.00409999862
v -0.000801220536 -0.000999197364 0.00450000539
v -0.000959999859 -0.000990003347 0.00409999862
v -0.000959999859 -0.000990003347 0.00450000539
v -0.00106126815 -0.000991731882 0.00409999862
v -0.00106126815 -0.000991731882 0.00450000539
v -0.00115597248 -0.000997230411 0.00409999862
v -0.00115597248 -0.000997230411 0.00450000539
v -0.00124546885 -0.00100687146 0.00409999862
v -0.00124546885 -0.00100687146 0.00450000539
v -0.00133111142 -0.00102111697 0.00409999862
v -0.00133111142 -0.00102111697 0.00450000539
v -0.00141425431 -0.00104035437 0.00409999862
v -0.00141425431 -0.00104035437 0.00450000539
v -0.00149624981 -0.00106500089 0.00409999862
v -0.00149624981 -0.00106500089 0.00450000539
v -0.00157845579 -0.00109548867 0.00409999862
v -0.00157845579 -0.00109548867 0.00450000539
v -0.00166222267 -0.00113222003 0.00409999862
v -0.00166222267 -0.00113222003 0.00450000539
v -0.00174890645 -0.00117562711 0.00409999862
v -0.00174890645 -0.00117562711 0.00450000539
v -0.00183986127 -0.00122611225 0.00409999862
v -0.00183986127 -0.00122611225 0.00450000539
v -0.00193644129 -0.00128409266 0.00409999862
v -0.00193644129 -0.00128409266 0.00450000539
v -0.00204000063 -0.0013500005 0.00409999862
v -0.00204000063 -0.0013500005 0.00450000539
v -0.00208614022 -0.00162088871 0.00409999862
v -0.00208614022 -0.00162088871 0.00450000539
v -0.00209662132 -0.00187297165 0.00409999862
v -0.00209662132 -0.00187297165 0.00450000539
v -0.00207453035 -0.00210531056 0.00409999862
v -0.00207453035 -0.00210531056 0.00450000539
v -0.00202296302 -0.00231704116 0.00409999862
v -0.00202296302 -0.00231704116 0.00450000539
v -0.00194500573 -0.00250723958 0.00409999862
v -0.00194500573 -0.00250723958 0.00450000539
v -0.00184375048 -0.00267499685 0.00409999862
v -0.00184375048 -0.00267499685 0.00450000539
v -0.00172228552 -0.00281943381 0.00409999862
v -0.00172228552 -0.00281943381 0.00450000539
v -0.00158370286 -0.00293962657 0.00409999862
v -0.00158370286 -0.00293962657 0.00450000539
v -0.00143109448 -0.00303469598 0.00409999862
v -0.00143109448 -0.00303469598 0.00450000539
v -0.00126754679 -0.00310370326 0.00409999862
v -0.00126754679 -0.00310370326 0.00450000539
v -0.00109615177 -0.00314578414 0.00409999862
v -0.00109615177 -0.00314578414 0.00450000539
v -0.000919999555 -0.00315999985 0.00409999862
v -0.000919999555 -0.00315999985 0.00450000539
usemtl screen_white_text_003
f 223 225 224
f 222 225 223
f 221 225 222
f 221 153 225
f 221 154 153
f 220 154 221
f 220 155 154
f 220 156 155
f 219 156 220
f 219 157 156
f 219 158 157
f 218 158 219
f 218 159 158
f 218 160 159
f 217 160 218
f 217 161 160
f 216 161 217
f 216 162 161
f 216 163 162
f 215 163 216
f 175 177 176
f 174 177 175
f 173 177 174
f 173 178 177
f 172 178 173
f 171 178 172
f 215 164 163
f 170 178 171
f 170 179 178
f 169 179 170
f 168 179 169
f 167 179 168
f 167 180 179
f 166 180 167
f 165 180 166
f 164 180 165
f 164 181 180
f 215 181 164
f 214 181 215
f 214 182 181
f 214 183 182
f 213 252 214
f 252 251 214
f 251 183 214
f 251 250 183
f 250 249 183
f 249 184 183
f 248 184 249
f 247 184 248
f 213 253 252
f 213 254 253
f 246 184 247
f 246 185 184
f 213 255 254
f 213 256 255
f 245 185 246
f 213 257 256
f 244 185 245
f 213 258 257
f 213 259 258
f 243 185 244
f 213 260 259
f 212 260 213
f 243 186 185
f 212 261 260
f 242 186 243
f 212 262 261
f 241 186 242
f 240 186 241
f 240 187 186
f 212 263 262
f 239 187 240
f 211 263 212
f 238 187 239
f 238 188 187
f 211 264 263
f 237 188 238
f 210 264 211
f 236 188 237
f 236 189 188
f 210 265 264
f 235 189 236
f 210 266 265
f 235 190 189
f 209 266 210
f 234 190 235
f 233 190 234
f 209 267 266
f 233 191 190
f 232 191 233
f 208 267 209
f 208 268 267
f 231 191 232
f 208 269 268
f 231 192 191
f 230 192 231
f 207 269 208
f 207 270 269
f 229 192 230
f 228 192 229
f 207 271 270
f 228 193 192
f 227 193 228
f 207 272 271
f 226 193 227
f 207 273 272
f 273 193 226
f 207 193 273
f 206 193 207
f 206 194 193
f 205 194 206
f 205 195 194
f 204 195 205
f 204 196 195
f 203 196 204
f 203 197 196
f 202 197 203
f 202 198 197
f 201 198 202
f 201 199 198
f 200 199 201
f 344 345 346
f 343 344 346
f 342 343 346
f 342 346 274
f 342 274 275
f 341 342 275
f 341 275 276
f 341 276 277
f 340 341 277
f 340 277 278
f 340 278 279
f 339 340 279
f 339 279 280
f 339 280 281
f 338 339 281
f 338 281 282
f 337 338 282
f 337 282 283
f 337 283 284
f 336 337 284
f 296 297 298
f 295 296 298
f 294 295 298
f 294 298 299
f 293 294 299
f 292 293 299
f 336 284 285
f 291 292 299
f 291 299 300
f 290 291 300
f 289 290 300
f 288 289 300
f 288 300 301
f 287 288 301
f 286 287 301
f 285 286 301
f 285 301 302
f 336 285 302
f 335 336 302
f 335 302 303
f 335 303 304
f 334 335 373
f 373 335 372
f 372 335 304
f 372 304 371
f 371 304 370
f 370 304 305
f 369 370 305
f 368 369 305
f 334 373 374
f 334 374 375
f 367 368 305
f 367 305 306
f 334 375 376
f 334 376 377
f 366 367 306
f 334 377 378
f 365 366 306
f 334 378 379
f 334 379 380
f 364 365 306
f 334 380 381
f 333 334 381
f 364 306 307
f 333 381 382
f 363 364 307
f 333 382 383
f 362 363 307
f 361 362 307
f 361 307 308
f 333 383 384
f 360 361 308
f 332 333 384
f 359 360 308
f 359 308 309
f 332 384 385
f 358 359 309
f 331 332 385
f 357 358 309
f 357 309 310
f 331 385 386
f 356 357 310
f 331 386 387
f 356 310 311
f 330 331 387
f 355 356 311
f 354 355 311
f 330 387 388
f 354 311 312
f 353 354 312
f 329 330 388
f 329 388 389
f 352 353 312
f 329 389 390
f 352 312 313
f 351 352 313
f 328 329 390
f 328 390 391
f 350 351 313
f 349 350 313
f 328 391 392
f 349 313 314
f 348 349 314
f 328 392 393
f 347 348 314
f 328 393 394
f 394 347 314
f 328 394 314
f 327 328 314
f 327 314 315
f 326 327 315
f 326 315 316
f 325 326 316
f 325 316 317
f 324 325 317
f 324 317 318
f 323 324 318
f 323 318 319
f 322 323 319
f 322 319 320
f 321 322 320
f 396 398 397 395
f 398 400 399 397
f 400 402 401 399
f 402 404 403 401
f 404 406 405 403
f 406 408 407 405
f 408 410 409 407
f 410 412 411 409
f 412 414 413 411
f 414 416 415 413
f 416 418 417 415
f 418 420 419 417
f 420 422 421 419
f 422 424 423 421
f 424 426 425 423
f 426 428 427 425
f 428 430 429 427
f 430 432 431 429
f 432 434 433 431
f 434 436 435 433
f 436 438 437 435
f 438 440 439 437
f 440 442 441 439
f 442 444 443 441
f 444 446 445 443
f 446 448 447 445
f 448 450 449 447
f 450 452 451 449
f 452 454 453 451
f 454 456 455 453
f 456 458 457 455
f 458 460 459 457
f 460 462 461 459
f 462 464 463 461
f 464 466 465 463
f 466 468 467 465
f 468 470 469 467
f 470 472 471 469
f 472 474 473 471
f 474 476 475 473
f 476 478 477 475
f 478 480 479 477
f 480 482 481 479
f 482 484 483 481
f 484 486 485 483
f 486 488 487 485
f 488 490 489 487
f 490 492 491 489
f 492 494 493 491
f 494 496 495 493
f 496 498 497 495
f 498 500 499 497
f 500 502 501 499
f 502 504 503 501
f 504 506 505 503
f 506 508 507 505
f 508 510 509 507
f 510 512 511 509
f 512 514 513 511
f 514 516 515 513
f 516 518 517 515
f 518 520 519 517
f 520 522 521 519
f 522 524 523 521
f 524 526 525 523
f 526 528 527 525
f 528 530 529 527
f 530 532 531 529
f 532 534 533 531
f 534 536 535 533
f 536 538 537 535
f 538 540 539 537
f 540 396 395 539
f 542 544 543 541
f 544 546 545 543
f 546 548 547 545
f 548 550 549 547
f 550 552 551 549
f 552 554 553 551
f 554 556 555 553
f 556 558 557 555
f 558 560 559 557
f 560 562 561 559
f 562 564 563 561
f 564 566 565 563
f 566 568 567 565
f 568 570 569 567
f 570 572 571 569
f 572 574 573 571
f 574 576 575 573
f 576 578 577 575
f 578 580 579 577
f 580 582 581 579
f 582 584 583 581
f 584 586 585 583
f 586 588 587 585
f 588 590 589 587
f 590 592 591 589
f 592 594 593 591
f 594 596 595 593
f 596 598 597 595
f 598 600 599 597
f 600 602 601 599
f 602 604 603 601
f 604 606 605 603
f 606 608 607 605
f 608 610 609 607
f 610 612 611 609
f 612 614 613 611
f 614 616 615 613
f 616 618 617 615
f 618 620 619 617
f 620 622 621 619
f 622 624 623 621
f 624 626 625 623
f 626 628 627 625
f 628 630 629 627
f 630 632 631 629
f 632 634 633 631
f 634 636 635 633
f 636 542 541 635
