mtllib keyboard_key_bottom_0_fn_link.mtl
o keyboard_key_bottom_0_fn_link

g keyboard_key_bottom_0_fn_SOLID
v -0.0164999962 -0.0164999999 0
v -0.0164999962 -0.0130000003 -0.00349999964
v -0.0200000107 -0.0130000003 0
v -0.0164999962 -0.0162335783 -0.00133939087
v -0.0164999962 -0.0154748745 -0.00247487426
v -0.017839402 -0.0162335783 0
v -0.0178729594 -0.0159120411 -0.00137295946
v -0.0178032815 -0.0152968913 -0.00229689106
v -0.0185207129 -0.0150207281 -0.00202072784
v -0.017839402 -0.0130000003 -0.00323357806
v -0.0189748704 -0.0130000003 -0.00247487426
v -0.0164999962 -0.0143393911 -0.00323357806
v -0.0178729594 -0.0143729597 -0.0029120408
v -0.018796891 -0.0143032968 -0.00229689106
v -0.019733578 -0.0143393911 0
v -0.0189748704 -0.0154748745 0
v -0.019733578 -0.0130000003 -0.00133939087
v -0.0194120407 -0.0143729597 -0.00137295946
v -0.018796891 -0.0152968913 -0.00130329654
v 0.0164999962 -0.0164999999 0
v 0.0200000107 -0.0130000003 0
v 0.0164999962 -0.0130000003 -0.00349999964
v 0.017839402 -0.0162335783 0
v 0.0189748704 -0.0154748745 0
v 0.0164999962 -0.0162335783 -0.00133939087
v 0.0178729594 -0.0159120411 -0.00137295946
v 0.018796891 -0.0152968913 -0.00130329654
v 0.0185207129 -0.0150207281 -0.00202072784
v 0.019733578 -0.0130000003 -0.0013393946
v 0.0189748704 -0.0130000003 -0.00247487426
v 0.019733578 -0.0143393911 0
v 0.0194120407 -0.0143729597 -0.00137295946
v 0.018796891 -0.0143032968 -0.00229689106
v 0.0164999962 -0.0143393911 -0.00323357806
v 0.0164999962 -0.0154748745 -0.00247487426
v 0.017839402 -0.0130000003 -0.00323357806
v 0.0178729594 -0.0143729597 -0.0029120408
v 0.0178032815 -0.0152968913 -0.00229689106
v 0.0164999962 0.0164999999 0
v 0.0164999962 0.0130000003 -0.00349999964
v 0.0200000107 0.0130000003 0
v 0.0164999962 0.0162335783 -0.00133939087
v 0.0164999962 0.0154748736 -0.00247487426
v 0.017839402 0.0162335783 0
v 0.0178729594 0.0159120392 -0.00137295946
v 0.0178032815 0.0152968913 -0.00229689106
v 0.0185207129 0.0150207262 -0.00202072784
v 0.017839402 0.0130000003 -0.00323357806
v 0.0189748704 0.0130000003 -0.00247487426
v 0.0164999962 0.0143393921 -0.00323357806
v 0.0178729594 0.0143729588 -0.0029120408
v 0.018796891 0.0143032968 -0.00229689106
v 0.019733578 0.0143393921 0
v 0.0189748704 0.0154748736 0
v 0.019733578 0.0130000003 -0.00133939087
v 0.0194120407 0.0143729588 -0.00137295946
v 0.018796891 0.0152968913 -0.00130329654
v -0.0164999962 0.0164999999 0
v -0.0200000107 0.0130000003 0
v -0.0164999962 0.0130000003 -0.00349999964
v -0.017839402 0.0162335783 0
v -0.0189748704 0.0154748736 0
v -0.0164999962 0.0162335783 -0.00133939087
v -0.0178729594 0.0159120392 -0.00137295946
v -0.018796891 0.0152968913 -0.00130329654
v -0.0185207129 0.0150207262 -0.00202072784
v -0.019733578 0.0130000003 -0.0013393946
v -0.0189748704 0.0130000003 -0.00247487426
v -0.019733578 0.0143393921 0
v -0.0194120407 0.0143729588 -0.00137295946
v -0.018796891 0.0143032968 -0.00229689106
v -0.0164999962 0.0143393921 -0.00323357806
v -0.0164999962 0.0154748736 -0.00247487426
v -0.017839402 0.0130000003 -0.00323357806
v -0.0178729594 0.0143729588 -0.0029120408
v -0.0178032815 0.0152968913 -0.00229689106
v -0.0200000107 -0.0130000003 0
v -0.0164999962 -0.0130000003 0.00350000337
v -0.0164999962 -0.0164999999 0
v -0.019733578 -0.0130000003 0.0013393946
v -0.0189748704 -0.0130000003 0.00247487426
v -0.019733578 -0.0143393911 0
v -0.0194120407 -0.0143729597 0.00137295946
v -0.018796891 -0.0143032968 0.00229689106
v -0.0185207129 -0.0150207281 0.00202072784
v -0.0164999962 -0.0143393911 0.00323357806
v -0.0164999962 -0.0154748745 0.00247487426
v -0.017839402 -0.0130000003 0.00323357806
v -0.0178729594 -0.0143729597 0.0029120408
v -0.0178032815 -0.0152968913 0.00229689106
v -0.017839402 -0.0162335783 0
v -0.0189748704 -0.0154748745 0
v -0.0164999962 -0.0162335783 0.00133939087
v -0.0178729594 -0.0159120411 0.00137295946
v -0.018796891 -0.0152968913 0.00130329654
v 0.0164999962 -0.0164999999 0
v 0.0164999962 -0.0130000003 0.00350000337
v 0.0200000107 -0.0130000003 0
v 0.0164999962 -0.0162335783 0.00133939087
v 0.0164999962 -0.0154748745 0.00247487426
v 0.017839402 -0.0162335783 0
v 0.0178729594 -0.0159120411 0.00137295946
v 0.0178032815 -0.0152968913 0.00229689106
v 0.0185207129 -0.0150207281 0.00202072784
v 0.017839402 -0.0130000003 0.00323357806
v 0.0189748704 -0.0130000003 0.00247487426
v 0.0164999962 -0.0143393911 0.00323357806
v 0.0178729594 -0.0143729597 0.0029120408
v 0.018796891 -0.0143032968 0.00229689106
v 0.019733578 -0.0143393911 0
v 0.0189748704 -0.0154748745 0
v 0.019733578 -0.0130000003 0.00133939087
v 0.0194120407 -0.0143729597 0.00137295946
v 0.018796891 -0.0152968913 0.00130329654
v 0.0164999962 0.0130000003 0.00350000337
v 0.0164999962 0.0164999999 0
v 0.0200000107 0.0130000003 0
v 0.0164999962 0.0143393921 0.00323357806
v 0.0164999962 0.0154748736 0.00247487426
v 0.017839402 0.0130000003 0.00323357806
v 0.0178729594 0.0143729588 0.0029120408
v 0.0178032815 0.0152968913 0.00229689106
v 0.0185207129 0.0150207262 0.00202072784
v 0.017839402 0.0162335783 0
v 0.0189748704 0.0154748736 0
v 0.0164999962 0.0162335783 0.00133939087
v 0.0178729594 0.0159120392 0.00137295946
v 0.018796891 0.0152968913 0.00130329654
v 0.019733578 0.0130000003 0.0013393946
v 0.0189748704 0.0130000003 0.00247487426
v 0.019733578 0.0143393921 0
v 0.0194120407 0.0143729588 0.00137295946
v 0.018796891 0.0143032968 0.00229689106
v -0.0200000107 0.0130000003 0
v -0.0164999962 0.0164999999 0
v -0.0164999962 0.0130000003 0.00350000337
v -0.019733578 0.0143393921 0
v -0.0189748704 0.0154748736 0
v -0.019733578 0.0130000003 0.00133939087
v -0.0194120407 0.0143729588 0.00137295946
v -0.018796891 0.0152968913 0.00130329654
v -0.0185207129 0.0150207262 0.00202072784
v -0.0164999962 0.0162335783 0.00133939087
v -0.0164999962 0.0154748736 0.00247487426
v -0.017839402 0.0162335783 0
v -0.0178729594 0.0159120392 0.00137295946
v -0.0178032815 0.0152968913 0.00229689106
v -0.017839402 0.0130000003 0.00323357806
v -0.0189748704 0.0130000003 0.00247487426
v -0.0164999962 0.0143393921 0.00323357806
v -0.0178729594 0.0143729588 0.0029120408
v -0.018796891 0.0143032968 0.00229689106
usemtl matte_black_keycaps_003
f 59 134 77 3
f 2 22 40 60
f 39 116 135 58
f 78 136 115 97
f 21 98 117 41
f 1 4 7 6
f 4 5 8 7
f 6 7 19 16
f 7 8 9 19
f 2 10 13 12
f 10 11 14 13
f 12 13 8 5
f 13 14 9 8
f 3 15 18 17
f 15 16 19 18
f 17 18 14 11
f 18 19 9 14
f 20 23 26 25
f 23 24 27 26
f 25 26 38 35
f 26 27 28 38
f 21 29 32 31
f 29 30 33 32
f 31 32 27 24
f 32 33 28 27
f 22 34 37 36
f 34 35 38 37
f 36 37 33 30
f 37 38 28 33
f 39 42 45 44
f 42 43 46 45
f 44 45 57 54
f 45 46 47 57
f 40 48 51 50
f 48 49 52 51
f 50 51 46 43
f 51 52 47 46
f 41 53 56 55
f 53 54 57 56
f 55 56 52 49
f 56 57 47 52
f 58 61 64 63
f 61 62 65 64
f 63 64 76 73
f 64 65 66 76
f 59 67 70 69
f 67 68 71 70
f 69 70 65 62
f 70 71 66 65
f 60 72 75 74
f 72 73 76 75
f 74 75 71 68
f 75 76 66 71
f 77 80 83 82
f 80 81 84 83
f 82 83 95 92
f 83 84 85 95
f 78 86 89 88
f 86 87 90 89
f 88 89 84 81
f 89 90 85 84
f 79 91 94 93
f 91 92 95 94
f 93 94 90 87
f 94 95 85 90
f 96 99 102 101
f 99 100 103 102
f 101 102 114 111
f 102 103 104 114
f 97 105 108 107
f 105 106 109 108
f 107 108 103 100
f 108 109 104 103
f 98 110 113 112
f 110 111 114 113
f 112 113 109 106
f 113 114 104 109
f 115 118 121 120
f 118 119 122 121
f 120 121 133 130
f 121 122 123 133
f 116 124 127 126
f 124 125 128 127
f 126 127 122 119
f 127 128 123 122
f 117 129 132 131
f 129 130 133 132
f 131 132 128 125
f 132 133 123 128
f 134 137 140 139
f 137 138 141 140
f 139 140 152 149
f 140 141 142 152
f 135 143 146 145
f 143 144 147 146
f 145 146 141 138
f 146 147 142 141
f 136 148 151 150
f 148 149 152 151
f 150 151 147 144
f 151 152 142 147
f 39 58 63 42
f 42 63 73 43
f 43 73 72 50
f 50 72 60 40
f 1 20 25 4
f 4 25 35 5
f 5 35 34 12
f 12 34 22 2
f 21 41 55 29
f 29 55 49 30
f 30 49 48 36
f 36 48 40 22
f 2 60 74 10
f 10 74 68 11
f 11 68 67 17
f 17 67 59 3
f 3 77 82 15
f 15 82 92 16
f 16 92 91 6
f 6 91 79 1
f 78 97 107 86
f 86 107 100 87
f 87 100 99 93
f 93 99 96 79
f 97 115 120 105
f 105 120 130 106
f 106 130 129 112
f 112 129 117 98
f 77 134 139 80
f 80 139 149 81
f 81 149 148 88
f 88 148 136 78
f 20 96 101 23
f 23 101 111 24
f 24 111 110 31
f 31 110 98 21
f 41 117 131 53
f 53 131 125 54
f 54 125 124 44
f 44 124 116 39
f 115 136 150 118
f 118 150 144 119
f 119 144 143 126
f 126 143 135 116
f 58 135 145 61
f 61 145 138 62
f 62 138 137 69
f 69 137 134 59
f 1 79 96 20

g key_legend_bottom_0_fn
v 0.000216007233 -0.000280000269 0.00450000539
v 0.000286579132 -0.000197032467 0.00450000539
v 0.000362068415 -0.000120259821 0.00450000539
v 0.000441998243 -4.98741865e-05 0.00450000539
v 0.000525921583 1.39251351e-05 0.00450000539
v 0.000613421202 7.09481537e-05 0.00450000539
v 0.000703990459 0.000120999292 0.00450000539
v 0.000797271729 0.000163884833 0.00450000539
v 0.000892728567 0.000199407339 0.00450000539
v 0.000990003347 0.000227374956 0.00450000539
v 0.00108858943 0.000247592106 0.00450000539
v 0.00118806958 0.000259865075 0.00450000539
v 0.00128799677 0.000264000148 0.00450000539
v 0.00145491958 0.000254301354 0.00450000539
v 0.00161477923 0.000225074589 0.00450000539
v 0.00176611543 0.000176124275 0.00450000539
v 0.00190755725 0.000107258558 0.00450000539
v 0.00203764439 1.82818621e-05 0.00450000539
v 0.00215500593 -9.09995288e-05 0.00450000539
v 0.00225818157 -0.000220783055 0.00450000539
v 0.0023457706 -0.000371258706 0.00450000539
v 0.0024163723 -0.000542625785 0.00450000539
v 0.00246855617 -0.000735074282 0.00450000539
v 0.00250089169 -0.000948801637 0.00450000539
v 0.00251200795 -0.0011839997 0.00450000539
v 0.00251200795 -0.00339999981 0.00450000539
v 0.00180000067 -0.00339999981 0.00450000539
v 0.00180000067 -0.00117599964 0.00450000539
v 0.00179439783 -0.00104792602 0.00450000539
v 0.00177785754 -0.000928074121 0.00450000539
v 0.00175073743 -0.000817000866 0.00450000539
v 0.00171348453 -0.000715259463 0.00450000539
v 0.00166642666 -0.000623406842 0.00450000539
v 0.00161001086 -0.000541999936 0.00450000539
v 0.00154456496 -0.000471591949 0.00450000539
v 0.00147050619 -0.000412741676 0.00450000539
v 0.00138825178 -0.000366000459 0.00450000539
v 0.00129815936 -0.000331925228 0.00450000539
v 0.00120061636 -0.000311074778 0.00450000539
v 0.00109601021 -0.000304000452 0.00450000539
v 0.00101923943 -0.000307051465 0.00450000539
v 0.000944644213 -0.000316407531 0.00450000539
v 0.000871628523 -0.000332375988 0.00450000539
v 0.000799715519 -0.000355258584 0.00450000539
v 0.000728338957 -0.00038536638 0.00450000539
v 0.000656992197 -0.000422999263 0.00450000539
v 0.0005851686 -0.000468468294 0.00450000539
v 0.000512301922 -0.000522073358 0.00450000539
v 0.000437885523 -0.000584125519 0.00450000539
v 0.000361382961 -0.000654926524 0.00450000539
v 0.000282257795 -0.000734781846 0.00450000539
v 0.000200003386 -0.000824000686 0.00450000539
v 0.000200003386 -0.00339999981 0.00450000539
v -0.000512003899 -0.00339999981 0.00450000539
v -0.000512003899 0.000191999599 0.00450000539
v 0.000200003386 0.000191999599 0.00450000539
v 0.000200003386 -0.000280000269 0.00450000539
v -0.000661045313 0.00137134269 0.00450000539
v -0.000688493252 0.00138140842 0.00450000539
v -0.000714629889 0.0013902504 0.00450000539
v -0.000739842653 0.00139792636 0.00450000539
v -0.000764518976 0.00140449032 0.00450000539
v -0.000788986683 0.00141000003 0.00450000539
v -0.000813633204 0.00141450949 0.00450000539
v -0.000838816166 0.00141807459 0.00450000539
v -0.000864863396 0.00142075121 0.00450000539
v -0.000892192125 0.00142259337 0.00450000539
v -0.000921100378 0.00142365694 0.00450000539
v -0.000952005386 0.00142399967 0.00450000539
v -0.00108796358 0.00141707063 0.00450000539
v -0.00120830536 0.00139655545 0.00450000539
v -0.00131374598 0.0013628751 0.00450000539
v -0.00140503049 0.00131644495 0.00450000539
v -0.00148287416 0.00125768036 0.00450000539
v -0.00154799223 0.00118700042 0.00450000539
v -0.00160112977 0.00110482052 0.00450000539
v -0.00164297223 0.00101155601 0.00450000539
v -0.00167426467 0.000907626003 0.00450000539
v -0.00169569254 0.000793443993 0.00450000539
v -0.0017080605 0.000669430941 0.00450000539
v -0.00171199441 0.000536000356 0.00450000539
v -0.00171199441 0.000191999599 0.00450000539
v -0.00106400251 0.000191999599 0.00450000539
v -0.00106400251 -0.000447999686 0.00450000539
v -0.00171199441 -0.000447999686 0.00450000539
v -0.00171199441 -0.00339999981 0.00450000539
v -0.00242400169 -0.00339999981 0.00450000539
v -0.00242400169 -0.000447999686 0.00450000539
v -0.00292798877 -0.000447999686 0.00450000539
v -0.00292798877 0.000191999599 0.00450000539
v -0.00242400169 0.000191999599 0.00450000539
v -0.00242400169 0.000455999747 0.00450000539
v -0.00242051482 0.000624518842 0.00450000539
v -0.00241023302 0.000778814778 0.00450000539
v -0.0023932457 0.000919999555 0.00450000539
v -0.00236979127 0.00104918517 0.00450000539
v -0.00233995914 0.00116748177 0.00450000539
v -0.00230398774 0.00127599947 0.00450000539
v -0.00226202607 0.00137585215 0.00450000539
v -0.00221422315 0.00146814808 0.00450000539
v -0.00216075778 0.00155399926 0.00450000539
v -0.00210177898 0.00163451768 0.00450000539
v -0.00203746557 0.00171081536 0.00450000539
v -0.00196799636 0.00178400055 0.00450000539
v -0.00188976526 0.00185657479 0.00450000539
v -0.0018068254 0.00192192569 0.00450000539
v -0.00171875954 0.00197950006 0.00450000539
v -0.00162518024 0.00202874094 0.00450000539
v -0.00152572989 0.00206909329 0.00450000539
v -0.00141999125 0.00210000016 0.00450000539
v -0.0013076067 0.00212090835 0.00450000539
v -0.00118815899 0.00213125907 0.00450000539
v -0.0010612607 0.00213050097 0.00450000539
v -0.000926524401 0.0021180734 0.00450000539
v -0.00078356266 0.00209342688 0.00450000539
v -0.000631988049 0.00205600075 0.00450000539
v -0.000631988049 0.00135999918 0.00450000539
v 0.000216007233 -0.000280000269 0.00409999862
v 0.000286579132 -0.000197032467 0.00409999862
v 0.000362068415 -0.000120259821 0.00409999862
v 0.000441998243 -4.98741865e-05 0.00409999862
v 0.000525921583 1.39251351e-05 0.00409999862
v 0.000613421202 7.09481537e-05 0.00409999862
v 0.000703990459 0.000120999292 0.00409999862
v 0.000797271729 0.000163884833 0.00409999862
v 0.000892728567 0.000199407339 0.00409999862
v 0.000990003347 0.000227374956 0.00409999862
v 0.00108858943 0.000247592106 0.00409999862
v 0.00118806958 0.000259865075 0.00409999862
v 0.00128799677 0.000264000148 0.00409999862
v 0.00145491958 0.000254301354 0.00409999862
v 0.00161477923 0.000225074589 0.00409999862
v 0.00176611543 0.000176124275 0.00409999862
v 0.00190755725 0.000107258558 0.00409999862
v 0.00203764439 1.82818621e-05 0.00409999862
v 0.00215500593 -9.09995288e-05 0.00409999862
v 0.00225818157 -0.000220783055 0.00409999862
v 0.0023457706 -0.000371258706 0.00409999862
v 0.0024163723 -0.000542625785 0.00409999862
v 0.00246855617 -0.000735074282 0.00409999862
v 0.00250089169 -0.000948801637 0.00409999862
v 0.00251200795 -0.0011839997 0.00409999862
v 0.00251200795 -0.00339999981 0.00409999862
v 0.00180000067 -0.00339999981 0.00409999862
v 0.00180000067 -0.00117599964 0.00409999862
v 0.00179439783 -0.00104792602 0.00409999862
v 0.00177785754 -0.000928074121 0.00409999862
v 0.00175073743 -0.000817000866 0.00409999862
v 0.00171348453 -0.000715259463 0.00409999862
v 0.00166642666 -0.000623406842 0.00409999862
v 0.00161001086 -0.000541999936 0.00409999862
v 0.00154456496 -0.000471591949 0.00409999862
v 0.00147050619 -0.000412741676 0.00409999862
v 0.00138825178 -0.000366000459 0.00409999862
v 0.00129815936 -0.000331925228 0.00409999862
v 0.00120061636 -0.000311074778 0.00409999862
v 0.00109601021 -0.000304000452 0.00409999862
v 0.00101923943 -0.000307051465 0.00409999862
v 0.000944644213 -0.000316407531 0.00409999862
v 0.000871628523 -0.000332375988 0.00409999862
v 0.000799715519 -0.000355258584 0.00409999862
v 0.000728338957 -0.00038536638 0.00409999862
v 0.000656992197 -0.000422999263 0.00409999862
v 0.0005851686 -0.000468468294 0.00409999862
v 0.000512301922 -0.000522073358 0.00409999862
v 0.000437885523 -0.000584125519 0.00409999862
v 0.000361382961 -0.000654926524 0.00409999862
v 0.000282257795 -0.000734781846 0.00409999862
v 0.000200003386 -0.000824000686 0.00409999862
v 0.000200003386 -0.00339999981 0.00409999862
v -0.000512003899 -0.00339999981 0.00409999862
v -0.000512003899 0.000191999599 0.00409999862
v 0.000200003386 0.000191999599 0.00409999862
v 0.000200003386 -0.000280000269 0.00409999862
v -0.000661045313 0.00137134269 0.00409999862
v -0.000688493252 0.00138140842 0.00409999862
v -0.000714629889 0.0013902504 0.00409999862
v -0.000739842653 0.00139792636 0.00409999862
v -0.000764518976 0.00140449032 0.00409999862
v -0.000788986683 0.00141000003 0.00409999862
v -0.000813633204 0.00141450949 0.00409999862
v -0.000838816166 0.00141807459 0.00409999862
v -0.000864863396 0.00142075121 0.00409999862
v -0.000892192125 0.00142259337 0.00409999862
v -0.000921100378 0.00142365694 0.00409999862
v -0.000952005386 0.00142399967 0.00409999862
v -0.00108796358 0.00141707063 0.00409999862
v -0.00120830536 0.00139655545 0.00409999862
v -0.00131374598 0.0013628751 0.00409999862
v -0.00140503049 0.00131644495 0.00409999862
v -0.00148287416 0.00125768036 0.00409999862
v -0.00154799223 0.00118700042 0.00409999862
v -0.00160112977 0.00110482052 0.00409999862
v -0.00164297223 0.00101155601 0.00409999862
v -0.00167426467 0.000907626003 0.00409999862
v -0.00169569254 0.000793443993 0.00409999862
v -0.0017080605 0.000669430941 0.00409999862
v -0.00171199441 0.000536000356 0.00409999862
v -0.00171199441 0.000191999599 0.00409999862
v -0.00106400251 0.000191999599 0.00409999862
v -0.00106400251 -0.000447999686 0.00409999862
v -0.00171199441 -0.000447999686 0.00409999862
v -0.00171199441 -0.00339999981 0.00409999862
v -0.00242400169 -0.00339999981 0.00409999862
v -0.00242400169 -0.000447999686 0.00409999862
v -0.00292798877 -0.000447999686 0.00409999862
v -0.00292798877 0.000191999599 0.00409999862
v -0.00242400169 0.000191999599 0.00409999862
v -0.00242400169 0.000455999747 0.00409999862
v -0.00242051482 0.000624518842 0.00409999862
v -0.00241023302 0.000778814778 0.00409999862
v -0.0023932457 0.000919999555 0.00409999862
v -0.00236979127 0.00104918517 0.00409999862
v -0.00233995914 0.00116748177 0.00409999862
v -0.00230398774 0.00127599947 0.00409999862
v -0.00226202607 0.00137585215 0.00409999862
v -0.00221422315 0.00146814808 0.00409999862
v -0.00216075778 0.00155399926 0.00409999862
v -0.00210177898 0.00163451768 0.00409999862
v -0.00203746557 0.00171081536 0.00409999862
v -0.00196799636 0.00178400055 0.00409999862
v -0.00188976526 0.00185657479 0.00409999862
v -0.0018068254 0.00192192569 0.00409999862
v -0.00171875954 0.00197950006 0.00409999862
v -0.00162518024 0.00202874094 0.00409999862
v -0.00152572989 0.00206909329 0.00409999862
v -0.00141999125 0.00210000016 0.00409999862
v -0.0013076067 0.00212090835 0.00409999862
v -0.00118815899 0.00213125907 0.00409999862
v -0.0010612607 0.00213050097 0.00409999862
v -0.000926524401 0.0021180734 0.00409999862
v -0.00078356266 0.00209342688 0.00409999862
v -0.000631988049 0.00205600075 0.00409999862
v -0.000631988049 0.00135999918 0.00409999862
v -0.000661045313 0.00137134269 0.00409999862
v -0.000661045313 0.00137134269 0.00450000539
v -0.000688493252 0.00138140842 0.00409999862
v -0.000688493252 0.00138140842 0.00450000539
v -0.000714629889 0.0013902504 0.00409999862
v -0.000714629889 0.0013902504 0.00450000539
v -0.000739842653 0.00139792636 0.00409999862
v -0.000739842653 0.00139792636 0.00450000539
v -0.000764518976 0.00140449032 0.00409999862
v -0.000764518976 0.00140449032 0.00450000539
v -0.000788986683 0.00141000003 0.00409999862
v -0.000788986683 0.00141000003 0.00450000539
v -0.000813633204 0.00141450949 0.00409999862
v -0.000813633204 0.00141450949 0.00450000539
v -0.000838816166 0.00141807459 0.00409999862
v -0.000838816166 0.00141807459 0.00450000539
v -0.000864863396 0.00142075121 0.00409999862
v -0.000864863396 0.00142075121 0.00450000539
v -0.000892192125 0.00142259337 0.00409999862
v -0.000892192125 0.00142259337 0.00450000539
v -0.000921100378 0.00142365694 0.00409999862
v -0.000921100378 0.00142365694 0.00450000539
v -0.000952005386 0.00142399967 0.00409999862
v -0.000952005386 0.00142399967 0.00450000539
v -0.00108796358 0.00141707063 0.00409999862
v -0.00108796358 0.00141707063 0.00450000539
v -0.00120830536 0.00139655545 0.00409999862
v -0.00120830536 0.00139655545 0.00450000539
v -0.00131374598 0.0013628751 0.00409999862
v -0.00131374598 0.0013628751 0.00450000539
v -0.00140503049 0.00131644495 0.00409999862
v -0.00140503049 0.00131644495 0.00450000539
v -0.00148287416 0.00125768036 0.00409999862
v -0.00148287416 0.00125768036 0.00450000539
v -0.00154799223 0.00118700042 0.00409999862
v -0.00154799223 0.00118700042 0.00450000539
v -0.00160112977 0.00110482052 0.00409999862
v -0.00160112977 0.00110482052 0.00450000539
v -0.00164297223 0.00101155601 0.00409999862
v -0.00164297223 0.00101155601 0.00450000539
v -0.00167426467 0.000907626003 0.00409999862
v -0.00167426467 0.000907626003 0.00450000539
v -0.00169569254 0.000793443993 0.00409999862
v -0.00169569254 0.000793443993 0.00450000539
v -0.0017080605 0.000669430941 0.00409999862
v -0.0017080605 0.000669430941 0.00450000539
v -0.00171199441 0.000536000356 0.00409999862
v -0.00171199441 0.000536000356 0.00450000539
v -0.00171199441 0.000191999599 0.00409999862
v -0.00171199441 0.000191999599 0.00450000539
v -0.00106400251 0.000191999599 0.00409999862
v -0.00106400251 0.000191999599 0.00450000539
v -0.00106400251 -0.000447999686 0.00409999862
v -0.00106400251 -0.000447999686 0.00450000539
v -0.00171199441 -0.000447999686 0.00409999862
v -0.00171199441 -0.000447999686 0.00450000539
v -0.00171199441 -0.00339999981 0.00409999862
v -0.00171199441 -0.00339999981 0.00450000539
v -0.00242400169 -0.00339999981 0.00409999862
v -0.00242400169 -0.00339999981 0.00450000539
v -0.00242400169 -0.000447999686 0.00409999862
v -0.00242400169 -0.000447999686 0.00450000539
v -0.00292798877 -0.000447999686 0.00409999862
v -0.00292798877 -0.000447999686 0.00450000539
v -0.00292798877 0.000191999599 0.00409999862
v -0.00292798877 0.000191999599 0.00450000539
v -0.00242400169 0.000191999599 0.00409999862
v -0.00242400169 0.000191999599 0.00450000539
v -0.00242400169 0.000455999747 0.00409999862
v -0.00242400169 0.000455999747 0.00450000539
v -0.00242051482 0.000624518842 0.00409999862
v -0.00242051482 0.000624518842 0.00450000539
v -0.00241023302 0.000778814778 0.00409999862
v -0.00241023302 0.000778814778 0.00450000539
v -0.0023932457 0.000919999555 0.00409999862
v -0.0023932457 0.000919999555 0.00450000539
v -0.00236979127 0.00104918517 0.00409999862
v -0.00236979127 0.00104918517 0.00450000539
v -0.00233995914 0.00116748177 0.00409999862
v -0.00233995914 0.00116748177 0.00450000539
v -0.00230398774 0.00127599947 0.00409999862
v -0.00230398774 0.00127599947 0.00450000539
v -0.00226202607 0.00137585215 0.00409999862
v -0.00226202607 0.00137585215 0.00450000539
v -0.00221422315 0.00146814808 0.00409999862
v -0.00221422315 0.00146814808 0.00450000539
v -0.00216075778 0.00155399926 0.00409999862
v -0.00216075778 0.00155399926 0.00450000539
v -0.00210177898 0.00163451768 0.00409999862
v -0.00210177898 0.00163451768 0.00450000539
v -0.00203746557 0.00171081536 0.00409999862
v -0.00203746557 0.00171081536 0.00450000539
v -0.00196799636 0.00178400055 0.00409999862
v -0.00196799636 0.00178400055 0.00450000539
v -0.00188976526 0.00185657479 0.00409999862
v -0.00188976526 0.00185657479 0.00450000539
v -0.0018068254 0.00192192569 0.00409999862
v -0.0018068254 0.00192192569 0.00450000539
v -0.00171875954 0.00197950006 0.00409999862
v -0.00171875954 0.00197950006 0.00450000539
v -0.00162518024 0.00202874094 0.00409999862
v -0.00162518024 0.00202874094 0.00450000539
v -0.00152572989 0.00206909329 0.00409999862
v -0.00152572989 0.00206909329 0.00450000539
v -0.00141999125 0.00210000016 0.00409999862
v -0.00141999125 0.00210000016 0.00450000539
v -0.0013076067 0.00212090835 0.00409999862
v -0.0013076067 0.00212090835 0.00450000539
v -0.00118815899 0.00213125907 0.00409999862
v -0.00118815899 0.00213125907 0.00450000539
v -0.0010612607 0.00213050097 0.00409999862
v -0.0010612607 0.00213050097 0.00450000539
v -0.000926524401 0.0021180734 0.00409999862
v -0.000926524401 0.0021180734 0.00450000539
v -0.00078356266 0.00209342688 0.00409999862
v -0.00078356266 0.00209342688 0.00450000539
v -0.000631988049 0.00205600075 0.00409999862
v -0.000631988049 0.00205600075 0.00450000539
v -0.000631988049 0.00135999918 0.00409999862
v -0.000631988049 0.00135999918 0.00450000539
v 0.000216007233 -0.000280000269 0.00409999862
v 0.000216007233 -0.000280000269 0.00450000539
v 0.000286579132 -0.000197032467 0.00409999862
v 0.000286579132 -0.000197032467 0.00450000539
v 0.000362068415 -0.000120259821 0.00409999862
v 0.000362068415 -0.000120259821 0.00450000539
v 0.000441998243 -4.98741865e-05 0.00409999862
v 0.000441998243 -4.98741865e-05 0.00450000539
v 0.000525921583 1.39251351e-05 0.00409999862
v 0.000525921583 1.39251351e-05 0.00450000539
v 0.000613421202 7.09481537e-05 0.00409999862
v 0.000613421202 7.09481537e-05 0.00450000539
v 0.000703990459 0.000120999292 0.00409999862
v 0.000703990459 0.000120999292 0.00450000539
v 0.000797271729 0.000163884833 0.00409999862
v 0.000797271729 0.000163884833 0.00450000539
v 0.000892728567 0.000199407339 0.00409999862
v 0.000892728567 0.000199407339 0.00450000539
v 0.000990003347 0.000227374956 0.00409999862
v 0.000990003347 0.000227374956 0.00450000539
v 0.00108858943 0.000247592106 0.00409999862
v 0.00108858943 0.000247592106 0.00450000539
v 0.00118806958 0.000259865075 0.00409999862
v 0.00118806958 0.000259865075 0.00450000539
v 0.00128799677 0.000264000148 0.00409999862
v 0.00128799677 0.000264000148 0.00450000539
v 0.00145491958 0.000254301354 0.00409999862
v 0.00145491958 0.000254301354 0.00450000539
v 0.00161477923 0.000225074589 0.00409999862
v 0.00161477923 0.000225074589 0.00450000539
v 0.00176611543 0.000176124275 0.00409999862
v 0.00176611543 0.000176124275 0.00450000539
v 0.00190755725 0.000107258558 0.00409999862
v 0.00190755725 0.000107258558 0.00450000539
v 0.00203764439 1.82818621e-05 0.00409999862
v 0.00203764439 1.82818621e-05 0.00450000539
v 0.00215500593 -9.09995288e-05 0.00409999862
v 0.00215500593 -9.09995288e-05 0.00450000539
v 0.00225818157 -0.000220783055 0.00409999862
v 0.00225818157 -0.000220783055 0.00450000539
v 0.0023457706 -0.000371258706 0.00409999862
v 0.0023457706 -0.000371258706 0.00450000539
v 0.0024163723 -0.000542625785 0.00409999862
v 0.0024163723 -0.000542625785 0.00450000539
v 0.00246855617 -0.000735074282 0.00409999862
v 0.00246855617 -0.000735074282 0.00450000539
v 0.00250089169 -0.000948801637 0.00409999862
v 0.00250089169 -0.000948801637 0.00450000539
v 0.00251200795 -0.0011839997 0.00409999862
v 0.00251200795 -0.0011839997 0.00450000539
v 0.00251200795 -0.00339999981 0.00409999862
v 0.00251200795 -0.00339999981 0.00450000539
v 0.00180000067 -0.00339999981 0.00409999862
v 0.00180000067 -0.00339999981 0.00450000539
v 0.00180000067 -0.00117599964 0.00409999862
v 0.00180000067 -0.00117599964 0.00450000539
v 0.00179439783 -0.00104792602 0.00409999862
v 0.00179439783 -0.00104792602 0.00450000539
v 0.00177785754 -0.000928074121 0.00409999862
v 0.00177785754 -0.000928074121 0.00450000539
v 0.00175073743 -0.000817000866 0.00409999862
v 0.00175073743 -0.000817000866 0.00450000539
v 0.00171348453 -0.000715259463 0.00409999862
v 0.00171348453 -0.000715259463 0.00450000539
v 0.00166642666 -0.000623406842 0.00409999862
v 0.00166642666 -0.000623406842 0.00450000539
v 0.00161001086 -0.000541999936 0.00409999862
v 0.00161001086 -0.000541999936 0.00450000539
v 0.00154456496 -0.000471591949 0.00409999862
v 0.00154456496 -0.000471591949 0.00450000539
v 0.00147050619 -0.000412741676 0.00409999862
v 0.00147050619 -0.000412741676 0.00450000539
v 0.00138825178 -0.000366000459 0.00409999862
v 0.00138825178 -0.000366000459 0.00450000539
v 0.00129815936 -0.000331925228 0.00409999862
v 0.00129815936 -0.000331925228 0.00450000539
v 0.00120061636 -0.000311074778 0.00409999862
v 0.00120061636 -0.000311074778 0.00450000539
v 0.00109601021 -0.000304000452 0.00409999862
v 0.00109601021 -0.000304000452 0.00450000539
v 0.00101923943 -0.000307051465 0.00409999862
v 0.00101923943 -0.000307051465 0.00450000539
v 0.000944644213 -0.000316407531 0.00409999862
v 0.000944644213 -0.000316407531 0.00450000539
v 0.000871628523 -0.000332375988 0.00409999862
v 0.000871628523 -0.000332375988 0.00450000539
v 0.000799715519 -0.000355258584 0.00409999862
v 0.000799715519 -0.000355258584 0.00450000539
v 0.000728338957 -0.00038536638 0.00409999862
v 0.000728338957 -0.00038536638 0.00450000539
v 0.000656992197 -0.000422999263 0.00409999862
v 0.000656992197 -0.000422999263 0.00450000539
v 0.0005851686 -0.000468468294 0.00409999862
v 0.0005851686 -0.000468468294 0.00450000539
v 0.000512301922 -0.000522073358 0.00409999862
v 0.000512301922 -0.000522073358 0.00450000539
v 0.000437885523 -0.000584125519 0.00409999862
v 0.000437885523 -0.000584125519 0.00450000539
v 0.000361382961 -0.000654926524 0.00409999862
v 0.000361382961 -0.000654926524 0.00450000539
v 0.000282257795 -0.000734781846 0.00409999862
v 0.000282257795 -0.000734781846 0.00450000539
v 0.000200003386 -0.000824000686 0.00409999862
v 0.000200003386 -0.000824000686 0.00450000539
v 0.000200003386 -0.00339999981 0.00409999862
v 0.000200003386 -0.00339999981 0.00450000539
v -0.000512003899 -0.00339999981 0.00409999862
v -0.000512003899 -0.00339999981 0.00450000539
v -0.000512003899 0.000191999599 0.00409999862
v -0.000512003899 0.000191999599 0.00450000539
v 0.000200003386 0.000191999599 0.00409999862
v 0.000200003386 0.000191999599 0.00450000539
v 0.000200003386 -0.000280000269 0.00409999862
v 0.000200003386 -0.000280000269 0.00450000539
usemtl screen_white_text_003
f 164 166 165
f 163 166 164
f 163 167 166
f 162 167 163
f 161 167 162
f 161 168 167
f 160 168 161
f 206 208 207
f 206 209 208
f 160 169 168
f 159 169 160
f 158 169 159
f 158 170 169
f 157 170 158
f 157 171 170
f 156 171 157
f 155 171 156
f 155 172 171
f 154 172 155
f 153 172 154
f 153 192 172
f 192 173 172
f 206 153 209
f 206 204 153
f 204 203 153
f 203 202 153
f 202 201 153
f 201 200 153
f 200 199 153
f 199 198 153
f 198 197 153
f 197 196 153
f 196 195 153
f 195 194 153
f 194 193 153
f 193 192 153
f 191 173 192
f 190 173 191
f 189 173 190
f 188 173 189
f 188 174 173
f 187 174 188
f 186 174 187
f 185 174 186
f 185 175 174
f 184 175 185
f 183 175 184
f 183 176 175
f 182 176 183
f 206 205 204
f 181 176 182
f 181 177 176
f 180 177 181
f 179 177 180
f 179 178 177
f 263 265 264
f 263 266 265
f 262 266 263
f 262 267 266
f 261 267 262
f 261 268 267
f 260 268 261
f 260 269 268
f 259 269 260
f 258 269 259
f 257 269 258
f 256 212 257
f 212 211 257
f 211 210 257
f 210 269 257
f 255 214 256
f 214 213 256
f 213 212 256
f 254 216 255
f 216 215 255
f 215 214 255
f 253 217 254
f 217 216 254
f 252 220 253
f 220 219 253
f 219 218 253
f 218 217 253
f 251 221 252
f 221 220 252
f 251 222 221
f 251 223 222
f 251 224 223
f 250 224 251
f 250 225 224
f 250 226 225
f 249 226 250
f 249 227 226
f 249 228 227
f 248 228 249
f 248 229 228
f 247 229 248
f 247 230 229
f 246 230 247
f 246 231 230
f 246 232 231
f 245 232 246
f 245 233 232
f 244 233 245
f 244 234 233
f 243 234 244
f 241 243 242
f 241 234 243
f 241 235 234
f 241 236 235
f 240 236 241
f 239 237 240
f 237 236 240
f 239 238 237
f 281 282 283
f 280 281 283
f 280 283 284
f 279 280 284
f 278 279 284
f 278 284 285
f 277 278 285
f 323 324 325
f 323 325 326
f 277 285 286
f 276 277 286
f 275 276 286
f 275 286 287
f 274 275 287
f 274 287 288
f 273 274 288
f 272 273 288
f 272 288 289
f 271 272 289
f 270 271 289
f 270 289 309
f 309 289 290
f 323 326 270
f 323 270 321
f 321 270 320
f 320 270 319
f 319 270 318
f 318 270 317
f 317 270 316
f 316 270 315
f 315 270 314
f 314 270 313
f 313 270 312
f 312 270 311
f 311 270 310
f 310 270 309
f 308 309 290
f 307 308 290
f 306 307 290
f 305 306 290
f 305 290 291
f 304 305 291
f 303 304 291
f 302 303 291
f 302 291 292
f 301 302 292
f 300 301 292
f 300 292 293
f 299 300 293
f 323 321 322
f 298 299 293
f 298 293 294
f 297 298 294
f 296 297 294
f 296 294 295
f 380 381 382
f 380 382 383
f 379 380 383
f 379 383 384
f 378 379 384
f 378 384 385
f 377 378 385
f 377 385 386
f 376 377 386
f 375 376 386
f 374 375 386
f 373 374 329
f 329 374 328
f 328 374 327
f 327 374 386
f 372 373 331
f 331 373 330
f 330 373 329
f 371 372 333
f 333 372 332
f 332 372 331
f 370 371 334
f 334 371 333
f 369 370 337
f 337 370 336
f 336 370 335
f 335 370 334
f 368 369 338
f 338 369 337
f 368 338 339
f 368 339 340
f 368 340 341
f 367 368 341
f 367 341 342
f 367 342 343
f 366 367 343
f 366 343 344
f 366 344 345
f 365 366 345
f 365 345 346
f 364 365 346
f 364 346 347
f 363 364 347
f 363 347 348
f 363 348 349
f 362 363 349
f 362 349 350
f 361 362 350
f 361 350 351
f 360 361 351
f 358 359 360
f 358 360 351
f 358 351 352
f 358 352 353
f 357 358 353
f 356 357 354
f 354 357 353
f 356 354 355
f 388 390 389 387
f 390 392 391 389
f 392 394 393 391
f 394 396 395 393
f 396 398 397 395
f 398 400 399 397
f 400 402 401 399
f 402 404 403 401
f 404 406 405 403
f 406 408 407 405
f 408 410 409 407
f 410 412 411 409
f 412 414 413 411
f 414 416 415 413
f 416 418 417 415
f 418 420 419 417
f 420 422 421 419
f 422 424 423 421
f 424 426 425 423
f 426 428 427 425
f 428 430 429 427
f 430 432 431 429
f 432 434 433 431
f 434 436 435 433
f 436 438 437 435
f 438 440 439 437
f 440 442 441 439
f 442 444 443 441
f 444 446 445 443
f 446 448 447 445
f 448 450 449 447
f 450 452 451 449
f 452 454 453 451
f 454 456 455 453
f 456 458 457 455
f 458 460 459 457
f 460 462 461 459
f 462 464 463 461
f 464 466 465 463
f 466 468 467 465
f 468 470 469 467
f 470 472 471 469
f 472 474 473 471
f 474 476 475 473
f 476 478 477 475
f 478 480 479 477
f 480 482 481 479
f 482 484 483 481
f 484 486 485 483
f 486 488 487 485
f 488 490 489 487
f 490 492 491 489
f 492 494 493 491
f 494 496 495 493
f 496 498 497 495
f 498 500 499 497
f 500 502 501 499
f 502 504 503 501
f 504 506 505 503
f 506 388 387 505
f 508 510 509 507
f 510 512 511 509
f 512 514 513 511
f 514 516 515 513
f 516 518 517 515
f 518 520 519 517
f 520 522 521 519
f 522 524 523 521
f 524 526 525 523
f 526 528 527 525
f 528 530 529 527
f 530 532 531 529
f 532 534 533 531
f 534 536 535 533
f 536 538 537 535
f 538 540 539 537
f 540 542 541 539
f 542 544 543 541
f 544 546 545 543
f 546 548 547 545
f 548 550 549 547
f 550 552 551 549
f 552 554 553 551
f 554 556 555 553
f 556 558 557 555
f 558 560 559 557
f 560 562 561 559
f 562 564 563 561
f 564 566 565 563
f 566 568 567 565
f 568 570 569 567
f 570 572 571 569
f 572 574 573 571
f 574 576 575 573
f 576 578 577 575
f 578 580 579 577
f 580 582 581 579
f 582 584 583 581
f 584 586 585 583
f 586 588 587 585
f 588 590 589 587
f 590 592 591 589
f 592 594 593 591
f 594 596 595 593
f 596 598 597 595
f 598 600 599 597
f 600 602 601 599
f 602 604 603 601
f 604 606 605 603
f 606 608 607 605
f 608 610 609 607
f 610 612 611 609
f 612 614 613 611
f 614 616 615 613
f 616 618 617 615
f 618 620 619 617
f 620 508 507 619
