mtllib keyboard_key_1_3_3_link.mtl
o keyboard_key_1_3_3_link

g keyboard_key_1_3_3_SOLID
v -0.0180000067 -0.0154999942 0
v -0.0180000067 -0.0119999945 -0.00349999964
v -0.0215000063 -0.0119999945 0
v -0.0180000067 -0.0152335763 -0.0013393946
v -0.0180000067 -0.0144748688 -0.00247487426
v -0.0193393975 -0.0152335763 0
v -0.019372955 -0.014912039 -0.00137295946
v -0.019303292 -0.0142968893 -0.00229689106
v -0.0200207233 -0.0140207261 -0.00202072784
v -0.0193393975 -0.0119999945 -0.00323357806
v -0.0204748809 -0.0119999945 -0.00247487426
v -0.0180000067 -0.0133393854 -0.00323357806
v -0.019372955 -0.0133729577 -0.0029120408
v -0.0202969015 -0.0133032948 -0.00229689106
v -0.0212335885 -0.0133393854 0
v -0.0204748809 -0.0144748688 0
v -0.0212335885 -0.0119999945 -0.00133939087
v -0.0209120363 -0.0133729577 -0.00137295946
v -0.0202969015 -0.0142968893 -0.00130329654
v 0.0180000067 -0.0154999942 0
v 0.0215000063 -0.0119999945 0
v 0.0180000067 -0.0119999945 -0.00349999964
v 0.0193393975 -0.0152335763 0
v 0.0204748809 -0.0144748688 0
v 0.0180000067 -0.0152335763 -0.00133939087
v 0.019372955 -0.014912039 -0.00137295946
v 0.0202969015 -0.0142968893 -0.00130329654
v 0.0200207233 -0.0140207261 -0.00202072784
v 0.0212335885 -0.0119999945 -0.0013393946
v 0.0204748809 -0.0119999945 -0.00247487426
v 0.0212335885 -0.0133393854 0
v 0.0209120363 -0.0133729577 -0.00137295946
v 0.0202969015 -0.0133032948 -0.00229689106
v 0.0180000067 -0.0133393854 -0.00323357806
v 0.0180000067 -0.0144748688 -0.00247487426
v 0.0193393975 -0.0119999945 -0.00323357806
v 0.019372955 -0.0133729577 -0.0029120408
v 0.019303292 -0.0142968893 -0.00229689106
v 0.0180000067 0.0154999942 0
v 0.0180000067 0.0119999945 -0.00349999964
v 0.0215000063 0.0119999945 0
v 0.0180000067 0.0152335763 -0.0013393946
v 0.0180000067 0.0144748688 -0.00247487426
v 0.0193393975 0.0152335763 0
v 0.019372955 0.014912039 -0.00137295946
v 0.019303292 0.0142968893 -0.00229689106
v 0.0200207233 0.0140207261 -0.00202072784
v 0.0193393975 0.0119999945 -0.00323357806
v 0.0204748809 0.0119999945 -0.00247487426
v 0.0180000067 0.0133393854 -0.00323357806
v 0.019372955 0.0133729577 -0.0029120408
v 0.0202969015 0.0133032948 -0.00229689106
v 0.0212335885 0.0133393854 0
v 0.0204748809 0.0144748688 0
v 0.0212335885 0.0119999945 -0.00133939087
v 0.0209120363 0.0133729577 -0.00137295946
v 0.0202969015 0.0142968893 -0.00130329654
v -0.0180000067 0.0154999942 0
v -0.0215000063 0.0119999945 0
v -0.0180000067 0.0119999945 -0.00349999964
v -0.0193393975 0.0152335763 0
v -0.0204748809 0.0144748688 0
v -0.0180000067 0.0152335763 -0.00133939087
v -0.019372955 0.014912039 -0.00137295946
v -0.0202969015 0.0142968893 -0.00130329654
v -0.0200207233 0.0140207261 -0.00202072784
v -0.0212335885 0.0119999945 -0.0013393946
v -0.0204748809 0.0119999945 -0.00247487426
v -0.0212335885 0.0133393854 0
v -0.0209120363 0.0133729577 -0.00137295946
v -0.0202969015 0.0133032948 -0.00229689106
v -0.0180000067 0.0133393854 -0.00323357806
v -0.0180000067 0.0144748688 -0.00247487426
v -0.0193393975 0.0119999945 -0.00323357806
v -0.019372955 0.0133729577 -0.0029120408
v -0.019303292 0.0142968893 -0.00229689106
v -0.0215000063 -0.0119999945 0
v -0.0180000067 -0.0119999945 0.00350000337
v -0.0180000067 -0.0154999942 0
v -0.0212335885 -0.0119999945 0.0013393946
v -0.0204748809 -0.0119999945 0.00247487426
v -0.0212335885 -0.0133393854 0
v -0.0209120363 -0.0133729577 0.00137295946
v -0.0202969015 -0.0133032948 0.00229689106
v -0.0200207233 -0.0140207261 0.00202072784
v -0.0180000067 -0.0133393854 0.00323357806
v -0.0180000067 -0.0144748688 0.00247487426
v -0.0193393975 -0.0119999945 0.00323357806
v -0.019372955 -0.0133729577 0.0029120408
v -0.019303292 -0.0142968893 0.00229689106
v -0.0193393975 -0.0152335763 0
v -0.0204748809 -0.0144748688 0
v -0.0180000067 -0.0152335763 0.00133939087
v -0.019372955 -0.014912039 0.00137295946
v -0.0202969015 -0.0142968893 0.00130329654
v 0.0180000067 -0.0154999942 0
v 0.0180000067 -0.0119999945 0.00350000337
v 0.0215000063 -0.0119999945 0
v 0.0180000067 -0.0152335763 0.0013393946
v 0.0180000067 -0.0144748688 0.00247487426
v 0.0193393975 -0.0152335763 0
v 0.019372955 -0.014912039 0.00137295946
v 0.019303292 -0.0142968893 0.00229689106
v 0.0200207233 -0.0140207261 0.00202072784
v 0.0193393975 -0.0119999945 0.00323357806
v 0.0204748809 -0.0119999945 0.00247487426
v 0.0180000067 -0.0133393854 0.00323357806
v 0.019372955 -0.0133729577 0.0029120408
v 0.0202969015 -0.0133032948 0.00229689106
v 0.0212335885 -0.0133393854 0
v 0.0204748809 -0.0144748688 0
v 0.0212335885 -0.0119999945 0.00133939087
v 0.0209120363 -0.0133729577 0.00137295946
v 0.0202969015 -0.0142968893 0.00130329654
v 0.0180000067 0.0119999945 0.00350000337
v 0.0180000067 0.0154999942 0
v 0.0215000063 0.0119999945 0
v 0.0180000067 0.0133393854 0.00323357806
v 0.0180000067 0.0144748688 0.00247487426
v 0.0193393975 0.0119999945 0.00323357806
v 0.019372955 0.0133729577 0.0029120408
v 0.019303292 0.0142968893 0.00229689106
v 0.0200207233 0.0140207261 0.00202072784
v 0.0193393975 0.0152335763 0
v 0.0204748809 0.0144748688 0
v 0.0180000067 0.0152335763 0.00133939087
v 0.019372955 0.014912039 0.00137295946
v 0.0202969015 0.0142968893 0.00130329654
v 0.0212335885 0.0119999945 0.0013393946
v 0.0204748809 0.0119999945 0.00247487426
v 0.0212335885 0.0133393854 0
v 0.0209120363 0.0133729577 0.00137295946
v 0.0202969015 0.0133032948 0.00229689106
v -0.0215000063 0.0119999945 0
v -0.0180000067 0.0154999942 0
v -0.0180000067 0.0119999945 0.00350000337
v -0.0212335885 0.0133393854 0
v -0.0204748809 0.0144748688 0
v -0.0212335885 0.0119999945 0.00133939087
v -0.0209120363 0.0133729577 0.00137295946
v -0.0202969015 0.0142968893 0.00130329654
v -0.0200207233 0.0140207261 0.00202072784
v -0.0180000067 0.0152335763 0.0013393946
v -0.0180000067 0.0144748688 0.00247487426
v -0.0193393975 0.0152335763 0
v -0.019372955 0.014912039 0.00137295946
v -0.019303292 0.0142968893 0.00229689106
v -0.0193393975 0.0119999945 0.00323357806
v -0.0204748809 0.0119999945 0.00247487426
v -0.0180000067 0.0133393854 0.00323357806
v -0.019372955 0.0133729577 0.0029120408
v -0.0202969015 0.0133032948 0.00229689106
usemtl matte_black_keycaps_003
f 59 134 77 3
f 2 22 40 60
f 39 116 135 58
f 78 136 115 97
f 21 98 117 41
f 1 4 7 6
f 4 5 8 7
f 6 7 19 16
f 7 8 9 19
f 2 10 13 12
f 10 11 14 13
f 12 13 8 5
f 13 14 9 8
f 3 15 18 17
f 15 16 19 18
f 17 18 14 11
f 18 19 9 14
f 20 23 26 25
f 23 24 27 26
f 25 26 38 35
f 26 27 28 38
f 21 29 32 31
f 29 30 33 32
f 31 32 27 24
f 32 33 28 27
f 22 34 37 36
f 34 35 38 37
f 36 37 33 30
f 37 38 28 33
f 39 42 45 44
f 42 43 46 45
f 44 45 57 54
f 45 46 47 57
f 40 48 51 50
f 48 49 52 51
f 50 51 46 43
f 51 52 47 46
f 41 53 56 55
f 53 54 57 56
f 55 56 52 49
f 56 57 47 52
f 58 61 64 63
f 61 62 65 64
f 63 64 76 73
f 64 65 66 76
f 59 67 70 69
f 67 68 71 70
f 69 70 65 62
f 70 71 66 65
f 60 72 75 74
f 72 73 76 75
f 74 75 71 68
f 75 76 66 71
f 77 80 83 82
f 80 81 84 83
f 82 83 95 92
f 83 84 85 95
f 78 86 89 88
f 86 87 90 89
f 88 89 84 81
f 89 90 85 84
f 79 91 94 93
f 91 92 95 94
f 93 94 90 87
f 94 95 85 90
f 96 99 102 101
f 99 100 103 102
f 101 102 114 111
f 102 103 104 114
f 97 105 108 107
f 105 106 109 108
f 107 108 103 100
f 108 109 104 103
f 98 110 113 112
f 110 111 114 113
f 112 113 109 106
f 113 114 104 109
f 115 118 121 120
f 118 119 122 121
f 120 121 133 130
f 121 122 123 133
f 116 124 127 126
f 124 125 128 127
f 126 127 122 119
f 127 128 123 122
f 117 129 132 131
f 129 130 133 132
f 131 132 128 125
f 132 133 123 128
f 134 137 140 139
f 137 138 141 140
f 139 140 152 149
f 140 141 142 152
f 135 143 146 145
f 143 144 147 146
f 145 146 141 138
f 146 147 142 141
f 136 148 151 150
f 148 149 152 151
f 150 151 147 144
f 151 152 142 147
f 39 58 63 42
f 42 63 73 43
f 43 73 72 50
f 50 72 60 40
f 1 20 25 4
f 4 25 35 5
f 5 35 34 12
f 12 34 22 2
f 21 41 55 29
f 29 55 49 30
f 30 49 48 36
f 36 48 40 22
f 2 60 74 10
f 10 74 68 11
f 11 68 67 17
f 17 67 59 3
f 3 77 82 15
f 15 82 92 16
f 16 92 91 6
f 6 91 79 1
f 78 97 107 86
f 86 107 100 87
f 87 100 99 93
f 93 99 96 79
f 97 115 120 105
f 105 120 130 106
f 106 130 129 112
f 112 129 117 98
f 77 134 139 80
f 80 139 149 81
f 81 149 148 88
f 88 148 136 78
f 20 96 101 23
f 23 101 111 24
f 24 111 110 31
f 31 110 98 21
f 41 117 131 53
f 53 131 125 54
f 54 125 124 44
f 44 124 116 39
f 115 136 150 118
f 118 150 144 119
f 119 144 143 126
f 126 143 135 116
f 58 135 145 61
f 61 145 138 62
f 62 138 137 69
f 69 137 134 59
f 1 79 96 20

g key_legend_1_3_3
v -0.00258783996 0.00266772509 0.00450000539
v -0.00248602033 0.00271092355 0.00450000539
v -0.00238406658 0.00274968147 0.00450000539
v -0.00228148699 0.00278407335 0.00450000539
v -0.00217778981 0.0028141588 0.00450000539
v -0.0020724982 0.00283999741 0.00450000539
v -0.00196513534 0.0028616786 0.00450000539
v -0.00185519457 0.00287926197 0.00450000539
v -0.00174218416 0.00289280713 0.00450000539
v -0.00162565708 0.00290240347 0.00450000539
v -0.00150507689 0.00290811062 0.00450000539
v -0.00137999654 0.00291000307 0.00450000539
v -0.00108416378 0.00289559364 0.00450000539
v -0.000807508826 0.00285314023 0.00450000539
v -0.000551253557 0.00278374553 0.00450000539
v -0.000316664577 0.00268851221 0.00450000539
v -0.000105008483 0.00256855786 0.00450000539
v 8.24928284e-05 0.00242500007 0.00450000539
v 0.00024458766 0.00225892663 0.00450000539
v 0.000379994512 0.00207148492 0.00450000539
v 0.000487491488 0.00186374784 0.00450000539
v 0.000565826893 0.00163684785 0.00450000539
v 0.000613749027 0.00139190257 0.00450000539
v 0.000629991293 0.00112999976 0.00450000539
v 0.000624716282 0.000946730375 0.00450000539
v 0.000608608127 0.000776380301 0.00450000539
v 0.000581249595 0.000618129969 0.00450000539
v 0.000542223454 0.000471115112 0.00450000539
v 0.000491112471 0.000334516168 0.00450000539
v 0.000427499413 0.00020749867 0.00450000539
v 0.00035096705 8.92281532e-05 0.00450000539
v 0.000261113048 -2.11149454e-05 0.00450000539
v 0.000157505274 -0.000124379992 0.00450000539
v 3.97264957e-05 -0.000221386552 0.00450000539
v -9.26405191e-05 -0.00031298399 0.00450000539
v -0.000239998102 -0.000400006771 0.00450000539
v -7.78734684e-05 -0.00046262145 0.00450000539
v 6.86943531e-05 -0.000544309616 0.00450000539
v 0.000200003386 -0.000643283129 0.00450000539
v 0.000316292048 -0.000757783651 0.00450000539
v 0.000417873263 -0.000886023045 0.00450000539
v 0.000505000353 -0.00102625787 0.00450000539
v 0.000577956438 -0.00117668509 0.00450000539
v 0.000637039542 -0.00133556128 0.00450000539
v 0.000682502985 -0.00150109828 0.00450000539
v 0.000714629889 -0.00167152286 0.00450000539
v 0.000733703375 -0.00184509158 0.00450000539
v 0.000739991665 -0.00202000141 0.00450000539
v 0.000721752644 -0.00231701136 0.00450000539
v 0.000668242574 -0.00259694457 0.00450000539
v 0.000581249595 -0.00285813212 0.00450000539
v 0.000462591648 -0.00309889019 0.00450000539
v 0.000314071774 -0.00331756473 0.00450000539
v 0.000137493014 -0.00351250172 0.00450000539
v -6.53266907e-05 -0.00368201733 0.00450000539
v -0.000292599201 -0.00382444263 0.00450000539
v -0.000542506576 -0.00393812358 0.00450000539
v -0.000813245773 -0.00402139127 0.00450000539
v -0.00110301375 -0.00407257676 0.00450000539
v -0.00141000748 -0.00408999622 0.00450000539
v -0.00152790546 -0.00408710539 0.00450000539
v -0.00164657831 -0.00407847762 0.00450000539
v -0.00176593661 -0.00406421721 0.00450000539
v -0.00188592076 -0.00404444337 0.00450000539
v -0.00200647116 -0.00401926041 0.00450000539
v -0.00212749839 -0.00398875773 0.00450000539
v -0.00224894285 -0.00395303965 0.00450000539
v -0.00237074494 -0.00391222537 0.00450000539
v -0.00249281526 -0.00386640429 0.00450000539
v -0.00261509418 -0.00381569564 0.00450000539
v -0.00273750722 -0.00376018882 0.00450000539
v -0.00285999477 -0.00370000303 0.00450000539
v -0.00285999477 -0.00264000893 0.00450000539
v -0.00273041427 -0.00272375345 0.00450000539
v -0.00260157883 -0.0028000474 0.00450000539
v -0.00247344375 -0.00286890566 0.00450000539
v -0.00234593451 -0.00293037295 0.00450000539
v -0.00221897662 -0.00298447907 0.00450000539
v -0.00209249556 -0.00303125381 0.00450000539
v -0.00196644664 -0.00307074189 0.00450000539
v -0.00184074044 -0.0031029582 0.00450000539
v -0.00171531737 -0.00312797725 0.00450000539
v -0.00159008801 -0.00314578414 0.00450000539
v -0.00146500766 -0.00315645337 0.00450000539
v -0.00134000182 -0.00315999985 0.00450000539
v -0.00117760897 -0.00315116346 0.00450000539
v -0.00102588534 -0.00312510133 0.00450000539
v -0.000885471702 -0.00308249891 0.00450000539
v -0.000757038593 -0.00302407146 0.00450000539
v -0.00064124167 -0.00295050442 0.00450000539
v -0.000538751483 -0.00286249816 0.00450000539
v -0.000450208783 -0.00276073813 0.00450000539
v -0.000376299024 -0.00264592469 0.00450000539
v -0.000317662954 -0.00251875818 0.00450000539
v -0.000274956226 -0.00237990916 0.00450000539
v -0.000248849392 -0.00223009288 0.00450000539
v -0.000239998102 -0.00206999481 0.00450000539
v -0.000250205398 -0.00190587342 0.00450000539
v -0.00028078258 -0.00174944103 0.00450000539
v -0.000331714749 -0.00160218775 0.00450000539
v -0.000402972102 -0.00146555901 0.00450000539
v -0.000494480133 -0.0013410151 0.00450000539
v -0.000606253743 -0.00123000145 0.00450000539
v -0.000738218427 -0.00113399327 0.00450000539
v -0.000890374184 -0.00105445087 0.00450000539
v -0.00106266141 -0.000992819667 0.00450000539
v -0.0012550503 -0.000950559974 0.00450000539
v -0.00146751106 -0.000929132104 0.00450000539
v -0.00169999897 -0.000929996371 0.00450000539
v -0.00169999897 -2.99960375e-05 0.00450000539
v -0.00148437917 -2.2366643e-05 0.00450000539
v -0.00128750503 2.68220901e-07 0.00450000539
v -0.00110937655 3.74913216e-05 0.00450000539
v -0.000950008631 8.88854265e-05 0.00450000539
v -0.000809371471 0.000154018402 0.00450000539
v -0.000687494874 0.000232502818 0.00450000539
v -0.000584378839 0.00032389164 0.00450000539
v -0.000500008464 0.000427782536 0.00450000539
v -0.00043438375 0.000543743372 0.00450000539
v -0.000387504697 0.000671386719 0.00450000539
v -0.000359371305 0.000810280442 0.00450000539
v -0.000349998474 0.000959992409 0.00450000539
v -0.000359475613 0.00111241639 0.00450000539
v -0.00038741529 0.00125430524 0.00450000539
v -0.000433132052 0.00138515234 0.00450000539
v -0.000495925546 0.00150443614 0.00450000539
v -0.000575110316 0.00161164999 0.00450000539
v -0.000670000911 0.00170624256 0.00450000539
v -0.000779882073 0.00178772211 0.00450000539
v -0.000904083252 0.0018555522 0.00450000539
v -0.00104187429 0.00190921128 0.00450000539
v -0.00119259953 0.00194819272 0.00450000539
v -0.00135552883 0.00197196007 0.00450000539
v -0.00153000653 0.00197999179 0.00450000539
v -0.00162157416 0.00197830796 0.00450000539
v -0.00171175599 0.00197309256 0.00450000539
v -0.00180125237 0.00196421146 0.00450000539
v -0.00189074874 0.00195148587 0.00450000539
v -0.00198093057 0.00193470716 0.00450000539
v -0.0020724982 0.00191374123 0.00450000539
v -0.002166152 0.00188840926 0.00450000539
v -0.00226259232 0.00185851753 0.00450000539
v -0.0023625046 0.00182390213 0.00450000539
v -0.00246657431 0.00178439915 0.00450000539
v -0.0025755167 0.00173981488 0.00450000539
v -0.00269000232 0.0016900003 0.00450000539
v -0.00269000232 0.00261999667 0.00450000539
v -0.00258783996 0.00266772509 0.00409999862
v -0.00248602033 0.00271092355 0.00409999862
v -0.00238406658 0.00274968147 0.00409999862
v -0.00228148699 0.00278407335 0.00409999862
v -0.00217778981 0.0028141588 0.00409999862
v -0.0020724982 0.00283999741 0.00409999862
v -0.00196513534 0.0028616786 0.00409999862
v -0.00185519457 0.00287926197 0.00409999862
v -0.00174218416 0.00289280713 0.00409999862
v -0.00162565708 0.00290240347 0.00409999862
v -0.00150507689 0.00290811062 0.00409999862
v -0.00137999654 0.00291000307 0.00409999862
v -0.00108416378 0.00289559364 0.00409999862
v -0.000807508826 0.00285314023 0.00409999862
v -0.000551253557 0.00278374553 0.00409999862
v -0.000316664577 0.00268851221 0.00409999862
v -0.000105008483 0.00256855786 0.00409999862
v 8.24928284e-05 0.00242500007 0.00409999862
v 0.00024458766 0.00225892663 0.00409999862
v 0.000379994512 0.00207148492 0.00409999862
v 0.000487491488 0.00186374784 0.00409999862
v 0.000565826893 0.00163684785 0.00409999862
v 0.000613749027 0.00139190257 0.00409999862
v 0.000629991293 0.00112999976 0.00409999862
v 0.000624716282 0.000946730375 0.00409999862
v 0.000608608127 0.000776380301 0.00409999862
v 0.000581249595 0.000618129969 0.00409999862
v 0.000542223454 0.000471115112 0.00409999862
v 0.000491112471 0.000334516168 0.00409999862
v 0.000427499413 0.00020749867 0.00409999862
v 0.00035096705 8.92281532e-05 0.00409999862
v 0.000261113048 -2.11149454e-05 0.00409999862
v 0.000157505274 -0.000124379992 0.00409999862
v 3.97264957e-05 -0.000221386552 0.00409999862
v -9.26405191e-05 -0.00031298399 0.00409999862
v -0.000239998102 -0.000400006771 0.00409999862
v -7.78734684e-05 -0.00046262145 0.00409999862
v 6.86943531e-05 -0.000544309616 0.00409999862
v 0.000200003386 -0.000643283129 0.00409999862
v 0.000316292048 -0.000757783651 0.00409999862
v 0.000417873263 -0.000886023045 0.00409999862
v 0.000505000353 -0.00102625787 0.00409999862
v 0.000577956438 -0.00117668509 0.00409999862
v 0.000637039542 -0.00133556128 0.00409999862
v 0.000682502985 -0.00150109828 0.00409999862
v 0.000714629889 -0.00167152286 0.00409999862
v 0.000733703375 -0.00184509158 0.00409999862
v 0.000739991665 -0.00202000141 0.00409999862
v 0.000721752644 -0.00231701136 0.00409999862
v 0.000668242574 -0.00259694457 0.00409999862
v 0.000581249595 -0.00285813212 0.00409999862
v 0.000462591648 -0.00309889019 0.00409999862
v 0.000314071774 -0.00331756473 0.00409999862
v 0.000137493014 -0.00351250172 0.00409999862
v -6.53266907e-05 -0.00368201733 0.00409999862
v -0.000292599201 -0.00382444263 0.00409999862
v -0.000542506576 -0.00393812358 0.00409999862
v -0.000813245773 -0.00402139127 0.00409999862
v -0.00110301375 -0.00407257676 0.00409999862
v -0.00141000748 -0.00408999622 0.00409999862
v -0.00152790546 -0.00408710539 0.00409999862
v -0.00164657831 -0.00407847762 0.00409999862
v -0.00176593661 -0.00406421721 0.00409999862
v -0.00188592076 -0.00404444337 0.00409999862
v -0.00200647116 -0.00401926041 0.00409999862
v -0.00212749839 -0.00398875773 0.00409999862
v -0.00224894285 -0.00395303965 0.00409999862
v -0.00237074494 -0.00391222537 0.00409999862
v -0.00249281526 -0.00386640429 0.00409999862
v -0.00261509418 -0.00381569564 0.00409999862
v -0.00273750722 -0.00376018882 0.00409999862
v -0.00285999477 -0.00370000303 0.00409999862
v -0.00285999477 -0.00264000893 0.00409999862
v -0.00273041427 -0.00272375345 0.00409999862
v -0.00260157883 -0.0028000474 0.00409999862
v -0.00247344375 -0.00286890566 0.00409999862
v -0.00234593451 -0.00293037295 0.00409999862
v -0.00221897662 -0.00298447907 0.00409999862
v -0.00209249556 -0.00303125381 0.00409999862
v -0.00196644664 -0.00307074189 0.00409999862
v -0.00184074044 -0.0031029582 0.00409999862
v -0.00171531737 -0.00312797725 0.00409999862
v -0.00159008801 -0.00314578414 0.00409999862
v -0.00146500766 -0.00315645337 0.00409999862
v -0.00134000182 -0.00315999985 0.00409999862
v -0.00117760897 -0.00315116346 0.00409999862
v -0.00102588534 -0.00312510133 0.00409999862
v -0.000885471702 -0.00308249891 0.00409999862
v -0.000757038593 -0.00302407146 0.00409999862
v -0.00064124167 -0.00295050442 0.00409999862
v -0.000538751483 -0.00286249816 0.00409999862
v -0.000450208783 -0.00276073813 0.00409999862
v -0.000376299024 -0.00264592469 0.00409999862
v -0.000317662954 -0.00251875818 0.00409999862
v -0.000274956226 -0.00237990916 0.00409999862
v -0.000248849392 -0.00223009288 0.00409999862
v -0.000239998102 -0.00206999481 0.00409999862
v -0.000250205398 -0.00190587342 0.00409999862
v -0.00028078258 -0.00174944103 0.00409999862
v -0.000331714749 -0.00160218775 0.00409999862
v -0.000402972102 -0.00146555901 0.00409999862
v -0.000494480133 -0.0013410151 0.00409999862
v -0.000606253743 -0.00123000145 0.00409999862
v -0.000738218427 -0.00113399327 0.00409999862
v -0.000890374184 -0.00105445087 0.00409999862
v -0.00106266141 -0.000992819667 0.00409999862
v -0.0012550503 -0.000950559974 0.00409999862
v -0.00146751106 -0.000929132104 0.00409999862
v -0.00169999897 -0.000929996371 0.00409999862
v -0.00169999897 -2.99960375e-05 0.00409999862
v -0.00148437917 -2.2366643e-05 0.00409999862
v -0.00128750503 2.68220901e-07 0.00409999862
v -0.00110937655 3.74913216e-05 0.00409999862
v -0.000950008631 8.88854265e-05 0.00409999862
v -0.000809371471 0.000154018402 0.00409999862
v -0.000687494874 0.000232502818 0.00409999862
v -0.000584378839 0.00032389164 0.00409999862
v -0.000500008464 0.000427782536 0.00409999862
v -0.00043438375 0.000543743372 0.00409999862
v -0.000387504697 0.000671386719 0.00409999862
v -0.000359371305 0.000810280442 0.00409999862
v -0.000349998474 0.000959992409 0.00409999862
v -0.000359475613 0.00111241639 0.00409999862
v -0.00038741529 0.00125430524 0.00409999862
v -0.000433132052 0.00138515234 0.00409999862
v -0.000495925546 0.00150443614 0.00409999862
v -0.000575110316 0.00161164999 0.00409999862
v -0.000670000911 0.00170624256 0.00409999862
v -0.000779882073 0.00178772211 0.00409999862
v -0.000904083252 0.0018555522 0.00409999862
v -0.00104187429 0.00190921128 0.00409999862
v -0.00119259953 0.00194819272 0.00409999862
v -0.00135552883 0.00197196007 0.00409999862
v -0.00153000653 0.00197999179 0.00409999862
v -0.00162157416 0.00197830796 0.00409999862
v -0.00171175599 0.00197309256 0.00409999862
v -0.00180125237 0.00196421146 0.00409999862
v -0.00189074874 0.00195148587 0.00409999862
v -0.00198093057 0.00193470716 0.00409999862
v -0.0020724982 0.00191374123 0.00409999862
v -0.002166152 0.00188840926 0.00409999862
v -0.00226259232 0.00185851753 0.00409999862
v -0.0023625046 0.00182390213 0.00409999862
v -0.00246657431 0.00178439915 0.00409999862
v -0.0025755167 0.00173981488 0.00409999862
v -0.00269000232 0.0016900003 0.00409999862
v -0.00269000232 0.00261999667 0.00409999862
v -0.00258783996 0.00266772509 0.00409999862
v -0.00258783996 0.00266772509 0.00450000539
v -0.00248602033 0.00271092355 0.00409999862
v -0.00248602033 0.00271092355 0.00450000539
v -0.00238406658 0.00274968147 0.00409999862
v -0.00238406658 0.00274968147 0.00450000539
v -0.00228148699 0.00278407335 0.00409999862
v -0.00228148699 0.00278407335 0.00450000539
v -0.00217778981 0.0028141588 0.00409999862
v -0.00217778981 0.0028141588 0.00450000539
v -0.0020724982 0.00283999741 0.00409999862
v -0.0020724982 0.00283999741 0.00450000539
v -0.00196513534 0.0028616786 0.00409999862
v -0.00196513534 0.0028616786 0.00450000539
v -0.00185519457 0.00287926197 0.00409999862
v -0.00185519457 0.00287926197 0.00450000539
v -0.00174218416 0.00289280713 0.00409999862
v -0.00174218416 0.00289280713 0.00450000539
v -0.00162565708 0.00290240347 0.00409999862
v -0.00162565708 0.00290240347 0.00450000539
v -0.00150507689 0.00290811062 0.00409999862
v -0.00150507689 0.00290811062 0.00450000539
v -0.00137999654 0.00291000307 0.00409999862
v -0.00137999654 0.00291000307 0.00450000539
v -0.00108416378 0.00289559364 0.00409999862
v -0.00108416378 0.00289559364 0.00450000539
v -0.000807508826 0.00285314023 0.00409999862
v -0.000807508826 0.00285314023 0.00450000539
v -0.000551253557 0.00278374553 0.00409999862
v -0.000551253557 0.00278374553 0.00450000539
v -0.000316664577 0.00268851221 0.00409999862
v -0.000316664577 0.00268851221 0.00450000539
v -0.000105008483 0.00256855786 0.00409999862
v -0.000105008483 0.00256855786 0.00450000539
v 8.24928284e-05 0.00242500007 0.00409999862
v 8.24928284e-05 0.00242500007 0.00450000539
v 0.00024458766 0.00225892663 0.00409999862
v 0.00024458766 0.00225892663 0.00450000539
v 0.000379994512 0.00207148492 0.00409999862
v 0.000379994512 0.00207148492 0.00450000539
v 0.000487491488 0.00186374784 0.00409999862
v 0.000487491488 0.00186374784 0.00450000539
v 0.000565826893 0.00163684785 0.00409999862
v 0.000565826893 0.00163684785 0.00450000539
v 0.000613749027 0.00139190257 0.00409999862
v 0.000613749027 0.00139190257 0.00450000539
v 0.000629991293 0.00112999976 0.00409999862
v 0.000629991293 0.00112999976 0.00450000539
v 0.000624716282 0.000946730375 0.00409999862
v 0.000624716282 0.000946730375 0.00450000539
v 0.000608608127 0.000776380301 0.00409999862
v 0.000608608127 0.000776380301 0.00450000539
v 0.000581249595 0.000618129969 0.00409999862
v 0.000581249595 0.000618129969 0.00450000539
v 0.000542223454 0.000471115112 0.00409999862
v 0.000542223454 0.000471115112 0.00450000539
v 0.000491112471 0.000334516168 0.00409999862
v 0.000491112471 0.000334516168 0.00450000539
v 0.000427499413 0.00020749867 0.00409999862
v 0.000427499413 0.00020749867 0.00450000539
v 0.00035096705 8.92281532e-05 0.00409999862
v 0.00035096705 8.92281532e-05 0.00450000539
v 0.000261113048 -2.11149454e-05 0.00409999862
v 0.000261113048 -2.11149454e-05 0.00450000539
v 0.000157505274 -0.000124379992 0.00409999862
v 0.000157505274 -0.000124379992 0.00450000539
v 3.97264957e-05 -0.000221386552 0.00409999862
v 3.97264957e-05 -0.000221386552 0.00450000539
v -9.26405191e-05 -0.00031298399 0.00409999862
v -9.26405191e-05 -0.00031298399 0.00450000539
v -0.000239998102 -0.000400006771 0.00409999862
v -0.000239998102 -0.000400006771 0.00450000539
v -7.78734684e-05 -0.00046262145 0.00409999862
v -7.78734684e-05 -0.00046262145 0.00450000539
v 6.86943531e-05 -0.000544309616 0.00409999862
v 6.86943531e-05 -0.000544309616 0.00450000539
v 0.000200003386 -0.000643283129 0.00409999862
v 0.000200003386 -0.000643283129 0.00450000539
v 0.000316292048 -0.000757783651 0.00409999862
v 0.000316292048 -0.000757783651 0.00450000539
v 0.000417873263 -0.000886023045 0.00409999862
v 0.000417873263 -0.000886023045 0.00450000539
v 0.000505000353 -0.00102625787 0.00409999862
v 0.000505000353 -0.00102625787 0.00450000539
v 0.000577956438 -0.00117668509 0.00409999862
v 0.000577956438 -0.00117668509 0.00450000539
v 0.000637039542 -0.00133556128 0.00409999862
v 0.000637039542 -0.00133556128 0.00450000539
v 0.000682502985 -0.00150109828 0.00409999862
v 0.000682502985 -0.00150109828 0.00450000539
v 0.000714629889 -0.00167152286 0.00409999862
v 0.000714629889 -0.00167152286 0.00450000539
v 0.000733703375 -0.00184509158 0.00409999862
v 0.000733703375 -0.00184509158 0.00450000539
v 0.000739991665 -0.00202000141 0.00409999862
v 0.000739991665 -0.00202000141 0.00450000539
v 0.000721752644 -0.00231701136 0.00409999862
v 0.000721752644 -0.00231701136 0.00450000539
v 0.000668242574 -0.00259694457 0.00409999862
v 0.000668242574 -0.00259694457 0.00450000539
v 0.000581249595 -0.00285813212 0.00409999862
v 0.000581249595 -0.00285813212 0.00450000539
v 0.000462591648 -0.00309889019 0.00409999862
v 0.000462591648 -0.00309889019 0.00450000539
v 0.000314071774 -0.00331756473 0.00409999862
v 0.000314071774 -0.00331756473 0.00450000539
v 0.000137493014 -0.00351250172 0.00409999862
v 0.000137493014 -0.00351250172 0.00450000539
v -6.53266907e-05 -0.00368201733 0.00409999862
v -6.53266907e-05 -0.00368201733 0.00450000539
v -0.000292599201 -0.00382444263 0.00409999862
v -0.000292599201 -0.00382444263 0.00450000539
v -0.000542506576 -0.00393812358 0.00409999862
v -0.000542506576 -0.00393812358 0.00450000539
v -0.000813245773 -0.00402139127 0.00409999862
v -0.000813245773 -0.00402139127 0.00450000539
v -0.00110301375 -0.00407257676 0.00409999862
v -0.00110301375 -0.00407257676 0.00450000539
v -0.00141000748 -0.00408999622 0.00409999862
v -0.00141000748 -0.00408999622 0.00450000539
v -0.00152790546 -0.00408710539 0.00409999862
v -0.00152790546 -0.00408710539 0.00450000539
v -0.00164657831 -0.00407847762 0.00409999862
v -0.00164657831 -0.00407847762 0.00450000539
v -0.00176593661 -0.00406421721 0.00409999862
v -0.00176593661 -0.00406421721 0.00450000539
v -0.00188592076 -0.00404444337 0.00409999862
v -0.00188592076 -0.00404444337 0.00450000539
v -0.00200647116 -0.00401926041 0.00409999862
v -0.00200647116 -0.00401926041 0.00450000539
v -0.00212749839 -0.00398875773 0.00409999862
v -0.00212749839 -0.00398875773 0.00450000539
v -0.00224894285 -0.00395303965 0.00409999862
v -0.00224894285 -0.00395303965 0.00450000539
v -0.00237074494 -0.00391222537 0.00409999862
v -0.00237074494 -0.00391222537 0.00450000539
v -0.00249281526 -0.00386640429 0.00409999862
v -0.00249281526 -0.00386640429 0.00450000539
v -0.00261509418 -0.00381569564 0.00409999862
v -0.00261509418 -0.00381569564 0.00450000539
v -0.00273750722 -0.00376018882 0.00409999862
v -0.00273750722 -0.00376018882 0.00450000539
v -0.00285999477 -0.00370000303 0.00409999862
v -0.00285999477 -0.00370000303 0.00450000539
v -0.00285999477 -0.00264000893 0.00409999862
v -0.00285999477 -0.00264000893 0.00450000539
v -0.00273041427 -0.00272375345 0.00409999862
v -0.00273041427 -0.00272375345 0.00450000539
v -0.00260157883 -0.0028000474 0.00409999862
v -0.00260157883 -0.0028000474 0.00450000539
v -0.00247344375 -0.00286890566 0.00409999862
v -0.00247344375 -0.00286890566 0.00450000539
v -0.00234593451 -0.00293037295 0.00409999862
v -0.00234593451 -0.00293037295 0.00450000539
v -0.00221897662 -0.00298447907 0.00409999862
v -0.00221897662 -0.00298447907 0.00450000539
v -0.00209249556 -0.00303125381 0.00409999862
v -0.00209249556 -0.00303125381 0.00450000539
v -0.00196644664 -0.00307074189 0.00409999862
v -0.00196644664 -0.00307074189 0.00450000539
v -0.00184074044 -0.0031029582 0.00409999862
v -0.00184074044 -0.0031029582 0.00450000539
v -0.00171531737 -0.00312797725 0.00409999862
v -0.00171531737 -0.00312797725 0.00450000539
v -0.00159008801 -0.00314578414 0.00409999862
v -0.00159008801 -0.00314578414 0.00450000539
v -0.00146500766 -0.00315645337 0.00409999862
v -0.00146500766 -0.00315645337 0.00450000539
v -0.00134000182 -0.00315999985 0.00409999862
v -0.00134000182 -0.00315999985 0.00450000539
v -0.00117760897 -0.00315116346 0.00409999862
v -0.00117760897 -0.00315116346 0.00450000539
v -0.00102588534 -0.00312510133 0.00409999862
v -0.00102588534 -0.00312510133 0.00450000539
v -0.000885471702 -0.00308249891 0.00409999862
v -0.000885471702 -0.00308249891 0.00450000539
v -0.000757038593 -0.00302407146 0.00409999862
v -0.000757038593 -0.00302407146 0.00450000539
v -0.00064124167 -0.00295050442 0.00409999862
v -0.00064124167 -0.00295050442 0.00450000539
v -0.000538751483 -0.00286249816 0.00409999862
v -0.000538751483 -0.00286249816 0.00450000539
v -0.000450208783 -0.00276073813 0.00409999862
v -0.000450208783 -0.00276073813 0.00450000539
v -0.000376299024 -0.00264592469 0.00409999862
v -0.000376299024 -0.00264592469 0.00450000539
v -0.000317662954 -0.00251875818 0.00409999862
v -0.000317662954 -0.00251875818 0.00450000539
v -0.000274956226 -0.00237990916 0.00409999862
v -0.000274956226 -0.00237990916 0.00450000539
v -0.000248849392 -0.00223009288 0.00409999862
v -0.000248849392 -0.00223009288 0.00450000539
v -0.000239998102 -0.00206999481 0.00409999862
v -0.000239998102 -0.00206999481 0.00450000539
v -0.000250205398 -0.00190587342 0.00409999862
v -0.000250205398 -0.00190587342 0.00450000539
v -0.00028078258 -0.00174944103 0.00409999862
v -0.00028078258 -0.00174944103 0.00450000539
v -0.000331714749 -0.00160218775 0.00409999862
v -0.000331714749 -0.00160218775 0.00450000539
v -0.000402972102 -0.00146555901 0.00409999862
v -0.000402972102 -0.00146555901 0.00450000539
v -0.000494480133 -0.0013410151 0.00409999862
v -0.000494480133 -0.0013410151 0.00450000539
v -0.000606253743 -0.00123000145 0.00409999862
v -0.000606253743 -0.00123000145 0.00450000539
v -0.000738218427 -0.00113399327 0.00409999862
v -0.000738218427 -0.00113399327 0.00450000539
v -0.000890374184 -0.00105445087 0.00409999862
v -0.000890374184 -0.00105445087 0.00450000539
v -0.00106266141 -0.000992819667 0.00409999862
v -0.00106266141 -0.000992819667 0.00450000539
v -0.0012550503 -0.000950559974 0.00409999862
v -0.0012550503 -0.000950559974 0.00450000539
v -0.00146751106 -0.000929132104 0.00409999862
v -0.00146751106 -0.000929132104 0.00450000539
v -0.00169999897 -0.000929996371 0.00409999862
v -0.00169999897 -0.000929996371 0.00450000539
v -0.00169999897 -2.99960375e-05 0.00409999862
v -0.00169999897 -2.99960375e-05 0.00450000539
v -0.00148437917 -2.2366643e-05 0.00409999862
v -0.00148437917 -2.2366643e-05 0.00450000539
v -0.00128750503 2.68220901e-07 0.00409999862
v -0.00128750503 2.68220901e-07 0.00450000539
v -0.00110937655 3.74913216e-05 0.00409999862
v -0.00110937655 3.74913216e-05 0.00450000539
v -0.000950008631 8.88854265e-05 0.00409999862
v -0.000950008631 8.88854265e-05 0.00450000539
v -0.000809371471 0.000154018402 0.00409999862
v -0.000809371471 0.000154018402 0.00450000539
v -0.000687494874 0.000232502818 0.00409999862
v -0.000687494874 0.000232502818 0.00450000539
v -0.000584378839 0.00032389164 0.00409999862
v -0.000584378839 0.00032389164 0.00450000539
v -0.000500008464 0.000427782536 0.00409999862
v -0.000500008464 0.000427782536 0.00450000539
v -0.00043438375 0.000543743372 0.00409999862
v -0.00043438375 0.000543743372 0.00450000539
v -0.000387504697 0.000671386719 0.00409999862
v -0.000387504697 0.000671386719 0.00450000539
v -0.000359371305 0.000810280442 0.00409999862
v -0.000359371305 0.000810280442 0.00450000539
v -0.000349998474 0.000959992409 0.00409999862
v -0.000349998474 0.000959992409 0.00450000539
v -0.000359475613 0.00111241639 0.00409999862
v -0.000359475613 0.00111241639 0.00450000539
v -0.00038741529 0.00125430524 0.00409999862
v -0.00038741529 0.00125430524 0.00450000539
v -0.000433132052 0.00138515234 0.00409999862
v -0.000433132052 0.00138515234 0.00450000539
v -0.000495925546 0.00150443614 0.00409999862
v -0.000495925546 0.00150443614 0.00450000539
v -0.000575110316 0.00161164999 0.00409999862
v -0.000575110316 0.00161164999 0.00450000539
v -0.000670000911 0.00170624256 0.00409999862
v -0.000670000911 0.00170624256 0.00450000539
v -0.000779882073 0.00178772211 0.00409999862
v -0.000779882073 0.00178772211 0.00450000539
v -0.000904083252 0.0018555522 0.00409999862
v -0.000904083252 0.0018555522 0.00450000539
v -0.00104187429 0.00190921128 0.00409999862
v -0.00104187429 0.00190921128 0.00450000539
v -0.00119259953 0.00194819272 0.00409999862
v -0.00119259953 0.00194819272 0.00450000539
v -0.00135552883 0.00197196007 0.00409999862
v -0.00135552883 0.00197196007 0.00450000539
v -0.00153000653 0.00197999179 0.00409999862
v -0.00153000653 0.00197999179 0.00450000539
v -0.00162157416 0.00197830796 0.00409999862
v -0.00162157416 0.00197830796 0.00450000539
v -0.00171175599 0.00197309256 0.00409999862
v -0.00171175599 0.00197309256 0.00450000539
v -0.00180125237 0.00196421146 0.00409999862
v -0.00180125237 0.00196421146 0.00450000539
v -0.00189074874 0.00195148587 0.00409999862
v -0.00189074874 0.00195148587 0.00450000539
v -0.00198093057 0.00193470716 0.00409999862
v -0.00198093057 0.00193470716 0.00450000539
v -0.0020724982 0.00191374123 0.00409999862
v -0.0020724982 0.00191374123 0.00450000539
v -0.002166152 0.00188840926 0.00409999862
v -0.002166152 0.00188840926 0.00450000539
v -0.00226259232 0.00185851753 0.00409999862
v -0.00226259232 0.00185851753 0.00450000539
v -0.0023625046 0.00182390213 0.00409999862
v -0.0023625046 0.00182390213 0.00450000539
v -0.00246657431 0.00178439915 0.00409999862
v -0.00246657431 0.00178439915 0.00450000539
v -0.0025755167 0.00173981488 0.00409999862
v -0.0025755167 0.00173981488 0.00450000539
v -0.00269000232 0.0016900003 0.00409999862
v -0.00269000232 0.0016900003 0.00450000539
v -0.00269000232 0.00261999667 0.00409999862
v -0.00269000232 0.00261999667 0.00450000539
usemtl screen_white_text_003
f 163 165 164
f 162 165 163
f 161 165 162
f 161 166 165
f 160 166 161
f 159 166 160
f 158 166 159
f 158 167 166
f 157 167 158
f 156 167 157
f 155 167 156
f 155 168 167
f 154 168 155
f 153 168 154
f 153 169 168
f 299 169 153
f 298 297 299
f 297 296 299
f 296 295 299
f 295 294 299
f 294 169 299
f 294 293 169
f 293 292 169
f 292 170 169
f 292 291 170
f 291 290 170
f 290 171 170
f 290 289 171
f 289 288 171
f 288 287 171
f 287 172 171
f 287 286 172
f 286 285 172
f 285 173 172
f 284 173 285
f 283 173 284
f 282 173 283
f 282 174 173
f 281 174 282
f 280 174 281
f 279 174 280
f 279 175 174
f 278 175 279
f 277 175 278
f 277 176 175
f 276 176 277
f 275 176 276
f 275 177 176
f 274 177 275
f 273 177 274
f 273 178 177
f 272 178 273
f 272 179 178
f 271 179 272
f 271 180 179
f 270 180 271
f 270 181 180
f 269 181 270
f 269 182 181
f 268 182 269
f 267 182 268
f 267 183 182
f 266 183 267
f 266 184 183
f 265 184 266
f 264 184 265
f 263 184 264
f 263 185 184
f 262 185 263
f 261 185 262
f 261 186 185
f 261 187 186
f 261 188 187
f 261 189 188
f 261 190 189
f 261 191 190
f 261 192 191
f 261 193 192
f 261 260 193
f 260 194 193
f 259 194 260
f 258 194 259
f 257 194 258
f 257 195 194
f 256 195 257
f 255 195 256
f 255 196 195
f 254 196 255
f 254 197 196
f 253 197 254
f 252 197 253
f 252 198 197
f 251 198 252
f 251 199 198
f 250 199 251
f 250 200 199
f 249 200 250
f 249 201 200
f 248 201 249
f 247 201 248
f 247 202 201
f 246 202 247
f 245 202 246
f 245 203 202
f 224 226 225
f 244 203 245
f 224 227 226
f 243 203 244
f 224 228 227
f 243 204 203
f 242 204 243
f 224 229 228
f 224 230 229
f 241 204 242
f 224 231 230
f 240 204 241
f 224 232 231
f 224 233 232
f 239 204 240
f 239 205 204
f 224 234 233
f 238 205 239
f 224 235 234
f 224 236 235
f 237 205 238
f 224 237 236
f 224 205 237
f 224 206 205
f 224 207 206
f 224 208 207
f 223 208 224
f 222 208 223
f 221 208 222
f 221 209 208
f 220 209 221
f 219 209 220
f 219 210 209
f 218 210 219
f 217 210 218
f 216 210 217
f 216 211 210
f 215 211 216
f 214 211 215
f 214 212 211
f 213 212 214
f 310 311 312
f 309 310 312
f 308 309 312
f 308 312 313
f 307 308 313
f 306 307 313
f 305 306 313
f 305 313 314
f 304 305 314
f 303 304 314
f 302 303 314
f 302 314 315
f 301 302 315
f 300 301 315
f 300 315 316
f 446 300 316
f 445 446 444
f 444 446 443
f 443 446 442
f 442 446 441
f 441 446 316
f 441 316 440
f 440 316 439
f 439 316 317
f 439 317 438
f 438 317 437
f 437 317 318
f 437 318 436
f 436 318 435
f 435 318 434
f 434 318 319
f 434 319 433
f 433 319 432
f 432 319 320
f 431 432 320
f 430 431 320
f 429 430 320
f 429 320 321
f 428 429 321
f 427 428 321
f 426 427 321
f 426 321 322
f 425 426 322
f 424 425 322
f 424 322 323
f 423 424 323
f 422 423 323
f 422 323 324
f 421 422 324
f 420 421 324
f 420 324 325
f 419 420 325
f 419 325 326
f 418 419 326
f 418 326 327
f 417 418 327
f 417 327 328
f 416 417 328
f 416 328 329
f 415 416 329
f 414 415 329
f 414 329 330
f 413 414 330
f 413 330 331
f 412 413 331
f 411 412 331
f 410 411 331
f 410 331 332
f 409 410 332
f 408 409 332
f 408 332 333
f 408 333 334
f 408 334 335
f 408 335 336
f 408 336 337
f 408 337 338
f 408 338 339
f 408 339 340
f 408 340 407
f 407 340 341
f 406 407 341
f 405 406 341
f 404 405 341
f 404 341 342
f 403 404 342
f 402 403 342
f 402 342 343
f 401 402 343
f 401 343 344
f 400 401 344
f 399 400 344
f 399 344 345
f 398 399 345
f 398 345 346
f 397 398 346
f 397 346 347
f 396 397 347
f 396 347 348
f 395 396 348
f 394 395 348
f 394 348 349
f 393 394 349
f 392 393 349
f 392 349 350
f 371 372 373
f 391 392 350
f 371 373 374
f 390 391 350
f 371 374 375
f 390 350 351
f 389 390 351
f 371 375 376
f 371 376 377
f 388 389 351
f 371 377 378
f 387 388 351
f 371 378 379
f 371 379 380
f 386 387 351
f 386 351 352
f 371 380 381
f 385 386 352
f 371 381 382
f 371 382 383
f 384 385 352
f 371 383 384
f 371 384 352
f 371 352 353
f 371 353 354
f 371 354 355
f 370 371 355
f 369 370 355
f 368 369 355
f 368 355 356
f 367 368 356
f 366 367 356
f 366 356 357
f 365 366 357
f 364 365 357
f 363 364 357
f 363 357 358
f 362 363 358
f 361 362 358
f 361 358 359
f 360 361 359
f 448 450 449 447
f 450 452 451 449
f 452 454 453 451
f 454 456 455 453
f 456 458 457 455
f 458 460 459 457
f 460 462 461 459
f 462 464 463 461
f 464 466 465 463
f 466 468 467 465
f 468 470 469 467
f 470 472 471 469
f 472 474 473 471
f 474 476 475 473
f 476 478 477 475
f 478 480 479 477
f 480 482 481 479
f 482 484 483 481
f 484 486 485 483
f 486 488 487 485
f 488 490 489 487
f 490 492 491 489
f 492 494 493 491
f 494 496 495 493
f 496 498 497 495
f 498 500 499 497
f 500 502 501 499
f 502 504 503 501
f 504 506 505 503
f 506 508 507 505
f 508 510 509 507
f 510 512 511 509
f 512 514 513 511
f 514 516 515 513
f 516 518 517 515
f 518 520 519 517
f 520 522 521 519
f 522 524 523 521
f 524 526 525 523
f 526 528 527 525
f 528 530 529 527
f 530 532 531 529
f 532 534 533 531
f 534 536 535 533
f 536 538 537 535
f 538 540 539 537
f 540 542 541 539
f 542 544 543 541
f 544 546 545 543
f 546 548 547 545
f 548 550 549 547
f 550 552 551 549
f 552 554 553 551
f 554 556 555 553
f 556 558 557 555
f 558 560 559 557
f 560 562 561 559
f 562 564 563 561
f 564 566 565 563
f 566 568 567 565
f 568 570 569 567
f 570 572 571 569
f 572 574 573 571
f 574 576 575 573
f 576 578 577 575
f 578 580 579 577
f 580 582 581 579
f 582 584 583 581
f 584 586 585 583
f 586 588 587 585
f 588 590 589 587
f 590 592 591 589
f 592 594 593 591
f 594 596 595 593
f 596 598 597 595
f 598 600 599 597
f 600 602 601 599
f 602 604 603 601
f 604 606 605 603
f 606 608 607 605
f 608 610 609 607
f 610 612 611 609
f 612 614 613 611
f 614 616 615 613
f 616 618 617 615
f 618 620 619 617
f 620 622 621 619
f 622 624 623 621
f 624 626 625 623
f 626 628 627 625
f 628 630 629 627
f 630 632 631 629
f 632 634 633 631
f 634 636 635 633
f 636 638 637 635
f 638 640 639 637
f 640 642 641 639
f 642 644 643 641
f 644 646 645 643
f 646 648 647 645
f 648 650 649 647
f 650 652 651 649
f 652 654 653 651
f 654 656 655 653
f 656 658 657 655
f 658 660 659 657
f 660 662 661 659
f 662 664 663 661
f 664 666 665 663
f 666 668 667 665
f 668 670 669 667
f 670 672 671 669
f 672 674 673 671
f 674 676 675 673
f 676 678 677 675
f 678 680 679 677
f 680 682 681 679
f 682 684 683 681
f 684 686 685 683
f 686 688 687 685
f 688 690 689 687
f 690 692 691 689
f 692 694 693 691
f 694 696 695 693
f 696 698 697 695
f 698 700 699 697
f 700 702 701 699
f 702 704 703 701
f 704 706 705 703
f 706 708 707 705
f 708 710 709 707
f 710 712 711 709
f 712 714 713 711
f 714 716 715 713
f 716 718 717 715
f 718 720 719 717
f 720 722 721 719
f 722 724 723 721
f 724 726 725 723
f 726 728 727 725
f 728 730 729 727
f 730 732 731 729
f 732 734 733 731
f 734 736 735 733
f 736 738 737 735
f 738 740 739 737
f 740 448 447 739
