mtllib keyboard_key_4_3_C_link.mtl
o keyboard_key_4_3_C_link

g keyboard_key_4_3_C_SOLID
v -0.0199999958 -0.0164999999 0
v -0.0199999958 -0.0130000003 -0.00349999964
v -0.0234999955 -0.0130000003 0
v -0.0199999958 -0.0162335783 -0.0013393946
v -0.0199999958 -0.0154748736 -0.00247487426
v -0.0213393867 -0.0162335783 0
v -0.021372959 -0.0159120392 -0.00137295946
v -0.0213032961 -0.0152968913 -0.00229689106
v -0.0220207274 -0.0150207262 -0.00202072784
v -0.0213393867 -0.0130000003 -0.00323357806
v -0.0224748701 -0.0130000003 -0.00247487426
v -0.0199999958 -0.0143393921 -0.00323357806
v -0.021372959 -0.0143729588 -0.0029120408
v -0.0222968906 -0.0143032968 -0.00229689106
v -0.0232335776 -0.0143393921 0
v -0.0224748701 -0.0154748736 0
v -0.0232335776 -0.0130000003 -0.00133939087
v -0.0229120404 -0.0143729588 -0.00137295946
v -0.0222968906 -0.0152968913 -0.00130329654
v 0.0199999958 -0.0164999999 0
v 0.0234999955 -0.0130000003 0
v 0.0199999958 -0.0130000003 -0.00349999964
v 0.0213393942 -0.0162335783 0
v 0.0224748775 -0.0154748736 0
v 0.0200000033 -0.0162335783 -0.00133939087
v 0.021372959 -0.0159120392 -0.00137295946
v 0.0222968906 -0.0152968913 -0.00130329654
v 0.0220207274 -0.0150207262 -0.00202072784
v 0.0232335776 -0.0130000003 -0.0013393946
v 0.0224748775 -0.0130000003 -0.00247487426
v 0.0232335776 -0.0143393921 0
v 0.0229120404 -0.0143729588 -0.00137295946
v 0.0222968906 -0.0143032968 -0.00229689106
v 0.0200000033 -0.0143393921 -0.00323357806
v 0.0200000033 -0.0154748736 -0.00247487426
v 0.0213393942 -0.0130000003 -0.00323357806
v 0.021372959 -0.0143729588 -0.0029120408
v 0.0213032961 -0.0152968913 -0.00229689106
v 0.0199999958 0.0164999999 0
v 0.0199999958 0.0130000003 -0.00349999964
v 0.0234999955 0.0130000003 0
v 0.0200000033 0.0162335783 -0.0013393946
v 0.0200000033 0.0154748745 -0.00247487426
v 0.0213393942 0.0162335783 0
v 0.021372959 0.0159120373 -0.00137295946
v 0.0213032961 0.0152968913 -0.00229689106
v 0.0220207274 0.0150207244 -0.00202072784
v 0.0213393942 0.0130000003 -0.00323357806
v 0.0224748775 0.0130000003 -0.00247487426
v 0.0200000033 0.0143393911 -0.00323357806
v 0.021372959 0.0143729597 -0.0029120408
v 0.0222968906 0.0143032968 -0.00229689106
v 0.0232335776 0.0143393911 0
v 0.0224748775 0.0154748745 0
v 0.0232335776 0.0130000003 -0.00133939087
v 0.0229120404 0.0143729597 -0.00137295946
v 0.0222968906 0.0152968913 -0.00130329654
v -0.0199999958 0.0164999999 0
v -0.0234999955 0.0130000003 0
v -0.0199999958 0.0130000003 -0.00349999964
v -0.0213393867 0.0162335783 0
v -0.0224748701 0.0154748745 0
v -0.0199999958 0.0162335783 -0.00133939087
v -0.021372959 0.0159120373 -0.00137295946
v -0.0222968906 0.0152968913 -0.00130329654
v -0.0220207274 0.0150207244 -0.00202072784
v -0.0232335776 0.0130000003 -0.0013393946
v -0.0224748701 0.0130000003 -0.00247487426
v -0.0232335776 0.0143393911 0
v -0.0229120404 0.0143729597 -0.00137295946
v -0.0222968906 0.0143032968 -0.00229689106
v -0.0199999958 0.0143393911 -0.00323357806
v -0.0199999958 0.0154748745 -0.00247487426
v -0.0213393867 0.0130000003 -0.00323357806
v -0.021372959 0.0143729597 -0.0029120408
v -0.0213032961 0.0152968913 -0.00229689106
v -0.0234999955 -0.0130000003 0
v -0.0199999958 -0.0130000003 0.00350000337
v -0.0199999958 -0.0164999999 0
v -0.0232335776 -0.0130000003 0.0013393946
v -0.0224748701 -0.0130000003 0.00247487426
v -0.0232335776 -0.0143393921 0
v -0.0229120404 -0.0143729588 0.00137295946
v -0.0222968906 -0.0143032968 0.00229689106
v -0.0220207274 -0.0150207262 0.00202072784
v -0.0199999958 -0.0143393921 0.00323357806
v -0.0199999958 -0.0154748736 0.00247487426
v -0.0213393867 -0.0130000003 0.00323357806
v -0.021372959 -0.0143729588 0.0029120408
v -0.0213032961 -0.0152968913 0.00229689106
v -0.0213393867 -0.0162335783 0
v -0.0224748701 -0.0154748736 0
v -0.0199999958 -0.0162335783 0.00133939087
v -0.021372959 -0.0159120392 0.00137295946
v -0.0222968906 -0.0152968913 0.00130329654
v 0.0199999958 -0.0164999999 0
v 0.0199999958 -0.0130000003 0.00350000337
v 0.0234999955 -0.0130000003 0
v 0.0200000033 -0.0162335783 0.0013393946
v 0.0200000033 -0.0154748736 0.00247487426
v 0.0213393942 -0.0162335783 0
v 0.021372959 -0.0159120392 0.00137295946
v 0.0213032961 -0.0152968913 0.00229689106
v 0.0220207274 -0.0150207262 0.00202072784
v 0.0213393942 -0.0130000003 0.00323357806
v 0.0224748775 -0.0130000003 0.00247487426
v 0.0200000033 -0.0143393921 0.00323357806
v 0.021372959 -0.0143729588 0.0029120408
v 0.0222968906 -0.0143032968 0.00229689106
v 0.0232335776 -0.0143393921 0
v 0.0224748775 -0.0154748736 0
v 0.0232335776 -0.0130000003 0.00133939087
v 0.0229120404 -0.0143729588 0.00137295946
v 0.0222968906 -0.0152968913 0.00130329654
v 0.0199999958 0.0130000003 0.00350000337
v 0.0199999958 0.0164999999 0
v 0.0234999955 0.0130000003 0
v 0.0200000033 0.0143393911 0.00323357806
v 0.0200000033 0.0154748745 0.00247487426
v 0.0213393942 0.0130000003 0.00323357806
v 0.021372959 0.0143729597 0.0029120408
v 0.0213032961 0.0152968913 0.00229689106
v 0.0220207274 0.0150207244 0.00202072784
v 0.0213393942 0.0162335783 0
v 0.0224748775 0.0154748745 0
v 0.0200000033 0.0162335783 0.00133939087
v 0.021372959 0.0159120373 0.00137295946
v 0.0222968906 0.0152968913 0.00130329654
v 0.0232335776 0.0130000003 0.0013393946
v 0.0224748775 0.0130000003 0.00247487426
v 0.0232335776 0.0143393911 0
v 0.0229120404 0.0143729597 0.00137295946
v 0.0222968906 0.0143032968 0.00229689106
v -0.0234999955 0.0130000003 0
v -0.0199999958 0.0164999999 0
v -0.0199999958 0.0130000003 0.00350000337
v -0.0232335776 0.0143393911 0
v -0.0224748701 0.0154748745 0
v -0.0232335776 0.0130000003 0.00133939087
v -0.0229120404 0.0143729597 0.00137295946
v -0.0222968906 0.0152968913 0.00130329654
v -0.0220207274 0.0150207244 0.00202072784
v -0.0199999958 0.0162335783 0.0013393946
v -0.0199999958 0.0154748745 0.00247487426
v -0.0213393867 0.0162335783 0
v -0.021372959 0.0159120373 0.00137295946
v -0.0213032961 0.0152968913 0.00229689106
v -0.0213393867 0.0130000003 0.00323357806
v -0.0224748701 0.0130000003 0.00247487426
v -0.0199999958 0.0143393911 0.00323357806
v -0.021372959 0.0143729597 0.0029120408
v -0.0222968906 0.0143032968 0.00229689106
usemtl matte_black_keycaps_003
f 59 134 77 3
f 2 22 40 60
f 39 116 135 58
f 78 136 115 97
f 21 98 117 41
f 1 4 7 6
f 4 5 8 7
f 6 7 19 16
f 7 8 9 19
f 2 10 13 12
f 10 11 14 13
f 12 13 8 5
f 13 14 9 8
f 3 15 18 17
f 15 16 19 18
f 17 18 14 11
f 18 19 9 14
f 20 23 26 25
f 23 24 27 26
f 25 26 38 35
f 26 27 28 38
f 21 29 32 31
f 29 30 33 32
f 31 32 27 24
f 32 33 28 27
f 22 34 37 36
f 34 35 38 37
f 36 37 33 30
f 37 38 28 33
f 39 42 45 44
f 42 43 46 45
f 44 45 57 54
f 45 46 47 57
f 40 48 51 50
f 48 49 52 51
f 50 51 46 43
f 51 52 47 46
f 41 53 56 55
f 53 54 57 56
f 55 56 52 49
f 56 57 47 52
f 58 61 64 63
f 61 62 65 64
f 63 64 76 73
f 64 65 66 76
f 59 67 70 69
f 67 68 71 70
f 69 70 65 62
f 70 71 66 65
f 60 72 75 74
f 72 73 76 75
f 74 75 71 68
f 75 76 66 71
f 77 80 83 82
f 80 81 84 83
f 82 83 95 92
f 83 84 85 95
f 78 86 89 88
f 86 87 90 89
f 88 89 84 81
f 89 90 85 84
f 79 91 94 93
f 91 92 95 94
f 93 94 90 87
f 94 95 85 90
f 96 99 102 101
f 99 100 103 102
f 101 102 114 111
f 102 103 104 114
f 97 105 108 107
f 105 106 109 108
f 107 108 103 100
f 108 109 104 103
f 98 110 113 112
f 110 111 114 113
f 112 113 109 106
f 113 114 104 109
f 115 118 121 120
f 118 119 122 121
f 120 121 133 130
f 121 122 123 133
f 116 124 127 126
f 124 125 128 127
f 126 127 122 119
f 127 128 123 122
f 117 129 132 131
f 129 130 133 132
f 131 132 128 125
f 132 133 123 128
f 134 137 140 139
f 137 138 141 140
f 139 140 152 149
f 140 141 142 152
f 135 143 146 145
f 143 144 147 146
f 145 146 141 138
f 146 147 142 141
f 136 148 151 150
f 148 149 152 151
f 150 151 147 144
f 151 152 142 147
f 39 58 63 42
f 42 63 73 43
f 43 73 72 50
f 50 72 60 40
f 1 20 25 4
f 4 25 35 5
f 5 35 34 12
f 12 34 22 2
f 21 41 55 29
f 29 55 49 30
f 30 49 48 36
f 36 48 40 22
f 2 60 74 10
f 10 74 68 11
f 11 68 67 17
f 17 67 59 3
f 3 77 82 15
f 15 82 92 16
f 16 92 91 6
f 6 91 79 1
f 78 97 107 86
f 86 107 100 87
f 87 100 99 93
f 93 99 96 79
f 97 115 120 105
f 105 120 130 106
f 106 130 129 112
f 112 129 117 98
f 77 134 139 80
f 80 139 149 81
f 81 149 148 88
f 88 148 136 78
f 20 96 101 23
f 23 101 111 24
f 24 111 110 31
f 31 110 98 21
f 41 117 131 53
f 53 131 125 54
f 54 125 124 44
f 44 124 116 39
f 115 136 150 118
f 118 150 144 119
f 119 144 143 126
f 126 143 135 116
f 58 135 145 61
f 61 145 138 62
f 62 138 137 69
f 69 137 134 59
f 1 79 96 20

g key_legend_4_3_C
v 0.00181238353 0.00141690299 0.00450000539
v 0.00160911679 0.00152273104 0.00450000539
v 0.00140953064 0.00161765702 0.00450000539
v 0.00121295452 0.00170185231 0.00450000539
v 0.00101874769 0.00177549198 0.00450000539
v 0.000826254487 0.00183874927 0.00450000539
v 0.000634789467 0.00189179927 0.00450000539
v 0.000443696976 0.0019348152 0.00450000539
v 0.000252336264 0.00196796842 0.00450000539
v 6.00516796e-05 0.00199143402 0.00450000539
v -0.000133857131 0.0020053871 0.00450000539
v -0.000330001116 0.00200999901 0.00450000539
v -0.000711232424 0.0019872915 0.00450000539
v -0.00107315183 0.00192083232 0.00450000539
v -0.00141312182 0.00181312487 0.00450000539
v -0.0017285198 0.00166666508 0.00450000539
v -0.00201669335 0.00148395821 0.00450000539
v -0.00227500498 0.00126750022 0.00450000539
v -0.00250081718 0.00101979077 0.00450000539
v -0.00269147754 0.00074333325 0.00450000539
v -0.00284437835 0.000440625474 0.00450000539
v -0.00295685232 0.000114167109 0.00450000539
v -0.00302627683 -0.000233542174 0.00450000539
v -0.00304999948 -0.000600000843 0.00450000539
v -0.00302702188 -0.000972367823 0.00450000539
v -0.00295944512 -0.00132310204 0.00450000539
v -0.00284937024 -0.00165015645 0.00450000539
v -0.00269889832 -0.00195148215 0.00450000539
v -0.0025100708 -0.00222503021 0.00450000539
v -0.00228500366 -0.00246874988 0.00450000539
v -0.00202576816 -0.00268059596 0.00450000539
v -0.00173445046 -0.00285851955 0.00450000539
v -0.00141312182 -0.00300046988 0.00450000539
v -0.00106389821 -0.00310439803 0.00450000539
v -0.000688821077 -0.00316825882 0.00450000539
v -0.000290006399 -0.00318999961 0.00450000539
v -9.61273909e-05 -0.00318439864 0.00450000539
v 0.000100180507 -0.00316768512 0.00450000539
v 0.000298440456 -0.00314000063 0.00450000539
v 0.000498145819 -0.00310148112 0.00450000539
v 0.000698834658 -0.00305226818 0.00450000539
v 0.000900000334 -0.00299249962 0.00450000539
v 0.00110116601 -0.00292231515 0.00450000539
v 0.00130185485 -0.00284185261 0.00450000539
v 0.00150156021 -0.00275124982 0.00450000539
v 0.00169982016 -0.00265064836 0.00450000539
v 0.00189612806 -0.00254018605 0.00450000539
v 0.00208999217 -0.00242000073 0.00450000539
v 0.00208999217 -0.00349000096 0.00450000539
v 0.0019210875 -0.0035753306 0.00450000539
v 0.00174869597 -0.00365597196 0.00450000539
v 0.00157187879 -0.00373140723 0.00450000539
v 0.00138962269 -0.00380111113 0.00450000539
v 0.00120098889 -0.00386456586 0.00450000539
v 0.00100499392 -0.00392124988 0.00450000539
v 0.000800669193 -0.00397064164 0.00450000539
v 0.000587031245 -0.00401222333 0.00450000539
v 0.000363126397 -0.00404546969 0.00450000539
v 0.000127956271 -0.00406986102 0.00450000539
v -0.000119417906 -0.00408487767 0.00450000539
v -0.000380009413 -0.00408999994 0.00450000539
v -0.000990182161 -0.00405041128 0.00450000539
v -0.00154148042 -0.00393745303 0.00450000539
v -0.00203500688 -0.00375984423 0.00450000539
v -0.00247184932 -0.00352629647 0.00450000539
v -0.00285315514 -0.00324552692 0.00450000539
v -0.00317999721 -0.00292625092 0.00450000539
v -0.00345352292 -0.00257718191 0.00450000539
v -0.00367482007 -0.00220703706 0.00450000539
v -0.00384500623 -0.0018245317 0.00450000539
v -0.00396518409 -0.00143837929 0.00450000539
v -0.00403648615 -0.00105729699 0.00450000539
v -0.00406000018 -0.000690000132 0.00450000539
v -0.00402785838 -0.000182222575 0.00450000539
v -0.00393365324 0.000298889354 0.00450000539
v -0.00378078222 0.000749999657 0.00450000539
v -0.0035725981 0.00116777793 0.00450000539
v -0.00331246853 0.00154889002 0.00450000539
v -0.00300374627 0.00188999996 0.00450000539
v -0.00264982879 0.00218777731 0.00450000539
v -0.00225406885 0.00243888982 0.00450000539
v -0.00181984901 0.00263999961 0.00450000539
v -0.00135050714 0.00278777815 0.00450000539
v -0.000849440694 0.00287888944 0.00450000539
v -0.000320002437 0.00290999934 0.00450000539
v -0.000144675374 0.00290643051 0.00450000539
v 3.1799078e-05 0.00289560296 0.00450000539
v 0.000210151076 0.00287734345 0.00450000539
v 0.000391110778 0.00285148248 0.00450000539
v 0.000575393438 0.00281784125 0.00450000539
v 0.000763744116 0.00277625024 0.00450000539
v 0.000956892967 0.00272653438 0.00450000539
v 0.00115555525 0.00266851857 0.00450000539
v 0.00136046112 0.00260203145 0.00450000539
v 0.00157235563 0.00252689794 0.00450000539
v 0.00179195404 0.00244294479 0.00450000539
v 0.00202000141 0.00235000066 0.00450000539
v 0.00202000141 0.00129999965 0.00450000539
v 0.00181238353 0.00141690299 0.00409999862
v 0.00160911679 0.00152273104 0.00409999862
v 0.00140953064 0.00161765702 0.00409999862
v 0.00121295452 0.00170185231 0.00409999862
v 0.00101874769 0.00177549198 0.00409999862
v 0.000826254487 0.00183874927 0.00409999862
v 0.000634789467 0.00189179927 0.00409999862
v 0.000443696976 0.0019348152 0.00409999862
v 0.000252336264 0.00196796842 0.00409999862
v 6.00516796e-05 0.00199143402 0.00409999862
v -0.000133857131 0.0020053871 0.00409999862
v -0.000330001116 0.00200999901 0.00409999862
v -0.000711232424 0.0019872915 0.00409999862
v -0.00107315183 0.00192083232 0.00409999862
v -0.00141312182 0.00181312487 0.00409999862
v -0.0017285198 0.00166666508 0.00409999862
v -0.00201669335 0.00148395821 0.00409999862
v -0.00227500498 0.00126750022 0.00409999862
v -0.00250081718 0.00101979077 0.00409999862
v -0.00269147754 0.00074333325 0.00409999862
v -0.00284437835 0.000440625474 0.00409999862
v -0.00295685232 0.000114167109 0.00409999862
v -0.00302627683 -0.000233542174 0.00409999862
v -0.00304999948 -0.000600000843 0.00409999862
v -0.00302702188 -0.000972367823 0.00409999862
v -0.00295944512 -0.00132310204 0.00409999862
v -0.00284937024 -0.00165015645 0.00409999862
v -0.00269889832 -0.00195148215 0.00409999862
v -0.0025100708 -0.00222503021 0.00409999862
v -0.00228500366 -0.00246874988 0.00409999862
v -0.00202576816 -0.00268059596 0.00409999862
v -0.00173445046 -0.00285851955 0.00409999862
v -0.00141312182 -0.00300046988 0.00409999862
v -0.00106389821 -0.00310439803 0.00409999862
v -0.000688821077 -0.00316825882 0.00409999862
v -0.000290006399 -0.00318999961 0.00409999862
v -9.61273909e-05 -0.00318439864 0.00409999862
v 0.000100180507 -0.00316768512 0.00409999862
v 0.000298440456 -0.00314000063 0.00409999862
v 0.000498145819 -0.00310148112 0.00409999862
v 0.000698834658 -0.00305226818 0.00409999862
v 0.000900000334 -0.00299249962 0.00409999862
v 0.00110116601 -0.00292231515 0.00409999862
v 0.00130185485 -0.00284185261 0.00409999862
v 0.00150156021 -0.00275124982 0.00409999862
v 0.00169982016 -0.00265064836 0.00409999862
v 0.00189612806 -0.00254018605 0.00409999862
v 0.00208999217 -0.00242000073 0.00409999862
v 0.00208999217 -0.00349000096 0.00409999862
v 0.0019210875 -0.0035753306 0.00409999862
v 0.00174869597 -0.00365597196 0.00409999862
v 0.00157187879 -0.00373140723 0.00409999862
v 0.00138962269 -0.00380111113 0.00409999862
v 0.00120098889 -0.00386456586 0.00409999862
v 0.00100499392 -0.00392124988 0.00409999862
v 0.000800669193 -0.00397064164 0.00409999862
v 0.000587031245 -0.00401222333 0.00409999862
v 0.000363126397 -0.00404546969 0.00409999862
v 0.000127956271 -0.00406986102 0.00409999862
v -0.000119417906 -0.00408487767 0.00409999862
v -0.000380009413 -0.00408999994 0.00409999862
v -0.000990182161 -0.00405041128 0.00409999862
v -0.00154148042 -0.00393745303 0.00409999862
v -0.00203500688 -0.00375984423 0.00409999862
v -0.00247184932 -0.00352629647 0.00409999862
v -0.00285315514 -0.00324552692 0.00409999862
v -0.00317999721 -0.00292625092 0.00409999862
v -0.00345352292 -0.00257718191 0.00409999862
v -0.00367482007 -0.00220703706 0.00409999862
v -0.00384500623 -0.0018245317 0.00409999862
v -0.00396518409 -0.00143837929 0.00409999862
v -0.00403648615 -0.00105729699 0.00409999862
v -0.00406000018 -0.000690000132 0.00409999862
v -0.00402785838 -0.000182222575 0.00409999862
v -0.00393365324 0.000298889354 0.00409999862
v -0.00378078222 0.000749999657 0.00409999862
v -0.0035725981 0.00116777793 0.00409999862
v -0.00331246853 0.00154889002 0.00409999862
v -0.00300374627 0.00188999996 0.00409999862
v -0.00264982879 0.00218777731 0.00409999862
v -0.00225406885 0.00243888982 0.00409999862
v -0.00181984901 0.00263999961 0.00409999862
v -0.00135050714 0.00278777815 0.00409999862
v -0.000849440694 0.00287888944 0.00409999862
v -0.000320002437 0.00290999934 0.00409999862
v -0.000144675374 0.00290643051 0.00409999862
v 3.1799078e-05 0.00289560296 0.00409999862
v 0.000210151076 0.00287734345 0.00409999862
v 0.000391110778 0.00285148248 0.00409999862
v 0.000575393438 0.00281784125 0.00409999862
v 0.000763744116 0.00277625024 0.00409999862
v 0.000956892967 0.00272653438 0.00409999862
v 0.00115555525 0.00266851857 0.00409999862
v 0.00136046112 0.00260203145 0.00409999862
v 0.00157235563 0.00252689794 0.00409999862
v 0.00179195404 0.00244294479 0.00409999862
v 0.00202000141 0.00235000066 0.00409999862
v 0.00202000141 0.00129999965 0.00409999862
v 0.00181238353 0.00141690299 0.00409999862
v 0.00181238353 0.00141690299 0.00450000539
v 0.00160911679 0.00152273104 0.00409999862
v 0.00160911679 0.00152273104 0.00450000539
v 0.00140953064 0.00161765702 0.00409999862
v 0.00140953064 0.00161765702 0.00450000539
v 0.00121295452 0.00170185231 0.00409999862
v 0.00121295452 0.00170185231 0.00450000539
v 0.00101874769 0.00177549198 0.00409999862
v 0.00101874769 0.00177549198 0.00450000539
v 0.000826254487 0.00183874927 0.00409999862
v 0.000826254487 0.00183874927 0.00450000539
v 0.000634789467 0.00189179927 0.00409999862
v 0.000634789467 0.00189179927 0.00450000539
v 0.000443696976 0.0019348152 0.00409999862
v 0.000443696976 0.0019348152 0.00450000539
v 0.000252336264 0.00196796842 0.00409999862
v 0.000252336264 0.00196796842 0.00450000539
v 6.00516796e-05 0.00199143402 0.00409999862
v 6.00516796e-05 0.00199143402 0.00450000539
v -0.000133857131 0.0020053871 0.00409999862
v -0.000133857131 0.0020053871 0.00450000539
v -0.000330001116 0.00200999901 0.00409999862
v -0.000330001116 0.00200999901 0.00450000539
v -0.000711232424 0.0019872915 0.00409999862
v -0.000711232424 0.0019872915 0.00450000539
v -0.00107315183 0.00192083232 0.00409999862
v -0.00107315183 0.00192083232 0.00450000539
v -0.00141312182 0.00181312487 0.00409999862
v -0.00141312182 0.00181312487 0.00450000539
v -0.0017285198 0.00166666508 0.00409999862
v -0.0017285198 0.00166666508 0.00450000539
v -0.00201669335 0.00148395821 0.00409999862
v -0.00201669335 0.00148395821 0.00450000539
v -0.00227500498 0.00126750022 0.00409999862
v -0.00227500498 0.00126750022 0.00450000539
v -0.00250081718 0.00101979077 0.00409999862
v -0.00250081718 0.00101979077 0.00450000539
v -0.00269147754 0.00074333325 0.00409999862
v -0.00269147754 0.00074333325 0.00450000539
v -0.00284437835 0.000440625474 0.00409999862
v -0.00284437835 0.000440625474 0.00450000539
v -0.00295685232 0.000114167109 0.00409999862
v -0.00295685232 0.000114167109 0.00450000539
v -0.00302627683 -0.000233542174 0.00409999862
v -0.00302627683 -0.000233542174 0.00450000539
v -0.00304999948 -0.000600000843 0.00409999862
v -0.00304999948 -0.000600000843 0.00450000539
v -0.00302702188 -0.000972367823 0.00409999862
v -0.00302702188 -0.000972367823 0.00450000539
v -0.00295944512 -0.00132310204 0.00409999862
v -0.00295944512 -0.00132310204 0.00450000539
v -0.00284937024 -0.00165015645 0.00409999862
v -0.00284937024 -0.00165015645 0.00450000539
v -0.00269889832 -0.00195148215 0.00409999862
v -0.00269889832 -0.00195148215 0.00450000539
v -0.0025100708 -0.00222503021 0.00409999862
v -0.0025100708 -0.00222503021 0.00450000539
v -0.00228500366 -0.00246874988 0.00409999862
v -0.00228500366 -0.00246874988 0.00450000539
v -0.00202576816 -0.00268059596 0.00409999862
v -0.00202576816 -0.00268059596 0.00450000539
v -0.00173445046 -0.00285851955 0.00409999862
v -0.00173445046 -0.00285851955 0.00450000539
v -0.00141312182 -0.00300046988 0.00409999862
v -0.00141312182 -0.00300046988 0.00450000539
v -0.00106389821 -0.00310439803 0.00409999862
v -0.00106389821 -0.00310439803 0.00450000539
v -0.000688821077 -0.00316825882 0.00409999862
v -0.000688821077 -0.00316825882 0.00450000539
v -0.000290006399 -0.00318999961 0.00409999862
v -0.000290006399 -0.00318999961 0.00450000539
v -9.61273909e-05 -0.00318439864 0.00409999862
v -9.61273909e-05 -0.00318439864 0.00450000539
v 0.000100180507 -0.00316768512 0.00409999862
v 0.000100180507 -0.00316768512 0.00450000539
v 0.000298440456 -0.00314000063 0.00409999862
v 0.000298440456 -0.00314000063 0.00450000539
v 0.000498145819 -0.00310148112 0.00409999862
v 0.000498145819 -0.00310148112 0.00450000539
v 0.000698834658 -0.00305226818 0.00409999862
v 0.000698834658 -0.00305226818 0.00450000539
v 0.000900000334 -0.00299249962 0.00409999862
v 0.000900000334 -0.00299249962 0.00450000539
v 0.00110116601 -0.00292231515 0.00409999862
v 0.00110116601 -0.00292231515 0.00450000539
v 0.00130185485 -0.00284185261 0.00409999862
v 0.00130185485 -0.00284185261 0.00450000539
v 0.00150156021 -0.00275124982 0.00409999862
v 0.00150156021 -0.00275124982 0.00450000539
v 0.00169982016 -0.00265064836 0.00409999862
v 0.00169982016 -0.00265064836 0.00450000539
v 0.00189612806 -0.00254018605 0.00409999862
v 0.00189612806 -0.00254018605 0.00450000539
v 0.00208999217 -0.00242000073 0.00409999862
v 0.00208999217 -0.00242000073 0.00450000539
v 0.00208999217 -0.00349000096 0.00409999862
v 0.00208999217 -0.00349000096 0.00450000539
v 0.0019210875 -0.0035753306 0.00409999862
v 0.0019210875 -0.0035753306 0.00450000539
v 0.00174869597 -0.00365597196 0.00409999862
v 0.00174869597 -0.00365597196 0.00450000539
v 0.00157187879 -0.00373140723 0.00409999862
v 0.00157187879 -0.00373140723 0.00450000539
v 0.00138962269 -0.00380111113 0.00409999862
v 0.00138962269 -0.00380111113 0.00450000539
v 0.00120098889 -0.00386456586 0.00409999862
v 0.00120098889 -0.00386456586 0.00450000539
v 0.00100499392 -0.00392124988 0.00409999862
v 0.00100499392 -0.00392124988 0.00450000539
v 0.000800669193 -0.00397064164 0.00409999862
v 0.000800669193 -0.00397064164 0.00450000539
v 0.000587031245 -0.00401222333 0.00409999862
v 0.000587031245 -0.00401222333 0.00450000539
v 0.000363126397 -0.00404546969 0.00409999862
v 0.000363126397 -0.00404546969 0.00450000539
v 0.000127956271 -0.00406986102 0.00409999862
v 0.000127956271 -0.00406986102 0.00450000539
v -0.000119417906 -0.00408487767 0.00409999862
v -0.000119417906 -0.00408487767 0.00450000539
v -0.000380009413 -0.00408999994 0.00409999862
v -0.000380009413 -0.00408999994 0.00450000539
v -0.000990182161 -0.00405041128 0.00409999862
v -0.000990182161 -0.00405041128 0.00450000539
v -0.00154148042 -0.00393745303 0.00409999862
v -0.00154148042 -0.00393745303 0.00450000539
v -0.00203500688 -0.00375984423 0.00409999862
v -0.00203500688 -0.00375984423 0.00450000539
v -0.00247184932 -0.00352629647 0.00409999862
v -0.00247184932 -0.00352629647 0.00450000539
v -0.00285315514 -0.00324552692 0.00409999862
v -0.00285315514 -0.00324552692 0.00450000539
v -0.00317999721 -0.00292625092 0.00409999862
v -0.00317999721 -0.00292625092 0.00450000539
v -0.00345352292 -0.00257718191 0.00409999862
v -0.00345352292 -0.00257718191 0.00450000539
v -0.00367482007 -0.00220703706 0.00409999862
v -0.00367482007 -0.00220703706 0.00450000539
v -0.00384500623 -0.0018245317 0.00409999862
v -0.00384500623 -0.0018245317 0.00450000539
v -0.00396518409 -0.00143837929 0.00409999862
v -0.00396518409 -0.00143837929 0.00450000539
v -0.00403648615 -0.00105729699 0.00409999862
v -0.00403648615 -0.00105729699 0.00450000539
v -0.00406000018 -0.000690000132 0.00409999862
v -0.00406000018 -0.000690000132 0.00450000539
v -0.00402785838 -0.000182222575 0.00409999862
v -0.00402785838 -0.000182222575 0.00450000539
v -0.00393365324 0.000298889354 0.00409999862
v -0.00393365324 0.000298889354 0.00450000539
v -0.00378078222 0.000749999657 0.00409999862
v -0.00378078222 0.000749999657 0.00450000539
v -0.0035725981 0.00116777793 0.00409999862
v -0.0035725981 0.00116777793 0.00450000539
v -0.00331246853 0.00154889002 0.00409999862
v -0.00331246853 0.00154889002 0.00450000539
v -0.00300374627 0.00188999996 0.00409999862
v -0.00300374627 0.00188999996 0.00450000539
v -0.00264982879 0.00218777731 0.00409999862
v -0.00264982879 0.00218777731 0.00450000539
v -0.00225406885 0.00243888982 0.00409999862
v -0.00225406885 0.00243888982 0.00450000539
v -0.00181984901 0.00263999961 0.00409999862
v -0.00181984901 0.00263999961 0.00450000539
v -0.00135050714 0.00278777815 0.00409999862
v -0.00135050714 0.00278777815 0.00450000539
v -0.000849440694 0.00287888944 0.00409999862
v -0.000849440694 0.00287888944 0.00450000539
v -0.000320002437 0.00290999934 0.00409999862
v -0.000320002437 0.00290999934 0.00450000539
v -0.000144675374 0.00290643051 0.00409999862
v -0.000144675374 0.00290643051 0.00450000539
v 3.1799078e-05 0.00289560296 0.00409999862
v 3.1799078e-05 0.00289560296 0.00450000539
v 0.000210151076 0.00287734345 0.00409999862
v 0.000210151076 0.00287734345 0.00450000539
v 0.000391110778 0.00285148248 0.00409999862
v 0.000391110778 0.00285148248 0.00450000539
v 0.000575393438 0.00281784125 0.00409999862
v 0.000575393438 0.00281784125 0.00450000539
v 0.000763744116 0.00277625024 0.00409999862
v 0.000763744116 0.00277625024 0.00450000539
v 0.000956892967 0.00272653438 0.00409999862
v 0.000956892967 0.00272653438 0.00450000539
v 0.00115555525 0.00266851857 0.00409999862
v 0.00115555525 0.00266851857 0.00450000539
v 0.00136046112 0.00260203145 0.00409999862
v 0.00136046112 0.00260203145 0.00450000539
v 0.00157235563 0.00252689794 0.00409999862
v 0.00157235563 0.00252689794 0.00450000539
v 0.00179195404 0.00244294479 0.00409999862
v 0.00179195404 0.00244294479 0.00450000539
v 0.00202000141 0.00235000066 0.00409999862
v 0.00202000141 0.00235000066 0.00450000539
v 0.00202000141 0.00129999965 0.00409999862
v 0.00202000141 0.00129999965 0.00450000539
usemtl screen_white_text_003
f 236 238 237
f 236 239 238
f 236 240 239
f 235 240 236
f 235 241 240
f 235 242 241
f 235 243 242
f 234 243 235
f 234 244 243
f 234 245 244
f 234 246 245
f 233 246 234
f 233 247 246
f 233 248 247
f 233 249 248
f 232 249 233
f 232 162 249
f 162 161 249
f 161 160 249
f 160 159 249
f 159 158 249
f 158 157 249
f 157 156 249
f 156 155 249
f 155 154 249
f 154 153 249
f 153 250 249
f 231 164 232
f 164 163 232
f 163 162 232
f 231 165 164
f 231 166 165
f 231 167 166
f 230 167 231
f 230 168 167
f 230 169 168
f 229 169 230
f 229 170 169
f 229 171 170
f 228 171 229
f 228 172 171
f 227 172 228
f 227 173 172
f 227 174 173
f 226 174 227
f 226 175 174
f 225 175 226
f 225 176 175
f 225 177 176
f 224 177 225
f 224 178 177
f 223 178 224
f 223 179 178
f 222 179 223
f 222 180 179
f 221 180 222
f 221 181 180
f 220 181 221
f 220 182 181
f 199 201 200
f 220 183 182
f 198 201 199
f 219 183 220
f 197 201 198
f 219 184 183
f 196 201 197
f 195 201 196
f 219 185 184
f 194 201 195
f 218 185 219
f 193 201 194
f 218 186 185
f 192 201 193
f 191 201 192
f 218 187 186
f 190 201 191
f 189 201 190
f 218 188 187
f 188 201 189
f 218 201 188
f 217 201 218
f 217 202 201
f 216 202 217
f 216 203 202
f 216 204 203
f 216 205 204
f 215 205 216
f 215 206 205
f 215 207 206
f 215 208 207
f 214 208 215
f 214 209 208
f 214 210 209
f 214 211 210
f 213 211 214
f 213 212 211
f 334 335 336
f 334 336 337
f 334 337 338
f 333 334 338
f 333 338 339
f 333 339 340
f 333 340 341
f 332 333 341
f 332 341 342
f 332 342 343
f 332 343 344
f 331 332 344
f 331 344 345
f 331 345 346
f 331 346 347
f 330 331 347
f 330 347 260
f 260 347 259
f 259 347 258
f 258 347 257
f 257 347 256
f 256 347 255
f 255 347 254
f 254 347 253
f 253 347 252
f 252 347 251
f 251 347 348
f 329 330 262
f 262 330 261
f 261 330 260
f 329 262 263
f 329 263 264
f 329 264 265
f 328 329 265
f 328 265 266
f 328 266 267
f 327 328 267
f 327 267 268
f 327 268 269
f 326 327 269
f 326 269 270
f 325 326 270
f 325 270 271
f 325 271 272
f 324 325 272
f 324 272 273
f 323 324 273
f 323 273 274
f 323 274 275
f 322 323 275
f 322 275 276
f 321 322 276
f 321 276 277
f 320 321 277
f 320 277 278
f 319 320 278
f 319 278 279
f 318 319 279
f 318 279 280
f 297 298 299
f 318 280 281
f 296 297 299
f 317 318 281
f 295 296 299
f 317 281 282
f 294 295 299
f 293 294 299
f 317 282 283
f 292 293 299
f 316 317 283
f 291 292 299
f 316 283 284
f 290 291 299
f 289 290 299
f 316 284 285
f 288 289 299
f 287 288 299
f 316 285 286
f 286 287 299
f 316 286 299
f 315 316 299
f 315 299 300
f 314 315 300
f 314 300 301
f 314 301 302
f 314 302 303
f 313 314 303
f 313 303 304
f 313 304 305
f 313 305 306
f 312 313 306
f 312 306 307
f 312 307 308
f 312 308 309
f 311 312 309
f 311 309 310
f 350 352 351 349
f 352 354 353 351
f 354 356 355 353
f 356 358 357 355
f 358 360 359 357
f 360 362 361 359
f 362 364 363 361
f 364 366 365 363
f 366 368 367 365
f 368 370 369 367
f 370 372 371 369
f 372 374 373 371
f 374 376 375 373
f 376 378 377 375
f 378 380 379 377
f 380 382 381 379
f 382 384 383 381
f 384 386 385 383
f 386 388 387 385
f 388 390 389 387
f 390 392 391 389
f 392 394 393 391
f 394 396 395 393
f 396 398 397 395
f 398 400 399 397
f 400 402 401 399
f 402 404 403 401
f 404 406 405 403
f 406 408 407 405
f 408 410 409 407
f 410 412 411 409
f 412 414 413 411
f 414 416 415 413
f 416 418 417 415
f 418 420 419 417
f 420 422 421 419
f 422 424 423 421
f 424 426 425 423
f 426 428 427 425
f 428 430 429 427
f 430 432 431 429
f 432 434 433 431
f 434 436 435 433
f 436 438 437 435
f 438 440 439 437
f 440 442 441 439
f 442 444 443 441
f 444 446 445 443
f 446 448 447 445
f 448 450 449 447
f 450 452 451 449
f 452 454 453 451
f 454 456 455 453
f 456 458 457 455
f 458 460 459 457
f 460 462 461 459
f 462 464 463 461
f 464 466 465 463
f 466 468 467 465
f 468 470 469 467
f 470 472 471 469
f 472 474 473 471
f 474 476 475 473
f 476 478 477 475
f 478 480 479 477
f 480 482 481 479
f 482 484 483 481
f 484 486 485 483
f 486 488 487 485
f 488 490 489 487
f 490 492 491 489
f 492 494 493 491
f 494 496 495 493
f 496 498 497 495
f 498 500 499 497
f 500 502 501 499
f 502 504 503 501
f 504 506 505 503
f 506 508 507 505
f 508 510 509 507
f 510 512 511 509
f 512 514 513 511
f 514 516 515 513
f 516 518 517 515
f 518 520 519 517
f 520 522 521 519
f 522 524 523 521
f 524 526 525 523
f 526 528 527 525
f 528 530 529 527
f 530 532 531 529
f 532 534 533 531
f 534 536 535 533
f 536 538 537 535
f 538 540 539 537
f 540 542 541 539
f 542 544 543 541
f 544 350 349 543
