mtllib keyboard_key_3_7_J_link.mtl
o keyboard_key_3_7_J_link

g keyboard_key_3_7_J_SOLID
v -0.0199999996 -0.0164999999 0
v -0.0199999996 -0.0130000003 -0.00349999964
v -0.0234999992 -0.0130000003 0
v -0.0200000033 -0.0162335783 -0.0013393946
v -0.0200000033 -0.0154748745 -0.00247487426
v -0.0213393942 -0.0162335783 0
v -0.021372959 -0.0159120411 -0.00137295946
v -0.0213032961 -0.0152968913 -0.00229689106
v -0.0220207274 -0.0150207281 -0.00202072784
v -0.0213393942 -0.0130000003 -0.00323357806
v -0.0224748775 -0.0130000003 -0.00247487426
v -0.0200000033 -0.0143393911 -0.00323357806
v -0.021372959 -0.0143729597 -0.0029120408
v -0.0222968906 -0.0143032968 -0.00229689106
v -0.0232335776 -0.0143393911 0
v -0.0224748775 -0.0154748745 0
v -0.0232335776 -0.0130000003 -0.00133939087
v -0.0229120404 -0.0143729597 -0.00137295946
v -0.0222968906 -0.0152968913 -0.00130329654
v 0.0200000033 -0.0164999999 0
v 0.0235000029 -0.0130000003 0
v 0.0200000033 -0.0130000003 -0.00349999964
v 0.0213393942 -0.0162335783 0
v 0.0224748775 -0.0154748745 0
v 0.0200000033 -0.0162335783 -0.00133939087
v 0.021372959 -0.0159120411 -0.00137295946
v 0.0222968906 -0.0152968913 -0.00130329654
v 0.0220207274 -0.0150207281 -0.00202072784
v 0.0232335776 -0.0130000003 -0.0013393946
v 0.0224748775 -0.0130000003 -0.00247487426
v 0.0232335776 -0.0143393911 0
v 0.0229120404 -0.0143729597 -0.00137295946
v 0.0222968906 -0.0143032968 -0.00229689106
v 0.0200000033 -0.0143393911 -0.00323357806
v 0.0200000033 -0.0154748745 -0.00247487426
v 0.0213393942 -0.0130000003 -0.00323357806
v 0.021372959 -0.0143729597 -0.0029120408
v 0.0213032961 -0.0152968913 -0.00229689106
v 0.0200000033 0.0164999962 0
v 0.0200000033 0.0129999965 -0.00349999964
v 0.0235000029 0.0129999965 0
v 0.0200000033 0.0162335783 -0.0013393946
v 0.0200000033 0.0154748708 -0.00247487426
v 0.0213393942 0.0162335783 0
v 0.021372959 0.0159120411 -0.00137295946
v 0.0213032961 0.0152968913 -0.00229689106
v 0.0220207274 0.0150207281 -0.00202072784
v 0.0213393942 0.0129999965 -0.00323357806
v 0.0224748775 0.0129999965 -0.00247487426
v 0.0200000033 0.0143393949 -0.00323357806
v 0.021372959 0.0143729597 -0.0029120408
v 0.0222968906 0.0143032968 -0.00229689106
v 0.0232335776 0.0143393949 0
v 0.0224748775 0.0154748708 0
v 0.0232335776 0.0129999965 -0.00133939087
v 0.0229120404 0.0143729597 -0.00137295946
v 0.0222968906 0.0152968913 -0.00130329654
v -0.0199999996 0.0164999962 0
v -0.0234999992 0.0129999965 0
v -0.0199999996 0.0129999965 -0.00349999964
v -0.0213393942 0.0162335783 0
v -0.0224748775 0.0154748708 0
v -0.0200000033 0.0162335783 -0.00133939087
v -0.021372959 0.0159120411 -0.00137295946
v -0.0222968906 0.0152968913 -0.00130329654
v -0.0220207274 0.0150207281 -0.00202072784
v -0.0232335776 0.0129999965 -0.0013393946
v -0.0224748775 0.0129999965 -0.00247487426
v -0.0232335776 0.0143393949 0
v -0.0229120404 0.0143729597 -0.00137295946
v -0.0222968906 0.0143032968 -0.00229689106
v -0.0200000033 0.0143393949 -0.00323357806
v -0.0200000033 0.0154748708 -0.00247487426
v -0.0213393942 0.0129999965 -0.00323357806
v -0.021372959 0.0143729597 -0.0029120408
v -0.0213032961 0.0152968913 -0.00229689106
v -0.0234999992 -0.0130000003 0
v -0.0199999996 -0.0130000003 0.00350000337
v -0.0199999996 -0.0164999999 0
v -0.0232335776 -0.0130000003 0.0013393946
v -0.0224748775 -0.0130000003 0.00247487426
v -0.0232335776 -0.0143393911 0
v -0.0229120404 -0.0143729597 0.00137295946
v -0.0222968906 -0.0143032968 0.00229689106
v -0.0220207274 -0.0150207281 0.00202072784
v -0.0200000033 -0.0143393911 0.00323357806
v -0.0200000033 -0.0154748745 0.00247487426
v -0.0213393942 -0.0130000003 0.00323357806
v -0.021372959 -0.0143729597 0.0029120408
v -0.0213032961 -0.0152968913 0.00229689106
v -0.0213393942 -0.0162335783 0
v -0.0224748775 -0.0154748745 0
v -0.0200000033 -0.0162335783 0.00133939087
v -0.021372959 -0.0159120411 0.00137295946
v -0.0222968906 -0.0152968913 0.00130329654
v 0.0200000033 -0.0164999999 0
v 0.0200000033 -0.0130000003 0.00350000337
v 0.0235000029 -0.0130000003 0
v 0.0200000033 -0.0162335783 0.0013393946
v 0.0200000033 -0.0154748745 0.00247487426
v 0.0213393942 -0.0162335783 0
v 0.021372959 -0.0159120411 0.00137295946
v 0.0213032961 -0.0152968913 0.00229689106
v 0.0220207274 -0.0150207281 0.00202072784
v 0.0213393942 -0.0130000003 0.00323357806
v 0.0224748775 -0.0130000003 0.00247487426
v 0.0200000033 -0.0143393911 0.00323357806
v 0.021372959 -0.0143729597 0.0029120408
v 0.0222968906 -0.0143032968 0.00229689106
v 0.0232335776 -0.0143393911 0
v 0.0224748775 -0.0154748745 0
v 0.0232335776 -0.0130000003 0.00133939087
v 0.0229120404 -0.0143729597 0.00137295946
v 0.0222968906 -0.0152968913 0.00130329654
v 0.0200000033 0.0129999965 0.00350000337
v 0.0200000033 0.0164999962 0
v 0.0235000029 0.0129999965 0
v 0.0200000033 0.0143393949 0.00323357806
v 0.0200000033 0.0154748708 0.00247487426
v 0.0213393942 0.0129999965 0.00323357806
v 0.021372959 0.0143729597 0.0029120408
v 0.0213032961 0.0152968913 0.00229689106
v 0.0220207274 0.0150207281 0.00202072784
v 0.0213393942 0.0162335783 0
v 0.0224748775 0.0154748708 0
v 0.0200000033 0.0162335783 0.00133939087
v 0.021372959 0.0159120411 0.00137295946
v 0.0222968906 0.0152968913 0.00130329654
v 0.0232335776 0.0129999965 0.0013393946
v 0.0224748775 0.0129999965 0.00247487426
v 0.0232335776 0.0143393949 0
v 0.0229120404 0.0143729597 0.00137295946
v 0.0222968906 0.0143032968 0.00229689106
v -0.0234999992 0.0129999965 0
v -0.0199999996 0.0164999962 0
v -0.0199999996 0.0129999965 0.00350000337
v -0.0232335776 0.0143393949 0
v -0.0224748775 0.0154748708 0
v -0.0232335776 0.0129999965 0.00133939087
v -0.0229120404 0.0143729597 0.00137295946
v -0.0222968906 0.0152968913 0.00130329654
v -0.0220207274 0.0150207281 0.00202072784
v -0.0200000033 0.0162335783 0.0013393946
v -0.0200000033 0.0154748708 0.00247487426
v -0.0213393942 0.0162335783 0
v -0.021372959 0.0159120411 0.00137295946
v -0.0213032961 0.0152968913 0.00229689106
v -0.0213393942 0.0129999965 0.00323357806
v -0.0224748775 0.0129999965 0.00247487426
v -0.0200000033 0.0143393949 0.00323357806
v -0.021372959 0.0143729597 0.0029120408
v -0.0222968906 0.0143032968 0.00229689106
usemtl matte_black_keycaps_003
f 59 134 77 3
f 2 22 40 60
f 39 116 135 58
f 78 136 115 97
f 21 98 117 41
f 1 4 7 6
f 4 5 8 7
f 6 7 19 16
f 7 8 9 19
f 2 10 13 12
f 10 11 14 13
f 12 13 8 5
f 13 14 9 8
f 3 15 18 17
f 15 16 19 18
f 17 18 14 11
f 18 19 9 14
f 20 23 26 25
f 23 24 27 26
f 25 26 38 35
f 26 27 28 38
f 21 29 32 31
f 29 30 33 32
f 31 32 27 24
f 32 33 28 27
f 22 34 37 36
f 34 35 38 37
f 36 37 33 30
f 37 38 28 33
f 39 42 45 44
f 42 43 46 45
f 44 45 57 54
f 45 46 47 57
f 40 48 51 50
f 48 49 52 51
f 50 51 46 43
f 51 52 47 46
f 41 53 56 55
f 53 54 57 56
f 55 56 52 49
f 56 57 47 52
f 58 61 64 63
f 61 62 65 64
f 63 64 76 73
f 64 65 66 76
f 59 67 70 69
f 67 68 71 70
f 69 70 65 62
f 70 71 66 65
f 60 72 75 74
f 72 73 76 75
f 74 75 71 68
f 75 76 66 71
f 77 80 83 82
f 80 81 84 83
f 82 83 95 92
f 83 84 85 95
f 78 86 89 88
f 86 87 90 89
f 88 89 84 81
f 89 90 85 84
f 79 91 94 93
f 91 92 95 94
f 93 94 90 87
f 94 95 85 90
f 96 99 102 101
f 99 100 103 102
f 101 102 114 111
f 102 103 104 114
f 97 105 108 107
f 105 106 109 108
f 107 108 103 100
f 108 109 104 103
f 98 110 113 112
f 110 111 114 113
f 112 113 109 106
f 113 114 104 109
f 115 118 121 120
f 118 119 122 121
f 120 121 133 130
f 121 122 123 133
f 116 124 127 126
f 124 125 128 127
f 126 127 122 119
f 127 128 123 122
f 117 129 132 131
f 129 130 133 132
f 131 132 128 125
f 132 133 123 128
f 134 137 140 139
f 137 138 141 140
f 139 140 152 149
f 140 141 142 152
f 135 143 146 145
f 143 144 147 146
f 145 146 141 138
f 146 147 142 141
f 136 148 151 150
f 148 149 152 151
f 150 151 147 144
f 151 152 142 147
f 39 58 63 42
f 42 63 73 43
f 43 73 72 50
f 50 72 60 40
f 1 20 25 4
f 4 25 35 5
f 5 35 34 12
f 12 34 22 2
f 21 41 55 29
f 29 55 49 30
f 30 49 48 36
f 36 48 40 22
f 2 60 74 10
f 10 74 68 11
f 11 68 67 17
f 17 67 59 3
f 3 77 82 15
f 15 82 92 16
f 16 92 91 6
f 6 91 79 1
f 78 97 107 86
f 86 107 100 87
f 87 100 99 93
f 93 99 96 79
f 97 115 120 105
f 105 120 130 106
f 106 130 129 112
f 112 129 117 98
f 77 134 139 80
f 80 139 149 81
f 81 149 148 88
f 88 148 136 78
f 20 96 101 23
f 23 101 111 24
f 24 111 110 31
f 31 110 98 21
f 41 117 131 53
f 53 131 125 54
f 54 125 124 44
f 44 124 116 39
f 115 136 150 118
f 118 150 144 119
f 119 144 143 126
f 126 143 135 116
f 58 135 145 61
f 61 145 138 62
f 62 138 137 69
f 69 137 134 59
f 1 79 96 20

g key_legend_3_7_J
v -0.000520825386 -0.00439047068 0.00450000539
v -0.00055411458 -0.00468542054 0.00450000539
v -0.00061108917 -0.00496266037 0.00450000539
v -0.00069295615 -0.00522000343 0.00450000539
v -0.000800937414 -0.00545526296 0.00450000539
v -0.000936247408 -0.00566625223 0.00450000539
v -0.00110009313 -0.00585078448 0.00450000539
v -0.00129369646 -0.00600666925 0.00450000539
v -0.00151827931 -0.0061317198 0.00450000539
v -0.00177504122 -0.00622375309 0.00450000539
v -0.00206521153 -0.00628057495 0.00450000539
v -0.00238999724 -0.00630000234 0.00450000539
v -0.00241919607 -0.00629980117 0.00450000539
v -0.00244694203 -0.0062992163 0.00450000539
v -0.00247342885 -0.00629828498 0.00450000539
v -0.00249888003 -0.00629704073 0.00450000539
v -0.0025235042 -0.00629551709 0.00450000539
v -0.00254749507 -0.0062937513 0.00450000539
v -0.0025710687 -0.00629178062 0.00450000539
v -0.00259444118 -0.00628963113 0.00450000539
v -0.0026178062 -0.00628734753 0.00450000539
v -0.00264137983 -0.00628495589 0.00450000539
v -0.00266537815 -0.0062824972 0.00450000539
v -0.00268999487 -0.00628000125 0.00450000539
v -0.00286999345 -0.00537000224 0.00450000539
v -0.00261999667 -0.00537000224 0.00450000539
v -0.00237929076 -0.00535915792 0.00450000539
v -0.0021751821 -0.00532657653 0.00450000539
v -0.00200468302 -0.00527218729 0.00450000539
v -0.00186480582 -0.00519592687 0.00450000539
v -0.00175257772 -0.00509772077 0.00450000539
v -0.00166499615 -0.00497750193 0.00450000539
v -0.00159908086 -0.00483519956 0.00450000539
v -0.00155184418 -0.0046707429 0.00450000539
v -0.00152030587 -0.00448406488 0.00450000539
v -0.00150147825 -0.00427509472 0.00450000539
v -0.00149236619 -0.00404376537 0.00450000539
v -0.00148999691 -0.00379000232 0.00450000539
v -0.00148999691 0.00282000005 0.00450000539
v -0.000509992242 0.00282000005 0.00450000539
v -0.000509992242 -0.00408000126 0.00450000539
v -0.000520825386 -0.00439047068 0.00409999862
v -0.00055411458 -0.00468542054 0.00409999862
v -0.00061108917 -0.00496266037 0.00409999862
v -0.00069295615 -0.00522000343 0.00409999862
v -0.000800937414 -0.00545526296 0.00409999862
v -0.000936247408 -0.00566625223 0.00409999862
v -0.00110009313 -0.00585078448 0.00409999862
v -0.00129369646 -0.00600666925 0.00409999862
v -0.00151827931 -0.0061317198 0.00409999862
v -0.00177504122 -0.00622375309 0.00409999862
v -0.00206521153 -0.00628057495 0.00409999862
v -0.00238999724 -0.00630000234 0.00409999862
v -0.00241919607 -0.00629980117 0.00409999862
v -0.00244694203 -0.0062992163 0.00409999862
v -0.00247342885 -0.00629828498 0.00409999862
v -0.00249888003 -0.00629704073 0.00409999862
v -0.0025235042 -0.00629551709 0.00409999862
v -0.00254749507 -0.0062937513 0.00409999862
v -0.0025710687 -0.00629178062 0.00409999862
v -0.00259444118 -0.00628963113 0.00409999862
v -0.0026178062 -0.00628734753 0.00409999862
v -0.00264137983 -0.00628495589 0.00409999862
v -0.00266537815 -0.0062824972 0.00409999862
v -0.00268999487 -0.00628000125 0.00409999862
v -0.00286999345 -0.00537000224 0.00409999862
v -0.00261999667 -0.00537000224 0.00409999862
v -0.00237929076 -0.00535915792 0.00409999862
v -0.0021751821 -0.00532657653 0.00409999862
v -0.00200468302 -0.00527218729 0.00409999862
v -0.00186480582 -0.00519592687 0.00409999862
v -0.00175257772 -0.00509772077 0.00409999862
v -0.00166499615 -0.00497750193 0.00409999862
v -0.00159908086 -0.00483519956 0.00409999862
v -0.00155184418 -0.0046707429 0.00409999862
v -0.00152030587 -0.00448406488 0.00409999862
v -0.00150147825 -0.00427509472 0.00409999862
v -0.00149236619 -0.00404376537 0.00409999862
v -0.00148999691 -0.00379000232 0.00409999862
v -0.00148999691 0.00282000005 0.00409999862
v -0.000509992242 0.00282000005 0.00409999862
v -0.000509992242 -0.00408000126 0.00409999862
v -0.000520825386 -0.00439047068 0.00409999862
v -0.000520825386 -0.00439047068 0.00450000539
v -0.00055411458 -0.00468542054 0.00409999862
v -0.00055411458 -0.00468542054 0.00450000539
v -0.00061108917 -0.00496266037 0.00409999862
v -0.00061108917 -0.00496266037 0.00450000539
v -0.00069295615 -0.00522000343 0.00409999862
v -0.00069295615 -0.00522000343 0.00450000539
v -0.000800937414 -0.00545526296 0.00409999862
v -0.000800937414 -0.00545526296 0.00450000539
v -0.000936247408 -0.00566625223 0.00409999862
v -0.000936247408 -0.00566625223 0.00450000539
v -0.00110009313 -0.00585078448 0.00409999862
v -0.00110009313 -0.00585078448 0.00450000539
v -0.00129369646 -0.00600666925 0.00409999862
v -0.00129369646 -0.00600666925 0.00450000539
v -0.00151827931 -0.0061317198 0.00409999862
v -0.00151827931 -0.0061317198 0.00450000539
v -0.00177504122 -0.00622375309 0.00409999862
v -0.00177504122 -0.00622375309 0.00450000539
v -0.00206521153 -0.00628057495 0.00409999862
v -0.00206521153 -0.00628057495 0.00450000539
v -0.00238999724 -0.00630000234 0.00409999862
v -0.00238999724 -0.00630000234 0.00450000539
v -0.00241919607 -0.00629980117 0.00409999862
v -0.00241919607 -0.00629980117 0.00450000539
v -0.00244694203 -0.0062992163 0.00409999862
v -0.00244694203 -0.0062992163 0.00450000539
v -0.00247342885 -0.00629828498 0.00409999862
v -0.00247342885 -0.00629828498 0.00450000539
v -0.00249888003 -0.00629704073 0.00409999862
v -0.00249888003 -0.00629704073 0.00450000539
v -0.0025235042 -0.00629551709 0.00409999862
v -0.0025235042 -0.00629551709 0.00450000539
v -0.00254749507 -0.0062937513 0.00409999862
v -0.00254749507 -0.0062937513 0.00450000539
v -0.0025710687 -0.00629178062 0.00409999862
v -0.0025710687 -0.00629178062 0.00450000539
v -0.00259444118 -0.00628963113 0.00409999862
v -0.00259444118 -0.00628963113 0.00450000539
v -0.0026178062 -0.00628734753 0.00409999862
v -0.0026178062 -0.00628734753 0.00450000539
v -0.00264137983 -0.00628495589 0.00409999862
v -0.00264137983 -0.00628495589 0.00450000539
v -0.00266537815 -0.0062824972 0.00409999862
v -0.00266537815 -0.0062824972 0.00450000539
v -0.00268999487 -0.00628000125 0.00409999862
v -0.00268999487 -0.00628000125 0.00450000539
v -0.00286999345 -0.00537000224 0.00409999862
v -0.00286999345 -0.00537000224 0.00450000539
v -0.00261999667 -0.00537000224 0.00409999862
v -0.00261999667 -0.00537000224 0.00450000539
v -0.00237929076 -0.00535915792 0.00409999862
v -0.00237929076 -0.00535915792 0.00450000539
v -0.0021751821 -0.00532657653 0.00409999862
v -0.0021751821 -0.00532657653 0.00450000539
v -0.00200468302 -0.00527218729 0.00409999862
v -0.00200468302 -0.00527218729 0.00450000539
v -0.00186480582 -0.00519592687 0.00409999862
v -0.00186480582 -0.00519592687 0.00450000539
v -0.00175257772 -0.00509772077 0.00409999862
v -0.00175257772 -0.00509772077 0.00450000539
v -0.00166499615 -0.00497750193 0.00409999862
v -0.00166499615 -0.00497750193 0.00450000539
v -0.00159908086 -0.00483519956 0.00409999862
v -0.00159908086 -0.00483519956 0.00450000539
v -0.00155184418 -0.0046707429 0.00409999862
v -0.00155184418 -0.0046707429 0.00450000539
v -0.00152030587 -0.00448406488 0.00409999862
v -0.00152030587 -0.00448406488 0.00450000539
v -0.00150147825 -0.00427509472 0.00409999862
v -0.00150147825 -0.00427509472 0.00450000539
v -0.00149236619 -0.00404376537 0.00409999862
v -0.00149236619 -0.00404376537 0.00450000539
v -0.00148999691 -0.00379000232 0.00409999862
v -0.00148999691 -0.00379000232 0.00450000539
v -0.00148999691 0.00282000005 0.00409999862
v -0.00148999691 0.00282000005 0.00450000539
v -0.000509992242 0.00282000005 0.00409999862
v -0.000509992242 0.00282000005 0.00450000539
v -0.000509992242 -0.00408000126 0.00409999862
v -0.000509992242 -0.00408000126 0.00450000539
usemtl screen_white_text_003
f 190 192 191
f 190 193 192
f 189 193 190
f 188 193 189
f 188 153 193
f 187 153 188
f 187 154 153
f 186 154 187
f 185 154 186
f 185 155 154
f 184 155 185
f 184 156 155
f 183 156 184
f 182 156 183
f 181 156 182
f 181 157 156
f 180 157 181
f 179 157 180
f 178 157 179
f 176 178 177
f 176 157 178
f 176 158 157
f 176 159 158
f 176 160 159
f 176 161 160
f 176 162 161
f 176 163 162
f 175 163 176
f 175 164 163
f 174 164 175
f 173 164 174
f 172 164 173
f 171 164 172
f 170 164 171
f 169 164 170
f 168 164 169
f 167 164 168
f 166 164 167
f 165 164 166
f 231 232 233
f 231 233 234
f 230 231 234
f 229 230 234
f 229 234 194
f 228 229 194
f 228 194 195
f 227 228 195
f 226 227 195
f 226 195 196
f 225 226 196
f 225 196 197
f 224 225 197
f 223 224 197
f 222 223 197
f 222 197 198
f 221 222 198
f 220 221 198
f 219 220 198
f 217 218 219
f 217 219 198
f 217 198 199
f 217 199 200
f 217 200 201
f 217 201 202
f 217 202 203
f 217 203 204
f 216 217 204
f 216 204 205
f 215 216 205
f 214 215 205
f 213 214 205
f 212 213 205
f 211 212 205
f 210 211 205
f 209 210 205
f 208 209 205
f 207 208 205
f 206 207 205
f 236 238 237 235
f 238 240 239 237
f 240 242 241 239
f 242 244 243 241
f 244 246 245 243
f 246 248 247 245
f 248 250 249 247
f 250 252 251 249
f 252 254 253 251
f 254 256 255 253
f 256 258 257 255
f 258 260 259 257
f 260 262 261 259
f 262 264 263 261
f 264 266 265 263
f 266 268 267 265
f 268 270 269 267
f 270 272 271 269
f 272 274 273 271
f 274 276 275 273
f 276 278 277 275
f 278 280 279 277
f 280 282 281 279
f 282 284 283 281
f 284 286 285 283
f 286 288 287 285
f 288 290 289 287
f 290 292 291 289
f 292 294 293 291
f 294 296 295 293
f 296 298 297 295
f 298 300 299 297
f 300 302 301 299
f 302 304 303 301
f 304 306 305 303
f 306 308 307 305
f 308 310 309 307
f 310 312 311 309
f 312 314 313 311
f 314 316 315 313
f 316 236 235 315
