mtllib keyboard_key_2_9_O_link.mtl
o keyboard_key_2_9_O_link

g keyboard_key_2_9_O_SOLID
v -0.0189999938 -0.0165000036 0
v -0.0189999938 -0.013000004 -0.00349999964
v -0.0225000083 -0.013000004 0
v -0.0189999938 -0.0162335783 -0.0013393946
v -0.0189999938 -0.0154748708 -0.00247487426
v -0.0203393996 -0.0162335783 0
v -0.020372957 -0.0159120411 -0.00137295946
v -0.0203032941 -0.0152968913 -0.00229689106
v -0.0210207254 -0.0150207281 -0.00202072784
v -0.0203393996 -0.013000004 -0.00323357806
v -0.0214748681 -0.013000004 -0.00247487426
v -0.0189999938 -0.0143393949 -0.00323357806
v -0.020372957 -0.0143729597 -0.0029120408
v -0.0212968886 -0.0143032968 -0.00229689106
v -0.0222335756 -0.0143393949 0
v -0.0214748681 -0.0154748708 0
v -0.0222335756 -0.013000004 -0.00133939087
v -0.0219120383 -0.0143729597 -0.00137295946
v -0.0212968886 -0.0152968913 -0.00130329654
v 0.0189999938 -0.0165000036 0
v 0.0225000083 -0.013000004 0
v 0.0189999938 -0.013000004 -0.00349999964
v 0.0203393996 -0.0162335783 0
v 0.0214748681 -0.0154748708 0
v 0.0189999938 -0.0162335783 -0.00133939087
v 0.020372957 -0.0159120411 -0.00137295946
v 0.0212968886 -0.0152968913 -0.00130329654
v 0.0210207254 -0.0150207281 -0.00202072784
v 0.0222335756 -0.013000004 -0.0013393946
v 0.0214748681 -0.013000004 -0.00247487426
v 0.0222335756 -0.0143393949 0
v 0.0219120383 -0.0143729597 -0.00137295946
v 0.0212968886 -0.0143032968 -0.00229689106
v 0.0189999938 -0.0143393949 -0.00323357806
v 0.0189999938 -0.0154748708 -0.00247487426
v 0.0203393996 -0.013000004 -0.00323357806
v 0.020372957 -0.0143729597 -0.0029120408
v 0.0203032941 -0.0152968913 -0.00229689106
v 0.0189999938 0.0165000036 0
v 0.0189999938 0.013000004 -0.00349999964
v 0.0225000083 0.013000004 0
v 0.0189999938 0.0162335783 -0.0013393946
v 0.0189999938 0.0154748708 -0.00247487426
v 0.0203393996 0.0162335783 0
v 0.020372957 0.0159120411 -0.00137295946
v 0.0203032941 0.0152968913 -0.00229689106
v 0.0210207254 0.0150207281 -0.00202072784
v 0.0203393996 0.013000004 -0.00323357806
v 0.0214748681 0.013000004 -0.00247487426
v 0.0189999938 0.0143393949 -0.00323357806
v 0.020372957 0.0143729597 -0.0029120408
v 0.0212968886 0.0143032968 -0.00229689106
v 0.0222335756 0.0143393949 0
v 0.0214748681 0.0154748708 0
v 0.0222335756 0.013000004 -0.00133939087
v 0.0219120383 0.0143729597 -0.00137295946
v 0.0212968886 0.0152968913 -0.00130329654
v -0.0189999938 0.0165000036 0
v -0.0225000083 0.013000004 0
v -0.0189999938 0.013000004 -0.00349999964
v -0.0203393996 0.0162335783 0
v -0.0214748681 0.0154748708 0
v -0.0189999938 0.0162335783 -0.00133939087
v -0.020372957 0.0159120411 -0.00137295946
v -0.0212968886 0.0152968913 -0.00130329654
v -0.0210207254 0.0150207281 -0.00202072784
v -0.0222335756 0.013000004 -0.0013393946
v -0.0214748681 0.013000004 -0.00247487426
v -0.0222335756 0.0143393949 0
v -0.0219120383 0.0143729597 -0.00137295946
v -0.0212968886 0.0143032968 -0.00229689106
v -0.0189999938 0.0143393949 -0.00323357806
v -0.0189999938 0.0154748708 -0.00247487426
v -0.0203393996 0.013000004 -0.00323357806
v -0.020372957 0.0143729597 -0.0029120408
v -0.0203032941 0.0152968913 -0.00229689106
v -0.0225000083 -0.013000004 0
v -0.0189999938 -0.013000004 0.00350000337
v -0.0189999938 -0.0165000036 0
v -0.0222335756 -0.013000004 0.0013393946
v -0.0214748681 -0.013000004 0.00247487426
v -0.0222335756 -0.0143393949 0
v -0.0219120383 -0.0143729597 0.00137295946
v -0.0212968886 -0.0143032968 0.00229689106
v -0.0210207254 -0.0150207281 0.00202072784
v -0.0189999938 -0.0143393949 0.00323357806
v -0.0189999938 -0.0154748708 0.00247487426
v -0.0203393996 -0.013000004 0.00323357806
v -0.020372957 -0.0143729597 0.0029120408
v -0.0203032941 -0.0152968913 0.00229689106
v -0.0203393996 -0.0162335783 0
v -0.0214748681 -0.0154748708 0
v -0.0189999938 -0.0162335783 0.00133939087
v -0.020372957 -0.0159120411 0.00137295946
v -0.0212968886 -0.0152968913 0.00130329654
v 0.0189999938 -0.0165000036 0
v 0.0189999938 -0.013000004 0.00350000337
v 0.0225000083 -0.013000004 0
v 0.0189999938 -0.0162335783 0.0013393946
v 0.0189999938 -0.0154748708 0.00247487426
v 0.0203393996 -0.0162335783 0
v 0.020372957 -0.0159120411 0.00137295946
v 0.0203032941 -0.0152968913 0.00229689106
v 0.0210207254 -0.0150207281 0.00202072784
v 0.0203393996 -0.013000004 0.00323357806
v 0.0214748681 -0.013000004 0.00247487426
v 0.0189999938 -0.0143393949 0.00323357806
v 0.020372957 -0.0143729597 0.0029120408
v 0.0212968886 -0.0143032968 0.00229689106
v 0.0222335756 -0.0143393949 0
v 0.0214748681 -0.0154748708 0
v 0.0222335756 -0.013000004 0.00133939087
v 0.0219120383 -0.0143729597 0.00137295946
v 0.0212968886 -0.0152968913 0.00130329654
v 0.0189999938 0.013000004 0.00350000337
v 0.0189999938 0.0165000036 0
v 0.0225000083 0.013000004 0
v 0.0189999938 0.0143393949 0.00323357806
v 0.0189999938 0.0154748708 0.00247487426
v 0.0203393996 0.013000004 0.00323357806
v 0.020372957 0.0143729597 0.0029120408
v 0.0203032941 0.0152968913 0.00229689106
v 0.0210207254 0.0150207281 0.00202072784
v 0.0203393996 0.0162335783 0
v 0.0214748681 0.0154748708 0
v 0.0189999938 0.0162335783 0.00133939087
v 0.020372957 0.0159120411 0.00137295946
v 0.0212968886 0.0152968913 0.00130329654
v 0.0222335756 0.013000004 0.0013393946
v 0.0214748681 0.013000004 0.00247487426
v 0.0222335756 0.0143393949 0
v 0.0219120383 0.0143729597 0.00137295946
v 0.0212968886 0.0143032968 0.00229689106
v -0.0225000083 0.013000004 0
v -0.0189999938 0.0165000036 0
v -0.0189999938 0.013000004 0.00350000337
v -0.0222335756 0.0143393949 0
v -0.0214748681 0.0154748708 0
v -0.0222335756 0.013000004 0.00133939087
v -0.0219120383 0.0143729597 0.00137295946
v -0.0212968886 0.0152968913 0.00130329654
v -0.0210207254 0.0150207281 0.00202072784
v -0.0189999938 0.0162335783 0.0013393946
v -0.0189999938 0.0154748708 0.00247487426
v -0.0203393996 0.0162335783 0
v -0.020372957 0.0159120411 0.00137295946
v -0.0203032941 0.0152968913 0.00229689106
v -0.0203393996 0.013000004 0.00323357806
v -0.0214748681 0.013000004 0.00247487426
v -0.0189999938 0.0143393949 0.00323357806
v -0.020372957 0.0143729597 0.0029120408
v -0.0212968886 0.0143032968 0.00229689106
usemtl matte_black_keycaps_003
f 59 134 77 3
f 2 22 40 60
f 39 116 135 58
f 78 136 115 97
f 21 98 117 41
f 1 4 7 6
f 4 5 8 7
f 6 7 19 16
f 7 8 9 19
f 2 10 13 12
f 10 11 14 13
f 12 13 8 5
f 13 14 9 8
f 3 15 18 17
f 15 16 19 18
f 17 18 14 11
f 18 19 9 14
f 20 23 26 25
f 23 24 27 26
f 25 26 38 35
f 26 27 28 38
f 21 29 32 31
f 29 30 33 32
f 31 32 27 24
f 32 33 28 27
f 22 34 37 36
f 34 35 38 37
f 36 37 33 30
f 37 38 28 33
f 39 42 45 44
f 42 43 46 45
f 44 45 57 54
f 45 46 47 57
f 40 48 51 50
f 48 49 52 51
f 50 51 46 43
f 51 52 47 46
f 41 53 56 55
f 53 54 57 56
f 55 56 52 49
f 56 57 47 52
f 58 61 64 63
f 61 62 65 64
f 63 64 76 73
f 64 65 66 76
f 59 67 70 69
f 67 68 71 70
f 69 70 65 62
f 70 71 66 65
f 60 72 75 74
f 72 73 76 75
f 74 75 71 68
f 75 76 66 71
f 77 80 83 82
f 80 81 84 83
f 82 83 95 92
f 83 84 85 95
f 78 86 89 88
f 86 87 90 89
f 88 89 84 81
f 89 90 85 84
f 79 91 94 93
f 91 92 95 94
f 93 94 90 87
f 94 95 85 90
f 96 99 102 101
f 99 100 103 102
f 101 102 114 111
f 102 103 104 114
f 97 105 108 107
f 105 106 109 108
f 107 108 103 100
f 108 109 104 103
f 98 110 113 112
f 110 111 114 113
f 112 113 109 106
f 113 114 104 109
f 115 118 121 120
f 118 119 122 121
f 120 121 133 130
f 121 122 123 133
f 116 124 127 126
f 124 125 128 127
f 126 127 122 119
f 127 128 123 122
f 117 129 132 131
f 129 130 133 132
f 131 132 128 125
f 132 133 123 128
f 134 137 140 139
f 137 138 141 140
f 139 140 152 149
f 140 141 142 152
f 135 143 146 145
f 143 144 147 146
f 145 146 141 138
f 146 147 142 141
f 136 148 151 150
f 148 149 152 151
f 150 151 147 144
f 151 152 142 147
f 39 58 63 42
f 42 63 73 43
f 43 73 72 50
f 50 72 60 40
f 1 20 25 4
f 4 25 35 5
f 5 35 34 12
f 12 34 22 2
f 21 41 55 29
f 29 55 49 30
f 30 49 48 36
f 36 48 40 22
f 2 60 74 10
f 10 74 68 11
f 11 68 67 17
f 17 67 59 3
f 3 77 82 15
f 15 82 92 16
f 16 92 91 6
f 6 91 79 1
f 78 97 107 86
f 86 107 100 87
f 87 100 99 93
f 93 99 96 79
f 97 115 120 105
f 105 120 130 106
f 106 130 129 112
f 112 129 117 98
f 77 134 139 80
f 80 139 149 81
f 81 149 148 88
f 88 148 136 78
f 20 96 101 23
f 23 101 111 24
f 24 111 110 31
f 31 110 98 21
f 41 117 131 53
f 53 131 125 54
f 54 125 124 44
f 44 124 116 39
f 115 136 150 118
f 118 150 144 119
f 119 144 143 126
f 126 143 135 116
f 58 135 145 61
f 61 145 138 62
f 62 138 137 69
f 69 137 134 59
f 1 79 96 20

g key_legend_2_9_O
v -0.000460132957 0.00287741423 0.00450000539
v 4.81009483e-05 0.00278268009 0.00450000539
v 0.000517651439 0.00263030827 0.00450000539
v 0.000946477056 0.00242481381 0.00450000539
v 0.00133252144 0.00217070431 0.00450000539
v 0.00167374313 0.00187249482 0.00450000539
v 0.00196810067 0.00153470784 0.00450000539
v 0.00221352279 0.00116185099 0.00450000539
v 0.00240796804 0.000758431852 0.00450000539
v 0.00254939497 0.000328980386 0.00450000539
v 0.0026357621 -0.000122003257 0.00450000539
v 0.00266499817 -0.000590004027 0.00450000539
v 0.00263650715 -0.00104539841 0.00450000539
v 0.00255207717 -0.00148814917 0.00450000539
v 0.00241327286 -0.00191313028 0.00450000539
v 0.00222165883 -0.00231518596 0.00450000539
v 0.0019787997 -0.00268919021 0.00450000539
v 0.0016862452 -0.00303000212 0.00450000539
v 0.00134557486 -0.00333248079 0.00450000539
v 0.00095833838 -0.00359148532 0.00450000539
v 0.000526085496 -0.00380187482 0.00450000539
v 5.04106283e-05 -0.00395852327 0.00450000539
v -0.000467136502 -0.00405627489 0.00450000539
v -0.00102500618 -0.00409000367 0.00450000539
v -0.00156508386 -0.00405646861 0.00450000539
v -0.00206893682 -0.00395921618 0.00450000539
v -0.00253453851 -0.00380328298 0.00450000539
v -0.00295981765 -0.00359370559 0.00450000539
v -0.00334273279 -0.00333552063 0.00450000539
v -0.00368125737 -0.00303374976 0.00450000539
v -0.00397330523 -0.00269344449 0.00450000539
v -0.0042168498 -0.00231963396 0.00450000539
v -0.00440984964 -0.00191734731 0.00450000539
v -0.00455023348 -0.00149162114 0.00450000539
v -0.00463597476 -0.00104749948 0.00450000539
v -0.00466500223 -0.000590004027 0.00450000539
v -0.004635185 -0.000124104321 0.00450000539
v -0.00454735756 0.000325508416 0.00450000539
v -0.00440390408 0.000754214823 0.00450000539
v -0.00420722365 0.00115740299 0.00450000539
v -0.00395970047 0.00153045356 0.00450000539
v -0.0036637485 0.00186874717 0.00450000539
v -0.00332175195 0.00216766447 0.00450000539
v -0.0029361099 0.00242259353 0.00450000539
v -0.00250922143 0.00262890756 0.00450000539
v -0.00204347074 0.00278198719 0.00450000539
v -0.00154127181 0.00287722796 0.00450000539
v -0.00100500882 0.00290999562 0.00450000539
v -0.000631257892 -0.00316730142 0.00450000539
v -0.000276714563 -0.00310087949 0.00450000539
v 5.60879707e-05 -0.00299328566 0.00450000539
v 0.000364631414 -0.00284703821 0.00450000539
v 0.000646352768 -0.00266468525 0.00450000539
v 0.000898748636 -0.00244875252 0.00450000539
v 0.00111927092 -0.00220178068 0.00450000539
v 0.00130537152 -0.00192629546 0.00450000539
v 0.00145453215 -0.00162484497 0.00450000539
v 0.00156420469 -0.00129995495 0.00450000539
v 0.00163188577 -0.000954166055 0.00450000539
v 0.00165499747 -0.000590004027 0.00450000539
v 0.00163188577 -0.000223740935 0.00450000539
v 0.00156420469 0.000123426318 0.00450000539
v 0.00145453215 0.000449061394 0.00450000539
v 0.00130537152 0.000750742853 0.00450000539
v 0.00111925602 0.0010260269 0.00450000539
v 0.000898748636 0.00127249956 0.00450000539
v 0.000646352768 0.00148771703 0.00450000539
v 0.000364631414 0.00166925788 0.00450000539
v 5.60879707e-05 0.00181468576 0.00450000539
v -0.000276714563 0.00192157179 0.00450000539
v -0.000631257892 0.00198748708 0.00450000539
v -0.00100500882 0.00200999528 0.00450000539
v -0.00137645006 0.00198748708 0.00450000539
v -0.00172907114 0.00192157179 0.00450000539
v -0.00206030905 0.00181468576 0.00450000539
v -0.0023676008 0.00166925788 0.00450000539
v -0.00264835358 0.00148771703 0.00450000539
v -0.00290000439 0.00127249956 0.00450000539
v -0.00311999023 0.0010260269 0.00450000539
v -0.00330574811 0.000750735402 0.00450000539
v -0.00345468521 0.000449061394 0.00450000539
v -0.00356426835 0.000123426318 0.00450000539
v -0.00363188982 -0.000223740935 0.00450000539
v -0.00365500152 -0.000590004027 0.00450000539
v -0.00363188982 -0.000954166055 0.00450000539
v -0.00356426835 -0.00129995495 0.00450000539
v -0.00345468521 -0.00162484497 0.00450000539
v -0.00330574811 -0.00192629546 0.00450000539
v -0.00311999023 -0.00220178068 0.00450000539
v -0.00290000439 -0.00244875252 0.00450000539
v -0.00264835358 -0.00266468525 0.00450000539
v -0.0023676008 -0.00284703821 0.00450000539
v -0.00206030905 -0.00299328566 0.00450000539
v -0.00172907114 -0.00310087949 0.00450000539
v -0.00137645006 -0.00316730142 0.00450000539
v -0.00100500882 -0.00319000334 0.00450000539
v -0.000460132957 0.00287741423 0.00409999862
v 4.81009483e-05 0.00278268009 0.00409999862
v 0.000517651439 0.00263030827 0.00409999862
v 0.000946477056 0.00242481381 0.00409999862
v 0.00133252144 0.00217070431 0.00409999862
v 0.00167374313 0.00187249482 0.00409999862
v 0.00196810067 0.00153470784 0.00409999862
v 0.00221352279 0.00116185099 0.00409999862
v 0.00240796804 0.000758431852 0.00409999862
v 0.00254939497 0.000328980386 0.00409999862
v 0.0026357621 -0.000122003257 0.00409999862
v 0.00266499817 -0.000590004027 0.00409999862
v 0.00263650715 -0.00104539841 0.00409999862
v 0.00255207717 -0.00148814917 0.00409999862
v 0.00241327286 -0.00191313028 0.00409999862
v 0.00222165883 -0.00231518596 0.00409999862
v 0.0019787997 -0.00268919021 0.00409999862
v 0.0016862452 -0.00303000212 0.00409999862
v 0.00134557486 -0.00333248079 0.00409999862
v 0.00095833838 -0.00359148532 0.00409999862
v 0.000526085496 -0.00380187482 0.00409999862
v 5.04106283e-05 -0.00395852327 0.00409999862
v -0.000467136502 -0.00405627489 0.00409999862
v -0.00102500618 -0.00409000367 0.00409999862
v -0.00156508386 -0.00405646861 0.00409999862
v -0.00206893682 -0.00395921618 0.00409999862
v -0.00253453851 -0.00380328298 0.00409999862
v -0.00295981765 -0.00359370559 0.00409999862
v -0.00334273279 -0.00333552063 0.00409999862
v -0.00368125737 -0.00303374976 0.00409999862
v -0.00397330523 -0.00269344449 0.00409999862
v -0.0042168498 -0.00231963396 0.00409999862
v -0.00440984964 -0.00191734731 0.00409999862
v -0.00455023348 -0.00149162114 0.00409999862
v -0.00463597476 -0.00104749948 0.00409999862
v -0.00466500223 -0.000590004027 0.00409999862
v -0.004635185 -0.000124104321 0.00409999862
v -0.00454735756 0.000325508416 0.00409999862
v -0.00440390408 0.000754214823 0.00409999862
v -0.00420722365 0.00115740299 0.00409999862
v -0.00395970047 0.00153045356 0.00409999862
v -0.0036637485 0.00186874717 0.00409999862
v -0.00332175195 0.00216766447 0.00409999862
v -0.0029361099 0.00242259353 0.00409999862
v -0.00250922143 0.00262890756 0.00409999862
v -0.00204347074 0.00278198719 0.00409999862
v -0.00154127181 0.00287722796 0.00409999862
v -0.00100500882 0.00290999562 0.00409999862
v -0.000631257892 -0.00316730142 0.00409999862
v -0.000276714563 -0.00310087949 0.00409999862
v 5.60879707e-05 -0.00299328566 0.00409999862
v 0.000364631414 -0.00284703821 0.00409999862
v 0.000646352768 -0.00266468525 0.00409999862
v 0.000898748636 -0.00244875252 0.00409999862
v 0.00111927092 -0.00220178068 0.00409999862
v 0.00130537152 -0.00192629546 0.00409999862
v 0.00145453215 -0.00162484497 0.00409999862
v 0.00156420469 -0.00129995495 0.00409999862
v 0.00163188577 -0.000954166055 0.00409999862
v 0.00165499747 -0.000590004027 0.00409999862
v 0.00163188577 -0.000223740935 0.00409999862
v 0.00156420469 0.000123426318 0.00409999862
v 0.00145453215 0.000449061394 0.00409999862
v 0.00130537152 0.000750742853 0.00409999862
v 0.00111925602 0.0010260269 0.00409999862
v 0.000898748636 0.00127249956 0.00409999862
v 0.000646352768 0.00148771703 0.00409999862
v 0.000364631414 0.00166925788 0.00409999862
v 5.60879707e-05 0.00181468576 0.00409999862
v -0.000276714563 0.00192157179 0.00409999862
v -0.000631257892 0.00198748708 0.00409999862
v -0.00100500882 0.00200999528 0.00409999862
v -0.00137645006 0.00198748708 0.00409999862
v -0.00172907114 0.00192157179 0.00409999862
v -0.00206030905 0.00181468576 0.00409999862
v -0.0023676008 0.00166925788 0.00409999862
v -0.00264835358 0.00148771703 0.00409999862
v -0.00290000439 0.00127249956 0.00409999862
v -0.00311999023 0.0010260269 0.00409999862
v -0.00330574811 0.000750735402 0.00409999862
v -0.00345468521 0.000449061394 0.00409999862
v -0.00356426835 0.000123426318 0.00409999862
v -0.00363188982 -0.000223740935 0.00409999862
v -0.00365500152 -0.000590004027 0.00409999862
v -0.00363188982 -0.000954166055 0.00409999862
v -0.00356426835 -0.00129995495 0.00409999862
v -0.00345468521 -0.00162484497 0.00409999862
v -0.00330574811 -0.00192629546 0.00409999862
v -0.00311999023 -0.00220178068 0.00409999862
v -0.00290000439 -0.00244875252 0.00409999862
v -0.00264835358 -0.00266468525 0.00409999862
v -0.0023676008 -0.00284703821 0.00409999862
v -0.00206030905 -0.00299328566 0.00409999862
v -0.00172907114 -0.00310087949 0.00409999862
v -0.00137645006 -0.00316730142 0.00409999862
v -0.00100500882 -0.00319000334 0.00409999862
v -0.000460132957 0.00287741423 0.00409999862
v -0.000460132957 0.00287741423 0.00450000539
v 4.81009483e-05 0.00278268009 0.00409999862
v 4.81009483e-05 0.00278268009 0.00450000539
v 0.000517651439 0.00263030827 0.00409999862
v 0.000517651439 0.00263030827 0.00450000539
v 0.000946477056 0.00242481381 0.00409999862
v 0.000946477056 0.00242481381 0.00450000539
v 0.00133252144 0.00217070431 0.00409999862
v 0.00133252144 0.00217070431 0.00450000539
v 0.00167374313 0.00187249482 0.00409999862
v 0.00167374313 0.00187249482 0.00450000539
v 0.00196810067 0.00153470784 0.00409999862
v 0.00196810067 0.00153470784 0.00450000539
v 0.00221352279 0.00116185099 0.00409999862
v 0.00221352279 0.00116185099 0.00450000539
v 0.00240796804 0.000758431852 0.00409999862
v 0.00240796804 0.000758431852 0.00450000539
v 0.00254939497 0.000328980386 0.00409999862
v 0.00254939497 0.000328980386 0.00450000539
v 0.0026357621 -0.000122003257 0.00409999862
v 0.0026357621 -0.000122003257 0.00450000539
v 0.00266499817 -0.000590004027 0.00409999862
v 0.00266499817 -0.000590004027 0.00450000539
v 0.00263650715 -0.00104539841 0.00409999862
v 0.00263650715 -0.00104539841 0.00450000539
v 0.00255207717 -0.00148814917 0.00409999862
v 0.00255207717 -0.00148814917 0.00450000539
v 0.00241327286 -0.00191313028 0.00409999862
v 0.00241327286 -0.00191313028 0.00450000539
v 0.00222165883 -0.00231518596 0.00409999862
v 0.00222165883 -0.00231518596 0.00450000539
v 0.0019787997 -0.00268919021 0.00409999862
v 0.0019787997 -0.00268919021 0.00450000539
v 0.0016862452 -0.00303000212 0.00409999862
v 0.0016862452 -0.00303000212 0.00450000539
v 0.00134557486 -0.00333248079 0.00409999862
v 0.00134557486 -0.00333248079 0.00450000539
v 0.00095833838 -0.00359148532 0.00409999862
v 0.00095833838 -0.00359148532 0.00450000539
v 0.000526085496 -0.00380187482 0.00409999862
v 0.000526085496 -0.00380187482 0.00450000539
v 5.04106283e-05 -0.00395852327 0.00409999862
v 5.04106283e-05 -0.00395852327 0.00450000539
v -0.000467136502 -0.00405627489 0.00409999862
v -0.000467136502 -0.00405627489 0.00450000539
v -0.00102500618 -0.00409000367 0.00409999862
v -0.00102500618 -0.00409000367 0.00450000539
v -0.00156508386 -0.00405646861 0.00409999862
v -0.00156508386 -0.00405646861 0.00450000539
v -0.00206893682 -0.00395921618 0.00409999862
v -0.00206893682 -0.00395921618 0.00450000539
v -0.00253453851 -0.00380328298 0.00409999862
v -0.00253453851 -0.00380328298 0.00450000539
v -0.00295981765 -0.00359370559 0.00409999862
v -0.00295981765 -0.00359370559 0.00450000539
v -0.00334273279 -0.00333552063 0.00409999862
v -0.00334273279 -0.00333552063 0.00450000539
v -0.00368125737 -0.00303374976 0.00409999862
v -0.00368125737 -0.00303374976 0.00450000539
v -0.00397330523 -0.00269344449 0.00409999862
v -0.00397330523 -0.00269344449 0.00450000539
v -0.0042168498 -0.00231963396 0.00409999862
v -0.0042168498 -0.00231963396 0.00450000539
v -0.00440984964 -0.00191734731 0.00409999862
v -0.00440984964 -0.00191734731 0.00450000539
v -0.00455023348 -0.00149162114 0.00409999862
v -0.00455023348 -0.00149162114 0.00450000539
v -0.00463597476 -0.00104749948 0.00409999862
v -0.00463597476 -0.00104749948 0.00450000539
v -0.00466500223 -0.000590004027 0.00409999862
v -0.00466500223 -0.000590004027 0.00450000539
v -0.004635185 -0.000124104321 0.00409999862
v -0.004635185 -0.000124104321 0.00450000539
v -0.00454735756 0.000325508416 0.00409999862
v -0.00454735756 0.000325508416 0.00450000539
v -0.00440390408 0.000754214823 0.00409999862
v -0.00440390408 0.000754214823 0.00450000539
v -0.00420722365 0.00115740299 0.00409999862
v -0.00420722365 0.00115740299 0.00450000539
v -0.00395970047 0.00153045356 0.00409999862
v -0.00395970047 0.00153045356 0.00450000539
v -0.0036637485 0.00186874717 0.00409999862
v -0.0036637485 0.00186874717 0.00450000539
v -0.00332175195 0.00216766447 0.00409999862
v -0.00332175195 0.00216766447 0.00450000539
v -0.0029361099 0.00242259353 0.00409999862
v -0.0029361099 0.00242259353 0.00450000539
v -0.00250922143 0.00262890756 0.00409999862
v -0.00250922143 0.00262890756 0.00450000539
v -0.00204347074 0.00278198719 0.00409999862
v -0.00204347074 0.00278198719 0.00450000539
v -0.00154127181 0.00287722796 0.00409999862
v -0.00154127181 0.00287722796 0.00450000539
v -0.00100500882 0.00290999562 0.00409999862
v -0.00100500882 0.00290999562 0.00450000539
v -0.000631257892 -0.00316730142 0.00409999862
v -0.000631257892 -0.00316730142 0.00450000539
v -0.000276714563 -0.00310087949 0.00409999862
v -0.000276714563 -0.00310087949 0.00450000539
v 5.60879707e-05 -0.00299328566 0.00409999862
v 5.60879707e-05 -0.00299328566 0.00450000539
v 0.000364631414 -0.00284703821 0.00409999862
v 0.000364631414 -0.00284703821 0.00450000539
v 0.000646352768 -0.00266468525 0.00409999862
v 0.000646352768 -0.00266468525 0.00450000539
v 0.000898748636 -0.00244875252 0.00409999862
v 0.000898748636 -0.00244875252 0.00450000539
v 0.00111927092 -0.00220178068 0.00409999862
v 0.00111927092 -0.00220178068 0.00450000539
v 0.00130537152 -0.00192629546 0.00409999862
v 0.00130537152 -0.00192629546 0.00450000539
v 0.00145453215 -0.00162484497 0.00409999862
v 0.00145453215 -0.00162484497 0.00450000539
v 0.00156420469 -0.00129995495 0.00409999862
v 0.00156420469 -0.00129995495 0.00450000539
v 0.00163188577 -0.000954166055 0.00409999862
v 0.00163188577 -0.000954166055 0.00450000539
v 0.00165499747 -0.000590004027 0.00409999862
v 0.00165499747 -0.000590004027 0.00450000539
v 0.00163188577 -0.000223740935 0.00409999862
v 0.00163188577 -0.000223740935 0.00450000539
v 0.00156420469 0.000123426318 0.00409999862
v 0.00156420469 0.000123426318 0.00450000539
v 0.00145453215 0.000449061394 0.00409999862
v 0.00145453215 0.000449061394 0.00450000539
v 0.00130537152 0.000750742853 0.00409999862
v 0.00130537152 0.000750742853 0.00450000539
v 0.00111925602 0.0010260269 0.00409999862
v 0.00111925602 0.0010260269 0.00450000539
v 0.000898748636 0.00127249956 0.00409999862
v 0.000898748636 0.00127249956 0.00450000539
v 0.000646352768 0.00148771703 0.00409999862
v 0.000646352768 0.00148771703 0.00450000539
v 0.000364631414 0.00166925788 0.00409999862
v 0.000364631414 0.00166925788 0.00450000539
v 5.60879707e-05 0.00181468576 0.00409999862
v 5.60879707e-05 0.00181468576 0.00450000539
v -0.000276714563 0.00192157179 0.00409999862
v -0.000276714563 0.00192157179 0.00450000539
v -0.000631257892 0.00198748708 0.00409999862
v -0.000631257892 0.00198748708 0.00450000539
v -0.00100500882 0.00200999528 0.00409999862
v -0.00100500882 0.00200999528 0.00450000539
v -0.00137645006 0.00198748708 0.00409999862
v -0.00137645006 0.00198748708 0.00450000539
v -0.00172907114 0.00192157179 0.00409999862
v -0.00172907114 0.00192157179 0.00450000539
v -0.00206030905 0.00181468576 0.00409999862
v -0.00206030905 0.00181468576 0.00450000539
v -0.0023676008 0.00166925788 0.00409999862
v -0.0023676008 0.00166925788 0.00450000539
v -0.00264835358 0.00148771703 0.00409999862
v -0.00264835358 0.00148771703 0.00450000539
v -0.00290000439 0.00127249956 0.00409999862
v -0.00290000439 0.00127249956 0.00450000539
v -0.00311999023 0.0010260269 0.00409999862
v -0.00311999023 0.0010260269 0.00450000539
v -0.00330574811 0.000750735402 0.00409999862
v -0.00330574811 0.000750735402 0.00450000539
v -0.00345468521 0.000449061394 0.00409999862
v -0.00345468521 0.000449061394 0.00450000539
v -0.00356426835 0.000123426318 0.00409999862
v -0.00356426835 0.000123426318 0.00450000539
v -0.00363188982 -0.000223740935 0.00409999862
v -0.00363188982 -0.000223740935 0.00450000539
v -0.00365500152 -0.000590004027 0.00409999862
v -0.00365500152 -0.000590004027 0.00450000539
v -0.00363188982 -0.000954166055 0.00409999862
v -0.00363188982 -0.000954166055 0.00450000539
v -0.00356426835 -0.00129995495 0.00409999862
v -0.00356426835 -0.00129995495 0.00450000539
v -0.00345468521 -0.00162484497 0.00409999862
v -0.00345468521 -0.00162484497 0.00450000539
v -0.00330574811 -0.00192629546 0.00409999862
v -0.00330574811 -0.00192629546 0.00450000539
v -0.00311999023 -0.00220178068 0.00409999862
v -0.00311999023 -0.00220178068 0.00450000539
v -0.00290000439 -0.00244875252 0.00409999862
v -0.00290000439 -0.00244875252 0.00450000539
v -0.00264835358 -0.00266468525 0.00409999862
v -0.00264835358 -0.00266468525 0.00450000539
v -0.0023676008 -0.00284703821 0.00409999862
v -0.0023676008 -0.00284703821 0.00450000539
v -0.00206030905 -0.00299328566 0.00409999862
v -0.00206030905 -0.00299328566 0.00450000539
v -0.00172907114 -0.00310087949 0.00409999862
v -0.00172907114 -0.00310087949 0.00450000539
v -0.00137645006 -0.00316730142 0.00409999862
v -0.00137645006 -0.00316730142 0.00450000539
v -0.00100500882 -0.00319000334 0.00409999862
v -0.00100500882 -0.00319000334 0.00450000539
usemtl screen_white_text_003
f 199 153 200
f 199 154 153
f 198 154 199
f 198 155 154
f 197 155 198
f 197 156 155
f 196 156 197
f 196 157 156
f 195 157 196
f 195 158 157
f 194 224 195
f 224 158 195
f 194 225 224
f 223 158 224
f 222 158 223
f 194 226 225
f 221 158 222
f 194 227 226
f 221 159 158
f 193 227 194
f 220 159 221
f 193 228 227
f 219 159 220
f 193 229 228
f 219 160 159
f 192 229 193
f 218 160 219
f 192 230 229
f 217 160 218
f 192 231 230
f 217 161 160
f 191 231 192
f 216 161 217
f 191 232 231
f 216 162 161
f 190 232 191
f 215 162 216
f 190 233 232
f 214 162 215
f 190 234 233
f 214 163 162
f 189 234 190
f 213 163 214
f 189 235 234
f 213 164 163
f 188 235 189
f 212 164 213
f 188 236 235
f 187 236 188
f 187 237 236
f 211 164 212
f 211 165 164
f 187 238 237
f 210 165 211
f 210 166 165
f 186 238 187
f 186 239 238
f 209 166 210
f 209 167 166
f 185 239 186
f 185 240 239
f 208 167 209
f 208 168 167
f 184 240 185
f 184 241 240
f 207 168 208
f 184 242 241
f 206 168 207
f 206 169 168
f 183 242 184
f 183 243 242
f 205 169 206
f 183 244 243
f 204 169 205
f 204 170 169
f 182 244 183
f 182 245 244
f 203 170 204
f 182 246 245
f 202 170 203
f 202 171 170
f 181 246 182
f 181 247 246
f 201 171 202
f 181 248 247
f 248 171 201
f 181 171 248
f 181 172 171
f 180 172 181
f 180 173 172
f 179 173 180
f 179 174 173
f 178 174 179
f 178 175 174
f 177 175 178
f 177 176 175
f 295 296 249
f 295 249 250
f 294 295 250
f 294 250 251
f 293 294 251
f 293 251 252
f 292 293 252
f 292 252 253
f 291 292 253
f 291 253 254
f 290 291 320
f 320 291 254
f 290 320 321
f 319 320 254
f 318 319 254
f 290 321 322
f 317 318 254
f 290 322 323
f 317 254 255
f 289 290 323
f 316 317 255
f 289 323 324
f 315 316 255
f 289 324 325
f 315 255 256
f 288 289 325
f 314 315 256
f 288 325 326
f 313 314 256
f 288 326 327
f 313 256 257
f 287 288 327
f 312 313 257
f 287 327 328
f 312 257 258
f 286 287 328
f 311 312 258
f 286 328 329
f 310 311 258
f 286 329 330
f 310 258 259
f 285 286 330
f 309 310 259
f 285 330 331
f 309 259 260
f 284 285 331
f 308 309 260
f 284 331 332
f 283 284 332
f 283 332 333
f 307 308 260
f 307 260 261
f 283 333 334
f 306 307 261
f 306 261 262
f 282 283 334
f 282 334 335
f 305 306 262
f 305 262 263
f 281 282 335
f 281 335 336
f 304 305 263
f 304 263 264
f 280 281 336
f 280 336 337
f 303 304 264
f 280 337 338
f 302 303 264
f 302 264 265
f 279 280 338
f 279 338 339
f 301 302 265
f 279 339 340
f 300 301 265
f 300 265 266
f 278 279 340
f 278 340 341
f 299 300 266
f 278 341 342
f 298 299 266
f 298 266 267
f 277 278 342
f 277 342 343
f 297 298 267
f 277 343 344
f 344 297 267
f 277 344 267
f 277 267 268
f 276 277 268
f 276 268 269
f 275 276 269
f 275 269 270
f 274 275 270
f 274 270 271
f 273 274 271
f 273 271 272
f 346 348 347 345
f 348 350 349 347
f 350 352 351 349
f 352 354 353 351
f 354 356 355 353
f 356 358 357 355
f 358 360 359 357
f 360 362 361 359
f 362 364 363 361
f 364 366 365 363
f 366 368 367 365
f 368 370 369 367
f 370 372 371 369
f 372 374 373 371
f 374 376 375 373
f 376 378 377 375
f 378 380 379 377
f 380 382 381 379
f 382 384 383 381
f 384 386 385 383
f 386 388 387 385
f 388 390 389 387
f 390 392 391 389
f 392 394 393 391
f 394 396 395 393
f 396 398 397 395
f 398 400 399 397
f 400 402 401 399
f 402 404 403 401
f 404 406 405 403
f 406 408 407 405
f 408 410 409 407
f 410 412 411 409
f 412 414 413 411
f 414 416 415 413
f 416 418 417 415
f 418 420 419 417
f 420 422 421 419
f 422 424 423 421
f 424 426 425 423
f 426 428 427 425
f 428 430 429 427
f 430 432 431 429
f 432 434 433 431
f 434 436 435 433
f 436 438 437 435
f 438 440 439 437
f 440 346 345 439
f 442 444 443 441
f 444 446 445 443
f 446 448 447 445
f 448 450 449 447
f 450 452 451 449
f 452 454 453 451
f 454 456 455 453
f 456 458 457 455
f 458 460 459 457
f 460 462 461 459
f 462 464 463 461
f 464 466 465 463
f 466 468 467 465
f 468 470 469 467
f 470 472 471 469
f 472 474 473 471
f 474 476 475 473
f 476 478 477 475
f 478 480 479 477
f 480 482 481 479
f 482 484 483 481
f 484 486 485 483
f 486 488 487 485
f 488 490 489 487
f 490 492 491 489
f 492 494 493 491
f 494 496 495 493
f 496 498 497 495
f 498 500 499 497
f 500 502 501 499
f 502 504 503 501
f 504 506 505 503
f 506 508 507 505
f 508 510 509 507
f 510 512 511 509
f 512 514 513 511
f 514 516 515 513
f 516 518 517 515
f 518 520 519 517
f 520 522 521 519
f 522 524 523 521
f 524 526 525 523
f 526 528 527 525
f 528 530 529 527
f 530 532 531 529
f 532 534 533 531
f 534 536 535 533
f 536 442 441 535
