mtllib keyboard_key_bottom_2_alt_link.mtl
o keyboard_key_bottom_2_alt_link

g keyboard_key_bottom_2_alt_SOLID
v -0.0190000087 -0.0164999999 0
v -0.0190000087 -0.0130000003 -0.00349999964
v -0.0224999934 -0.0130000003 0
v -0.0190000087 -0.0162335783 -0.0013393946
v -0.0190000087 -0.0154748745 -0.00247487426
v -0.0203393996 -0.0162335783 0
v -0.020372957 -0.0159120411 -0.00137295946
v -0.0203032941 -0.0152968913 -0.00229689106
v -0.0210207254 -0.0150207281 -0.00202072784
v -0.0203393996 -0.0130000003 -0.00323357806
v -0.021474883 -0.0130000003 -0.00247487426
v -0.0190000087 -0.0143393911 -0.00323357806
v -0.020372957 -0.0143729597 -0.0029120408
v -0.0212968886 -0.0143032968 -0.00229689106
v -0.0222335756 -0.0143393911 0
v -0.021474883 -0.0154748745 0
v -0.0222335756 -0.0130000003 -0.00133939087
v -0.0219120383 -0.0143729597 -0.00137295946
v -0.0212968886 -0.0152968913 -0.00130329654
v 0.0190000087 -0.0164999999 0
v 0.0224999934 -0.0130000003 0
v 0.0190000087 -0.0130000003 -0.00349999964
v 0.0203393996 -0.0162335783 0
v 0.021474883 -0.0154748745 0
v 0.0190000087 -0.0162335783 -0.00133939087
v 0.020372957 -0.0159120411 -0.00137295946
v 0.0212968886 -0.0152968913 -0.00130329654
v 0.0210207254 -0.0150207281 -0.00202072784
v 0.0222335756 -0.0130000003 -0.0013393946
v 0.021474883 -0.0130000003 -0.00247487426
v 0.0222335756 -0.0143393911 0
v 0.0219120383 -0.0143729597 -0.00137295946
v 0.0212968886 -0.0143032968 -0.00229689106
v 0.0190000087 -0.0143393911 -0.00323357806
v 0.0190000087 -0.0154748745 -0.00247487426
v 0.0203393996 -0.0130000003 -0.00323357806
v 0.020372957 -0.0143729597 -0.0029120408
v 0.0203032941 -0.0152968913 -0.00229689106
v 0.0190000087 0.0164999999 0
v 0.0190000087 0.0130000003 -0.00349999964
v 0.0224999934 0.0130000003 0
v 0.0190000087 0.0162335783 -0.0013393946
v 0.0190000087 0.0154748736 -0.00247487426
v 0.0203393996 0.0162335783 0
v 0.020372957 0.0159120392 -0.00137295946
v 0.0203032941 0.0152968913 -0.00229689106
v 0.0210207254 0.0150207262 -0.00202072784
v 0.0203393996 0.0130000003 -0.00323357806
v 0.021474883 0.0130000003 -0.00247487426
v 0.0190000087 0.0143393921 -0.00323357806
v 0.020372957 0.0143729588 -0.0029120408
v 0.0212968886 0.0143032968 -0.00229689106
v 0.0222335756 0.0143393921 0
v 0.021474883 0.0154748736 0
v 0.0222335756 0.0130000003 -0.00133939087
v 0.0219120383 0.0143729588 -0.00137295946
v 0.0212968886 0.0152968913 -0.00130329654
v -0.0190000087 0.0164999999 0
v -0.0224999934 0.0130000003 0
v -0.0190000087 0.0130000003 -0.00349999964
v -0.0203393996 0.0162335783 0
v -0.021474883 0.0154748736 0
v -0.0190000087 0.0162335783 -0.00133939087
v -0.020372957 0.0159120392 -0.00137295946
v -0.0212968886 0.0152968913 -0.00130329654
v -0.0210207254 0.0150207262 -0.00202072784
v -0.0222335756 0.0130000003 -0.0013393946
v -0.021474883 0.0130000003 -0.00247487426
v -0.0222335756 0.0143393921 0
v -0.0219120383 0.0143729588 -0.00137295946
v -0.0212968886 0.0143032968 -0.00229689106
v -0.0190000087 0.0143393921 -0.00323357806
v -0.0190000087 0.0154748736 -0.00247487426
v -0.0203393996 0.0130000003 -0.00323357806
v -0.020372957 0.0143729588 -0.0029120408
v -0.0203032941 0.0152968913 -0.00229689106
v -0.0224999934 -0.0130000003 0
v -0.0190000087 -0.0130000003 0.00350000337
v -0.0190000087 -0.0164999999 0
v -0.0222335756 -0.0130000003 0.0013393946
v -0.021474883 -0.0130000003 0.00247487426
v -0.0222335756 -0.0143393911 0
v -0.0219120383 -0.0143729597 0.00137295946
v -0.0212968886 -0.0143032968 0.00229689106
v -0.0210207254 -0.0150207281 0.00202072784
v -0.0190000087 -0.0143393911 0.00323357806
v -0.0190000087 -0.0154748745 0.00247487426
v -0.0203393996 -0.0130000003 0.00323357806
v -0.020372957 -0.0143729597 0.0029120408
v -0.0203032941 -0.0152968913 0.00229689106
v -0.0203393996 -0.0162335783 0
v -0.021474883 -0.0154748745 0
v -0.0190000087 -0.0162335783 0.00133939087
v -0.020372957 -0.0159120411 0.00137295946
v -0.0212968886 -0.0152968913 0.00130329654
v 0.0190000087 -0.0164999999 0
v 0.0190000087 -0.0130000003 0.00350000337
v 0.0224999934 -0.0130000003 0
v 0.0190000087 -0.0162335783 0.0013393946
v 0.0190000087 -0.0154748745 0.00247487426
v 0.0203393996 -0.0162335783 0
v 0.020372957 -0.0159120411 0.00137295946
v 0.0203032941 -0.0152968913 0.00229689106
v 0.0210207254 -0.0150207281 0.00202072784
v 0.0203393996 -0.0130000003 0.00323357806
v 0.021474883 -0.0130000003 0.00247487426
v 0.0190000087 -0.0143393911 0.00323357806
v 0.020372957 -0.0143729597 0.0029120408
v 0.0212968886 -0.0143032968 0.00229689106
v 0.0222335756 -0.0143393911 0
v 0.021474883 -0.0154748745 0
v 0.0222335756 -0.0130000003 0.00133939087
v 0.0219120383 -0.0143729597 0.00137295946
v 0.0212968886 -0.0152968913 0.00130329654
v 0.0190000087 0.0130000003 0.00350000337
v 0.0190000087 0.0164999999 0
v 0.0224999934 0.0130000003 0
v 0.0190000087 0.0143393921 0.00323357806
v 0.0190000087 0.0154748736 0.00247487426
v 0.0203393996 0.0130000003 0.00323357806
v 0.020372957 0.0143729588 0.0029120408
v 0.0203032941 0.0152968913 0.00229689106
v 0.0210207254 0.0150207262 0.00202072784
v 0.0203393996 0.0162335783 0
v 0.021474883 0.0154748736 0
v 0.0190000087 0.0162335783 0.00133939087
v 0.020372957 0.0159120392 0.00137295946
v 0.0212968886 0.0152968913 0.00130329654
v 0.0222335756 0.0130000003 0.0013393946
v 0.021474883 0.0130000003 0.00247487426
v 0.0222335756 0.0143393921 0
v 0.0219120383 0.0143729588 0.00137295946
v 0.0212968886 0.0143032968 0.00229689106
v -0.0224999934 0.0130000003 0
v -0.0190000087 0.0164999999 0
v -0.0190000087 0.0130000003 0.00350000337
v -0.0222335756 0.0143393921 0
v -0.021474883 0.0154748736 0
v -0.0222335756 0.0130000003 0.00133939087
v -0.0219120383 0.0143729588 0.00137295946
v -0.0212968886 0.0152968913 0.00130329654
v -0.0210207254 0.0150207262 0.00202072784
v -0.0190000087 0.0162335783 0.0013393946
v -0.0190000087 0.0154748736 0.00247487426
v -0.0203393996 0.0162335783 0
v -0.020372957 0.0159120392 0.00137295946
v -0.0203032941 0.0152968913 0.00229689106
v -0.0203393996 0.0130000003 0.00323357806
v -0.021474883 0.0130000003 0.00247487426
v -0.0190000087 0.0143393921 0.00323357806
v -0.020372957 0.0143729588 0.0029120408
v -0.0212968886 0.0143032968 0.00229689106
usemtl matte_black_keycaps_003
f 59 134 77 3
f 2 22 40 60
f 39 116 135 58
f 78 136 115 97
f 21 98 117 41
f 1 4 7 6
f 4 5 8 7
f 6 7 19 16
f 7 8 9 19
f 2 10 13 12
f 10 11 14 13
f 12 13 8 5
f 13 14 9 8
f 3 15 18 17
f 15 16 19 18
f 17 18 14 11
f 18 19 9 14
f 20 23 26 25
f 23 24 27 26
f 25 26 38 35
f 26 27 28 38
f 21 29 32 31
f 29 30 33 32
f 31 32 27 24
f 32 33 28 27
f 22 34 37 36
f 34 35 38 37
f 36 37 33 30
f 37 38 28 33
f 39 42 45 44
f 42 43 46 45
f 44 45 57 54
f 45 46 47 57
f 40 48 51 50
f 48 49 52 51
f 50 51 46 43
f 51 52 47 46
f 41 53 56 55
f 53 54 57 56
f 55 56 52 49
f 56 57 47 52
f 58 61 64 63
f 61 62 65 64
f 63 64 76 73
f 64 65 66 76
f 59 67 70 69
f 67 68 71 70
f 69 70 65 62
f 70 71 66 65
f 60 72 75 74
f 72 73 76 75
f 74 75 71 68
f 75 76 66 71
f 77 80 83 82
f 80 81 84 83
f 82 83 95 92
f 83 84 85 95
f 78 86 89 88
f 86 87 90 89
f 88 89 84 81
f 89 90 85 84
f 79 91 94 93
f 91 92 95 94
f 93 94 90 87
f 94 95 85 90
f 96 99 102 101
f 99 100 103 102
f 101 102 114 111
f 102 103 104 114
f 97 105 108 107
f 105 106 109 108
f 107 108 103 100
f 108 109 104 103
f 98 110 113 112
f 110 111 114 113
f 112 113 109 106
f 113 114 104 109
f 115 118 121 120
f 118 119 122 121
f 120 121 133 130
f 121 122 123 133
f 116 124 127 126
f 124 125 128 127
f 126 127 122 119
f 127 128 123 122
f 117 129 132 131
f 129 130 133 132
f 131 132 128 125
f 132 133 123 128
f 134 137 140 139
f 137 138 141 140
f 139 140 152 149
f 140 141 142 152
f 135 143 146 145
f 143 144 147 146
f 145 146 141 138
f 146 147 142 141
f 136 148 151 150
f 148 149 152 151
f 150 151 147 144
f 151 152 142 147
f 39 58 63 42
f 42 63 73 43
f 43 73 72 50
f 50 72 60 40
f 1 20 25 4
f 4 25 35 5
f 5 35 34 12
f 12 34 22 2
f 21 41 55 29
f 29 55 49 30
f 30 49 48 36
f 36 48 40 22
f 2 60 74 10
f 10 74 68 11
f 11 68 67 17
f 17 67 59 3
f 3 77 82 15
f 15 82 92 16
f 16 92 91 6
f 6 91 79 1
f 78 97 107 86
f 86 107 100 87
f 87 100 99 93
f 93 99 96 79
f 97 115 120 105
f 105 120 130 106
f 106 130 129 112
f 112 129 117 98
f 77 134 139 80
f 80 139 149 81
f 81 149 148 88
f 88 148 136 78
f 20 96 101 23
f 23 101 111 24
f 24 111 110 31
f 31 110 98 21
f 41 117 131 53
f 53 131 125 54
f 54 125 124 44
f 44 124 116 39
f 115 136 150 118
f 118 150 144 119
f 119 144 143 126
f 126 143 135 116
f 58 135 145 61
f 61 145 138 62
f 62 138 137 69
f 69 137 134 59
f 1 79 96 20

g key_legend_bottom_2_alt
v 0.0037239939 0.000191999599 0.00450000539
v 0.0037239939 -0.000447999686 0.00450000539
v 0.00258800387 -0.000447999686 0.00450000539
v 0.00258800387 -0.00228800066 0.00450000539
v 0.00259409845 -0.00238777325 0.00450000539
v 0.0026114881 -0.00247551873 0.00450000539
v 0.00263875723 -0.00255187601 0.00450000539
v 0.00267452002 -0.0026174821 0.00450000539
v 0.00271740556 -0.00267297775 0.00450000539
v 0.00276599824 -0.00271899998 0.00450000539
v 0.00281894207 -0.00275618955 0.00450000539
v 0.00287482142 -0.00278518535 0.00450000539
v 0.0029322505 -0.00280662626 0.00450000539
v 0.00298985839 -0.0028211493 0.00450000539
v 0.00304622948 -0.00282939337 0.00450000539
v 0.00309999287 -0.00283200108 0.00450000539
v 0.00316417217 -0.00283016637 0.00450000539
v 0.0032287389 -0.00282466784 0.00450000539
v 0.00329375267 -0.0028154999 0.00450000539
v 0.00335925817 -0.00280266628 0.00450000539
v 0.00342532992 -0.00278616697 0.00450000539
v 0.00349199772 -0.00276600011 0.00450000539
v 0.00355933607 -0.00274216756 0.00450000539
v 0.00362740457 -0.00271466747 0.00450000539
v 0.00369624794 -0.00268349983 0.00450000539
v 0.00376592577 -0.0026486665 0.00450000539
v 0.00383649766 -0.00261016749 0.00450000539
v 0.00390799344 -0.00256800093 0.00450000539
v 0.00390799344 -0.0032320004 0.00450000539
v 0.0038433373 -0.00326529145 0.00450000539
v 0.00377400219 -0.00329700112 0.00450000539
v 0.00370100141 -0.00332687423 0.00450000539
v 0.00362533331 -0.00335466675 0.00450000539
v 0.00354799628 -0.00338012539 0.00450000539
v 0.0034700036 -0.00340300053 0.00450000539
v 0.00339233875 -0.0034230426 0.00450000539
v 0.0033160001 -0.00344000012 0.00450000539
v 0.00324200094 -0.00345362537 0.00450000539
v 0.00317133963 -0.00346366689 0.00450000539
v 0.00310499966 -0.00346987508 0.00450000539
v 0.00304399431 -0.00347200036 0.00450000539
v 0.00285799801 -0.0034621805 0.00450000539
v 0.00268803537 -0.00343344547 0.00450000539
v 0.00253412127 -0.00338687561 0.00450000539
v 0.00239630044 -0.00332355499 0.00450000539
v 0.00227457285 -0.00324456953 0.00450000539
v 0.00216899812 -0.00315099955 0.00450000539
v 0.00207959116 -0.00304393098 0.00450000539
v 0.00200636685 -0.00292444415 0.00450000539
v 0.00194936991 -0.002793625 0.00450000539
v 0.00190863013 -0.0026525557 0.00450000539
v 0.00188416243 -0.00250232033 0.00450000539
v 0.00187599659 -0.00234400108 0.00450000539
v 0.00187599659 -0.000447999686 0.00450000539
v 0.00125199556 -0.000447999686 0.00450000539
v 0.00125199556 -0.000368000939 0.00450000539
v 0.00258800387 0.000935999677 0.00450000539
v 0.00258800387 0.000191999599 0.00450000539
v 1.99973583e-05 -0.00339999981 0.00450000539
v 1.99973583e-05 0.00205600075 0.00450000539
v 0.000732004642 0.00205600075 0.00450000539
v 0.000732004642 -0.00339999981 0.00450000539
v -0.000706166029 -0.00324288383 0.00450000539
v -0.000777289271 -0.00328774191 0.00450000539
v -0.000842377543 -0.00332687609 0.00450000539
v -0.000902369618 -0.00336059369 0.00450000539
v -0.000958248973 -0.0033892002 0.00450000539
v -0.00101099908 -0.00341300108 0.00450000539
v -0.00106157362 -0.0034323018 0.00450000539
v -0.00111095607 -0.00344740786 0.00450000539
v -0.0011601299 -0.00345862471 0.00450000539
v -0.00121003389 -0.00346625969 0.00450000539
v -0.00126166642 -0.00347061642 0.00450000539
v -0.00131599605 -0.00347200036 0.00450000539
v -0.0013910234 -0.0034696497 0.00450000539
v -0.00146017969 -0.0034625195 0.00450000539
v -0.00152362883 -0.00345049985 0.00450000539
v -0.00158147514 -0.00343348272 0.00450000539
v -0.00163389742 -0.00341135263 0.00450000539
v -0.00168099999 -0.00338400155 0.00450000539
v -0.00172294676 -0.00335131586 0.00450000539
v -0.00175985694 -0.00331318565 0.00450000539
v -0.00179187953 -0.00326950103 0.00450000539
v -0.00181914866 -0.00322014838 0.00450000539
v -0.00184181333 -0.00316501968 0.00450000539
v -0.00186000764 -0.00310400128 0.00450000539
v -0.00193832815 -0.00316333771 0.00450000539
v -0.0020172596 -0.00321737118 0.00450000539
v -0.00209675729 -0.00326612592 0.00450000539
v -0.00217674673 -0.00330962986 0.00450000539
v -0.00225718319 -0.0033479128 0.00450000539
v -0.00233800709 -0.00338100083 0.00450000539
v -0.00241915882 -0.00340892188 0.00450000539
v -0.00250059366 -0.0034317039 0.00450000539
v -0.00258225203 -0.00344937481 0.00450000539
v -0.0026640743 -0.00346196443 0.00450000539
v -0.00274601579 -0.0034694951 0.00450000539
v -0.00282800198 -0.00347200036 0.00450000539
v -0.00295622647 -0.00346354581 0.00450000539
v -0.00307652354 -0.00343903713 0.00450000539
v -0.00318825245 -0.00339975022 0.00450000539
v -0.00329081714 -0.00334696285 0.00450000539
v -0.00338360667 -0.00328195468 0.00450000539
v -0.00346599519 -0.00320599973 0.00450000539
v -0.00353740156 -0.00312037952 0.00450000539
v -0.00359718502 -0.00302636996 0.00450000539
v -0.00364474952 -0.00292525068 0.00450000539
v -0.00367948413 -0.00281829573 0.00450000539
v -0.00370076299 -0.00270678662 0.00450000539
v -0.00370800495 -0.00259200111 0.00450000539
v -0.00369492173 -0.00242405199 0.00450000539
v -0.003657341 -0.0022750739 0.00450000539
v -0.00359775126 -0.00214337558 0.00450000539
v -0.0035186708 -0.00202726014 0.00450000539
v -0.00342258811 -0.00192503259 0.00450000539
v -0.00331200659 -0.00183499977 0.00450000539
v -0.00318941474 -0.00175546855 0.00450000539
v -0.00305733085 -0.00168474019 0.00450000539
v -0.00291824341 -0.00162112527 0.00450000539
v -0.00277467072 -0.00156292692 0.00450000539
v -0.00262908638 -0.00150845014 0.00450000539
v -0.00248399377 -0.00145599991 0.00450000539
v -0.00185200572 -0.00123200007 0.00450000539
v -0.00185200572 -0.00104000047 0.00450000539
v -0.00185650587 -0.000933453441 0.00450000539
v -0.00187000632 -0.000837629661 0.00450000539
v -0.00189250708 -0.000752249733 0.00450000539
v -0.00192399323 -0.000677037984 0.00450000539
v -0.00196449459 -0.000611713156 0.00450000539
v -0.00201399624 -0.000555999577 0.00450000539
v -0.0020724982 -0.000509619713 0.00450000539
v -0.00214000046 -0.000472296029 0.00450000539
v -0.00221650302 -0.000443750992 0.00450000539
v -0.00230200589 -0.000423703343 0.00450000539
v -0.00239649415 -0.000411879271 0.00450000539
v -0.00249999762 -0.000407999381 0.00450000539
v -0.00259813666 -0.00041185692 0.00450000539
v -0.00269636512 -0.000423518941 0.00450000539
v -0.00279450417 -0.000443125144 0.00450000539
v -0.00289230049 -0.000470815226 0.00450000539
v -0.00298953056 -0.000506727025 0.00450000539
v -0.00308600068 -0.000551000237 0.00450000539
v -0.00318145752 -0.0006037727 0.00450000539
v -0.00327570736 -0.000665185973 0.00450000539
v -0.00336849689 -0.00073537603 0.00450000539
v -0.0034596324 -0.00081448257 0.00450000539
v -0.00354887545 -0.000902643427 0.00450000539
v -0.00363600254 -0.00100000016 0.00450000539
v -0.00363600254 -0.000223999843 0.00450000539
v -0.0035636574 -0.000145494938 0.00450000539
v -0.0034865886 -7.39637762e-05 0.00450000539
v -0.00340475142 -9.37469304e-06 0.00450000539
v -0.00331807137 4.82965261e-05 0.00450000539
v -0.00322650373 9.90778208e-05 0.00450000539
v -0.00313000381 0.000143000856 0.00450000539
v -0.0030284971 0.000180087984 0.00450000539
v -0.002921924 0.000210370868 0.00450000539
v -0.00281025469 0.000233875588 0.00450000539
v -0.00269341469 0.000250630081 0.00450000539
v -0.00257134438 0.000260662287 0.00450000539
v -0.00244399905 0.000264000148 0.00450000539
v -0.00226540864 0.000256286934 0.00450000539
v -0.00209462643 0.000232962891 0.00450000539
v -0.00193312764 0.000193750486 0.00450000539
v -0.00178237259 0.00013837032 0.00450000539
v -0.0016438365 6.65467232e-05 0.00450000539
v -0.00151899457 -2.19997019e-05 0.00450000539
v -0.00140932202 -0.000127546489 0.00450000539
v -0.00131629407 -0.000250371173 0.00450000539
v -0.00124137104 -0.000390749425 0.00450000539
v -0.00118604302 -0.000548962504 0.00450000539
v -0.00115175545 -0.000725287944 0.00450000539
v -0.00113999844 -0.000919999555 0.00450000539
v -0.00113999844 -0.00276800059 0.00450000539
v -0.00113900006 -0.00280019082 0.00450000539
v -0.00113603473 -0.00282885134 0.00450000539
v -0.00113113225 -0.00285412557 0.00450000539
v -0.00112429261 -0.00287614763 0.00450000539
v -0.00111557543 -0.00289506093 0.00450000539
v -0.00110499561 -0.00291099958 0.00450000539
v -0.00109258294 -0.00292410702 0.00450000539
v -0.00107836723 -0.0029345192 0.00450000539
v -0.00106237829 -0.00294237584 0.00450000539
v -0.001044631 -0.00294781476 0.00450000539
v -0.00102515519 -0.00295097753 0.00450000539
v -0.00100399554 -0.00295200013 0.00450000539
v -0.000984534621 -0.00295051374 0.00450000539
v -0.000962257385 -0.0029461123 0.00450000539
v -0.000937372446 -0.00293887593 0.00450000539
v -0.000910073519 -0.00292888843 0.00450000539
v -0.000880554318 -0.00291623548 0.00450000539
v -0.000848993659 -0.0029010009 0.00450000539
v -0.000815615058 -0.00288326479 0.00450000539
v -0.000780597329 -0.00286311097 0.00450000539
v -0.000744119287 -0.00284062512 0.00450000539
v -0.000706404448 -0.00281588919 0.00450000539
v -0.000667631626 -0.00278898701 0.00450000539
v -0.000627994537 -0.00276000053 0.00450000539
v -0.000627994537 -0.00319200009 0.00450000539
v -0.00200207531 -0.00167612545 0.00450000539
v -0.00214725733 -0.00172900036 0.00450000539
v -0.00228600204 -0.0017833747 0.00450000539
v -0.00241674483 -0.00184000097 0.00450000539
v -0.00253792107 -0.00189962611 0.00450000539
v -0.00264799595 -0.00196300074 0.00450000539
v -0.00274540484 -0.00203087553 0.00450000539
v -0.00282859802 -0.00210399926 0.00450000539
v -0.00289599597 -0.00218312442 0.00450000539
v -0.00294607878 -0.00226899981 0.00450000539
v -0.00297726691 -0.00236237608 0.00450000539
v -0.00298799574 -0.00246400014 0.00450000539
v -0.002983585 -0.00253609754 0.00450000539
v -0.00297063589 -0.00260411203 0.00450000539
v -0.00294962525 -0.0026676245 0.00450000539
v -0.00292102993 -0.00272622332 0.00450000539
v -0.00288534164 -0.00277948566 0.00450000539
v -0.00284300745 -0.00282699987 0.00450000539
v -0.00279448926 -0.00286834687 0.00450000539
v -0.00274029374 -0.00290311128 0.00450000539
v -0.00268088281 -0.00293087587 0.00450000539
v -0.00261670351 -0.0029512234 0.00450000539
v -0.00254824758 -0.00296373665 0.00450000539
v -0.00247600675 -0.00296800025 0.00450000539
v -0.00242033601 -0.00296569057 0.00450000539
v -0.00236533582 -0.0029588528 0.00450000539
v -0.00231100619 -0.00294762477 0.00450000539
v -0.00225733221 -0.00293214805 0.00450000539
v -0.00220432878 -0.00291256048 0.00450000539
v -0.0021519959 -0.00288899988 0.00450000539
v -0.00210033357 -0.00286160596 0.00450000539
v -0.0020493269 -0.00283051841 0.00450000539
v -0.00199900568 -0.00279587507 0.00450000539
v -0.00194934011 -0.00275781564 0.00450000539
v -0.00190033019 -0.00271647796 0.00450000539
v -0.00185200572 -0.00267199986 0.00450000539
v -0.00185200572 -0.00162399933 0.00450000539
v 0.0037239939 0.000191999599 0.00409999862
v 0.0037239939 -0.000447999686 0.00409999862
v 0.00258800387 -0.000447999686 0.00409999862
v 0.00258800387 -0.00228800066 0.00409999862
v 0.00259409845 -0.00238777325 0.00409999862
v 0.0026114881 -0.00247551873 0.00409999862
v 0.00263875723 -0.00255187601 0.00409999862
v 0.00267452002 -0.0026174821 0.00409999862
v 0.00271740556 -0.00267297775 0.00409999862
v 0.00276599824 -0.00271899998 0.00409999862
v 0.00281894207 -0.00275618955 0.00409999862
v 0.00287482142 -0.00278518535 0.00409999862
v 0.0029322505 -0.00280662626 0.00409999862
v 0.00298985839 -0.0028211493 0.00409999862
v 0.00304622948 -0.00282939337 0.00409999862
v 0.00309999287 -0.00283200108 0.00409999862
v 0.00316417217 -0.00283016637 0.00409999862
v 0.0032287389 -0.00282466784 0.00409999862
v 0.00329375267 -0.0028154999 0.00409999862
v 0.00335925817 -0.00280266628 0.00409999862
v 0.00342532992 -0.00278616697 0.00409999862
v 0.00349199772 -0.00276600011 0.00409999862
v 0.00355933607 -0.00274216756 0.00409999862
v 0.00362740457 -0.00271466747 0.00409999862
v 0.00369624794 -0.00268349983 0.00409999862
v 0.00376592577 -0.0026486665 0.00409999862
v 0.00383649766 -0.00261016749 0.00409999862
v 0.00390799344 -0.00256800093 0.00409999862
v 0.00390799344 -0.0032320004 0.00409999862
v 0.0038433373 -0.00326529145 0.00409999862
v 0.00377400219 -0.00329700112 0.00409999862
v 0.00370100141 -0.00332687423 0.00409999862
v 0.00362533331 -0.00335466675 0.00409999862
v 0.00354799628 -0.00338012539 0.00409999862
v 0.0034700036 -0.00340300053 0.00409999862
v 0.00339233875 -0.0034230426 0.00409999862
v 0.0033160001 -0.00344000012 0.00409999862
v 0.00324200094 -0.00345362537 0.00409999862
v 0.00317133963 -0.00346366689 0.00409999862
v 0.00310499966 -0.00346987508 0.00409999862
v 0.00304399431 -0.00347200036 0.00409999862
v 0.00285799801 -0.0034621805 0.00409999862
v 0.00268803537 -0.00343344547 0.00409999862
v 0.00253412127 -0.00338687561 0.00409999862
v 0.00239630044 -0.00332355499 0.00409999862
v 0.00227457285 -0.00324456953 0.00409999862
v 0.00216899812 -0.00315099955 0.00409999862
v 0.00207959116 -0.00304393098 0.00409999862
v 0.00200636685 -0.00292444415 0.00409999862
v 0.00194936991 -0.002793625 0.00409999862
v 0.00190863013 -0.0026525557 0.00409999862
v 0.00188416243 -0.00250232033 0.00409999862
v 0.00187599659 -0.00234400108 0.00409999862
v 0.00187599659 -0.000447999686 0.00409999862
v 0.00125199556 -0.000447999686 0.00409999862
v 0.00125199556 -0.000368000939 0.00409999862
v 0.00258800387 0.000935999677 0.00409999862
v 0.00258800387 0.000191999599 0.00409999862
v 1.99973583e-05 -0.00339999981 0.00409999862
v 1.99973583e-05 0.00205600075 0.00409999862
v 0.000732004642 0.00205600075 0.00409999862
v 0.000732004642 -0.00339999981 0.00409999862
v -0.000706166029 -0.00324288383 0.00409999862
v -0.000777289271 -0.00328774191 0.00409999862
v -0.000842377543 -0.00332687609 0.00409999862
v -0.000902369618 -0.00336059369 0.00409999862
v -0.000958248973 -0.0033892002 0.00409999862
v -0.00101099908 -0.00341300108 0.00409999862
v -0.00106157362 -0.0034323018 0.00409999862
v -0.00111095607 -0.00344740786 0.00409999862
v -0.0011601299 -0.00345862471 0.00409999862
v -0.00121003389 -0.00346625969 0.00409999862
v -0.00126166642 -0.00347061642 0.00409999862
v -0.00131599605 -0.00347200036 0.00409999862
v -0.0013910234 -0.0034696497 0.00409999862
v -0.00146017969 -0.0034625195 0.00409999862
v -0.00152362883 -0.00345049985 0.00409999862
v -0.00158147514 -0.00343348272 0.00409999862
v -0.00163389742 -0.00341135263 0.00409999862
v -0.00168099999 -0.00338400155 0.00409999862
v -0.00172294676 -0.00335131586 0.00409999862
v -0.00175985694 -0.00331318565 0.00409999862
v -0.00179187953 -0.00326950103 0.00409999862
v -0.00181914866 -0.00322014838 0.00409999862
v -0.00184181333 -0.00316501968 0.00409999862
v -0.00186000764 -0.00310400128 0.00409999862
v -0.00193832815 -0.00316333771 0.00409999862
v -0.0020172596 -0.00321737118 0.00409999862
v -0.00209675729 -0.00326612592 0.00409999862
v -0.00217674673 -0.00330962986 0.00409999862
v -0.00225718319 -0.0033479128 0.00409999862
v -0.00233800709 -0.00338100083 0.00409999862
v -0.00241915882 -0.00340892188 0.00409999862
v -0.00250059366 -0.0034317039 0.00409999862
v -0.00258225203 -0.00344937481 0.00409999862
v -0.0026640743 -0.00346196443 0.00409999862
v -0.00274601579 -0.0034694951 0.00409999862
v -0.00282800198 -0.00347200036 0.00409999862
v -0.00295622647 -0.00346354581 0.00409999862
v -0.00307652354 -0.00343903713 0.00409999862
v -0.00318825245 -0.00339975022 0.00409999862
v -0.00329081714 -0.00334696285 0.00409999862
v -0.00338360667 -0.00328195468 0.00409999862
v -0.00346599519 -0.00320599973 0.00409999862
v -0.00353740156 -0.00312037952 0.00409999862
v -0.00359718502 -0.00302636996 0.00409999862
v -0.00364474952 -0.00292525068 0.00409999862
v -0.00367948413 -0.00281829573 0.00409999862
v -0.00370076299 -0.00270678662 0.00409999862
v -0.00370800495 -0.00259200111 0.00409999862
v -0.00369492173 -0.00242405199 0.00409999862
v -0.003657341 -0.0022750739 0.00409999862
v -0.00359775126 -0.00214337558 0.00409999862
v -0.0035186708 -0.00202726014 0.00409999862
v -0.00342258811 -0.00192503259 0.00409999862
v -0.00331200659 -0.00183499977 0.00409999862
v -0.00318941474 -0.00175546855 0.00409999862
v -0.00305733085 -0.00168474019 0.00409999862
v -0.00291824341 -0.00162112527 0.00409999862
v -0.00277467072 -0.00156292692 0.00409999862
v -0.00262908638 -0.00150845014 0.00409999862
v -0.00248399377 -0.00145599991 0.00409999862
v -0.00185200572 -0.00123200007 0.00409999862
v -0.00185200572 -0.00104000047 0.00409999862
v -0.00185650587 -0.000933453441 0.00409999862
v -0.00187000632 -0.000837629661 0.00409999862
v -0.00189250708 -0.000752249733 0.00409999862
v -0.00192399323 -0.000677037984 0.00409999862
v -0.00196449459 -0.000611713156 0.00409999862
v -0.00201399624 -0.000555999577 0.00409999862
v -0.0020724982 -0.000509619713 0.00409999862
v -0.00214000046 -0.000472296029 0.00409999862
v -0.00221650302 -0.000443750992 0.00409999862
v -0.00230200589 -0.000423703343 0.00409999862
v -0.00239649415 -0.000411879271 0.00409999862
v -0.00249999762 -0.000407999381 0.00409999862
v -0.00259813666 -0.00041185692 0.00409999862
v -0.00269636512 -0.000423518941 0.00409999862
v -0.00279450417 -0.000443125144 0.00409999862
v -0.00289230049 -0.000470815226 0.00409999862
v -0.00298953056 -0.000506727025 0.00409999862
v -0.00308600068 -0.000551000237 0.00409999862
v -0.00318145752 -0.0006037727 0.00409999862
v -0.00327570736 -0.000665185973 0.00409999862
v -0.00336849689 -0.00073537603 0.00409999862
v -0.0034596324 -0.00081448257 0.00409999862
v -0.00354887545 -0.000902643427 0.00409999862
v -0.00363600254 -0.00100000016 0.00409999862
v -0.00363600254 -0.000223999843 0.00409999862
v -0.0035636574 -0.000145494938 0.00409999862
v -0.0034865886 -7.39637762e-05 0.00409999862
v -0.00340475142 -9.37469304e-06 0.00409999862
v -0.00331807137 4.82965261e-05 0.00409999862
v -0.00322650373 9.90778208e-05 0.00409999862
v -0.00313000381 0.000143000856 0.00409999862
v -0.0030284971 0.000180087984 0.00409999862
v -0.002921924 0.000210370868 0.00409999862
v -0.00281025469 0.000233875588 0.00409999862
v -0.00269341469 0.000250630081 0.00409999862
v -0.00257134438 0.000260662287 0.00409999862
v -0.00244399905 0.000264000148 0.00409999862
v -0.00226540864 0.000256286934 0.00409999862
v -0.00209462643 0.000232962891 0.00409999862
v -0.00193312764 0.000193750486 0.00409999862
v -0.00178237259 0.00013837032 0.00409999862
v -0.0016438365 6.65467232e-05 0.00409999862
v -0.00151899457 -2.19997019e-05 0.00409999862
v -0.00140932202 -0.000127546489 0.00409999862
v -0.00131629407 -0.000250371173 0.00409999862
v -0.00124137104 -0.000390749425 0.00409999862
v -0.00118604302 -0.000548962504 0.00409999862
v -0.00115175545 -0.000725287944 0.00409999862
v -0.00113999844 -0.000919999555 0.00409999862
v -0.00113999844 -0.00276800059 0.00409999862
v -0.00113900006 -0.00280019082 0.00409999862
v -0.00113603473 -0.00282885134 0.00409999862
v -0.00113113225 -0.00285412557 0.00409999862
v -0.00112429261 -0.00287614763 0.00409999862
v -0.00111557543 -0.00289506093 0.00409999862
v -0.00110499561 -0.00291099958 0.00409999862
v -0.00109258294 -0.00292410702 0.00409999862
v -0.00107836723 -0.0029345192 0.00409999862
v -0.00106237829 -0.00294237584 0.00409999862
v -0.001044631 -0.00294781476 0.00409999862
v -0.00102515519 -0.00295097753 0.00409999862
v -0.00100399554 -0.00295200013 0.00409999862
v -0.000984534621 -0.00295051374 0.00409999862
v -0.000962257385 -0.0029461123 0.00409999862
v -0.000937372446 -0.00293887593 0.00409999862
v -0.000910073519 -0.00292888843 0.00409999862
v -0.000880554318 -0.00291623548 0.00409999862
v -0.000848993659 -0.0029010009 0.00409999862
v -0.000815615058 -0.00288326479 0.00409999862
v -0.000780597329 -0.00286311097 0.00409999862
v -0.000744119287 -0.00284062512 0.00409999862
v -0.000706404448 -0.00281588919 0.00409999862
v -0.000667631626 -0.00278898701 0.00409999862
v -0.000627994537 -0.00276000053 0.00409999862
v -0.000627994537 -0.00319200009 0.00409999862
v -0.00200207531 -0.00167612545 0.00409999862
v -0.00214725733 -0.00172900036 0.00409999862
v -0.00228600204 -0.0017833747 0.00409999862
v -0.00241674483 -0.00184000097 0.00409999862
v -0.00253792107 -0.00189962611 0.00409999862
v -0.00264799595 -0.00196300074 0.00409999862
v -0.00274540484 -0.00203087553 0.00409999862
v -0.00282859802 -0.00210399926 0.00409999862
v -0.00289599597 -0.00218312442 0.00409999862
v -0.00294607878 -0.00226899981 0.00409999862
v -0.00297726691 -0.00236237608 0.00409999862
v -0.00298799574 -0.00246400014 0.00409999862
v -0.002983585 -0.00253609754 0.00409999862
v -0.00297063589 -0.00260411203 0.00409999862
v -0.00294962525 -0.0026676245 0.00409999862
v -0.00292102993 -0.00272622332 0.00409999862
v -0.00288534164 -0.00277948566 0.00409999862
v -0.00284300745 -0.00282699987 0.00409999862
v -0.00279448926 -0.00286834687 0.00409999862
v -0.00274029374 -0.00290311128 0.00409999862
v -0.00268088281 -0.00293087587 0.00409999862
v -0.00261670351 -0.0029512234 0.00409999862
v -0.00254824758 -0.00296373665 0.00409999862
v -0.00247600675 -0.00296800025 0.00409999862
v -0.00242033601 -0.00296569057 0.00409999862
v -0.00236533582 -0.0029588528 0.00409999862
v -0.00231100619 -0.00294762477 0.00409999862
v -0.00225733221 -0.00293214805 0.00409999862
v -0.00220432878 -0.00291256048 0.00409999862
v -0.0021519959 -0.00288899988 0.00409999862
v -0.00210033357 -0.00286160596 0.00409999862
v -0.0020493269 -0.00283051841 0.00409999862
v -0.00199900568 -0.00279587507 0.00409999862
v -0.00194934011 -0.00275781564 0.00409999862
v -0.00190033019 -0.00271647796 0.00409999862
v -0.00185200572 -0.00267199986 0.00409999862
v -0.00185200572 -0.00162399933 0.00409999862
v -0.000706166029 -0.00324288383 0.00409999862
v -0.000706166029 -0.00324288383 0.00450000539
v -0.000777289271 -0.00328774191 0.00409999862
v -0.000777289271 -0.00328774191 0.00450000539
v -0.000842377543 -0.00332687609 0.00409999862
v -0.000842377543 -0.00332687609 0.00450000539
v -0.000902369618 -0.00336059369 0.00409999862
v -0.000902369618 -0.00336059369 0.00450000539
v -0.000958248973 -0.0033892002 0.00409999862
v -0.000958248973 -0.0033892002 0.00450000539
v -0.00101099908 -0.00341300108 0.00409999862
v -0.00101099908 -0.00341300108 0.00450000539
v -0.00106157362 -0.0034323018 0.00409999862
v -0.00106157362 -0.0034323018 0.00450000539
v -0.00111095607 -0.00344740786 0.00409999862
v -0.00111095607 -0.00344740786 0.00450000539
v -0.0011601299 -0.00345862471 0.00409999862
v -0.0011601299 -0.00345862471 0.00450000539
v -0.00121003389 -0.00346625969 0.00409999862
v -0.00121003389 -0.00346625969 0.00450000539
v -0.00126166642 -0.00347061642 0.00409999862
v -0.00126166642 -0.00347061642 0.00450000539
v -0.00131599605 -0.00347200036 0.00409999862
v -0.00131599605 -0.00347200036 0.00450000539
v -0.0013910234 -0.0034696497 0.00409999862
v -0.0013910234 -0.0034696497 0.00450000539
v -0.00146017969 -0.0034625195 0.00409999862
v -0.00146017969 -0.0034625195 0.00450000539
v -0.00152362883 -0.00345049985 0.00409999862
v -0.00152362883 -0.00345049985 0.00450000539
v -0.00158147514 -0.00343348272 0.00409999862
v -0.00158147514 -0.00343348272 0.00450000539
v -0.00163389742 -0.00341135263 0.00409999862
v -0.00163389742 -0.00341135263 0.00450000539
v -0.00168099999 -0.00338400155 0.00409999862
v -0.00168099999 -0.00338400155 0.00450000539
v -0.00172294676 -0.00335131586 0.00409999862
v -0.00172294676 -0.00335131586 0.00450000539
v -0.00175985694 -0.00331318565 0.00409999862
v -0.00175985694 -0.00331318565 0.00450000539
v -0.00179187953 -0.00326950103 0.00409999862
v -0.00179187953 -0.00326950103 0.00450000539
v -0.00181914866 -0.00322014838 0.00409999862
v -0.00181914866 -0.00322014838 0.00450000539
v -0.00184181333 -0.00316501968 0.00409999862
v -0.00184181333 -0.00316501968 0.00450000539
v -0.00186000764 -0.00310400128 0.00409999862
v -0.00186000764 -0.00310400128 0.00450000539
v -0.00193832815 -0.00316333771 0.00409999862
v -0.00193832815 -0.00316333771 0.00450000539
v -0.0020172596 -0.00321737118 0.00409999862
v -0.0020172596 -0.00321737118 0.00450000539
v -0.00209675729 -0.00326612592 0.00409999862
v -0.00209675729 -0.00326612592 0.00450000539
v -0.00217674673 -0.00330962986 0.00409999862
v -0.00217674673 -0.00330962986 0.00450000539
v -0.00225718319 -0.0033479128 0.00409999862
v -0.00225718319 -0.0033479128 0.00450000539
v -0.00233800709 -0.00338100083 0.00409999862
v -0.00233800709 -0.00338100083 0.00450000539
v -0.00241915882 -0.00340892188 0.00409999862
v -0.00241915882 -0.00340892188 0.00450000539
v -0.00250059366 -0.0034317039 0.00409999862
v -0.00250059366 -0.0034317039 0.00450000539
v -0.00258225203 -0.00344937481 0.00409999862
v -0.00258225203 -0.00344937481 0.00450000539
v -0.0026640743 -0.00346196443 0.00409999862
v -0.0026640743 -0.00346196443 0.00450000539
v -0.00274601579 -0.0034694951 0.00409999862
v -0.00274601579 -0.0034694951 0.00450000539
v -0.00282800198 -0.00347200036 0.00409999862
v -0.00282800198 -0.00347200036 0.00450000539
v -0.00295622647 -0.00346354581 0.00409999862
v -0.00295622647 -0.00346354581 0.00450000539
v -0.00307652354 -0.00343903713 0.00409999862
v -0.00307652354 -0.00343903713 0.00450000539
v -0.00318825245 -0.00339975022 0.00409999862
v -0.00318825245 -0.00339975022 0.00450000539
v -0.00329081714 -0.00334696285 0.00409999862
v -0.00329081714 -0.00334696285 0.00450000539
v -0.00338360667 -0.00328195468 0.00409999862
v -0.00338360667 -0.00328195468 0.00450000539
v -0.00346599519 -0.00320599973 0.00409999862
v -0.00346599519 -0.00320599973 0.00450000539
v -0.00353740156 -0.00312037952 0.00409999862
v -0.00353740156 -0.00312037952 0.00450000539
v -0.00359718502 -0.00302636996 0.00409999862
v -0.00359718502 -0.00302636996 0.00450000539
v -0.00364474952 -0.00292525068 0.00409999862
v -0.00364474952 -0.00292525068 0.00450000539
v -0.00367948413 -0.00281829573 0.00409999862
v -0.00367948413 -0.00281829573 0.00450000539
v -0.00370076299 -0.00270678662 0.00409999862
v -0.00370076299 -0.00270678662 0.00450000539
v -0.00370800495 -0.00259200111 0.00409999862
v -0.00370800495 -0.00259200111 0.00450000539
v -0.00369492173 -0.00242405199 0.00409999862
v -0.00369492173 -0.00242405199 0.00450000539
v -0.003657341 -0.0022750739 0.00409999862
v -0.003657341 -0.0022750739 0.00450000539
v -0.00359775126 -0.00214337558 0.00409999862
v -0.00359775126 -0.00214337558 0.00450000539
v -0.0035186708 -0.00202726014 0.00409999862
v -0.0035186708 -0.00202726014 0.00450000539
v -0.00342258811 -0.00192503259 0.00409999862
v -0.00342258811 -0.00192503259 0.00450000539
v -0.00331200659 -0.00183499977 0.00409999862
v -0.00331200659 -0.00183499977 0.00450000539
v -0.00318941474 -0.00175546855 0.00409999862
v -0.00318941474 -0.00175546855 0.00450000539
v -0.00305733085 -0.00168474019 0.00409999862
v -0.00305733085 -0.00168474019 0.00450000539
v -0.00291824341 -0.00162112527 0.00409999862
v -0.00291824341 -0.00162112527 0.00450000539
v -0.00277467072 -0.00156292692 0.00409999862
v -0.00277467072 -0.00156292692 0.00450000539
v -0.00262908638 -0.00150845014 0.00409999862
v -0.00262908638 -0.00150845014 0.00450000539
v -0.00248399377 -0.00145599991 0.00409999862
v -0.00248399377 -0.00145599991 0.00450000539
v -0.00185200572 -0.00123200007 0.00409999862
v -0.00185200572 -0.00123200007 0.00450000539
v -0.00185200572 -0.00104000047 0.00409999862
v -0.00185200572 -0.00104000047 0.00450000539
v -0.00185650587 -0.000933453441 0.00409999862
v -0.00185650587 -0.000933453441 0.00450000539
v -0.00187000632 -0.000837629661 0.00409999862
v -0.00187000632 -0.000837629661 0.00450000539
v -0.00189250708 -0.000752249733 0.00409999862
v -0.00189250708 -0.000752249733 0.00450000539
v -0.00192399323 -0.000677037984 0.00409999862
v -0.00192399323 -0.000677037984 0.00450000539
v -0.00196449459 -0.000611713156 0.00409999862
v -0.00196449459 -0.000611713156 0.00450000539
v -0.00201399624 -0.000555999577 0.00409999862
v -0.00201399624 -0.000555999577 0.00450000539
v -0.0020724982 -0.000509619713 0.00409999862
v -0.0020724982 -0.000509619713 0.00450000539
v -0.00214000046 -0.000472296029 0.00409999862
v -0.00214000046 -0.000472296029 0.00450000539
v -0.00221650302 -0.000443750992 0.00409999862
v -0.00221650302 -0.000443750992 0.00450000539
v -0.00230200589 -0.000423703343 0.00409999862
v -0.00230200589 -0.000423703343 0.00450000539
v -0.00239649415 -0.000411879271 0.00409999862
v -0.00239649415 -0.000411879271 0.00450000539
v -0.00249999762 -0.000407999381 0.00409999862
v -0.00249999762 -0.000407999381 0.00450000539
v -0.00259813666 -0.00041185692 0.00409999862
v -0.00259813666 -0.00041185692 0.00450000539
v -0.00269636512 -0.000423518941 0.00409999862
v -0.00269636512 -0.000423518941 0.00450000539
v -0.00279450417 -0.000443125144 0.00409999862
v -0.00279450417 -0.000443125144 0.00450000539
v -0.00289230049 -0.000470815226 0.00409999862
v -0.00289230049 -0.000470815226 0.00450000539
v -0.00298953056 -0.000506727025 0.00409999862
v -0.00298953056 -0.000506727025 0.00450000539
v -0.00308600068 -0.000551000237 0.00409999862
v -0.00308600068 -0.000551000237 0.00450000539
v -0.00318145752 -0.0006037727 0.00409999862
v -0.00318145752 -0.0006037727 0.00450000539
v -0.00327570736 -0.000665185973 0.00409999862
v -0.00327570736 -0.000665185973 0.00450000539
v -0.00336849689 -0.00073537603 0.00409999862
v -0.00336849689 -0.00073537603 0.00450000539
v -0.0034596324 -0.00081448257 0.00409999862
v -0.0034596324 -0.00081448257 0.00450000539
v -0.00354887545 -0.000902643427 0.00409999862
v -0.00354887545 -0.000902643427 0.00450000539
v -0.00363600254 -0.00100000016 0.00409999862
v -0.00363600254 -0.00100000016 0.00450000539
v -0.00363600254 -0.000223999843 0.00409999862
v -0.00363600254 -0.000223999843 0.00450000539
v -0.0035636574 -0.000145494938 0.00409999862
v -0.0035636574 -0.000145494938 0.00450000539
v -0.0034865886 -7.39637762e-05 0.00409999862
v -0.0034865886 -7.39637762e-05 0.00450000539
v -0.00340475142 -9.37469304e-06 0.00409999862
v -0.00340475142 -9.37469304e-06 0.00450000539
v -0.00331807137 4.82965261e-05 0.00409999862
v -0.00331807137 4.82965261e-05 0.00450000539
v -0.00322650373 9.90778208e-05 0.00409999862
v -0.00322650373 9.90778208e-05 0.00450000539
v -0.00313000381 0.000143000856 0.00409999862
v -0.00313000381 0.000143000856 0.00450000539
v -0.0030284971 0.000180087984 0.00409999862
v -0.0030284971 0.000180087984 0.00450000539
v -0.002921924 0.000210370868 0.00409999862
v -0.002921924 0.000210370868 0.00450000539
v -0.00281025469 0.000233875588 0.00409999862
v -0.00281025469 0.000233875588 0.00450000539
v -0.00269341469 0.000250630081 0.00409999862
v -0.00269341469 0.000250630081 0.00450000539
v -0.00257134438 0.000260662287 0.00409999862
v -0.00257134438 0.000260662287 0.00450000539
v -0.00244399905 0.000264000148 0.00409999862
v -0.00244399905 0.000264000148 0.00450000539
v -0.00226540864 0.000256286934 0.00409999862
v -0.00226540864 0.000256286934 0.00450000539
v -0.00209462643 0.000232962891 0.00409999862
v -0.00209462643 0.000232962891 0.00450000539
v -0.00193312764 0.000193750486 0.00409999862
v -0.00193312764 0.000193750486 0.00450000539
v -0.00178237259 0.00013837032 0.00409999862
v -0.00178237259 0.00013837032 0.00450000539
v -0.0016438365 6.65467232e-05 0.00409999862
v -0.0016438365 6.65467232e-05 0.00450000539
v -0.00151899457 -2.19997019e-05 0.00409999862
v -0.00151899457 -2.19997019e-05 0.00450000539
v -0.00140932202 -0.000127546489 0.00409999862
v -0.00140932202 -0.000127546489 0.00450000539
v -0.00131629407 -0.000250371173 0.00409999862
v -0.00131629407 -0.000250371173 0.00450000539
v -0.00124137104 -0.000390749425 0.00409999862
v -0.00124137104 -0.000390749425 0.00450000539
v -0.00118604302 -0.000548962504 0.00409999862
v -0.00118604302 -0.000548962504 0.00450000539
v -0.00115175545 -0.000725287944 0.00409999862
v -0.00115175545 -0.000725287944 0.00450000539
v -0.00113999844 -0.000919999555 0.00409999862
v -0.00113999844 -0.000919999555 0.00450000539
v -0.00113999844 -0.00276800059 0.00409999862
v -0.00113999844 -0.00276800059 0.00450000539
v -0.00113900006 -0.00280019082 0.00409999862
v -0.00113900006 -0.00280019082 0.00450000539
v -0.00113603473 -0.00282885134 0.00409999862
v -0.00113603473 -0.00282885134 0.00450000539
v -0.00113113225 -0.00285412557 0.00409999862
v -0.00113113225 -0.00285412557 0.00450000539
v -0.00112429261 -0.00287614763 0.00409999862
v -0.00112429261 -0.00287614763 0.00450000539
v -0.00111557543 -0.00289506093 0.00409999862
v -0.00111557543 -0.00289506093 0.00450000539
v -0.00110499561 -0.00291099958 0.00409999862
v -0.00110499561 -0.00291099958 0.00450000539
v -0.00109258294 -0.00292410702 0.00409999862
v -0.00109258294 -0.00292410702 0.00450000539
v -0.00107836723 -0.0029345192 0.00409999862
v -0.00107836723 -0.0029345192 0.00450000539
v -0.00106237829 -0.00294237584 0.00409999862
v -0.00106237829 -0.00294237584 0.00450000539
v -0.001044631 -0.00294781476 0.00409999862
v -0.001044631 -0.00294781476 0.00450000539
v -0.00102515519 -0.00295097753 0.00409999862
v -0.00102515519 -0.00295097753 0.00450000539
v -0.00100399554 -0.00295200013 0.00409999862
v -0.00100399554 -0.00295200013 0.00450000539
v -0.000984534621 -0.00295051374 0.00409999862
v -0.000984534621 -0.00295051374 0.00450000539
v -0.000962257385 -0.0029461123 0.00409999862
v -0.000962257385 -0.0029461123 0.00450000539
v -0.000937372446 -0.00293887593 0.00409999862
v -0.000937372446 -0.00293887593 0.00450000539
v -0.000910073519 -0.00292888843 0.00409999862
v -0.000910073519 -0.00292888843 0.00450000539
v -0.000880554318 -0.00291623548 0.00409999862
v -0.000880554318 -0.00291623548 0.00450000539
v -0.000848993659 -0.0029010009 0.00409999862
v -0.000848993659 -0.0029010009 0.00450000539
v -0.000815615058 -0.00288326479 0.00409999862
v -0.000815615058 -0.00288326479 0.00450000539
v -0.000780597329 -0.00286311097 0.00409999862
v -0.000780597329 -0.00286311097 0.00450000539
v -0.000744119287 -0.00284062512 0.00409999862
v -0.000744119287 -0.00284062512 0.00450000539
v -0.000706404448 -0.00281588919 0.00409999862
v -0.000706404448 -0.00281588919 0.00450000539
v -0.000667631626 -0.00278898701 0.00409999862
v -0.000667631626 -0.00278898701 0.00450000539
v -0.000627994537 -0.00276000053 0.00409999862
v -0.000627994537 -0.00276000053 0.00450000539
v -0.000627994537 -0.00319200009 0.00409999862
v -0.000627994537 -0.00319200009 0.00450000539
v -0.00200207531 -0.00167612545 0.00409999862
v -0.00200207531 -0.00167612545 0.00450000539
v -0.00214725733 -0.00172900036 0.00409999862
v -0.00214725733 -0.00172900036 0.00450000539
v -0.00228600204 -0.0017833747 0.00409999862
v -0.00228600204 -0.0017833747 0.00450000539
v -0.00241674483 -0.00184000097 0.00409999862
v -0.00241674483 -0.00184000097 0.00450000539
v -0.00253792107 -0.00189962611 0.00409999862
v -0.00253792107 -0.00189962611 0.00450000539
v -0.00264799595 -0.00196300074 0.00409999862
v -0.00264799595 -0.00196300074 0.00450000539
v -0.00274540484 -0.00203087553 0.00409999862
v -0.00274540484 -0.00203087553 0.00450000539
v -0.00282859802 -0.00210399926 0.00409999862
v -0.00282859802 -0.00210399926 0.00450000539
v -0.00289599597 -0.00218312442 0.00409999862
v -0.00289599597 -0.00218312442 0.00450000539
v -0.00294607878 -0.00226899981 0.00409999862
v -0.00294607878 -0.00226899981 0.00450000539
v -0.00297726691 -0.00236237608 0.00409999862
v -0.00297726691 -0.00236237608 0.00450000539
v -0.00298799574 -0.00246400014 0.00409999862
v -0.00298799574 -0.00246400014 0.00450000539
v -0.002983585 -0.00253609754 0.00409999862
v -0.002983585 -0.00253609754 0.00450000539
v -0.00297063589 -0.00260411203 0.00409999862
v -0.00297063589 -0.00260411203 0.00450000539
v -0.00294962525 -0.0026676245 0.00409999862
v -0.00294962525 -0.0026676245 0.00450000539
v -0.00292102993 -0.00272622332 0.00409999862
v -0.00292102993 -0.00272622332 0.00450000539
v -0.00288534164 -0.00277948566 0.00409999862
v -0.00288534164 -0.00277948566 0.00450000539
v -0.00284300745 -0.00282699987 0.00409999862
v -0.00284300745 -0.00282699987 0.00450000539
v -0.00279448926 -0.00286834687 0.00409999862
v -0.00279448926 -0.00286834687 0.00450000539
v -0.00274029374 -0.00290311128 0.00409999862
v -0.00274029374 -0.00290311128 0.00450000539
v -0.00268088281 -0.00293087587 0.00409999862
v -0.00268088281 -0.00293087587 0.00450000539
v -0.00261670351 -0.0029512234 0.00409999862
v -0.00261670351 -0.0029512234 0.00450000539
v -0.00254824758 -0.00296373665 0.00409999862
v -0.00254824758 -0.00296373665 0.00450000539
v -0.00247600675 -0.00296800025 0.00409999862
v -0.00247600675 -0.00296800025 0.00450000539
v -0.00242033601 -0.00296569057 0.00409999862
v -0.00242033601 -0.00296569057 0.00450000539
v -0.00236533582 -0.0029588528 0.00409999862
v -0.00236533582 -0.0029588528 0.00450000539
v -0.00231100619 -0.00294762477 0.00409999862
v -0.00231100619 -0.00294762477 0.00450000539
v -0.00225733221 -0.00293214805 0.00409999862
v -0.00225733221 -0.00293214805 0.00450000539
v -0.00220432878 -0.00291256048 0.00409999862
v -0.00220432878 -0.00291256048 0.00450000539
v -0.0021519959 -0.00288899988 0.00409999862
v -0.0021519959 -0.00288899988 0.00450000539
v -0.00210033357 -0.00286160596 0.00409999862
v -0.00210033357 -0.00286160596 0.00450000539
v -0.0020493269 -0.00283051841 0.00409999862
v -0.0020493269 -0.00283051841 0.00450000539
v -0.00199900568 -0.00279587507 0.00409999862
v -0.00199900568 -0.00279587507 0.00450000539
v -0.00194934011 -0.00275781564 0.00409999862
v -0.00194934011 -0.00275781564 0.00450000539
v -0.00190033019 -0.00271647796 0.00409999862
v -0.00190033019 -0.00271647796 0.00450000539
v -0.00185200572 -0.00267199986 0.00409999862
v -0.00185200572 -0.00267199986 0.00450000539
v -0.00185200572 -0.00162399933 0.00409999862
v -0.00185200572 -0.00162399933 0.00450000539
v 1.99973583e-05 -0.00339999981 0.00409999862
v 1.99973583e-05 -0.00339999981 0.00450000539
v 1.99973583e-05 0.00205600075 0.00409999862
v 1.99973583e-05 0.00205600075 0.00450000539
v 0.000732004642 0.00205600075 0.00409999862
v 0.000732004642 0.00205600075 0.00450000539
v 0.000732004642 -0.00339999981 0.00409999862
v 0.000732004642 -0.00339999981 0.00450000539
v 0.0037239939 0.000191999599 0.00409999862
v 0.0037239939 0.000191999599 0.00450000539
v 0.0037239939 -0.000447999686 0.00409999862
v 0.0037239939 -0.000447999686 0.00450000539
v 0.00258800387 -0.000447999686 0.00409999862
v 0.00258800387 -0.000447999686 0.00450000539
v 0.00258800387 -0.00228800066 0.00409999862
v 0.00258800387 -0.00228800066 0.00450000539
v 0.00259409845 -0.00238777325 0.00409999862
v 0.00259409845 -0.00238777325 0.00450000539
v 0.0026114881 -0.00247551873 0.00409999862
v 0.0026114881 -0.00247551873 0.00450000539
v 0.00263875723 -0.00255187601 0.00409999862
v 0.00263875723 -0.00255187601 0.00450000539
v 0.00267452002 -0.0026174821 0.00409999862
v 0.00267452002 -0.0026174821 0.00450000539
v 0.00271740556 -0.00267297775 0.00409999862
v 0.00271740556 -0.00267297775 0.00450000539
v 0.00276599824 -0.00271899998 0.00409999862
v 0.00276599824 -0.00271899998 0.00450000539
v 0.00281894207 -0.00275618955 0.00409999862
v 0.00281894207 -0.00275618955 0.00450000539
v 0.00287482142 -0.00278518535 0.00409999862
v 0.00287482142 -0.00278518535 0.00450000539
v 0.0029322505 -0.00280662626 0.00409999862
v 0.0029322505 -0.00280662626 0.00450000539
v 0.00298985839 -0.0028211493 0.00409999862
v 0.00298985839 -0.0028211493 0.00450000539
v 0.00304622948 -0.00282939337 0.00409999862
v 0.00304622948 -0.00282939337 0.00450000539
v 0.00309999287 -0.00283200108 0.00409999862
v 0.00309999287 -0.00283200108 0.00450000539
v 0.00316417217 -0.00283016637 0.00409999862
v 0.00316417217 -0.00283016637 0.00450000539
v 0.0032287389 -0.00282466784 0.00409999862
v 0.0032287389 -0.00282466784 0.00450000539
v 0.00329375267 -0.0028154999 0.00409999862
v 0.00329375267 -0.0028154999 0.00450000539
v 0.00335925817 -0.00280266628 0.00409999862
v 0.00335925817 -0.00280266628 0.00450000539
v 0.00342532992 -0.00278616697 0.00409999862
v 0.00342532992 -0.00278616697 0.00450000539
v 0.00349199772 -0.00276600011 0.00409999862
v 0.00349199772 -0.00276600011 0.00450000539
v 0.00355933607 -0.00274216756 0.00409999862
v 0.00355933607 -0.00274216756 0.00450000539
v 0.00362740457 -0.00271466747 0.00409999862
v 0.00362740457 -0.00271466747 0.00450000539
v 0.00369624794 -0.00268349983 0.00409999862
v 0.00369624794 -0.00268349983 0.00450000539
v 0.00376592577 -0.0026486665 0.00409999862
v 0.00376592577 -0.0026486665 0.00450000539
v 0.00383649766 -0.00261016749 0.00409999862
v 0.00383649766 -0.00261016749 0.00450000539
v 0.00390799344 -0.00256800093 0.00409999862
v 0.00390799344 -0.00256800093 0.00450000539
v 0.00390799344 -0.0032320004 0.00409999862
v 0.00390799344 -0.0032320004 0.00450000539
v 0.0038433373 -0.00326529145 0.00409999862
v 0.0038433373 -0.00326529145 0.00450000539
v 0.00377400219 -0.00329700112 0.00409999862
v 0.00377400219 -0.00329700112 0.00450000539
v 0.00370100141 -0.00332687423 0.00409999862
v 0.00370100141 -0.00332687423 0.00450000539
v 0.00362533331 -0.00335466675 0.00409999862
v 0.00362533331 -0.00335466675 0.00450000539
v 0.00354799628 -0.00338012539 0.00409999862
v 0.00354799628 -0.00338012539 0.00450000539
v 0.0034700036 -0.00340300053 0.00409999862
v 0.0034700036 -0.00340300053 0.00450000539
v 0.00339233875 -0.0034230426 0.00409999862
v 0.00339233875 -0.0034230426 0.00450000539
v 0.0033160001 -0.00344000012 0.00409999862
v 0.0033160001 -0.00344000012 0.00450000539
v 0.00324200094 -0.00345362537 0.00409999862
v 0.00324200094 -0.00345362537 0.00450000539
v 0.00317133963 -0.00346366689 0.00409999862
v 0.00317133963 -0.00346366689 0.00450000539
v 0.00310499966 -0.00346987508 0.00409999862
v 0.00310499966 -0.00346987508 0.00450000539
v 0.00304399431 -0.00347200036 0.00409999862
v 0.00304399431 -0.00347200036 0.00450000539
v 0.00285799801 -0.0034621805 0.00409999862
v 0.00285799801 -0.0034621805 0.00450000539
v 0.00268803537 -0.00343344547 0.00409999862
v 0.00268803537 -0.00343344547 0.00450000539
v 0.00253412127 -0.00338687561 0.00409999862
v 0.00253412127 -0.00338687561 0.00450000539
v 0.00239630044 -0.00332355499 0.00409999862
v 0.00239630044 -0.00332355499 0.00450000539
v 0.00227457285 -0.00324456953 0.00409999862
v 0.00227457285 -0.00324456953 0.00450000539
v 0.00216899812 -0.00315099955 0.00409999862
v 0.00216899812 -0.00315099955 0.00450000539
v 0.00207959116 -0.00304393098 0.00409999862
v 0.00207959116 -0.00304393098 0.00450000539
v 0.00200636685 -0.00292444415 0.00409999862
v 0.00200636685 -0.00292444415 0.00450000539
v 0.00194936991 -0.002793625 0.00409999862
v 0.00194936991 -0.002793625 0.00450000539
v 0.00190863013 -0.0026525557 0.00409999862
v 0.00190863013 -0.0026525557 0.00450000539
v 0.00188416243 -0.00250232033 0.00409999862
v 0.00188416243 -0.00250232033 0.00450000539
v 0.00187599659 -0.00234400108 0.00409999862
v 0.00187599659 -0.00234400108 0.00450000539
v 0.00187599659 -0.000447999686 0.00409999862
v 0.00187599659 -0.000447999686 0.00450000539
v 0.00125199556 -0.000447999686 0.00409999862
v 0.00125199556 -0.000447999686 0.00450000539
v 0.00125199556 -0.000368000939 0.00409999862
v 0.00125199556 -0.000368000939 0.00450000539
v 0.00258800387 0.000935999677 0.00409999862
v 0.00258800387 0.000935999677 0.00450000539
v 0.00258800387 0.000191999599 0.00409999862
v 0.00258800387 0.000191999599 0.00450000539
usemtl screen_white_text_003
f 208 210 209
f 208 153 210
f 208 154 153
f 207 154 208
f 206 154 207
f 205 155 206
f 155 154 206
f 205 156 155
f 205 157 156
f 204 157 205
f 204 158 157
f 204 159 158
f 203 159 204
f 203 160 159
f 179 181 180
f 178 181 179
f 203 161 160
f 177 181 178
f 202 161 203
f 202 162 161
f 176 181 177
f 175 181 176
f 202 163 162
f 174 181 175
f 202 164 163
f 173 181 174
f 202 165 164
f 172 181 173
f 201 165 202
f 171 181 172
f 201 166 165
f 170 181 171
f 201 167 166
f 169 181 170
f 201 168 167
f 168 181 169
f 201 181 168
f 200 181 201
f 199 181 200
f 198 181 199
f 198 182 181
f 197 182 198
f 197 183 182
f 197 184 183
f 196 184 197
f 196 185 184
f 196 186 185
f 196 187 186
f 195 187 196
f 195 188 187
f 195 189 188
f 194 189 195
f 194 190 189
f 194 191 190
f 193 191 194
f 193 192 191
f 211 213 212
f 211 214 213
f 312 314 313
f 311 314 312
f 311 315 314
f 310 315 311
f 309 315 310
f 309 316 315
f 308 316 309
f 308 317 316
f 307 317 308
f 306 317 307
f 306 318 317
f 305 318 306
f 305 319 318
f 304 319 305
f 303 319 304
f 303 320 319
f 302 320 303
f 302 321 320
f 301 321 302
f 300 299 301
f 299 298 301
f 298 297 301
f 297 296 301
f 296 295 301
f 295 294 301
f 294 293 301
f 293 292 301
f 292 291 301
f 291 290 301
f 290 321 301
f 290 289 321
f 289 288 321
f 288 322 321
f 288 287 322
f 287 323 322
f 286 323 287
f 285 323 286
f 284 323 285
f 283 323 284
f 282 323 283
f 282 324 323
f 281 324 282
f 280 324 281
f 279 324 280
f 279 325 324
f 278 325 279
f 277 325 278
f 277 326 325
f 276 326 277
f 275 326 276
f 274 388 275
f 388 326 275
f 273 388 274
f 272 388 273
f 271 388 272
f 270 388 271
f 270 352 388
f 387 326 388
f 270 353 352
f 269 353 270
f 269 354 353
f 268 354 269
f 268 355 354
f 267 355 268
f 267 356 355
f 267 357 356
f 266 357 267
f 266 358 357
f 265 358 266
f 265 359 358
f 265 360 359
f 264 360 265
f 264 361 360
f 264 362 361
f 263 362 264
f 263 363 362
f 262 363 263
f 262 364 363
f 262 365 364
f 261 365 262
f 261 366 365
f 261 367 366
f 386 326 387
f 260 367 261
f 385 326 386
f 260 368 367
f 384 326 385
f 349 351 350
f 384 327 326
f 260 369 368
f 348 351 349
f 383 327 384
f 383 328 327
f 347 351 348
f 259 369 260
f 259 370 369
f 383 329 328
f 382 329 383
f 346 351 347
f 382 330 329
f 381 330 382
f 345 351 346
f 259 371 370
f 381 331 330
f 344 351 345
f 380 331 381
f 380 332 331
f 343 351 344
f 259 372 371
f 380 333 332
f 379 333 380
f 342 351 343
f 379 334 333
f 258 372 259
f 341 351 342
f 258 373 372
f 378 334 379
f 378 335 334
f 340 351 341
f 378 336 335
f 339 351 340
f 377 336 378
f 377 337 336
f 338 351 339
f 377 338 337
f 258 374 373
f 377 351 338
f 376 351 377
f 258 375 374
f 375 351 376
f 258 238 375
f 238 351 375
f 257 238 258
f 257 239 238
f 237 351 238
f 256 239 257
f 256 240 239
f 236 351 237
f 236 215 351
f 255 240 256
f 255 241 240
f 235 215 236
f 235 216 215
f 255 242 241
f 234 216 235
f 254 242 255
f 234 217 216
f 254 243 242
f 233 217 234
f 233 218 217
f 253 243 254
f 253 244 243
f 232 218 233
f 232 219 218
f 253 245 244
f 231 219 232
f 231 220 219
f 252 245 253
f 252 246 245
f 230 220 231
f 230 221 220
f 252 247 246
f 230 222 221
f 229 222 230
f 251 247 252
f 229 223 222
f 251 248 247
f 228 223 229
f 228 224 223
f 251 249 248
f 227 224 228
f 250 249 251
f 227 225 224
f 226 225 227
f 444 445 446
f 444 446 389
f 444 389 390
f 443 444 390
f 442 443 390
f 441 442 391
f 391 442 390
f 441 391 392
f 441 392 393
f 440 441 393
f 440 393 394
f 440 394 395
f 439 440 395
f 439 395 396
f 415 416 417
f 414 415 417
f 439 396 397
f 413 414 417
f 438 439 397
f 438 397 398
f 412 413 417
f 411 412 417
f 438 398 399
f 410 411 417
f 438 399 400
f 409 410 417
f 438 400 401
f 408 409 417
f 437 438 401
f 407 408 417
f 437 401 402
f 406 407 417
f 437 402 403
f 405 406 417
f 437 403 404
f 404 405 417
f 437 404 417
f 436 437 417
f 435 436 417
f 434 435 417
f 434 417 418
f 433 434 418
f 433 418 419
f 433 419 420
f 432 433 420
f 432 420 421
f 432 421 422
f 432 422 423
f 431 432 423
f 431 423 424
f 431 424 425
f 430 431 425
f 430 425 426
f 430 426 427
f 429 430 427
f 429 427 428
f 447 448 449
f 447 449 450
f 548 549 550
f 547 548 550
f 547 550 551
f 546 547 551
f 545 546 551
f 545 551 552
f 544 545 552
f 544 552 553
f 543 544 553
f 542 543 553
f 542 553 554
f 541 542 554
f 541 554 555
f 540 541 555
f 539 540 555
f 539 555 556
f 538 539 556
f 538 556 557
f 537 538 557
f 536 537 535
f 535 537 534
f 534 537 533
f 533 537 532
f 532 537 531
f 531 537 530
f 530 537 529
f 529 537 528
f 528 537 527
f 527 537 526
f 526 537 557
f 526 557 525
f 525 557 524
f 524 557 558
f 524 558 523
f 523 558 559
f 522 523 559
f 521 522 559
f 520 521 559
f 519 520 559
f 518 519 559
f 518 559 560
f 517 518 560
f 516 517 560
f 515 516 560
f 515 560 561
f 514 515 561
f 513 514 561
f 513 561 562
f 512 513 562
f 511 512 562
f 510 511 624
f 624 511 562
f 509 510 624
f 508 509 624
f 507 508 624
f 506 507 624
f 506 624 588
f 623 624 562
f 506 588 589
f 505 506 589
f 505 589 590
f 504 505 590
f 504 590 591
f 503 504 591
f 503 591 592
f 503 592 593
f 502 503 593
f 502 593 594
f 501 502 594
f 501 594 595
f 501 595 596
f 500 501 596
f 500 596 597
f 500 597 598
f 499 500 598
f 499 598 599
f 498 499 599
f 498 599 600
f 498 600 601
f 497 498 601
f 497 601 602
f 497 602 603
f 622 623 562
f 496 497 603
f 621 622 562
f 496 603 604
f 620 621 562
f 585 586 587
f 620 562 563
f 496 604 605
f 584 585 587
f 619 620 563
f 619 563 564
f 583 584 587
f 495 496 605
f 495 605 606
f 619 564 565
f 618 619 565
f 582 583 587
f 618 565 566
f 617 618 566
f 581 582 587
f 495 606 607
f 617 566 567
f 580 581 587
f 616 617 567
f 616 567 568
f 579 580 587
f 495 607 608
f 616 568 569
f 615 616 569
f 578 579 587
f 615 569 570
f 494 495 608
f 577 578 587
f 494 608 609
f 614 615 570
f 614 570 571
f 576 577 587
f 614 571 572
f 575 576 587
f 613 614 572
f 613 572 573
f 574 575 587
f 613 573 574
f 494 609 610
f 613 574 587
f 612 613 587
f 494 610 611
f 611 612 587
f 494 611 474
f 474 611 587
f 493 494 474
f 493 474 475
f 473 474 587
f 492 493 475
f 492 475 476
f 472 473 587
f 472 587 451
f 491 492 476
f 491 476 477
f 471 472 451
f 471 451 452
f 491 477 478
f 470 471 452
f 490 491 478
f 470 452 453
f 490 478 479
f 469 470 453
f 469 453 454
f 489 490 479
f 489 479 480
f 468 469 454
f 468 454 455
f 489 480 481
f 467 468 455
f 467 455 456
f 488 489 481
f 488 481 482
f 466 467 456
f 466 456 457
f 488 482 483
f 466 457 458
f 465 466 458
f 487 488 483
f 465 458 459
f 487 483 484
f 464 465 459
f 464 459 460
f 487 484 485
f 463 464 460
f 486 487 485
f 463 460 461
f 462 463 461
f 626 628 627 625
f 628 630 629 627
f 630 632 631 629
f 632 634 633 631
f 634 636 635 633
f 636 638 637 635
f 638 640 639 637
f 640 642 641 639
f 642 644 643 641
f 644 646 645 643
f 646 648 647 645
f 648 650 649 647
f 650 652 651 649
f 652 654 653 651
f 654 656 655 653
f 656 658 657 655
f 658 660 659 657
f 660 662 661 659
f 662 664 663 661
f 664 666 665 663
f 666 668 667 665
f 668 670 669 667
f 670 672 671 669
f 672 674 673 671
f 674 676 675 673
f 676 678 677 675
f 678 680 679 677
f 680 682 681 679
f 682 684 683 681
f 684 686 685 683
f 686 688 687 685
f 688 690 689 687
f 690 692 691 689
f 692 694 693 691
f 694 696 695 693
f 696 698 697 695
f 698 700 699 697
f 700 702 701 699
f 702 704 703 701
f 704 706 705 703
f 706 708 707 705
f 708 710 709 707
f 710 712 711 709
f 712 714 713 711
f 714 716 715 713
f 716 718 717 715
f 718 720 719 717
f 720 722 721 719
f 722 724 723 721
f 724 726 725 723
f 726 728 727 725
f 728 730 729 727
f 730 732 731 729
f 732 734 733 731
f 734 736 735 733
f 736 738 737 735
f 738 740 739 737
f 740 742 741 739
f 742 744 743 741
f 744 746 745 743
f 746 748 747 745
f 748 750 749 747
f 750 752 751 749
f 752 754 753 751
f 754 756 755 753
f 756 758 757 755
f 758 760 759 757
f 760 762 761 759
f 762 764 763 761
f 764 766 765 763
f 766 768 767 765
f 768 770 769 767
f 770 772 771 769
f 772 774 773 771
f 774 776 775 773
f 776 778 777 775
f 778 780 779 777
f 780 782 781 779
f 782 784 783 781
f 784 786 785 783
f 786 788 787 785
f 788 790 789 787
f 790 792 791 789
f 792 794 793 791
f 794 796 795 793
f 796 798 797 795
f 798 800 799 797
f 800 802 801 799
f 802 804 803 801
f 804 806 805 803
f 806 808 807 805
f 808 810 809 807
f 810 812 811 809
f 812 814 813 811
f 814 816 815 813
f 816 818 817 815
f 818 820 819 817
f 820 822 821 819
f 822 824 823 821
f 824 826 825 823
f 826 828 827 825
f 828 830 829 827
f 830 832 831 829
f 832 834 833 831
f 834 836 835 833
f 836 838 837 835
f 838 840 839 837
f 840 842 841 839
f 842 844 843 841
f 844 846 845 843
f 846 848 847 845
f 848 850 849 847
f 850 852 851 849
f 852 854 853 851
f 854 856 855 853
f 856 858 857 855
f 858 860 859 857
f 860 862 861 859
f 862 864 863 861
f 864 866 865 863
f 866 868 867 865
f 868 870 869 867
f 870 872 871 869
f 872 874 873 871
f 874 876 875 873
f 876 878 877 875
f 878 880 879 877
f 880 882 881 879
f 882 884 883 881
f 884 886 885 883
f 886 888 887 885
f 888 890 889 887
f 890 892 891 889
f 892 894 893 891
f 894 896 895 893
f 896 898 897 895
f 898 626 625 897
f 900 902 901 899
f 902 904 903 901
f 904 906 905 903
f 906 908 907 905
f 908 910 909 907
f 910 912 911 909
f 912 914 913 911
f 914 916 915 913
f 916 918 917 915
f 918 920 919 917
f 920 922 921 919
f 922 924 923 921
f 924 926 925 923
f 926 928 927 925
f 928 930 929 927
f 930 932 931 929
f 932 934 933 931
f 934 936 935 933
f 936 938 937 935
f 938 940 939 937
f 940 942 941 939
f 942 944 943 941
f 944 946 945 943
f 946 948 947 945
f 948 950 949 947
f 950 952 951 949
f 952 954 953 951
f 954 956 955 953
f 956 958 957 955
f 958 960 959 957
f 960 962 961 959
f 962 964 963 961
f 964 966 965 963
f 966 968 967 965
f 968 970 969 967
f 970 972 971 969
f 972 900 899 971
f 974 976 975 973
f 976 978 977 975
f 978 980 979 977
f 980 974 973 979
f 982 984 983 981
f 984 986 985 983
f 986 988 987 985
f 988 990 989 987
f 990 992 991 989
f 992 994 993 991
f 994 996 995 993
f 996 998 997 995
f 998 1000 999 997
f 1000 1002 1001 999
f 1002 1004 1003 1001
f 1004 1006 1005 1003
f 1006 1008 1007 1005
f 1008 1010 1009 1007
f 1010 1012 1011 1009
f 1012 1014 1013 1011
f 1014 1016 1015 1013
f 1016 1018 1017 1015
f 1018 1020 1019 1017
f 1020 1022 1021 1019
f 1022 1024 1023 1021
f 1024 1026 1025 1023
f 1026 1028 1027 1025
f 1028 1030 1029 1027
f 1030 1032 1031 1029
f 1032 1034 1033 1031
f 1034 1036 1035 1033
f 1036 1038 1037 1035
f 1038 1040 1039 1037
f 1040 1042 1041 1039
f 1042 1044 1043 1041
f 1044 1046 1045 1043
f 1046 1048 1047 1045
f 1048 1050 1049 1047
f 1050 1052 1051 1049
f 1052 1054 1053 1051
f 1054 1056 1055 1053
f 1056 1058 1057 1055
f 1058 1060 1059 1057
f 1060 1062 1061 1059
f 1062 1064 1063 1061
f 1064 1066 1065 1063
f 1066 1068 1067 1065
f 1068 1070 1069 1067
f 1070 1072 1071 1069
f 1072 1074 1073 1071
f 1074 1076 1075 1073
f 1076 1078 1077 1075
f 1078 1080 1079 1077
f 1080 1082 1081 1079
f 1082 1084 1083 1081
f 1084 1086 1085 1083
f 1086 1088 1087 1085
f 1088 1090 1089 1087
f 1090 1092 1091 1089
f 1092 1094 1093 1091
f 1094 1096 1095 1093
f 1096 982 981 1095
