mtllib keyboard_key_1_13_del_link.mtl
o keyboard_key_1_13_del_link

g keyboard_key_1_13_del_SOLID
v -0.022300005 -0.0154999942 0
v -0.022300005 -0.0119999945 -0.00349999964
v -0.0257999897 -0.0119999945 0
v -0.022300005 -0.0152335763 -0.00133939087
v -0.022300005 -0.0144748688 -0.00247487426
v -0.0236393809 -0.0152335763 0
v -0.0236729681 -0.014912039 -0.00137295946
v -0.0236032903 -0.0142968893 -0.00229689106
v -0.0243207216 -0.0140207261 -0.00202072784
v -0.0236393809 -0.0119999945 -0.00323357806
v -0.0247748792 -0.0119999945 -0.00247487426
v -0.022300005 -0.0133393854 -0.00323357806
v -0.0236729681 -0.0133729577 -0.0029120408
v -0.0245968997 -0.0133032948 -0.00229689106
v -0.0255335867 -0.0133393854 0
v -0.0247748792 -0.0144748688 0
v -0.0255335867 -0.0119999945 -0.00133939087
v -0.0252120495 -0.0133729577 -0.00137295946
v -0.0245968997 -0.0142968893 -0.00130329654
v 0.022300005 -0.0154999942 0
v 0.0257999897 -0.0119999945 0
v 0.022300005 -0.0119999945 -0.00349999964
v 0.0236393809 -0.0152335763 0
v 0.0247748792 -0.0144748688 0
v 0.022300005 -0.0152335763 -0.00133939087
v 0.0236729681 -0.014912039 -0.00137295946
v 0.0245968997 -0.0142968893 -0.00130329654
v 0.0243207216 -0.0140207261 -0.00202072784
v 0.0255335867 -0.0119999945 -0.0013393946
v 0.0247748792 -0.0119999945 -0.00247487426
v 0.0255335867 -0.0133393854 0
v 0.0252120495 -0.0133729577 -0.00137295946
v 0.0245968997 -0.0133032948 -0.00229689106
v 0.022300005 -0.0133393854 -0.00323357806
v 0.022300005 -0.0144748688 -0.00247487426
v 0.0236393809 -0.0119999945 -0.00323357806
v 0.0236729681 -0.0133729577 -0.0029120408
v 0.0236032903 -0.0142968893 -0.00229689106
v 0.022300005 0.0154999942 0
v 0.022300005 0.0119999945 -0.00349999964
v 0.0257999897 0.0119999945 0
v 0.022300005 0.0152335763 -0.00133939087
v 0.022300005 0.0144748688 -0.00247487426
v 0.0236393809 0.0152335763 0
v 0.0236729681 0.014912039 -0.00137295946
v 0.0236032903 0.0142968893 -0.00229689106
v 0.0243207216 0.0140207261 -0.00202072784
v 0.0236393809 0.0119999945 -0.00323357806
v 0.0247748792 0.0119999945 -0.00247487426
v 0.022300005 0.0133393854 -0.00323357806
v 0.0236729681 0.0133729577 -0.0029120408
v 0.0245968997 0.0133032948 -0.00229689106
v 0.0255335867 0.0133393854 0
v 0.0247748792 0.0144748688 0
v 0.0255335867 0.0119999945 -0.00133939087
v 0.0252120495 0.0133729577 -0.00137295946
v 0.0245968997 0.0142968893 -0.00130329654
v -0.022300005 0.0154999942 0
v -0.0257999897 0.0119999945 0
v -0.022300005 0.0119999945 -0.00349999964
v -0.0236393809 0.0152335763 0
v -0.0247748792 0.0144748688 0
v -0.022300005 0.0152335763 -0.00133939087
v -0.0236729681 0.014912039 -0.00137295946
v -0.0245968997 0.0142968893 -0.00130329654
v -0.0243207216 0.0140207261 -0.00202072784
v -0.0255335867 0.0119999945 -0.0013393946
v -0.0247748792 0.0119999945 -0.00247487426
v -0.0255335867 0.0133393854 0
v -0.0252120495 0.0133729577 -0.00137295946
v -0.0245968997 0.0133032948 -0.00229689106
v -0.022300005 0.0133393854 -0.00323357806
v -0.022300005 0.0144748688 -0.00247487426
v -0.0236393809 0.0119999945 -0.00323357806
v -0.0236729681 0.0133729577 -0.0029120408
v -0.0236032903 0.0142968893 -0.00229689106
v -0.0257999897 -0.0119999945 0
v -0.022300005 -0.0119999945 0.00350000337
v -0.022300005 -0.0154999942 0
v -0.0255335867 -0.0119999945 0.0013393946
v -0.0247748792 -0.0119999945 0.00247487426
v -0.0255335867 -0.0133393854 0
v -0.0252120495 -0.0133729577 0.00137295946
v -0.0245968997 -0.0133032948 0.00229689106
v -0.0243207216 -0.0140207261 0.00202072784
v -0.022300005 -0.0133393854 0.00323357806
v -0.022300005 -0.0144748688 0.00247487426
v -0.0236393809 -0.0119999945 0.00323357806
v -0.0236729681 -0.0133729577 0.0029120408
v -0.0236032903 -0.0142968893 0.00229689106
v -0.0236393809 -0.0152335763 0
v -0.0247748792 -0.0144748688 0
v -0.022300005 -0.0152335763 0.00133939087
v -0.0236729681 -0.014912039 0.00137295946
v -0.0245968997 -0.0142968893 0.00130329654
v 0.022300005 -0.0154999942 0
v 0.022300005 -0.0119999945 0.00350000337
v 0.0257999897 -0.0119999945 0
v 0.022300005 -0.0152335763 0.00133939087
v 0.022300005 -0.0144748688 0.00247487426
v 0.0236393809 -0.0152335763 0
v 0.0236729681 -0.014912039 0.00137295946
v 0.0236032903 -0.0142968893 0.00229689106
v 0.0243207216 -0.0140207261 0.00202072784
v 0.0236393809 -0.0119999945 0.00323357806
v 0.0247748792 -0.0119999945 0.00247487426
v 0.022300005 -0.0133393854 0.00323357806
v 0.0236729681 -0.0133729577 0.0029120408
v 0.0245968997 -0.0133032948 0.00229689106
v 0.0255335867 -0.0133393854 0
v 0.0247748792 -0.0144748688 0
v 0.0255335867 -0.0119999945 0.00133939087
v 0.0252120495 -0.0133729577 0.00137295946
v 0.0245968997 -0.0142968893 0.00130329654
v 0.022300005 0.0119999945 0.00350000337
v 0.022300005 0.0154999942 0
v 0.0257999897 0.0119999945 0
v 0.022300005 0.0133393854 0.00323357806
v 0.022300005 0.0144748688 0.00247487426
v 0.0236393809 0.0119999945 0.00323357806
v 0.0236729681 0.0133729577 0.0029120408
v 0.0236032903 0.0142968893 0.00229689106
v 0.0243207216 0.0140207261 0.00202072784
v 0.0236393809 0.0152335763 0
v 0.0247748792 0.0144748688 0
v 0.022300005 0.0152335763 0.00133939087
v 0.0236729681 0.014912039 0.00137295946
v 0.0245968997 0.0142968893 0.00130329654
v 0.0255335867 0.0119999945 0.0013393946
v 0.0247748792 0.0119999945 0.00247487426
v 0.0255335867 0.0133393854 0
v 0.0252120495 0.0133729577 0.00137295946
v 0.0245968997 0.0133032948 0.00229689106
v -0.0257999897 0.0119999945 0
v -0.022300005 0.0154999942 0
v -0.022300005 0.0119999945 0.00350000337
v -0.0255335867 0.0133393854 0
v -0.0247748792 0.0144748688 0
v -0.0255335867 0.0119999945 0.00133939087
v -0.0252120495 0.0133729577 0.00137295946
v -0.0245968997 0.0142968893 0.00130329654
v -0.0243207216 0.0140207261 0.00202072784
v -0.022300005 0.0152335763 0.00133939087
v -0.022300005 0.0144748688 0.00247487426
v -0.0236393809 0.0152335763 0
v -0.0236729681 0.014912039 0.00137295946
v -0.0236032903 0.0142968893 0.00229689106
v -0.0236393809 0.0119999945 0.00323357806
v -0.0247748792 0.0119999945 0.00247487426
v -0.022300005 0.0133393854 0.00323357806
v -0.0236729681 0.0133729577 0.0029120408
v -0.0245968997 0.0133032948 0.00229689106
usemtl matte_black_keycaps_003
f 59 134 77 3
f 2 22 40 60
f 39 116 135 58
f 78 136 115 97
f 21 98 117 41
f 1 4 7 6
f 4 5 8 7
f 6 7 19 16
f 7 8 9 19
f 2 10 13 12
f 10 11 14 13
f 12 13 8 5
f 13 14 9 8
f 3 15 18 17
f 15 16 19 18
f 17 18 14 11
f 18 19 9 14
f 20 23 26 25
f 23 24 27 26
f 25 26 38 35
f 26 27 28 38
f 21 29 32 31
f 29 30 33 32
f 31 32 27 24
f 32 33 28 27
f 22 34 37 36
f 34 35 38 37
f 36 37 33 30
f 37 38 28 33
f 39 42 45 44
f 42 43 46 45
f 44 45 57 54
f 45 46 47 57
f 40 48 51 50
f 48 49 52 51
f 50 51 46 43
f 51 52 47 46
f 41 53 56 55
f 53 54 57 56
f 55 56 52 49
f 56 57 47 52
f 58 61 64 63
f 61 62 65 64
f 63 64 76 73
f 64 65 66 76
f 59 67 70 69
f 67 68 71 70
f 69 70 65 62
f 70 71 66 65
f 60 72 75 74
f 72 73 76 75
f 74 75 71 68
f 75 76 66 71
f 77 80 83 82
f 80 81 84 83
f 82 83 95 92
f 83 84 85 95
f 78 86 89 88
f 86 87 90 89
f 88 89 84 81
f 89 90 85 84
f 79 91 94 93
f 91 92 95 94
f 93 94 90 87
f 94 95 85 90
f 96 99 102 101
f 99 100 103 102
f 101 102 114 111
f 102 103 104 114
f 97 105 108 107
f 105 106 109 108
f 107 108 103 100
f 108 109 104 103
f 98 110 113 112
f 110 111 114 113
f 112 113 109 106
f 113 114 104 109
f 115 118 121 120
f 118 119 122 121
f 120 121 133 130
f 121 122 123 133
f 116 124 127 126
f 124 125 128 127
f 126 127 122 119
f 127 128 123 122
f 117 129 132 131
f 129 130 133 132
f 131 132 128 125
f 132 133 123 128
f 134 137 140 139
f 137 138 141 140
f 139 140 152 149
f 140 141 142 152
f 135 143 146 145
f 143 144 147 146
f 145 146 141 138
f 146 147 142 141
f 136 148 151 150
f 148 149 152 151
f 150 151 147 144
f 151 152 142 147
f 39 58 63 42
f 42 63 73 43
f 43 73 72 50
f 50 72 60 40
f 1 20 25 4
f 4 25 35 5
f 5 35 34 12
f 12 34 22 2
f 21 41 55 29
f 29 55 49 30
f 30 49 48 36
f 36 48 40 22
f 2 60 74 10
f 10 74 68 11
f 11 68 67 17
f 17 67 59 3
f 3 77 82 15
f 15 82 92 16
f 16 92 91 6
f 6 91 79 1
f 78 97 107 86
f 86 107 100 87
f 87 100 99 93
f 93 99 96 79
f 97 115 120 105
f 105 120 130 106
f 106 130 129 112
f 112 129 117 98
f 77 134 139 80
f 80 139 149 81
f 81 149 148 88
f 88 148 136 78
f 20 96 101 23
f 23 101 111 24
f 24 111 110 31
f 31 110 98 21
f 41 117 131 53
f 53 131 125 54
f 54 125 124 44
f 44 124 116 39
f 115 136 150 118
f 118 150 144 119
f 119 144 143 126
f 126 143 135 116
f 58 135 145 61
f 61 145 138 62
f 62 138 137 69
f 69 137 134 59
f 1 79 96 20

g key_legend_1_13_del
v 0.00214996934 -0.00310000777 0.00450000539
v 0.00214996934 0.00167399645 0.00450000539
v 0.00277298689 0.00167399645 0.00450000539
v 0.00277298689 -0.00310000777 0.00450000539
v 0.0013140738 -0.00285224617 0.00450000539
v 0.00122085214 -0.00290697813 0.00450000539
v 0.00112754107 -0.00295628607 0.00450000539
v 0.00103336573 -0.00300018489 0.00450000539
v 0.000937521458 -0.0030387491 0.00450000539
v 0.000839233398 -0.00307200849 0.00450000539
v 0.000737756491 -0.00310000777 0.00450000539
v 0.000632286072 -0.00312282145 0.00450000539
v 0.000522047281 -0.00314046443 0.00450000539
v 0.000406265259 -0.0031530261 0.00450000539
v 0.000284165144 -0.00316052139 0.00450000539
v 0.000154972076 -0.00316299498 0.00450000539
v -8.09133053e-05 -0.00314666331 0.00450000539
v -0.000298321247 -0.00309935212 0.00450000539
v -0.000496894121 -0.00302365422 0.00450000539
v -0.000676214695 -0.00292214751 0.00450000539
v -0.000835865736 -0.00279740989 0.00450000539
v -0.000975519419 -0.00265200436 0.00450000539
v -0.00109475851 -0.00248850882 0.00450000539
v -0.00119316578 -0.00230951607 0.00450000539
v -0.0012703836 -0.00211758912 0.00450000539
v -0.00132602453 -0.00191532075 0.00450000539
v -0.00135970116 -0.00170525908 0.00450000539
v -0.00137102604 -0.00148999691 0.00450000539
v -0.00135865808 -0.00125861168 0.00450000539
v -0.00132241845 -0.00104121864 0.00450000539
v -0.00126338005 -0.00083899498 0.00450000539
v -0.00118279457 -0.000653117895 0.00450000539
v -0.0010817945 -0.000484719872 0.00450000539
v -0.000961512327 -0.000335007906 0.00450000539
v -0.000823169947 -0.000205114484 0.00450000539
v -0.000667899847 -9.62167978e-05 0.00450000539
v -0.000496894121 -9.50694084e-06 0.00450000539
v -0.000311285257 5.38825989e-05 0.00450000539
v -0.000112295151 9.27746296e-05 0.00450000539
v 9.89735126e-05 0.00010599196 0.00450000539
v 0.000300824642 9.41753387e-05 0.00450000539
v 0.000489324331 5.86211681e-05 0.00450000539
v 0.00066369772 -7.4505806e-07 0.00450000539
v 0.00082308054 -8.40425491e-05 0.00450000539
v 0.000966757536 -0.000191345811 0.00450000539
v 0.00109386444 -0.000322759151 0.00450000539
v 0.00120359659 -0.000478371978 0.00450000539
v 0.00129520893 -0.000658303499 0.00450000539
v 0.00136783719 -0.000862628222 0.00450000539
v 0.00142070651 -0.00109145045 0.00450000539
v 0.00145304203 -0.0013448745 0.00450000539
v 0.00146397948 -0.00162300467 0.00450000539
v -0.00074800849 -0.00162300467 0.00450000539
v -0.00071811676 -0.00177246332 0.00450000539
v -0.000677496195 -0.00190931559 0.00450000539
v -0.000626176596 -0.00203348696 0.00450000539
v -0.000564187765 -0.00214488804 0.00450000539
v -0.00049161911 -0.00224345922 0.00450000539
v -0.000408530235 -0.002329126 0.00450000539
v -0.000314891338 -0.00240181386 0.00450000539
v -0.000210821629 -0.00246144831 0.00450000539
v -9.63509083e-05 -0.00250795484 0.00450000539
v 2.84612179e-05 -0.00254125893 0.00450000539
v 0.000163584948 -0.00256130099 0.00450000539
v 0.000308990479 -0.00256800652 0.00450000539
v 0.00040307641 -0.00256511569 0.00450000539
v 0.000496357679 -0.00255653262 0.00450000539
v 0.000588983297 -0.00254240632 0.00450000539
v 0.000681012869 -0.0025228858 0.00450000539
v 0.000772565603 -0.00249812007 0.00450000539
v 0.000863730907 -0.00246825814 0.00450000539
v 0.000954598188 -0.00243341923 0.00450000539
v 0.00104528666 -0.00239378214 0.00450000539
v 0.00113585591 -0.00234946609 0.00450000539
v 0.00122642517 -0.00230063498 0.00450000539
v 0.00131711364 -0.00224743783 0.00450000539
v 0.00140798092 -0.00219000876 0.00450000539
v 0.00140798092 -0.00279200077 0.00450000539
v 0.000837534666 -0.00109471381 0.00450000539
v 0.000816881657 -0.000987172127 0.00450000539
v 0.000786304474 -0.000887781382 0.00450000539
v 0.000746101141 -0.000797003508 0.00450000539
v 0.000696569681 -0.000715255737 0.00450000539
v 0.000637978315 -0.000643000007 0.00450000539
v 0.000570654869 -0.000580653548 0.00450000539
v 0.000494867563 -0.000528663397 0.00450000539
v 0.000410914421 -0.000487476587 0.00450000539
v 0.000319093466 -0.000457495451 0.00450000539
v 0.000219672918 -0.000439196825 0.00450000539
v 0.000112980604 -0.000432997942 0.00450000539
v -2.05636024e-06 -0.000438794494 0.00450000539
v -0.000109195709 -0.000456050038 0.00450000539
v -0.000208348036 -0.000484511256 0.00450000539
v -0.000299483538 -0.000523999333 0.00450000539
v -0.000382572412 -0.000574275851 0.00450000539
v -0.000457525253 -0.000635132194 0.00450000539
v -0.000524312258 -0.000706329942 0.00450000539
v -0.000582873821 -0.000787675381 0.00450000539
v -0.000633180141 -0.000878930092 0.00450000539
v -0.000675171614 -0.000979870558 0.00450000539
v -0.000708788633 -0.00109030306 0.00450000539
v -0.0007340312 -0.00121000409 0.00450000539
v 0.000847995281 -0.00121000409 0.00450000539
v -0.00339400768 -0.00310000777 0.00450000539
v -0.00362110138 -0.00308687985 0.00450000539
v -0.00383275747 -0.00304815173 0.00450000539
v -0.0040281713 -0.00298471749 0.00450000539
v -0.0042065382 -0.00289751589 0.00450000539
v -0.00436702371 -0.00278747082 0.00450000539
v -0.00450876355 -0.00265550613 0.00450000539
v -0.00463098288 -0.00250253081 0.00450000539
v -0.00473281741 -0.00232948363 0.00450000539
v -0.0048134923 -0.00213728845 0.00450000539
v -0.00487211347 -0.00192685425 0.00450000539
v -0.00490790606 -0.00169911981 0.00450000539
v -0.0049200058 -0.00145500898 0.00450000539
v -0.00490668416 -0.00123313069 0.00450000539
v -0.00486755371 -0.00102339685 0.00450000539
v -0.00480395555 -0.00082719326 0.00450000539
v -0.0047172904 -0.00064586103 0.00450000539
v -0.00460880995 -0.000480756164 0.00450000539
v -0.0044798851 -0.000333249569 0.00450000539
v -0.00433188677 -0.000204712152 0.00450000539
v -0.00416609645 -9.64850187e-05 0.00450000539
v -0.00398388505 -9.93907452e-06 0.00450000539
v -0.00378656387 5.35696745e-05 0.00450000539
v -0.00357550383 9.26554203e-05 0.00450000539
v -0.00335201621 0.00010599196 0.00450000539
v -0.00329977274 0.000105261803 0.00450000539
v -0.00324785709 0.000102981925 0.00450000539
v -0.00319606066 9.91076231e-05 0.00450000539
v -0.00314408541 9.354949e-05 0.00450000539
v -0.00309175253 8.6247921e-05 0.00450000539
v -0.003038764 7.71284103e-05 0.00450000539
v -0.0029849112 6.61015511e-05 0.00450000539
v -0.00292995572 5.31077385e-05 0.00450000539
v -0.00287359953 3.80724669e-05 0.00450000539
v -0.00281566381 2.09212303e-05 0.00450000539
v -0.00275588036 1.59442425e-06 0.00450000539
v -0.00269401073 -1.99973583e-05 0.00450000539
v -0.00269401073 0.00167399645 0.00450000539
v -0.00207102299 0.00167399645 0.00450000539
v -0.00207102299 -0.00310000777 0.00450000539
v -0.00274553895 -0.000553011894 0.00450000539
v -0.00279539824 -0.000535026193 0.00450000539
v -0.00284385681 -0.000518977642 0.00450000539
v -0.00289130211 -0.000504821539 0.00450000539
v -0.00293809175 -0.00049251318 0.00450000539
v -0.00298452377 -0.000482007861 0.00450000539
v -0.00303095579 -0.000473245978 0.00450000539
v -0.00307771564 -0.000466182828 0.00450000539
v -0.00312516093 -0.000460788608 0.00450000539
v -0.00317364931 -0.000456988811 0.00450000539
v -0.00322347879 -0.000454738736 0.00450000539
v -0.00327500701 -0.000454008579 0.00450000539
v -0.00342130661 -0.000462919474 0.00450000539
v -0.00355872512 -0.000489190221 0.00450000539
v -0.00368648767 -0.000532090664 0.00450000539
v -0.00380390882 -0.000590890646 0.00450000539
v -0.00391024351 -0.00066486001 0.00450000539
v -0.00400477648 -0.000753253698 0.00450000539
v -0.00408676267 -0.000855356455 0.00450000539
v -0.00415545702 -0.000970453024 0.00450000539
v -0.00421017408 -0.00109778345 0.00450000539
v -0.0042501688 -0.00123664737 0.00450000539
v -0.00427466631 -0.00138628483 0.00450000539
v -0.00428301096 -0.00154599547 0.00450000539
v -0.00427791476 -0.00168976188 0.00450000539
v -0.00426205993 -0.00182639062 0.00450000539
v -0.00423455238 -0.00195483863 0.00450000539
v -0.00419461727 -0.00207410753 0.00450000539
v -0.00414133072 -0.00218316913 0.00450000539
v -0.00407388806 -0.00228099525 0.00450000539
v -0.00399142504 -0.00236658752 0.00450000539
v -0.00389307737 -0.00243888795 0.00450000539
v -0.00377804041 -0.00249691308 0.00450000539
v -0.00364539027 -0.0025396198 0.00450000539
v -0.0034943521 -0.00256597996 0.00450000539
v -0.00332403183 -0.00257499516 0.00450000539
v -0.00269401073 -0.00257499516 0.00450000539
v -0.00269401073 -0.000573009253 0.00450000539
v 0.00214996934 -0.00310000777 0.00409999862
v 0.00214996934 0.00167399645 0.00409999862
v 0.00277298689 0.00167399645 0.00409999862
v 0.00277298689 -0.00310000777 0.00409999862
v 0.0013140738 -0.00285224617 0.00409999862
v 0.00122085214 -0.00290697813 0.00409999862
v 0.00112754107 -0.00295628607 0.00409999862
v 0.00103336573 -0.00300018489 0.00409999862
v 0.000937521458 -0.0030387491 0.00409999862
v 0.000839233398 -0.00307200849 0.00409999862
v 0.000737756491 -0.00310000777 0.00409999862
v 0.000632286072 -0.00312282145 0.00409999862
v 0.000522047281 -0.00314046443 0.00409999862
v 0.000406265259 -0.0031530261 0.00409999862
v 0.000284165144 -0.00316052139 0.00409999862
v 0.000154972076 -0.00316299498 0.00409999862
v -8.09133053e-05 -0.00314666331 0.00409999862
v -0.000298321247 -0.00309935212 0.00409999862
v -0.000496894121 -0.00302365422 0.00409999862
v -0.000676214695 -0.00292214751 0.00409999862
v -0.000835865736 -0.00279740989 0.00409999862
v -0.000975519419 -0.00265200436 0.00409999862
v -0.00109475851 -0.00248850882 0.00409999862
v -0.00119316578 -0.00230951607 0.00409999862
v -0.0012703836 -0.00211758912 0.00409999862
v -0.00132602453 -0.00191532075 0.00409999862
v -0.00135970116 -0.00170525908 0.00409999862
v -0.00137102604 -0.00148999691 0.00409999862
v -0.00135865808 -0.00125861168 0.00409999862
v -0.00132241845 -0.00104121864 0.00409999862
v -0.00126338005 -0.00083899498 0.00409999862
v -0.00118279457 -0.000653117895 0.00409999862
v -0.0010817945 -0.000484719872 0.00409999862
v -0.000961512327 -0.000335007906 0.00409999862
v -0.000823169947 -0.000205114484 0.00409999862
v -0.000667899847 -9.62167978e-05 0.00409999862
v -0.000496894121 -9.50694084e-06 0.00409999862
v -0.000311285257 5.38825989e-05 0.00409999862
v -0.000112295151 9.27746296e-05 0.00409999862
v 9.89735126e-05 0.00010599196 0.00409999862
v 0.000300824642 9.41753387e-05 0.00409999862
v 0.000489324331 5.86211681e-05 0.00409999862
v 0.00066369772 -7.4505806e-07 0.00409999862
v 0.00082308054 -8.40425491e-05 0.00409999862
v 0.000966757536 -0.000191345811 0.00409999862
v 0.00109386444 -0.000322759151 0.00409999862
v 0.00120359659 -0.000478371978 0.00409999862
v 0.00129520893 -0.000658303499 0.00409999862
v 0.00136783719 -0.000862628222 0.00409999862
v 0.00142070651 -0.00109145045 0.00409999862
v 0.00145304203 -0.0013448745 0.00409999862
v 0.00146397948 -0.00162300467 0.00409999862
v -0.00074800849 -0.00162300467 0.00409999862
v -0.00071811676 -0.00177246332 0.00409999862
v -0.000677496195 -0.00190931559 0.00409999862
v -0.000626176596 -0.00203348696 0.00409999862
v -0.000564187765 -0.00214488804 0.00409999862
v -0.00049161911 -0.00224345922 0.00409999862
v -0.000408530235 -0.002329126 0.00409999862
v -0.000314891338 -0.00240181386 0.00409999862
v -0.000210821629 -0.00246144831 0.00409999862
v -9.63509083e-05 -0.00250795484 0.00409999862
v 2.84612179e-05 -0.00254125893 0.00409999862
v 0.000163584948 -0.00256130099 0.00409999862
v 0.000308990479 -0.00256800652 0.00409999862
v 0.00040307641 -0.00256511569 0.00409999862
v 0.000496357679 -0.00255653262 0.00409999862
v 0.000588983297 -0.00254240632 0.00409999862
v 0.000681012869 -0.0025228858 0.00409999862
v 0.000772565603 -0.00249812007 0.00409999862
v 0.000863730907 -0.00246825814 0.00409999862
v 0.000954598188 -0.00243341923 0.00409999862
v 0.00104528666 -0.00239378214 0.00409999862
v 0.00113585591 -0.00234946609 0.00409999862
v 0.00122642517 -0.00230063498 0.00409999862
v 0.00131711364 -0.00224743783 0.00409999862
v 0.00140798092 -0.00219000876 0.00409999862
v 0.00140798092 -0.00279200077 0.00409999862
v 0.000837534666 -0.00109471381 0.00409999862
v 0.000816881657 -0.000987172127 0.00409999862
v 0.000786304474 -0.000887781382 0.00409999862
v 0.000746101141 -0.000797003508 0.00409999862
v 0.000696569681 -0.000715255737 0.00409999862
v 0.000637978315 -0.000643000007 0.00409999862
v 0.000570654869 -0.000580653548 0.00409999862
v 0.000494867563 -0.000528663397 0.00409999862
v 0.000410914421 -0.000487476587 0.00409999862
v 0.000319093466 -0.000457495451 0.00409999862
v 0.000219672918 -0.000439196825 0.00409999862
v 0.000112980604 -0.000432997942 0.00409999862
v -2.05636024e-06 -0.000438794494 0.00409999862
v -0.000109195709 -0.000456050038 0.00409999862
v -0.000208348036 -0.000484511256 0.00409999862
v -0.000299483538 -0.000523999333 0.00409999862
v -0.000382572412 -0.000574275851 0.00409999862
v -0.000457525253 -0.000635132194 0.00409999862
v -0.000524312258 -0.000706329942 0.00409999862
v -0.000582873821 -0.000787675381 0.00409999862
v -0.000633180141 -0.000878930092 0.00409999862
v -0.000675171614 -0.000979870558 0.00409999862
v -0.000708788633 -0.00109030306 0.00409999862
v -0.0007340312 -0.00121000409 0.00409999862
v 0.000847995281 -0.00121000409 0.00409999862
v -0.00339400768 -0.00310000777 0.00409999862
v -0.00362110138 -0.00308687985 0.00409999862
v -0.00383275747 -0.00304815173 0.00409999862
v -0.0040281713 -0.00298471749 0.00409999862
v -0.0042065382 -0.00289751589 0.00409999862
v -0.00436702371 -0.00278747082 0.00409999862
v -0.00450876355 -0.00265550613 0.00409999862
v -0.00463098288 -0.00250253081 0.00409999862
v -0.00473281741 -0.00232948363 0.00409999862
v -0.0048134923 -0.00213728845 0.00409999862
v -0.00487211347 -0.00192685425 0.00409999862
v -0.00490790606 -0.00169911981 0.00409999862
v -0.0049200058 -0.00145500898 0.00409999862
v -0.00490668416 -0.00123313069 0.00409999862
v -0.00486755371 -0.00102339685 0.00409999862
v -0.00480395555 -0.00082719326 0.00409999862
v -0.0047172904 -0.00064586103 0.00409999862
v -0.00460880995 -0.000480756164 0.00409999862
v -0.0044798851 -0.000333249569 0.00409999862
v -0.00433188677 -0.000204712152 0.00409999862
v -0.00416609645 -9.64850187e-05 0.00409999862
v -0.00398388505 -9.93907452e-06 0.00409999862
v -0.00378656387 5.35696745e-05 0.00409999862
v -0.00357550383 9.26554203e-05 0.00409999862
v -0.00335201621 0.00010599196 0.00409999862
v -0.00329977274 0.000105261803 0.00409999862
v -0.00324785709 0.000102981925 0.00409999862
v -0.00319606066 9.91076231e-05 0.00409999862
v -0.00314408541 9.354949e-05 0.00409999862
v -0.00309175253 8.6247921e-05 0.00409999862
v -0.003038764 7.71284103e-05 0.00409999862
v -0.0029849112 6.61015511e-05 0.00409999862
v -0.00292995572 5.31077385e-05 0.00409999862
v -0.00287359953 3.80724669e-05 0.00409999862
v -0.00281566381 2.09212303e-05 0.00409999862
v -0.00275588036 1.59442425e-06 0.00409999862
v -0.00269401073 -1.99973583e-05 0.00409999862
v -0.00269401073 0.00167399645 0.00409999862
v -0.00207102299 0.00167399645 0.00409999862
v -0.00207102299 -0.00310000777 0.00409999862
v -0.00274553895 -0.000553011894 0.00409999862
v -0.00279539824 -0.000535026193 0.00409999862
v -0.00284385681 -0.000518977642 0.00409999862
v -0.00289130211 -0.000504821539 0.00409999862
v -0.00293809175 -0.00049251318 0.00409999862
v -0.00298452377 -0.000482007861 0.00409999862
v -0.00303095579 -0.000473245978 0.00409999862
v -0.00307771564 -0.000466182828 0.00409999862
v -0.00312516093 -0.000460788608 0.00409999862
v -0.00317364931 -0.000456988811 0.00409999862
v -0.00322347879 -0.000454738736 0.00409999862
v -0.00327500701 -0.000454008579 0.00409999862
v -0.00342130661 -0.000462919474 0.00409999862
v -0.00355872512 -0.000489190221 0.00409999862
v -0.00368648767 -0.000532090664 0.00409999862
v -0.00380390882 -0.000590890646 0.00409999862
v -0.00391024351 -0.00066486001 0.00409999862
v -0.00400477648 -0.000753253698 0.00409999862
v -0.00408676267 -0.000855356455 0.00409999862
v -0.00415545702 -0.000970453024 0.00409999862
v -0.00421017408 -0.00109778345 0.00409999862
v -0.0042501688 -0.00123664737 0.00409999862
v -0.00427466631 -0.00138628483 0.00409999862
v -0.00428301096 -0.00154599547 0.00409999862
v -0.00427791476 -0.00168976188 0.00409999862
v -0.00426205993 -0.00182639062 0.00409999862
v -0.00423455238 -0.00195483863 0.00409999862
v -0.00419461727 -0.00207410753 0.00409999862
v -0.00414133072 -0.00218316913 0.00409999862
v -0.00407388806 -0.00228099525 0.00409999862
v -0.00399142504 -0.00236658752 0.00409999862
v -0.00389307737 -0.00243888795 0.00409999862
v -0.00377804041 -0.00249691308 0.00409999862
v -0.00364539027 -0.0025396198 0.00409999862
v -0.0034943521 -0.00256597996 0.00409999862
v -0.00332403183 -0.00257499516 0.00409999862
v -0.00269401073 -0.00257499516 0.00409999862
v -0.00269401073 -0.000573009253 0.00409999862
v -0.00339400768 -0.00310000777 0.00409999862
v -0.00339400768 -0.00310000777 0.00450000539
v -0.00362110138 -0.00308687985 0.00409999862
v -0.00362110138 -0.00308687985 0.00450000539
v -0.00383275747 -0.00304815173 0.00409999862
v -0.00383275747 -0.00304815173 0.00450000539
v -0.0040281713 -0.00298471749 0.00409999862
v -0.0040281713 -0.00298471749 0.00450000539
v -0.0042065382 -0.00289751589 0.00409999862
v -0.0042065382 -0.00289751589 0.00450000539
v -0.00436702371 -0.00278747082 0.00409999862
v -0.00436702371 -0.00278747082 0.00450000539
v -0.00450876355 -0.00265550613 0.00409999862
v -0.00450876355 -0.00265550613 0.00450000539
v -0.00463098288 -0.00250253081 0.00409999862
v -0.00463098288 -0.00250253081 0.00450000539
v -0.00473281741 -0.00232948363 0.00409999862
v -0.00473281741 -0.00232948363 0.00450000539
v -0.0048134923 -0.00213728845 0.00409999862
v -0.0048134923 -0.00213728845 0.00450000539
v -0.00487211347 -0.00192685425 0.00409999862
v -0.00487211347 -0.00192685425 0.00450000539
v -0.00490790606 -0.00169911981 0.00409999862
v -0.00490790606 -0.00169911981 0.00450000539
v -0.0049200058 -0.00145500898 0.00409999862
v -0.0049200058 -0.00145500898 0.00450000539
v -0.00490668416 -0.00123313069 0.00409999862
v -0.00490668416 -0.00123313069 0.00450000539
v -0.00486755371 -0.00102339685 0.00409999862
v -0.00486755371 -0.00102339685 0.00450000539
v -0.00480395555 -0.00082719326 0.00409999862
v -0.00480395555 -0.00082719326 0.00450000539
v -0.0047172904 -0.00064586103 0.00409999862
v -0.0047172904 -0.00064586103 0.00450000539
v -0.00460880995 -0.000480756164 0.00409999862
v -0.00460880995 -0.000480756164 0.00450000539
v -0.0044798851 -0.000333249569 0.00409999862
v -0.0044798851 -0.000333249569 0.00450000539
v -0.00433188677 -0.000204712152 0.00409999862
v -0.00433188677 -0.000204712152 0.00450000539
v -0.00416609645 -9.64850187e-05 0.00409999862
v -0.00416609645 -9.64850187e-05 0.00450000539
v -0.00398388505 -9.93907452e-06 0.00409999862
v -0.00398388505 -9.93907452e-06 0.00450000539
v -0.00378656387 5.35696745e-05 0.00409999862
v -0.00378656387 5.35696745e-05 0.00450000539
v -0.00357550383 9.26554203e-05 0.00409999862
v -0.00357550383 9.26554203e-05 0.00450000539
v -0.00335201621 0.00010599196 0.00409999862
v -0.00335201621 0.00010599196 0.00450000539
v -0.00329977274 0.000105261803 0.00409999862
v -0.00329977274 0.000105261803 0.00450000539
v -0.00324785709 0.000102981925 0.00409999862
v -0.00324785709 0.000102981925 0.00450000539
v -0.00319606066 9.91076231e-05 0.00409999862
v -0.00319606066 9.91076231e-05 0.00450000539
v -0.00314408541 9.354949e-05 0.00409999862
v -0.00314408541 9.354949e-05 0.00450000539
v -0.00309175253 8.6247921e-05 0.00409999862
v -0.00309175253 8.6247921e-05 0.00450000539
v -0.003038764 7.71284103e-05 0.00409999862
v -0.003038764 7.71284103e-05 0.00450000539
v -0.0029849112 6.61015511e-05 0.00409999862
v -0.0029849112 6.61015511e-05 0.00450000539
v -0.00292995572 5.31077385e-05 0.00409999862
v -0.00292995572 5.31077385e-05 0.00450000539
v -0.00287359953 3.80724669e-05 0.00409999862
v -0.00287359953 3.80724669e-05 0.00450000539
v -0.00281566381 2.09212303e-05 0.00409999862
v -0.00281566381 2.09212303e-05 0.00450000539
v -0.00275588036 1.59442425e-06 0.00409999862
v -0.00275588036 1.59442425e-06 0.00450000539
v -0.00269401073 -1.99973583e-05 0.00409999862
v -0.00269401073 -1.99973583e-05 0.00450000539
v -0.00269401073 0.00167399645 0.00409999862
v -0.00269401073 0.00167399645 0.00450000539
v -0.00207102299 0.00167399645 0.00409999862
v -0.00207102299 0.00167399645 0.00450000539
v -0.00207102299 -0.00310000777 0.00409999862
v -0.00207102299 -0.00310000777 0.00450000539
v -0.00274553895 -0.000553011894 0.00409999862
v -0.00274553895 -0.000553011894 0.00450000539
v -0.00279539824 -0.000535026193 0.00409999862
v -0.00279539824 -0.000535026193 0.00450000539
v -0.00284385681 -0.000518977642 0.00409999862
v -0.00284385681 -0.000518977642 0.00450000539
v -0.00289130211 -0.000504821539 0.00409999862
v -0.00289130211 -0.000504821539 0.00450000539
v -0.00293809175 -0.00049251318 0.00409999862
v -0.00293809175 -0.00049251318 0.00450000539
v -0.00298452377 -0.000482007861 0.00409999862
v -0.00298452377 -0.000482007861 0.00450000539
v -0.00303095579 -0.000473245978 0.00409999862
v -0.00303095579 -0.000473245978 0.00450000539
v -0.00307771564 -0.000466182828 0.00409999862
v -0.00307771564 -0.000466182828 0.00450000539
v -0.00312516093 -0.000460788608 0.00409999862
v -0.00312516093 -0.000460788608 0.00450000539
v -0.00317364931 -0.000456988811 0.00409999862
v -0.00317364931 -0.000456988811 0.00450000539
v -0.00322347879 -0.000454738736 0.00409999862
v -0.00322347879 -0.000454738736 0.00450000539
v -0.00327500701 -0.000454008579 0.00409999862
v -0.00327500701 -0.000454008579 0.00450000539
v -0.00342130661 -0.000462919474 0.00409999862
v -0.00342130661 -0.000462919474 0.00450000539
v -0.00355872512 -0.000489190221 0.00409999862
v -0.00355872512 -0.000489190221 0.00450000539
v -0.00368648767 -0.000532090664 0.00409999862
v -0.00368648767 -0.000532090664 0.00450000539
v -0.00380390882 -0.000590890646 0.00409999862
v -0.00380390882 -0.000590890646 0.00450000539
v -0.00391024351 -0.00066486001 0.00409999862
v -0.00391024351 -0.00066486001 0.00450000539
v -0.00400477648 -0.000753253698 0.00409999862
v -0.00400477648 -0.000753253698 0.00450000539
v -0.00408676267 -0.000855356455 0.00409999862
v -0.00408676267 -0.000855356455 0.00450000539
v -0.00415545702 -0.000970453024 0.00409999862
v -0.00415545702 -0.000970453024 0.00450000539
v -0.00421017408 -0.00109778345 0.00409999862
v -0.00421017408 -0.00109778345 0.00450000539
v -0.0042501688 -0.00123664737 0.00409999862
v -0.0042501688 -0.00123664737 0.00450000539
v -0.00427466631 -0.00138628483 0.00409999862
v -0.00427466631 -0.00138628483 0.00450000539
v -0.00428301096 -0.00154599547 0.00409999862
v -0.00428301096 -0.00154599547 0.00450000539
v -0.00427791476 -0.00168976188 0.00409999862
v -0.00427791476 -0.00168976188 0.00450000539
v -0.00426205993 -0.00182639062 0.00409999862
v -0.00426205993 -0.00182639062 0.00450000539
v -0.00423455238 -0.00195483863 0.00409999862
v -0.00423455238 -0.00195483863 0.00450000539
v -0.00419461727 -0.00207410753 0.00409999862
v -0.00419461727 -0.00207410753 0.00450000539
v -0.00414133072 -0.00218316913 0.00409999862
v -0.00414133072 -0.00218316913 0.00450000539
v -0.00407388806 -0.00228099525 0.00409999862
v -0.00407388806 -0.00228099525 0.00450000539
v -0.00399142504 -0.00236658752 0.00409999862
v -0.00399142504 -0.00236658752 0.00450000539
v -0.00389307737 -0.00243888795 0.00409999862
v -0.00389307737 -0.00243888795 0.00450000539
v -0.00377804041 -0.00249691308 0.00409999862
v -0.00377804041 -0.00249691308 0.00450000539
v -0.00364539027 -0.0025396198 0.00409999862
v -0.00364539027 -0.0025396198 0.00450000539
v -0.0034943521 -0.00256597996 0.00409999862
v -0.0034943521 -0.00256597996 0.00450000539
v -0.00332403183 -0.00257499516 0.00409999862
v -0.00332403183 -0.00257499516 0.00450000539
v -0.00269401073 -0.00257499516 0.00409999862
v -0.00269401073 -0.00257499516 0.00450000539
v -0.00269401073 -0.000573009253 0.00409999862
v -0.00269401073 -0.000573009253 0.00450000539
v 0.0013140738 -0.00285224617 0.00409999862
v 0.0013140738 -0.00285224617 0.00450000539
v 0.00122085214 -0.00290697813 0.00409999862
v 0.00122085214 -0.00290697813 0.00450000539
v 0.00112754107 -0.00295628607 0.00409999862
v 0.00112754107 -0.00295628607 0.00450000539
v 0.00103336573 -0.00300018489 0.00409999862
v 0.00103336573 -0.00300018489 0.00450000539
v 0.000937521458 -0.0030387491 0.00409999862
v 0.000937521458 -0.0030387491 0.00450000539
v 0.000839233398 -0.00307200849 0.00409999862
v 0.000839233398 -0.00307200849 0.00450000539
v 0.000737756491 -0.00310000777 0.00409999862
v 0.000737756491 -0.00310000777 0.00450000539
v 0.000632286072 -0.00312282145 0.00409999862
v 0.000632286072 -0.00312282145 0.00450000539
v 0.000522047281 -0.00314046443 0.00409999862
v 0.000522047281 -0.00314046443 0.00450000539
v 0.000406265259 -0.0031530261 0.00409999862
v 0.000406265259 -0.0031530261 0.00450000539
v 0.000284165144 -0.00316052139 0.00409999862
v 0.000284165144 -0.00316052139 0.00450000539
v 0.000154972076 -0.00316299498 0.00409999862
v 0.000154972076 -0.00316299498 0.00450000539
v -8.09133053e-05 -0.00314666331 0.00409999862
v -8.09133053e-05 -0.00314666331 0.00450000539
v -0.000298321247 -0.00309935212 0.00409999862
v -0.000298321247 -0.00309935212 0.00450000539
v -0.000496894121 -0.00302365422 0.00409999862
v -0.000496894121 -0.00302365422 0.00450000539
v -0.000676214695 -0.00292214751 0.00409999862
v -0.000676214695 -0.00292214751 0.00450000539
v -0.000835865736 -0.00279740989 0.00409999862
v -0.000835865736 -0.00279740989 0.00450000539
v -0.000975519419 -0.00265200436 0.00409999862
v -0.000975519419 -0.00265200436 0.00450000539
v -0.00109475851 -0.00248850882 0.00409999862
v -0.00109475851 -0.00248850882 0.00450000539
v -0.00119316578 -0.00230951607 0.00409999862
v -0.00119316578 -0.00230951607 0.00450000539
v -0.0012703836 -0.00211758912 0.00409999862
v -0.0012703836 -0.00211758912 0.00450000539
v -0.00132602453 -0.00191532075 0.00409999862
v -0.00132602453 -0.00191532075 0.00450000539
v -0.00135970116 -0.00170525908 0.00409999862
v -0.00135970116 -0.00170525908 0.00450000539
v -0.00137102604 -0.00148999691 0.00409999862
v -0.00137102604 -0.00148999691 0.00450000539
v -0.00135865808 -0.00125861168 0.00409999862
v -0.00135865808 -0.00125861168 0.00450000539
v -0.00132241845 -0.00104121864 0.00409999862
v -0.00132241845 -0.00104121864 0.00450000539
v -0.00126338005 -0.00083899498 0.00409999862
v -0.00126338005 -0.00083899498 0.00450000539
v -0.00118279457 -0.000653117895 0.00409999862
v -0.00118279457 -0.000653117895 0.00450000539
v -0.0010817945 -0.000484719872 0.00409999862
v -0.0010817945 -0.000484719872 0.00450000539
v -0.000961512327 -0.000335007906 0.00409999862
v -0.000961512327 -0.000335007906 0.00450000539
v -0.000823169947 -0.000205114484 0.00409999862
v -0.000823169947 -0.000205114484 0.00450000539
v -0.000667899847 -9.62167978e-05 0.00409999862
v -0.000667899847 -9.62167978e-05 0.00450000539
v -0.000496894121 -9.50694084e-06 0.00409999862
v -0.000496894121 -9.50694084e-06 0.00450000539
v -0.000311285257 5.38825989e-05 0.00409999862
v -0.000311285257 5.38825989e-05 0.00450000539
v -0.000112295151 9.27746296e-05 0.00409999862
v -0.000112295151 9.27746296e-05 0.00450000539
v 9.89735126e-05 0.00010599196 0.00409999862
v 9.89735126e-05 0.00010599196 0.00450000539
v 0.000300824642 9.41753387e-05 0.00409999862
v 0.000300824642 9.41753387e-05 0.00450000539
v 0.000489324331 5.86211681e-05 0.00409999862
v 0.000489324331 5.86211681e-05 0.00450000539
v 0.00066369772 -7.4505806e-07 0.00409999862
v 0.00066369772 -7.4505806e-07 0.00450000539
v 0.00082308054 -8.40425491e-05 0.00409999862
v 0.00082308054 -8.40425491e-05 0.00450000539
v 0.000966757536 -0.000191345811 0.00409999862
v 0.000966757536 -0.000191345811 0.00450000539
v 0.00109386444 -0.000322759151 0.00409999862
v 0.00109386444 -0.000322759151 0.00450000539
v 0.00120359659 -0.000478371978 0.00409999862
v 0.00120359659 -0.000478371978 0.00450000539
v 0.00129520893 -0.000658303499 0.00409999862
v 0.00129520893 -0.000658303499 0.00450000539
v 0.00136783719 -0.000862628222 0.00409999862
v 0.00136783719 -0.000862628222 0.00450000539
v 0.00142070651 -0.00109145045 0.00409999862
v 0.00142070651 -0.00109145045 0.00450000539
v 0.00145304203 -0.0013448745 0.00409999862
v 0.00145304203 -0.0013448745 0.00450000539
v 0.00146397948 -0.00162300467 0.00409999862
v 0.00146397948 -0.00162300467 0.00450000539
v -0.00074800849 -0.00162300467 0.00409999862
v -0.00074800849 -0.00162300467 0.00450000539
v -0.00071811676 -0.00177246332 0.00409999862
v -0.00071811676 -0.00177246332 0.00450000539
v -0.000677496195 -0.00190931559 0.00409999862
v -0.000677496195 -0.00190931559 0.00450000539
v -0.000626176596 -0.00203348696 0.00409999862
v -0.000626176596 -0.00203348696 0.00450000539
v -0.000564187765 -0.00214488804 0.00409999862
v -0.000564187765 -0.00214488804 0.00450000539
v -0.00049161911 -0.00224345922 0.00409999862
v -0.00049161911 -0.00224345922 0.00450000539
v -0.000408530235 -0.002329126 0.00409999862
v -0.000408530235 -0.002329126 0.00450000539
v -0.000314891338 -0.00240181386 0.00409999862
v -0.000314891338 -0.00240181386 0.00450000539
v -0.000210821629 -0.00246144831 0.00409999862
v -0.000210821629 -0.00246144831 0.00450000539
v -9.63509083e-05 -0.00250795484 0.00409999862
v -9.63509083e-05 -0.00250795484 0.00450000539
v 2.84612179e-05 -0.00254125893 0.00409999862
v 2.84612179e-05 -0.00254125893 0.00450000539
v 0.000163584948 -0.00256130099 0.00409999862
v 0.000163584948 -0.00256130099 0.00450000539
v 0.000308990479 -0.00256800652 0.00409999862
v 0.000308990479 -0.00256800652 0.00450000539
v 0.00040307641 -0.00256511569 0.00409999862
v 0.00040307641 -0.00256511569 0.00450000539
v 0.000496357679 -0.00255653262 0.00409999862
v 0.000496357679 -0.00255653262 0.00450000539
v 0.000588983297 -0.00254240632 0.00409999862
v 0.000588983297 -0.00254240632 0.00450000539
v 0.000681012869 -0.0025228858 0.00409999862
v 0.000681012869 -0.0025228858 0.00450000539
v 0.000772565603 -0.00249812007 0.00409999862
v 0.000772565603 -0.00249812007 0.00450000539
v 0.000863730907 -0.00246825814 0.00409999862
v 0.000863730907 -0.00246825814 0.00450000539
v 0.000954598188 -0.00243341923 0.00409999862
v 0.000954598188 -0.00243341923 0.00450000539
v 0.00104528666 -0.00239378214 0.00409999862
v 0.00104528666 -0.00239378214 0.00450000539
v 0.00113585591 -0.00234946609 0.00409999862
v 0.00113585591 -0.00234946609 0.00450000539
v 0.00122642517 -0.00230063498 0.00409999862
v 0.00122642517 -0.00230063498 0.00450000539
v 0.00131711364 -0.00224743783 0.00409999862
v 0.00131711364 -0.00224743783 0.00450000539
v 0.00140798092 -0.00219000876 0.00409999862
v 0.00140798092 -0.00219000876 0.00450000539
v 0.00140798092 -0.00279200077 0.00409999862
v 0.00140798092 -0.00279200077 0.00450000539
v 0.000837534666 -0.00109471381 0.00409999862
v 0.000837534666 -0.00109471381 0.00450000539
v 0.000816881657 -0.000987172127 0.00409999862
v 0.000816881657 -0.000987172127 0.00450000539
v 0.000786304474 -0.000887781382 0.00409999862
v 0.000786304474 -0.000887781382 0.00450000539
v 0.000746101141 -0.000797003508 0.00409999862
v 0.000746101141 -0.000797003508 0.00450000539
v 0.000696569681 -0.000715255737 0.00409999862
v 0.000696569681 -0.000715255737 0.00450000539
v 0.000637978315 -0.000643000007 0.00409999862
v 0.000637978315 -0.000643000007 0.00450000539
v 0.000570654869 -0.000580653548 0.00409999862
v 0.000570654869 -0.000580653548 0.00450000539
v 0.000494867563 -0.000528663397 0.00409999862
v 0.000494867563 -0.000528663397 0.00450000539
v 0.000410914421 -0.000487476587 0.00409999862
v 0.000410914421 -0.000487476587 0.00450000539
v 0.000319093466 -0.000457495451 0.00409999862
v 0.000319093466 -0.000457495451 0.00450000539
v 0.000219672918 -0.000439196825 0.00409999862
v 0.000219672918 -0.000439196825 0.00450000539
v 0.000112980604 -0.000432997942 0.00409999862
v 0.000112980604 -0.000432997942 0.00450000539
v -2.05636024e-06 -0.000438794494 0.00409999862
v -2.05636024e-06 -0.000438794494 0.00450000539
v -0.000109195709 -0.000456050038 0.00409999862
v -0.000109195709 -0.000456050038 0.00450000539
v -0.000208348036 -0.000484511256 0.00409999862
v -0.000208348036 -0.000484511256 0.00450000539
v -0.000299483538 -0.000523999333 0.00409999862
v -0.000299483538 -0.000523999333 0.00450000539
v -0.000382572412 -0.000574275851 0.00409999862
v -0.000382572412 -0.000574275851 0.00450000539
v -0.000457525253 -0.000635132194 0.00409999862
v -0.000457525253 -0.000635132194 0.00450000539
v -0.000524312258 -0.000706329942 0.00409999862
v -0.000524312258 -0.000706329942 0.00450000539
v -0.000582873821 -0.000787675381 0.00409999862
v -0.000582873821 -0.000787675381 0.00450000539
v -0.000633180141 -0.000878930092 0.00409999862
v -0.000633180141 -0.000878930092 0.00450000539
v -0.000675171614 -0.000979870558 0.00409999862
v -0.000675171614 -0.000979870558 0.00450000539
v -0.000708788633 -0.00109030306 0.00409999862
v -0.000708788633 -0.00109030306 0.00450000539
v -0.0007340312 -0.00121000409 0.00409999862
v -0.0007340312 -0.00121000409 0.00450000539
v 0.000847995281 -0.00121000409 0.00409999862
v 0.000847995281 -0.00121000409 0.00450000539
v 0.00214996934 -0.00310000777 0.00409999862
v 0.00214996934 -0.00310000777 0.00450000539
v 0.00214996934 0.00167399645 0.00409999862
v 0.00214996934 0.00167399645 0.00450000539
v 0.00277298689 0.00167399645 0.00409999862
v 0.00277298689 0.00167399645 0.00450000539
v 0.00277298689 -0.00310000777 0.00409999862
v 0.00277298689 -0.00310000777 0.00450000539
usemtl screen_white_text_003
f 153 155 154
f 153 156 155
f 191 193 192
f 191 194 193
f 190 194 191
f 190 195 194
f 189 195 190
f 189 196 195
f 188 196 189
f 188 197 196
f 187 197 188
f 187 198 197
f 186 198 187
f 186 199 198
f 185 242 186
f 242 199 186
f 185 243 242
f 241 199 242
f 185 244 243
f 240 199 241
f 185 245 244
f 239 199 240
f 239 200 199
f 185 246 245
f 184 246 185
f 238 200 239
f 184 247 246
f 237 200 238
f 184 248 247
f 236 200 237
f 184 249 248
f 235 200 236
f 183 249 184
f 235 201 200
f 183 250 249
f 234 201 235
f 183 251 250
f 233 201 234
f 182 251 183
f 233 202 201
f 182 252 251
f 232 202 233
f 182 253 252
f 231 202 232
f 181 253 182
f 181 254 253
f 231 203 202
f 255 203 231
f 181 255 254
f 181 203 255
f 180 203 181
f 180 204 203
f 179 205 180
f 205 204 180
f 179 206 205
f 178 206 179
f 178 207 206
f 178 208 207
f 177 208 178
f 177 209 208
f 176 209 177
f 176 210 209
f 228 230 229
f 176 211 210
f 227 230 228
f 226 230 227
f 175 211 176
f 175 212 211
f 225 230 226
f 224 230 225
f 175 213 212
f 223 230 224
f 175 214 213
f 222 230 223
f 174 214 175
f 221 230 222
f 174 215 214
f 220 230 221
f 174 216 215
f 219 230 220
f 218 230 219
f 174 217 216
f 217 230 218
f 174 230 217
f 173 230 174
f 173 157 230
f 172 157 173
f 172 158 157
f 172 159 158
f 171 159 172
f 171 160 159
f 171 161 160
f 170 161 171
f 170 162 161
f 170 163 162
f 169 163 170
f 169 164 163
f 169 165 164
f 169 166 165
f 168 166 169
f 168 167 166
f 292 294 293
f 292 295 294
f 279 281 280
f 279 282 281
f 279 283 282
f 279 284 283
f 279 285 284
f 278 285 279
f 278 286 285
f 278 287 286
f 278 288 287
f 277 288 278
f 277 289 288
f 277 290 289
f 277 291 290
f 277 292 291
f 276 292 277
f 276 298 292
f 298 297 292
f 297 296 292
f 296 333 292
f 333 295 292
f 275 301 276
f 301 300 276
f 300 299 276
f 299 298 276
f 274 304 275
f 304 303 275
f 303 302 275
f 302 301 275
f 273 307 274
f 307 306 274
f 306 305 274
f 305 304 274
f 273 308 307
f 273 309 308
f 272 309 273
f 272 310 309
f 272 311 310
f 332 295 333
f 272 312 311
f 271 312 272
f 271 313 312
f 271 314 313
f 270 314 271
f 270 315 314
f 270 316 315
f 269 316 270
f 269 317 316
f 268 317 269
f 268 318 317
f 268 319 318
f 267 319 268
f 267 320 319
f 267 321 320
f 266 321 267
f 266 322 321
f 265 322 266
f 265 323 322
f 265 324 323
f 264 324 265
f 264 325 324
f 264 326 325
f 263 326 264
f 263 327 326
f 263 328 327
f 263 329 328
f 262 329 263
f 262 330 329
f 262 331 330
f 262 332 331
f 262 295 332
f 261 295 262
f 260 295 261
f 259 295 260
f 258 295 259
f 257 295 258
f 256 295 257
f 334 335 336
f 334 336 337
f 372 373 374
f 372 374 375
f 371 372 375
f 371 375 376
f 370 371 376
f 370 376 377
f 369 370 377
f 369 377 378
f 368 369 378
f 368 378 379
f 367 368 379
f 367 379 380
f 366 367 423
f 423 367 380
f 366 423 424
f 422 423 380
f 366 424 425
f 421 422 380
f 366 425 426
f 420 421 380
f 420 380 381
f 366 426 427
f 365 366 427
f 419 420 381
f 365 427 428
f 418 419 381
f 365 428 429
f 417 418 381
f 365 429 430
f 416 417 381
f 364 365 430
f 416 381 382
f 364 430 431
f 415 416 382
f 364 431 432
f 414 415 382
f 363 364 432
f 414 382 383
f 363 432 433
f 413 414 383
f 363 433 434
f 412 413 383
f 362 363 434
f 362 434 435
f 412 383 384
f 436 412 384
f 362 435 436
f 362 436 384
f 361 362 384
f 361 384 385
f 360 361 386
f 386 361 385
f 360 386 387
f 359 360 387
f 359 387 388
f 359 388 389
f 358 359 389
f 358 389 390
f 357 358 390
f 357 390 391
f 409 410 411
f 357 391 392
f 408 409 411
f 407 408 411
f 356 357 392
f 356 392 393
f 406 407 411
f 405 406 411
f 356 393 394
f 404 405 411
f 356 394 395
f 403 404 411
f 355 356 395
f 402 403 411
f 355 395 396
f 401 402 411
f 355 396 397
f 400 401 411
f 399 400 411
f 355 397 398
f 398 399 411
f 355 398 411
f 354 355 411
f 354 411 338
f 353 354 338
f 353 338 339
f 353 339 340
f 352 353 340
f 352 340 341
f 352 341 342
f 351 352 342
f 351 342 343
f 351 343 344
f 350 351 344
f 350 344 345
f 350 345 346
f 350 346 347
f 349 350 347
f 349 347 348
f 473 474 475
f 473 475 476
f 460 461 462
f 460 462 463
f 460 463 464
f 460 464 465
f 460 465 466
f 459 460 466
f 459 466 467
f 459 467 468
f 459 468 469
f 458 459 469
f 458 469 470
f 458 470 471
f 458 471 472
f 458 472 473
f 457 458 473
f 457 473 479
f 479 473 478
f 478 473 477
f 477 473 514
f 514 473 476
f 456 457 482
f 482 457 481
f 481 457 480
f 480 457 479
f 455 456 485
f 485 456 484
f 484 456 483
f 483 456 482
f 454 455 488
f 488 455 487
f 487 455 486
f 486 455 485
f 454 488 489
f 454 489 490
f 453 454 490
f 453 490 491
f 453 491 492
f 513 514 476
f 453 492 493
f 452 453 493
f 452 493 494
f 452 494 495
f 451 452 495
f 451 495 496
f 451 496 497
f 450 451 497
f 450 497 498
f 449 450 498
f 449 498 499
f 449 499 500
f 448 449 500
f 448 500 501
f 448 501 502
f 447 448 502
f 447 502 503
f 446 447 503
f 446 503 504
f 446 504 505
f 445 446 505
f 445 505 506
f 445 506 507
f 444 445 507
f 444 507 508
f 444 508 509
f 444 509 510
f 443 444 510
f 443 510 511
f 443 511 512
f 443 512 513
f 443 513 476
f 442 443 476
f 441 442 476
f 440 441 476
f 439 440 476
f 438 439 476
f 437 438 476
f 516 518 517 515
f 518 520 519 517
f 520 522 521 519
f 522 524 523 521
f 524 526 525 523
f 526 528 527 525
f 528 530 529 527
f 530 532 531 529
f 532 534 533 531
f 534 536 535 533
f 536 538 537 535
f 538 540 539 537
f 540 542 541 539
f 542 544 543 541
f 544 546 545 543
f 546 548 547 545
f 548 550 549 547
f 550 552 551 549
f 552 554 553 551
f 554 556 555 553
f 556 558 557 555
f 558 560 559 557
f 560 562 561 559
f 562 564 563 561
f 564 566 565 563
f 566 568 567 565
f 568 570 569 567
f 570 572 571 569
f 572 574 573 571
f 574 576 575 573
f 576 578 577 575
f 578 580 579 577
f 580 582 581 579
f 582 584 583 581
f 584 586 585 583
f 586 588 587 585
f 588 590 589 587
f 590 592 591 589
f 592 594 593 591
f 594 516 515 593
f 596 598 597 595
f 598 600 599 597
f 600 602 601 599
f 602 604 603 601
f 604 606 605 603
f 606 608 607 605
f 608 610 609 607
f 610 612 611 609
f 612 614 613 611
f 614 616 615 613
f 616 618 617 615
f 618 620 619 617
f 620 622 621 619
f 622 624 623 621
f 624 626 625 623
f 626 628 627 625
f 628 630 629 627
f 630 632 631 629
f 632 634 633 631
f 634 636 635 633
f 636 638 637 635
f 638 640 639 637
f 640 642 641 639
f 642 644 643 641
f 644 646 645 643
f 646 648 647 645
f 648 650 649 647
f 650 652 651 649
f 652 654 653 651
f 654 656 655 653
f 656 658 657 655
f 658 660 659 657
f 660 662 661 659
f 662 664 663 661
f 664 666 665 663
f 666 668 667 665
f 668 670 669 667
f 670 596 595 669
f 672 674 673 671
f 674 676 675 673
f 676 678 677 675
f 678 680 679 677
f 680 682 681 679
f 682 684 683 681
f 684 686 685 683
f 686 688 687 685
f 688 690 689 687
f 690 692 691 689
f 692 694 693 691
f 694 696 695 693
f 696 698 697 695
f 698 700 699 697
f 700 702 701 699
f 702 704 703 701
f 704 706 705 703
f 706 708 707 705
f 708 710 709 707
f 710 712 711 709
f 712 714 713 711
f 714 716 715 713
f 716 718 717 715
f 718 720 719 717
f 720 722 721 719
f 722 724 723 721
f 724 726 725 723
f 726 728 727 725
f 728 730 729 727
f 730 732 731 729
f 732 734 733 731
f 734 736 735 733
f 736 738 737 735
f 738 740 739 737
f 740 742 741 739
f 742 744 743 741
f 744 746 745 743
f 746 748 747 745
f 748 750 749 747
f 750 752 751 749
f 752 754 753 751
f 754 756 755 753
f 756 758 757 755
f 758 760 759 757
f 760 762 761 759
f 762 764 763 761
f 764 766 765 763
f 766 768 767 765
f 768 770 769 767
f 770 772 771 769
f 772 774 773 771
f 774 776 775 773
f 776 778 777 775
f 778 780 779 777
f 780 782 781 779
f 782 784 783 781
f 784 786 785 783
f 786 788 787 785
f 788 790 789 787
f 790 792 791 789
f 792 794 793 791
f 794 796 795 793
f 796 798 797 795
f 798 800 799 797
f 800 802 801 799
f 802 804 803 801
f 804 806 805 803
f 806 808 807 805
f 808 810 809 807
f 810 812 811 809
f 812 814 813 811
f 814 816 815 813
f 816 818 817 815
f 818 672 671 817
f 820 822 821 819
f 822 824 823 821
f 824 826 825 823
f 826 828 827 825
f 828 830 829 827
f 830 832 831 829
f 832 834 833 831
f 834 836 835 833
f 836 838 837 835
f 838 840 839 837
f 840 842 841 839
f 842 844 843 841
f 844 846 845 843
f 846 848 847 845
f 848 850 849 847
f 850 852 851 849
f 852 854 853 851
f 854 856 855 853
f 856 858 857 855
f 858 860 859 857
f 860 862 861 859
f 862 864 863 861
f 864 866 865 863
f 866 868 867 865
f 868 820 819 867
f 870 872 871 869
f 872 874 873 871
f 874 876 875 873
f 876 870 869 875
