mtllib keyboard_key_2_4_R_link.mtl
o keyboard_key_2_4_R_link

g keyboard_key_2_4_R_SOLID
v -0.0190000013 -0.0165000036 0
v -0.0190000013 -0.013000004 -0.00349999964
v -0.0225000009 -0.013000004 0
v -0.0190000013 -0.0162335783 -0.0013393946
v -0.0190000013 -0.0154748708 -0.00247487426
v -0.0203393921 -0.0162335783 0
v -0.020372957 -0.0159120411 -0.00137295946
v -0.0203033015 -0.0152968913 -0.00229689106
v -0.0210207254 -0.0150207281 -0.00202072784
v -0.0203393921 -0.013000004 -0.00323357806
v -0.0214748755 -0.013000004 -0.00247487426
v -0.0190000013 -0.0143393949 -0.00323357806
v -0.020372957 -0.0143729597 -0.0029120408
v -0.021296896 -0.0143032968 -0.00229689106
v -0.022233583 -0.0143393949 0
v -0.0214748755 -0.0154748708 0
v -0.022233583 -0.013000004 -0.00133939087
v -0.0219120383 -0.0143729597 -0.00137295946
v -0.021296896 -0.0152968913 -0.00130329654
v 0.0190000013 -0.0165000036 0
v 0.0225000009 -0.013000004 0
v 0.0190000013 -0.013000004 -0.00349999964
v 0.0203393921 -0.0162335783 0
v 0.0214748755 -0.0154748708 0
v 0.0190000013 -0.0162335783 -0.00133939087
v 0.020372957 -0.0159120411 -0.00137295946
v 0.021296896 -0.0152968913 -0.00130329654
v 0.0210207254 -0.0150207281 -0.00202072784
v 0.0222335793 -0.013000004 -0.0013393946
v 0.0214748755 -0.013000004 -0.00247487426
v 0.0222335793 -0.0143393949 0
v 0.0219120383 -0.0143729597 -0.00137295946
v 0.021296896 -0.0143032968 -0.00229689106
v 0.0190000013 -0.0143393949 -0.00323357806
v 0.0190000013 -0.0154748708 -0.00247487426
v 0.0203393921 -0.013000004 -0.00323357806
v 0.020372957 -0.0143729597 -0.0029120408
v 0.0203033015 -0.0152968913 -0.00229689106
v 0.0190000013 0.0165000036 0
v 0.0190000013 0.013000004 -0.00349999964
v 0.0225000009 0.013000004 0
v 0.0190000013 0.0162335783 -0.0013393946
v 0.0190000013 0.0154748708 -0.00247487426
v 0.0203393921 0.0162335783 0
v 0.020372957 0.0159120411 -0.00137295946
v 0.0203033015 0.0152968913 -0.00229689106
v 0.0210207254 0.0150207281 -0.00202072784
v 0.0203393921 0.013000004 -0.00323357806
v 0.0214748755 0.013000004 -0.00247487426
v 0.0190000013 0.0143393949 -0.00323357806
v 0.020372957 0.0143729597 -0.0029120408
v 0.021296896 0.0143032968 -0.00229689106
v 0.0222335793 0.0143393949 0
v 0.0214748755 0.0154748708 0
v 0.0222335793 0.013000004 -0.00133939087
v 0.0219120383 0.0143729597 -0.00137295946
v 0.021296896 0.0152968913 -0.00130329654
v -0.0190000013 0.0165000036 0
v -0.0225000009 0.013000004 0
v -0.0190000013 0.013000004 -0.00349999964
v -0.0203393921 0.0162335783 0
v -0.0214748755 0.0154748708 0
v -0.0190000013 0.0162335783 -0.00133939087
v -0.020372957 0.0159120411 -0.00137295946
v -0.021296896 0.0152968913 -0.00130329654
v -0.0210207254 0.0150207281 -0.00202072784
v -0.022233583 0.013000004 -0.0013393946
v -0.0214748755 0.013000004 -0.00247487426
v -0.022233583 0.0143393949 0
v -0.0219120383 0.0143729597 -0.00137295946
v -0.021296896 0.0143032968 -0.00229689106
v -0.0190000013 0.0143393949 -0.00323357806
v -0.0190000013 0.0154748708 -0.00247487426
v -0.0203393921 0.013000004 -0.00323357806
v -0.020372957 0.0143729597 -0.0029120408
v -0.0203033015 0.0152968913 -0.00229689106
v -0.0225000009 -0.013000004 0
v -0.0190000013 -0.013000004 0.00350000337
v -0.0190000013 -0.0165000036 0
v -0.022233583 -0.013000004 0.0013393946
v -0.0214748755 -0.013000004 0.00247487426
v -0.022233583 -0.0143393949 0
v -0.0219120383 -0.0143729597 0.00137295946
v -0.021296896 -0.0143032968 0.00229689106
v -0.0210207254 -0.0150207281 0.00202072784
v -0.0190000013 -0.0143393949 0.00323357806
v -0.0190000013 -0.0154748708 0.00247487426
v -0.0203393921 -0.013000004 0.00323357806
v -0.020372957 -0.0143729597 0.0029120408
v -0.0203033015 -0.0152968913 0.00229689106
v -0.0203393921 -0.0162335783 0
v -0.0214748755 -0.0154748708 0
v -0.0190000013 -0.0162335783 0.00133939087
v -0.020372957 -0.0159120411 0.00137295946
v -0.021296896 -0.0152968913 0.00130329654
v 0.0190000013 -0.0165000036 0
v 0.0190000013 -0.013000004 0.00350000337
v 0.0225000009 -0.013000004 0
v 0.0190000013 -0.0162335783 0.0013393946
v 0.0190000013 -0.0154748708 0.00247487426
v 0.0203393921 -0.0162335783 0
v 0.020372957 -0.0159120411 0.00137295946
v 0.0203033015 -0.0152968913 0.00229689106
v 0.0210207254 -0.0150207281 0.00202072784
v 0.0203393921 -0.013000004 0.00323357806
v 0.0214748755 -0.013000004 0.00247487426
v 0.0190000013 -0.0143393949 0.00323357806
v 0.020372957 -0.0143729597 0.0029120408
v 0.021296896 -0.0143032968 0.00229689106
v 0.0222335793 -0.0143393949 0
v 0.0214748755 -0.0154748708 0
v 0.0222335793 -0.013000004 0.00133939087
v 0.0219120383 -0.0143729597 0.00137295946
v 0.021296896 -0.0152968913 0.00130329654
v 0.0190000013 0.013000004 0.00350000337
v 0.0190000013 0.0165000036 0
v 0.0225000009 0.013000004 0
v 0.0190000013 0.0143393949 0.00323357806
v 0.0190000013 0.0154748708 0.00247487426
v 0.0203393921 0.013000004 0.00323357806
v 0.020372957 0.0143729597 0.0029120408
v 0.0203033015 0.0152968913 0.00229689106
v 0.0210207254 0.0150207281 0.00202072784
v 0.0203393921 0.0162335783 0
v 0.0214748755 0.0154748708 0
v 0.0190000013 0.0162335783 0.00133939087
v 0.020372957 0.0159120411 0.00137295946
v 0.021296896 0.0152968913 0.00130329654
v 0.0222335793 0.013000004 0.0013393946
v 0.0214748755 0.013000004 0.00247487426
v 0.0222335793 0.0143393949 0
v 0.0219120383 0.0143729597 0.00137295946
v 0.021296896 0.0143032968 0.00229689106
v -0.0225000009 0.013000004 0
v -0.0190000013 0.0165000036 0
v -0.0190000013 0.013000004 0.00350000337
v -0.022233583 0.0143393949 0
v -0.0214748755 0.0154748708 0
v -0.022233583 0.013000004 0.00133939087
v -0.0219120383 0.0143729597 0.00137295946
v -0.021296896 0.0152968913 0.00130329654
v -0.0210207254 0.0150207281 0.00202072784
v -0.0190000013 0.0162335783 0.0013393946
v -0.0190000013 0.0154748708 0.00247487426
v -0.0203393921 0.0162335783 0
v -0.020372957 0.0159120411 0.00137295946
v -0.0203033015 0.0152968913 0.00229689106
v -0.0203393921 0.013000004 0.00323357806
v -0.0214748755 0.013000004 0.00247487426
v -0.0190000013 0.0143393949 0.00323357806
v -0.020372957 0.0143729597 0.0029120408
v -0.021296896 0.0143032968 0.00229689106
usemtl matte_black_keycaps_003
f 59 134 77 3
f 2 22 40 60
f 39 116 135 58
f 78 136 115 97
f 21 98 117 41
f 1 4 7 6
f 4 5 8 7
f 6 7 19 16
f 7 8 9 19
f 2 10 13 12
f 10 11 14 13
f 12 13 8 5
f 13 14 9 8
f 3 15 18 17
f 15 16 19 18
f 17 18 14 11
f 18 19 9 14
f 20 23 26 25
f 23 24 27 26
f 25 26 38 35
f 26 27 28 38
f 21 29 32 31
f 29 30 33 32
f 31 32 27 24
f 32 33 28 27
f 22 34 37 36
f 34 35 38 37
f 36 37 33 30
f 37 38 28 33
f 39 42 45 44
f 42 43 46 45
f 44 45 57 54
f 45 46 47 57
f 40 48 51 50
f 48 49 52 51
f 50 51 46 43
f 51 52 47 46
f 41 53 56 55
f 53 54 57 56
f 55 56 52 49
f 56 57 47 52
f 58 61 64 63
f 61 62 65 64
f 63 64 76 73
f 64 65 66 76
f 59 67 70 69
f 67 68 71 70
f 69 70 65 62
f 70 71 66 65
f 60 72 75 74
f 72 73 76 75
f 74 75 71 68
f 75 76 66 71
f 77 80 83 82
f 80 81 84 83
f 82 83 95 92
f 83 84 85 95
f 78 86 89 88
f 86 87 90 89
f 88 89 84 81
f 89 90 85 84
f 79 91 94 93
f 91 92 95 94
f 93 94 90 87
f 94 95 85 90
f 96 99 102 101
f 99 100 103 102
f 101 102 114 111
f 102 103 104 114
f 97 105 108 107
f 105 106 109 108
f 107 108 103 100
f 108 109 104 103
f 98 110 113 112
f 110 111 114 113
f 112 113 109 106
f 113 114 104 109
f 115 118 121 120
f 118 119 122 121
f 120 121 133 130
f 121 122 123 133
f 116 124 127 126
f 124 125 128 127
f 126 127 122 119
f 127 128 123 122
f 117 129 132 131
f 129 130 133 132
f 131 132 128 125
f 132 133 123 128
f 134 137 140 139
f 137 138 141 140
f 139 140 152 149
f 140 141 142 152
f 135 143 146 145
f 143 144 147 146
f 145 146 141 138
f 146 147 142 141
f 136 148 151 150
f 148 149 152 151
f 150 151 147 144
f 151 152 142 147
f 39 58 63 42
f 42 63 73 43
f 43 73 72 50
f 50 72 60 40
f 1 20 25 4
f 4 25 35 5
f 5 35 34 12
f 12 34 22 2
f 21 41 55 29
f 29 55 49 30
f 30 49 48 36
f 36 48 40 22
f 2 60 74 10
f 10 74 68 11
f 11 68 67 17
f 17 67 59 3
f 3 77 82 15
f 15 82 92 16
f 16 92 91 6
f 6 91 79 1
f 78 97 107 86
f 86 107 100 87
f 87 100 99 93
f 93 99 96 79
f 97 115 120 105
f 105 120 130 106
f 106 130 129 112
f 112 129 117 98
f 77 134 139 80
f 80 139 149 81
f 81 149 148 88
f 88 148 136 78
f 20 96 101 23
f 23 101 111 24
f 24 111 110 31
f 31 110 98 21
f 41 117 131 53
f 53 131 125 54
f 54 125 124 44
f 44 124 116 39
f 115 136 150 118
f 118 150 144 119
f 119 144 143 126
f 126 143 135 116
f 58 135 145 61
f 61 145 138 62
f 62 138 137 69
f 69 137 134 59
f 1 79 96 20

g key_legend_2_4_R
v -0.00119603425 0.00280494988 0.00450000539
v -0.000884912908 0.00276046246 0.00450000539
v -0.000597812235 0.00268749893 0.00450000539
v -0.000335924327 0.0025870353 0.00450000539
v -0.000100433826 0.0024600476 0.00450000539
v 0.000107496977 0.00230749696 0.00450000539
v 0.00028667599 0.00213036686 0.00450000539
v 0.00043592602 0.00192962587 0.00450000539
v 0.000554062426 0.00170625001 0.00450000539
v 0.000639908016 0.00146120042 0.00450000539
v 0.000692278147 0.00119546056 0.00450000539
v 0.000709995627 0.000909999013 0.00450000539
v 0.000701509416 0.000716723502 0.00450000539
v 0.000676244497 0.000532127917 0.00450000539
v 0.000634528697 0.000356562436 0.00450000539
v 0.000576667488 0.000190369785 0.00450000539
v 0.000502966344 3.39001417e-05 0.00450000539
v 0.000413745642 -0.000112503767 0.00450000539
v 0.000309318304 -0.000248484313 0.00450000539
v 0.000189997256 -0.000373706222 0.00450000539
v 5.60954213e-05 -0.000487811863 0.00450000539
v -9.20817256e-05 -0.000590465963 0.00450000539
v -0.000254221261 -0.000681310892 0.00450000539
v -0.000430002809 -0.000760003924 0.00450000539
v -0.000279784203 -0.000867083669 0.00450000539
v -0.000138245523 -0.000983335078 0.00450000539
v -4.06056643e-06 -0.0011087507 0.00450000539
v 0.000124074519 -0.00124333799 0.00450000539
v 0.000247485936 -0.00138708204 0.00450000539
v 0.000367499888 -0.00154000521 0.00450000539
v 0.000485427678 -0.00170208514 0.00450000539
v 0.000602588058 -0.00187333673 0.00450000539
v 0.000720307231 -0.00205375254 0.00450000539
v 0.000839903951 -0.00224333256 0.00450000539
v 0.00096269697 -0.00244208425 0.00450000539
v 0.00108999759 -0.00265000015 0.00450000539
v 0.00116024166 -0.0027628839 0.00450000539
v 0.00122693926 -0.0028680563 0.00450000539
v 0.00129155815 -0.00296781212 0.00450000539
v 0.00135555118 -0.00306444615 0.00450000539
v 0.00142037868 -0.00316024572 0.00450000539
v 0.00148750097 -0.0032575056 0.00450000539
v 0.00155836344 -0.00335850567 0.00450000539
v 0.00163444132 -0.00346555561 0.00450000539
v 0.00171718746 -0.00358094275 0.00450000539
v 0.00180805475 -0.00370694697 0.00450000539
v 0.00190850347 -0.00384587049 0.00450000539
v 0.00202000141 -0.00400000066 0.00450000539
v 0.000849999487 -0.00400000066 0.00450000539
v -5.00008464e-05 -0.00259999931 0.00450000539
v -0.000265128911 -0.0022752136 0.00450000539
v -0.000461854041 -0.00199833512 0.00450000539
v -0.000642187893 -0.00176562369 0.00450000539
v -0.000808149576 -0.00157333165 0.00450000539
v -0.000961750746 -0.00141771138 0.00450000539
v -0.00110500306 -0.00129500031 0.00450000539
v -0.00123991817 -0.00120145828 0.00450000539
v -0.00136852264 -0.00113333762 0.00450000539
v -0.00149281323 -0.0010868758 0.00450000539
v -0.00161481649 -0.00105833262 0.00450000539
v -0.00173654407 -0.00104396045 0.00450000539
v -0.00186000019 -0.00104000419 0.00450000539
v -0.00227000564 -0.00104000419 0.00450000539
v -0.00227000564 -0.00400000066 0.00450000539
v -0.00325000286 -0.00400000066 0.00450000539
v -0.00325000286 0.00282000005 0.00450000539
v -0.00152999908 0.00282000005 0.00450000539
v -0.00163999945 -0.000160001218 0.00450000539
v -0.00139287114 -0.000149048865 0.00450000539
v -0.0011754632 -0.000117361546 0.00450000539
v -0.000986255705 -6.67199492e-05 0.00450000539
v -0.000823706388 1.11013651e-06 0.00450000539
v -0.000686295331 8.43554735e-05 0.00450000539
v -0.000572502613 0.000181250274 0.00450000539
v -0.000480785966 0.00029001385 0.00450000539
v -0.000409632921 0.000408887863 0.00450000539
v -0.000357501209 0.000536091626 0.00450000539
v -0.00032287091 0.00066985935 0.00450000539
v -0.000304214656 0.000808417797 0.00450000539
v -0.000300005078 0.00095000118 0.00450000539
v -0.000310324132 0.00110470504 0.00450000539
v -0.000336758792 0.00124851614 0.00450000539
v -0.000380001962 0.00138093531 0.00450000539
v -0.000440739095 0.00150147825 0.00450000539
v -0.000519677997 0.00160966069 0.00450000539
v -0.00061750412 0.00170499831 0.00450000539
v -0.000734910369 0.0017869994 0.00450000539
v -0.000872597098 0.00185518712 0.00450000539
v -0.00103124976 0.00190906227 0.00450000539
v -0.00121157616 0.00194814801 0.00450000539
v -0.00141426176 0.00197195262 0.00450000539
v -0.00163999945 0.00197999924 0.00450000539
v -0.00227000564 0.00197999924 0.00450000539
v -0.00227000564 -0.000160001218 0.00450000539
v -0.00119603425 0.00280494988 0.00409999862
v -0.000884912908 0.00276046246 0.00409999862
v -0.000597812235 0.00268749893 0.00409999862
v -0.000335924327 0.0025870353 0.00409999862
v -0.000100433826 0.0024600476 0.00409999862
v 0.000107496977 0.00230749696 0.00409999862
v 0.00028667599 0.00213036686 0.00409999862
v 0.00043592602 0.00192962587 0.00409999862
v 0.000554062426 0.00170625001 0.00409999862
v 0.000639908016 0.00146120042 0.00409999862
v 0.000692278147 0.00119546056 0.00409999862
v 0.000709995627 0.000909999013 0.00409999862
v 0.000701509416 0.000716723502 0.00409999862
v 0.000676244497 0.000532127917 0.00409999862
v 0.000634528697 0.000356562436 0.00409999862
v 0.000576667488 0.000190369785 0.00409999862
v 0.000502966344 3.39001417e-05 0.00409999862
v 0.000413745642 -0.000112503767 0.00409999862
v 0.000309318304 -0.000248484313 0.00409999862
v 0.000189997256 -0.000373706222 0.00409999862
v 5.60954213e-05 -0.000487811863 0.00409999862
v -9.20817256e-05 -0.000590465963 0.00409999862
v -0.000254221261 -0.000681310892 0.00409999862
v -0.000430002809 -0.000760003924 0.00409999862
v -0.000279784203 -0.000867083669 0.00409999862
v -0.000138245523 -0.000983335078 0.00409999862
v -4.06056643e-06 -0.0011087507 0.00409999862
v 0.000124074519 -0.00124333799 0.00409999862
v 0.000247485936 -0.00138708204 0.00409999862
v 0.000367499888 -0.00154000521 0.00409999862
v 0.000485427678 -0.00170208514 0.00409999862
v 0.000602588058 -0.00187333673 0.00409999862
v 0.000720307231 -0.00205375254 0.00409999862
v 0.000839903951 -0.00224333256 0.00409999862
v 0.00096269697 -0.00244208425 0.00409999862
v 0.00108999759 -0.00265000015 0.00409999862
v 0.00116024166 -0.0027628839 0.00409999862
v 0.00122693926 -0.0028680563 0.00409999862
v 0.00129155815 -0.00296781212 0.00409999862
v 0.00135555118 -0.00306444615 0.00409999862
v 0.00142037868 -0.00316024572 0.00409999862
v 0.00148750097 -0.0032575056 0.00409999862
v 0.00155836344 -0.00335850567 0.00409999862
v 0.00163444132 -0.00346555561 0.00409999862
v 0.00171718746 -0.00358094275 0.00409999862
v 0.00180805475 -0.00370694697 0.00409999862
v 0.00190850347 -0.00384587049 0.00409999862
v 0.00202000141 -0.00400000066 0.00409999862
v 0.000849999487 -0.00400000066 0.00409999862
v -5.00008464e-05 -0.00259999931 0.00409999862
v -0.000265128911 -0.0022752136 0.00409999862
v -0.000461854041 -0.00199833512 0.00409999862
v -0.000642187893 -0.00176562369 0.00409999862
v -0.000808149576 -0.00157333165 0.00409999862
v -0.000961750746 -0.00141771138 0.00409999862
v -0.00110500306 -0.00129500031 0.00409999862
v -0.00123991817 -0.00120145828 0.00409999862
v -0.00136852264 -0.00113333762 0.00409999862
v -0.00149281323 -0.0010868758 0.00409999862
v -0.00161481649 -0.00105833262 0.00409999862
v -0.00173654407 -0.00104396045 0.00409999862
v -0.00186000019 -0.00104000419 0.00409999862
v -0.00227000564 -0.00104000419 0.00409999862
v -0.00227000564 -0.00400000066 0.00409999862
v -0.00325000286 -0.00400000066 0.00409999862
v -0.00325000286 0.00282000005 0.00409999862
v -0.00152999908 0.00282000005 0.00409999862
v -0.00163999945 -0.000160001218 0.00409999862
v -0.00139287114 -0.000149048865 0.00409999862
v -0.0011754632 -0.000117361546 0.00409999862
v -0.000986255705 -6.67199492e-05 0.00409999862
v -0.000823706388 1.11013651e-06 0.00409999862
v -0.000686295331 8.43554735e-05 0.00409999862
v -0.000572502613 0.000181250274 0.00409999862
v -0.000480785966 0.00029001385 0.00409999862
v -0.000409632921 0.000408887863 0.00409999862
v -0.000357501209 0.000536091626 0.00409999862
v -0.00032287091 0.00066985935 0.00409999862
v -0.000304214656 0.000808417797 0.00409999862
v -0.000300005078 0.00095000118 0.00409999862
v -0.000310324132 0.00110470504 0.00409999862
v -0.000336758792 0.00124851614 0.00409999862
v -0.000380001962 0.00138093531 0.00409999862
v -0.000440739095 0.00150147825 0.00409999862
v -0.000519677997 0.00160966069 0.00409999862
v -0.00061750412 0.00170499831 0.00409999862
v -0.000734910369 0.0017869994 0.00409999862
v -0.000872597098 0.00185518712 0.00409999862
v -0.00103124976 0.00190906227 0.00409999862
v -0.00121157616 0.00194814801 0.00409999862
v -0.00141426176 0.00197195262 0.00409999862
v -0.00163999945 0.00197999924 0.00409999862
v -0.00227000564 0.00197999924 0.00409999862
v -0.00227000564 -0.000160001218 0.00409999862
v -0.00119603425 0.00280494988 0.00409999862
v -0.00119603425 0.00280494988 0.00450000539
v -0.000884912908 0.00276046246 0.00409999862
v -0.000884912908 0.00276046246 0.00450000539
v -0.000597812235 0.00268749893 0.00409999862
v -0.000597812235 0.00268749893 0.00450000539
v -0.000335924327 0.0025870353 0.00409999862
v -0.000335924327 0.0025870353 0.00450000539
v -0.000100433826 0.0024600476 0.00409999862
v -0.000100433826 0.0024600476 0.00450000539
v 0.000107496977 0.00230749696 0.00409999862
v 0.000107496977 0.00230749696 0.00450000539
v 0.00028667599 0.00213036686 0.00409999862
v 0.00028667599 0.00213036686 0.00450000539
v 0.00043592602 0.00192962587 0.00409999862
v 0.00043592602 0.00192962587 0.00450000539
v 0.000554062426 0.00170625001 0.00409999862
v 0.000554062426 0.00170625001 0.00450000539
v 0.000639908016 0.00146120042 0.00409999862
v 0.000639908016 0.00146120042 0.00450000539
v 0.000692278147 0.00119546056 0.00409999862
v 0.000692278147 0.00119546056 0.00450000539
v 0.000709995627 0.000909999013 0.00409999862
v 0.000709995627 0.000909999013 0.00450000539
v 0.000701509416 0.000716723502 0.00409999862
v 0.000701509416 0.000716723502 0.00450000539
v 0.000676244497 0.000532127917 0.00409999862
v 0.000676244497 0.000532127917 0.00450000539
v 0.000634528697 0.000356562436 0.00409999862
v 0.000634528697 0.000356562436 0.00450000539
v 0.000576667488 0.000190369785 0.00409999862
v 0.000576667488 0.000190369785 0.00450000539
v 0.000502966344 3.39001417e-05 0.00409999862
v 0.000502966344 3.39001417e-05 0.00450000539
v 0.000413745642 -0.000112503767 0.00409999862
v 0.000413745642 -0.000112503767 0.00450000539
v 0.000309318304 -0.000248484313 0.00409999862
v 0.000309318304 -0.000248484313 0.00450000539
v 0.000189997256 -0.000373706222 0.00409999862
v 0.000189997256 -0.000373706222 0.00450000539
v 5.60954213e-05 -0.000487811863 0.00409999862
v 5.60954213e-05 -0.000487811863 0.00450000539
v -9.20817256e-05 -0.000590465963 0.00409999862
v -9.20817256e-05 -0.000590465963 0.00450000539
v -0.000254221261 -0.000681310892 0.00409999862
v -0.000254221261 -0.000681310892 0.00450000539
v -0.000430002809 -0.000760003924 0.00409999862
v -0.000430002809 -0.000760003924 0.00450000539
v -0.000279784203 -0.000867083669 0.00409999862
v -0.000279784203 -0.000867083669 0.00450000539
v -0.000138245523 -0.000983335078 0.00409999862
v -0.000138245523 -0.000983335078 0.00450000539
v -4.06056643e-06 -0.0011087507 0.00409999862
v -4.06056643e-06 -0.0011087507 0.00450000539
v 0.000124074519 -0.00124333799 0.00409999862
v 0.000124074519 -0.00124333799 0.00450000539
v 0.000247485936 -0.00138708204 0.00409999862
v 0.000247485936 -0.00138708204 0.00450000539
v 0.000367499888 -0.00154000521 0.00409999862
v 0.000367499888 -0.00154000521 0.00450000539
v 0.000485427678 -0.00170208514 0.00409999862
v 0.000485427678 -0.00170208514 0.00450000539
v 0.000602588058 -0.00187333673 0.00409999862
v 0.000602588058 -0.00187333673 0.00450000539
v 0.000720307231 -0.00205375254 0.00409999862
v 0.000720307231 -0.00205375254 0.00450000539
v 0.000839903951 -0.00224333256 0.00409999862
v 0.000839903951 -0.00224333256 0.00450000539
v 0.00096269697 -0.00244208425 0.00409999862
v 0.00096269697 -0.00244208425 0.00450000539
v 0.00108999759 -0.00265000015 0.00409999862
v 0.00108999759 -0.00265000015 0.00450000539
v 0.00116024166 -0.0027628839 0.00409999862
v 0.00116024166 -0.0027628839 0.00450000539
v 0.00122693926 -0.0028680563 0.00409999862
v 0.00122693926 -0.0028680563 0.00450000539
v 0.00129155815 -0.00296781212 0.00409999862
v 0.00129155815 -0.00296781212 0.00450000539
v 0.00135555118 -0.00306444615 0.00409999862
v 0.00135555118 -0.00306444615 0.00450000539
v 0.00142037868 -0.00316024572 0.00409999862
v 0.00142037868 -0.00316024572 0.00450000539
v 0.00148750097 -0.0032575056 0.00409999862
v 0.00148750097 -0.0032575056 0.00450000539
v 0.00155836344 -0.00335850567 0.00409999862
v 0.00155836344 -0.00335850567 0.00450000539
v 0.00163444132 -0.00346555561 0.00409999862
v 0.00163444132 -0.00346555561 0.00450000539
v 0.00171718746 -0.00358094275 0.00409999862
v 0.00171718746 -0.00358094275 0.00450000539
v 0.00180805475 -0.00370694697 0.00409999862
v 0.00180805475 -0.00370694697 0.00450000539
v 0.00190850347 -0.00384587049 0.00409999862
v 0.00190850347 -0.00384587049 0.00450000539
v 0.00202000141 -0.00400000066 0.00409999862
v 0.00202000141 -0.00400000066 0.00450000539
v 0.000849999487 -0.00400000066 0.00409999862
v 0.000849999487 -0.00400000066 0.00450000539
v -5.00008464e-05 -0.00259999931 0.00409999862
v -5.00008464e-05 -0.00259999931 0.00450000539
v -0.000265128911 -0.0022752136 0.00409999862
v -0.000265128911 -0.0022752136 0.00450000539
v -0.000461854041 -0.00199833512 0.00409999862
v -0.000461854041 -0.00199833512 0.00450000539
v -0.000642187893 -0.00176562369 0.00409999862
v -0.000642187893 -0.00176562369 0.00450000539
v -0.000808149576 -0.00157333165 0.00409999862
v -0.000808149576 -0.00157333165 0.00450000539
v -0.000961750746 -0.00141771138 0.00409999862
v -0.000961750746 -0.00141771138 0.00450000539
v -0.00110500306 -0.00129500031 0.00409999862
v -0.00110500306 -0.00129500031 0.00450000539
v -0.00123991817 -0.00120145828 0.00409999862
v -0.00123991817 -0.00120145828 0.00450000539
v -0.00136852264 -0.00113333762 0.00409999862
v -0.00136852264 -0.00113333762 0.00450000539
v -0.00149281323 -0.0010868758 0.00409999862
v -0.00149281323 -0.0010868758 0.00450000539
v -0.00161481649 -0.00105833262 0.00409999862
v -0.00161481649 -0.00105833262 0.00450000539
v -0.00173654407 -0.00104396045 0.00409999862
v -0.00173654407 -0.00104396045 0.00450000539
v -0.00186000019 -0.00104000419 0.00409999862
v -0.00186000019 -0.00104000419 0.00450000539
v -0.00227000564 -0.00104000419 0.00409999862
v -0.00227000564 -0.00104000419 0.00450000539
v -0.00227000564 -0.00400000066 0.00409999862
v -0.00227000564 -0.00400000066 0.00450000539
v -0.00325000286 -0.00400000066 0.00409999862
v -0.00325000286 -0.00400000066 0.00450000539
v -0.00325000286 0.00282000005 0.00409999862
v -0.00325000286 0.00282000005 0.00450000539
v -0.00152999908 0.00282000005 0.00409999862
v -0.00152999908 0.00282000005 0.00450000539
v -0.00163999945 -0.000160001218 0.00409999862
v -0.00163999945 -0.000160001218 0.00450000539
v -0.00139287114 -0.000149048865 0.00409999862
v -0.00139287114 -0.000149048865 0.00450000539
v -0.0011754632 -0.000117361546 0.00409999862
v -0.0011754632 -0.000117361546 0.00450000539
v -0.000986255705 -6.67199492e-05 0.00409999862
v -0.000986255705 -6.67199492e-05 0.00450000539
v -0.000823706388 1.11013651e-06 0.00409999862
v -0.000823706388 1.11013651e-06 0.00450000539
v -0.000686295331 8.43554735e-05 0.00409999862
v -0.000686295331 8.43554735e-05 0.00450000539
v -0.000572502613 0.000181250274 0.00409999862
v -0.000572502613 0.000181250274 0.00450000539
v -0.000480785966 0.00029001385 0.00409999862
v -0.000480785966 0.00029001385 0.00450000539
v -0.000409632921 0.000408887863 0.00409999862
v -0.000409632921 0.000408887863 0.00450000539
v -0.000357501209 0.000536091626 0.00409999862
v -0.000357501209 0.000536091626 0.00450000539
v -0.00032287091 0.00066985935 0.00409999862
v -0.00032287091 0.00066985935 0.00450000539
v -0.000304214656 0.000808417797 0.00409999862
v -0.000304214656 0.000808417797 0.00450000539
v -0.000300005078 0.00095000118 0.00409999862
v -0.000300005078 0.00095000118 0.00450000539
v -0.000310324132 0.00110470504 0.00409999862
v -0.000310324132 0.00110470504 0.00450000539
v -0.000336758792 0.00124851614 0.00409999862
v -0.000336758792 0.00124851614 0.00450000539
v -0.000380001962 0.00138093531 0.00409999862
v -0.000380001962 0.00138093531 0.00450000539
v -0.000440739095 0.00150147825 0.00409999862
v -0.000440739095 0.00150147825 0.00450000539
v -0.000519677997 0.00160966069 0.00409999862
v -0.000519677997 0.00160966069 0.00450000539
v -0.00061750412 0.00170499831 0.00409999862
v -0.00061750412 0.00170499831 0.00450000539
v -0.000734910369 0.0017869994 0.00409999862
v -0.000734910369 0.0017869994 0.00450000539
v -0.000872597098 0.00185518712 0.00409999862
v -0.000872597098 0.00185518712 0.00450000539
v -0.00103124976 0.00190906227 0.00409999862
v -0.00103124976 0.00190906227 0.00450000539
v -0.00121157616 0.00194814801 0.00409999862
v -0.00121157616 0.00194814801 0.00450000539
v -0.00141426176 0.00197195262 0.00409999862
v -0.00141426176 0.00197195262 0.00450000539
v -0.00163999945 0.00197999924 0.00409999862
v -0.00163999945 0.00197999924 0.00450000539
v -0.00227000564 0.00197999924 0.00409999862
v -0.00227000564 0.00197999924 0.00450000539
v -0.00227000564 -0.000160001218 0.00409999862
v -0.00227000564 -0.000160001218 0.00450000539
usemtl screen_white_text_003
f 217 245 218
f 245 219 218
f 245 153 219
f 245 154 153
f 245 155 154
f 245 156 155
f 245 157 156
f 245 158 157
f 245 159 158
f 245 244 159
f 244 160 159
f 217 246 245
f 243 160 244
f 242 160 243
f 241 160 242
f 241 161 160
f 240 161 241
f 239 161 240
f 238 161 239
f 238 162 161
f 237 162 238
f 236 162 237
f 235 162 236
f 235 163 162
f 234 163 235
f 233 163 234
f 233 164 163
f 232 164 233
f 231 164 232
f 231 165 164
f 230 165 231
f 230 166 165
f 229 166 230
f 228 166 229
f 228 167 166
f 227 167 228
f 227 168 167
f 226 168 227
f 226 169 168
f 225 169 226
f 224 169 225
f 224 170 169
f 223 170 224
f 222 170 223
f 222 171 170
f 221 171 222
f 220 171 221
f 217 215 246
f 215 220 246
f 215 171 220
f 215 172 171
f 215 173 172
f 215 174 173
f 215 175 174
f 215 176 175
f 215 177 176
f 215 178 177
f 215 214 178
f 214 213 178
f 213 179 178
f 217 216 215
f 212 179 213
f 211 179 212
f 210 179 211
f 210 180 179
f 209 180 210
f 208 180 209
f 208 181 180
f 207 181 208
f 207 182 181
f 206 182 207
f 206 183 182
f 205 183 206
f 205 184 183
f 204 184 205
f 204 185 184
f 203 185 204
f 203 186 185
f 203 187 186
f 202 187 203
f 202 188 187
f 201 188 202
f 201 189 188
f 201 190 189
f 201 191 190
f 201 192 191
f 201 193 192
f 201 194 193
f 201 195 194
f 201 196 195
f 201 197 196
f 201 198 197
f 201 199 198
f 201 200 199
f 311 312 339
f 339 312 313
f 339 313 247
f 339 247 248
f 339 248 249
f 339 249 250
f 339 250 251
f 339 251 252
f 339 252 253
f 339 253 338
f 338 253 254
f 311 339 340
f 337 338 254
f 336 337 254
f 335 336 254
f 335 254 255
f 334 335 255
f 333 334 255
f 332 333 255
f 332 255 256
f 331 332 256
f 330 331 256
f 329 330 256
f 329 256 257
f 328 329 257
f 327 328 257
f 327 257 258
f 326 327 258
f 325 326 258
f 325 258 259
f 324 325 259
f 324 259 260
f 323 324 260
f 322 323 260
f 322 260 261
f 321 322 261
f 321 261 262
f 320 321 262
f 320 262 263
f 319 320 263
f 318 319 263
f 318 263 264
f 317 318 264
f 316 317 264
f 316 264 265
f 315 316 265
f 314 315 265
f 311 340 309
f 309 340 314
f 309 314 265
f 309 265 266
f 309 266 267
f 309 267 268
f 309 268 269
f 309 269 270
f 309 270 271
f 309 271 272
f 309 272 308
f 308 272 307
f 307 272 273
f 311 309 310
f 306 307 273
f 305 306 273
f 304 305 273
f 304 273 274
f 303 304 274
f 302 303 274
f 302 274 275
f 301 302 275
f 301 275 276
f 300 301 276
f 300 276 277
f 299 300 277
f 299 277 278
f 298 299 278
f 298 278 279
f 297 298 279
f 297 279 280
f 297 280 281
f 296 297 281
f 296 281 282
f 295 296 282
f 295 282 283
f 295 283 284
f 295 284 285
f 295 285 286
f 295 286 287
f 295 287 288
f 295 288 289
f 295 289 290
f 295 290 291
f 295 291 292
f 295 292 293
f 295 293 294
f 342 344 343 341
f 344 346 345 343
f 346 348 347 345
f 348 350 349 347
f 350 352 351 349
f 352 354 353 351
f 354 356 355 353
f 356 358 357 355
f 358 360 359 357
f 360 362 361 359
f 362 364 363 361
f 364 366 365 363
f 366 368 367 365
f 368 370 369 367
f 370 372 371 369
f 372 374 373 371
f 374 376 375 373
f 376 378 377 375
f 378 380 379 377
f 380 382 381 379
f 382 384 383 381
f 384 386 385 383
f 386 388 387 385
f 388 390 389 387
f 390 392 391 389
f 392 394 393 391
f 394 396 395 393
f 396 398 397 395
f 398 400 399 397
f 400 402 401 399
f 402 404 403 401
f 404 406 405 403
f 406 408 407 405
f 408 410 409 407
f 410 412 411 409
f 412 414 413 411
f 414 416 415 413
f 416 418 417 415
f 418 420 419 417
f 420 422 421 419
f 422 424 423 421
f 424 426 425 423
f 426 428 427 425
f 428 430 429 427
f 430 432 431 429
f 432 434 433 431
f 434 436 435 433
f 436 438 437 435
f 438 440 439 437
f 440 442 441 439
f 442 444 443 441
f 444 446 445 443
f 446 448 447 445
f 448 450 449 447
f 450 452 451 449
f 452 454 453 451
f 454 456 455 453
f 456 458 457 455
f 458 460 459 457
f 460 462 461 459
f 462 464 463 461
f 464 466 465 463
f 466 468 467 465
f 468 470 469 467
f 470 472 471 469
f 472 474 473 471
f 474 342 341 473
f 476 478 477 475
f 478 480 479 477
f 480 482 481 479
f 482 484 483 481
f 484 486 485 483
f 486 488 487 485
f 488 490 489 487
f 490 492 491 489
f 492 494 493 491
f 494 496 495 493
f 496 498 497 495
f 498 500 499 497
f 500 502 501 499
f 502 504 503 501
f 504 506 505 503
f 506 508 507 505
f 508 510 509 507
f 510 512 511 509
f 512 514 513 511
f 514 516 515 513
f 516 518 517 515
f 518 520 519 517
f 520 522 521 519
f 522 524 523 521
f 524 526 525 523
f 526 528 527 525
f 528 476 475 527
