mtllib keyboard_key_0_0_esc_link.mtl
o keyboard_key_0_0_esc_link

g keyboard_key_0_0_esc_SOLID
v -0.0164999962 -0.0119999945 0
v -0.0164999962 -0.00849999487 -0.00349999964
v -0.0200000107 -0.00849999487 0
v -0.0164999962 -0.0117335767 -0.00133939087
v -0.0164999962 -0.0109748691 -0.00247487426
v -0.017839402 -0.0117335767 0
v -0.0178729594 -0.0114120394 -0.00137295946
v -0.0178032815 -0.0107968897 -0.00229689106
v -0.0185207129 -0.0105207264 -0.00202072784
v -0.017839402 -0.00849999487 -0.00323357806
v -0.0189748704 -0.00849999487 -0.00247487426
v -0.0164999962 -0.00983938575 -0.00323357806
v -0.0178729594 -0.00987295806 -0.0029120408
v -0.018796891 -0.00980329514 -0.00229689106
v -0.019733578 -0.00983938575 0
v -0.0189748704 -0.0109748691 0
v -0.019733578 -0.00849999487 -0.00133939087
v -0.0194120407 -0.00987295806 -0.00137295946
v -0.018796891 -0.0107968897 -0.00130329654
v 0.0164999962 -0.0119999945 0
v 0.0200000107 -0.00849999487 0
v 0.0164999962 -0.00849999487 -0.00349999964
v 0.017839402 -0.0117335767 0
v 0.0189748704 -0.0109748691 0
v 0.0164999962 -0.0117335767 -0.00133939087
v 0.0178729594 -0.0114120394 -0.00137295946
v 0.018796891 -0.0107968897 -0.00130329654
v 0.0185207129 -0.0105207264 -0.00202072784
v 0.019733578 -0.00849999487 -0.00133939087
v 0.0189748704 -0.00849999487 -0.00247487426
v 0.019733578 -0.00983938575 0
v 0.0194120407 -0.00987295806 -0.00137295946
v 0.018796891 -0.00980329514 -0.00229689106
v 0.0164999962 -0.00983938575 -0.00323357806
v 0.0164999962 -0.0109748691 -0.00247487426
v 0.017839402 -0.00849999487 -0.00323357806
v 0.0178729594 -0.00987295806 -0.0029120408
v 0.0178032815 -0.0107968897 -0.00229689106
v 0.0164999962 0.0119999945 0
v 0.0164999962 0.00849999487 -0.00349999964
v 0.0200000107 0.00849999487 0
v 0.0164999962 0.0117335767 -0.00133939087
v 0.0164999962 0.0109748691 -0.00247487426
v 0.017839402 0.0117335767 0
v 0.0178729594 0.0114120394 -0.00137295946
v 0.0178032815 0.0107968897 -0.00229689106
v 0.0185207129 0.0105207264 -0.00202072784
v 0.017839402 0.00849999487 -0.00323357806
v 0.0189748704 0.00849999487 -0.00247487426
v 0.0164999962 0.00983938575 -0.00323357806
v 0.0178729594 0.00987295806 -0.0029120408
v 0.018796891 0.00980329514 -0.00229689106
v 0.019733578 0.00983938575 0
v 0.0189748704 0.0109748691 0
v 0.019733578 0.00849999487 -0.00133939087
v 0.0194120407 0.00987295806 -0.00137295946
v 0.018796891 0.0107968897 -0.00130329654
v -0.0164999962 0.0119999945 0
v -0.0200000107 0.00849999487 0
v -0.0164999962 0.00849999487 -0.00349999964
v -0.017839402 0.0117335767 0
v -0.0189748704 0.0109748691 0
v -0.0164999962 0.0117335767 -0.00133939087
v -0.0178729594 0.0114120394 -0.00137295946
v -0.018796891 0.0107968897 -0.00130329654
v -0.0185207129 0.0105207264 -0.00202072784
v -0.019733578 0.00849999487 -0.00133939087
v -0.0189748704 0.00849999487 -0.00247487426
v -0.019733578 0.00983938575 0
v -0.0194120407 0.00987295806 -0.00137295946
v -0.018796891 0.00980329514 -0.00229689106
v -0.0164999962 0.00983938575 -0.00323357806
v -0.0164999962 0.0109748691 -0.00247487426
v -0.017839402 0.00849999487 -0.00323357806
v -0.0178729594 0.00987295806 -0.0029120408
v -0.0178032815 0.0107968897 -0.00229689106
v -0.0200000107 -0.00849999487 0
v -0.0164999962 -0.00849999487 0.00350000337
v -0.0164999962 -0.0119999945 0
v -0.019733578 -0.00849999487 0.00133939087
v -0.0189748704 -0.00849999487 0.00247487426
v -0.019733578 -0.00983938575 0
v -0.0194120407 -0.00987295806 0.00137295946
v -0.018796891 -0.00980329514 0.00229689106
v -0.0185207129 -0.0105207264 0.00202072784
v -0.0164999962 -0.00983938575 0.00323357806
v -0.0164999962 -0.0109748691 0.00247487426
v -0.017839402 -0.00849999487 0.00323357806
v -0.0178729594 -0.00987295806 0.0029120408
v -0.0178032815 -0.0107968897 0.00229689106
v -0.017839402 -0.0117335767 0
v -0.0189748704 -0.0109748691 0
v -0.0164999962 -0.0117335767 0.00133939087
v -0.0178729594 -0.0114120394 0.00137295946
v -0.018796891 -0.0107968897 0.00130329654
v 0.0164999962 -0.0119999945 0
v 0.0164999962 -0.00849999487 0.00350000337
v 0.0200000107 -0.00849999487 0
v 0.0164999962 -0.0117335767 0.00133939087
v 0.0164999962 -0.0109748691 0.00247487426
v 0.017839402 -0.0117335767 0
v 0.0178729594 -0.0114120394 0.00137295946
v 0.0178032815 -0.0107968897 0.00229689106
v 0.0185207129 -0.0105207264 0.00202072784
v 0.017839402 -0.00849999487 0.00323357806
v 0.0189748704 -0.00849999487 0.00247487426
v 0.0164999962 -0.00983938575 0.00323357806
v 0.0178729594 -0.00987295806 0.0029120408
v 0.018796891 -0.00980329514 0.00229689106
v 0.019733578 -0.00983938575 0
v 0.0189748704 -0.0109748691 0
v 0.019733578 -0.00849999487 0.00133939087
v 0.0194120407 -0.00987295806 0.00137295946
v 0.018796891 -0.0107968897 0.00130329654
v 0.0164999962 0.00849999487 0.00350000337
v 0.0164999962 0.0119999945 0
v 0.0200000107 0.00849999487 0
v 0.0164999962 0.00983938575 0.00323357806
v 0.0164999962 0.0109748691 0.00247487426
v 0.017839402 0.00849999487 0.00323357806
v 0.0178729594 0.00987295806 0.0029120408
v 0.0178032815 0.0107968897 0.00229689106
v 0.0185207129 0.0105207264 0.00202072784
v 0.017839402 0.0117335767 0
v 0.0189748704 0.0109748691 0
v 0.0164999962 0.0117335767 0.00133939087
v 0.0178729594 0.0114120394 0.00137295946
v 0.018796891 0.0107968897 0.00130329654
v 0.019733578 0.00849999487 0.00133939087
v 0.0189748704 0.00849999487 0.00247487426
v 0.019733578 0.00983938575 0
v 0.0194120407 0.00987295806 0.00137295946
v 0.018796891 0.00980329514 0.00229689106
v -0.0200000107 0.00849999487 0
v -0.0164999962 0.0119999945 0
v -0.0164999962 0.00849999487 0.00350000337
v -0.019733578 0.00983938575 0
v -0.0189748704 0.0109748691 0
v -0.019733578 0.00849999487 0.00133939087
v -0.0194120407 0.00987295806 0.00137295946
v -0.018796891 0.0107968897 0.00130329654
v -0.0185207129 0.0105207264 0.00202072784
v -0.0164999962 0.0117335767 0.00133939087
v -0.0164999962 0.0109748691 0.00247487426
v -0.017839402 0.0117335767 0
v -0.0178729594 0.0114120394 0.00137295946
v -0.0178032815 0.0107968897 0.00229689106
v -0.017839402 0.00849999487 0.00323357806
v -0.0189748704 0.00849999487 0.00247487426
v -0.0164999962 0.00983938575 0.00323357806
v -0.0178729594 0.00987295806 0.0029120408
v -0.018796891 0.00980329514 0.00229689106
usemtl matte_black_keycaps_003
f 59 134 77 3
f 2 22 40 60
f 39 116 135 58
f 78 136 115 97
f 21 98 117 41
f 1 4 7 6
f 4 5 8 7
f 6 7 19 16
f 7 8 9 19
f 2 10 13 12
f 10 11 14 13
f 12 13 8 5
f 13 14 9 8
f 3 15 18 17
f 15 16 19 18
f 17 18 14 11
f 18 19 9 14
f 20 23 26 25
f 23 24 27 26
f 25 26 38 35
f 26 27 28 38
f 21 29 32 31
f 29 30 33 32
f 31 32 27 24
f 32 33 28 27
f 22 34 37 36
f 34 35 38 37
f 36 37 33 30
f 37 38 28 33
f 39 42 45 44
f 42 43 46 45
f 44 45 57 54
f 45 46 47 57
f 40 48 51 50
f 48 49 52 51
f 50 51 46 43
f 51 52 47 46
f 41 53 56 55
f 53 54 57 56
f 55 56 52 49
f 56 57 47 52
f 58 61 64 63
f 61 62 65 64
f 63 64 76 73
f 64 65 66 76
f 59 67 70 69
f 67 68 71 70
f 69 70 65 62
f 70 71 66 65
f 60 72 75 74
f 72 73 76 75
f 74 75 71 68
f 75 76 66 71
f 77 80 83 82
f 80 81 84 83
f 82 83 95 92
f 83 84 85 95
f 78 86 89 88
f 86 87 90 89
f 88 89 84 81
f 89 90 85 84
f 79 91 94 93
f 91 92 95 94
f 93 94 90 87
f 94 95 85 90
f 96 99 102 101
f 99 100 103 102
f 101 102 114 111
f 102 103 104 114
f 97 105 108 107
f 105 106 109 108
f 107 108 103 100
f 108 109 104 103
f 98 110 113 112
f 110 111 114 113
f 112 113 109 106
f 113 114 104 109
f 115 118 121 120
f 118 119 122 121
f 120 121 133 130
f 121 122 123 133
f 116 124 127 126
f 124 125 128 127
f 126 127 122 119
f 127 128 123 122
f 117 129 132 131
f 129 130 133 132
f 131 132 128 125
f 132 133 123 128
f 134 137 140 139
f 137 138 141 140
f 139 140 152 149
f 140 141 142 152
f 135 143 146 145
f 143 144 147 146
f 145 146 141 138
f 146 147 142 141
f 136 148 151 150
f 148 149 152 151
f 150 151 147 144
f 151 152 142 147
f 39 58 63 42
f 42 63 73 43
f 43 73 72 50
f 50 72 60 40
f 1 20 25 4
f 4 25 35 5
f 5 35 34 12
f 12 34 22 2
f 21 41 55 29
f 29 55 49 30
f 30 49 48 36
f 36 48 40 22
f 2 60 74 10
f 10 74 68 11
f 11 68 67 17
f 17 67 59 3
f 3 77 82 15
f 15 82 92 16
f 16 92 91 6
f 6 91 79 1
f 78 97 107 86
f 86 107 100 87
f 87 100 99 93
f 93 99 96 79
f 97 115 120 105
f 105 120 130 106
f 106 130 129 112
f 112 129 117 98
f 77 134 139 80
f 80 139 149 81
f 81 149 148 88
f 88 148 136 78
f 20 96 101 23
f 23 101 111 24
f 24 111 110 31
f 31 110 98 21
f 41 117 131 53
f 53 131 125 54
f 54 125 124 44
f 44 124 116 39
f 115 136 150 118
f 118 150 144 119
f 119 144 143 126
f 126 143 135 116
f 58 135 145 61
f 61 145 138 62
f 62 138 137 69
f 69 137 134 59
f 1 79 96 20

g key_legend_0_0_esc
v 0.00315511227 -0.000719949603 0.00450000539
v 0.00307267904 -0.000670552254 0.00450000539
v 0.00299414992 -0.000627472997 0.00450000539
v 0.00291895866 -0.000590369105 0.00450000539
v 0.00284656882 -0.000558912754 0.00450000539
v 0.00277647376 -0.000532746315 0.00450000539
v 0.00270813704 -0.000511556864 0.00450000539
v 0.00264102221 -0.000494971871 0.00450000539
v 0.00257456303 -0.000482663512 0.00450000539
v 0.00250828266 -0.00047428906 0.00450000539
v 0.00244158506 -0.000469520688 0.00450000539
v 0.0023739934 -0.00046800077 0.00450000539
v 0.00223600864 -0.000476777554 0.00450000539
v 0.00210607052 -0.000502586365 0.00450000539
v 0.00198492408 -0.000544667244 0.00450000539
v 0.00187334418 -0.000602304935 0.00450000539
v 0.00177207589 -0.000674694777 0.00450000539
v 0.00168186426 -0.000761121511 0.00450000539
v 0.00160345435 -0.000860825181 0.00450000539
v 0.00153762102 -0.000973045826 0.00450000539
v 0.00148507953 -0.00109702349 0.00450000539
v 0.00144663453 -0.00123201311 0.00450000539
v 0.00142303109 -0.00137725472 0.00450000539
v 0.00141498446 -0.00153200328 0.00450000539
v 0.00142362714 -0.00168928504 0.00450000539
v 0.00144907832 -0.00183530152 0.00450000539
v 0.00149068236 -0.00196960568 0.00450000539
v 0.00154772401 -0.0020917356 0.00450000539
v 0.00161954761 -0.00220122933 0.00450000539
v 0.0017054975 -0.00229762495 0.00450000539
v 0.00180482864 -0.0023804605 0.00450000539
v 0.00191691518 -0.00244925916 0.00450000539
v 0.00204104185 -0.00250357389 0.00450000539
v 0.00217655301 -0.00254295766 0.00450000539
v 0.0023227632 -0.00256691873 0.00450000539
v 0.00247898698 -0.00257499516 0.00450000539
v 0.00254523754 -0.00257354975 0.00450000539
v 0.00261116028 -0.00256916881 0.00450000539
v 0.00267705321 -0.00256188214 0.00450000539
v 0.00274315476 -0.00255167484 0.00450000539
v 0.00280976295 -0.00253854692 0.00450000539
v 0.0028771162 -0.00252249837 0.00450000539
v 0.00294548273 -0.00250354409 0.00450000539
v 0.00301513076 -0.00248166919 0.00450000539
v 0.00308635831 -0.00245687366 0.00450000539
v 0.003159374 -0.0024291724 0.00450000539
v 0.00323450565 -0.00239855051 0.00450000539
v 0.00331199169 -0.002365008 0.00450000539
v 0.00331199169 -0.0029810071 0.00450000539
v 0.0032556951 -0.00300517678 0.00450000539
v 0.00319242477 -0.003028512 0.00450000539
v 0.00312310457 -0.00305078924 0.00450000539
v 0.00304856896 -0.00307174027 0.00450000539
v 0.00296977162 -0.00309114158 0.00450000539
v 0.00288760662 -0.00310875475 0.00450000539
v 0.00280296803 -0.00312431157 0.00450000539
v 0.0027167201 -0.0031375885 0.00450000539
v 0.00262981653 -0.00314834714 0.00450000539
v 0.00254312158 -0.00315631926 0.00450000539
v 0.00245752931 -0.00316129625 0.00450000539
v 0.0023739934 -0.00316299498 0.00450000539
v 0.00214552879 -0.00314965844 0.00450000539
v 0.001930058 -0.00311049819 0.00450000539
v 0.00172889233 -0.00304684043 0.00450000539
v 0.00154331326 -0.00295999646 0.00450000539
v 0.00137466192 -0.00285127759 0.00450000539
v 0.0012242198 -0.00272199512 0.00450000539
v 0.0010933578 -0.00257347524 0.00450000539
v 0.000983327627 -0.00240699947 0.00450000539
v 0.000895440578 -0.0022239089 0.00450000539
v 0.000831067562 -0.00202549994 0.00450000539
v 0.000791460276 -0.00181309879 0.00450000539
v 0.000777989626 -0.00158800185 0.00450000539
v 0.000790387392 -0.00133703649 0.00450000539
v 0.000826984644 -0.00110280514 0.00450000539
v 0.000886917114 -0.000886246562 0.00450000539
v 0.000969320536 -0.000688374043 0.00450000539
v 0.00107330084 -0.000510126352 0.00450000539
v 0.00119799376 -0.000352501869 0.00450000539
v 0.00134250522 -0.000216454268 0.00450000539
v 0.00150597095 -0.000102967024 0.00450000539
v 0.00168755651 -1.30087137e-05 0.00450000539
v 0.00188630819 5.24669886e-05 0.00450000539
v 0.00210142136 9.2446804e-05 0.00450000539
v 0.00233197212 0.00010599196 0.00450000539
v 0.00242060423 0.000104263425 0.00450000539
v 0.0025048852 9.91672277e-05 0.00450000539
v 0.00258541107 9.07927752e-05 0.00450000539
v 0.0026628077 7.92890787e-05 0.00450000539
v 0.00273767114 6.47753477e-05 0.00450000539
v 0.00281059742 4.73707914e-05 0.00450000539
v 0.0028822422 2.71946192e-05 0.00450000539
v 0.00295317173 4.36604023e-06 0.00450000539
v 0.00302401185 -2.0980835e-05 0.00450000539
v 0.00309532881 -4.87416983e-05 0.00450000539
v 0.00316780806 -7.87973404e-05 0.00450000539
v 0.00324198604 -0.00011099875 0.00450000539
v 0.00324198604 -0.000776007771 0.00450000539
v -2.30371952e-05 -0.00071400404 0.00450000539
v -0.000108897686 -0.000664427876 0.00450000539
v -0.00019338727 -0.000620141625 0.00450000539
v -0.000276178122 -0.000581040978 0.00450000539
v -0.00035700202 -0.000546991825 0.00450000539
v -0.000435650349 -0.000517874956 0.00450000539
v -0.000511795282 -0.000493571162 0.00450000539
v -0.000585198402 -0.000473961234 0.00450000539
v -0.000655591488 -0.000458925962 0.00450000539
v -0.000722706318 -0.000448331237 0.00450000539
v -0.000786274672 -0.000442057848 0.00450000539
v -0.000846028328 -0.000440001488 0.00450000539
v -0.000907093287 -0.000442445278 0.00450000539
v -0.000964105129 -0.000449597836 0.00450000539
v -0.00101685524 -0.000461220741 0.00450000539
v -0.0010651052 -0.000477075577 0.00450000539
v -0.00110855699 -0.000496923923 0.00450000539
v -0.00114700198 -0.000520497561 0.00450000539
v -0.00118023157 -0.000547587872 0.00450000539
v -0.00120794773 -0.000577926636 0.00450000539
v -0.00122991204 -0.000611290336 0.00450000539
v -0.00124591589 -0.00064741075 0.00450000539
v -0.00125569105 -0.000686064363 0.00450000539
v -0.00125902891 -0.000726997852 0.00450000539
v -0.00125455856 -0.000762656331 0.00450000539
v -0.0012409091 -0.000799924135 0.00450000539
v -0.00121757388 -0.000839218497 0.00450000539
v -0.00118407607 -0.000881001353 0.00450000539
v -0.00114002824 -0.000925704837 0.00450000539
v -0.00108489394 -0.000973746181 0.00450000539
v -0.00101825595 -0.00102560222 0.00450000539
v -0.00093960762 -0.00108167529 0.00450000539
v -0.000848531723 -0.00114241242 0.00450000539
v -0.00074455142 -0.00120824575 0.00450000539
v -0.000627189875 -0.00127963722 0.00450000539
v -0.000496029854 -0.00135700405 0.00450000539
v -0.00037330389 -0.00144025683 0.00450000539
v -0.000263780355 -0.00151906908 0.00450000539
v -0.000167012215 -0.00159423053 0.00450000539
v -8.24928284e-05 -0.00166656077 0.00450000539
v -9.74535942e-06 -0.00173683465 0.00450000539
v 5.17368317e-05 -0.00180587173 0.00450000539
v 0.000102430582 -0.00187447667 0.00450000539
v 0.000142812729 -0.00194343925 0.00450000539
v 0.000173360109 -0.00201357901 0.00450000539
v 0.000194579363 -0.00208568573 0.00450000539
v 0.000206977129 -0.00216054916 0.00450000539
v 0.00021097064 -0.00223900378 0.00450000539
v 0.000201970339 -0.00237335265 0.00450000539
v 0.000175565481 -0.00249946117 0.00450000539
v 0.000132769346 -0.00261667371 0.00450000539
v 7.46250153e-05 -0.0027243346 0.00450000539
v 2.05636024e-06 -0.00282178819 0.00450000539
v -8.38935375e-05 -0.00290837884 0.00450000539
v -0.000182241201 -0.00298345089 0.00450000539
v -0.000291973352 -0.00304633379 0.00450000539
v -0.000412136316 -0.00309638679 0.00450000539
v -0.000541687012 -0.00313295424 0.00450000539
v -0.000679641962 -0.00315538049 0.00450000539
v -0.000825017691 -0.00316299498 0.00450000539
v -0.000919640064 -0.00316137075 0.00450000539
v -0.00101140141 -0.00315631926 0.00450000539
v -0.00110095739 -0.00314769149 0.00450000539
v -0.00118902326 -0.00313526392 0.00450000539
v -0.00127619505 -0.00311884284 0.00450000539
v -0.00136312842 -0.00309824944 0.00450000539
v -0.00145053864 -0.00307327509 0.00450000539
v -0.00153902173 -0.00304374099 0.00450000539
v -0.00162926316 -0.00300943851 0.00450000539
v -0.00172188878 -0.00297017395 0.00450000539
v -0.00181758404 -0.00292576849 0.00450000539
v -0.00191700459 -0.00287599862 0.00450000539
v -0.00191700459 -0.00220400095 0.00450000539
v -0.00181630254 -0.00227095187 0.00450000539
v -0.00171732903 -0.00233182311 0.00450000539
v -0.00162038207 -0.00238665938 0.00450000539
v -0.0015257895 -0.00243552029 0.00450000539
v -0.00143381953 -0.00247845054 0.00450000539
v -0.00134477019 -0.00251549482 0.00450000539
v -0.0012589097 -0.00254671276 0.00450000539
v -0.00117656589 -0.00257214904 0.00450000539
v -0.00109800696 -0.00259184837 0.00450000539
v -0.00102353096 -0.00260585546 0.00450000539
v -0.000953435898 -0.00261422992 0.00450000539
v -0.0008880198 -0.00261700153 0.00450000539
v -0.000826001167 -0.00261130929 0.00450000539
v -0.000766307116 -0.00260125101 0.00450000539
v -0.000709503889 -0.00258681178 0.00450000539
v -0.000656247139 -0.00256800652 0.00450000539
v -0.000607043505 -0.00254482031 0.00450000539
v -0.000562518835 -0.00251725316 0.00450000539
v -0.000523239374 -0.00248531997 0.00450000539
v -0.000489801168 -0.00244900584 0.00450000539
v -0.000462770462 -0.00240831077 0.00450000539
v -0.000442743301 -0.00236324966 0.00450000539
v -0.000430285931 -0.00231380761 0.00450000539
v -0.000426024199 -0.00225999951 0.00450000539
v -0.000454932451 -0.00215525925 0.00450000539
v -0.000534892082 -0.00205612183 0.00450000539
v -0.000655710697 -0.00195977092 0.00450000539
v -0.000807136297 -0.0018633306 0.00450000539
v -0.000978976488 -0.00176398456 0.00450000539
v -0.00116100907 -0.00165887177 0.00450000539
v -0.00134307146 -0.00154516101 0.00450000539
v -0.00151491165 -0.00142000616 0.00450000539
v -0.00166633725 -0.00128054619 0.00450000539
v -0.00178712606 -0.00112396479 0.00450000539
v -0.0018670857 -0.000947386026 0.00450000539
v -0.00189602375 -0.00074800849 0.00450000539
v -0.0018876493 -0.000619441271 0.00450000539
v -0.00186303258 -0.000500023365 0.00450000539
v -0.00182273984 -0.000390127301 0.00450000539
v -0.00176742673 -0.000290155411 0.00450000539
v -0.0016977191 -0.000200480223 0.00450000539
v -0.00161427259 -0.000121504068 0.00450000539
v -0.00151768327 -5.3614378e-05 0.00450000539
v -0.00140860677 2.81631947e-06 0.00450000539
v -0.00128766894 4.73707914e-05 0.00450000539
v -0.00115549564 7.96765089e-05 0.00450000539
v -0.00101274252 9.93609428e-05 0.00450000539
v -0.000860005617 0.00010599196 0.00450000539
v -0.000786364079 0.000104248524 0.00450000539
v -0.00071233511 9.89586115e-05 0.00450000539
v -0.000637888908 9.01371241e-05 0.00450000539
v -0.000562906265 7.77393579e-05 0.00450000539
v -0.000487357378 6.17355108e-05 0.00450000539
v -0.00041115284 4.21255827e-05 0.00450000539
v -0.000334203243 1.88648701e-05 0.00450000539
v -0.000256448984 -8.07642937e-06 0.00450000539
v -0.000177830458 -3.86983156e-05 0.00450000539
v -9.82880592e-05 -7.30454922e-05 0.00450000539
v -1.77025795e-05 -0.000111147761 0.00450000539
v 6.39855862e-05 -0.000153005123 0.00450000539
v 6.39855862e-05 -0.000769004226 0.00450000539
v -0.00258490443 -0.00285224617 0.00450000539
v -0.0026781261 -0.00290697813 0.00450000539
v -0.00277146697 -0.00295628607 0.00450000539
v -0.00286564231 -0.00300018489 0.00450000539
v -0.00296148658 -0.0030387491 0.00450000539
v -0.00305977464 -0.00307200849 0.00450000539
v -0.00316125154 -0.00310000777 0.00450000539
v -0.00326672196 -0.00312282145 0.00450000539
v -0.00337696075 -0.00314046443 0.00450000539
v -0.00349274278 -0.0031530261 0.00450000539
v -0.00361481309 -0.00316052139 0.00450000539
v -0.00374400616 -0.00316299498 0.00450000539
v -0.00397992134 -0.00314666331 0.00450000539
v -0.00419732928 -0.00309935212 0.00450000539
v -0.00439590216 -0.00302365422 0.00450000539
v -0.00457519293 -0.00292214751 0.00450000539
v -0.00473487377 -0.00279740989 0.00450000539
v -0.00487452745 -0.00265200436 0.00450000539
v -0.00499373674 -0.00248850882 0.00450000539
v -0.00509217381 -0.00230951607 0.00450000539
v -0.00516939163 -0.00211758912 0.00450000539
v -0.00522503257 -0.00191532075 0.00450000539
v -0.00525870919 -0.00170525908 0.00450000539
v -0.00527000427 -0.00148999691 0.00450000539
v -0.00525766611 -0.00125861168 0.00450000539
v -0.00522139668 -0.00104121864 0.00450000539
v -0.00516238809 -0.00083899498 0.00450000539
v -0.00508180261 -0.000653117895 0.00450000539
v -0.00498077273 -0.000484719872 0.00450000539
v -0.00486052036 -0.000335007906 0.00450000539
v -0.00472217798 -0.000205114484 0.00450000539
v -0.00456690788 -9.62167978e-05 0.00450000539
v -0.00439590216 -9.50694084e-06 0.00450000539
v -0.00421029329 5.38825989e-05 0.00450000539
v -0.00401127338 9.27746296e-05 0.00450000539
v -0.00380000472 0.00010599196 0.00450000539
v -0.00359818339 9.41753387e-05 0.00450000539
v -0.0034096837 5.86211681e-05 0.00450000539
v -0.00323531032 -7.4505806e-07 0.00450000539
v -0.00307589769 -8.40425491e-05 0.00450000539
v -0.0029322505 -0.000191345811 0.00450000539
v -0.00280514359 -0.000322759151 0.00450000539
v -0.00269538164 -0.000478371978 0.00450000539
v -0.0026037991 -0.000658303499 0.00450000539
v -0.00253117085 -0.000862628222 0.00450000539
v -0.00247827172 -0.00109145045 0.00450000539
v -0.00244596601 -0.0013448745 0.00450000539
v -0.00243502855 -0.00162300467 0.00450000539
v -0.00464701653 -0.00162300467 0.00450000539
v -0.0046171248 -0.00177246332 0.00450000539
v -0.00457650423 -0.00190931559 0.00450000539
v -0.00452518463 -0.00203348696 0.00450000539
v -0.0044631958 -0.00214488804 0.00450000539
v -0.00439062715 -0.00224345922 0.00450000539
v -0.00430750847 -0.002329126 0.00450000539
v -0.00421389937 -0.00240181386 0.00450000539
v -0.00410982966 -0.00246144831 0.00450000539
v -0.00399535894 -0.00250795484 0.00450000539
v -0.00387054682 -0.00254125893 0.00450000539
v -0.00373539329 -0.00256130099 0.00450000539
v -0.00359001756 -0.00256800652 0.00450000539
v -0.00349593163 -0.00256511569 0.00450000539
v -0.00340265036 -0.00255653262 0.00450000539
v -0.00331002474 -0.00254240632 0.00450000539
v -0.00321796536 -0.0025228858 0.00450000539
v -0.00312644243 -0.00249812007 0.00450000539
v -0.00303527713 -0.00246825814 0.00450000539
v -0.00294440985 -0.00243341923 0.00450000539
v -0.00285372138 -0.00239378214 0.00450000539
v -0.00276315212 -0.00234946609 0.00450000539
v -0.00267255306 -0.00230063498 0.00450000539
v -0.0025818944 -0.00224743783 0.00450000539
v -0.00249102712 -0.00219000876 0.00450000539
v -0.00249102712 -0.00279200077 0.00450000539
v -0.00306147337 -0.00109471381 0.00450000539
v -0.00308212638 -0.000987172127 0.00450000539
v -0.00311270356 -0.000887781382 0.00450000539
v -0.00315290689 -0.000797003508 0.00450000539
v -0.00320243835 -0.000715255737 0.00450000539
v -0.00326102972 -0.000643000007 0.00450000539
v -0.00332835317 -0.000580653548 0.00450000539
v -0.00340414047 -0.000528663397 0.00450000539
v -0.00348809361 -0.000487476587 0.00450000539
v -0.00357991457 -0.000457495451 0.00450000539
v -0.00367930532 -0.000439196825 0.00450000539
v -0.00378602743 -0.000432997942 0.00450000539
v -0.0039010644 -0.000438794494 0.00450000539
v -0.00400820374 -0.000456050038 0.00450000539
v -0.00410735607 -0.000484511256 0.00450000539
v -0.00419849157 -0.000523999333 0.00450000539
v -0.00428158045 -0.000574275851 0.00450000539
v -0.00435650349 -0.000635132194 0.00450000539
v -0.00442329049 -0.000706329942 0.00450000539
v -0.00448188186 -0.000787675381 0.00450000539
v -0.00453218818 -0.000878930092 0.00450000539
v -0.00457417965 -0.000979870558 0.00450000539
v -0.00460779667 -0.00109030306 0.00450000539
v -0.00463300943 -0.00121000409 0.00450000539
v -0.00305101275 -0.00121000409 0.00450000539
v 0.00315511227 -0.000719949603 0.00409999862
v 0.00307267904 -0.000670552254 0.00409999862
v 0.00299414992 -0.000627472997 0.00409999862
v 0.00291895866 -0.000590369105 0.00409999862
v 0.00284656882 -0.000558912754 0.00409999862
v 0.00277647376 -0.000532746315 0.00409999862
v 0.00270813704 -0.000511556864 0.00409999862
v 0.00264102221 -0.000494971871 0.00409999862
v 0.00257456303 -0.000482663512 0.00409999862
v 0.00250828266 -0.00047428906 0.00409999862
v 0.00244158506 -0.000469520688 0.00409999862
v 0.0023739934 -0.00046800077 0.00409999862
v 0.00223600864 -0.000476777554 0.00409999862
v 0.00210607052 -0.000502586365 0.00409999862
v 0.00198492408 -0.000544667244 0.00409999862
v 0.00187334418 -0.000602304935 0.00409999862
v 0.00177207589 -0.000674694777 0.00409999862
v 0.00168186426 -0.000761121511 0.00409999862
v 0.00160345435 -0.000860825181 0.00409999862
v 0.00153762102 -0.000973045826 0.00409999862
v 0.00148507953 -0.00109702349 0.00409999862
v 0.00144663453 -0.00123201311 0.00409999862
v 0.00142303109 -0.00137725472 0.00409999862
v 0.00141498446 -0.00153200328 0.00409999862
v 0.00142362714 -0.00168928504 0.00409999862
v 0.00144907832 -0.00183530152 0.00409999862
v 0.00149068236 -0.00196960568 0.00409999862
v 0.00154772401 -0.0020917356 0.00409999862
v 0.00161954761 -0.00220122933 0.00409999862
v 0.0017054975 -0.00229762495 0.00409999862
v 0.00180482864 -0.0023804605 0.00409999862
v 0.00191691518 -0.00244925916 0.00409999862
v 0.00204104185 -0.00250357389 0.00409999862
v 0.00217655301 -0.00254295766 0.00409999862
v 0.0023227632 -0.00256691873 0.00409999862
v 0.00247898698 -0.00257499516 0.00409999862
v 0.00254523754 -0.00257354975 0.00409999862
v 0.00261116028 -0.00256916881 0.00409999862
v 0.00267705321 -0.00256188214 0.00409999862
v 0.00274315476 -0.00255167484 0.00409999862
v 0.00280976295 -0.00253854692 0.00409999862
v 0.0028771162 -0.00252249837 0.00409999862
v 0.00294548273 -0.00250354409 0.00409999862
v 0.00301513076 -0.00248166919 0.00409999862
v 0.00308635831 -0.00245687366 0.00409999862
v 0.003159374 -0.0024291724 0.00409999862
v 0.00323450565 -0.00239855051 0.00409999862
v 0.00331199169 -0.002365008 0.00409999862
v 0.00331199169 -0.0029810071 0.00409999862
v 0.0032556951 -0.00300517678 0.00409999862
v 0.00319242477 -0.003028512 0.00409999862
v 0.00312310457 -0.00305078924 0.00409999862
v 0.00304856896 -0.00307174027 0.00409999862
v 0.00296977162 -0.00309114158 0.00409999862
v 0.00288760662 -0.00310875475 0.00409999862
v 0.00280296803 -0.00312431157 0.00409999862
v 0.0027167201 -0.0031375885 0.00409999862
v 0.00262981653 -0.00314834714 0.00409999862
v 0.00254312158 -0.00315631926 0.00409999862
v 0.00245752931 -0.00316129625 0.00409999862
v 0.0023739934 -0.00316299498 0.00409999862
v 0.00214552879 -0.00314965844 0.00409999862
v 0.001930058 -0.00311049819 0.00409999862
v 0.00172889233 -0.00304684043 0.00409999862
v 0.00154331326 -0.00295999646 0.00409999862
v 0.00137466192 -0.00285127759 0.00409999862
v 0.0012242198 -0.00272199512 0.00409999862
v 0.0010933578 -0.00257347524 0.00409999862
v 0.000983327627 -0.00240699947 0.00409999862
v 0.000895440578 -0.0022239089 0.00409999862
v 0.000831067562 -0.00202549994 0.00409999862
v 0.000791460276 -0.00181309879 0.00409999862
v 0.000777989626 -0.00158800185 0.00409999862
v 0.000790387392 -0.00133703649 0.00409999862
v 0.000826984644 -0.00110280514 0.00409999862
v 0.000886917114 -0.000886246562 0.00409999862
v 0.000969320536 -0.000688374043 0.00409999862
v 0.00107330084 -0.000510126352 0.00409999862
v 0.00119799376 -0.000352501869 0.00409999862
v 0.00134250522 -0.000216454268 0.00409999862
v 0.00150597095 -0.000102967024 0.00409999862
v 0.00168755651 -1.30087137e-05 0.00409999862
v 0.00188630819 5.24669886e-05 0.00409999862
v 0.00210142136 9.2446804e-05 0.00409999862
v 0.00233197212 0.00010599196 0.00409999862
v 0.00242060423 0.000104263425 0.00409999862
v 0.0025048852 9.91672277e-05 0.00409999862
v 0.00258541107 9.07927752e-05 0.00409999862
v 0.0026628077 7.92890787e-05 0.00409999862
v 0.00273767114 6.47753477e-05 0.00409999862
v 0.00281059742 4.73707914e-05 0.00409999862
v 0.0028822422 2.71946192e-05 0.00409999862
v 0.00295317173 4.36604023e-06 0.00409999862
v 0.00302401185 -2.0980835e-05 0.00409999862
v 0.00309532881 -4.87416983e-05 0.00409999862
v 0.00316780806 -7.87973404e-05 0.00409999862
v 0.00324198604 -0.00011099875 0.00409999862
v 0.00324198604 -0.000776007771 0.00409999862
v -2.30371952e-05 -0.00071400404 0.00409999862
v -0.000108897686 -0.000664427876 0.00409999862
v -0.00019338727 -0.000620141625 0.00409999862
v -0.000276178122 -0.000581040978 0.00409999862
v -0.00035700202 -0.000546991825 0.00409999862
v -0.000435650349 -0.000517874956 0.00409999862
v -0.000511795282 -0.000493571162 0.00409999862
v -0.000585198402 -0.000473961234 0.00409999862
v -0.000655591488 -0.000458925962 0.00409999862
v -0.000722706318 -0.000448331237 0.00409999862
v -0.000786274672 -0.000442057848 0.00409999862
v -0.000846028328 -0.000440001488 0.00409999862
v -0.000907093287 -0.000442445278 0.00409999862
v -0.000964105129 -0.000449597836 0.00409999862
v -0.00101685524 -0.000461220741 0.00409999862
v -0.0010651052 -0.000477075577 0.00409999862
v -0.00110855699 -0.000496923923 0.00409999862
v -0.00114700198 -0.000520497561 0.00409999862
v -0.00118023157 -0.000547587872 0.00409999862
v -0.00120794773 -0.000577926636 0.00409999862
v -0.00122991204 -0.000611290336 0.00409999862
v -0.00124591589 -0.00064741075 0.00409999862
v -0.00125569105 -0.000686064363 0.00409999862
v -0.00125902891 -0.000726997852 0.00409999862
v -0.00125455856 -0.000762656331 0.00409999862
v -0.0012409091 -0.000799924135 0.00409999862
v -0.00121757388 -0.000839218497 0.00409999862
v -0.00118407607 -0.000881001353 0.00409999862
v -0.00114002824 -0.000925704837 0.00409999862
v -0.00108489394 -0.000973746181 0.00409999862
v -0.00101825595 -0.00102560222 0.00409999862
v -0.00093960762 -0.00108167529 0.00409999862
v -0.000848531723 -0.00114241242 0.00409999862
v -0.00074455142 -0.00120824575 0.00409999862
v -0.000627189875 -0.00127963722 0.00409999862
v -0.000496029854 -0.00135700405 0.00409999862
v -0.00037330389 -0.00144025683 0.00409999862
v -0.000263780355 -0.00151906908 0.00409999862
v -0.000167012215 -0.00159423053 0.00409999862
v -8.24928284e-05 -0.00166656077 0.00409999862
v -9.74535942e-06 -0.00173683465 0.00409999862
v 5.17368317e-05 -0.00180587173 0.00409999862
v 0.000102430582 -0.00187447667 0.00409999862
v 0.000142812729 -0.00194343925 0.00409999862
v 0.000173360109 -0.00201357901 0.00409999862
v 0.000194579363 -0.00208568573 0.00409999862
v 0.000206977129 -0.00216054916 0.00409999862
v 0.00021097064 -0.00223900378 0.00409999862
v 0.000201970339 -0.00237335265 0.00409999862
v 0.000175565481 -0.00249946117 0.00409999862
v 0.000132769346 -0.00261667371 0.00409999862
v 7.46250153e-05 -0.0027243346 0.00409999862
v 2.05636024e-06 -0.00282178819 0.00409999862
v -8.38935375e-05 -0.00290837884 0.00409999862
v -0.000182241201 -0.00298345089 0.00409999862
v -0.000291973352 -0.00304633379 0.00409999862
v -0.000412136316 -0.00309638679 0.00409999862
v -0.000541687012 -0.00313295424 0.00409999862
v -0.000679641962 -0.00315538049 0.00409999862
v -0.000825017691 -0.00316299498 0.00409999862
v -0.000919640064 -0.00316137075 0.00409999862
v -0.00101140141 -0.00315631926 0.00409999862
v -0.00110095739 -0.00314769149 0.00409999862
v -0.00118902326 -0.00313526392 0.00409999862
v -0.00127619505 -0.00311884284 0.00409999862
v -0.00136312842 -0.00309824944 0.00409999862
v -0.00145053864 -0.00307327509 0.00409999862
v -0.00153902173 -0.00304374099 0.00409999862
v -0.00162926316 -0.00300943851 0.00409999862
v -0.00172188878 -0.00297017395 0.00409999862
v -0.00181758404 -0.00292576849 0.00409999862
v -0.00191700459 -0.00287599862 0.00409999862
v -0.00191700459 -0.00220400095 0.00409999862
v -0.00181630254 -0.00227095187 0.00409999862
v -0.00171732903 -0.00233182311 0.00409999862
v -0.00162038207 -0.00238665938 0.00409999862
v -0.0015257895 -0.00243552029 0.00409999862
v -0.00143381953 -0.00247845054 0.00409999862
v -0.00134477019 -0.00251549482 0.00409999862
v -0.0012589097 -0.00254671276 0.00409999862
v -0.00117656589 -0.00257214904 0.00409999862
v -0.00109800696 -0.00259184837 0.00409999862
v -0.00102353096 -0.00260585546 0.00409999862
v -0.000953435898 -0.00261422992 0.00409999862
v -0.0008880198 -0.00261700153 0.00409999862
v -0.000826001167 -0.00261130929 0.00409999862
v -0.000766307116 -0.00260125101 0.00409999862
v -0.000709503889 -0.00258681178 0.00409999862
v -0.000656247139 -0.00256800652 0.00409999862
v -0.000607043505 -0.00254482031 0.00409999862
v -0.000562518835 -0.00251725316 0.00409999862
v -0.000523239374 -0.00248531997 0.00409999862
v -0.000489801168 -0.00244900584 0.00409999862
v -0.000462770462 -0.00240831077 0.00409999862
v -0.000442743301 -0.00236324966 0.00409999862
v -0.000430285931 -0.00231380761 0.00409999862
v -0.000426024199 -0.00225999951 0.00409999862
v -0.000454932451 -0.00215525925 0.00409999862
v -0.000534892082 -0.00205612183 0.00409999862
v -0.000655710697 -0.00195977092 0.00409999862
v -0.000807136297 -0.0018633306 0.00409999862
v -0.000978976488 -0.00176398456 0.00409999862
v -0.00116100907 -0.00165887177 0.00409999862
v -0.00134307146 -0.00154516101 0.00409999862
v -0.00151491165 -0.00142000616 0.00409999862
v -0.00166633725 -0.00128054619 0.00409999862
v -0.00178712606 -0.00112396479 0.00409999862
v -0.0018670857 -0.000947386026 0.00409999862
v -0.00189602375 -0.00074800849 0.00409999862
v -0.0018876493 -0.000619441271 0.00409999862
v -0.00186303258 -0.000500023365 0.00409999862
v -0.00182273984 -0.000390127301 0.00409999862
v -0.00176742673 -0.000290155411 0.00409999862
v -0.0016977191 -0.000200480223 0.00409999862
v -0.00161427259 -0.000121504068 0.00409999862
v -0.00151768327 -5.3614378e-05 0.00409999862
v -0.00140860677 2.81631947e-06 0.00409999862
v -0.00128766894 4.73707914e-05 0.00409999862
v -0.00115549564 7.96765089e-05 0.00409999862
v -0.00101274252 9.93609428e-05 0.00409999862
v -0.000860005617 0.00010599196 0.00409999862
v -0.000786364079 0.000104248524 0.00409999862
v -0.00071233511 9.89586115e-05 0.00409999862
v -0.000637888908 9.01371241e-05 0.00409999862
v -0.000562906265 7.77393579e-05 0.00409999862
v -0.000487357378 6.17355108e-05 0.00409999862
v -0.00041115284 4.21255827e-05 0.00409999862
v -0.000334203243 1.88648701e-05 0.00409999862
v -0.000256448984 -8.07642937e-06 0.00409999862
v -0.000177830458 -3.86983156e-05 0.00409999862
v -9.82880592e-05 -7.30454922e-05 0.00409999862
v -1.77025795e-05 -0.000111147761 0.00409999862
v 6.39855862e-05 -0.000153005123 0.00409999862
v 6.39855862e-05 -0.000769004226 0.00409999862
v -0.00258490443 -0.00285224617 0.00409999862
v -0.0026781261 -0.00290697813 0.00409999862
v -0.00277146697 -0.00295628607 0.00409999862
v -0.00286564231 -0.00300018489 0.00409999862
v -0.00296148658 -0.0030387491 0.00409999862
v -0.00305977464 -0.00307200849 0.00409999862
v -0.00316125154 -0.00310000777 0.00409999862
v -0.00326672196 -0.00312282145 0.00409999862
v -0.00337696075 -0.00314046443 0.00409999862
v -0.00349274278 -0.0031530261 0.00409999862
v -0.00361481309 -0.00316052139 0.00409999862
v -0.00374400616 -0.00316299498 0.00409999862
v -0.00397992134 -0.00314666331 0.00409999862
v -0.00419732928 -0.00309935212 0.00409999862
v -0.00439590216 -0.00302365422 0.00409999862
v -0.00457519293 -0.00292214751 0.00409999862
v -0.00473487377 -0.00279740989 0.00409999862
v -0.00487452745 -0.00265200436 0.00409999862
v -0.00499373674 -0.00248850882 0.00409999862
v -0.00509217381 -0.00230951607 0.00409999862
v -0.00516939163 -0.00211758912 0.00409999862
v -0.00522503257 -0.00191532075 0.00409999862
v -0.00525870919 -0.00170525908 0.00409999862
v -0.00527000427 -0.00148999691 0.00409999862
v -0.00525766611 -0.00125861168 0.00409999862
v -0.00522139668 -0.00104121864 0.00409999862
v -0.00516238809 -0.00083899498 0.00409999862
v -0.00508180261 -0.000653117895 0.00409999862
v -0.00498077273 -0.000484719872 0.00409999862
v -0.00486052036 -0.000335007906 0.00409999862
v -0.00472217798 -0.000205114484 0.00409999862
v -0.00456690788 -9.62167978e-05 0.00409999862
v -0.00439590216 -9.50694084e-06 0.00409999862
v -0.00421029329 5.38825989e-05 0.00409999862
v -0.00401127338 9.27746296e-05 0.00409999862
v -0.00380000472 0.00010599196 0.00409999862
v -0.00359818339 9.41753387e-05 0.00409999862
v -0.0034096837 5.86211681e-05 0.00409999862
v -0.00323531032 -7.4505806e-07 0.00409999862
v -0.00307589769 -8.40425491e-05 0.00409999862
v -0.0029322505 -0.000191345811 0.00409999862
v -0.00280514359 -0.000322759151 0.00409999862
v -0.00269538164 -0.000478371978 0.00409999862
v -0.0026037991 -0.000658303499 0.00409999862
v -0.00253117085 -0.000862628222 0.00409999862
v -0.00247827172 -0.00109145045 0.00409999862
v -0.00244596601 -0.0013448745 0.00409999862
v -0.00243502855 -0.00162300467 0.00409999862
v -0.00464701653 -0.00162300467 0.00409999862
v -0.0046171248 -0.00177246332 0.00409999862
v -0.00457650423 -0.00190931559 0.00409999862
v -0.00452518463 -0.00203348696 0.00409999862
v -0.0044631958 -0.00214488804 0.00409999862
v -0.00439062715 -0.00224345922 0.00409999862
v -0.00430750847 -0.002329126 0.00409999862
v -0.00421389937 -0.00240181386 0.00409999862
v -0.00410982966 -0.00246144831 0.00409999862
v -0.00399535894 -0.00250795484 0.00409999862
v -0.00387054682 -0.00254125893 0.00409999862
v -0.00373539329 -0.00256130099 0.00409999862
v -0.00359001756 -0.00256800652 0.00409999862
v -0.00349593163 -0.00256511569 0.00409999862
v -0.00340265036 -0.00255653262 0.00409999862
v -0.00331002474 -0.00254240632 0.00409999862
v -0.00321796536 -0.0025228858 0.00409999862
v -0.00312644243 -0.00249812007 0.00409999862
v -0.00303527713 -0.00246825814 0.00409999862
v -0.00294440985 -0.00243341923 0.00409999862
v -0.00285372138 -0.00239378214 0.00409999862
v -0.00276315212 -0.00234946609 0.00409999862
v -0.00267255306 -0.00230063498 0.00409999862
v -0.0025818944 -0.00224743783 0.00409999862
v -0.00249102712 -0.00219000876 0.00409999862
v -0.00249102712 -0.00279200077 0.00409999862
v -0.00306147337 -0.00109471381 0.00409999862
v -0.00308212638 -0.000987172127 0.00409999862
v -0.00311270356 -0.000887781382 0.00409999862
v -0.00315290689 -0.000797003508 0.00409999862
v -0.00320243835 -0.000715255737 0.00409999862
v -0.00326102972 -0.000643000007 0.00409999862
v -0.00332835317 -0.000580653548 0.00409999862
v -0.00340414047 -0.000528663397 0.00409999862
v -0.00348809361 -0.000487476587 0.00409999862
v -0.00357991457 -0.000457495451 0.00409999862
v -0.00367930532 -0.000439196825 0.00409999862
v -0.00378602743 -0.000432997942 0.00409999862
v -0.0039010644 -0.000438794494 0.00409999862
v -0.00400820374 -0.000456050038 0.00409999862
v -0.00410735607 -0.000484511256 0.00409999862
v -0.00419849157 -0.000523999333 0.00409999862
v -0.00428158045 -0.000574275851 0.00409999862
v -0.00435650349 -0.000635132194 0.00409999862
v -0.00442329049 -0.000706329942 0.00409999862
v -0.00448188186 -0.000787675381 0.00409999862
v -0.00453218818 -0.000878930092 0.00409999862
v -0.00457417965 -0.000979870558 0.00409999862
v -0.00460779667 -0.00109030306 0.00409999862
v -0.00463300943 -0.00121000409 0.00409999862
v -0.00305101275 -0.00121000409 0.00409999862
v -0.00258490443 -0.00285224617 0.00409999862
v -0.00258490443 -0.00285224617 0.00450000539
v -0.0026781261 -0.00290697813 0.00409999862
v -0.0026781261 -0.00290697813 0.00450000539
v -0.00277146697 -0.00295628607 0.00409999862
v -0.00277146697 -0.00295628607 0.00450000539
v -0.00286564231 -0.00300018489 0.00409999862
v -0.00286564231 -0.00300018489 0.00450000539
v -0.00296148658 -0.0030387491 0.00409999862
v -0.00296148658 -0.0030387491 0.00450000539
v -0.00305977464 -0.00307200849 0.00409999862
v -0.00305977464 -0.00307200849 0.00450000539
v -0.00316125154 -0.00310000777 0.00409999862
v -0.00316125154 -0.00310000777 0.00450000539
v -0.00326672196 -0.00312282145 0.00409999862
v -0.00326672196 -0.00312282145 0.00450000539
v -0.00337696075 -0.00314046443 0.00409999862
v -0.00337696075 -0.00314046443 0.00450000539
v -0.00349274278 -0.0031530261 0.00409999862
v -0.00349274278 -0.0031530261 0.00450000539
v -0.00361481309 -0.00316052139 0.00409999862
v -0.00361481309 -0.00316052139 0.00450000539
v -0.00374400616 -0.00316299498 0.00409999862
v -0.00374400616 -0.00316299498 0.00450000539
v -0.00397992134 -0.00314666331 0.00409999862
v -0.00397992134 -0.00314666331 0.00450000539
v -0.00419732928 -0.00309935212 0.00409999862
v -0.00419732928 -0.00309935212 0.00450000539
v -0.00439590216 -0.00302365422 0.00409999862
v -0.00439590216 -0.00302365422 0.00450000539
v -0.00457519293 -0.00292214751 0.00409999862
v -0.00457519293 -0.00292214751 0.00450000539
v -0.00473487377 -0.00279740989 0.00409999862
v -0.00473487377 -0.00279740989 0.00450000539
v -0.00487452745 -0.00265200436 0.00409999862
v -0.00487452745 -0.00265200436 0.00450000539
v -0.00499373674 -0.00248850882 0.00409999862
v -0.00499373674 -0.00248850882 0.00450000539
v -0.00509217381 -0.00230951607 0.00409999862
v -0.00509217381 -0.00230951607 0.00450000539
v -0.00516939163 -0.00211758912 0.00409999862
v -0.00516939163 -0.00211758912 0.00450000539
v -0.00522503257 -0.00191532075 0.00409999862
v -0.00522503257 -0.00191532075 0.00450000539
v -0.00525870919 -0.00170525908 0.00409999862
v -0.00525870919 -0.00170525908 0.00450000539
v -0.00527000427 -0.00148999691 0.00409999862
v -0.00527000427 -0.00148999691 0.00450000539
v -0.00525766611 -0.00125861168 0.00409999862
v -0.00525766611 -0.00125861168 0.00450000539
v -0.00522139668 -0.00104121864 0.00409999862
v -0.00522139668 -0.00104121864 0.00450000539
v -0.00516238809 -0.00083899498 0.00409999862
v -0.00516238809 -0.00083899498 0.00450000539
v -0.00508180261 -0.000653117895 0.00409999862
v -0.00508180261 -0.000653117895 0.00450000539
v -0.00498077273 -0.000484719872 0.00409999862
v -0.00498077273 -0.000484719872 0.00450000539
v -0.00486052036 -0.000335007906 0.00409999862
v -0.00486052036 -0.000335007906 0.00450000539
v -0.00472217798 -0.000205114484 0.00409999862
v -0.00472217798 -0.000205114484 0.00450000539
v -0.00456690788 -9.62167978e-05 0.00409999862
v -0.00456690788 -9.62167978e-05 0.00450000539
v -0.00439590216 -9.50694084e-06 0.00409999862
v -0.00439590216 -9.50694084e-06 0.00450000539
v -0.00421029329 5.38825989e-05 0.00409999862
v -0.00421029329 5.38825989e-05 0.00450000539
v -0.00401127338 9.27746296e-05 0.00409999862
v -0.00401127338 9.27746296e-05 0.00450000539
v -0.00380000472 0.00010599196 0.00409999862
v -0.00380000472 0.00010599196 0.00450000539
v -0.00359818339 9.41753387e-05 0.00409999862
v -0.00359818339 9.41753387e-05 0.00450000539
v -0.0034096837 5.86211681e-05 0.00409999862
v -0.0034096837 5.86211681e-05 0.00450000539
v -0.00323531032 -7.4505806e-07 0.00409999862
v -0.00323531032 -7.4505806e-07 0.00450000539
v -0.00307589769 -8.40425491e-05 0.00409999862
v -0.00307589769 -8.40425491e-05 0.00450000539
v -0.0029322505 -0.000191345811 0.00409999862
v -0.0029322505 -0.000191345811 0.00450000539
v -0.00280514359 -0.000322759151 0.00409999862
v -0.00280514359 -0.000322759151 0.00450000539
v -0.00269538164 -0.000478371978 0.00409999862
v -0.00269538164 -0.000478371978 0.00450000539
v -0.0026037991 -0.000658303499 0.00409999862
v -0.0026037991 -0.000658303499 0.00450000539
v -0.00253117085 -0.000862628222 0.00409999862
v -0.00253117085 -0.000862628222 0.00450000539
v -0.00247827172 -0.00109145045 0.00409999862
v -0.00247827172 -0.00109145045 0.00450000539
v -0.00244596601 -0.0013448745 0.00409999862
v -0.00244596601 -0.0013448745 0.00450000539
v -0.00243502855 -0.00162300467 0.00409999862
v -0.00243502855 -0.00162300467 0.00450000539
v -0.00464701653 -0.00162300467 0.00409999862
v -0.00464701653 -0.00162300467 0.00450000539
v -0.0046171248 -0.00177246332 0.00409999862
v -0.0046171248 -0.00177246332 0.00450000539
v -0.00457650423 -0.00190931559 0.00409999862
v -0.00457650423 -0.00190931559 0.00450000539
v -0.00452518463 -0.00203348696 0.00409999862
v -0.00452518463 -0.00203348696 0.00450000539
v -0.0044631958 -0.00214488804 0.00409999862
v -0.0044631958 -0.00214488804 0.00450000539
v -0.00439062715 -0.00224345922 0.00409999862
v -0.00439062715 -0.00224345922 0.00450000539
v -0.00430750847 -0.002329126 0.00409999862
v -0.00430750847 -0.002329126 0.00450000539
v -0.00421389937 -0.00240181386 0.00409999862
v -0.00421389937 -0.00240181386 0.00450000539
v -0.00410982966 -0.00246144831 0.00409999862
v -0.00410982966 -0.00246144831 0.00450000539
v -0.00399535894 -0.00250795484 0.00409999862
v -0.00399535894 -0.00250795484 0.00450000539
v -0.00387054682 -0.00254125893 0.00409999862
v -0.00387054682 -0.00254125893 0.00450000539
v -0.00373539329 -0.00256130099 0.00409999862
v -0.00373539329 -0.00256130099 0.00450000539
v -0.00359001756 -0.00256800652 0.00409999862
v -0.00359001756 -0.00256800652 0.00450000539
v -0.00349593163 -0.00256511569 0.00409999862
v -0.00349593163 -0.00256511569 0.00450000539
v -0.00340265036 -0.00255653262 0.00409999862
v -0.00340265036 -0.00255653262 0.00450000539
v -0.00331002474 -0.00254240632 0.00409999862
v -0.00331002474 -0.00254240632 0.00450000539
v -0.00321796536 -0.0025228858 0.00409999862
v -0.00321796536 -0.0025228858 0.00450000539
v -0.00312644243 -0.00249812007 0.00409999862
v -0.00312644243 -0.00249812007 0.00450000539
v -0.00303527713 -0.00246825814 0.00409999862
v -0.00303527713 -0.00246825814 0.00450000539
v -0.00294440985 -0.00243341923 0.00409999862
v -0.00294440985 -0.00243341923 0.00450000539
v -0.00285372138 -0.00239378214 0.00409999862
v -0.00285372138 -0.00239378214 0.00450000539
v -0.00276315212 -0.00234946609 0.00409999862
v -0.00276315212 -0.00234946609 0.00450000539
v -0.00267255306 -0.00230063498 0.00409999862
v -0.00267255306 -0.00230063498 0.00450000539
v -0.0025818944 -0.00224743783 0.00409999862
v -0.0025818944 -0.00224743783 0.00450000539
v -0.00249102712 -0.00219000876 0.00409999862
v -0.00249102712 -0.00219000876 0.00450000539
v -0.00249102712 -0.00279200077 0.00409999862
v -0.00249102712 -0.00279200077 0.00450000539
v -0.00306147337 -0.00109471381 0.00409999862
v -0.00306147337 -0.00109471381 0.00450000539
v -0.00308212638 -0.000987172127 0.00409999862
v -0.00308212638 -0.000987172127 0.00450000539
v -0.00311270356 -0.000887781382 0.00409999862
v -0.00311270356 -0.000887781382 0.00450000539
v -0.00315290689 -0.000797003508 0.00409999862
v -0.00315290689 -0.000797003508 0.00450000539
v -0.00320243835 -0.000715255737 0.00409999862
v -0.00320243835 -0.000715255737 0.00450000539
v -0.00326102972 -0.000643000007 0.00409999862
v -0.00326102972 -0.000643000007 0.00450000539
v -0.00332835317 -0.000580653548 0.00409999862
v -0.00332835317 -0.000580653548 0.00450000539
v -0.00340414047 -0.000528663397 0.00409999862
v -0.00340414047 -0.000528663397 0.00450000539
v -0.00348809361 -0.000487476587 0.00409999862
v -0.00348809361 -0.000487476587 0.00450000539
v -0.00357991457 -0.000457495451 0.00409999862
v -0.00357991457 -0.000457495451 0.00450000539
v -0.00367930532 -0.000439196825 0.00409999862
v -0.00367930532 -0.000439196825 0.00450000539
v -0.00378602743 -0.000432997942 0.00409999862
v -0.00378602743 -0.000432997942 0.00450000539
v -0.0039010644 -0.000438794494 0.00409999862
v -0.0039010644 -0.000438794494 0.00450000539
v -0.00400820374 -0.000456050038 0.00409999862
v -0.00400820374 -0.000456050038 0.00450000539
v -0.00410735607 -0.000484511256 0.00409999862
v -0.00410735607 -0.000484511256 0.00450000539
v -0.00419849157 -0.000523999333 0.00409999862
v -0.00419849157 -0.000523999333 0.00450000539
v -0.00428158045 -0.000574275851 0.00409999862
v -0.00428158045 -0.000574275851 0.00450000539
v -0.00435650349 -0.000635132194 0.00409999862
v -0.00435650349 -0.000635132194 0.00450000539
v -0.00442329049 -0.000706329942 0.00409999862
v -0.00442329049 -0.000706329942 0.00450000539
v -0.00448188186 -0.000787675381 0.00409999862
v -0.00448188186 -0.000787675381 0.00450000539
v -0.00453218818 -0.000878930092 0.00409999862
v -0.00453218818 -0.000878930092 0.00450000539
v -0.00457417965 -0.000979870558 0.00409999862
v -0.00457417965 -0.000979870558 0.00450000539
v -0.00460779667 -0.00109030306 0.00409999862
v -0.00460779667 -0.00109030306 0.00450000539
v -0.00463300943 -0.00121000409 0.00409999862
v -0.00463300943 -0.00121000409 0.00450000539
v -0.00305101275 -0.00121000409 0.00409999862
v -0.00305101275 -0.00121000409 0.00450000539
v -2.30371952e-05 -0.00071400404 0.00409999862
v -2.30371952e-05 -0.00071400404 0.00450000539
v -0.000108897686 -0.000664427876 0.00409999862
v -0.000108897686 -0.000664427876 0.00450000539
v -0.00019338727 -0.000620141625 0.00409999862
v -0.00019338727 -0.000620141625 0.00450000539
v -0.000276178122 -0.000581040978 0.00409999862
v -0.000276178122 -0.000581040978 0.00450000539
v -0.00035700202 -0.000546991825 0.00409999862
v -0.00035700202 -0.000546991825 0.00450000539
v -0.000435650349 -0.000517874956 0.00409999862
v -0.000435650349 -0.000517874956 0.00450000539
v -0.000511795282 -0.000493571162 0.00409999862
v -0.000511795282 -0.000493571162 0.00450000539
v -0.000585198402 -0.000473961234 0.00409999862
v -0.000585198402 -0.000473961234 0.00450000539
v -0.000655591488 -0.000458925962 0.00409999862
v -0.000655591488 -0.000458925962 0.00450000539
v -0.000722706318 -0.000448331237 0.00409999862
v -0.000722706318 -0.000448331237 0.00450000539
v -0.000786274672 -0.000442057848 0.00409999862
v -0.000786274672 -0.000442057848 0.00450000539
v -0.000846028328 -0.000440001488 0.00409999862
v -0.000846028328 -0.000440001488 0.00450000539
v -0.000907093287 -0.000442445278 0.00409999862
v -0.000907093287 -0.000442445278 0.00450000539
v -0.000964105129 -0.000449597836 0.00409999862
v -0.000964105129 -0.000449597836 0.00450000539
v -0.00101685524 -0.000461220741 0.00409999862
v -0.00101685524 -0.000461220741 0.00450000539
v -0.0010651052 -0.000477075577 0.00409999862
v -0.0010651052 -0.000477075577 0.00450000539
v -0.00110855699 -0.000496923923 0.00409999862
v -0.00110855699 -0.000496923923 0.00450000539
v -0.00114700198 -0.000520497561 0.00409999862
v -0.00114700198 -0.000520497561 0.00450000539
v -0.00118023157 -0.000547587872 0.00409999862
v -0.00118023157 -0.000547587872 0.00450000539
v -0.00120794773 -0.000577926636 0.00409999862
v -0.00120794773 -0.000577926636 0.00450000539
v -0.00122991204 -0.000611290336 0.00409999862
v -0.00122991204 -0.000611290336 0.00450000539
v -0.00124591589 -0.00064741075 0.00409999862
v -0.00124591589 -0.00064741075 0.00450000539
v -0.00125569105 -0.000686064363 0.00409999862
v -0.00125569105 -0.000686064363 0.00450000539
v -0.00125902891 -0.000726997852 0.00409999862
v -0.00125902891 -0.000726997852 0.00450000539
v -0.00125455856 -0.000762656331 0.00409999862
v -0.00125455856 -0.000762656331 0.00450000539
v -0.0012409091 -0.000799924135 0.00409999862
v -0.0012409091 -0.000799924135 0.00450000539
v -0.00121757388 -0.000839218497 0.00409999862
v -0.00121757388 -0.000839218497 0.00450000539
v -0.00118407607 -0.000881001353 0.00409999862
v -0.00118407607 -0.000881001353 0.00450000539
v -0.00114002824 -0.000925704837 0.00409999862
v -0.00114002824 -0.000925704837 0.00450000539
v -0.00108489394 -0.000973746181 0.00409999862
v -0.00108489394 -0.000973746181 0.00450000539
v -0.00101825595 -0.00102560222 0.00409999862
v -0.00101825595 -0.00102560222 0.00450000539
v -0.00093960762 -0.00108167529 0.00409999862
v -0.00093960762 -0.00108167529 0.00450000539
v -0.000848531723 -0.00114241242 0.00409999862
v -0.000848531723 -0.00114241242 0.00450000539
v -0.00074455142 -0.00120824575 0.00409999862
v -0.00074455142 -0.00120824575 0.00450000539
v -0.000627189875 -0.00127963722 0.00409999862
v -0.000627189875 -0.00127963722 0.00450000539
v -0.000496029854 -0.00135700405 0.00409999862
v -0.000496029854 -0.00135700405 0.00450000539
v -0.00037330389 -0.00144025683 0.00409999862
v -0.00037330389 -0.00144025683 0.00450000539
v -0.000263780355 -0.00151906908 0.00409999862
v -0.000263780355 -0.00151906908 0.00450000539
v -0.000167012215 -0.00159423053 0.00409999862
v -0.000167012215 -0.00159423053 0.00450000539
v -8.24928284e-05 -0.00166656077 0.00409999862
v -8.24928284e-05 -0.00166656077 0.00450000539
v -9.74535942e-06 -0.00173683465 0.00409999862
v -9.74535942e-06 -0.00173683465 0.00450000539
v 5.17368317e-05 -0.00180587173 0.00409999862
v 5.17368317e-05 -0.00180587173 0.00450000539
v 0.000102430582 -0.00187447667 0.00409999862
v 0.000102430582 -0.00187447667 0.00450000539
v 0.000142812729 -0.00194343925 0.00409999862
v 0.000142812729 -0.00194343925 0.00450000539
v 0.000173360109 -0.00201357901 0.00409999862
v 0.000173360109 -0.00201357901 0.00450000539
v 0.000194579363 -0.00208568573 0.00409999862
v 0.000194579363 -0.00208568573 0.00450000539
v 0.000206977129 -0.00216054916 0.00409999862
v 0.000206977129 -0.00216054916 0.00450000539
v 0.00021097064 -0.00223900378 0.00409999862
v 0.00021097064 -0.00223900378 0.00450000539
v 0.000201970339 -0.00237335265 0.00409999862
v 0.000201970339 -0.00237335265 0.00450000539
v 0.000175565481 -0.00249946117 0.00409999862
v 0.000175565481 -0.00249946117 0.00450000539
v 0.000132769346 -0.00261667371 0.00409999862
v 0.000132769346 -0.00261667371 0.00450000539
v 7.46250153e-05 -0.0027243346 0.00409999862
v 7.46250153e-05 -0.0027243346 0.00450000539
v 2.05636024e-06 -0.00282178819 0.00409999862
v 2.05636024e-06 -0.00282178819 0.00450000539
v -8.38935375e-05 -0.00290837884 0.00409999862
v -8.38935375e-05 -0.00290837884 0.00450000539
v -0.000182241201 -0.00298345089 0.00409999862
v -0.000182241201 -0.00298345089 0.00450000539
v -0.000291973352 -0.00304633379 0.00409999862
v -0.000291973352 -0.00304633379 0.00450000539
v -0.000412136316 -0.00309638679 0.00409999862
v -0.000412136316 -0.00309638679 0.00450000539
v -0.000541687012 -0.00313295424 0.00409999862
v -0.000541687012 -0.00313295424 0.00450000539
v -0.000679641962 -0.00315538049 0.00409999862
v -0.000679641962 -0.00315538049 0.00450000539
v -0.000825017691 -0.00316299498 0.00409999862
v -0.000825017691 -0.00316299498 0.00450000539
v -0.000919640064 -0.00316137075 0.00409999862
v -0.000919640064 -0.00316137075 0.00450000539
v -0.00101140141 -0.00315631926 0.00409999862
v -0.00101140141 -0.00315631926 0.00450000539
v -0.00110095739 -0.00314769149 0.00409999862
v -0.00110095739 -0.00314769149 0.00450000539
v -0.00118902326 -0.00313526392 0.00409999862
v -0.00118902326 -0.00313526392 0.00450000539
v -0.00127619505 -0.00311884284 0.00409999862
v -0.00127619505 -0.00311884284 0.00450000539
v -0.00136312842 -0.00309824944 0.00409999862
v -0.00136312842 -0.00309824944 0.00450000539
v -0.00145053864 -0.00307327509 0.00409999862
v -0.00145053864 -0.00307327509 0.00450000539
v -0.00153902173 -0.00304374099 0.00409999862
v -0.00153902173 -0.00304374099 0.00450000539
v -0.00162926316 -0.00300943851 0.00409999862
v -0.00162926316 -0.00300943851 0.00450000539
v -0.00172188878 -0.00297017395 0.00409999862
v -0.00172188878 -0.00297017395 0.00450000539
v -0.00181758404 -0.00292576849 0.00409999862
v -0.00181758404 -0.00292576849 0.00450000539
v -0.00191700459 -0.00287599862 0.00409999862
v -0.00191700459 -0.00287599862 0.00450000539
v -0.00191700459 -0.00220400095 0.00409999862
v -0.00191700459 -0.00220400095 0.00450000539
v -0.00181630254 -0.00227095187 0.00409999862
v -0.00181630254 -0.00227095187 0.00450000539
v -0.00171732903 -0.00233182311 0.00409999862
v -0.00171732903 -0.00233182311 0.00450000539
v -0.00162038207 -0.00238665938 0.00409999862
v -0.00162038207 -0.00238665938 0.00450000539
v -0.0015257895 -0.00243552029 0.00409999862
v -0.0015257895 -0.00243552029 0.00450000539
v -0.00143381953 -0.00247845054 0.00409999862
v -0.00143381953 -0.00247845054 0.00450000539
v -0.00134477019 -0.00251549482 0.00409999862
v -0.00134477019 -0.00251549482 0.00450000539
v -0.0012589097 -0.00254671276 0.00409999862
v -0.0012589097 -0.00254671276 0.00450000539
v -0.00117656589 -0.00257214904 0.00409999862
v -0.00117656589 -0.00257214904 0.00450000539
v -0.00109800696 -0.00259184837 0.00409999862
v -0.00109800696 -0.00259184837 0.00450000539
v -0.00102353096 -0.00260585546 0.00409999862
v -0.00102353096 -0.00260585546 0.00450000539
v -0.000953435898 -0.00261422992 0.00409999862
v -0.000953435898 -0.00261422992 0.00450000539
v -0.0008880198 -0.00261700153 0.00409999862
v -0.0008880198 -0.00261700153 0.00450000539
v -0.000826001167 -0.00261130929 0.00409999862
v -0.000826001167 -0.00261130929 0.00450000539
v -0.000766307116 -0.00260125101 0.00409999862
v -0.000766307116 -0.00260125101 0.00450000539
v -0.000709503889 -0.00258681178 0.00409999862
v -0.000709503889 -0.00258681178 0.00450000539
v -0.000656247139 -0.00256800652 0.00409999862
v -0.000656247139 -0.00256800652 0.00450000539
v -0.000607043505 -0.00254482031 0.00409999862
v -0.000607043505 -0.00254482031 0.00450000539
v -0.000562518835 -0.00251725316 0.00409999862
v -0.000562518835 -0.00251725316 0.00450000539
v -0.000523239374 -0.00248531997 0.00409999862
v -0.000523239374 -0.00248531997 0.00450000539
v -0.000489801168 -0.00244900584 0.00409999862
v -0.000489801168 -0.00244900584 0.00450000539
v -0.000462770462 -0.00240831077 0.00409999862
v -0.000462770462 -0.00240831077 0.00450000539
v -0.000442743301 -0.00236324966 0.00409999862
v -0.000442743301 -0.00236324966 0.00450000539
v -0.000430285931 -0.00231380761 0.00409999862
v -0.000430285931 -0.00231380761 0.00450000539
v -0.000426024199 -0.00225999951 0.00409999862
v -0.000426024199 -0.00225999951 0.00450000539
v -0.000454932451 -0.00215525925 0.00409999862
v -0.000454932451 -0.00215525925 0.00450000539
v -0.000534892082 -0.00205612183 0.00409999862
v -0.000534892082 -0.00205612183 0.00450000539
v -0.000655710697 -0.00195977092 0.00409999862
v -0.000655710697 -0.00195977092 0.00450000539
v -0.000807136297 -0.0018633306 0.00409999862
v -0.000807136297 -0.0018633306 0.00450000539
v -0.000978976488 -0.00176398456 0.00409999862
v -0.000978976488 -0.00176398456 0.00450000539
v -0.00116100907 -0.00165887177 0.00409999862
v -0.00116100907 -0.00165887177 0.00450000539
v -0.00134307146 -0.00154516101 0.00409999862
v -0.00134307146 -0.00154516101 0.00450000539
v -0.00151491165 -0.00142000616 0.00409999862
v -0.00151491165 -0.00142000616 0.00450000539
v -0.00166633725 -0.00128054619 0.00409999862
v -0.00166633725 -0.00128054619 0.00450000539
v -0.00178712606 -0.00112396479 0.00409999862
v -0.00178712606 -0.00112396479 0.00450000539
v -0.0018670857 -0.000947386026 0.00409999862
v -0.0018670857 -0.000947386026 0.00450000539
v -0.00189602375 -0.00074800849 0.00409999862
v -0.00189602375 -0.00074800849 0.00450000539
v -0.0018876493 -0.000619441271 0.00409999862
v -0.0018876493 -0.000619441271 0.00450000539
v -0.00186303258 -0.000500023365 0.00409999862
v -0.00186303258 -0.000500023365 0.00450000539
v -0.00182273984 -0.000390127301 0.00409999862
v -0.00182273984 -0.000390127301 0.00450000539
v -0.00176742673 -0.000290155411 0.00409999862
v -0.00176742673 -0.000290155411 0.00450000539
v -0.0016977191 -0.000200480223 0.00409999862
v -0.0016977191 -0.000200480223 0.00450000539
v -0.00161427259 -0.000121504068 0.00409999862
v -0.00161427259 -0.000121504068 0.00450000539
v -0.00151768327 -5.3614378e-05 0.00409999862
v -0.00151768327 -5.3614378e-05 0.00450000539
v -0.00140860677 2.81631947e-06 0.00409999862
v -0.00140860677 2.81631947e-06 0.00450000539
v -0.00128766894 4.73707914e-05 0.00409999862
v -0.00128766894 4.73707914e-05 0.00450000539
v -0.00115549564 7.96765089e-05 0.00409999862
v -0.00115549564 7.96765089e-05 0.00450000539
v -0.00101274252 9.93609428e-05 0.00409999862
v -0.00101274252 9.93609428e-05 0.00450000539
v -0.000860005617 0.00010599196 0.00409999862
v -0.000860005617 0.00010599196 0.00450000539
v -0.000786364079 0.000104248524 0.00409999862
v -0.000786364079 0.000104248524 0.00450000539
v -0.00071233511 9.89586115e-05 0.00409999862
v -0.00071233511 9.89586115e-05 0.00450000539
v -0.000637888908 9.01371241e-05 0.00409999862
v -0.000637888908 9.01371241e-05 0.00450000539
v -0.000562906265 7.77393579e-05 0.00409999862
v -0.000562906265 7.77393579e-05 0.00450000539
v -0.000487357378 6.17355108e-05 0.00409999862
v -0.000487357378 6.17355108e-05 0.00450000539
v -0.00041115284 4.21255827e-05 0.00409999862
v -0.00041115284 4.21255827e-05 0.00450000539
v -0.000334203243 1.88648701e-05 0.00409999862
v -0.000334203243 1.88648701e-05 0.00450000539
v -0.000256448984 -8.07642937e-06 0.00409999862
v -0.000256448984 -8.07642937e-06 0.00450000539
v -0.000177830458 -3.86983156e-05 0.00409999862
v -0.000177830458 -3.86983156e-05 0.00450000539
v -9.82880592e-05 -7.30454922e-05 0.00409999862
v -9.82880592e-05 -7.30454922e-05 0.00450000539
v -1.77025795e-05 -0.000111147761 0.00409999862
v -1.77025795e-05 -0.000111147761 0.00450000539
v 6.39855862e-05 -0.000153005123 0.00409999862
v 6.39855862e-05 -0.000153005123 0.00450000539
v 6.39855862e-05 -0.000769004226 0.00409999862
v 6.39855862e-05 -0.000769004226 0.00450000539
v 0.00315511227 -0.000719949603 0.00409999862
v 0.00315511227 -0.000719949603 0.00450000539
v 0.00307267904 -0.000670552254 0.00409999862
v 0.00307267904 -0.000670552254 0.00450000539
v 0.00299414992 -0.000627472997 0.00409999862
v 0.00299414992 -0.000627472997 0.00450000539
v 0.00291895866 -0.000590369105 0.00409999862
v 0.00291895866 -0.000590369105 0.00450000539
v 0.00284656882 -0.000558912754 0.00409999862
v 0.00284656882 -0.000558912754 0.00450000539
v 0.00277647376 -0.000532746315 0.00409999862
v 0.00277647376 -0.000532746315 0.00450000539
v 0.00270813704 -0.000511556864 0.00409999862
v 0.00270813704 -0.000511556864 0.00450000539
v 0.00264102221 -0.000494971871 0.00409999862
v 0.00264102221 -0.000494971871 0.00450000539
v 0.00257456303 -0.000482663512 0.00409999862
v 0.00257456303 -0.000482663512 0.00450000539
v 0.00250828266 -0.00047428906 0.00409999862
v 0.00250828266 -0.00047428906 0.00450000539
v 0.00244158506 -0.000469520688 0.00409999862
v 0.00244158506 -0.000469520688 0.00450000539
v 0.0023739934 -0.00046800077 0.00409999862
v 0.0023739934 -0.00046800077 0.00450000539
v 0.00223600864 -0.000476777554 0.00409999862
v 0.00223600864 -0.000476777554 0.00450000539
v 0.00210607052 -0.000502586365 0.00409999862
v 0.00210607052 -0.000502586365 0.00450000539
v 0.00198492408 -0.000544667244 0.00409999862
v 0.00198492408 -0.000544667244 0.00450000539
v 0.00187334418 -0.000602304935 0.00409999862
v 0.00187334418 -0.000602304935 0.00450000539
v 0.00177207589 -0.000674694777 0.00409999862
v 0.00177207589 -0.000674694777 0.00450000539
v 0.00168186426 -0.000761121511 0.00409999862
v 0.00168186426 -0.000761121511 0.00450000539
v 0.00160345435 -0.000860825181 0.00409999862
v 0.00160345435 -0.000860825181 0.00450000539
v 0.00153762102 -0.000973045826 0.00409999862
v 0.00153762102 -0.000973045826 0.00450000539
v 0.00148507953 -0.00109702349 0.00409999862
v 0.00148507953 -0.00109702349 0.00450000539
v 0.00144663453 -0.00123201311 0.00409999862
v 0.00144663453 -0.00123201311 0.00450000539
v 0.00142303109 -0.00137725472 0.00409999862
v 0.00142303109 -0.00137725472 0.00450000539
v 0.00141498446 -0.00153200328 0.00409999862
v 0.00141498446 -0.00153200328 0.00450000539
v 0.00142362714 -0.00168928504 0.00409999862
v 0.00142362714 -0.00168928504 0.00450000539
v 0.00144907832 -0.00183530152 0.00409999862
v 0.00144907832 -0.00183530152 0.00450000539
v 0.00149068236 -0.00196960568 0.00409999862
v 0.00149068236 -0.00196960568 0.00450000539
v 0.00154772401 -0.0020917356 0.00409999862
v 0.00154772401 -0.0020917356 0.00450000539
v 0.00161954761 -0.00220122933 0.00409999862
v 0.00161954761 -0.00220122933 0.00450000539
v 0.0017054975 -0.00229762495 0.00409999862
v 0.0017054975 -0.00229762495 0.00450000539
v 0.00180482864 -0.0023804605 0.00409999862
v 0.00180482864 -0.0023804605 0.00450000539
v 0.00191691518 -0.00244925916 0.00409999862
v 0.00191691518 -0.00244925916 0.00450000539
v 0.00204104185 -0.00250357389 0.00409999862
v 0.00204104185 -0.00250357389 0.00450000539
v 0.00217655301 -0.00254295766 0.00409999862
v 0.00217655301 -0.00254295766 0.00450000539
v 0.0023227632 -0.00256691873 0.00409999862
v 0.0023227632 -0.00256691873 0.00450000539
v 0.00247898698 -0.00257499516 0.00409999862
v 0.00247898698 -0.00257499516 0.00450000539
v 0.00254523754 -0.00257354975 0.00409999862
v 0.00254523754 -0.00257354975 0.00450000539
v 0.00261116028 -0.00256916881 0.00409999862
v 0.00261116028 -0.00256916881 0.00450000539
v 0.00267705321 -0.00256188214 0.00409999862
v 0.00267705321 -0.00256188214 0.00450000539
v 0.00274315476 -0.00255167484 0.00409999862
v 0.00274315476 -0.00255167484 0.00450000539
v 0.00280976295 -0.00253854692 0.00409999862
v 0.00280976295 -0.00253854692 0.00450000539
v 0.0028771162 -0.00252249837 0.00409999862
v 0.0028771162 -0.00252249837 0.00450000539
v 0.00294548273 -0.00250354409 0.00409999862
v 0.00294548273 -0.00250354409 0.00450000539
v 0.00301513076 -0.00248166919 0.00409999862
v 0.00301513076 -0.00248166919 0.00450000539
v 0.00308635831 -0.00245687366 0.00409999862
v 0.00308635831 -0.00245687366 0.00450000539
v 0.003159374 -0.0024291724 0.00409999862
v 0.003159374 -0.0024291724 0.00450000539
v 0.00323450565 -0.00239855051 0.00409999862
v 0.00323450565 -0.00239855051 0.00450000539
v 0.00331199169 -0.002365008 0.00409999862
v 0.00331199169 -0.002365008 0.00450000539
v 0.00331199169 -0.0029810071 0.00409999862
v 0.00331199169 -0.0029810071 0.00450000539
v 0.0032556951 -0.00300517678 0.00409999862
v 0.0032556951 -0.00300517678 0.00450000539
v 0.00319242477 -0.003028512 0.00409999862
v 0.00319242477 -0.003028512 0.00450000539
v 0.00312310457 -0.00305078924 0.00409999862
v 0.00312310457 -0.00305078924 0.00450000539
v 0.00304856896 -0.00307174027 0.00409999862
v 0.00304856896 -0.00307174027 0.00450000539
v 0.00296977162 -0.00309114158 0.00409999862
v 0.00296977162 -0.00309114158 0.00450000539
v 0.00288760662 -0.00310875475 0.00409999862
v 0.00288760662 -0.00310875475 0.00450000539
v 0.00280296803 -0.00312431157 0.00409999862
v 0.00280296803 -0.00312431157 0.00450000539
v 0.0027167201 -0.0031375885 0.00409999862
v 0.0027167201 -0.0031375885 0.00450000539
v 0.00262981653 -0.00314834714 0.00409999862
v 0.00262981653 -0.00314834714 0.00450000539
v 0.00254312158 -0.00315631926 0.00409999862
v 0.00254312158 -0.00315631926 0.00450000539
v 0.00245752931 -0.00316129625 0.00409999862
v 0.00245752931 -0.00316129625 0.00450000539
v 0.0023739934 -0.00316299498 0.00409999862
v 0.0023739934 -0.00316299498 0.00450000539
v 0.00214552879 -0.00314965844 0.00409999862
v 0.00214552879 -0.00314965844 0.00450000539
v 0.001930058 -0.00311049819 0.00409999862
v 0.001930058 -0.00311049819 0.00450000539
v 0.00172889233 -0.00304684043 0.00409999862
v 0.00172889233 -0.00304684043 0.00450000539
v 0.00154331326 -0.00295999646 0.00409999862
v 0.00154331326 -0.00295999646 0.00450000539
v 0.00137466192 -0.00285127759 0.00409999862
v 0.00137466192 -0.00285127759 0.00450000539
v 0.0012242198 -0.00272199512 0.00409999862
v 0.0012242198 -0.00272199512 0.00450000539
v 0.0010933578 -0.00257347524 0.00409999862
v 0.0010933578 -0.00257347524 0.00450000539
v 0.000983327627 -0.00240699947 0.00409999862
v 0.000983327627 -0.00240699947 0.00450000539
v 0.000895440578 -0.0022239089 0.00409999862
v 0.000895440578 -0.0022239089 0.00450000539
v 0.000831067562 -0.00202549994 0.00409999862
v 0.000831067562 -0.00202549994 0.00450000539
v 0.000791460276 -0.00181309879 0.00409999862
v 0.000791460276 -0.00181309879 0.00450000539
v 0.000777989626 -0.00158800185 0.00409999862
v 0.000777989626 -0.00158800185 0.00450000539
v 0.000790387392 -0.00133703649 0.00409999862
v 0.000790387392 -0.00133703649 0.00450000539
v 0.000826984644 -0.00110280514 0.00409999862
v 0.000826984644 -0.00110280514 0.00450000539
v 0.000886917114 -0.000886246562 0.00409999862
v 0.000886917114 -0.000886246562 0.00450000539
v 0.000969320536 -0.000688374043 0.00409999862
v 0.000969320536 -0.000688374043 0.00450000539
v 0.00107330084 -0.000510126352 0.00409999862
v 0.00107330084 -0.000510126352 0.00450000539
v 0.00119799376 -0.000352501869 0.00409999862
v 0.00119799376 -0.000352501869 0.00450000539
v 0.00134250522 -0.000216454268 0.00409999862
v 0.00134250522 -0.000216454268 0.00450000539
v 0.00150597095 -0.000102967024 0.00409999862
v 0.00150597095 -0.000102967024 0.00450000539
v 0.00168755651 -1.30087137e-05 0.00409999862
v 0.00168755651 -1.30087137e-05 0.00450000539
v 0.00188630819 5.24669886e-05 0.00409999862
v 0.00188630819 5.24669886e-05 0.00450000539
v 0.00210142136 9.2446804e-05 0.00409999862
v 0.00210142136 9.2446804e-05 0.00450000539
v 0.00233197212 0.00010599196 0.00409999862
v 0.00233197212 0.00010599196 0.00450000539
v 0.00242060423 0.000104263425 0.00409999862
v 0.00242060423 0.000104263425 0.00450000539
v 0.0025048852 9.91672277e-05 0.00409999862
v 0.0025048852 9.91672277e-05 0.00450000539
v 0.00258541107 9.07927752e-05 0.00409999862
v 0.00258541107 9.07927752e-05 0.00450000539
v 0.0026628077 7.92890787e-05 0.00409999862
v 0.0026628077 7.92890787e-05 0.00450000539
v 0.00273767114 6.47753477e-05 0.00409999862
v 0.00273767114 6.47753477e-05 0.00450000539
v 0.00281059742 4.73707914e-05 0.00409999862
v 0.00281059742 4.73707914e-05 0.00450000539
v 0.0028822422 2.71946192e-05 0.00409999862
v 0.0028822422 2.71946192e-05 0.00450000539
v 0.00295317173 4.36604023e-06 0.00409999862
v 0.00295317173 4.36604023e-06 0.00450000539
v 0.00302401185 -2.0980835e-05 0.00409999862
v 0.00302401185 -2.0980835e-05 0.00450000539
v 0.00309532881 -4.87416983e-05 0.00409999862
v 0.00309532881 -4.87416983e-05 0.00450000539
v 0.00316780806 -7.87973404e-05 0.00409999862
v 0.00316780806 -7.87973404e-05 0.00450000539
v 0.00324198604 -0.00011099875 0.00409999862
v 0.00324198604 -0.00011099875 0.00450000539
v 0.00324198604 -0.000776007771 0.00409999862
v 0.00324198604 -0.000776007771 0.00450000539
usemtl screen_white_text_003
f 236 238 237
f 236 239 238
f 236 240 239
f 235 240 236
f 235 241 240
f 235 242 241
f 235 243 242
f 234 243 235
f 234 244 243
f 234 245 244
f 234 246 245
f 233 246 234
f 233 247 246
f 233 248 247
f 233 249 248
f 232 249 233
f 232 160 249
f 160 159 249
f 159 158 249
f 158 157 249
f 157 156 249
f 156 155 249
f 155 154 249
f 154 153 249
f 153 250 249
f 231 162 232
f 162 161 232
f 161 160 232
f 230 164 231
f 164 163 231
f 163 162 231
f 230 165 164
f 230 166 165
f 230 167 166
f 229 167 230
f 229 168 167
f 229 169 168
f 229 170 169
f 228 170 229
f 228 171 170
f 228 172 171
f 227 172 228
f 227 173 172
f 227 174 173
f 226 174 227
f 226 175 174
f 225 175 226
f 225 176 175
f 225 177 176
f 224 177 225
f 224 178 177
f 223 178 224
f 223 179 178
f 223 180 179
f 222 180 223
f 222 181 180
f 222 182 181
f 221 182 222
f 221 183 182
f 199 201 200
f 221 184 183
f 198 201 199
f 220 184 221
f 197 201 198
f 220 185 184
f 196 201 197
f 195 201 196
f 194 201 195
f 220 186 185
f 193 201 194
f 192 201 193
f 220 187 186
f 191 201 192
f 190 201 191
f 220 188 187
f 189 201 190
f 219 188 220
f 188 201 189
f 219 201 188
f 218 201 219
f 217 201 218
f 216 201 217
f 216 202 201
f 216 203 202
f 216 204 203
f 215 204 216
f 215 205 204
f 215 206 205
f 215 207 206
f 215 208 207
f 214 208 215
f 214 209 208
f 214 210 209
f 214 211 210
f 213 211 214
f 213 212 211
f 370 372 371
f 370 373 372
f 369 373 370
f 369 374 373
f 369 375 374
f 368 375 369
f 368 376 375
f 368 377 376
f 367 377 368
f 367 378 377
f 367 379 378
f 366 379 367
f 366 380 379
f 366 381 380
f 365 381 366
f 365 382 381
f 365 383 382
f 364 383 365
f 364 258 383
f 258 257 383
f 257 256 383
f 256 255 383
f 255 254 383
f 254 253 383
f 253 252 383
f 252 251 383
f 251 384 383
f 363 260 364
f 260 259 364
f 259 258 364
f 362 261 363
f 261 260 363
f 361 263 362
f 263 262 362
f 262 261 362
f 361 264 263
f 361 265 264
f 361 266 265
f 361 267 266
f 361 268 267
f 360 268 361
f 360 269 268
f 360 270 269
f 360 271 270
f 360 272 271
f 359 272 360
f 359 273 272
f 359 274 273
f 359 275 274
f 358 275 359
f 358 276 275
f 358 277 276
f 358 278 277
f 358 279 278
f 358 280 279
f 357 280 358
f 357 281 280
f 357 282 281
f 357 283 282
f 356 283 357
f 356 284 283
f 356 285 284
f 356 286 285
f 355 286 356
f 355 287 286
f 354 287 355
f 354 288 287
f 354 289 288
f 353 289 354
f 353 290 289
f 352 290 353
f 352 291 290
f 352 292 291
f 351 292 352
f 351 293 292
f 350 293 351
f 350 294 293
f 350 295 294
f 349 295 350
f 349 296 295
f 348 296 349
f 348 297 296
f 347 297 348
f 347 298 297
f 322 324 323
f 347 299 298
f 346 299 347
f 322 325 324
f 345 299 346
f 322 326 325
f 344 299 345
f 344 300 299
f 322 327 326
f 343 300 344
f 322 328 327
f 342 300 343
f 322 329 328
f 341 300 342
f 341 301 300
f 322 330 329
f 340 301 341
f 339 301 340
f 322 331 330
f 338 301 339
f 322 332 331
f 337 301 338
f 322 333 332
f 336 301 337
f 322 334 333
f 335 301 336
f 322 335 334
f 335 302 301
f 322 302 335
f 322 303 302
f 322 304 303
f 321 304 322
f 321 305 304
f 320 305 321
f 319 305 320
f 319 306 305
f 318 306 319
f 317 306 318
f 317 307 306
f 316 307 317
f 316 308 307
f 315 308 316
f 314 308 315
f 314 309 308
f 313 309 314
f 312 309 313
f 312 310 309
f 311 310 312
f 419 421 420
f 419 422 421
f 418 422 419
f 418 423 422
f 417 423 418
f 417 424 423
f 416 424 417
f 416 425 424
f 415 425 416
f 415 426 425
f 414 426 415
f 414 427 426
f 413 470 414
f 470 427 414
f 413 471 470
f 469 427 470
f 413 472 471
f 468 427 469
f 413 473 472
f 467 427 468
f 467 428 427
f 413 474 473
f 412 474 413
f 466 428 467
f 412 475 474
f 465 428 466
f 412 476 475
f 464 428 465
f 412 477 476
f 463 428 464
f 411 477 412
f 463 429 428
f 411 478 477
f 462 429 463
f 411 479 478
f 461 429 462
f 410 479 411
f 461 430 429
f 410 480 479
f 460 430 461
f 410 481 480
f 459 430 460
f 409 481 410
f 409 482 481
f 459 431 430
f 483 431 459
f 409 483 482
f 409 431 483
f 408 431 409
f 408 432 431
f 407 433 408
f 433 432 408
f 407 434 433
f 406 434 407
f 406 435 434
f 406 436 435
f 405 436 406
f 405 437 436
f 404 437 405
f 404 438 437
f 456 458 457
f 404 439 438
f 455 458 456
f 454 458 455
f 403 439 404
f 403 440 439
f 453 458 454
f 452 458 453
f 403 441 440
f 451 458 452
f 403 442 441
f 450 458 451
f 402 442 403
f 449 458 450
f 402 443 442
f 448 458 449
f 402 444 443
f 447 458 448
f 446 458 447
f 402 445 444
f 445 458 446
f 402 458 445
f 401 458 402
f 401 385 458
f 400 385 401
f 400 386 385
f 400 387 386
f 399 387 400
f 399 388 387
f 399 389 388
f 398 389 399
f 398 390 389
f 398 391 390
f 397 391 398
f 397 392 391
f 397 393 392
f 397 394 393
f 396 394 397
f 396 395 394
f 567 568 569
f 567 569 570
f 567 570 571
f 566 567 571
f 566 571 572
f 566 572 573
f 566 573 574
f 565 566 574
f 565 574 575
f 565 575 576
f 565 576 577
f 564 565 577
f 564 577 578
f 564 578 579
f 564 579 580
f 563 564 580
f 563 580 491
f 491 580 490
f 490 580 489
f 489 580 488
f 488 580 487
f 487 580 486
f 486 580 485
f 485 580 484
f 484 580 581
f 562 563 493
f 493 563 492
f 492 563 491
f 561 562 495
f 495 562 494
f 494 562 493
f 561 495 496
f 561 496 497
f 561 497 498
f 560 561 498
f 560 498 499
f 560 499 500
f 560 500 501
f 559 560 501
f 559 501 502
f 559 502 503
f 558 559 503
f 558 503 504
f 558 504 505
f 557 558 505
f 557 505 506
f 556 557 506
f 556 506 507
f 556 507 508
f 555 556 508
f 555 508 509
f 554 555 509
f 554 509 510
f 554 510 511
f 553 554 511
f 553 511 512
f 553 512 513
f 552 553 513
f 552 513 514
f 530 531 532
f 552 514 515
f 529 530 532
f 551 552 515
f 528 529 532
f 551 515 516
f 527 528 532
f 526 527 532
f 525 526 532
f 551 516 517
f 524 525 532
f 523 524 532
f 551 517 518
f 522 523 532
f 521 522 532
f 551 518 519
f 520 521 532
f 550 551 519
f 519 520 532
f 550 519 532
f 549 550 532
f 548 549 532
f 547 548 532
f 547 532 533
f 547 533 534
f 547 534 535
f 546 547 535
f 546 535 536
f 546 536 537
f 546 537 538
f 546 538 539
f 545 546 539
f 545 539 540
f 545 540 541
f 545 541 542
f 544 545 542
f 544 542 543
f 701 702 703
f 701 703 704
f 700 701 704
f 700 704 705
f 700 705 706
f 699 700 706
f 699 706 707
f 699 707 708
f 698 699 708
f 698 708 709
f 698 709 710
f 697 698 710
f 697 710 711
f 697 711 712
f 696 697 712
f 696 712 713
f 696 713 714
f 695 696 714
f 695 714 589
f 589 714 588
f 588 714 587
f 587 714 586
f 586 714 585
f 585 714 584
f 584 714 583
f 583 714 582
f 582 714 715
f 694 695 591
f 591 695 590
f 590 695 589
f 693 694 592
f 592 694 591
f 692 693 594
f 594 693 593
f 593 693 592
f 692 594 595
f 692 595 596
f 692 596 597
f 692 597 598
f 692 598 599
f 691 692 599
f 691 599 600
f 691 600 601
f 691 601 602
f 691 602 603
f 690 691 603
f 690 603 604
f 690 604 605
f 690 605 606
f 689 690 606
f 689 606 607
f 689 607 608
f 689 608 609
f 689 609 610
f 689 610 611
f 688 689 611
f 688 611 612
f 688 612 613
f 688 613 614
f 687 688 614
f 687 614 615
f 687 615 616
f 687 616 617
f 686 687 617
f 686 617 618
f 685 686 618
f 685 618 619
f 685 619 620
f 684 685 620
f 684 620 621
f 683 684 621
f 683 621 622
f 683 622 623
f 682 683 623
f 682 623 624
f 681 682 624
f 681 624 625
f 681 625 626
f 680 681 626
f 680 626 627
f 679 680 627
f 679 627 628
f 678 679 628
f 678 628 629
f 653 654 655
f 678 629 630
f 677 678 630
f 653 655 656
f 676 677 630
f 653 656 657
f 675 676 630
f 675 630 631
f 653 657 658
f 674 675 631
f 653 658 659
f 673 674 631
f 653 659 660
f 672 673 631
f 672 631 632
f 653 660 661
f 671 672 632
f 670 671 632
f 653 661 662
f 669 670 632
f 653 662 663
f 668 669 632
f 653 663 664
f 667 668 632
f 653 664 665
f 666 667 632
f 653 665 666
f 666 632 633
f 653 666 633
f 653 633 634
f 653 634 635
f 652 653 635
f 652 635 636
f 651 652 636
f 650 651 636
f 650 636 637
f 649 650 637
f 648 649 637
f 648 637 638
f 647 648 638
f 647 638 639
f 646 647 639
f 645 646 639
f 645 639 640
f 644 645 640
f 643 644 640
f 643 640 641
f 642 643 641
f 750 751 752
f 750 752 753
f 749 750 753
f 749 753 754
f 748 749 754
f 748 754 755
f 747 748 755
f 747 755 756
f 746 747 756
f 746 756 757
f 745 746 757
f 745 757 758
f 744 745 801
f 801 745 758
f 744 801 802
f 800 801 758
f 744 802 803
f 799 800 758
f 744 803 804
f 798 799 758
f 798 758 759
f 744 804 805
f 743 744 805
f 797 798 759
f 743 805 806
f 796 797 759
f 743 806 807
f 795 796 759
f 743 807 808
f 794 795 759
f 742 743 808
f 794 759 760
f 742 808 809
f 793 794 760
f 742 809 810
f 792 793 760
f 741 742 810
f 792 760 761
f 741 810 811
f 791 792 761
f 741 811 812
f 790 791 761
f 740 741 812
f 740 812 813
f 790 761 762
f 814 790 762
f 740 813 814
f 740 814 762
f 739 740 762
f 739 762 763
f 738 739 764
f 764 739 763
f 738 764 765
f 737 738 765
f 737 765 766
f 737 766 767
f 736 737 767
f 736 767 768
f 735 736 768
f 735 768 769
f 787 788 789
f 735 769 770
f 786 787 789
f 785 786 789
f 734 735 770
f 734 770 771
f 784 785 789
f 783 784 789
f 734 771 772
f 782 783 789
f 734 772 773
f 781 782 789
f 733 734 773
f 780 781 789
f 733 773 774
f 779 780 789
f 733 774 775
f 778 779 789
f 777 778 789
f 733 775 776
f 776 777 789
f 733 776 789
f 732 733 789
f 732 789 716
f 731 732 716
f 731 716 717
f 731 717 718
f 730 731 718
f 730 718 719
f 730 719 720
f 729 730 720
f 729 720 721
f 729 721 722
f 728 729 722
f 728 722 723
f 728 723 724
f 728 724 725
f 727 728 725
f 727 725 726
f 816 818 817 815
f 818 820 819 817
f 820 822 821 819
f 822 824 823 821
f 824 826 825 823
f 826 828 827 825
f 828 830 829 827
f 830 832 831 829
f 832 834 833 831
f 834 836 835 833
f 836 838 837 835
f 838 840 839 837
f 840 842 841 839
f 842 844 843 841
f 844 846 845 843
f 846 848 847 845
f 848 850 849 847
f 850 852 851 849
f 852 854 853 851
f 854 856 855 853
f 856 858 857 855
f 858 860 859 857
f 860 862 861 859
f 862 864 863 861
f 864 866 865 863
f 866 868 867 865
f 868 870 869 867
f 870 872 871 869
f 872 874 873 871
f 874 876 875 873
f 876 878 877 875
f 878 880 879 877
f 880 882 881 879
f 882 884 883 881
f 884 886 885 883
f 886 888 887 885
f 888 890 889 887
f 890 892 891 889
f 892 894 893 891
f 894 896 895 893
f 896 898 897 895
f 898 900 899 897
f 900 902 901 899
f 902 904 903 901
f 904 906 905 903
f 906 908 907 905
f 908 910 909 907
f 910 912 911 909
f 912 914 913 911
f 914 916 915 913
f 916 918 917 915
f 918 920 919 917
f 920 922 921 919
f 922 924 923 921
f 924 926 925 923
f 926 928 927 925
f 928 930 929 927
f 930 932 931 929
f 932 934 933 931
f 934 936 935 933
f 936 938 937 935
f 938 940 939 937
f 940 942 941 939
f 942 944 943 941
f 944 946 945 943
f 946 948 947 945
f 948 950 949 947
f 950 952 951 949
f 952 954 953 951
f 954 956 955 953
f 956 958 957 955
f 958 960 959 957
f 960 962 961 959
f 962 816 815 961
f 964 966 965 963
f 966 968 967 965
f 968 970 969 967
f 970 972 971 969
f 972 974 973 971
f 974 976 975 973
f 976 978 977 975
f 978 980 979 977
f 980 982 981 979
f 982 984 983 981
f 984 986 985 983
f 986 988 987 985
f 988 990 989 987
f 990 992 991 989
f 992 994 993 991
f 994 996 995 993
f 996 998 997 995
f 998 1000 999 997
f 1000 1002 1001 999
f 1002 1004 1003 1001
f 1004 1006 1005 1003
f 1006 1008 1007 1005
f 1008 1010 1009 1007
f 1010 1012 1011 1009
f 1012 964 963 1011
f 1014 1016 1015 1013
f 1016 1018 1017 1015
f 1018 1020 1019 1017
f 1020 1022 1021 1019
f 1022 1024 1023 1021
f 1024 1026 1025 1023
f 1026 1028 1027 1025
f 1028 1030 1029 1027
f 1030 1032 1031 1029
f 1032 1034 1033 1031
f 1034 1036 1035 1033
f 1036 1038 1037 1035
f 1038 1040 1039 1037
f 1040 1042 1041 1039
f 1042 1044 1043 1041
f 1044 1046 1045 1043
f 1046 1048 1047 1045
f 1048 1050 1049 1047
f 1050 1052 1051 1049
f 1052 1054 1053 1051
f 1054 1056 1055 1053
f 1056 1058 1057 1055
f 1058 1060 1059 1057
f 1060 1062 1061 1059
f 1062 1064 1063 1061
f 1064 1066 1065 1063
f 1066 1068 1067 1065
f 1068 1070 1069 1067
f 1070 1072 1071 1069
f 1072 1074 1073 1071
f 1074 1076 1075 1073
f 1076 1078 1077 1075
f 1078 1080 1079 1077
f 1080 1082 1081 1079
f 1082 1084 1083 1081
f 1084 1086 1085 1083
f 1086 1088 1087 1085
f 1088 1090 1089 1087
f 1090 1092 1091 1089
f 1092 1094 1093 1091
f 1094 1096 1095 1093
f 1096 1098 1097 1095
f 1098 1100 1099 1097
f 1100 1102 1101 1099
f 1102 1104 1103 1101
f 1104 1106 1105 1103
f 1106 1108 1107 1105
f 1108 1110 1109 1107
f 1110 1112 1111 1109
f 1112 1114 1113 1111
f 1114 1116 1115 1113
f 1116 1118 1117 1115
f 1118 1120 1119 1117
f 1120 1122 1121 1119
f 1122 1124 1123 1121
f 1124 1126 1125 1123
f 1126 1128 1127 1125
f 1128 1130 1129 1127
f 1130 1132 1131 1129
f 1132 1134 1133 1131
f 1134 1136 1135 1133
f 1136 1138 1137 1135
f 1138 1140 1139 1137
f 1140 1142 1141 1139
f 1142 1144 1143 1141
f 1144 1146 1145 1143
f 1146 1148 1147 1145
f 1148 1150 1149 1147
f 1150 1152 1151 1149
f 1152 1154 1153 1151
f 1154 1156 1155 1153
f 1156 1158 1157 1155
f 1158 1160 1159 1157
f 1160 1162 1161 1159
f 1162 1164 1163 1161
f 1164 1166 1165 1163
f 1166 1168 1167 1165
f 1168 1170 1169 1167
f 1170 1172 1171 1169
f 1172 1174 1173 1171
f 1174 1176 1175 1173
f 1176 1178 1177 1175
f 1178 1180 1179 1177
f 1180 1182 1181 1179
f 1182 1184 1183 1181
f 1184 1186 1185 1183
f 1186 1188 1187 1185
f 1188 1190 1189 1187
f 1190 1192 1191 1189
f 1192 1194 1193 1191
f 1194 1196 1195 1193
f 1196 1198 1197 1195
f 1198 1200 1199 1197
f 1200 1202 1201 1199
f 1202 1204 1203 1201
f 1204 1206 1205 1203
f 1206 1208 1207 1205
f 1208 1210 1209 1207
f 1210 1212 1211 1209
f 1212 1214 1213 1211
f 1214 1216 1215 1213
f 1216 1218 1217 1215
f 1218 1220 1219 1217
f 1220 1222 1221 1219
f 1222 1224 1223 1221
f 1224 1226 1225 1223
f 1226 1228 1227 1225
f 1228 1230 1229 1227
f 1230 1232 1231 1229
f 1232 1234 1233 1231
f 1234 1236 1235 1233
f 1236 1238 1237 1235
f 1238 1240 1239 1237
f 1240 1242 1241 1239
f 1242 1244 1243 1241
f 1244 1246 1245 1243
f 1246 1248 1247 1245
f 1248 1250 1249 1247
f 1250 1252 1251 1249
f 1252 1254 1253 1251
f 1254 1256 1255 1253
f 1256 1258 1257 1255
f 1258 1260 1259 1257
f 1260 1262 1261 1259
f 1262 1264 1263 1261
f 1264 1266 1265 1263
f 1266 1268 1267 1265
f 1268 1270 1269 1267
f 1270 1272 1271 1269
f 1272 1274 1273 1271
f 1274 1276 1275 1273
f 1276 1278 1277 1275
f 1278 1280 1279 1277
f 1280 1014 1013 1279
f 1282 1284 1283 1281
f 1284 1286 1285 1283
f 1286 1288 1287 1285
f 1288 1290 1289 1287
f 1290 1292 1291 1289
f 1292 1294 1293 1291
f 1294 1296 1295 1293
f 1296 1298 1297 1295
f 1298 1300 1299 1297
f 1300 1302 1301 1299
f 1302 1304 1303 1301
f 1304 1306 1305 1303
f 1306 1308 1307 1305
f 1308 1310 1309 1307
f 1310 1312 1311 1309
f 1312 1314 1313 1311
f 1314 1316 1315 1313
f 1316 1318 1317 1315
f 1318 1320 1319 1317
f 1320 1322 1321 1319
f 1322 1324 1323 1321
f 1324 1326 1325 1323
f 1326 1328 1327 1325
f 1328 1330 1329 1327
f 1330 1332 1331 1329
f 1332 1334 1333 1331
f 1334 1336 1335 1333
f 1336 1338 1337 1335
f 1338 1340 1339 1337
f 1340 1342 1341 1339
f 1342 1344 1343 1341
f 1344 1346 1345 1343
f 1346 1348 1347 1345
f 1348 1350 1349 1347
f 1350 1352 1351 1349
f 1352 1354 1353 1351
f 1354 1356 1355 1353
f 1356 1358 1357 1355
f 1358 1360 1359 1357
f 1360 1362 1361 1359
f 1362 1364 1363 1361
f 1364 1366 1365 1363
f 1366 1368 1367 1365
f 1368 1370 1369 1367
f 1370 1372 1371 1369
f 1372 1374 1373 1371
f 1374 1376 1375 1373
f 1376 1378 1377 1375
f 1378 1380 1379 1377
f 1380 1382 1381 1379
f 1382 1384 1383 1381
f 1384 1386 1385 1383
f 1386 1388 1387 1385
f 1388 1390 1389 1387
f 1390 1392 1391 1389
f 1392 1394 1393 1391
f 1394 1396 1395 1393
f 1396 1398 1397 1395
f 1398 1400 1399 1397
f 1400 1402 1401 1399
f 1402 1404 1403 1401
f 1404 1406 1405 1403
f 1406 1408 1407 1405
f 1408 1410 1409 1407
f 1410 1412 1411 1409
f 1412 1414 1413 1411
f 1414 1416 1415 1413
f 1416 1418 1417 1415
f 1418 1420 1419 1417
f 1420 1422 1421 1419
f 1422 1424 1423 1421
f 1424 1426 1425 1423
f 1426 1428 1427 1425
f 1428 1430 1429 1427
f 1430 1432 1431 1429
f 1432 1434 1433 1431
f 1434 1436 1435 1433
f 1436 1438 1437 1435
f 1438 1440 1439 1437
f 1440 1442 1441 1439
f 1442 1444 1443 1441
f 1444 1446 1445 1443
f 1446 1448 1447 1445
f 1448 1450 1449 1447
f 1450 1452 1451 1449
f 1452 1454 1453 1451
f 1454 1456 1455 1453
f 1456 1458 1457 1455
f 1458 1460 1459 1457
f 1460 1462 1461 1459
f 1462 1464 1463 1461
f 1464 1466 1465 1463
f 1466 1468 1467 1465
f 1468 1470 1469 1467
f 1470 1472 1471 1469
f 1472 1474 1473 1471
f 1474 1476 1475 1473
f 1476 1282 1281 1475
