mtllib keyboard_key_3_10_link.mtl
o keyboard_key_3_10_link

g keyboard_key_3_10_SOLID
v -0.0199999958 -0.0164999999 0
v -0.0199999958 -0.0130000003 -0.00349999964
v -0.0234999955 -0.0130000003 0
v -0.0199999958 -0.0162335783 -0.0013393946
v -0.0199999958 -0.0154748745 -0.00247487426
v -0.0213393867 -0.0162335783 0
v -0.021372959 -0.0159120411 -0.00137295946
v -0.0213032961 -0.0152968913 -0.00229689106
v -0.0220207274 -0.0150207281 -0.00202072784
v -0.0213393867 -0.0130000003 -0.00323357806
v -0.0224748701 -0.0130000003 -0.00247487426
v -0.0199999958 -0.0143393911 -0.00323357806
v -0.021372959 -0.0143729597 -0.0029120408
v -0.0222968906 -0.0143032968 -0.00229689106
v -0.0232335776 -0.0143393911 0
v -0.0224748701 -0.0154748745 0
v -0.0232335776 -0.0130000003 -0.00133939087
v -0.0229120404 -0.0143729597 -0.00137295946
v -0.0222968906 -0.0152968913 -0.00130329654
v 0.0200000107 -0.0164999999 0
v 0.0234999955 -0.0130000003 0
v 0.0200000107 -0.0130000003 -0.00349999964
v 0.0213393867 -0.0162335783 0
v 0.022474885 -0.0154748745 0
v 0.0200000107 -0.0162335783 -0.00133939087
v 0.0213729739 -0.0159120411 -0.00137295946
v 0.0222969055 -0.0152968913 -0.00130329654
v 0.0220207274 -0.0150207281 -0.00202072784
v 0.0232335925 -0.0130000003 -0.0013393946
v 0.022474885 -0.0130000003 -0.00247487426
v 0.0232335925 -0.0143393911 0
v 0.0229120255 -0.0143729597 -0.00137295946
v 0.0222969055 -0.0143032968 -0.00229689106
v 0.0200000107 -0.0143393911 -0.00323357806
v 0.0200000107 -0.0154748745 -0.00247487426
v 0.0213393867 -0.0130000003 -0.00323357806
v 0.0213729739 -0.0143729597 -0.0029120408
v 0.0213032961 -0.0152968913 -0.00229689106
v 0.0200000107 0.0164999962 0
v 0.0200000107 0.0129999965 -0.00349999964
v 0.0234999955 0.0129999965 0
v 0.0200000107 0.0162335783 -0.0013393946
v 0.0200000107 0.0154748708 -0.00247487426
v 0.0213393867 0.0162335783 0
v 0.0213729739 0.0159120411 -0.00137295946
v 0.0213032961 0.0152968913 -0.00229689106
v 0.0220207274 0.0150207281 -0.00202072784
v 0.0213393867 0.0129999965 -0.00323357806
v 0.022474885 0.0129999965 -0.00247487426
v 0.0200000107 0.0143393949 -0.00323357806
v 0.0213729739 0.0143729597 -0.0029120408
v 0.0222969055 0.0143032968 -0.00229689106
v 0.0232335925 0.0143393949 0
v 0.022474885 0.0154748708 0
v 0.0232335925 0.0129999965 -0.00133939087
v 0.0229120255 0.0143729597 -0.00137295946
v 0.0222969055 0.0152968913 -0.00130329654
v -0.0199999958 0.0164999962 0
v -0.0234999955 0.0129999965 0
v -0.0199999958 0.0129999965 -0.00349999964
v -0.0213393867 0.0162335783 0
v -0.0224748701 0.0154748708 0
v -0.0199999958 0.0162335783 -0.00133939087
v -0.021372959 0.0159120411 -0.00137295946
v -0.0222968906 0.0152968913 -0.00130329654
v -0.0220207274 0.0150207281 -0.00202072784
v -0.0232335776 0.0129999965 -0.0013393946
v -0.0224748701 0.0129999965 -0.00247487426
v -0.0232335776 0.0143393949 0
v -0.0229120404 0.0143729597 -0.00137295946
v -0.0222968906 0.0143032968 -0.00229689106
v -0.0199999958 0.0143393949 -0.00323357806
v -0.0199999958 0.0154748708 -0.00247487426
v -0.0213393867 0.0129999965 -0.00323357806
v -0.021372959 0.0143729597 -0.0029120408
v -0.0213032961 0.0152968913 -0.00229689106
v -0.0234999955 -0.0130000003 0
v -0.0199999958 -0.0130000003 0.00350000337
v -0.0199999958 -0.0164999999 0
v -0.0232335776 -0.0130000003 0.0013393946
v -0.0224748701 -0.0130000003 0.00247487426
v -0.0232335776 -0.0143393911 0
v -0.0229120404 -0.0143729597 0.00137295946
v -0.0222968906 -0.0143032968 0.00229689106
v -0.0220207274 -0.0150207281 0.00202072784
v -0.0199999958 -0.0143393911 0.00323357806
v -0.0199999958 -0.0154748745 0.00247487426
v -0.0213393867 -0.0130000003 0.00323357806
v -0.021372959 -0.0143729597 0.0029120408
v -0.0213032961 -0.0152968913 0.00229689106
v -0.0213393867 -0.0162335783 0
v -0.0224748701 -0.0154748745 0
v -0.0199999958 -0.0162335783 0.00133939087
v -0.021372959 -0.0159120411 0.00137295946
v -0.0222968906 -0.0152968913 0.00130329654
v 0.0200000107 -0.0164999999 0
v 0.0200000107 -0.0130000003 0.00350000337
v 0.0234999955 -0.0130000003 0
v 0.0200000107 -0.0162335783 0.0013393946
v 0.0200000107 -0.0154748745 0.00247487426
v 0.0213393867 -0.0162335783 0
v 0.0213729739 -0.0159120411 0.00137295946
v 0.0213032961 -0.0152968913 0.00229689106
v 0.0220207274 -0.0150207281 0.00202072784
v 0.0213393867 -0.0130000003 0.00323357806
v 0.022474885 -0.0130000003 0.00247487426
v 0.0200000107 -0.0143393911 0.00323357806
v 0.0213729739 -0.0143729597 0.0029120408
v 0.0222969055 -0.0143032968 0.00229689106
v 0.0232335925 -0.0143393911 0
v 0.022474885 -0.0154748745 0
v 0.0232335925 -0.0130000003 0.00133939087
v 0.0229120255 -0.0143729597 0.00137295946
v 0.0222969055 -0.0152968913 0.00130329654
v 0.0200000107 0.0129999965 0.00350000337
v 0.0200000107 0.0164999962 0
v 0.0234999955 0.0129999965 0
v 0.0200000107 0.0143393949 0.00323357806
v 0.0200000107 0.0154748708 0.00247487426
v 0.0213393867 0.0129999965 0.00323357806
v 0.0213729739 0.0143729597 0.0029120408
v 0.0213032961 0.0152968913 0.00229689106
v 0.0220207274 0.0150207281 0.00202072784
v 0.0213393867 0.0162335783 0
v 0.022474885 0.0154748708 0
v 0.0200000107 0.0162335783 0.00133939087
v 0.0213729739 0.0159120411 0.00137295946
v 0.0222969055 0.0152968913 0.00130329654
v 0.0232335925 0.0129999965 0.0013393946
v 0.022474885 0.0129999965 0.00247487426
v 0.0232335925 0.0143393949 0
v 0.0229120255 0.0143729597 0.00137295946
v 0.0222969055 0.0143032968 0.00229689106
v -0.0234999955 0.0129999965 0
v -0.0199999958 0.0164999962 0
v -0.0199999958 0.0129999965 0.00350000337
v -0.0232335776 0.0143393949 0
v -0.0224748701 0.0154748708 0
v -0.0232335776 0.0129999965 0.00133939087
v -0.0229120404 0.0143729597 0.00137295946
v -0.0222968906 0.0152968913 0.00130329654
v -0.0220207274 0.0150207281 0.00202072784
v -0.0199999958 0.0162335783 0.0013393946
v -0.0199999958 0.0154748708 0.00247487426
v -0.0213393867 0.0162335783 0
v -0.021372959 0.0159120411 0.00137295946
v -0.0213032961 0.0152968913 0.00229689106
v -0.0213393867 0.0129999965 0.00323357806
v -0.0224748701 0.0129999965 0.00247487426
v -0.0199999958 0.0143393949 0.00323357806
v -0.021372959 0.0143729597 0.0029120408
v -0.0222968906 0.0143032968 0.00229689106
usemtl matte_black_keycaps_003
f 59 134 77 3
f 2 22 40 60
f 39 116 135 58
f 78 136 115 97
f 21 98 117 41
f 1 4 7 6
f 4 5 8 7
f 6 7 19 16
f 7 8 9 19
f 2 10 13 12
f 10 11 14 13
f 12 13 8 5
f 13 14 9 8
f 3 15 18 17
f 15 16 19 18
f 17 18 14 11
f 18 19 9 14
f 20 23 26 25
f 23 24 27 26
f 25 26 38 35
f 26 27 28 38
f 21 29 32 31
f 29 30 33 32
f 31 32 27 24
f 32 33 28 27
f 22 34 37 36
f 34 35 38 37
f 36 37 33 30
f 37 38 28 33
f 39 42 45 44
f 42 43 46 45
f 44 45 57 54
f 45 46 47 57
f 40 48 51 50
f 48 49 52 51
f 50 51 46 43
f 51 52 47 46
f 41 53 56 55
f 53 54 57 56
f 55 56 52 49
f 56 57 47 52
f 58 61 64 63
f 61 62 65 64
f 63 64 76 73
f 64 65 66 76
f 59 67 70 69
f 67 68 71 70
f 69 70 65 62
f 70 71 66 65
f 60 72 75 74
f 72 73 76 75
f 74 75 71 68
f 75 76 66 71
f 77 80 83 82
f 80 81 84 83
f 82 83 95 92
f 83 84 85 95
f 78 86 89 88
f 86 87 90 89
f 88 89 84 81
f 89 90 85 84
f 79 91 94 93
f 91 92 95 94
f 93 94 90 87
f 94 95 85 90
f 96 99 102 101
f 99 100 103 102
f 101 102 114 111
f 102 103 104 114
f 97 105 108 107
f 105 106 109 108
f 107 108 103 100
f 108 109 104 103
f 98 110 113 112
f 110 111 114 113
f 112 113 109 106
f 113 114 104 109
f 115 118 121 120
f 118 119 122 121
f 120 121 133 130
f 121 122 123 133
f 116 124 127 126
f 124 125 128 127
f 126 127 122 119
f 127 128 123 122
f 117 129 132 131
f 129 130 133 132
f 131 132 128 125
f 132 133 123 128
f 134 137 140 139
f 137 138 141 140
f 139 140 152 149
f 140 141 142 152
f 135 143 146 145
f 143 144 147 146
f 145 146 141 138
f 146 147 142 141
f 136 148 151 150
f 148 149 152 151
f 150 151 147 144
f 151 152 142 147
f 39 58 63 42
f 42 63 73 43
f 43 73 72 50
f 50 72 60 40
f 1 20 25 4
f 4 25 35 5
f 5 35 34 12
f 12 34 22 2
f 21 41 55 29
f 29 55 49 30
f 30 49 48 36
f 36 48 40 22
f 2 60 74 10
f 10 74 68 11
f 11 68 67 17
f 17 67 59 3
f 3 77 82 15
f 15 82 92 16
f 16 92 91 6
f 6 91 79 1
f 78 97 107 86
f 86 107 100 87
f 87 100 99 93
f 93 99 96 79
f 97 115 120 105
f 105 120 130 106
f 106 130 129 112
f 112 129 117 98
f 77 134 139 80
f 80 139 149 81
f 81 149 148 88
f 88 148 136 78
f 20 96 101 23
f 23 101 111 24
f 24 111 110 31
f 31 110 98 21
f 41 117 131 53
f 53 131 125 54
f 54 125 124 44
f 44 124 116 39
f 115 136 150 118
f 118 150 144 119
f 119 144 143 126
f 126 143 135 116
f 58 135 145 61
f 61 145 138 62
f 62 138 137 69
f 69 137 134 59
f 1 79 96 20

g key_legend_3_10
v -0.00108613074 -0.000614501536 0.00450000539
v -0.00116403401 -0.000598475337 0.00450000539
v -0.00123797357 -0.000572659075 0.00450000539
v -0.00130721927 -0.000537782907 0.00450000539
v -0.00137105584 -0.00049456954 0.00450000539
v -0.00142875314 -0.00044374913 0.00450000539
v -0.0014795661 -0.000386059284 0.00450000539
v -0.00152277946 -0.00032222271 0.00450000539
v -0.00155766308 -0.000252969563 0.00450000539
v -0.00158347189 -0.000179030001 0.00450000539
v -0.00159950554 -0.00010112673 0.00450000539
v -0.00160500407 -2.00048089e-05 0.00450000539
v -0.00159950554 6.11245632e-05 0.00450000539
v -0.00158347189 0.000139027834 0.00450000539
v -0.00155766308 0.000212967396 0.00450000539
v -0.00152277946 0.000282220542 0.00450000539
v -0.0014795661 0.000346057117 0.00450000539
v -0.00142875314 0.000403746963 0.00450000539
v -0.00137105584 0.000454567373 0.00450000539
v -0.00130721927 0.00049777329 0.00450000539
v -0.00123797357 0.000532656908 0.00450000539
v -0.00116403401 0.00055847317 0.00450000539
v -0.00108613074 0.000574491918 0.00450000539
v -0.00100500882 0.000579997897 0.00450000539
v -0.000923871994 0.000574491918 0.00450000539
v -0.000845968723 0.00055847317 0.00450000539
v -0.000772029161 0.000532656908 0.00450000539
v -0.000702783465 0.00049777329 0.00450000539
v -0.000638946891 0.000454567373 0.00450000539
v -0.000581249595 0.000403746963 0.00450000539
v -0.000530436635 0.000346057117 0.00450000539
v -0.000487223268 0.000282220542 0.00450000539
v -0.000452339649 0.000212967396 0.00450000539
v -0.000426530838 0.000139027834 0.00450000539
v -0.00041051209 6.11245632e-05 0.00450000539
v -0.00040499866 -2.00048089e-05 0.00450000539
v -0.00041051209 -0.000101134181 0.00450000539
v -0.000426530838 -0.000179030001 0.00450000539
v -0.000452339649 -0.000252969563 0.00450000539
v -0.000487223268 -0.00032222271 0.00450000539
v -0.000530436635 -0.000386059284 0.00450000539
v -0.000581249595 -0.00044374913 0.00450000539
v -0.000638946891 -0.00049456954 0.00450000539
v -0.000702783465 -0.000537782907 0.00450000539
v -0.000772029161 -0.000572659075 0.00450000539
v -0.000845968723 -0.000598475337 0.00450000539
v -0.000923871994 -0.000614501536 0.00450000539
v -0.00100500882 -0.000620000064 0.00450000539
v -0.00139062107 -0.00487306342 0.00450000539
v -0.00131161511 -0.00478699431 0.00450000539
v -0.00124672055 -0.00470140949 0.00450000539
v -0.00119462609 -0.00461592898 0.00450000539
v -0.00115406513 -0.00453016907 0.00450000539
v -0.00112375617 -0.00444375351 0.00450000539
v -0.00110238791 -0.00435629115 0.00450000539
v -0.00108870864 -0.00426740944 0.00450000539
v -0.00108140707 -0.00417672098 0.00450000539
v -0.0010792166 -0.00408384576 0.00450000539
v -0.00108084083 -0.0039884001 0.00450000539
v -0.00108499825 -0.00389000028 0.00450000539
v -0.0011626482 -0.00387610123 0.00450000539
v -0.00123536587 -0.00385463238 0.00450000539
v -0.00130280852 -0.00382594019 0.00450000539
v -0.00136463344 -0.00379037112 0.00450000539
v -0.00142048299 -0.00374827906 0.00450000539
v -0.00146999955 -0.00370000303 0.00450000539
v -0.00151285529 -0.00364589319 0.00450000539
v -0.00154870749 -0.00358629972 0.00450000539
v -0.0015771836 -0.00352156535 0.00450000539
v -0.00159797072 -0.00345204026 0.00450000539
v -0.00161068141 -0.00337807089 0.00450000539
v -0.00161500275 -0.00330000371 0.00450000539
v -0.00160968304 -0.00320397317 0.00450000539
v -0.00159417093 -0.00311592966 0.00450000539
v -0.00156906247 -0.00303594023 0.00450000539
v -0.00153499842 -0.00296407938 0.00450000539
v -0.00149260461 -0.00290040672 0.00450000539
v -0.00144250691 -0.0028450042 0.00450000539
v -0.00138531625 -0.00279793143 0.00450000539
v -0.00132167339 -0.00275926292 0.00450000539
v -0.00125218928 -0.00272906572 0.00450000539
v -0.00117750466 -0.00270740688 0.00450000539
v -0.00109823048 -0.00269436836 0.00450000539
v -0.0010150075 -0.00269000232 0.00450000539
v -0.000915691257 -0.00269856304 0.00450000539
v -0.000823006034 -0.00272347778 0.00450000539
v -0.000737339258 -0.00276359916 0.00450000539
v -0.00065907836 -0.00281777978 0.00450000539
v -0.000588580966 -0.00288487971 0.00450000539
v -0.000526249409 -0.00296375155 0.00450000539
v -0.000472456217 -0.00305324793 0.00450000539
v -0.00042758882 -0.00315222144 0.00450000539
v -0.00039203465 -0.00325953215 0.00450000539
v -0.000366166234 -0.00337403268 0.00450000539
v -0.000350356102 -0.00349456817 0.00450000539
v -0.000345006585 -0.00362000242 0.00450000539
v -0.000353306532 -0.003801357 0.00450000539
v -0.000378057361 -0.00397500023 0.00450000539
v -0.000419065356 -0.00414031371 0.00450000539
v -0.000476107001 -0.00429666787 0.00450000539
v -0.000548988581 -0.00444344059 0.00450000539
v -0.000637501478 -0.00458000228 0.00450000539
v -0.000741422176 -0.00470573083 0.00450000539
v -0.00086055696 -0.00482000038 0.00450000539
v -0.000994682312 -0.00492218882 0.00450000539
v -0.00114361942 -0.00501167029 0.00450000539
v -0.00130711496 -0.00508781523 0.00450000539
v -0.00148500502 -0.0051500015 0.00450000539
v -0.00148500502 -0.00496000051 0.00450000539
v -0.00108613074 -0.000614501536 0.00409999862
v -0.00116403401 -0.000598475337 0.00409999862
v -0.00123797357 -0.000572659075 0.00409999862
v -0.00130721927 -0.000537782907 0.00409999862
v -0.00137105584 -0.00049456954 0.00409999862
v -0.00142875314 -0.00044374913 0.00409999862
v -0.0014795661 -0.000386059284 0.00409999862
v -0.00152277946 -0.00032222271 0.00409999862
v -0.00155766308 -0.000252969563 0.00409999862
v -0.00158347189 -0.000179030001 0.00409999862
v -0.00159950554 -0.00010112673 0.00409999862
v -0.00160500407 -2.00048089e-05 0.00409999862
v -0.00159950554 6.11245632e-05 0.00409999862
v -0.00158347189 0.000139027834 0.00409999862
v -0.00155766308 0.000212967396 0.00409999862
v -0.00152277946 0.000282220542 0.00409999862
v -0.0014795661 0.000346057117 0.00409999862
v -0.00142875314 0.000403746963 0.00409999862
v -0.00137105584 0.000454567373 0.00409999862
v -0.00130721927 0.00049777329 0.00409999862
v -0.00123797357 0.000532656908 0.00409999862
v -0.00116403401 0.00055847317 0.00409999862
v -0.00108613074 0.000574491918 0.00409999862
v -0.00100500882 0.000579997897 0.00409999862
v -0.000923871994 0.000574491918 0.00409999862
v -0.000845968723 0.00055847317 0.00409999862
v -0.000772029161 0.000532656908 0.00409999862
v -0.000702783465 0.00049777329 0.00409999862
v -0.000638946891 0.000454567373 0.00409999862
v -0.000581249595 0.000403746963 0.00409999862
v -0.000530436635 0.000346057117 0.00409999862
v -0.000487223268 0.000282220542 0.00409999862
v -0.000452339649 0.000212967396 0.00409999862
v -0.000426530838 0.000139027834 0.00409999862
v -0.00041051209 6.11245632e-05 0.00409999862
v -0.00040499866 -2.00048089e-05 0.00409999862
v -0.00041051209 -0.000101134181 0.00409999862
v -0.000426530838 -0.000179030001 0.00409999862
v -0.000452339649 -0.000252969563 0.00409999862
v -0.000487223268 -0.00032222271 0.00409999862
v -0.000530436635 -0.000386059284 0.00409999862
v -0.000581249595 -0.00044374913 0.00409999862
v -0.000638946891 -0.00049456954 0.00409999862
v -0.000702783465 -0.000537782907 0.00409999862
v -0.000772029161 -0.000572659075 0.00409999862
v -0.000845968723 -0.000598475337 0.00409999862
v -0.000923871994 -0.000614501536 0.00409999862
v -0.00100500882 -0.000620000064 0.00409999862
v -0.00139062107 -0.00487306342 0.00409999862
v -0.00131161511 -0.00478699431 0.00409999862
v -0.00124672055 -0.00470140949 0.00409999862
v -0.00119462609 -0.00461592898 0.00409999862
v -0.00115406513 -0.00453016907 0.00409999862
v -0.00112375617 -0.00444375351 0.00409999862
v -0.00110238791 -0.00435629115 0.00409999862
v -0.00108870864 -0.00426740944 0.00409999862
v -0.00108140707 -0.00417672098 0.00409999862
v -0.0010792166 -0.00408384576 0.00409999862
v -0.00108084083 -0.0039884001 0.00409999862
v -0.00108499825 -0.00389000028 0.00409999862
v -0.0011626482 -0.00387610123 0.00409999862
v -0.00123536587 -0.00385463238 0.00409999862
v -0.00130280852 -0.00382594019 0.00409999862
v -0.00136463344 -0.00379037112 0.00409999862
v -0.00142048299 -0.00374827906 0.00409999862
v -0.00146999955 -0.00370000303 0.00409999862
v -0.00151285529 -0.00364589319 0.00409999862
v -0.00154870749 -0.00358629972 0.00409999862
v -0.0015771836 -0.00352156535 0.00409999862
v -0.00159797072 -0.00345204026 0.00409999862
v -0.00161068141 -0.00337807089 0.00409999862
v -0.00161500275 -0.00330000371 0.00409999862
v -0.00160968304 -0.00320397317 0.00409999862
v -0.00159417093 -0.00311592966 0.00409999862
v -0.00156906247 -0.00303594023 0.00409999862
v -0.00153499842 -0.00296407938 0.00409999862
v -0.00149260461 -0.00290040672 0.00409999862
v -0.00144250691 -0.0028450042 0.00409999862
v -0.00138531625 -0.00279793143 0.00409999862
v -0.00132167339 -0.00275926292 0.00409999862
v -0.00125218928 -0.00272906572 0.00409999862
v -0.00117750466 -0.00270740688 0.00409999862
v -0.00109823048 -0.00269436836 0.00409999862
v -0.0010150075 -0.00269000232 0.00409999862
v -0.000915691257 -0.00269856304 0.00409999862
v -0.000823006034 -0.00272347778 0.00409999862
v -0.000737339258 -0.00276359916 0.00409999862
v -0.00065907836 -0.00281777978 0.00409999862
v -0.000588580966 -0.00288487971 0.00409999862
v -0.000526249409 -0.00296375155 0.00409999862
v -0.000472456217 -0.00305324793 0.00409999862
v -0.00042758882 -0.00315222144 0.00409999862
v -0.00039203465 -0.00325953215 0.00409999862
v -0.000366166234 -0.00337403268 0.00409999862
v -0.000350356102 -0.00349456817 0.00409999862
v -0.000345006585 -0.00362000242 0.00409999862
v -0.000353306532 -0.003801357 0.00409999862
v -0.000378057361 -0.00397500023 0.00409999862
v -0.000419065356 -0.00414031371 0.00409999862
v -0.000476107001 -0.00429666787 0.00409999862
v -0.000548988581 -0.00444344059 0.00409999862
v -0.000637501478 -0.00458000228 0.00409999862
v -0.000741422176 -0.00470573083 0.00409999862
v -0.00086055696 -0.00482000038 0.00409999862
v -0.000994682312 -0.00492218882 0.00409999862
v -0.00114361942 -0.00501167029 0.00409999862
v -0.00130711496 -0.00508781523 0.00409999862
v -0.00148500502 -0.0051500015 0.00409999862
v -0.00148500502 -0.00496000051 0.00409999862
v -0.00139062107 -0.00487306342 0.00409999862
v -0.00139062107 -0.00487306342 0.00450000539
v -0.00131161511 -0.00478699431 0.00409999862
v -0.00131161511 -0.00478699431 0.00450000539
v -0.00124672055 -0.00470140949 0.00409999862
v -0.00124672055 -0.00470140949 0.00450000539
v -0.00119462609 -0.00461592898 0.00409999862
v -0.00119462609 -0.00461592898 0.00450000539
v -0.00115406513 -0.00453016907 0.00409999862
v -0.00115406513 -0.00453016907 0.00450000539
v -0.00112375617 -0.00444375351 0.00409999862
v -0.00112375617 -0.00444375351 0.00450000539
v -0.00110238791 -0.00435629115 0.00409999862
v -0.00110238791 -0.00435629115 0.00450000539
v -0.00108870864 -0.00426740944 0.00409999862
v -0.00108870864 -0.00426740944 0.00450000539
v -0.00108140707 -0.00417672098 0.00409999862
v -0.00108140707 -0.00417672098 0.00450000539
v -0.0010792166 -0.00408384576 0.00409999862
v -0.0010792166 -0.00408384576 0.00450000539
v -0.00108084083 -0.0039884001 0.00409999862
v -0.00108084083 -0.0039884001 0.00450000539
v -0.00108499825 -0.00389000028 0.00409999862
v -0.00108499825 -0.00389000028 0.00450000539
v -0.0011626482 -0.00387610123 0.00409999862
v -0.0011626482 -0.00387610123 0.00450000539
v -0.00123536587 -0.00385463238 0.00409999862
v -0.00123536587 -0.00385463238 0.00450000539
v -0.00130280852 -0.00382594019 0.00409999862
v -0.00130280852 -0.00382594019 0.00450000539
v -0.00136463344 -0.00379037112 0.00409999862
v -0.00136463344 -0.00379037112 0.00450000539
v -0.00142048299 -0.00374827906 0.00409999862
v -0.00142048299 -0.00374827906 0.00450000539
v -0.00146999955 -0.00370000303 0.00409999862
v -0.00146999955 -0.00370000303 0.00450000539
v -0.00151285529 -0.00364589319 0.00409999862
v -0.00151285529 -0.00364589319 0.00450000539
v -0.00154870749 -0.00358629972 0.00409999862
v -0.00154870749 -0.00358629972 0.00450000539
v -0.0015771836 -0.00352156535 0.00409999862
v -0.0015771836 -0.00352156535 0.00450000539
v -0.00159797072 -0.00345204026 0.00409999862
v -0.00159797072 -0.00345204026 0.00450000539
v -0.00161068141 -0.00337807089 0.00409999862
v -0.00161068141 -0.00337807089 0.00450000539
v -0.00161500275 -0.00330000371 0.00409999862
v -0.00161500275 -0.00330000371 0.00450000539
v -0.00160968304 -0.00320397317 0.00409999862
v -0.00160968304 -0.00320397317 0.00450000539
v -0.00159417093 -0.00311592966 0.00409999862
v -0.00159417093 -0.00311592966 0.00450000539
v -0.00156906247 -0.00303594023 0.00409999862
v -0.00156906247 -0.00303594023 0.00450000539
v -0.00153499842 -0.00296407938 0.00409999862
v -0.00153499842 -0.00296407938 0.00450000539
v -0.00149260461 -0.00290040672 0.00409999862
v -0.00149260461 -0.00290040672 0.00450000539
v -0.00144250691 -0.0028450042 0.00409999862
v -0.00144250691 -0.0028450042 0.00450000539
v -0.00138531625 -0.00279793143 0.00409999862
v -0.00138531625 -0.00279793143 0.00450000539
v -0.00132167339 -0.00275926292 0.00409999862
v -0.00132167339 -0.00275926292 0.00450000539
v -0.00125218928 -0.00272906572 0.00409999862
v -0.00125218928 -0.00272906572 0.00450000539
v -0.00117750466 -0.00270740688 0.00409999862
v -0.00117750466 -0.00270740688 0.00450000539
v -0.00109823048 -0.00269436836 0.00409999862
v -0.00109823048 -0.00269436836 0.00450000539
v -0.0010150075 -0.00269000232 0.00409999862
v -0.0010150075 -0.00269000232 0.00450000539
v -0.000915691257 -0.00269856304 0.00409999862
v -0.000915691257 -0.00269856304 0.00450000539
v -0.000823006034 -0.00272347778 0.00409999862
v -0.000823006034 -0.00272347778 0.00450000539
v -0.000737339258 -0.00276359916 0.00409999862
v -0.000737339258 -0.00276359916 0.00450000539
v -0.00065907836 -0.00281777978 0.00409999862
v -0.00065907836 -0.00281777978 0.00450000539
v -0.000588580966 -0.00288487971 0.00409999862
v -0.000588580966 -0.00288487971 0.00450000539
v -0.000526249409 -0.00296375155 0.00409999862
v -0.000526249409 -0.00296375155 0.00450000539
v -0.000472456217 -0.00305324793 0.00409999862
v -0.000472456217 -0.00305324793 0.00450000539
v -0.00042758882 -0.00315222144 0.00409999862
v -0.00042758882 -0.00315222144 0.00450000539
v -0.00039203465 -0.00325953215 0.00409999862
v -0.00039203465 -0.00325953215 0.00450000539
v -0.000366166234 -0.00337403268 0.00409999862
v -0.000366166234 -0.00337403268 0.00450000539
v -0.000350356102 -0.00349456817 0.00409999862
v -0.000350356102 -0.00349456817 0.00450000539
v -0.000345006585 -0.00362000242 0.00409999862
v -0.000345006585 -0.00362000242 0.00450000539
v -0.000353306532 -0.003801357 0.00409999862
v -0.000353306532 -0.003801357 0.00450000539
v -0.000378057361 -0.00397500023 0.00409999862
v -0.000378057361 -0.00397500023 0.00450000539
v -0.000419065356 -0.00414031371 0.00409999862
v -0.000419065356 -0.00414031371 0.00450000539
v -0.000476107001 -0.00429666787 0.00409999862
v -0.000476107001 -0.00429666787 0.00450000539
v -0.000548988581 -0.00444344059 0.00409999862
v -0.000548988581 -0.00444344059 0.00450000539
v -0.000637501478 -0.00458000228 0.00409999862
v -0.000637501478 -0.00458000228 0.00450000539
v -0.000741422176 -0.00470573083 0.00409999862
v -0.000741422176 -0.00470573083 0.00450000539
v -0.00086055696 -0.00482000038 0.00409999862
v -0.00086055696 -0.00482000038 0.00450000539
v -0.000994682312 -0.00492218882 0.00409999862
v -0.000994682312 -0.00492218882 0.00450000539
v -0.00114361942 -0.00501167029 0.00409999862
v -0.00114361942 -0.00501167029 0.00450000539
v -0.00130711496 -0.00508781523 0.00409999862
v -0.00130711496 -0.00508781523 0.00450000539
v -0.00148500502 -0.0051500015 0.00409999862
v -0.00148500502 -0.0051500015 0.00450000539
v -0.00148500502 -0.00496000051 0.00409999862
v -0.00148500502 -0.00496000051 0.00450000539
v -0.00108613074 -0.000614501536 0.00409999862
v -0.00108613074 -0.000614501536 0.00450000539
v -0.00116403401 -0.000598475337 0.00409999862
v -0.00116403401 -0.000598475337 0.00450000539
v -0.00123797357 -0.000572659075 0.00409999862
v -0.00123797357 -0.000572659075 0.00450000539
v -0.00130721927 -0.000537782907 0.00409999862
v -0.00130721927 -0.000537782907 0.00450000539
v -0.00137105584 -0.00049456954 0.00409999862
v -0.00137105584 -0.00049456954 0.00450000539
v -0.00142875314 -0.00044374913 0.00409999862
v -0.00142875314 -0.00044374913 0.00450000539
v -0.0014795661 -0.000386059284 0.00409999862
v -0.0014795661 -0.000386059284 0.00450000539
v -0.00152277946 -0.00032222271 0.00409999862
v -0.00152277946 -0.00032222271 0.00450000539
v -0.00155766308 -0.000252969563 0.00409999862
v -0.00155766308 -0.000252969563 0.00450000539
v -0.00158347189 -0.000179030001 0.00409999862
v -0.00158347189 -0.000179030001 0.00450000539
v -0.00159950554 -0.00010112673 0.00409999862
v -0.00159950554 -0.00010112673 0.00450000539
v -0.00160500407 -2.00048089e-05 0.00409999862
v -0.00160500407 -2.00048089e-05 0.00450000539
v -0.00159950554 6.11245632e-05 0.00409999862
v -0.00159950554 6.11245632e-05 0.00450000539
v -0.00158347189 0.000139027834 0.00409999862
v -0.00158347189 0.000139027834 0.00450000539
v -0.00155766308 0.000212967396 0.00409999862
v -0.00155766308 0.000212967396 0.00450000539
v -0.00152277946 0.000282220542 0.00409999862
v -0.00152277946 0.000282220542 0.00450000539
v -0.0014795661 0.000346057117 0.00409999862
v -0.0014795661 0.000346057117 0.00450000539
v -0.00142875314 0.000403746963 0.00409999862
v -0.00142875314 0.000403746963 0.00450000539
v -0.00137105584 0.000454567373 0.00409999862
v -0.00137105584 0.000454567373 0.00450000539
v -0.00130721927 0.00049777329 0.00409999862
v -0.00130721927 0.00049777329 0.00450000539
v -0.00123797357 0.000532656908 0.00409999862
v -0.00123797357 0.000532656908 0.00450000539
v -0.00116403401 0.00055847317 0.00409999862
v -0.00116403401 0.00055847317 0.00450000539
v -0.00108613074 0.000574491918 0.00409999862
v -0.00108613074 0.000574491918 0.00450000539
v -0.00100500882 0.000579997897 0.00409999862
v -0.00100500882 0.000579997897 0.00450000539
v -0.000923871994 0.000574491918 0.00409999862
v -0.000923871994 0.000574491918 0.00450000539
v -0.000845968723 0.00055847317 0.00409999862
v -0.000845968723 0.00055847317 0.00450000539
v -0.000772029161 0.000532656908 0.00409999862
v -0.000772029161 0.000532656908 0.00450000539
v -0.000702783465 0.00049777329 0.00409999862
v -0.000702783465 0.00049777329 0.00450000539
v -0.000638946891 0.000454567373 0.00409999862
v -0.000638946891 0.000454567373 0.00450000539
v -0.000581249595 0.000403746963 0.00409999862
v -0.000581249595 0.000403746963 0.00450000539
v -0.000530436635 0.000346057117 0.00409999862
v -0.000530436635 0.000346057117 0.00450000539
v -0.000487223268 0.000282220542 0.00409999862
v -0.000487223268 0.000282220542 0.00450000539
v -0.000452339649 0.000212967396 0.00409999862
v -0.000452339649 0.000212967396 0.00450000539
v -0.000426530838 0.000139027834 0.00409999862
v -0.000426530838 0.000139027834 0.00450000539
v -0.00041051209 6.11245632e-05 0.00409999862
v -0.00041051209 6.11245632e-05 0.00450000539
v -0.00040499866 -2.00048089e-05 0.00409999862
v -0.00040499866 -2.00048089e-05 0.00450000539
v -0.00041051209 -0.000101134181 0.00409999862
v -0.00041051209 -0.000101134181 0.00450000539
v -0.000426530838 -0.000179030001 0.00409999862
v -0.000426530838 -0.000179030001 0.00450000539
v -0.000452339649 -0.000252969563 0.00409999862
v -0.000452339649 -0.000252969563 0.00450000539
v -0.000487223268 -0.00032222271 0.00409999862
v -0.000487223268 -0.00032222271 0.00450000539
v -0.000530436635 -0.000386059284 0.00409999862
v -0.000530436635 -0.000386059284 0.00450000539
v -0.000581249595 -0.00044374913 0.00409999862
v -0.000581249595 -0.00044374913 0.00450000539
v -0.000638946891 -0.00049456954 0.00409999862
v -0.000638946891 -0.00049456954 0.00450000539
v -0.000702783465 -0.000537782907 0.00409999862
v -0.000702783465 -0.000537782907 0.00450000539
v -0.000772029161 -0.000572659075 0.00409999862
v -0.000772029161 -0.000572659075 0.00450000539
v -0.000845968723 -0.000598475337 0.00409999862
v -0.000845968723 -0.000598475337 0.00450000539
v -0.000923871994 -0.000614501536 0.00409999862
v -0.000923871994 -0.000614501536 0.00450000539
v -0.00100500882 -0.000620000064 0.00409999862
v -0.00100500882 -0.000620000064 0.00450000539
usemtl screen_white_text_003
f 235 237 236
f 234 237 235
f 234 238 237
f 233 238 234
f 233 239 238
f 232 239 233
f 231 239 232
f 231 240 239
f 230 240 231
f 230 241 240
f 229 241 230
f 229 242 241
f 228 242 229
f 228 243 242
f 227 243 228
f 226 243 227
f 226 244 243
f 225 244 226
f 225 245 244
f 224 245 225
f 224 246 245
f 223 246 224
f 223 247 246
f 222 247 223
f 221 247 222
f 221 248 247
f 220 248 221
f 219 248 220
f 219 249 248
f 218 249 219
f 217 249 218
f 216 249 217
f 215 249 216
f 215 250 249
f 214 250 215
f 213 250 214
f 212 250 213
f 211 250 212
f 211 251 250
f 210 251 211
f 209 251 210
f 209 252 251
f 208 252 209
f 207 252 208
f 207 253 252
f 206 253 207
f 206 254 253
f 205 254 206
f 204 254 205
f 204 255 254
f 203 255 204
f 202 255 203
f 202 256 255
f 201 256 202
f 201 257 256
f 261 257 201
f 261 258 257
f 260 258 261
f 260 259 258
f 175 177 176
f 175 178 177
f 174 178 175
f 174 179 178
f 173 179 174
f 173 180 179
f 172 180 173
f 172 181 180
f 171 181 172
f 171 182 181
f 170 182 171
f 170 183 182
f 169 183 170
f 169 184 183
f 168 184 169
f 168 185 184
f 167 185 168
f 167 186 185
f 166 186 167
f 166 187 186
f 165 187 166
f 165 188 187
f 164 188 165
f 163 188 164
f 163 189 188
f 162 189 163
f 162 190 189
f 161 190 162
f 161 191 190
f 160 191 161
f 160 192 191
f 159 192 160
f 159 193 192
f 158 193 159
f 158 194 193
f 157 194 158
f 157 195 194
f 156 195 157
f 156 196 195
f 155 196 156
f 155 197 196
f 154 197 155
f 154 198 197
f 153 198 154
f 153 199 198
f 200 199 153
f 344 345 346
f 343 344 346
f 343 346 347
f 342 343 347
f 342 347 348
f 341 342 348
f 340 341 348
f 340 348 349
f 339 340 349
f 339 349 350
f 338 339 350
f 338 350 351
f 337 338 351
f 337 351 352
f 336 337 352
f 335 336 352
f 335 352 353
f 334 335 353
f 334 353 354
f 333 334 354
f 333 354 355
f 332 333 355
f 332 355 356
f 331 332 356
f 330 331 356
f 330 356 357
f 329 330 357
f 328 329 357
f 328 357 358
f 327 328 358
f 326 327 358
f 325 326 358
f 324 325 358
f 324 358 359
f 323 324 359
f 322 323 359
f 321 322 359
f 320 321 359
f 320 359 360
f 319 320 360
f 318 319 360
f 318 360 361
f 317 318 361
f 316 317 361
f 316 361 362
f 315 316 362
f 315 362 363
f 314 315 363
f 313 314 363
f 313 363 364
f 312 313 364
f 311 312 364
f 311 364 365
f 310 311 365
f 310 365 366
f 370 310 366
f 370 366 367
f 369 370 367
f 369 367 368
f 284 285 286
f 284 286 287
f 283 284 287
f 283 287 288
f 282 283 288
f 282 288 289
f 281 282 289
f 281 289 290
f 280 281 290
f 280 290 291
f 279 280 291
f 279 291 292
f 278 279 292
f 278 292 293
f 277 278 293
f 277 293 294
f 276 277 294
f 276 294 295
f 275 276 295
f 275 295 296
f 274 275 296
f 274 296 297
f 273 274 297
f 272 273 297
f 272 297 298
f 271 272 298
f 271 298 299
f 270 271 299
f 270 299 300
f 269 270 300
f 269 300 301
f 268 269 301
f 268 301 302
f 267 268 302
f 267 302 303
f 266 267 303
f 266 303 304
f 265 266 304
f 265 304 305
f 264 265 305
f 264 305 306
f 263 264 306
f 263 306 307
f 262 263 307
f 262 307 308
f 309 262 308
f 372 374 373 371
f 374 376 375 373
f 376 378 377 375
f 378 380 379 377
f 380 382 381 379
f 382 384 383 381
f 384 386 385 383
f 386 388 387 385
f 388 390 389 387
f 390 392 391 389
f 392 394 393 391
f 394 396 395 393
f 396 398 397 395
f 398 400 399 397
f 400 402 401 399
f 402 404 403 401
f 404 406 405 403
f 406 408 407 405
f 408 410 409 407
f 410 412 411 409
f 412 414 413 411
f 414 416 415 413
f 416 418 417 415
f 418 420 419 417
f 420 422 421 419
f 422 424 423 421
f 424 426 425 423
f 426 428 427 425
f 428 430 429 427
f 430 432 431 429
f 432 434 433 431
f 434 436 435 433
f 436 438 437 435
f 438 440 439 437
f 440 442 441 439
f 442 444 443 441
f 444 446 445 443
f 446 448 447 445
f 448 450 449 447
f 450 452 451 449
f 452 454 453 451
f 454 456 455 453
f 456 458 457 455
f 458 460 459 457
f 460 462 461 459
f 462 464 463 461
f 464 466 465 463
f 466 468 467 465
f 468 470 469 467
f 470 472 471 469
f 472 474 473 471
f 474 476 475 473
f 476 478 477 475
f 478 480 479 477
f 480 482 481 479
f 482 484 483 481
f 484 486 485 483
f 486 488 487 485
f 488 490 489 487
f 490 492 491 489
f 492 372 371 491
f 494 496 495 493
f 496 498 497 495
f 498 500 499 497
f 500 502 501 499
f 502 504 503 501
f 504 506 505 503
f 506 508 507 505
f 508 510 509 507
f 510 512 511 509
f 512 514 513 511
f 514 516 515 513
f 516 518 517 515
f 518 520 519 517
f 520 522 521 519
f 522 524 523 521
f 524 526 525 523
f 526 528 527 525
f 528 530 529 527
f 530 532 531 529
f 532 534 533 531
f 534 536 535 533
f 536 538 537 535
f 538 540 539 537
f 540 542 541 539
f 542 544 543 541
f 544 546 545 543
f 546 548 547 545
f 548 550 549 547
f 550 552 551 549
f 552 554 553 551
f 554 556 555 553
f 556 558 557 555
f 558 560 559 557
f 560 562 561 559
f 562 564 563 561
f 564 566 565 563
f 566 568 567 565
f 568 570 569 567
f 570 572 571 569
f 572 574 573 571
f 574 576 575 573
f 576 578 577 575
f 578 580 579 577
f 580 582 581 579
f 582 584 583 581
f 584 586 585 583
f 586 588 587 585
f 588 494 493 587
