mtllib keyboard_key_0_8_F8_link.mtl
o keyboard_key_0_8_F8_link

g keyboard_key_0_8_F8_SOLID
v -0.0165000036 -0.0119999945 0
v -0.0165000036 -0.00849999487 -0.00349999964
v -0.0200000033 -0.00849999487 0
v -0.0165000036 -0.0117335767 -0.00133939087
v -0.0165000036 -0.0109748691 -0.00247487426
v -0.0178393945 -0.0117335767 0
v -0.0178729594 -0.0114120394 -0.00137295946
v -0.0178032964 -0.0107968897 -0.00229689106
v -0.0185207278 -0.0105207264 -0.00202072784
v -0.0178393945 -0.00849999487 -0.00323357806
v -0.0189748779 -0.00849999487 -0.00247487426
v -0.0165000036 -0.00983938575 -0.00323357806
v -0.0178729594 -0.00987295806 -0.0029120408
v -0.018796891 -0.00980329514 -0.00229689106
v -0.019733578 -0.00983938575 0
v -0.0189748779 -0.0109748691 0
v -0.019733578 -0.00849999487 -0.00133939087
v -0.0194120407 -0.00987295806 -0.00137295946
v -0.018796891 -0.0107968897 -0.00130329654
v 0.0165000036 -0.0119999945 0
v 0.0200000033 -0.00849999487 0
v 0.0165000036 -0.00849999487 -0.00349999964
v 0.0178393945 -0.0117335767 0
v 0.0189748779 -0.0109748691 0
v 0.0165000036 -0.0117335767 -0.00133939087
v 0.0178729594 -0.0114120394 -0.00137295946
v 0.018796891 -0.0107968897 -0.00130329654
v 0.0185207278 -0.0105207264 -0.00202072784
v 0.019733578 -0.00849999487 -0.00133939087
v 0.0189748779 -0.00849999487 -0.00247487426
v 0.019733578 -0.00983938575 0
v 0.0194120407 -0.00987295806 -0.00137295946
v 0.018796891 -0.00980329514 -0.00229689106
v 0.0165000036 -0.00983938575 -0.00323357806
v 0.0165000036 -0.0109748691 -0.00247487426
v 0.0178393945 -0.00849999487 -0.00323357806
v 0.0178729594 -0.00987295806 -0.0029120408
v 0.0178032964 -0.0107968897 -0.00229689106
v 0.0165000036 0.0119999945 0
v 0.0165000036 0.00849999487 -0.00349999964
v 0.0200000033 0.00849999487 0
v 0.0165000036 0.0117335767 -0.00133939087
v 0.0165000036 0.0109748691 -0.00247487426
v 0.0178393945 0.0117335767 0
v 0.0178729594 0.0114120394 -0.00137295946
v 0.0178032964 0.0107968897 -0.00229689106
v 0.0185207278 0.0105207264 -0.00202072784
v 0.0178393945 0.00849999487 -0.00323357806
v 0.0189748779 0.00849999487 -0.00247487426
v 0.0165000036 0.00983938575 -0.00323357806
v 0.0178729594 0.00987295806 -0.0029120408
v 0.018796891 0.00980329514 -0.00229689106
v 0.019733578 0.00983938575 0
v 0.0189748779 0.0109748691 0
v 0.019733578 0.00849999487 -0.00133939087
v 0.0194120407 0.00987295806 -0.00137295946
v 0.018796891 0.0107968897 -0.00130329654
v -0.0165000036 0.0119999945 0
v -0.0200000033 0.00849999487 0
v -0.0165000036 0.00849999487 -0.00349999964
v -0.0178393945 0.0117335767 0
v -0.0189748779 0.0109748691 0
v -0.0165000036 0.0117335767 -0.00133939087
v -0.0178729594 0.0114120394 -0.00137295946
v -0.018796891 0.0107968897 -0.00130329654
v -0.0185207278 0.0105207264 -0.00202072784
v -0.019733578 0.00849999487 -0.00133939087
v -0.0189748779 0.00849999487 -0.00247487426
v -0.019733578 0.00983938575 0
v -0.0194120407 0.00987295806 -0.00137295946
v -0.018796891 0.00980329514 -0.00229689106
v -0.0165000036 0.00983938575 -0.00323357806
v -0.0165000036 0.0109748691 -0.00247487426
v -0.0178393945 0.00849999487 -0.00323357806
v -0.0178729594 0.00987295806 -0.0029120408
v -0.0178032964 0.0107968897 -0.00229689106
v -0.0200000033 -0.00849999487 0
v -0.0165000036 -0.00849999487 0.00350000337
v -0.0165000036 -0.0119999945 0
v -0.019733578 -0.00849999487 0.00133939087
v -0.0189748779 -0.00849999487 0.00247487426
v -0.019733578 -0.00983938575 0
v -0.0194120407 -0.00987295806 0.00137295946
v -0.018796891 -0.00980329514 0.00229689106
v -0.0185207278 -0.0105207264 0.00202072784
v -0.0165000036 -0.00983938575 0.00323357806
v -0.0165000036 -0.0109748691 0.00247487426
v -0.0178393945 -0.00849999487 0.00323357806
v -0.0178729594 -0.00987295806 0.0029120408
v -0.0178032964 -0.0107968897 0.00229689106
v -0.0178393945 -0.0117335767 0
v -0.0189748779 -0.0109748691 0
v -0.0165000036 -0.0117335767 0.00133939087
v -0.0178729594 -0.0114120394 0.00137295946
v -0.018796891 -0.0107968897 0.00130329654
v 0.0165000036 -0.0119999945 0
v 0.0165000036 -0.00849999487 0.00350000337
v 0.0200000033 -0.00849999487 0
v 0.0165000036 -0.0117335767 0.00133939087
v 0.0165000036 -0.0109748691 0.00247487426
v 0.0178393945 -0.0117335767 0
v 0.0178729594 -0.0114120394 0.00137295946
v 0.0178032964 -0.0107968897 0.00229689106
v 0.0185207278 -0.0105207264 0.00202072784
v 0.0178393945 -0.00849999487 0.00323357806
v 0.0189748779 -0.00849999487 0.00247487426
v 0.0165000036 -0.00983938575 0.00323357806
v 0.0178729594 -0.00987295806 0.0029120408
v 0.018796891 -0.00980329514 0.00229689106
v 0.019733578 -0.00983938575 0
v 0.0189748779 -0.0109748691 0
v 0.019733578 -0.00849999487 0.00133939087
v 0.0194120407 -0.00987295806 0.00137295946
v 0.018796891 -0.0107968897 0.00130329654
v 0.0165000036 0.00849999487 0.00350000337
v 0.0165000036 0.0119999945 0
v 0.0200000033 0.00849999487 0
v 0.0165000036 0.00983938575 0.00323357806
v 0.0165000036 0.0109748691 0.00247487426
v 0.0178393945 0.00849999487 0.00323357806
v 0.0178729594 0.00987295806 0.0029120408
v 0.0178032964 0.0107968897 0.00229689106
v 0.0185207278 0.0105207264 0.00202072784
v 0.0178393945 0.0117335767 0
v 0.0189748779 0.0109748691 0
v 0.0165000036 0.0117335767 0.00133939087
v 0.0178729594 0.0114120394 0.00137295946
v 0.018796891 0.0107968897 0.00130329654
v 0.019733578 0.00849999487 0.00133939087
v 0.0189748779 0.00849999487 0.00247487426
v 0.019733578 0.00983938575 0
v 0.0194120407 0.00987295806 0.00137295946
v 0.018796891 0.00980329514 0.00229689106
v -0.0200000033 0.00849999487 0
v -0.0165000036 0.0119999945 0
v -0.0165000036 0.00849999487 0.00350000337
v -0.019733578 0.00983938575 0
v -0.0189748779 0.0109748691 0
v -0.019733578 0.00849999487 0.00133939087
v -0.0194120407 0.00987295806 0.00137295946
v -0.018796891 0.0107968897 0.00130329654
v -0.0185207278 0.0105207264 0.00202072784
v -0.0165000036 0.0117335767 0.00133939087
v -0.0165000036 0.0109748691 0.00247487426
v -0.0178393945 0.0117335767 0
v -0.0178729594 0.0114120394 0.00137295946
v -0.0178032964 0.0107968897 0.00229689106
v -0.0178393945 0.00849999487 0.00323357806
v -0.0189748779 0.00849999487 0.00247487426
v -0.0165000036 0.00983938575 0.00323357806
v -0.0178729594 0.00987295806 0.0029120408
v -0.018796891 0.00980329514 0.00229689106
usemtl matte_black_keycaps_003
f 59 134 77 3
f 2 22 40 60
f 39 116 135 58
f 78 136 115 97
f 21 98 117 41
f 1 4 7 6
f 4 5 8 7
f 6 7 19 16
f 7 8 9 19
f 2 10 13 12
f 10 11 14 13
f 12 13 8 5
f 13 14 9 8
f 3 15 18 17
f 15 16 19 18
f 17 18 14 11
f 18 19 9 14
f 20 23 26 25
f 23 24 27 26
f 25 26 38 35
f 26 27 28 38
f 21 29 32 31
f 29 30 33 32
f 31 32 27 24
f 32 33 28 27
f 22 34 37 36
f 34 35 38 37
f 36 37 33 30
f 37 38 28 33
f 39 42 45 44
f 42 43 46 45
f 44 45 57 54
f 45 46 47 57
f 40 48 51 50
f 48 49 52 51
f 50 51 46 43
f 51 52 47 46
f 41 53 56 55
f 53 54 57 56
f 55 56 52 49
f 56 57 47 52
f 58 61 64 63
f 61 62 65 64
f 63 64 76 73
f 64 65 66 76
f 59 67 70 69
f 67 68 71 70
f 69 70 65 62
f 70 71 66 65
f 60 72 75 74
f 72 73 76 75
f 74 75 71 68
f 75 76 66 71
f 77 80 83 82
f 80 81 84 83
f 82 83 95 92
f 83 84 85 95
f 78 86 89 88
f 86 87 90 89
f 88 89 84 81
f 89 90 85 84
f 79 91 94 93
f 91 92 95 94
f 93 94 90 87
f 94 95 85 90
f 96 99 102 101
f 99 100 103 102
f 101 102 114 111
f 102 103 104 114
f 97 105 108 107
f 105 106 109 108
f 107 108 103 100
f 108 109 104 103
f 98 110 113 112
f 110 111 114 113
f 112 113 109 106
f 113 114 104 109
f 115 118 121 120
f 118 119 122 121
f 120 121 133 130
f 121 122 123 133
f 116 124 127 126
f 124 125 128 127
f 126 127 122 119
f 127 128 123 122
f 117 129 132 131
f 129 130 133 132
f 131 132 128 125
f 132 133 123 128
f 134 137 140 139
f 137 138 141 140
f 139 140 152 149
f 140 141 142 152
f 135 143 146 145
f 143 144 147 146
f 145 146 141 138
f 146 147 142 141
f 136 148 151 150
f 148 149 152 151
f 150 151 147 144
f 151 152 142 147
f 39 58 63 42
f 42 63 73 43
f 43 73 72 50
f 50 72 60 40
f 1 20 25 4
f 4 25 35 5
f 5 35 34 12
f 12 34 22 2
f 21 41 55 29
f 29 55 49 30
f 30 49 48 36
f 36 48 40 22
f 2 60 74 10
f 10 74 68 11
f 11 68 67 17
f 17 67 59 3
f 3 77 82 15
f 15 82 92 16
f 16 92 91 6
f 6 91 79 1
f 78 97 107 86
f 86 107 100 87
f 87 100 99 93
f 93 99 96 79
f 97 115 120 105
f 105 120 130 106
f 106 130 129 112
f 112 129 117 98
f 77 134 139 80
f 80 139 149 81
f 81 149 148 88
f 88 148 136 78
f 20 96 101 23
f 23 101 111 24
f 24 111 110 31
f 31 110 98 21
f 41 117 131 53
f 53 131 125 54
f 54 125 124 44
f 44 124 116 39
f 115 136 150 118
f 118 150 144 119
f 119 144 143 126
f 126 143 135 116
f 58 135 145 61
f 61 145 138 62
f 62 138 137 69
f 69 137 134 59
f 1 79 96 20

g key_legend_0_8_F8
v 0.00106122345 -0.00407265127 0.00450000539
v 0.000771477818 -0.00402198732 0.00450000539
v 0.000498123467 -0.00394016504 0.00450000539
v 0.000243514776 -0.0038292557 0.00450000539
v 1.00210309e-05 -0.00369141996 0.00450000539
v -0.000200003386 -0.00352875888 0.00450000539
v -0.000384189188 -0.00334337354 0.00450000539
v -0.000540189445 -0.00313740969 0.00450000539
v -0.00066562742 -0.0029129684 0.00450000539
v -0.00075814873 -0.00267218053 0.00450000539
v -0.000815398991 -0.00241714716 0.00450000539
v -0.000835001469 -0.00214999914 0.00450000539
v -0.000828333199 -0.00197394192 0.00450000539
v -0.000808291137 -0.00180564821 0.00450000539
v -0.000774845481 -0.00164499879 0.00450000539
v -0.000727966428 -0.00149185956 0.00450000539
v -0.000667609274 -0.00134606659 0.00450000539
v -0.000593751669 -0.0012075007 0.00450000539
v -0.000506348908 -0.00107602775 0.00450000539
v -0.000405371189 -0.000951483846 0.00450000539
v -0.00029078126 -0.000833749771 0.00450000539
v -0.000162549317 -0.000722691417 0.00450000539
v -2.06306577e-05 -0.00061814487 0.00450000539
v 0.00013499707 -0.000520005822 0.00450000539
v 1.19283795e-05 -0.000424429774 0.00450000539
v -0.000102087855 -0.000322923064 0.00450000539
v -0.000206723809 -0.000215783715 0.00450000539
v -0.000301666558 -0.000103339553 0.00450000539
v -0.000386618078 1.41113997e-05 0.00450000539
v -0.000461250544 0.000136241317 0.00450000539
v -0.000525258482 0.000262752175 0.00450000539
v -0.000578336418 0.000393331051 0.00450000539
v -0.000620156527 0.000527650118 0.00450000539
v -0.000650420785 0.000665411353 0.00450000539
v -0.000668801367 0.000806301832 0.00450000539
v -0.00067500025 0.00094999373 0.00450000539
v -0.000656604767 0.00122384727 0.00450000539
v -0.000602826476 0.00148406625 0.00450000539
v -0.000515781343 0.00172874331 0.00450000539
v -0.000397592783 0.00195592642 0.00450000539
v -0.000250376761 0.00216364861 0.00450000539
v -7.62492418e-05 0.00235000253 0.00450000539
v 0.000122666359 0.00251300633 0.00450000539
v 0.000344254076 0.00265073776 0.00450000539
v 0.000586405396 0.00276124477 0.00450000539
v 0.000846989453 0.00284259021 0.00450000539
v 0.00112389028 0.00289282203 0.00450000539
v 0.00141499937 0.00291000307 0.00450000539
v 0.00169612467 0.00289261341 0.00450000539
v 0.00196319073 0.00284180045 0.00450000539
v 0.0022142157 0.00275953114 0.00450000539
v 0.0024472177 0.00264777243 0.00450000539
v 0.00266022235 0.00250852108 0.00450000539
v 0.00285124779 0.00234374404 0.00450000539
v 0.00301831216 0.00215543807 0.00450000539
v 0.00315944105 0.00194555521 0.00450000539
v 0.00327265263 0.00171609223 0.00450000539
v 0.00335597247 0.00146903098 0.00450000539
v 0.00340741128 0.00120633841 0.00450000539
v 0.00342499465 0.000929996371 0.00450000539
v 0.00341934711 0.000801593065 0.00450000539
v 0.00340231508 0.000671893358 0.00450000539
v 0.00337374955 0.000541716814 0.00450000539
v 0.00333351642 0.000411853194 0.00450000539
v 0.00328148156 0.00028309226 0.00450000539
v 0.00321749598 0.000156253576 0.00450000539
v 0.003141433 3.21120024e-05 0.00450000539
v 0.00305314362 -8.85277987e-05 0.00450000539
v 0.00295250118 -0.000204846263 0.00450000539
v 0.00283934921 -0.00031606853 0.00450000539
v 0.00271356106 -0.000421389937 0.00450000539
v 0.00257499516 -0.000520005822 0.00450000539
v 0.00272603333 -0.000608414412 0.00450000539
v 0.00286411494 -0.000708147883 0.00450000539
v 0.00298921764 -0.000818446279 0.00450000539
v 0.00310129672 -0.000938519835 0.00450000539
v 0.00320031494 -0.0010676235 0.00450000539
v 0.00328624994 -0.0012049973 0.00450000539
v 0.00335905701 -0.00134988129 0.00450000539
v 0.00341869891 -0.00150148571 0.00450000539
v 0.00346515328 -0.00165906549 0.00450000539
v 0.00349837542 -0.00182186067 0.00450000539
v 0.00351833552 -0.0019890815 0.00450000539
v 0.00352499634 -0.00215999782 0.00450000539
v 0.00350579619 -0.00242695212 0.00450000539
v 0.00344972312 -0.00268143415 0.00450000539
v 0.00335905701 -0.00292140245 0.00450000539
v 0.00323610753 -0.00314481556 0.00450000539
v 0.00308315456 -0.00334961712 0.00450000539
v 0.00290250033 -0.00353375077 0.00450000539
v 0.00269642472 -0.00369517505 0.00450000539
v 0.00246722251 -0.0038318485 0.00450000539
v 0.00221718848 -0.00394171476 0.00450000539
v 0.00194860995 -0.00402273238 0.00450000539
v 0.0016637817 -0.00407284498 0.00450000539
v 0.00136499852 -0.00408999622 0.00450000539
v 0.001237005 0.00197178125 0.00450000539
v 0.00108855963 0.00194755197 0.00450000539
v 0.000950470567 0.00190797448 0.00450000539
v 0.000823520124 0.00185370445 0.00450000539
v 0.000708512962 0.00178541243 0.00450000539
v 0.000606246293 0.00170375407 0.00450000539
v 0.000517524779 0.00160938501 0.00450000539
v 0.000443145633 0.00150296092 0.00450000539
v 0.000383906066 0.00138515234 0.00450000539
v 0.000340603292 0.00125661492 0.00450000539
v 0.000314034522 0.00111801922 0.00450000539
v 0.000304996967 0.000969991088 0.00450000539
v 0.000314973295 0.000831902027 0.00450000539
v 0.000343978405 0.000698521733 0.00450000539
v 0.00039062649 0.000571250916 0.00450000539
v 0.000453516841 0.000451475382 0.00450000539
v 0.0005312711 0.000340595841 0.00450000539
v 0.000622496009 0.000239998102 0.00450000539
v 0.000725805759 0.000151067972 0.00450000539
v 0.000839814544 7.51763582e-05 0.00450000539
v 0.000963121653 1.37537718e-05 0.00450000539
v 0.00109434873 -3.18586826e-05 0.00450000539
v 0.00123210251 -6.02304935e-05 0.00450000539
v 0.0013749972 -7.00056553e-05 0.00450000539
v 0.00151999295 -6.04391098e-05 0.00450000539
v 0.00165911764 -3.26484442e-05 0.00450000539
v 0.00179108977 1.20252371e-05 0.00450000539
v 0.00191462785 7.22259283e-05 0.00450000539
v 0.00202844292 0.000146582723 0.00450000539
v 0.00213124603 0.000233754516 0.00450000539
v 0.00222176313 0.0003323704 0.00450000539
v 0.00229870528 0.000441104174 0.00450000539
v 0.00236077607 0.000558584929 0.00450000539
v 0.0024067089 0.00068347156 0.00450000539
v 0.00243521482 0.000814393163 0.00450000539
v 0.00244499743 0.00094999373 0.00450000539
v 0.00243598968 0.00109420717 0.00450000539
v 0.00240958482 0.00123114884 0.00450000539
v 0.00236671418 0.00135983527 0.00450000539
v 0.00230833143 0.00147925317 0.00450000539
v 0.00223536044 0.00158838928 0.00450000539
v 0.00214874744 0.0016862452 0.00450000539
v 0.00204942375 0.00177180767 0.00450000539
v 0.00193832815 0.0018440783 0.00450000539
v 0.00181640685 0.00190202892 0.00450000539
v 0.00168458372 0.00194467604 0.00450000539
v 0.00154379755 0.00197100639 0.00450000539
v 0.00139499456 0.00197999179 0.00450000539
v 0.00118554384 -0.00100903213 0.00450000539
v 0.00101768225 -0.0010355562 0.00450000539
v 0.000862188637 -0.00107875466 0.00450000539
v 0.000719815493 -0.00113777816 0.00450000539
v 0.00059133023 -0.00121180713 0.00450000539
v 0.00047750026 -0.0013000071 0.00450000539
v 0.000379085541 -0.00140152872 0.00450000539
v 0.000296853483 -0.0015155524 0.00450000539
v 0.000231564045 -0.0016412586 0.00450000539
v 0.000183977187 -0.00177778304 0.00450000539
v 0.000154867768 -0.00192430615 0.00450000539
v 0.000144995749 -0.00208000839 0.00450000539
v 0.000155240297 -0.00223359466 0.00450000539
v 0.000185273588 -0.00237874687 0.00450000539
v 0.000234059989 -0.00251452625 0.00450000539
v 0.000300556421 -0.00264000893 0.00450000539
v 0.000383712351 -0.00275422633 0.00450000539
v 0.000482499599 -0.00285625458 0.00450000539
v 0.000595867634 -0.00294515491 0.00450000539
v 0.000722773373 -0.00302000344 0.00450000539
v 0.000862188637 -0.0030798465 0.00450000539
v 0.00101305544 -0.00312374532 0.00450000539
v 0.00117433816 -0.00315077603 0.00450000539
v 0.00134500116 -0.00315999985 0.00450000539
v 0.00153456628 -0.00314964354 0.00450000539
v 0.00170819461 -0.0031195879 0.00450000539
v 0.00186578184 -0.00307141244 0.00450000539
v 0.00200722367 -0.0030066669 0.00450000539
v 0.00213240832 -0.00292693079 0.00450000539
v 0.0022412464 -0.00283375382 0.00450000539
v 0.00233362615 -0.00272870064 0.00450000539
v 0.00240944326 -0.00261333585 0.00450000539
v 0.00246859342 -0.00248922408 0.00450000539
v 0.00251097232 -0.00235791504 0.00450000539
v 0.00253647566 -0.00222098827 0.00450000539
v 0.00254499912 -0.00208000839 0.00450000539
v 0.00253495574 -0.00192850828 0.00450000539
v 0.00250551105 -0.00178472698 0.00450000539
v 0.00245765597 -0.00164969265 0.00450000539
v 0.00239240378 -0.00152444839 0.00450000539
v 0.00231076777 -0.00141003728 0.00450000539
v 0.00221374631 -0.00130750239 0.00450000539
v 0.00210235268 -0.00121788681 0.00450000539
v 0.00197759271 -0.00114221871 0.00450000539
v 0.00184046477 -0.00108157098 0.00450000539
v 0.0016919896 -0.00103694201 0.00450000539
v 0.00153316557 -0.00100940466 0.00450000539
v 0.00136499852 -0.00100000203 0.00450000539
v -0.00410500169 0.00193999708 0.00450000539
v -0.00410500169 4.99933958e-05 0.00450000539
v -0.00144500285 4.99933958e-05 0.00450000539
v -0.00144500285 -0.000829994678 0.00450000539
v -0.00410500169 -0.000829994678 0.00450000539
v -0.00410500169 -0.00400000811 0.00450000539
v -0.00508499891 -0.00400000811 0.00450000539
v -0.00508499891 0.00282000005 0.00450000539
v -0.00144500285 0.00282000005 0.00450000539
v -0.00144500285 0.00193999708 0.00450000539
v 0.00106122345 -0.00407265127 0.00409999862
v 0.000771477818 -0.00402198732 0.00409999862
v 0.000498123467 -0.00394016504 0.00409999862
v 0.000243514776 -0.0038292557 0.00409999862
v 1.00210309e-05 -0.00369141996 0.00409999862
v -0.000200003386 -0.00352875888 0.00409999862
v -0.000384189188 -0.00334337354 0.00409999862
v -0.000540189445 -0.00313740969 0.00409999862
v -0.00066562742 -0.0029129684 0.00409999862
v -0.00075814873 -0.00267218053 0.00409999862
v -0.000815398991 -0.00241714716 0.00409999862
v -0.000835001469 -0.00214999914 0.00409999862
v -0.000828333199 -0.00197394192 0.00409999862
v -0.000808291137 -0.00180564821 0.00409999862
v -0.000774845481 -0.00164499879 0.00409999862
v -0.000727966428 -0.00149185956 0.00409999862
v -0.000667609274 -0.00134606659 0.00409999862
v -0.000593751669 -0.0012075007 0.00409999862
v -0.000506348908 -0.00107602775 0.00409999862
v -0.000405371189 -0.000951483846 0.00409999862
v -0.00029078126 -0.000833749771 0.00409999862
v -0.000162549317 -0.000722691417 0.00409999862
v -2.06306577e-05 -0.00061814487 0.00409999862
v 0.00013499707 -0.000520005822 0.00409999862
v 1.19283795e-05 -0.000424429774 0.00409999862
v -0.000102087855 -0.000322923064 0.00409999862
v -0.000206723809 -0.000215783715 0.00409999862
v -0.000301666558 -0.000103339553 0.00409999862
v -0.000386618078 1.41113997e-05 0.00409999862
v -0.000461250544 0.000136241317 0.00409999862
v -0.000525258482 0.000262752175 0.00409999862
v -0.000578336418 0.000393331051 0.00409999862
v -0.000620156527 0.000527650118 0.00409999862
v -0.000650420785 0.000665411353 0.00409999862
v -0.000668801367 0.000806301832 0.00409999862
v -0.00067500025 0.00094999373 0.00409999862
v -0.000656604767 0.00122384727 0.00409999862
v -0.000602826476 0.00148406625 0.00409999862
v -0.000515781343 0.00172874331 0.00409999862
v -0.000397592783 0.00195592642 0.00409999862
v -0.000250376761 0.00216364861 0.00409999862
v -7.62492418e-05 0.00235000253 0.00409999862
v 0.000122666359 0.00251300633 0.00409999862
v 0.000344254076 0.00265073776 0.00409999862
v 0.000586405396 0.00276124477 0.00409999862
v 0.000846989453 0.00284259021 0.00409999862
v 0.00112389028 0.00289282203 0.00409999862
v 0.00141499937 0.00291000307 0.00409999862
v 0.00169612467 0.00289261341 0.00409999862
v 0.00196319073 0.00284180045 0.00409999862
v 0.0022142157 0.00275953114 0.00409999862
v 0.0024472177 0.00264777243 0.00409999862
v 0.00266022235 0.00250852108 0.00409999862
v 0.00285124779 0.00234374404 0.00409999862
v 0.00301831216 0.00215543807 0.00409999862
v 0.00315944105 0.00194555521 0.00409999862
v 0.00327265263 0.00171609223 0.00409999862
v 0.00335597247 0.00146903098 0.00409999862
v 0.00340741128 0.00120633841 0.00409999862
v 0.00342499465 0.000929996371 0.00409999862
v 0.00341934711 0.000801593065 0.00409999862
v 0.00340231508 0.000671893358 0.00409999862
v 0.00337374955 0.000541716814 0.00409999862
v 0.00333351642 0.000411853194 0.00409999862
v 0.00328148156 0.00028309226 0.00409999862
v 0.00321749598 0.000156253576 0.00409999862
v 0.003141433 3.21120024e-05 0.00409999862
v 0.00305314362 -8.85277987e-05 0.00409999862
v 0.00295250118 -0.000204846263 0.00409999862
v 0.00283934921 -0.00031606853 0.00409999862
v 0.00271356106 -0.000421389937 0.00409999862
v 0.00257499516 -0.000520005822 0.00409999862
v 0.00272603333 -0.000608414412 0.00409999862
v 0.00286411494 -0.000708147883 0.00409999862
v 0.00298921764 -0.000818446279 0.00409999862
v 0.00310129672 -0.000938519835 0.00409999862
v 0.00320031494 -0.0010676235 0.00409999862
v 0.00328624994 -0.0012049973 0.00409999862
v 0.00335905701 -0.00134988129 0.00409999862
v 0.00341869891 -0.00150148571 0.00409999862
v 0.00346515328 -0.00165906549 0.00409999862
v 0.00349837542 -0.00182186067 0.00409999862
v 0.00351833552 -0.0019890815 0.00409999862
v 0.00352499634 -0.00215999782 0.00409999862
v 0.00350579619 -0.00242695212 0.00409999862
v 0.00344972312 -0.00268143415 0.00409999862
v 0.00335905701 -0.00292140245 0.00409999862
v 0.00323610753 -0.00314481556 0.00409999862
v 0.00308315456 -0.00334961712 0.00409999862
v 0.00290250033 -0.00353375077 0.00409999862
v 0.00269642472 -0.00369517505 0.00409999862
v 0.00246722251 -0.0038318485 0.00409999862
v 0.00221718848 -0.00394171476 0.00409999862
v 0.00194860995 -0.00402273238 0.00409999862
v 0.0016637817 -0.00407284498 0.00409999862
v 0.00136499852 -0.00408999622 0.00409999862
v 0.001237005 0.00197178125 0.00409999862
v 0.00108855963 0.00194755197 0.00409999862
v 0.000950470567 0.00190797448 0.00409999862
v 0.000823520124 0.00185370445 0.00409999862
v 0.000708512962 0.00178541243 0.00409999862
v 0.000606246293 0.00170375407 0.00409999862
v 0.000517524779 0.00160938501 0.00409999862
v 0.000443145633 0.00150296092 0.00409999862
v 0.000383906066 0.00138515234 0.00409999862
v 0.000340603292 0.00125661492 0.00409999862
v 0.000314034522 0.00111801922 0.00409999862
v 0.000304996967 0.000969991088 0.00409999862
v 0.000314973295 0.000831902027 0.00409999862
v 0.000343978405 0.000698521733 0.00409999862
v 0.00039062649 0.000571250916 0.00409999862
v 0.000453516841 0.000451475382 0.00409999862
v 0.0005312711 0.000340595841 0.00409999862
v 0.000622496009 0.000239998102 0.00409999862
v 0.000725805759 0.000151067972 0.00409999862
v 0.000839814544 7.51763582e-05 0.00409999862
v 0.000963121653 1.37537718e-05 0.00409999862
v 0.00109434873 -3.18586826e-05 0.00409999862
v 0.00123210251 -6.02304935e-05 0.00409999862
v 0.0013749972 -7.00056553e-05 0.00409999862
v 0.00151999295 -6.04391098e-05 0.00409999862
v 0.00165911764 -3.26484442e-05 0.00409999862
v 0.00179108977 1.20252371e-05 0.00409999862
v 0.00191462785 7.22259283e-05 0.00409999862
v 0.00202844292 0.000146582723 0.00409999862
v 0.00213124603 0.000233754516 0.00409999862
v 0.00222176313 0.0003323704 0.00409999862
v 0.00229870528 0.000441104174 0.00409999862
v 0.00236077607 0.000558584929 0.00409999862
v 0.0024067089 0.00068347156 0.00409999862
v 0.00243521482 0.000814393163 0.00409999862
v 0.00244499743 0.00094999373 0.00409999862
v 0.00243598968 0.00109420717 0.00409999862
v 0.00240958482 0.00123114884 0.00409999862
v 0.00236671418 0.00135983527 0.00409999862
v 0.00230833143 0.00147925317 0.00409999862
v 0.00223536044 0.00158838928 0.00409999862
v 0.00214874744 0.0016862452 0.00409999862
v 0.00204942375 0.00177180767 0.00409999862
v 0.00193832815 0.0018440783 0.00409999862
v 0.00181640685 0.00190202892 0.00409999862
v 0.00168458372 0.00194467604 0.00409999862
v 0.00154379755 0.00197100639 0.00409999862
v 0.00139499456 0.00197999179 0.00409999862
v 0.00118554384 -0.00100903213 0.00409999862
v 0.00101768225 -0.0010355562 0.00409999862
v 0.000862188637 -0.00107875466 0.00409999862
v 0.000719815493 -0.00113777816 0.00409999862
v 0.00059133023 -0.00121180713 0.00409999862
v 0.00047750026 -0.0013000071 0.00409999862
v 0.000379085541 -0.00140152872 0.00409999862
v 0.000296853483 -0.0015155524 0.00409999862
v 0.000231564045 -0.0016412586 0.00409999862
v 0.000183977187 -0.00177778304 0.00409999862
v 0.000154867768 -0.00192430615 0.00409999862
v 0.000144995749 -0.00208000839 0.00409999862
v 0.000155240297 -0.00223359466 0.00409999862
v 0.000185273588 -0.00237874687 0.00409999862
v 0.000234059989 -0.00251452625 0.00409999862
v 0.000300556421 -0.00264000893 0.00409999862
v 0.000383712351 -0.00275422633 0.00409999862
v 0.000482499599 -0.00285625458 0.00409999862
v 0.000595867634 -0.00294515491 0.00409999862
v 0.000722773373 -0.00302000344 0.00409999862
v 0.000862188637 -0.0030798465 0.00409999862
v 0.00101305544 -0.00312374532 0.00409999862
v 0.00117433816 -0.00315077603 0.00409999862
v 0.00134500116 -0.00315999985 0.00409999862
v 0.00153456628 -0.00314964354 0.00409999862
v 0.00170819461 -0.0031195879 0.00409999862
v 0.00186578184 -0.00307141244 0.00409999862
v 0.00200722367 -0.0030066669 0.00409999862
v 0.00213240832 -0.00292693079 0.00409999862
v 0.0022412464 -0.00283375382 0.00409999862
v 0.00233362615 -0.00272870064 0.00409999862
v 0.00240944326 -0.00261333585 0.00409999862
v 0.00246859342 -0.00248922408 0.00409999862
v 0.00251097232 -0.00235791504 0.00409999862
v 0.00253647566 -0.00222098827 0.00409999862
v 0.00254499912 -0.00208000839 0.00409999862
v 0.00253495574 -0.00192850828 0.00409999862
v 0.00250551105 -0.00178472698 0.00409999862
v 0.00245765597 -0.00164969265 0.00409999862
v 0.00239240378 -0.00152444839 0.00409999862
v 0.00231076777 -0.00141003728 0.00409999862
v 0.00221374631 -0.00130750239 0.00409999862
v 0.00210235268 -0.00121788681 0.00409999862
v 0.00197759271 -0.00114221871 0.00409999862
v 0.00184046477 -0.00108157098 0.00409999862
v 0.0016919896 -0.00103694201 0.00409999862
v 0.00153316557 -0.00100940466 0.00409999862
v 0.00136499852 -0.00100000203 0.00409999862
v -0.00410500169 0.00193999708 0.00409999862
v -0.00410500169 4.99933958e-05 0.00409999862
v -0.00144500285 4.99933958e-05 0.00409999862
v -0.00144500285 -0.000829994678 0.00409999862
v -0.00410500169 -0.000829994678 0.00409999862
v -0.00410500169 -0.00400000811 0.00409999862
v -0.00508499891 -0.00400000811 0.00409999862
v -0.00508499891 0.00282000005 0.00409999862
v -0.00144500285 0.00282000005 0.00409999862
v -0.00144500285 0.00193999708 0.00409999862
v -0.00410500169 0.00193999708 0.00409999862
v -0.00410500169 0.00193999708 0.00450000539
v -0.00410500169 4.99933958e-05 0.00409999862
v -0.00410500169 4.99933958e-05 0.00450000539
v -0.00144500285 4.99933958e-05 0.00409999862
v -0.00144500285 4.99933958e-05 0.00450000539
v -0.00144500285 -0.000829994678 0.00409999862
v -0.00144500285 -0.000829994678 0.00450000539
v -0.00410500169 -0.000829994678 0.00409999862
v -0.00410500169 -0.000829994678 0.00450000539
v -0.00410500169 -0.00400000811 0.00409999862
v -0.00410500169 -0.00400000811 0.00450000539
v -0.00508499891 -0.00400000811 0.00409999862
v -0.00508499891 -0.00400000811 0.00450000539
v -0.00508499891 0.00282000005 0.00409999862
v -0.00508499891 0.00282000005 0.00450000539
v -0.00144500285 0.00282000005 0.00409999862
v -0.00144500285 0.00282000005 0.00450000539
v -0.00144500285 0.00193999708 0.00409999862
v -0.00144500285 0.00193999708 0.00450000539
v 0.00106122345 -0.00407265127 0.00409999862
v 0.00106122345 -0.00407265127 0.00450000539
v 0.000771477818 -0.00402198732 0.00409999862
v 0.000771477818 -0.00402198732 0.00450000539
v 0.000498123467 -0.00394016504 0.00409999862
v 0.000498123467 -0.00394016504 0.00450000539
v 0.000243514776 -0.0038292557 0.00409999862
v 0.000243514776 -0.0038292557 0.00450000539
v 1.00210309e-05 -0.00369141996 0.00409999862
v 1.00210309e-05 -0.00369141996 0.00450000539
v -0.000200003386 -0.00352875888 0.00409999862
v -0.000200003386 -0.00352875888 0.00450000539
v -0.000384189188 -0.00334337354 0.00409999862
v -0.000384189188 -0.00334337354 0.00450000539
v -0.000540189445 -0.00313740969 0.00409999862
v -0.000540189445 -0.00313740969 0.00450000539
v -0.00066562742 -0.0029129684 0.00409999862
v -0.00066562742 -0.0029129684 0.00450000539
v -0.00075814873 -0.00267218053 0.00409999862
v -0.00075814873 -0.00267218053 0.00450000539
v -0.000815398991 -0.00241714716 0.00409999862
v -0.000815398991 -0.00241714716 0.00450000539
v -0.000835001469 -0.00214999914 0.00409999862
v -0.000835001469 -0.00214999914 0.00450000539
v -0.000828333199 -0.00197394192 0.00409999862
v -0.000828333199 -0.00197394192 0.00450000539
v -0.000808291137 -0.00180564821 0.00409999862
v -0.000808291137 -0.00180564821 0.00450000539
v -0.000774845481 -0.00164499879 0.00409999862
v -0.000774845481 -0.00164499879 0.00450000539
v -0.000727966428 -0.00149185956 0.00409999862
v -0.000727966428 -0.00149185956 0.00450000539
v -0.000667609274 -0.00134606659 0.00409999862
v -0.000667609274 -0.00134606659 0.00450000539
v -0.000593751669 -0.0012075007 0.00409999862
v -0.000593751669 -0.0012075007 0.00450000539
v -0.000506348908 -0.00107602775 0.00409999862
v -0.000506348908 -0.00107602775 0.00450000539
v -0.000405371189 -0.000951483846 0.00409999862
v -0.000405371189 -0.000951483846 0.00450000539
v -0.00029078126 -0.000833749771 0.00409999862
v -0.00029078126 -0.000833749771 0.00450000539
v -0.000162549317 -0.000722691417 0.00409999862
v -0.000162549317 -0.000722691417 0.00450000539
v -2.06306577e-05 -0.00061814487 0.00409999862
v -2.06306577e-05 -0.00061814487 0.00450000539
v 0.00013499707 -0.000520005822 0.00409999862
v 0.00013499707 -0.000520005822 0.00450000539
v 1.19283795e-05 -0.000424429774 0.00409999862
v 1.19283795e-05 -0.000424429774 0.00450000539
v -0.000102087855 -0.000322923064 0.00409999862
v -0.000102087855 -0.000322923064 0.00450000539
v -0.000206723809 -0.000215783715 0.00409999862
v -0.000206723809 -0.000215783715 0.00450000539
v -0.000301666558 -0.000103339553 0.00409999862
v -0.000301666558 -0.000103339553 0.00450000539
v -0.000386618078 1.41113997e-05 0.00409999862
v -0.000386618078 1.41113997e-05 0.00450000539
v -0.000461250544 0.000136241317 0.00409999862
v -0.000461250544 0.000136241317 0.00450000539
v -0.000525258482 0.000262752175 0.00409999862
v -0.000525258482 0.000262752175 0.00450000539
v -0.000578336418 0.000393331051 0.00409999862
v -0.000578336418 0.000393331051 0.00450000539
v -0.000620156527 0.000527650118 0.00409999862
v -0.000620156527 0.000527650118 0.00450000539
v -0.000650420785 0.000665411353 0.00409999862
v -0.000650420785 0.000665411353 0.00450000539
v -0.000668801367 0.000806301832 0.00409999862
v -0.000668801367 0.000806301832 0.00450000539
v -0.00067500025 0.00094999373 0.00409999862
v -0.00067500025 0.00094999373 0.00450000539
v -0.000656604767 0.00122384727 0.00409999862
v -0.000656604767 0.00122384727 0.00450000539
v -0.000602826476 0.00148406625 0.00409999862
v -0.000602826476 0.00148406625 0.00450000539
v -0.000515781343 0.00172874331 0.00409999862
v -0.000515781343 0.00172874331 0.00450000539
v -0.000397592783 0.00195592642 0.00409999862
v -0.000397592783 0.00195592642 0.00450000539
v -0.000250376761 0.00216364861 0.00409999862
v -0.000250376761 0.00216364861 0.00450000539
v -7.62492418e-05 0.00235000253 0.00409999862
v -7.62492418e-05 0.00235000253 0.00450000539
v 0.000122666359 0.00251300633 0.00409999862
v 0.000122666359 0.00251300633 0.00450000539
v 0.000344254076 0.00265073776 0.00409999862
v 0.000344254076 0.00265073776 0.00450000539
v 0.000586405396 0.00276124477 0.00409999862
v 0.000586405396 0.00276124477 0.00450000539
v 0.000846989453 0.00284259021 0.00409999862
v 0.000846989453 0.00284259021 0.00450000539
v 0.00112389028 0.00289282203 0.00409999862
v 0.00112389028 0.00289282203 0.00450000539
v 0.00141499937 0.00291000307 0.00409999862
v 0.00141499937 0.00291000307 0.00450000539
v 0.00169612467 0.00289261341 0.00409999862
v 0.00169612467 0.00289261341 0.00450000539
v 0.00196319073 0.00284180045 0.00409999862
v 0.00196319073 0.00284180045 0.00450000539
v 0.0022142157 0.00275953114 0.00409999862
v 0.0022142157 0.00275953114 0.00450000539
v 0.0024472177 0.00264777243 0.00409999862
v 0.0024472177 0.00264777243 0.00450000539
v 0.00266022235 0.00250852108 0.00409999862
v 0.00266022235 0.00250852108 0.00450000539
v 0.00285124779 0.00234374404 0.00409999862
v 0.00285124779 0.00234374404 0.00450000539
v 0.00301831216 0.00215543807 0.00409999862
v 0.00301831216 0.00215543807 0.00450000539
v 0.00315944105 0.00194555521 0.00409999862
v 0.00315944105 0.00194555521 0.00450000539
v 0.00327265263 0.00171609223 0.00409999862
v 0.00327265263 0.00171609223 0.00450000539
v 0.00335597247 0.00146903098 0.00409999862
v 0.00335597247 0.00146903098 0.00450000539
v 0.00340741128 0.00120633841 0.00409999862
v 0.00340741128 0.00120633841 0.00450000539
v 0.00342499465 0.000929996371 0.00409999862
v 0.00342499465 0.000929996371 0.00450000539
v 0.00341934711 0.000801593065 0.00409999862
v 0.00341934711 0.000801593065 0.00450000539
v 0.00340231508 0.000671893358 0.00409999862
v 0.00340231508 0.000671893358 0.00450000539
v 0.00337374955 0.000541716814 0.00409999862
v 0.00337374955 0.000541716814 0.00450000539
v 0.00333351642 0.000411853194 0.00409999862
v 0.00333351642 0.000411853194 0.00450000539
v 0.00328148156 0.00028309226 0.00409999862
v 0.00328148156 0.00028309226 0.00450000539
v 0.00321749598 0.000156253576 0.00409999862
v 0.00321749598 0.000156253576 0.00450000539
v 0.003141433 3.21120024e-05 0.00409999862
v 0.003141433 3.21120024e-05 0.00450000539
v 0.00305314362 -8.85277987e-05 0.00409999862
v 0.00305314362 -8.85277987e-05 0.00450000539
v 0.00295250118 -0.000204846263 0.00409999862
v 0.00295250118 -0.000204846263 0.00450000539
v 0.00283934921 -0.00031606853 0.00409999862
v 0.00283934921 -0.00031606853 0.00450000539
v 0.00271356106 -0.000421389937 0.00409999862
v 0.00271356106 -0.000421389937 0.00450000539
v 0.00257499516 -0.000520005822 0.00409999862
v 0.00257499516 -0.000520005822 0.00450000539
v 0.00272603333 -0.000608414412 0.00409999862
v 0.00272603333 -0.000608414412 0.00450000539
v 0.00286411494 -0.000708147883 0.00409999862
v 0.00286411494 -0.000708147883 0.00450000539
v 0.00298921764 -0.000818446279 0.00409999862
v 0.00298921764 -0.000818446279 0.00450000539
v 0.00310129672 -0.000938519835 0.00409999862
v 0.00310129672 -0.000938519835 0.00450000539
v 0.00320031494 -0.0010676235 0.00409999862
v 0.00320031494 -0.0010676235 0.00450000539
v 0.00328624994 -0.0012049973 0.00409999862
v 0.00328624994 -0.0012049973 0.00450000539
v 0.00335905701 -0.00134988129 0.00409999862
v 0.00335905701 -0.00134988129 0.00450000539
v 0.00341869891 -0.00150148571 0.00409999862
v 0.00341869891 -0.00150148571 0.00450000539
v 0.00346515328 -0.00165906549 0.00409999862
v 0.00346515328 -0.00165906549 0.00450000539
v 0.00349837542 -0.00182186067 0.00409999862
v 0.00349837542 -0.00182186067 0.00450000539
v 0.00351833552 -0.0019890815 0.00409999862
v 0.00351833552 -0.0019890815 0.00450000539
v 0.00352499634 -0.00215999782 0.00409999862
v 0.00352499634 -0.00215999782 0.00450000539
v 0.00350579619 -0.00242695212 0.00409999862
v 0.00350579619 -0.00242695212 0.00450000539
v 0.00344972312 -0.00268143415 0.00409999862
v 0.00344972312 -0.00268143415 0.00450000539
v 0.00335905701 -0.00292140245 0.00409999862
v 0.00335905701 -0.00292140245 0.00450000539
v 0.00323610753 -0.00314481556 0.00409999862
v 0.00323610753 -0.00314481556 0.00450000539
v 0.00308315456 -0.00334961712 0.00409999862
v 0.00308315456 -0.00334961712 0.00450000539
v 0.00290250033 -0.00353375077 0.00409999862
v 0.00290250033 -0.00353375077 0.00450000539
v 0.00269642472 -0.00369517505 0.00409999862
v 0.00269642472 -0.00369517505 0.00450000539
v 0.00246722251 -0.0038318485 0.00409999862
v 0.00246722251 -0.0038318485 0.00450000539
v 0.00221718848 -0.00394171476 0.00409999862
v 0.00221718848 -0.00394171476 0.00450000539
v 0.00194860995 -0.00402273238 0.00409999862
v 0.00194860995 -0.00402273238 0.00450000539
v 0.0016637817 -0.00407284498 0.00409999862
v 0.0016637817 -0.00407284498 0.00450000539
v 0.00136499852 -0.00408999622 0.00409999862
v 0.00136499852 -0.00408999622 0.00450000539
v 0.001237005 0.00197178125 0.00409999862
v 0.001237005 0.00197178125 0.00450000539
v 0.00108855963 0.00194755197 0.00409999862
v 0.00108855963 0.00194755197 0.00450000539
v 0.000950470567 0.00190797448 0.00409999862
v 0.000950470567 0.00190797448 0.00450000539
v 0.000823520124 0.00185370445 0.00409999862
v 0.000823520124 0.00185370445 0.00450000539
v 0.000708512962 0.00178541243 0.00409999862
v 0.000708512962 0.00178541243 0.00450000539
v 0.000606246293 0.00170375407 0.00409999862
v 0.000606246293 0.00170375407 0.00450000539
v 0.000517524779 0.00160938501 0.00409999862
v 0.000517524779 0.00160938501 0.00450000539
v 0.000443145633 0.00150296092 0.00409999862
v 0.000443145633 0.00150296092 0.00450000539
v 0.000383906066 0.00138515234 0.00409999862
v 0.000383906066 0.00138515234 0.00450000539
v 0.000340603292 0.00125661492 0.00409999862
v 0.000340603292 0.00125661492 0.00450000539
v 0.000314034522 0.00111801922 0.00409999862
v 0.000314034522 0.00111801922 0.00450000539
v 0.000304996967 0.000969991088 0.00409999862
v 0.000304996967 0.000969991088 0.00450000539
v 0.000314973295 0.000831902027 0.00409999862
v 0.000314973295 0.000831902027 0.00450000539
v 0.000343978405 0.000698521733 0.00409999862
v 0.000343978405 0.000698521733 0.00450000539
v 0.00039062649 0.000571250916 0.00409999862
v 0.00039062649 0.000571250916 0.00450000539
v 0.000453516841 0.000451475382 0.00409999862
v 0.000453516841 0.000451475382 0.00450000539
v 0.0005312711 0.000340595841 0.00409999862
v 0.0005312711 0.000340595841 0.00450000539
v 0.000622496009 0.000239998102 0.00409999862
v 0.000622496009 0.000239998102 0.00450000539
v 0.000725805759 0.000151067972 0.00409999862
v 0.000725805759 0.000151067972 0.00450000539
v 0.000839814544 7.51763582e-05 0.00409999862
v 0.000839814544 7.51763582e-05 0.00450000539
v 0.000963121653 1.37537718e-05 0.00409999862
v 0.000963121653 1.37537718e-05 0.00450000539
v 0.00109434873 -3.18586826e-05 0.00409999862
v 0.00109434873 -3.18586826e-05 0.00450000539
v 0.00123210251 -6.02304935e-05 0.00409999862
v 0.00123210251 -6.02304935e-05 0.00450000539
v 0.0013749972 -7.00056553e-05 0.00409999862
v 0.0013749972 -7.00056553e-05 0.00450000539
v 0.00151999295 -6.04391098e-05 0.00409999862
v 0.00151999295 -6.04391098e-05 0.00450000539
v 0.00165911764 -3.26484442e-05 0.00409999862
v 0.00165911764 -3.26484442e-05 0.00450000539
v 0.00179108977 1.20252371e-05 0.00409999862
v 0.00179108977 1.20252371e-05 0.00450000539
v 0.00191462785 7.22259283e-05 0.00409999862
v 0.00191462785 7.22259283e-05 0.00450000539
v 0.00202844292 0.000146582723 0.00409999862
v 0.00202844292 0.000146582723 0.00450000539
v 0.00213124603 0.000233754516 0.00409999862
v 0.00213124603 0.000233754516 0.00450000539
v 0.00222176313 0.0003323704 0.00409999862
v 0.00222176313 0.0003323704 0.00450000539
v 0.00229870528 0.000441104174 0.00409999862
v 0.00229870528 0.000441104174 0.00450000539
v 0.00236077607 0.000558584929 0.00409999862
v 0.00236077607 0.000558584929 0.00450000539
v 0.0024067089 0.00068347156 0.00409999862
v 0.0024067089 0.00068347156 0.00450000539
v 0.00243521482 0.000814393163 0.00409999862
v 0.00243521482 0.000814393163 0.00450000539
v 0.00244499743 0.00094999373 0.00409999862
v 0.00244499743 0.00094999373 0.00450000539
v 0.00243598968 0.00109420717 0.00409999862
v 0.00243598968 0.00109420717 0.00450000539
v 0.00240958482 0.00123114884 0.00409999862
v 0.00240958482 0.00123114884 0.00450000539
v 0.00236671418 0.00135983527 0.00409999862
v 0.00236671418 0.00135983527 0.00450000539
v 0.00230833143 0.00147925317 0.00409999862
v 0.00230833143 0.00147925317 0.00450000539
v 0.00223536044 0.00158838928 0.00409999862
v 0.00223536044 0.00158838928 0.00450000539
v 0.00214874744 0.0016862452 0.00409999862
v 0.00214874744 0.0016862452 0.00450000539
v 0.00204942375 0.00177180767 0.00409999862
v 0.00204942375 0.00177180767 0.00450000539
v 0.00193832815 0.0018440783 0.00409999862
v 0.00193832815 0.0018440783 0.00450000539
v 0.00181640685 0.00190202892 0.00409999862
v 0.00181640685 0.00190202892 0.00450000539
v 0.00168458372 0.00194467604 0.00409999862
v 0.00168458372 0.00194467604 0.00450000539
v 0.00154379755 0.00197100639 0.00409999862
v 0.00154379755 0.00197100639 0.00450000539
v 0.00139499456 0.00197999179 0.00409999862
v 0.00139499456 0.00197999179 0.00450000539
v 0.00118554384 -0.00100903213 0.00409999862
v 0.00118554384 -0.00100903213 0.00450000539
v 0.00101768225 -0.0010355562 0.00409999862
v 0.00101768225 -0.0010355562 0.00450000539
v 0.000862188637 -0.00107875466 0.00409999862
v 0.000862188637 -0.00107875466 0.00450000539
v 0.000719815493 -0.00113777816 0.00409999862
v 0.000719815493 -0.00113777816 0.00450000539
v 0.00059133023 -0.00121180713 0.00409999862
v 0.00059133023 -0.00121180713 0.00450000539
v 0.00047750026 -0.0013000071 0.00409999862
v 0.00047750026 -0.0013000071 0.00450000539
v 0.000379085541 -0.00140152872 0.00409999862
v 0.000379085541 -0.00140152872 0.00450000539
v 0.000296853483 -0.0015155524 0.00409999862
v 0.000296853483 -0.0015155524 0.00450000539
v 0.000231564045 -0.0016412586 0.00409999862
v 0.000231564045 -0.0016412586 0.00450000539
v 0.000183977187 -0.00177778304 0.00409999862
v 0.000183977187 -0.00177778304 0.00450000539
v 0.000154867768 -0.00192430615 0.00409999862
v 0.000154867768 -0.00192430615 0.00450000539
v 0.000144995749 -0.00208000839 0.00409999862
v 0.000144995749 -0.00208000839 0.00450000539
v 0.000155240297 -0.00223359466 0.00409999862
v 0.000155240297 -0.00223359466 0.00450000539
v 0.000185273588 -0.00237874687 0.00409999862
v 0.000185273588 -0.00237874687 0.00450000539
v 0.000234059989 -0.00251452625 0.00409999862
v 0.000234059989 -0.00251452625 0.00450000539
v 0.000300556421 -0.00264000893 0.00409999862
v 0.000300556421 -0.00264000893 0.00450000539
v 0.000383712351 -0.00275422633 0.00409999862
v 0.000383712351 -0.00275422633 0.00450000539
v 0.000482499599 -0.00285625458 0.00409999862
v 0.000482499599 -0.00285625458 0.00450000539
v 0.000595867634 -0.00294515491 0.00409999862
v 0.000595867634 -0.00294515491 0.00450000539
v 0.000722773373 -0.00302000344 0.00409999862
v 0.000722773373 -0.00302000344 0.00450000539
v 0.000862188637 -0.0030798465 0.00409999862
v 0.000862188637 -0.0030798465 0.00450000539
v 0.00101305544 -0.00312374532 0.00409999862
v 0.00101305544 -0.00312374532 0.00450000539
v 0.00117433816 -0.00315077603 0.00409999862
v 0.00117433816 -0.00315077603 0.00450000539
v 0.00134500116 -0.00315999985 0.00409999862
v 0.00134500116 -0.00315999985 0.00450000539
v 0.00153456628 -0.00314964354 0.00409999862
v 0.00153456628 -0.00314964354 0.00450000539
v 0.00170819461 -0.0031195879 0.00409999862
v 0.00170819461 -0.0031195879 0.00450000539
v 0.00186578184 -0.00307141244 0.00409999862
v 0.00186578184 -0.00307141244 0.00450000539
v 0.00200722367 -0.0030066669 0.00409999862
v 0.00200722367 -0.0030066669 0.00450000539
v 0.00213240832 -0.00292693079 0.00409999862
v 0.00213240832 -0.00292693079 0.00450000539
v 0.0022412464 -0.00283375382 0.00409999862
v 0.0022412464 -0.00283375382 0.00450000539
v 0.00233362615 -0.00272870064 0.00409999862
v 0.00233362615 -0.00272870064 0.00450000539
v 0.00240944326 -0.00261333585 0.00409999862
v 0.00240944326 -0.00261333585 0.00450000539
v 0.00246859342 -0.00248922408 0.00409999862
v 0.00246859342 -0.00248922408 0.00450000539
v 0.00251097232 -0.00235791504 0.00409999862
v 0.00251097232 -0.00235791504 0.00450000539
v 0.00253647566 -0.00222098827 0.00409999862
v 0.00253647566 -0.00222098827 0.00450000539
v 0.00254499912 -0.00208000839 0.00409999862
v 0.00254499912 -0.00208000839 0.00450000539
v 0.00253495574 -0.00192850828 0.00409999862
v 0.00253495574 -0.00192850828 0.00450000539
v 0.00250551105 -0.00178472698 0.00409999862
v 0.00250551105 -0.00178472698 0.00450000539
v 0.00245765597 -0.00164969265 0.00409999862
v 0.00245765597 -0.00164969265 0.00450000539
v 0.00239240378 -0.00152444839 0.00409999862
v 0.00239240378 -0.00152444839 0.00450000539
v 0.00231076777 -0.00141003728 0.00409999862
v 0.00231076777 -0.00141003728 0.00450000539
v 0.00221374631 -0.00130750239 0.00409999862
v 0.00221374631 -0.00130750239 0.00450000539
v 0.00210235268 -0.00121788681 0.00409999862
v 0.00210235268 -0.00121788681 0.00450000539
v 0.00197759271 -0.00114221871 0.00409999862
v 0.00197759271 -0.00114221871 0.00450000539
v 0.00184046477 -0.00108157098 0.00409999862
v 0.00184046477 -0.00108157098 0.00450000539
v 0.0016919896 -0.00103694201 0.00409999862
v 0.0016919896 -0.00103694201 0.00450000539
v 0.00153316557 -0.00100940466 0.00409999862
v 0.00153316557 -0.00100940466 0.00450000539
v 0.00136499852 -0.00100000203 0.00409999862
v 0.00136499852 -0.00100000203 0.00450000539
usemtl screen_white_text_003
f 199 201 200
f 198 201 199
f 198 202 201
f 197 202 198
f 197 203 202
f 196 203 197
f 196 204 203
f 195 204 196
f 195 205 204
f 194 205 195
f 194 206 205
f 193 206 194
f 193 207 206
f 192 207 193
f 192 296 207
f 296 208 207
f 192 249 296
f 295 208 296
f 192 250 249
f 294 208 295
f 191 250 192
f 191 251 250
f 294 209 208
f 293 209 294
f 191 252 251
f 292 209 293
f 191 253 252
f 291 209 292
f 191 254 253
f 290 209 291
f 190 254 191
f 290 210 209
f 190 255 254
f 289 210 290
f 190 256 255
f 288 210 289
f 190 257 256
f 189 257 190
f 287 210 288
f 287 211 210
f 189 258 257
f 286 211 287
f 189 259 258
f 285 211 286
f 188 259 189
f 285 212 211
f 188 260 259
f 284 212 285
f 188 261 260
f 187 261 188
f 283 212 284
f 283 213 212
f 187 262 261
f 282 213 283
f 186 262 187
f 282 214 213
f 186 263 262
f 281 214 282
f 281 215 214
f 185 263 186
f 185 264 263
f 280 215 281
f 280 216 215
f 184 264 185
f 184 265 264
f 279 216 280
f 279 217 216
f 183 265 184
f 183 266 265
f 278 217 279
f 278 218 217
f 182 266 183
f 182 267 266
f 277 218 278
f 277 219 218
f 182 268 267
f 276 219 277
f 181 268 182
f 181 269 268
f 275 219 276
f 275 220 219
f 180 269 181
f 180 270 269
f 274 220 275
f 180 271 270
f 273 220 274
f 180 272 271
f 272 220 273
f 180 220 272
f 180 221 220
f 179 221 180
f 179 222 221
f 178 222 179
f 178 223 222
f 177 223 178
f 177 224 223
f 176 224 177
f 175 224 176
f 175 225 224
f 175 226 225
f 174 226 175
f 174 227 226
f 173 227 174
f 173 228 227
f 172 228 173
f 172 344 228
f 344 229 228
f 171 344 172
f 171 297 344
f 343 229 344
f 171 298 297
f 342 229 343
f 171 299 298
f 341 229 342
f 341 230 229
f 170 299 171
f 170 300 299
f 340 230 341
f 170 301 300
f 339 230 340
f 339 231 230
f 169 301 170
f 169 302 301
f 338 231 339
f 169 303 302
f 337 231 338
f 168 303 169
f 337 232 231
f 168 304 303
f 336 232 337
f 167 304 168
f 336 233 232
f 167 305 304
f 335 233 336
f 167 306 305
f 166 306 167
f 334 233 335
f 334 234 233
f 166 307 306
f 333 234 334
f 165 307 166
f 333 235 234
f 165 308 307
f 332 235 333
f 164 308 165
f 332 236 235
f 164 309 308
f 331 236 332
f 163 309 164
f 331 237 236
f 330 237 331
f 163 310 309
f 329 237 330
f 163 311 310
f 162 311 163
f 329 238 237
f 328 238 329
f 162 312 311
f 327 238 328
f 162 313 312
f 161 313 162
f 327 239 238
f 326 239 327
f 161 314 313
f 325 239 326
f 161 315 314
f 160 315 161
f 325 240 239
f 324 240 325
f 160 316 315
f 323 240 324
f 160 317 316
f 322 240 323
f 160 318 317
f 321 240 322
f 160 319 318
f 159 319 160
f 321 241 240
f 320 241 321
f 159 320 319
f 159 241 320
f 158 241 159
f 158 242 241
f 157 242 158
f 157 243 242
f 156 243 157
f 156 244 243
f 155 244 156
f 155 245 244
f 154 245 155
f 154 246 245
f 153 246 154
f 153 247 246
f 248 247 153
f 351 345 352
f 345 353 352
f 345 354 353
f 351 346 345
f 351 349 346
f 349 347 346
f 349 348 347
f 351 350 349
f 401 402 403
f 400 401 403
f 400 403 404
f 399 400 404
f 399 404 405
f 398 399 405
f 398 405 406
f 397 398 406
f 397 406 407
f 396 397 407
f 396 407 408
f 395 396 408
f 395 408 409
f 394 395 409
f 394 409 498
f 498 409 410
f 394 498 451
f 497 498 410
f 394 451 452
f 496 497 410
f 393 394 452
f 393 452 453
f 496 410 411
f 495 496 411
f 393 453 454
f 494 495 411
f 393 454 455
f 493 494 411
f 393 455 456
f 492 493 411
f 392 393 456
f 492 411 412
f 392 456 457
f 491 492 412
f 392 457 458
f 490 491 412
f 392 458 459
f 391 392 459
f 489 490 412
f 489 412 413
f 391 459 460
f 488 489 413
f 391 460 461
f 487 488 413
f 390 391 461
f 487 413 414
f 390 461 462
f 486 487 414
f 390 462 463
f 389 390 463
f 485 486 414
f 485 414 415
f 389 463 464
f 484 485 415
f 388 389 464
f 484 415 416
f 388 464 465
f 483 484 416
f 483 416 417
f 387 388 465
f 387 465 466
f 482 483 417
f 482 417 418
f 386 387 466
f 386 466 467
f 481 482 418
f 481 418 419
f 385 386 467
f 385 467 468
f 480 481 419
f 480 419 420
f 384 385 468
f 384 468 469
f 479 480 420
f 479 420 421
f 384 469 470
f 478 479 421
f 383 384 470
f 383 470 471
f 477 478 421
f 477 421 422
f 382 383 471
f 382 471 472
f 476 477 422
f 382 472 473
f 475 476 422
f 382 473 474
f 474 475 422
f 382 474 422
f 382 422 423
f 381 382 423
f 381 423 424
f 380 381 424
f 380 424 425
f 379 380 425
f 379 425 426
f 378 379 426
f 377 378 426
f 377 426 427
f 377 427 428
f 376 377 428
f 376 428 429
f 375 376 429
f 375 429 430
f 374 375 430
f 374 430 546
f 546 430 431
f 373 374 546
f 373 546 499
f 545 546 431
f 373 499 500
f 544 545 431
f 373 500 501
f 543 544 431
f 543 431 432
f 372 373 501
f 372 501 502
f 542 543 432
f 372 502 503
f 541 542 432
f 541 432 433
f 371 372 503
f 371 503 504
f 540 541 433
f 371 504 505
f 539 540 433
f 370 371 505
f 539 433 434
f 370 505 506
f 538 539 434
f 369 370 506
f 538 434 435
f 369 506 507
f 537 538 435
f 369 507 508
f 368 369 508
f 536 537 435
f 536 435 436
f 368 508 509
f 535 536 436
f 367 368 509
f 535 436 437
f 367 509 510
f 534 535 437
f 366 367 510
f 534 437 438
f 366 510 511
f 533 534 438
f 365 366 511
f 533 438 439
f 532 533 439
f 365 511 512
f 531 532 439
f 365 512 513
f 364 365 513
f 531 439 440
f 530 531 440
f 364 513 514
f 529 530 440
f 364 514 515
f 363 364 515
f 529 440 441
f 528 529 441
f 363 515 516
f 527 528 441
f 363 516 517
f 362 363 517
f 527 441 442
f 526 527 442
f 362 517 518
f 525 526 442
f 362 518 519
f 524 525 442
f 362 519 520
f 523 524 442
f 362 520 521
f 361 362 521
f 523 442 443
f 522 523 443
f 361 521 522
f 361 522 443
f 360 361 443
f 360 443 444
f 359 360 444
f 359 444 445
f 358 359 445
f 358 445 446
f 357 358 446
f 357 446 447
f 356 357 447
f 356 447 448
f 355 356 448
f 355 448 449
f 450 355 449
f 553 554 547
f 547 554 555
f 547 555 556
f 553 547 548
f 553 548 551
f 551 548 549
f 551 549 550
f 553 551 552
f 558 560 559 557
f 560 562 561 559
f 562 564 563 561
f 564 566 565 563
f 566 568 567 565
f 568 570 569 567
f 570 572 571 569
f 572 574 573 571
f 574 576 575 573
f 576 558 557 575
f 578 580 579 577
f 580 582 581 579
f 582 584 583 581
f 584 586 585 583
f 586 588 587 585
f 588 590 589 587
f 590 592 591 589
f 592 594 593 591
f 594 596 595 593
f 596 598 597 595
f 598 600 599 597
f 600 602 601 599
f 602 604 603 601
f 604 606 605 603
f 606 608 607 605
f 608 610 609 607
f 610 612 611 609
f 612 614 613 611
f 614 616 615 613
f 616 618 617 615
f 618 620 619 617
f 620 622 621 619
f 622 624 623 621
f 624 626 625 623
f 626 628 627 625
f 628 630 629 627
f 630 632 631 629
f 632 634 633 631
f 634 636 635 633
f 636 638 637 635
f 638 640 639 637
f 640 642 641 639
f 642 644 643 641
f 644 646 645 643
f 646 648 647 645
f 648 650 649 647
f 650 652 651 649
f 652 654 653 651
f 654 656 655 653
f 656 658 657 655
f 658 660 659 657
f 660 662 661 659
f 662 664 663 661
f 664 666 665 663
f 666 668 667 665
f 668 670 669 667
f 670 672 671 669
f 672 674 673 671
f 674 676 675 673
f 676 678 677 675
f 678 680 679 677
f 680 682 681 679
f 682 684 683 681
f 684 686 685 683
f 686 688 687 685
f 688 690 689 687
f 690 692 691 689
f 692 694 693 691
f 694 696 695 693
f 696 698 697 695
f 698 700 699 697
f 700 702 701 699
f 702 704 703 701
f 704 706 705 703
f 706 708 707 705
f 708 710 709 707
f 710 712 711 709
f 712 714 713 711
f 714 716 715 713
f 716 718 717 715
f 718 720 719 717
f 720 722 721 719
f 722 724 723 721
f 724 726 725 723
f 726 728 727 725
f 728 730 729 727
f 730 732 731 729
f 732 734 733 731
f 734 736 735 733
f 736 738 737 735
f 738 740 739 737
f 740 742 741 739
f 742 744 743 741
f 744 746 745 743
f 746 748 747 745
f 748 750 749 747
f 750 752 751 749
f 752 754 753 751
f 754 756 755 753
f 756 758 757 755
f 758 760 759 757
f 760 762 761 759
f 762 764 763 761
f 764 766 765 763
f 766 768 767 765
f 768 578 577 767
f 770 772 771 769
f 772 774 773 771
f 774 776 775 773
f 776 778 777 775
f 778 780 779 777
f 780 782 781 779
f 782 784 783 781
f 784 786 785 783
f 786 788 787 785
f 788 790 789 787
f 790 792 791 789
f 792 794 793 791
f 794 796 795 793
f 796 798 797 795
f 798 800 799 797
f 800 802 801 799
f 802 804 803 801
f 804 806 805 803
f 806 808 807 805
f 808 810 809 807
f 810 812 811 809
f 812 814 813 811
f 814 816 815 813
f 816 818 817 815
f 818 820 819 817
f 820 822 821 819
f 822 824 823 821
f 824 826 825 823
f 826 828 827 825
f 828 830 829 827
f 830 832 831 829
f 832 834 833 831
f 834 836 835 833
f 836 838 837 835
f 838 840 839 837
f 840 842 841 839
f 842 844 843 841
f 844 846 845 843
f 846 848 847 845
f 848 850 849 847
f 850 852 851 849
f 852 854 853 851
f 854 856 855 853
f 856 858 857 855
f 858 860 859 857
f 860 862 861 859
f 862 864 863 861
f 864 770 769 863
f 866 868 867 865
f 868 870 869 867
f 870 872 871 869
f 872 874 873 871
f 874 876 875 873
f 876 878 877 875
f 878 880 879 877
f 880 882 881 879
f 882 884 883 881
f 884 886 885 883
f 886 888 887 885
f 888 890 889 887
f 890 892 891 889
f 892 894 893 891
f 894 896 895 893
f 896 898 897 895
f 898 900 899 897
f 900 902 901 899
f 902 904 903 901
f 904 906 905 903
f 906 908 907 905
f 908 910 909 907
f 910 912 911 909
f 912 914 913 911
f 914 916 915 913
f 916 918 917 915
f 918 920 919 917
f 920 922 921 919
f 922 924 923 921
f 924 926 925 923
f 926 928 927 925
f 928 930 929 927
f 930 932 931 929
f 932 934 933 931
f 934 936 935 933
f 936 938 937 935
f 938 940 939 937
f 940 942 941 939
f 942 944 943 941
f 944 946 945 943
f 946 948 947 945
f 948 950 949 947
f 950 952 951 949
f 952 954 953 951
f 954 956 955 953
f 956 958 957 955
f 958 960 959 957
f 960 866 865 959
