mtllib keyboard_key_2_1_Q_link.mtl
o keyboard_key_2_1_Q_link

g keyboard_key_2_1_Q_SOLID
v -0.0190000087 -0.0165000036 0
v -0.0190000087 -0.013000004 -0.00349999964
v -0.0224999934 -0.013000004 0
v -0.0190000087 -0.0162335783 -0.0013393946
v -0.0190000087 -0.0154748708 -0.00247487426
v -0.0203393847 -0.0162335783 0
v -0.0203729719 -0.0159120411 -0.00137295946
v -0.0203032941 -0.0152968913 -0.00229689106
v -0.0210207254 -0.0150207281 -0.00202072784
v -0.0203393847 -0.013000004 -0.00323357806
v -0.021474883 -0.013000004 -0.00247487426
v -0.0190000087 -0.0143393949 -0.00323357806
v -0.0203729719 -0.0143729597 -0.0029120408
v -0.0212969035 -0.0143032968 -0.00229689106
v -0.0222335905 -0.0143393949 0
v -0.021474883 -0.0154748708 0
v -0.0222335905 -0.013000004 -0.00133939087
v -0.0219120532 -0.0143729597 -0.00137295946
v -0.0212969035 -0.0152968913 -0.00130329654
v 0.0190000087 -0.0165000036 0
v 0.0224999934 -0.013000004 0
v 0.0190000087 -0.013000004 -0.00349999964
v 0.0203393996 -0.0162335783 0
v 0.021474883 -0.0154748708 0
v 0.0190000087 -0.0162335783 -0.00133939087
v 0.020372957 -0.0159120411 -0.00137295946
v 0.0212968886 -0.0152968913 -0.00130329654
v 0.0210207254 -0.0150207281 -0.00202072784
v 0.0222335756 -0.013000004 -0.0013393946
v 0.021474883 -0.013000004 -0.00247487426
v 0.0222335756 -0.0143393949 0
v 0.0219120383 -0.0143729597 -0.00137295946
v 0.0212968886 -0.0143032968 -0.00229689106
v 0.0190000087 -0.0143393949 -0.00323357806
v 0.0190000087 -0.0154748708 -0.00247487426
v 0.0203393996 -0.013000004 -0.00323357806
v 0.020372957 -0.0143729597 -0.0029120408
v 0.0203032941 -0.0152968913 -0.00229689106
v 0.0190000087 0.0165000036 0
v 0.0190000087 0.013000004 -0.00349999964
v 0.0224999934 0.013000004 0
v 0.0190000087 0.0162335783 -0.0013393946
v 0.0190000087 0.0154748708 -0.00247487426
v 0.0203393996 0.0162335783 0
v 0.020372957 0.0159120411 -0.00137295946
v 0.0203032941 0.0152968913 -0.00229689106
v 0.0210207254 0.0150207281 -0.00202072784
v 0.0203393996 0.013000004 -0.00323357806
v 0.021474883 0.013000004 -0.00247487426
v 0.0190000087 0.0143393949 -0.00323357806
v 0.020372957 0.0143729597 -0.0029120408
v 0.0212968886 0.0143032968 -0.00229689106
v 0.0222335756 0.0143393949 0
v 0.021474883 0.0154748708 0
v 0.0222335756 0.013000004 -0.00133939087
v 0.0219120383 0.0143729597 -0.00137295946
v 0.0212968886 0.0152968913 -0.00130329654
v -0.0190000087 0.0165000036 0
v -0.0224999934 0.013000004 0
v -0.0190000087 0.013000004 -0.00349999964
v -0.0203393847 0.0162335783 0
v -0.021474883 0.0154748708 0
v -0.0190000087 0.0162335783 -0.00133939087
v -0.0203729719 0.0159120411 -0.00137295946
v -0.0212969035 0.0152968913 -0.00130329654
v -0.0210207254 0.0150207281 -0.00202072784
v -0.0222335905 0.013000004 -0.0013393946
v -0.021474883 0.013000004 -0.00247487426
v -0.0222335905 0.0143393949 0
v -0.0219120532 0.0143729597 -0.00137295946
v -0.0212969035 0.0143032968 -0.00229689106
v -0.0190000087 0.0143393949 -0.00323357806
v -0.0190000087 0.0154748708 -0.00247487426
v -0.0203393847 0.013000004 -0.00323357806
v -0.0203729719 0.0143729597 -0.0029120408
v -0.0203032941 0.0152968913 -0.00229689106
v -0.0224999934 -0.013000004 0
v -0.0190000087 -0.013000004 0.00350000337
v -0.0190000087 -0.0165000036 0
v -0.0222335905 -0.013000004 0.0013393946
v -0.021474883 -0.013000004 0.00247487426
v -0.0222335905 -0.0143393949 0
v -0.0219120532 -0.0143729597 0.00137295946
v -0.0212969035 -0.0143032968 0.00229689106
v -0.0210207254 -0.0150207281 0.00202072784
v -0.0190000087 -0.0143393949 0.00323357806
v -0.0190000087 -0.0154748708 0.00247487426
v -0.0203393847 -0.013000004 0.00323357806
v -0.0203729719 -0.0143729597 0.0029120408
v -0.0203032941 -0.0152968913 0.00229689106
v -0.0203393847 -0.0162335783 0
v -0.021474883 -0.0154748708 0
v -0.0190000087 -0.0162335783 0.00133939087
v -0.0203729719 -0.0159120411 0.00137295946
v -0.0212969035 -0.0152968913 0.00130329654
v 0.0190000087 -0.0165000036 0
v 0.0190000087 -0.013000004 0.00350000337
v 0.0224999934 -0.013000004 0
v 0.0190000087 -0.0162335783 0.0013393946
v 0.0190000087 -0.0154748708 0.00247487426
v 0.0203393996 -0.0162335783 0
v 0.020372957 -0.0159120411 0.00137295946
v 0.0203032941 -0.0152968913 0.00229689106
v 0.0210207254 -0.0150207281 0.00202072784
v 0.0203393996 -0.013000004 0.00323357806
v 0.021474883 -0.013000004 0.00247487426
v 0.0190000087 -0.0143393949 0.00323357806
v 0.020372957 -0.0143729597 0.0029120408
v 0.0212968886 -0.0143032968 0.00229689106
v 0.0222335756 -0.0143393949 0
v 0.021474883 -0.0154748708 0
v 0.0222335756 -0.013000004 0.00133939087
v 0.0219120383 -0.0143729597 0.00137295946
v 0.0212968886 -0.0152968913 0.00130329654
v 0.0190000087 0.013000004 0.00350000337
v 0.0190000087 0.0165000036 0
v 0.0224999934 0.013000004 0
v 0.0190000087 0.0143393949 0.00323357806
v 0.0190000087 0.0154748708 0.00247487426
v 0.0203393996 0.013000004 0.00323357806
v 0.020372957 0.0143729597 0.0029120408
v 0.0203032941 0.0152968913 0.00229689106
v 0.0210207254 0.0150207281 0.00202072784
v 0.0203393996 0.0162335783 0
v 0.021474883 0.0154748708 0
v 0.0190000087 0.0162335783 0.00133939087
v 0.020372957 0.0159120411 0.00137295946
v 0.0212968886 0.0152968913 0.00130329654
v 0.0222335756 0.013000004 0.0013393946
v 0.021474883 0.013000004 0.00247487426
v 0.0222335756 0.0143393949 0
v 0.0219120383 0.0143729597 0.00137295946
v 0.0212968886 0.0143032968 0.00229689106
v -0.0224999934 0.013000004 0
v -0.0190000087 0.0165000036 0
v -0.0190000087 0.013000004 0.00350000337
v -0.0222335905 0.0143393949 0
v -0.021474883 0.0154748708 0
v -0.0222335905 0.013000004 0.00133939087
v -0.0219120532 0.0143729597 0.00137295946
v -0.0212969035 0.0152968913 0.00130329654
v -0.0210207254 0.0150207281 0.00202072784
v -0.0190000087 0.0162335783 0.0013393946
v -0.0190000087 0.0154748708 0.00247487426
v -0.0203393847 0.0162335783 0
v -0.0203729719 0.0159120411 0.00137295946
v -0.0203032941 0.0152968913 0.00229689106
v -0.0203393847 0.013000004 0.00323357806
v -0.021474883 0.013000004 0.00247487426
v -0.0190000087 0.0143393949 0.00323357806
v -0.0203729719 0.0143729597 0.0029120408
v -0.0212969035 0.0143032968 0.00229689106
usemtl matte_black_keycaps_003
f 59 134 77 3
f 2 22 40 60
f 39 116 135 58
f 78 136 115 97
f 21 98 117 41
f 1 4 7 6
f 4 5 8 7
f 6 7 19 16
f 7 8 9 19
f 2 10 13 12
f 10 11 14 13
f 12 13 8 5
f 13 14 9 8
f 3 15 18 17
f 15 16 19 18
f 17 18 14 11
f 18 19 9 14
f 20 23 26 25
f 23 24 27 26
f 25 26 38 35
f 26 27 28 38
f 21 29 32 31
f 29 30 33 32
f 31 32 27 24
f 32 33 28 27
f 22 34 37 36
f 34 35 38 37
f 36 37 33 30
f 37 38 28 33
f 39 42 45 44
f 42 43 46 45
f 44 45 57 54
f 45 46 47 57
f 40 48 51 50
f 48 49 52 51
f 50 51 46 43
f 51 52 47 46
f 41 53 56 55
f 53 54 57 56
f 55 56 52 49
f 56 57 47 52
f 58 61 64 63
f 61 62 65 64
f 63 64 76 73
f 64 65 66 76
f 59 67 70 69
f 67 68 71 70
f 69 70 65 62
f 70 71 66 65
f 60 72 75 74
f 72 73 76 75
f 74 75 71 68
f 75 76 66 71
f 77 80 83 82
f 80 81 84 83
f 82 83 95 92
f 83 84 85 95
f 78 86 89 88
f 86 87 90 89
f 88 89 84 81
f 89 90 85 84
f 79 91 94 93
f 91 92 95 94
f 93 94 90 87
f 94 95 85 90
f 96 99 102 101
f 99 100 103 102
f 101 102 114 111
f 102 103 104 114
f 97 105 108 107
f 105 106 109 108
f 107 108 103 100
f 108 109 104 103
f 98 110 113 112
f 110 111 114 113
f 112 113 109 106
f 113 114 104 109
f 115 118 121 120
f 118 119 122 121
f 120 121 133 130
f 121 122 123 133
f 116 124 127 126
f 124 125 128 127
f 126 127 122 119
f 127 128 123 122
f 117 129 132 131
f 129 130 133 132
f 131 132 128 125
f 132 133 123 128
f 134 137 140 139
f 137 138 141 140
f 139 140 152 149
f 140 141 142 152
f 135 143 146 145
f 143 144 147 146
f 145 146 141 138
f 146 147 142 141
f 136 148 151 150
f 148 149 152 151
f 150 151 147 144
f 151 152 142 147
f 39 58 63 42
f 42 63 73 43
f 43 73 72 50
f 50 72 60 40
f 1 20 25 4
f 4 25 35 5
f 5 35 34 12
f 12 34 22 2
f 21 41 55 29
f 29 55 49 30
f 30 49 48 36
f 36 48 40 22
f 2 60 74 10
f 10 74 68 11
f 11 68 67 17
f 17 67 59 3
f 3 77 82 15
f 15 82 92 16
f 16 92 91 6
f 6 91 79 1
f 78 97 107 86
f 86 107 100 87
f 87 100 99 93
f 93 99 96 79
f 97 115 120 105
f 105 120 130 106
f 106 130 129 112
f 112 129 117 98
f 77 134 139 80
f 80 139 149 81
f 81 149 148 88
f 88 148 136 78
f 20 96 101 23
f 23 101 111 24
f 24 111 110 31
f 31 110 98 21
f 41 117 131 53
f 53 131 125 54
f 54 125 124 44
f 44 124 116 39
f 115 136 150 118
f 118 150 144 119
f 119 144 143 126
f 126 143 135 116
f 58 135 145 61
f 61 145 138 62
f 62 138 137 69
f 69 137 134 59
f 1 79 96 20

g key_legend_2_1_Q
v -0.000155001879 -0.00400999933 0.00450000539
v 0.000134453177 -0.00413021445 0.00450000539
v 0.000404030085 -0.00423583388 0.00450000539
v 0.000655472279 -0.00432687998 0.00450000539
v 0.000890552998 -0.00440333784 0.00450000539
v 0.00111106038 -0.00446520746 0.00450000539
v 0.00131875277 -0.00451250374 0.00450000539
v 0.00151540339 -0.00454521179 0.00450000539
v 0.00170277059 -0.00456333905 0.00450000539
v 0.00188265741 -0.00456687808 0.00450000539
v 0.00205680728 -0.00455583632 0.00450000539
v 0.00222699344 -0.00453021377 0.00450000539
v 0.00239500403 -0.00449000299 0.00450000539
v 0.00242500007 -0.00451999903 0.00450000539
v 0.0015449971 -0.00539000332 0.00450000539
v 0.00121992826 -0.0053550154 0.00450000539
v 0.000904485583 -0.00530092418 0.00450000539
v 0.000598281622 -0.00522906333 0.00450000539
v 0.00030092895 -0.00514074415 0.00450000539
v 1.20401382e-05 -0.00503728539 0.00450000539
v -0.000268757343 -0.00491999835 0.00450000539
v -0.000541836023 -0.00479022413 0.00450000539
v -0.000807598233 -0.00464925915 0.00450000539
v -0.0010664016 -0.00449843705 0.00450000539
v -0.00131866336 -0.00433907658 0.00450000539
v -0.00156472623 -0.00417248905 0.00450000539
v -0.00180500746 -0.00400000066 0.00450000539
v -0.00221629441 -0.00389815122 0.00450000539
v -0.00260366499 -0.00375435501 0.00450000539
v -0.00296483934 -0.00357124954 0.00450000539
v -0.00329759717 -0.00335148722 0.00450000539
v -0.00359964371 -0.00309769064 0.00450000539
v -0.00386875868 -0.00281250477 0.00450000539
v -0.0041026473 -0.0024985671 0.00450000539
v -0.00429907441 -0.00215852261 0.00450000539
v -0.00445578992 -0.00179500133 0.00450000539
v -0.00457051396 -0.00141064823 0.00450000539
v -0.00464099646 -0.00100810081 0.00450000539
v -0.00466500223 -0.000590004027 0.00450000539
v -0.00463323295 -8.83936882e-05 0.00450000539
v -0.00453995168 0.000384531915 0.00450000539
v -0.00438828766 0.000825934112 0.00450000539
v -0.00418129563 0.00123295933 0.00450000539
v -0.00392208993 0.00160276145 0.00450000539
v -0.00361375511 0.00193250179 0.00450000539
v -0.00325937569 0.00221931189 0.00450000539
v -0.00286203623 0.00246036798 0.00450000539
v -0.00242485106 0.00265280902 0.00450000539
v -0.00195087492 0.00279379636 0.00450000539
v -0.00144323707 0.00288047642 0.00450000539
v -0.000905007124 0.00290999562 0.00450000539
v -0.000405818224 0.00287893414 0.00450000539
v 6.92605972e-05 0.00278814882 0.00450000539
v 0.000516563654 0.00264124572 0.00450000539
v 0.000932410359 0.00244185328 0.00450000539
v 0.00131310523 0.00219356269 0.00450000539
v 0.00165499747 0.00189999491 0.00450000539
v 0.0019543916 0.00156476349 0.00450000539
v 0.00220759213 0.00119148195 0.00450000539
v 0.00241093338 0.000783748925 0.00450000539
v 0.00256073475 0.000345185399 0.00450000539
v 0.00265331566 -0.000120602548 0.00450000539
v 0.00268499553 -0.000610001385 0.00450000539
v 0.00266063213 -0.00101720542 0.00450000539
v 0.00258921087 -0.00141181052 0.00450000539
v 0.00247327983 -0.0017907843 0.00450000539
v 0.00231537223 -0.00215111673 0.00450000539
v 0.00211800635 -0.00248977542 0.00450000539
v 0.00188374519 -0.00280375034 0.00450000539
v 0.00161510706 -0.00309001654 0.00450000539
v 0.00131462514 -0.00334555656 0.00450000539
v 0.000984847546 -0.00356734544 0.00450000539
v 0.000628277659 -0.00375236571 0.00450000539
v 0.000247493386 -0.00389759243 0.00450000539
v -0.000155001879 -0.00400000066 0.00450000539
v -0.000155001879 -0.00399000198 0.00450000539
v -0.00363604724 -0.000940859318 0.00450000539
v -0.00357916951 -0.00127102435 0.00450000539
v -0.00348438323 -0.00158687681 0.00450000539
v -0.00335167348 -0.00188481808 0.00450000539
v -0.00318104029 -0.00216122717 0.00450000539
v -0.00297249854 -0.00241250545 0.00450000539
v -0.00272604823 -0.00263502449 0.00450000539
v -0.00244167447 -0.00282518566 0.00450000539
v -0.00211937726 -0.00297937542 0.00450000539
v -0.00175917149 -0.00309398025 0.00450000539
v -0.00136104226 -0.00316539407 0.00450000539
v -0.000925004482 -0.00319000334 0.00450000539
v -0.000554531813 -0.00316598266 0.00450000539
v -0.000204637647 -0.00309616327 0.00450000539
v 0.000122502446 -0.00298390538 0.00450000539
v 0.000424623489 -0.00283259153 0.00450000539
v 0.000699535012 -0.00264558941 0.00450000539
v 0.000945001841 -0.00242625177 0.00450000539
v 0.0011587888 -0.00217796117 0.00450000539
v 0.00133870542 -0.00190407783 0.00450000539
v 0.00148250163 -0.0016079694 0.00450000539
v 0.00158795714 -0.00129301101 0.00450000539
v 0.0016528666 -0.000962562859 0.00450000539
v 0.00167499483 -0.000620000064 0.00450000539
v 0.00165228546 -0.000255249441 0.00450000539
v 0.00158578157 9.21711326e-05 0.00450000539
v 0.00147797167 0.000419527292 0.00450000539
v 0.00133129954 0.000724069774 0.00450000539
v 0.00114823878 0.00100305676 0.00450000539
v 0.000931248069 0.00125374645 0.00450000539
v 0.000682801008 0.00147339702 0.00450000539
v 0.000405371189 0.0016592592 0.00450000539
v 0.000101402402 0.00180859119 0.00450000539
v -0.000226616859 0.00191865861 0.00450000539
v -0.000576242805 0.00198670477 0.00450000539
v -0.000945001841 0.00200999528 0.00450000539
v -0.00142686069 0.00197831541 0.00450000539
v -0.00185407698 0.00188819319 0.00450000539
v -0.0022290647 0.00174702704 0.00450000539
v -0.00255426764 0.00156222284 0.00450000539
v -0.0028320998 0.00134116411 0.00450000539
v -0.00306500494 0.00109124929 0.00450000539
v -0.00325541198 0.00081987679 0.00450000539
v -0.0034057498 0.000534445047 0.00450000539
v -0.00351843238 0.000242345035 0.00450000539
v -0.00359593332 -4.90322709e-05 0.00450000539
v -0.0036406368 -0.000332273543 0.00450000539
v -0.00365500152 -0.000600002706 0.00450000539
v -0.000155001879 -0.00400999933 0.00409999862
v 0.000134453177 -0.00413021445 0.00409999862
v 0.000404030085 -0.00423583388 0.00409999862
v 0.000655472279 -0.00432687998 0.00409999862
v 0.000890552998 -0.00440333784 0.00409999862
v 0.00111106038 -0.00446520746 0.00409999862
v 0.00131875277 -0.00451250374 0.00409999862
v 0.00151540339 -0.00454521179 0.00409999862
v 0.00170277059 -0.00456333905 0.00409999862
v 0.00188265741 -0.00456687808 0.00409999862
v 0.00205680728 -0.00455583632 0.00409999862
v 0.00222699344 -0.00453021377 0.00409999862
v 0.00239500403 -0.00449000299 0.00409999862
v 0.00242500007 -0.00451999903 0.00409999862
v 0.0015449971 -0.00539000332 0.00409999862
v 0.00121992826 -0.0053550154 0.00409999862
v 0.000904485583 -0.00530092418 0.00409999862
v 0.000598281622 -0.00522906333 0.00409999862
v 0.00030092895 -0.00514074415 0.00409999862
v 1.20401382e-05 -0.00503728539 0.00409999862
v -0.000268757343 -0.00491999835 0.00409999862
v -0.000541836023 -0.00479022413 0.00409999862
v -0.000807598233 -0.00464925915 0.00409999862
v -0.0010664016 -0.00449843705 0.00409999862
v -0.00131866336 -0.00433907658 0.00409999862
v -0.00156472623 -0.00417248905 0.00409999862
v -0.00180500746 -0.00400000066 0.00409999862
v -0.00221629441 -0.00389815122 0.00409999862
v -0.00260366499 -0.00375435501 0.00409999862
v -0.00296483934 -0.00357124954 0.00409999862
v -0.00329759717 -0.00335148722 0.00409999862
v -0.00359964371 -0.00309769064 0.00409999862
v -0.00386875868 -0.00281250477 0.00409999862
v -0.0041026473 -0.0024985671 0.00409999862
v -0.00429907441 -0.00215852261 0.00409999862
v -0.00445578992 -0.00179500133 0.00409999862
v -0.00457051396 -0.00141064823 0.00409999862
v -0.00464099646 -0.00100810081 0.00409999862
v -0.00466500223 -0.000590004027 0.00409999862
v -0.00463323295 -8.83936882e-05 0.00409999862
v -0.00453995168 0.000384531915 0.00409999862
v -0.00438828766 0.000825934112 0.00409999862
v -0.00418129563 0.00123295933 0.00409999862
v -0.00392208993 0.00160276145 0.00409999862
v -0.00361375511 0.00193250179 0.00409999862
v -0.00325937569 0.00221931189 0.00409999862
v -0.00286203623 0.00246036798 0.00409999862
v -0.00242485106 0.00265280902 0.00409999862
v -0.00195087492 0.00279379636 0.00409999862
v -0.00144323707 0.00288047642 0.00409999862
v -0.000905007124 0.00290999562 0.00409999862
v -0.000405818224 0.00287893414 0.00409999862
v 6.92605972e-05 0.00278814882 0.00409999862
v 0.000516563654 0.00264124572 0.00409999862
v 0.000932410359 0.00244185328 0.00409999862
v 0.00131310523 0.00219356269 0.00409999862
v 0.00165499747 0.00189999491 0.00409999862
v 0.0019543916 0.00156476349 0.00409999862
v 0.00220759213 0.00119148195 0.00409999862
v 0.00241093338 0.000783748925 0.00409999862
v 0.00256073475 0.000345185399 0.00409999862
v 0.00265331566 -0.000120602548 0.00409999862
v 0.00268499553 -0.000610001385 0.00409999862
v 0.00266063213 -0.00101720542 0.00409999862
v 0.00258921087 -0.00141181052 0.00409999862
v 0.00247327983 -0.0017907843 0.00409999862
v 0.00231537223 -0.00215111673 0.00409999862
v 0.00211800635 -0.00248977542 0.00409999862
v 0.00188374519 -0.00280375034 0.00409999862
v 0.00161510706 -0.00309001654 0.00409999862
v 0.00131462514 -0.00334555656 0.00409999862
v 0.000984847546 -0.00356734544 0.00409999862
v 0.000628277659 -0.00375236571 0.00409999862
v 0.000247493386 -0.00389759243 0.00409999862
v -0.000155001879 -0.00400000066 0.00409999862
v -0.000155001879 -0.00399000198 0.00409999862
v -0.00363604724 -0.000940859318 0.00409999862
v -0.00357916951 -0.00127102435 0.00409999862
v -0.00348438323 -0.00158687681 0.00409999862
v -0.00335167348 -0.00188481808 0.00409999862
v -0.00318104029 -0.00216122717 0.00409999862
v -0.00297249854 -0.00241250545 0.00409999862
v -0.00272604823 -0.00263502449 0.00409999862
v -0.00244167447 -0.00282518566 0.00409999862
v -0.00211937726 -0.00297937542 0.00409999862
v -0.00175917149 -0.00309398025 0.00409999862
v -0.00136104226 -0.00316539407 0.00409999862
v -0.000925004482 -0.00319000334 0.00409999862
v -0.000554531813 -0.00316598266 0.00409999862
v -0.000204637647 -0.00309616327 0.00409999862
v 0.000122502446 -0.00298390538 0.00409999862
v 0.000424623489 -0.00283259153 0.00409999862
v 0.000699535012 -0.00264558941 0.00409999862
v 0.000945001841 -0.00242625177 0.00409999862
v 0.0011587888 -0.00217796117 0.00409999862
v 0.00133870542 -0.00190407783 0.00409999862
v 0.00148250163 -0.0016079694 0.00409999862
v 0.00158795714 -0.00129301101 0.00409999862
v 0.0016528666 -0.000962562859 0.00409999862
v 0.00167499483 -0.000620000064 0.00409999862
v 0.00165228546 -0.000255249441 0.00409999862
v 0.00158578157 9.21711326e-05 0.00409999862
v 0.00147797167 0.000419527292 0.00409999862
v 0.00133129954 0.000724069774 0.00409999862
v 0.00114823878 0.00100305676 0.00409999862
v 0.000931248069 0.00125374645 0.00409999862
v 0.000682801008 0.00147339702 0.00409999862
v 0.000405371189 0.0016592592 0.00409999862
v 0.000101402402 0.00180859119 0.00409999862
v -0.000226616859 0.00191865861 0.00409999862
v -0.000576242805 0.00198670477 0.00409999862
v -0.000945001841 0.00200999528 0.00409999862
v -0.00142686069 0.00197831541 0.00409999862
v -0.00185407698 0.00188819319 0.00409999862
v -0.0022290647 0.00174702704 0.00409999862
v -0.00255426764 0.00156222284 0.00409999862
v -0.0028320998 0.00134116411 0.00409999862
v -0.00306500494 0.00109124929 0.00409999862
v -0.00325541198 0.00081987679 0.00409999862
v -0.0034057498 0.000534445047 0.00409999862
v -0.00351843238 0.000242345035 0.00409999862
v -0.00359593332 -4.90322709e-05 0.00409999862
v -0.0036406368 -0.000332273543 0.00409999862
v -0.00365500152 -0.000600002706 0.00409999862
v -0.000155001879 -0.00400999933 0.00409999862
v -0.000155001879 -0.00400999933 0.00450000539
v 0.000134453177 -0.00413021445 0.00409999862
v 0.000134453177 -0.00413021445 0.00450000539
v 0.000404030085 -0.00423583388 0.00409999862
v 0.000404030085 -0.00423583388 0.00450000539
v 0.000655472279 -0.00432687998 0.00409999862
v 0.000655472279 -0.00432687998 0.00450000539
v 0.000890552998 -0.00440333784 0.00409999862
v 0.000890552998 -0.00440333784 0.00450000539
v 0.00111106038 -0.00446520746 0.00409999862
v 0.00111106038 -0.00446520746 0.00450000539
v 0.00131875277 -0.00451250374 0.00409999862
v 0.00131875277 -0.00451250374 0.00450000539
v 0.00151540339 -0.00454521179 0.00409999862
v 0.00151540339 -0.00454521179 0.00450000539
v 0.00170277059 -0.00456333905 0.00409999862
v 0.00170277059 -0.00456333905 0.00450000539
v 0.00188265741 -0.00456687808 0.00409999862
v 0.00188265741 -0.00456687808 0.00450000539
v 0.00205680728 -0.00455583632 0.00409999862
v 0.00205680728 -0.00455583632 0.00450000539
v 0.00222699344 -0.00453021377 0.00409999862
v 0.00222699344 -0.00453021377 0.00450000539
v 0.00239500403 -0.00449000299 0.00409999862
v 0.00239500403 -0.00449000299 0.00450000539
v 0.00242500007 -0.00451999903 0.00409999862
v 0.00242500007 -0.00451999903 0.00450000539
v 0.0015449971 -0.00539000332 0.00409999862
v 0.0015449971 -0.00539000332 0.00450000539
v 0.00121992826 -0.0053550154 0.00409999862
v 0.00121992826 -0.0053550154 0.00450000539
v 0.000904485583 -0.00530092418 0.00409999862
v 0.000904485583 -0.00530092418 0.00450000539
v 0.000598281622 -0.00522906333 0.00409999862
v 0.000598281622 -0.00522906333 0.00450000539
v 0.00030092895 -0.00514074415 0.00409999862
v 0.00030092895 -0.00514074415 0.00450000539
v 1.20401382e-05 -0.00503728539 0.00409999862
v 1.20401382e-05 -0.00503728539 0.00450000539
v -0.000268757343 -0.00491999835 0.00409999862
v -0.000268757343 -0.00491999835 0.00450000539
v -0.000541836023 -0.00479022413 0.00409999862
v -0.000541836023 -0.00479022413 0.00450000539
v -0.000807598233 -0.00464925915 0.00409999862
v -0.000807598233 -0.00464925915 0.00450000539
v -0.0010664016 -0.00449843705 0.00409999862
v -0.0010664016 -0.00449843705 0.00450000539
v -0.00131866336 -0.00433907658 0.00409999862
v -0.00131866336 -0.00433907658 0.00450000539
v -0.00156472623 -0.00417248905 0.00409999862
v -0.00156472623 -0.00417248905 0.00450000539
v -0.00180500746 -0.00400000066 0.00409999862
v -0.00180500746 -0.00400000066 0.00450000539
v -0.00221629441 -0.00389815122 0.00409999862
v -0.00221629441 -0.00389815122 0.00450000539
v -0.00260366499 -0.00375435501 0.00409999862
v -0.00260366499 -0.00375435501 0.00450000539
v -0.00296483934 -0.00357124954 0.00409999862
v -0.00296483934 -0.00357124954 0.00450000539
v -0.00329759717 -0.00335148722 0.00409999862
v -0.00329759717 -0.00335148722 0.00450000539
v -0.00359964371 -0.00309769064 0.00409999862
v -0.00359964371 -0.00309769064 0.00450000539
v -0.00386875868 -0.00281250477 0.00409999862
v -0.00386875868 -0.00281250477 0.00450000539
v -0.0041026473 -0.0024985671 0.00409999862
v -0.0041026473 -0.0024985671 0.00450000539
v -0.00429907441 -0.00215852261 0.00409999862
v -0.00429907441 -0.00215852261 0.00450000539
v -0.00445578992 -0.00179500133 0.00409999862
v -0.00445578992 -0.00179500133 0.00450000539
v -0.00457051396 -0.00141064823 0.00409999862
v -0.00457051396 -0.00141064823 0.00450000539
v -0.00464099646 -0.00100810081 0.00409999862
v -0.00464099646 -0.00100810081 0.00450000539
v -0.00466500223 -0.000590004027 0.00409999862
v -0.00466500223 -0.000590004027 0.00450000539
v -0.00463323295 -8.83936882e-05 0.00409999862
v -0.00463323295 -8.83936882e-05 0.00450000539
v -0.00453995168 0.000384531915 0.00409999862
v -0.00453995168 0.000384531915 0.00450000539
v -0.00438828766 0.000825934112 0.00409999862
v -0.00438828766 0.000825934112 0.00450000539
v -0.00418129563 0.00123295933 0.00409999862
v -0.00418129563 0.00123295933 0.00450000539
v -0.00392208993 0.00160276145 0.00409999862
v -0.00392208993 0.00160276145 0.00450000539
v -0.00361375511 0.00193250179 0.00409999862
v -0.00361375511 0.00193250179 0.00450000539
v -0.00325937569 0.00221931189 0.00409999862
v -0.00325937569 0.00221931189 0.00450000539
v -0.00286203623 0.00246036798 0.00409999862
v -0.00286203623 0.00246036798 0.00450000539
v -0.00242485106 0.00265280902 0.00409999862
v -0.00242485106 0.00265280902 0.00450000539
v -0.00195087492 0.00279379636 0.00409999862
v -0.00195087492 0.00279379636 0.00450000539
v -0.00144323707 0.00288047642 0.00409999862
v -0.00144323707 0.00288047642 0.00450000539
v -0.000905007124 0.00290999562 0.00409999862
v -0.000905007124 0.00290999562 0.00450000539
v -0.000405818224 0.00287893414 0.00409999862
v -0.000405818224 0.00287893414 0.00450000539
v 6.92605972e-05 0.00278814882 0.00409999862
v 6.92605972e-05 0.00278814882 0.00450000539
v 0.000516563654 0.00264124572 0.00409999862
v 0.000516563654 0.00264124572 0.00450000539
v 0.000932410359 0.00244185328 0.00409999862
v 0.000932410359 0.00244185328 0.00450000539
v 0.00131310523 0.00219356269 0.00409999862
v 0.00131310523 0.00219356269 0.00450000539
v 0.00165499747 0.00189999491 0.00409999862
v 0.00165499747 0.00189999491 0.00450000539
v 0.0019543916 0.00156476349 0.00409999862
v 0.0019543916 0.00156476349 0.00450000539
v 0.00220759213 0.00119148195 0.00409999862
v 0.00220759213 0.00119148195 0.00450000539
v 0.00241093338 0.000783748925 0.00409999862
v 0.00241093338 0.000783748925 0.00450000539
v 0.00256073475 0.000345185399 0.00409999862
v 0.00256073475 0.000345185399 0.00450000539
v 0.00265331566 -0.000120602548 0.00409999862
v 0.00265331566 -0.000120602548 0.00450000539
v 0.00268499553 -0.000610001385 0.00409999862
v 0.00268499553 -0.000610001385 0.00450000539
v 0.00266063213 -0.00101720542 0.00409999862
v 0.00266063213 -0.00101720542 0.00450000539
v 0.00258921087 -0.00141181052 0.00409999862
v 0.00258921087 -0.00141181052 0.00450000539
v 0.00247327983 -0.0017907843 0.00409999862
v 0.00247327983 -0.0017907843 0.00450000539
v 0.00231537223 -0.00215111673 0.00409999862
v 0.00231537223 -0.00215111673 0.00450000539
v 0.00211800635 -0.00248977542 0.00409999862
v 0.00211800635 -0.00248977542 0.00450000539
v 0.00188374519 -0.00280375034 0.00409999862
v 0.00188374519 -0.00280375034 0.00450000539
v 0.00161510706 -0.00309001654 0.00409999862
v 0.00161510706 -0.00309001654 0.00450000539
v 0.00131462514 -0.00334555656 0.00409999862
v 0.00131462514 -0.00334555656 0.00450000539
v 0.000984847546 -0.00356734544 0.00409999862
v 0.000984847546 -0.00356734544 0.00450000539
v 0.000628277659 -0.00375236571 0.00409999862
v 0.000628277659 -0.00375236571 0.00450000539
v 0.000247493386 -0.00389759243 0.00409999862
v 0.000247493386 -0.00389759243 0.00450000539
v -0.000155001879 -0.00400000066 0.00409999862
v -0.000155001879 -0.00400000066 0.00450000539
v -0.000155001879 -0.00399000198 0.00409999862
v -0.000155001879 -0.00399000198 0.00450000539
v -0.00363604724 -0.000940859318 0.00409999862
v -0.00363604724 -0.000940859318 0.00450000539
v -0.00357916951 -0.00127102435 0.00409999862
v -0.00357916951 -0.00127102435 0.00450000539
v -0.00348438323 -0.00158687681 0.00409999862
v -0.00348438323 -0.00158687681 0.00450000539
v -0.00335167348 -0.00188481808 0.00409999862
v -0.00335167348 -0.00188481808 0.00450000539
v -0.00318104029 -0.00216122717 0.00409999862
v -0.00318104029 -0.00216122717 0.00450000539
v -0.00297249854 -0.00241250545 0.00409999862
v -0.00297249854 -0.00241250545 0.00450000539
v -0.00272604823 -0.00263502449 0.00409999862
v -0.00272604823 -0.00263502449 0.00450000539
v -0.00244167447 -0.00282518566 0.00409999862
v -0.00244167447 -0.00282518566 0.00450000539
v -0.00211937726 -0.00297937542 0.00409999862
v -0.00211937726 -0.00297937542 0.00450000539
v -0.00175917149 -0.00309398025 0.00409999862
v -0.00175917149 -0.00309398025 0.00450000539
v -0.00136104226 -0.00316539407 0.00409999862
v -0.00136104226 -0.00316539407 0.00450000539
v -0.000925004482 -0.00319000334 0.00409999862
v -0.000925004482 -0.00319000334 0.00450000539
v -0.000554531813 -0.00316598266 0.00409999862
v -0.000554531813 -0.00316598266 0.00450000539
v -0.000204637647 -0.00309616327 0.00409999862
v -0.000204637647 -0.00309616327 0.00450000539
v 0.000122502446 -0.00298390538 0.00409999862
v 0.000122502446 -0.00298390538 0.00450000539
v 0.000424623489 -0.00283259153 0.00409999862
v 0.000424623489 -0.00283259153 0.00450000539
v 0.000699535012 -0.00264558941 0.00409999862
v 0.000699535012 -0.00264558941 0.00450000539
v 0.000945001841 -0.00242625177 0.00409999862
v 0.000945001841 -0.00242625177 0.00450000539
v 0.0011587888 -0.00217796117 0.00409999862
v 0.0011587888 -0.00217796117 0.00450000539
v 0.00133870542 -0.00190407783 0.00409999862
v 0.00133870542 -0.00190407783 0.00450000539
v 0.00148250163 -0.0016079694 0.00409999862
v 0.00148250163 -0.0016079694 0.00450000539
v 0.00158795714 -0.00129301101 0.00409999862
v 0.00158795714 -0.00129301101 0.00450000539
v 0.0016528666 -0.000962562859 0.00409999862
v 0.0016528666 -0.000962562859 0.00450000539
v 0.00167499483 -0.000620000064 0.00409999862
v 0.00167499483 -0.000620000064 0.00450000539
v 0.00165228546 -0.000255249441 0.00409999862
v 0.00165228546 -0.000255249441 0.00450000539
v 0.00158578157 9.21711326e-05 0.00409999862
v 0.00158578157 9.21711326e-05 0.00450000539
v 0.00147797167 0.000419527292 0.00409999862
v 0.00147797167 0.000419527292 0.00450000539
v 0.00133129954 0.000724069774 0.00409999862
v 0.00133129954 0.000724069774 0.00450000539
v 0.00114823878 0.00100305676 0.00409999862
v 0.00114823878 0.00100305676 0.00450000539
v 0.000931248069 0.00125374645 0.00409999862
v 0.000931248069 0.00125374645 0.00450000539
v 0.000682801008 0.00147339702 0.00409999862
v 0.000682801008 0.00147339702 0.00450000539
v 0.000405371189 0.0016592592 0.00409999862
v 0.000405371189 0.0016592592 0.00450000539
v 0.000101402402 0.00180859119 0.00409999862
v 0.000101402402 0.00180859119 0.00450000539
v -0.000226616859 0.00191865861 0.00409999862
v -0.000226616859 0.00191865861 0.00450000539
v -0.000576242805 0.00198670477 0.00409999862
v -0.000576242805 0.00198670477 0.00450000539
v -0.000945001841 0.00200999528 0.00409999862
v -0.000945001841 0.00200999528 0.00450000539
v -0.00142686069 0.00197831541 0.00409999862
v -0.00142686069 0.00197831541 0.00450000539
v -0.00185407698 0.00188819319 0.00409999862
v -0.00185407698 0.00188819319 0.00450000539
v -0.0022290647 0.00174702704 0.00409999862
v -0.0022290647 0.00174702704 0.00450000539
v -0.00255426764 0.00156222284 0.00409999862
v -0.00255426764 0.00156222284 0.00450000539
v -0.0028320998 0.00134116411 0.00409999862
v -0.0028320998 0.00134116411 0.00450000539
v -0.00306500494 0.00109124929 0.00409999862
v -0.00306500494 0.00109124929 0.00450000539
v -0.00325541198 0.00081987679 0.00409999862
v -0.00325541198 0.00081987679 0.00450000539
v -0.0034057498 0.000534445047 0.00409999862
v -0.0034057498 0.000534445047 0.00450000539
v -0.00351843238 0.000242345035 0.00409999862
v -0.00351843238 0.000242345035 0.00450000539
v -0.00359593332 -4.90322709e-05 0.00409999862
v -0.00359593332 -4.90322709e-05 0.00450000539
v -0.0036406368 -0.000332273543 0.00409999862
v -0.0036406368 -0.000332273543 0.00450000539
v -0.00365500152 -0.000600002706 0.00409999862
v -0.00365500152 -0.000600002706 0.00450000539
usemtl screen_white_text_003
f 202 204 203
f 201 204 202
f 201 205 204
f 200 205 201
f 200 206 205
f 199 206 200
f 199 207 206
f 198 207 199
f 198 208 207
f 197 208 198
f 197 264 208
f 264 209 208
f 197 265 264
f 263 209 264
f 262 209 263
f 197 266 265
f 196 266 197
f 261 209 262
f 261 210 209
f 196 267 266
f 260 210 261
f 196 268 267
f 259 210 260
f 195 268 196
f 259 211 210
f 195 269 268
f 258 211 259
f 195 270 269
f 257 211 258
f 194 270 195
f 257 212 211
f 194 271 270
f 256 212 257
f 193 271 194
f 193 272 271
f 256 213 212
f 255 213 256
f 193 273 272
f 254 213 255
f 192 273 193
f 254 214 213
f 192 274 273
f 253 214 254
f 192 275 274
f 191 275 192
f 253 215 214
f 252 215 253
f 191 276 275
f 190 276 191
f 190 229 276
f 252 216 215
f 251 216 252
f 190 230 229
f 250 216 251
f 189 230 190
f 250 217 216
f 189 231 230
f 249 217 250
f 188 231 189
f 249 218 217
f 188 232 231
f 248 218 249
f 248 219 218
f 187 232 188
f 187 233 232
f 247 219 248
f 247 220 219
f 186 233 187
f 186 234 233
f 246 220 247
f 186 235 234
f 245 220 246
f 245 221 220
f 185 235 186
f 185 236 235
f 244 221 245
f 244 222 221
f 184 236 185
f 184 237 236
f 243 222 244
f 184 238 237
f 242 222 243
f 242 223 222
f 184 239 238
f 241 223 242
f 183 239 184
f 183 240 239
f 240 223 241
f 183 223 240
f 183 224 223
f 182 224 183
f 182 225 224
f 181 225 182
f 181 226 225
f 180 226 181
f 180 228 226
f 228 227 226
f 179 228 180
f 179 153 228
f 178 153 179
f 178 154 153
f 178 155 154
f 177 155 178
f 177 156 155
f 177 157 156
f 176 157 177
f 176 158 157
f 176 159 158
f 164 166 165
f 175 159 176
f 175 160 159
f 164 167 166
f 163 167 164
f 175 161 160
f 162 167 163
f 175 162 161
f 175 167 162
f 174 167 175
f 173 167 174
f 172 167 173
f 171 167 172
f 170 167 171
f 169 167 170
f 168 167 169
f 326 327 328
f 325 326 328
f 325 328 329
f 324 325 329
f 324 329 330
f 323 324 330
f 323 330 331
f 322 323 331
f 322 331 332
f 321 322 332
f 321 332 388
f 388 332 333
f 321 388 389
f 387 388 333
f 386 387 333
f 321 389 390
f 320 321 390
f 385 386 333
f 385 333 334
f 320 390 391
f 384 385 334
f 320 391 392
f 383 384 334
f 319 320 392
f 383 334 335
f 319 392 393
f 382 383 335
f 319 393 394
f 381 382 335
f 318 319 394
f 381 335 336
f 318 394 395
f 380 381 336
f 317 318 395
f 317 395 396
f 380 336 337
f 379 380 337
f 317 396 397
f 378 379 337
f 316 317 397
f 378 337 338
f 316 397 398
f 377 378 338
f 316 398 399
f 315 316 399
f 377 338 339
f 376 377 339
f 315 399 400
f 314 315 400
f 314 400 353
f 376 339 340
f 375 376 340
f 314 353 354
f 374 375 340
f 313 314 354
f 374 340 341
f 313 354 355
f 373 374 341
f 312 313 355
f 373 341 342
f 312 355 356
f 372 373 342
f 372 342 343
f 311 312 356
f 311 356 357
f 371 372 343
f 371 343 344
f 310 311 357
f 310 357 358
f 370 371 344
f 310 358 359
f 369 370 344
f 369 344 345
f 309 310 359
f 309 359 360
f 368 369 345
f 368 345 346
f 308 309 360
f 308 360 361
f 367 368 346
f 308 361 362
f 366 367 346
f 366 346 347
f 308 362 363
f 365 366 347
f 307 308 363
f 307 363 364
f 364 365 347
f 307 364 347
f 307 347 348
f 306 307 348
f 306 348 349
f 305 306 349
f 305 349 350
f 304 305 350
f 304 350 352
f 352 350 351
f 303 304 352
f 303 352 277
f 302 303 277
f 302 277 278
f 302 278 279
f 301 302 279
f 301 279 280
f 301 280 281
f 300 301 281
f 300 281 282
f 300 282 283
f 288 289 290
f 299 300 283
f 299 283 284
f 288 290 291
f 287 288 291
f 299 284 285
f 286 287 291
f 299 285 286
f 299 286 291
f 298 299 291
f 297 298 291
f 296 297 291
f 295 296 291
f 294 295 291
f 293 294 291
f 292 293 291
f 402 404 403 401
f 404 406 405 403
f 406 408 407 405
f 408 410 409 407
f 410 412 411 409
f 412 414 413 411
f 414 416 415 413
f 416 418 417 415
f 418 420 419 417
f 420 422 421 419
f 422 424 423 421
f 424 426 425 423
f 426 428 427 425
f 428 430 429 427
f 430 432 431 429
f 432 434 433 431
f 434 436 435 433
f 436 438 437 435
f 438 440 439 437
f 440 442 441 439
f 442 444 443 441
f 444 446 445 443
f 446 448 447 445
f 448 450 449 447
f 450 452 451 449
f 452 454 453 451
f 454 456 455 453
f 456 458 457 455
f 458 460 459 457
f 460 462 461 459
f 462 464 463 461
f 464 466 465 463
f 466 468 467 465
f 468 470 469 467
f 470 472 471 469
f 472 474 473 471
f 474 476 475 473
f 476 478 477 475
f 478 480 479 477
f 480 482 481 479
f 482 484 483 481
f 484 486 485 483
f 486 488 487 485
f 488 490 489 487
f 490 492 491 489
f 492 494 493 491
f 494 496 495 493
f 496 498 497 495
f 498 500 499 497
f 500 502 501 499
f 502 504 503 501
f 504 506 505 503
f 506 508 507 505
f 508 510 509 507
f 510 512 511 509
f 512 514 513 511
f 514 516 515 513
f 516 518 517 515
f 518 520 519 517
f 520 522 521 519
f 522 524 523 521
f 524 526 525 523
f 526 528 527 525
f 528 530 529 527
f 530 532 531 529
f 532 534 533 531
f 534 536 535 533
f 536 538 537 535
f 538 540 539 537
f 540 542 541 539
f 542 544 543 541
f 544 546 545 543
f 546 548 547 545
f 548 550 549 547
f 550 552 551 549
f 552 402 401 551
f 554 556 555 553
f 556 558 557 555
f 558 560 559 557
f 560 562 561 559
f 562 564 563 561
f 564 566 565 563
f 566 568 567 565
f 568 570 569 567
f 570 572 571 569
f 572 574 573 571
f 574 576 575 573
f 576 578 577 575
f 578 580 579 577
f 580 582 581 579
f 582 584 583 581
f 584 586 585 583
f 586 588 587 585
f 588 590 589 587
f 590 592 591 589
f 592 594 593 591
f 594 596 595 593
f 596 598 597 595
f 598 600 599 597
f 600 602 601 599
f 602 604 603 601
f 604 606 605 603
f 606 608 607 605
f 608 610 609 607
f 610 612 611 609
f 612 614 613 611
f 614 616 615 613
f 616 618 617 615
f 618 620 619 617
f 620 622 621 619
f 622 624 623 621
f 624 626 625 623
f 626 628 627 625
f 628 630 629 627
f 630 632 631 629
f 632 634 633 631
f 634 636 635 633
f 636 638 637 635
f 638 640 639 637
f 640 642 641 639
f 642 644 643 641
f 644 646 645 643
f 646 648 647 645
f 648 554 553 647
