mtllib keyboard_key_1_5_5_link.mtl
o keyboard_key_1_5_5_link

g keyboard_key_1_5_5_SOLID
v -0.0179999992 -0.0154999942 0
v -0.0179999992 -0.0119999945 -0.00349999964
v -0.0214999989 -0.0119999945 0
v -0.0179999992 -0.0152335763 -0.0013393946
v -0.0179999992 -0.0144748688 -0.00247487426
v -0.0193393975 -0.0152335763 0
v -0.0193729624 -0.014912039 -0.00137295946
v -0.0193032995 -0.0142968893 -0.00229689106
v -0.0200207308 -0.0140207261 -0.00202072784
v -0.0193393975 -0.0119999945 -0.00323357806
v -0.0204748735 -0.0119999945 -0.00247487426
v -0.0179999992 -0.0133393854 -0.00323357806
v -0.0193729624 -0.0133729577 -0.0029120408
v -0.020296894 -0.0133032948 -0.00229689106
v -0.021233581 -0.0133393854 0
v -0.0204748735 -0.0144748688 0
v -0.021233581 -0.0119999945 -0.00133939087
v -0.0209120438 -0.0133729577 -0.00137295946
v -0.020296894 -0.0142968893 -0.00130329654
v 0.0179999992 -0.0154999942 0
v 0.0214999989 -0.0119999945 0
v 0.0179999992 -0.0119999945 -0.00349999964
v 0.0193393975 -0.0152335763 0
v 0.0204748772 -0.0144748688 0
v 0.018000003 -0.0152335763 -0.00133939087
v 0.0193729624 -0.014912039 -0.00137295946
v 0.020296894 -0.0142968893 -0.00130329654
v 0.0200207308 -0.0140207261 -0.00202072784
v 0.021233581 -0.0119999945 -0.0013393946
v 0.0204748772 -0.0119999945 -0.00247487426
v 0.021233581 -0.0133393854 0
v 0.0209120438 -0.0133729577 -0.00137295946
v 0.020296894 -0.0133032948 -0.00229689106
v 0.018000003 -0.0133393854 -0.00323357806
v 0.018000003 -0.0144748688 -0.00247487426
v 0.0193393975 -0.0119999945 -0.00323357806
v 0.0193729624 -0.0133729577 -0.0029120408
v 0.0193032995 -0.0142968893 -0.00229689106
v 0.0179999992 0.0154999942 0
v 0.0179999992 0.0119999945 -0.00349999964
v 0.0214999989 0.0119999945 0
v 0.018000003 0.0152335763 -0.0013393946
v 0.018000003 0.0144748688 -0.00247487426
v 0.0193393975 0.0152335763 0
v 0.0193729624 0.014912039 -0.00137295946
v 0.0193032995 0.0142968893 -0.00229689106
v 0.0200207308 0.0140207261 -0.00202072784
v 0.0193393975 0.0119999945 -0.00323357806
v 0.0204748772 0.0119999945 -0.00247487426
v 0.018000003 0.0133393854 -0.00323357806
v 0.0193729624 0.0133729577 -0.0029120408
v 0.020296894 0.0133032948 -0.00229689106
v 0.021233581 0.0133393854 0
v 0.0204748772 0.0144748688 0
v 0.021233581 0.0119999945 -0.00133939087
v 0.0209120438 0.0133729577 -0.00137295946
v 0.020296894 0.0142968893 -0.00130329654
v -0.0179999992 0.0154999942 0
v -0.0214999989 0.0119999945 0
v -0.0179999992 0.0119999945 -0.00349999964
v -0.0193393975 0.0152335763 0
v -0.0204748735 0.0144748688 0
v -0.0179999992 0.0152335763 -0.00133939087
v -0.0193729624 0.014912039 -0.00137295946
v -0.020296894 0.0142968893 -0.00130329654
v -0.0200207308 0.0140207261 -0.00202072784
v -0.021233581 0.0119999945 -0.0013393946
v -0.0204748735 0.0119999945 -0.00247487426
v -0.021233581 0.0133393854 0
v -0.0209120438 0.0133729577 -0.00137295946
v -0.020296894 0.0133032948 -0.00229689106
v -0.0179999992 0.0133393854 -0.00323357806
v -0.0179999992 0.0144748688 -0.00247487426
v -0.0193393975 0.0119999945 -0.00323357806
v -0.0193729624 0.0133729577 -0.0029120408
v -0.0193032995 0.0142968893 -0.00229689106
v -0.0214999989 -0.0119999945 0
v -0.0179999992 -0.0119999945 0.00350000337
v -0.0179999992 -0.0154999942 0
v -0.021233581 -0.0119999945 0.0013393946
v -0.0204748735 -0.0119999945 0.00247487426
v -0.021233581 -0.0133393854 0
v -0.0209120438 -0.0133729577 0.00137295946
v -0.020296894 -0.0133032948 0.00229689106
v -0.0200207308 -0.0140207261 0.00202072784
v -0.0179999992 -0.0133393854 0.00323357806
v -0.0179999992 -0.0144748688 0.00247487426
v -0.0193393975 -0.0119999945 0.00323357806
v -0.0193729624 -0.0133729577 0.0029120408
v -0.0193032995 -0.0142968893 0.00229689106
v -0.0193393975 -0.0152335763 0
v -0.0204748735 -0.0144748688 0
v -0.0179999992 -0.0152335763 0.00133939087
v -0.0193729624 -0.014912039 0.00137295946
v -0.020296894 -0.0142968893 0.00130329654
v 0.0179999992 -0.0154999942 0
v 0.0179999992 -0.0119999945 0.00350000337
v 0.0214999989 -0.0119999945 0
v 0.018000003 -0.0152335763 0.0013393946
v 0.018000003 -0.0144748688 0.00247487426
v 0.0193393975 -0.0152335763 0
v 0.0193729624 -0.014912039 0.00137295946
v 0.0193032995 -0.0142968893 0.00229689106
v 0.0200207308 -0.0140207261 0.00202072784
v 0.0193393975 -0.0119999945 0.00323357806
v 0.0204748772 -0.0119999945 0.00247487426
v 0.018000003 -0.0133393854 0.00323357806
v 0.0193729624 -0.0133729577 0.0029120408
v 0.020296894 -0.0133032948 0.00229689106
v 0.021233581 -0.0133393854 0
v 0.0204748772 -0.0144748688 0
v 0.021233581 -0.0119999945 0.00133939087
v 0.0209120438 -0.0133729577 0.00137295946
v 0.020296894 -0.0142968893 0.00130329654
v 0.0179999992 0.0119999945 0.00350000337
v 0.0179999992 0.0154999942 0
v 0.0214999989 0.0119999945 0
v 0.018000003 0.0133393854 0.00323357806
v 0.018000003 0.0144748688 0.00247487426
v 0.0193393975 0.0119999945 0.00323357806
v 0.0193729624 0.0133729577 0.0029120408
v 0.0193032995 0.0142968893 0.00229689106
v 0.0200207308 0.0140207261 0.00202072784
v 0.0193393975 0.0152335763 0
v 0.0204748772 0.0144748688 0
v 0.018000003 0.0152335763 0.00133939087
v 0.0193729624 0.014912039 0.00137295946
v 0.020296894 0.0142968893 0.00130329654
v 0.021233581 0.0119999945 0.0013393946
v 0.0204748772 0.0119999945 0.00247487426
v 0.021233581 0.0133393854 0
v 0.0209120438 0.0133729577 0.00137295946
v 0.020296894 0.0133032948 0.00229689106
v -0.0214999989 0.0119999945 0
v -0.0179999992 0.0154999942 0
v -0.0179999992 0.0119999945 0.00350000337
v -0.021233581 0.0133393854 0
v -0.0204748735 0.0144748688 0
v -0.021233581 0.0119999945 0.00133939087
v -0.0209120438 0.0133729577 0.00137295946
v -0.020296894 0.0142968893 0.00130329654
v -0.0200207308 0.0140207261 0.00202072784
v -0.0179999992 0.0152335763 0.0013393946
v -0.0179999992 0.0144748688 0.00247487426
v -0.0193393975 0.0152335763 0
v -0.0193729624 0.014912039 0.00137295946
v -0.0193032995 0.0142968893 0.00229689106
v -0.0193393975 0.0119999945 0.00323357806
v -0.0204748735 0.0119999945 0.00247487426
v -0.0179999992 0.0133393854 0.00323357806
v -0.0193729624 0.0133729577 0.0029120408
v -0.020296894 0.0133032948 0.00229689106
usemtl matte_black_keycaps_003
f 59 134 77 3
f 2 22 40 60
f 39 116 135 58
f 78 136 115 97
f 21 98 117 41
f 1 4 7 6
f 4 5 8 7
f 6 7 19 16
f 7 8 9 19
f 2 10 13 12
f 10 11 14 13
f 12 13 8 5
f 13 14 9 8
f 3 15 18 17
f 15 16 19 18
f 17 18 14 11
f 18 19 9 14
f 20 23 26 25
f 23 24 27 26
f 25 26 38 35
f 26 27 28 38
f 21 29 32 31
f 29 30 33 32
f 31 32 27 24
f 32 33 28 27
f 22 34 37 36
f 34 35 38 37
f 36 37 33 30
f 37 38 28 33
f 39 42 45 44
f 42 43 46 45
f 44 45 57 54
f 45 46 47 57
f 40 48 51 50
f 48 49 52 51
f 50 51 46 43
f 51 52 47 46
f 41 53 56 55
f 53 54 57 56
f 55 56 52 49
f 56 57 47 52
f 58 61 64 63
f 61 62 65 64
f 63 64 76 73
f 64 65 66 76
f 59 67 70 69
f 67 68 71 70
f 69 70 65 62
f 70 71 66 65
f 60 72 75 74
f 72 73 76 75
f 74 75 71 68
f 75 76 66 71
f 77 80 83 82
f 80 81 84 83
f 82 83 95 92
f 83 84 85 95
f 78 86 89 88
f 86 87 90 89
f 88 89 84 81
f 89 90 85 84
f 79 91 94 93
f 91 92 95 94
f 93 94 90 87
f 94 95 85 90
f 96 99 102 101
f 99 100 103 102
f 101 102 114 111
f 102 103 104 114
f 97 105 108 107
f 105 106 109 108
f 107 108 103 100
f 108 109 104 103
f 98 110 113 112
f 110 111 114 113
f 112 113 109 106
f 113 114 104 109
f 115 118 121 120
f 118 119 122 121
f 120 121 133 130
f 121 122 123 133
f 116 124 127 126
f 124 125 128 127
f 126 127 122 119
f 127 128 123 122
f 117 129 132 131
f 129 130 133 132
f 131 132 128 125
f 132 133 123 128
f 134 137 140 139
f 137 138 141 140
f 139 140 152 149
f 140 141 142 152
f 135 143 146 145
f 143 144 147 146
f 145 146 141 138
f 146 147 142 141
f 136 148 151 150
f 148 149 152 151
f 150 151 147 144
f 151 152 142 147
f 39 58 63 42
f 42 63 73 43
f 43 73 72 50
f 50 72 60 40
f 1 20 25 4
f 4 25 35 5
f 5 35 34 12
f 12 34 22 2
f 21 41 55 29
f 29 55 49 30
f 30 49 48 36
f 36 48 40 22
f 2 60 74 10
f 10 74 68 11
f 11 68 67 17
f 17 67 59 3
f 3 77 82 15
f 15 82 92 16
f 16 92 91 6
f 6 91 79 1
f 78 97 107 86
f 86 107 100 87
f 87 100 99 93
f 93 99 96 79
f 97 115 120 105
f 105 120 130 106
f 106 130 129 112
f 112 129 117 98
f 77 134 139 80
f 80 139 149 81
f 81 149 148 88
f 88 148 136 78
f 20 96 101 23
f 23 101 111 24
f 24 111 110 31
f 31 110 98 21
f 41 117 131 53
f 53 131 125 54
f 54 125 124 44
f 44 124 116 39
f 115 136 150 118
f 118 150 144 119
f 119 144 143 126
f 126 143 135 116
f 58 135 145 61
f 61 145 138 62
f 62 138 137 69
f 69 137 134 59
f 1 79 96 20

g key_legend_1_5_5
v -0.00160000473 0.00193999708 0.00450000539
v -0.00160000473 0.000229999423 0.00450000539
v -0.00122769922 0.00023086369 0.00450000539
v -0.000881575048 0.000190228224 0.00450000539
v -0.000562816858 0.000110775232 0.00450000539
v -0.000272594392 -4.81307507e-06 0.00450000539
v -1.20997429e-05 -0.000153884292 0.00450000539
v 0.000217497349 -0.000333756208 0.00450000539
v 0.00041501224 -0.000541746616 0.00450000539
v 0.00057926029 -0.000775188208 0.00450000539
v 0.000709064305 -0.00103141367 0.00450000539
v 0.000803239644 -0.00130774081 0.00450000539
v 0.000860609114 -0.0016014874 0.00450000539
v 0.000879995525 -0.00191000104 0.00450000539
v 0.000860758126 -0.00221759081 0.00450000539
v 0.000804394484 -0.00250898302 0.00450000539
v 0.000712968409 -0.00278219581 0.00450000539
v 0.000588513911 -0.00303518772 0.00450000539
v 0.0004330948 -0.003265962 0.00450000539
v 0.000248745084 -0.003472507 0.00450000539
v 3.75285745e-05 -0.00365279615 0.00450000539
v -0.00019852072 -0.0038048178 0.00450000539
v -0.000457346439 -0.00392656028 0.00450000539
v -0.000736899674 -0.00401602685 0.00450000539
v -0.00103513151 -0.00407117605 0.00450000539
v -0.0013500005 -0.00408999622 0.00450000539
v -0.00149513781 -0.00408746302 0.00450000539
v -0.00163611025 -0.00407972932 0.00450000539
v -0.00177375227 -0.00406655669 0.00450000539
v -0.0019088909 -0.00404778123 0.00450000539
v -0.0020423606 -0.00402316451 0.00450000539
v -0.00217500329 -0.00399249792 0.00450000539
v -0.00230763853 -0.00395558774 0.00450000539
v -0.00244111568 -0.00391222537 0.00450000539
v -0.00257625431 -0.00386218727 0.00450000539
v -0.00271388888 -0.00380527973 0.00450000539
v -0.00285486132 -0.00374129415 0.00450000539
v -0.00299999863 -0.00367000699 0.00450000539
v -0.00299999863 -0.00266000628 0.00450000539
v -0.00287730247 -0.00273916125 0.00450000539
v -0.00275421888 -0.0028116256 0.00450000539
v -0.00263078511 -0.00287733972 0.00450000539
v -0.00250703841 -0.00293630362 0.00450000539
v -0.00238301605 -0.00298844278 0.00450000539
v -0.00225875527 -0.00303375721 0.00450000539
v -0.00213427842 -0.0030721873 0.00450000539
v -0.0020096302 -0.00310370326 0.00450000539
v -0.00188484788 -0.00312829018 0.00450000539
v -0.0017599538 -0.00314588845 0.00450000539
v -0.00163499266 -0.00315646827 0.00450000539
v -0.00151000172 -0.00315999985 0.00450000539
v -0.00132050365 -0.00314860046 0.00450000539
v -0.0011381954 -0.00311541557 0.00450000539
v -0.000964842737 -0.00306203961 0.00450000539
v -0.000802226365 -0.0029900074 0.00450000539
v -0.000652104616 -0.00290088356 0.00450000539
v -0.00051625073 -0.0027962476 0.00450000539
v -0.000396445394 -0.00267766416 0.00450000539
v -0.000294446945 -0.00254666805 0.00450000539
v -0.000212036073 -0.0024048388 0.00450000539
v -0.000150971115 -0.00225375593 0.00450000539
v -0.000113040209 -0.00209495425 0.00450000539
v -0.000100001693 -0.0019299984 0.00450000539
v -0.000118382275 -0.00171676278 0.00450000539
v -0.000172875822 -0.00151403248 0.00450000539
v -0.000262498856 -0.00132484734 0.00450000539
v -0.000386297703 -0.00115221739 0.00450000539
v -0.000543288887 -0.000999182463 0.00450000539
v -0.000732503831 -0.000868752599 0.00450000539
v -0.000952966511 -0.000763937831 0.00450000539
v -0.00120370835 -0.000687777996 0.00450000539
v -0.00148375332 -0.000643283129 0.00450000539
v -0.00179213285 -0.000633478165 0.00450000539
v -0.00212787092 -0.000661373138 0.00450000539
v -0.00248999894 -0.000730007887 0.00450000539
v -0.00248999894 0.00282000005 0.00450000539
v 0.00053999573 0.00282000005 0.00450000539
v 0.00053999573 0.00193999708 0.00450000539
v -0.00160000473 0.00193999708 0.00409999862
v -0.00160000473 0.000229999423 0.00409999862
v -0.00122769922 0.00023086369 0.00409999862
v -0.000881575048 0.000190228224 0.00409999862
v -0.000562816858 0.000110775232 0.00409999862
v -0.000272594392 -4.81307507e-06 0.00409999862
v -1.20997429e-05 -0.000153884292 0.00409999862
v 0.000217497349 -0.000333756208 0.00409999862
v 0.00041501224 -0.000541746616 0.00409999862
v 0.00057926029 -0.000775188208 0.00409999862
v 0.000709064305 -0.00103141367 0.00409999862
v 0.000803239644 -0.00130774081 0.00409999862
v 0.000860609114 -0.0016014874 0.00409999862
v 0.000879995525 -0.00191000104 0.00409999862
v 0.000860758126 -0.00221759081 0.00409999862
v 0.000804394484 -0.00250898302 0.00409999862
v 0.000712968409 -0.00278219581 0.00409999862
v 0.000588513911 -0.00303518772 0.00409999862
v 0.0004330948 -0.003265962 0.00409999862
v 0.000248745084 -0.003472507 0.00409999862
v 3.75285745e-05 -0.00365279615 0.00409999862
v -0.00019852072 -0.0038048178 0.00409999862
v -0.000457346439 -0.00392656028 0.00409999862
v -0.000736899674 -0.00401602685 0.00409999862
v -0.00103513151 -0.00407117605 0.00409999862
v -0.0013500005 -0.00408999622 0.00409999862
v -0.00149513781 -0.00408746302 0.00409999862
v -0.00163611025 -0.00407972932 0.00409999862
v -0.00177375227 -0.00406655669 0.00409999862
v -0.0019088909 -0.00404778123 0.00409999862
v -0.0020423606 -0.00402316451 0.00409999862
v -0.00217500329 -0.00399249792 0.00409999862
v -0.00230763853 -0.00395558774 0.00409999862
v -0.00244111568 -0.00391222537 0.00409999862
v -0.00257625431 -0.00386218727 0.00409999862
v -0.00271388888 -0.00380527973 0.00409999862
v -0.00285486132 -0.00374129415 0.00409999862
v -0.00299999863 -0.00367000699 0.00409999862
v -0.00299999863 -0.00266000628 0.00409999862
v -0.00287730247 -0.00273916125 0.00409999862
v -0.00275421888 -0.0028116256 0.00409999862
v -0.00263078511 -0.00287733972 0.00409999862
v -0.00250703841 -0.00293630362 0.00409999862
v -0.00238301605 -0.00298844278 0.00409999862
v -0.00225875527 -0.00303375721 0.00409999862
v -0.00213427842 -0.0030721873 0.00409999862
v -0.0020096302 -0.00310370326 0.00409999862
v -0.00188484788 -0.00312829018 0.00409999862
v -0.0017599538 -0.00314588845 0.00409999862
v -0.00163499266 -0.00315646827 0.00409999862
v -0.00151000172 -0.00315999985 0.00409999862
v -0.00132050365 -0.00314860046 0.00409999862
v -0.0011381954 -0.00311541557 0.00409999862
v -0.000964842737 -0.00306203961 0.00409999862
v -0.000802226365 -0.0029900074 0.00409999862
v -0.000652104616 -0.00290088356 0.00409999862
v -0.00051625073 -0.0027962476 0.00409999862
v -0.000396445394 -0.00267766416 0.00409999862
v -0.000294446945 -0.00254666805 0.00409999862
v -0.000212036073 -0.0024048388 0.00409999862
v -0.000150971115 -0.00225375593 0.00409999862
v -0.000113040209 -0.00209495425 0.00409999862
v -0.000100001693 -0.0019299984 0.00409999862
v -0.000118382275 -0.00171676278 0.00409999862
v -0.000172875822 -0.00151403248 0.00409999862
v -0.000262498856 -0.00132484734 0.00409999862
v -0.000386297703 -0.00115221739 0.00409999862
v -0.000543288887 -0.000999182463 0.00409999862
v -0.000732503831 -0.000868752599 0.00409999862
v -0.000952966511 -0.000763937831 0.00409999862
v -0.00120370835 -0.000687777996 0.00409999862
v -0.00148375332 -0.000643283129 0.00409999862
v -0.00179213285 -0.000633478165 0.00409999862
v -0.00212787092 -0.000661373138 0.00409999862
v -0.00248999894 -0.000730007887 0.00409999862
v -0.00248999894 0.00282000005 0.00409999862
v 0.00053999573 0.00282000005 0.00409999862
v 0.00053999573 0.00193999708 0.00409999862
v -0.00160000473 0.00193999708 0.00409999862
v -0.00160000473 0.00193999708 0.00450000539
v -0.00160000473 0.000229999423 0.00409999862
v -0.00160000473 0.000229999423 0.00450000539
v -0.00122769922 0.00023086369 0.00409999862
v -0.00122769922 0.00023086369 0.00450000539
v -0.000881575048 0.000190228224 0.00409999862
v -0.000881575048 0.000190228224 0.00450000539
v -0.000562816858 0.000110775232 0.00409999862
v -0.000562816858 0.000110775232 0.00450000539
v -0.000272594392 -4.81307507e-06 0.00409999862
v -0.000272594392 -4.81307507e-06 0.00450000539
v -1.20997429e-05 -0.000153884292 0.00409999862
v -1.20997429e-05 -0.000153884292 0.00450000539
v 0.000217497349 -0.000333756208 0.00409999862
v 0.000217497349 -0.000333756208 0.00450000539
v 0.00041501224 -0.000541746616 0.00409999862
v 0.00041501224 -0.000541746616 0.00450000539
v 0.00057926029 -0.000775188208 0.00409999862
v 0.00057926029 -0.000775188208 0.00450000539
v 0.000709064305 -0.00103141367 0.00409999862
v 0.000709064305 -0.00103141367 0.00450000539
v 0.000803239644 -0.00130774081 0.00409999862
v 0.000803239644 -0.00130774081 0.00450000539
v 0.000860609114 -0.0016014874 0.00409999862
v 0.000860609114 -0.0016014874 0.00450000539
v 0.000879995525 -0.00191000104 0.00409999862
v 0.000879995525 -0.00191000104 0.00450000539
v 0.000860758126 -0.00221759081 0.00409999862
v 0.000860758126 -0.00221759081 0.00450000539
v 0.000804394484 -0.00250898302 0.00409999862
v 0.000804394484 -0.00250898302 0.00450000539
v 0.000712968409 -0.00278219581 0.00409999862
v 0.000712968409 -0.00278219581 0.00450000539
v 0.000588513911 -0.00303518772 0.00409999862
v 0.000588513911 -0.00303518772 0.00450000539
v 0.0004330948 -0.003265962 0.00409999862
v 0.0004330948 -0.003265962 0.00450000539
v 0.000248745084 -0.003472507 0.00409999862
v 0.000248745084 -0.003472507 0.00450000539
v 3.75285745e-05 -0.00365279615 0.00409999862
v 3.75285745e-05 -0.00365279615 0.00450000539
v -0.00019852072 -0.0038048178 0.00409999862
v -0.00019852072 -0.0038048178 0.00450000539
v -0.000457346439 -0.00392656028 0.00409999862
v -0.000457346439 -0.00392656028 0.00450000539
v -0.000736899674 -0.00401602685 0.00409999862
v -0.000736899674 -0.00401602685 0.00450000539
v -0.00103513151 -0.00407117605 0.00409999862
v -0.00103513151 -0.00407117605 0.00450000539
v -0.0013500005 -0.00408999622 0.00409999862
v -0.0013500005 -0.00408999622 0.00450000539
v -0.00149513781 -0.00408746302 0.00409999862
v -0.00149513781 -0.00408746302 0.00450000539
v -0.00163611025 -0.00407972932 0.00409999862
v -0.00163611025 -0.00407972932 0.00450000539
v -0.00177375227 -0.00406655669 0.00409999862
v -0.00177375227 -0.00406655669 0.00450000539
v -0.0019088909 -0.00404778123 0.00409999862
v -0.0019088909 -0.00404778123 0.00450000539
v -0.0020423606 -0.00402316451 0.00409999862
v -0.0020423606 -0.00402316451 0.00450000539
v -0.00217500329 -0.00399249792 0.00409999862
v -0.00217500329 -0.00399249792 0.00450000539
v -0.00230763853 -0.00395558774 0.00409999862
v -0.00230763853 -0.00395558774 0.00450000539
v -0.00244111568 -0.00391222537 0.00409999862
v -0.00244111568 -0.00391222537 0.00450000539
v -0.00257625431 -0.00386218727 0.00409999862
v -0.00257625431 -0.00386218727 0.00450000539
v -0.00271388888 -0.00380527973 0.00409999862
v -0.00271388888 -0.00380527973 0.00450000539
v -0.00285486132 -0.00374129415 0.00409999862
v -0.00285486132 -0.00374129415 0.00450000539
v -0.00299999863 -0.00367000699 0.00409999862
v -0.00299999863 -0.00367000699 0.00450000539
v -0.00299999863 -0.00266000628 0.00409999862
v -0.00299999863 -0.00266000628 0.00450000539
v -0.00287730247 -0.00273916125 0.00409999862
v -0.00287730247 -0.00273916125 0.00450000539
v -0.00275421888 -0.0028116256 0.00409999862
v -0.00275421888 -0.0028116256 0.00450000539
v -0.00263078511 -0.00287733972 0.00409999862
v -0.00263078511 -0.00287733972 0.00450000539
v -0.00250703841 -0.00293630362 0.00409999862
v -0.00250703841 -0.00293630362 0.00450000539
v -0.00238301605 -0.00298844278 0.00409999862
v -0.00238301605 -0.00298844278 0.00450000539
v -0.00225875527 -0.00303375721 0.00409999862
v -0.00225875527 -0.00303375721 0.00450000539
v -0.00213427842 -0.0030721873 0.00409999862
v -0.00213427842 -0.0030721873 0.00450000539
v -0.0020096302 -0.00310370326 0.00409999862
v -0.0020096302 -0.00310370326 0.00450000539
v -0.00188484788 -0.00312829018 0.00409999862
v -0.00188484788 -0.00312829018 0.00450000539
v -0.0017599538 -0.00314588845 0.00409999862
v -0.0017599538 -0.00314588845 0.00450000539
v -0.00163499266 -0.00315646827 0.00409999862
v -0.00163499266 -0.00315646827 0.00450000539
v -0.00151000172 -0.00315999985 0.00409999862
v -0.00151000172 -0.00315999985 0.00450000539
v -0.00132050365 -0.00314860046 0.00409999862
v -0.00132050365 -0.00314860046 0.00450000539
v -0.0011381954 -0.00311541557 0.00409999862
v -0.0011381954 -0.00311541557 0.00450000539
v -0.000964842737 -0.00306203961 0.00409999862
v -0.000964842737 -0.00306203961 0.00450000539
v -0.000802226365 -0.0029900074 0.00409999862
v -0.000802226365 -0.0029900074 0.00450000539
v -0.000652104616 -0.00290088356 0.00409999862
v -0.000652104616 -0.00290088356 0.00450000539
v -0.00051625073 -0.0027962476 0.00409999862
v -0.00051625073 -0.0027962476 0.00450000539
v -0.000396445394 -0.00267766416 0.00409999862
v -0.000396445394 -0.00267766416 0.00450000539
v -0.000294446945 -0.00254666805 0.00409999862
v -0.000294446945 -0.00254666805 0.00450000539
v -0.000212036073 -0.0024048388 0.00409999862
v -0.000212036073 -0.0024048388 0.00450000539
v -0.000150971115 -0.00225375593 0.00409999862
v -0.000150971115 -0.00225375593 0.00450000539
v -0.000113040209 -0.00209495425 0.00409999862
v -0.000113040209 -0.00209495425 0.00450000539
v -0.000100001693 -0.0019299984 0.00409999862
v -0.000100001693 -0.0019299984 0.00450000539
v -0.000118382275 -0.00171676278 0.00409999862
v -0.000118382275 -0.00171676278 0.00450000539
v -0.000172875822 -0.00151403248 0.00409999862
v -0.000172875822 -0.00151403248 0.00450000539
v -0.000262498856 -0.00132484734 0.00409999862
v -0.000262498856 -0.00132484734 0.00450000539
v -0.000386297703 -0.00115221739 0.00409999862
v -0.000386297703 -0.00115221739 0.00450000539
v -0.000543288887 -0.000999182463 0.00409999862
v -0.000543288887 -0.000999182463 0.00450000539
v -0.000732503831 -0.000868752599 0.00409999862
v -0.000732503831 -0.000868752599 0.00450000539
v -0.000952966511 -0.000763937831 0.00409999862
v -0.000952966511 -0.000763937831 0.00450000539
v -0.00120370835 -0.000687777996 0.00409999862
v -0.00120370835 -0.000687777996 0.00450000539
v -0.00148375332 -0.000643283129 0.00409999862
v -0.00148375332 -0.000643283129 0.00450000539
v -0.00179213285 -0.000633478165 0.00409999862
v -0.00179213285 -0.000633478165 0.00450000539
v -0.00212787092 -0.000661373138 0.00409999862
v -0.00212787092 -0.000661373138 0.00450000539
v -0.00248999894 -0.000730007887 0.00409999862
v -0.00248999894 -0.000730007887 0.00450000539
v -0.00248999894 0.00282000005 0.00409999862
v -0.00248999894 0.00282000005 0.00450000539
v 0.00053999573 0.00282000005 0.00409999862
v 0.00053999573 0.00282000005 0.00450000539
v 0.00053999573 0.00193999708 0.00409999862
v 0.00053999573 0.00193999708 0.00450000539
usemtl screen_white_text_003
f 227 153 228
f 153 229 228
f 153 230 229
f 227 154 153
f 154 156 155
f 227 156 154
f 227 157 156
f 227 158 157
f 227 159 158
f 227 226 159
f 226 160 159
f 226 225 160
f 225 161 160
f 225 224 161
f 224 162 161
f 223 162 224
f 222 162 223
f 221 162 222
f 221 163 162
f 220 163 221
f 219 163 220
f 219 164 163
f 218 164 219
f 218 165 164
f 217 165 218
f 216 165 217
f 216 166 165
f 215 166 216
f 215 167 166
f 214 167 215
f 213 167 214
f 213 168 167
f 212 168 213
f 211 168 212
f 211 169 168
f 210 169 211
f 190 192 191
f 209 169 210
f 190 193 192
f 209 170 169
f 208 170 209
f 190 194 193
f 190 195 194
f 207 170 208
f 190 196 195
f 190 197 196
f 206 170 207
f 190 198 197
f 206 171 170
f 205 171 206
f 190 199 198
f 190 200 199
f 204 171 205
f 190 201 200
f 190 202 201
f 203 171 204
f 190 203 202
f 190 171 203
f 190 172 171
f 190 173 172
f 190 174 173
f 189 174 190
f 188 174 189
f 188 175 174
f 187 175 188
f 186 175 187
f 185 175 186
f 185 176 175
f 184 176 185
f 183 176 184
f 183 177 176
f 182 177 183
f 181 177 182
f 180 177 181
f 180 178 177
f 179 178 180
f 305 306 231
f 231 306 307
f 231 307 308
f 305 231 232
f 232 233 234
f 305 232 234
f 305 234 235
f 305 235 236
f 305 236 237
f 305 237 304
f 304 237 238
f 304 238 303
f 303 238 239
f 303 239 302
f 302 239 240
f 301 302 240
f 300 301 240
f 299 300 240
f 299 240 241
f 298 299 241
f 297 298 241
f 297 241 242
f 296 297 242
f 296 242 243
f 295 296 243
f 294 295 243
f 294 243 244
f 293 294 244
f 293 244 245
f 292 293 245
f 291 292 245
f 291 245 246
f 290 291 246
f 289 290 246
f 289 246 247
f 288 289 247
f 268 269 270
f 287 288 247
f 268 270 271
f 287 247 248
f 286 287 248
f 268 271 272
f 268 272 273
f 285 286 248
f 268 273 274
f 268 274 275
f 284 285 248
f 268 275 276
f 284 248 249
f 283 284 249
f 268 276 277
f 268 277 278
f 282 283 249
f 268 278 279
f 268 279 280
f 281 282 249
f 268 280 281
f 268 281 249
f 268 249 250
f 268 250 251
f 268 251 252
f 267 268 252
f 266 267 252
f 266 252 253
f 265 266 253
f 264 265 253
f 263 264 253
f 263 253 254
f 262 263 254
f 261 262 254
f 261 254 255
f 260 261 255
f 259 260 255
f 258 259 255
f 258 255 256
f 257 258 256
f 310 312 311 309
f 312 314 313 311
f 314 316 315 313
f 316 318 317 315
f 318 320 319 317
f 320 322 321 319
f 322 324 323 321
f 324 326 325 323
f 326 328 327 325
f 328 330 329 327
f 330 332 331 329
f 332 334 333 331
f 334 336 335 333
f 336 338 337 335
f 338 340 339 337
f 340 342 341 339
f 342 344 343 341
f 344 346 345 343
f 346 348 347 345
f 348 350 349 347
f 350 352 351 349
f 352 354 353 351
f 354 356 355 353
f 356 358 357 355
f 358 360 359 357
f 360 362 361 359
f 362 364 363 361
f 364 366 365 363
f 366 368 367 365
f 368 370 369 367
f 370 372 371 369
f 372 374 373 371
f 374 376 375 373
f 376 378 377 375
f 378 380 379 377
f 380 382 381 379
f 382 384 383 381
f 384 386 385 383
f 386 388 387 385
f 388 390 389 387
f 390 392 391 389
f 392 394 393 391
f 394 396 395 393
f 396 398 397 395
f 398 400 399 397
f 400 402 401 399
f 402 404 403 401
f 404 406 405 403
f 406 408 407 405
f 408 410 409 407
f 410 412 411 409
f 412 414 413 411
f 414 416 415 413
f 416 418 417 415
f 418 420 419 417
f 420 422 421 419
f 422 424 423 421
f 424 426 425 423
f 426 428 427 425
f 428 430 429 427
f 430 432 431 429
f 432 434 433 431
f 434 436 435 433
f 436 438 437 435
f 438 440 439 437
f 440 442 441 439
f 442 444 443 441
f 444 446 445 443
f 446 448 447 445
f 448 450 449 447
f 450 452 451 449
f 452 454 453 451
f 454 456 455 453
f 456 458 457 455
f 458 460 459 457
f 460 462 461 459
f 462 464 463 461
f 464 310 309 463
