mtllib keyboard_key_2_0_tab_link.mtl
o keyboard_key_2_0_tab_link

g keyboard_key_2_0_tab_SOLID
v -0.0239500105 -0.0165000036 0
v -0.0239500105 -0.013000004 -0.00349999964
v -0.0274499953 -0.013000004 0
v -0.0239500105 -0.0162335783 -0.00133939087
v -0.0239500105 -0.0154748708 -0.00247487426
v -0.0252893865 -0.0162335783 0
v -0.0253229439 -0.0159120411 -0.00137295946
v -0.0252532959 -0.0152968913 -0.00229689106
v -0.0259707272 -0.0150207281 -0.00202072784
v -0.0252893865 -0.013000004 -0.00323357806
v -0.0264248848 -0.013000004 -0.00247487426
v -0.0239500105 -0.0143393949 -0.00323357806
v -0.0253229439 -0.0143729597 -0.0029120408
v -0.0262469053 -0.0143032968 -0.00229689106
v -0.0271835923 -0.0143393949 0
v -0.0264248848 -0.0154748708 0
v -0.0271835923 -0.013000004 -0.00133939087
v -0.0268620253 -0.0143729597 -0.00137295946
v -0.0262469053 -0.0152968913 -0.00130329654
v 0.0239500105 -0.0165000036 0
v 0.0274499953 -0.013000004 0
v 0.0239500105 -0.013000004 -0.00349999964
v 0.0252893865 -0.0162335783 0
v 0.0264248848 -0.0154748708 0
v 0.0239500105 -0.0162335783 -0.00133939087
v 0.0253229439 -0.0159120411 -0.00137295946
v 0.0262469053 -0.0152968913 -0.00130329654
v 0.0259707272 -0.0150207281 -0.00202072784
v 0.0271835923 -0.013000004 -0.0013393946
v 0.0264248848 -0.013000004 -0.00247487426
v 0.0271835923 -0.0143393949 0
v 0.0268620253 -0.0143729597 -0.00137295946
v 0.0262469053 -0.0143032968 -0.00229689106
v 0.0239500105 -0.0143393949 -0.00323357806
v 0.0239500105 -0.0154748708 -0.00247487426
v 0.0252893865 -0.013000004 -0.00323357806
v 0.0253229439 -0.0143729597 -0.0029120408
v 0.0252532959 -0.0152968913 -0.00229689106
v 0.0239500105 0.0165000036 0
v 0.0239500105 0.013000004 -0.00349999964
v 0.0274499953 0.013000004 0
v 0.0239500105 0.0162335783 -0.00133939087
v 0.0239500105 0.0154748708 -0.00247487426
v 0.0252893865 0.0162335783 0
v 0.0253229439 0.0159120411 -0.00137295946
v 0.0252532959 0.0152968913 -0.00229689106
v 0.0259707272 0.0150207281 -0.00202072784
v 0.0252893865 0.013000004 -0.00323357806
v 0.0264248848 0.013000004 -0.00247487426
v 0.0239500105 0.0143393949 -0.00323357806
v 0.0253229439 0.0143729597 -0.0029120408
v 0.0262469053 0.0143032968 -0.00229689106
v 0.0271835923 0.0143393949 0
v 0.0264248848 0.0154748708 0
v 0.0271835923 0.013000004 -0.00133939087
v 0.0268620253 0.0143729597 -0.00137295946
v 0.0262469053 0.0152968913 -0.00130329654
v -0.0239500105 0.0165000036 0
v -0.0274499953 0.013000004 0
v -0.0239500105 0.013000004 -0.00349999964
v -0.0252893865 0.0162335783 0
v -0.0264248848 0.0154748708 0
v -0.0239500105 0.0162335783 -0.00133939087
v -0.0253229439 0.0159120411 -0.00137295946
v -0.0262469053 0.0152968913 -0.00130329654
v -0.0259707272 0.0150207281 -0.00202072784
v -0.0271835923 0.013000004 -0.0013393946
v -0.0264248848 0.013000004 -0.00247487426
v -0.0271835923 0.0143393949 0
v -0.0268620253 0.0143729597 -0.00137295946
v -0.0262469053 0.0143032968 -0.00229689106
v -0.0239500105 0.0143393949 -0.00323357806
v -0.0239500105 0.0154748708 -0.00247487426
v -0.0252893865 0.013000004 -0.00323357806
v -0.0253229439 0.0143729597 -0.0029120408
v -0.0252532959 0.0152968913 -0.00229689106
v -0.0274499953 -0.013000004 0
v -0.0239500105 -0.013000004 0.00350000337
v -0.0239500105 -0.0165000036 0
v -0.0271835923 -0.013000004 0.0013393946
v -0.0264248848 -0.013000004 0.00247487426
v -0.0271835923 -0.0143393949 0
v -0.0268620253 -0.0143729597 0.00137295946
v -0.0262469053 -0.0143032968 0.00229689106
v -0.0259707272 -0.0150207281 0.00202072784
v -0.0239500105 -0.0143393949 0.00323357806
v -0.0239500105 -0.0154748708 0.00247487426
v -0.0252893865 -0.013000004 0.00323357806
v -0.0253229439 -0.0143729597 0.0029120408
v -0.0252532959 -0.0152968913 0.00229689106
v -0.0252893865 -0.0162335783 0
v -0.0264248848 -0.0154748708 0
v -0.0239500105 -0.0162335783 0.00133939087
v -0.0253229439 -0.0159120411 0.00137295946
v -0.0262469053 -0.0152968913 0.00130329654
v 0.0239500105 -0.0165000036 0
v 0.0239500105 -0.013000004 0.00350000337
v 0.0274499953 -0.013000004 0
v 0.0239500105 -0.0162335783 0.00133939087
v 0.0239500105 -0.0154748708 0.00247487426
v 0.0252893865 -0.0162335783 0
v 0.0253229439 -0.0159120411 0.00137295946
v 0.0252532959 -0.0152968913 0.00229689106
v 0.0259707272 -0.0150207281 0.00202072784
v 0.0252893865 -0.013000004 0.00323357806
v 0.0264248848 -0.013000004 0.00247487426
v 0.0239500105 -0.0143393949 0.00323357806
v 0.0253229439 -0.0143729597 0.0029120408
v 0.0262469053 -0.0143032968 0.00229689106
v 0.0271835923 -0.0143393949 0
v 0.0264248848 -0.0154748708 0
v 0.0271835923 -0.013000004 0.00133939087
v 0.0268620253 -0.0143729597 0.00137295946
v 0.0262469053 -0.0152968913 0.00130329654
v 0.0239500105 0.013000004 0.00350000337
v 0.0239500105 0.0165000036 0
v 0.0274499953 0.013000004 0
v 0.0239500105 0.0143393949 0.00323357806
v 0.0239500105 0.0154748708 0.00247487426
v 0.0252893865 0.013000004 0.00323357806
v 0.0253229439 0.0143729597 0.0029120408
v 0.0252532959 0.0152968913 0.00229689106
v 0.0259707272 0.0150207281 0.00202072784
v 0.0252893865 0.0162335783 0
v 0.0264248848 0.0154748708 0
v 0.0239500105 0.0162335783 0.00133939087
v 0.0253229439 0.0159120411 0.00137295946
v 0.0262469053 0.0152968913 0.00130329654
v 0.0271835923 0.013000004 0.0013393946
v 0.0264248848 0.013000004 0.00247487426
v 0.0271835923 0.0143393949 0
v 0.0268620253 0.0143729597 0.00137295946
v 0.0262469053 0.0143032968 0.00229689106
v -0.0274499953 0.013000004 0
v -0.0239500105 0.0165000036 0
v -0.0239500105 0.013000004 0.00350000337
v -0.0271835923 0.0143393949 0
v -0.0264248848 0.0154748708 0
v -0.0271835923 0.013000004 0.00133939087
v -0.0268620253 0.0143729597 0.00137295946
v -0.0262469053 0.0152968913 0.00130329654
v -0.0259707272 0.0150207281 0.00202072784
v -0.0239500105 0.0162335783 0.00133939087
v -0.0239500105 0.0154748708 0.00247487426
v -0.0252893865 0.0162335783 0
v -0.0253229439 0.0159120411 0.00137295946
v -0.0252532959 0.0152968913 0.00229689106
v -0.0252893865 0.013000004 0.00323357806
v -0.0264248848 0.013000004 0.00247487426
v -0.0239500105 0.0143393949 0.00323357806
v -0.0253229439 0.0143729597 0.0029120408
v -0.0262469053 0.0143032968 0.00229689106
usemtl matte_black_keycaps_003
f 59 134 77 3
f 2 22 40 60
f 39 116 135 58
f 78 136 115 97
f 21 98 117 41
f 1 4 7 6
f 4 5 8 7
f 6 7 19 16
f 7 8 9 19
f 2 10 13 12
f 10 11 14 13
f 12 13 8 5
f 13 14 9 8
f 3 15 18 17
f 15 16 19 18
f 17 18 14 11
f 18 19 9 14
f 20 23 26 25
f 23 24 27 26
f 25 26 38 35
f 26 27 28 38
f 21 29 32 31
f 29 30 33 32
f 31 32 27 24
f 32 33 28 27
f 22 34 37 36
f 34 35 38 37
f 36 37 33 30
f 37 38 28 33
f 39 42 45 44
f 42 43 46 45
f 44 45 57 54
f 45 46 47 57
f 40 48 51 50
f 48 49 52 51
f 50 51 46 43
f 51 52 47 46
f 41 53 56 55
f 53 54 57 56
f 55 56 52 49
f 56 57 47 52
f 58 61 64 63
f 61 62 65 64
f 63 64 76 73
f 64 65 66 76
f 59 67 70 69
f 67 68 71 70
f 69 70 65 62
f 70 71 66 65
f 60 72 75 74
f 72 73 76 75
f 74 75 71 68
f 75 76 66 71
f 77 80 83 82
f 80 81 84 83
f 82 83 95 92
f 83 84 85 95
f 78 86 89 88
f 86 87 90 89
f 88 89 84 81
f 89 90 85 84
f 79 91 94 93
f 91 92 95 94
f 93 94 90 87
f 94 95 85 90
f 96 99 102 101
f 99 100 103 102
f 101 102 114 111
f 102 103 104 114
f 97 105 108 107
f 105 106 109 108
f 107 108 103 100
f 108 109 104 103
f 98 110 113 112
f 110 111 114 113
f 112 113 109 106
f 113 114 104 109
f 115 118 121 120
f 118 119 122 121
f 120 121 133 130
f 121 122 123 133
f 116 124 127 126
f 124 125 128 127
f 126 127 122 119
f 127 128 123 122
f 117 129 132 131
f 129 130 133 132
f 131 132 128 125
f 132 133 123 128
f 134 137 140 139
f 137 138 141 140
f 139 140 152 149
f 140 141 142 152
f 135 143 146 145
f 143 144 147 146
f 145 146 141 138
f 146 147 142 141
f 136 148 151 150
f 148 149 152 151
f 150 151 147 144
f 151 152 142 147
f 39 58 63 42
f 42 63 73 43
f 43 73 72 50
f 50 72 60 40
f 1 20 25 4
f 4 25 35 5
f 5 35 34 12
f 12 34 22 2
f 21 41 55 29
f 29 55 49 30
f 30 49 48 36
f 36 48 40 22
f 2 60 74 10
f 10 74 68 11
f 11 68 67 17
f 17 67 59 3
f 3 77 82 15
f 15 82 92 16
f 16 92 91 6
f 6 91 79 1
f 78 97 107 86
f 86 107 100 87
f 87 100 99 93
f 93 99 96 79
f 97 115 120 105
f 105 120 130 106
f 106 130 129 112
f 112 129 117 98
f 77 134 139 80
f 80 139 149 81
f 81 149 148 88
f 88 148 136 78
f 20 96 101 23
f 23 101 111 24
f 24 111 110 31
f 31 110 98 21
f 41 117 131 53
f 53 131 125 54
f 54 125 124 44
f 44 124 116 39
f 115 136 150 118
f 118 150 144 119
f 119 144 143 126
f 126 143 135 116
f 58 135 145 61
f 61 145 138 62
f 62 138 137 69
f 69 137 134 59
f 1 79 96 20

g key_legend_2_0_tab
v 0.00101438165 -0.000134184957 0.00450000539
v 0.00108319521 -9.16868448e-05 0.00450000539
v 0.00115248561 -5.34728169e-05 0.00450000539
v 0.00122234225 -1.94832683e-05 0.00450000539
v 0.00129291415 1.03265047e-05 0.00450000539
v 0.00136423111 3.60012054e-05 0.00450000539
v 0.00143644214 5.7592988e-05 0.00450000539
v 0.00150960684 7.51465559e-05 0.00450000539
v 0.00158384442 8.87140632e-05 0.00450000539
v 0.0016592741 9.83476639e-05 0.00450000539
v 0.00173595548 0.000104092062 0.00450000539
v 0.00181397796 0.00010599941 0.00450000539
v 0.00200539827 9.23871994e-05 0.00450000539
v 0.00218680501 5.25563955e-05 0.00450000539
v 0.00235691667 -1.20177865e-05 0.00450000539
v 0.00251451135 -9.98526812e-05 0.00450000539
v 0.00265827775 -0.000209465623 0.00450000539
v 0.00278699398 -0.000339373946 0.00450000539
v 0.00289934874 -0.000488094985 0.00450000539
v 0.00299412012 -0.000654153526 0.00450000539
v 0.00307005644 -0.000836052001 0.00450000539
v 0.00312584639 -0.00103231519 0.00450000539
v 0.00316023827 -0.00124146044 0.00450000539
v 0.00317198038 -0.00146200508 0.00450000539
v 0.00315898657 -0.00171898305 0.00450000539
v 0.00312045217 -0.00195744634 0.00450000539
v 0.00305715203 -0.00217665732 0.00450000539
v 0.00296977162 -0.00237589329 0.00450000539
v 0.002859056 -0.00255441666 0.00450000539
v 0.00272572041 -0.0027115047 0.00450000539
v 0.00257053971 -0.00284641981 0.00450000539
v 0.00239419937 -0.00295844674 0.00450000539
v 0.00219744444 -0.00304684788 0.00450000539
v 0.00198101997 -0.00311089307 0.00450000539
v 0.00174561143 -0.00314985216 0.00450000539
v 0.00149199367 -0.00316300243 0.00450000539
v 0.00138810277 -0.00316112489 0.00450000539
v 0.00128337741 -0.00315558165 0.00450000539
v 0.00117841363 -0.00314648449 0.00450000539
v 0.00107380748 -0.00313396752 0.00450000539
v 0.000970155001 -0.00311813504 0.00450000539
v 0.000868111849 -0.0030991286 0.00450000539
v 0.000768244267 -0.00307705253 0.00450000539
v 0.000671178102 -0.00305204093 0.00450000539
v 0.000577509403 -0.00302420557 0.00450000539
v 0.000487834215 -0.00299367309 0.00450000539
v 0.000402808189 -0.00296056271 0.00450000539
v 0.00032299757 -0.00292500108 0.00450000539
v 0.00032299757 0.00167399645 0.00450000539
v 0.000945985317 0.00167399645 0.00450000539
v 0.000945985317 -0.000181004405 0.00450000539
v 0.000993132591 -0.00249069184 0.00450000539
v 0.00104320049 -0.002503708 0.00450000539
v 0.00109562278 -0.00251594186 0.00450000539
v 0.0011497736 -0.00252729654 0.00450000539
v 0.00120508671 -0.00253768265 0.00450000539
v 0.00126099586 -0.00254700333 0.00450000539
v 0.00131687522 -0.00255515426 0.00450000539
v 0.00137221813 -0.0025620386 0.00450000539
v 0.00142636895 -0.00256756693 0.00450000539
v 0.00147876143 -0.00257163495 0.00450000539
v 0.00152882934 -0.00257414579 0.00450000539
v 0.00157597661 -0.00257500261 0.00450000539
v 0.00171250105 -0.00256625563 0.00450000539
v 0.0018414557 -0.00254061818 0.00450000539
v 0.0019620657 -0.00249898434 0.00450000539
v 0.00207349658 -0.00244226307 0.00450000539
v 0.00217491388 -0.00237134099 0.00450000539
v 0.00226548314 -0.00228712708 0.00450000539
v 0.00234439969 -0.0021905154 0.00450000539
v 0.00241079926 -0.00208240747 0.00450000539
v 0.0024638772 -0.00196370482 0.00450000539
v 0.00250282884 -0.00183530152 0.00450000539
v 0.00252681971 -0.00169809908 0.00450000539
v 0.00253498554 -0.00155299902 0.00450000539
v 0.00252780318 -0.00139167905 0.00450000539
v 0.00250661373 -0.00124069303 0.00450000539
v 0.00247210264 -0.00110073388 0.00450000539
v 0.00242480636 -0.000972516835 0.00450000539
v 0.00236535072 -0.000856749713 0.00450000539
v 0.00229436159 -0.000754125416 0.00450000539
v 0.00221243501 -0.000665359199 0.00450000539
v 0.00212016702 -0.000591151416 0.00450000539
v 0.00201818347 -0.000532202423 0.00450000539
v 0.00190708041 -0.000489227474 0.00450000539
v 0.00178748369 -0.000462926924 0.00450000539
v 0.00165998936 -0.000454001129 0.00450000539
v 0.00159659982 -0.000455789268 0.00450000539
v 0.00153562427 -0.000461325049 0.00450000539
v 0.00147655606 -0.000470846891 0.00450000539
v 0.00141885877 -0.000484593213 0.00450000539
v 0.00136205554 -0.000502817333 0.00450000539
v 0.00130560994 -0.00052575022 0.00450000539
v 0.00124901533 -0.000553645194 0.00450000539
v 0.00119176507 -0.000586740673 0.00450000539
v 0.00113335252 -0.000625282526 0.00450000539
v 0.00107324123 -0.000669509172 0.00450000539
v 0.00101095438 -0.000719666481 0.00450000539
v 0.000945985317 -0.000776000321 0.00450000539
v 0.000945985317 -0.00247700512 0.00450000539
v -0.000270396471 -0.00296252221 0.00450000539
v -0.000332653522 -0.00300177187 0.00450000539
v -0.000389605761 -0.00303601474 0.00450000539
v -0.00044208765 -0.00306551903 0.00450000539
v -0.000490993261 -0.00309055299 0.00450000539
v -0.000537127256 -0.00311137736 0.00450000539
v -0.000581383705 -0.00312826782 0.00450000539
v -0.000624597073 -0.00314148515 0.00450000539
v -0.000667631626 -0.00315129757 0.00450000539
v -0.000711292028 -0.00315798074 0.00450000539
v -0.000756472349 -0.00316178799 0.00450000539
v -0.000804007053 -0.00316300243 0.00450000539
v -0.00086966157 -0.00316094607 0.00450000539
v -0.000930190086 -0.00315470248 0.00450000539
v -0.000985682011 -0.00314418972 0.00450000539
v -0.00103631616 -0.003129296 0.00450000539
v -0.00108218193 -0.00310993195 0.00450000539
v -0.00112339854 -0.00308600068 0.00450000539
v -0.0011600852 -0.00305740535 0.00450000539
v -0.00119239092 -0.00302404165 0.00450000539
v -0.0012204051 -0.00298581272 0.00450000539
v -0.00124427676 -0.00294262916 0.00450000539
v -0.00126409531 -0.0028943941 0.00450000539
v -0.00128000975 -0.00284100324 0.00450000539
v -0.00134855509 -0.00289291888 0.00450000539
v -0.00141760707 -0.00294020027 0.00450000539
v -0.00148716569 -0.00298286229 0.00450000539
v -0.00155717134 -0.00302092731 0.00450000539
v -0.00162753463 -0.00305442512 0.00450000539
v -0.00169825554 -0.00308337808 0.00450000539
v -0.00176927447 -0.00310780853 0.00450000539
v -0.00184053183 -0.00312774628 0.00450000539
v -0.0019119978 -0.00314320624 0.00450000539
v -0.00198358297 -0.0031542182 0.00450000539
v -0.00205528736 -0.00316081196 0.00450000539
v -0.00212702155 -0.00316300243 0.00450000539
v -0.00223922729 -0.003155604 0.00450000539
v -0.0023444593 -0.00313416123 0.00450000539
v -0.00244224072 -0.00309978426 0.00450000539
v -0.00253197551 -0.00305359811 0.00450000539
v -0.00261315703 -0.00299671292 0.00450000539
v -0.00268527865 -0.00293025374 0.00450000539
v -0.00274774432 -0.00285533071 0.00450000539
v -0.0028000474 -0.0027730763 0.00450000539
v -0.00284168124 -0.0026845932 0.00450000539
v -0.00287204981 -0.00259101391 0.00450000539
v -0.00289067626 -0.0024934411 0.00450000539
v -0.00289702415 -0.00239299983 0.00450000539
v -0.00288558006 -0.00224604458 0.00450000539
v -0.0028526783 -0.00211568922 0.00450000539
v -0.00280055404 -0.00200045854 0.00450000539
v -0.00273135304 -0.00189885497 0.00450000539
v -0.00264728069 -0.0018094033 0.00450000539
v -0.00255051255 -0.00173062831 0.00450000539
v -0.00244325399 -0.00166103989 0.00450000539
v -0.00232768059 -0.00159914792 0.00450000539
v -0.00220599771 -0.00154348463 0.00450000539
v -0.00208035111 -0.00149255991 0.00450000539
v -0.00195297599 -0.00144489855 0.00450000539
v -0.0018260181 -0.00139900297 0.00450000539
v -0.0012730062 -0.00120300055 0.00450000539
v -0.0012730062 -0.00103500485 0.00450000539
v -0.00127694011 -0.000941775739 0.00450000539
v -0.00128877163 -0.000857926905 0.00450000539
v -0.00130844116 -0.000783219934 0.00450000539
v -0.00133600831 -0.000717408955 0.00450000539
v -0.00137144327 -0.000660248101 0.00450000539
v -0.00141477585 -0.000611498952 0.00450000539
v -0.00146594644 -0.00057092309 0.00450000539
v -0.00152501464 -0.000538259745 0.00450000539
v -0.00159195065 -0.000513285398 0.00450000539
v -0.00166675448 -0.000495739281 0.00450000539
v -0.00174945593 -0.000485397875 0.00450000539
v -0.00184002519 -0.000482000411 0.00450000539
v -0.00192588568 -0.000485375524 0.00450000539
v -0.00201183558 -0.000495582819 0.00450000539
v -0.00209769607 -0.000512734056 0.00450000539
v -0.00218328834 -0.000536963344 0.00450000539
v -0.00226837397 -0.000568389893 0.00450000539
v -0.00235277414 -0.000607125461 0.00450000539
v -0.00243631005 -0.00065330416 0.00450000539
v -0.00251874328 -0.000707037747 0.00450000539
v -0.00259995461 -0.000768452883 0.00450000539
v -0.00267970562 -0.000837676227 0.00450000539
v -0.0027577877 -0.000914812088 0.00450000539
v -0.00283402205 -0.00100000203 0.00450000539
v -0.00283402205 -0.000321000814 0.00450000539
v -0.00277072191 -0.000252313912 0.00450000539
v -0.00270327926 -0.000189721584 0.00450000539
v -0.00263166428 -0.00013320148 0.00450000539
v -0.00255581737 -8.27461481e-05 0.00450000539
v -0.00247570872 -3.83108854e-05 0.00450000539
v -0.00239127874 1.2665987e-07 0.00450000539
v -0.00230243802 3.25739384e-05 0.00450000539
v -0.00220921636 5.90756536e-05 0.00450000539
v -0.00211149454 7.9639256e-05 0.00450000539
v -0.00200924277 9.43019986e-05 0.00450000539
v -0.00190243125 0.000103078783 0.00450000539
v -0.00179103017 0.00010599941 0.00450000539
v -0.00163474679 9.92491841e-05 0.00450000539
v -0.00148531795 7.88420439e-05 0.00450000539
v -0.00134399533 4.45321202e-05 0.00450000539
v -0.00121209025 -3.92645597e-06 0.00450000539
v -0.00109088421 -6.67721033e-05 0.00450000539
v -0.000981628895 -0.000144250691 0.00450000539
v -0.000885665417 -0.000236608088 0.00450000539
v -0.000804275274 -0.000344075263 0.00450000539
v -0.000738710165 -0.000466905534 0.00450000539
v -0.000690311193 -0.000605344772 0.00450000539
v -0.000660300255 -0.000759631395 0.00450000539
v -0.000650018454 -0.000930003822 0.00450000539
v -0.000650018454 -0.00254700333 0.00450000539
v -0.000649154186 -0.00257516652 0.00450000539
v -0.000646561384 -0.00260024518 0.00450000539
v -0.000642240047 -0.0026223585 0.00450000539
v -0.000636279583 -0.00264163315 0.00450000539
v -0.000628650188 -0.00265818089 0.00450000539
v -0.000619381666 -0.00267212838 0.00450000539
v -0.000608533621 -0.00268359482 0.00450000539
v -0.00059607625 -0.00269270688 0.00450000539
v -0.000582098961 -0.00269958377 0.00450000539
v -0.000566571951 -0.00270433724 0.00450000539
v -0.000549525023 -0.00270710886 0.00450000539
v -0.00053101778 -0.00270800292 0.00450000539
v -0.000513970852 -0.00270669907 0.00450000539
v -0.000494480133 -0.00270284712 0.00450000539
v -0.000472724438 -0.00269652158 0.00450000539
v -0.000448822975 -0.00268778205 0.00450000539
v -0.000422984362 -0.00267671049 0.00450000539
v -0.000395387411 -0.00266337395 0.00450000539
v -0.000366181135 -0.00264785439 0.00450000539
v -0.000335544348 -0.00263022631 0.00450000539
v -0.00030362606 -0.00261054933 0.00450000539
v -0.00027063489 -0.00258890539 0.00450000539
v -0.000236690044 -0.00256536156 0.00450000539
v -0.000202029943 -0.00253999978 0.00450000539
v -0.000202029943 -0.00291800499 0.00450000539
v -0.00140434504 -0.00159160793 0.00450000539
v -0.00153136253 -0.00163787603 0.00450000539
v -0.00165277719 -0.00168545544 0.00450000539
v -0.00176715851 -0.0017350018 0.00450000539
v -0.00187319517 -0.00178717077 0.00450000539
v -0.00196951628 -0.00184262544 0.00450000539
v -0.00205475092 -0.00190201402 0.00450000539
v -0.00212752819 -0.0019659996 0.00450000539
v -0.00218650699 -0.00203523785 0.00450000539
v -0.0022303462 -0.00211037695 0.00450000539
v -0.00225761533 -0.00219208002 0.00450000539
v -0.00226700306 -0.0022810027 0.00450000539
v -0.00226315856 -0.00234408677 0.00450000539
v -0.00225180387 -0.002403602 0.00450000539
v -0.00223344564 -0.00245917588 0.00450000539
v -0.00220841169 -0.00251044333 0.00450000539
v -0.00217717886 -0.00255705416 0.00450000539
v -0.00214013457 -0.0025986284 0.00450000539
v -0.00209769607 -0.00263480842 0.00450000539
v -0.00205028057 -0.00266522169 0.00450000539
v -0.00199827552 -0.00268951803 0.00450000539
v -0.00194212794 -0.00270732492 0.00450000539
v -0.00188222528 -0.00271826982 0.00450000539
v -0.00181901455 -0.00272200257 0.00450000539
v -0.00177031755 -0.00271998346 0.00450000539
v -0.0017221868 -0.00271400064 0.00450000539
v -0.0016746521 -0.00270417333 0.00450000539
v -0.00162768364 -0.00269062817 0.00450000539
v -0.00158131123 -0.00267349184 0.00450000539
v -0.00153550506 -0.00265287608 0.00450000539
v -0.00149029493 -0.00262890756 0.00450000539
v -0.00144568086 -0.00260170549 0.00450000539
v -0.00140163302 -0.00257139653 0.00450000539
v -0.00135818124 -0.00253809243 0.00450000539
v -0.0013152957 -0.00250191987 0.00450000539
v -0.0012730062 -0.00246300548 0.00450000539
v -0.0012730062 -0.00154600292 0.00450000539
v -0.00324702263 4.29973006e-05 0.00450000539
v -0.00324702263 -0.000517003238 0.00450000539
v -0.00424101949 -0.000517003238 0.00450000539
v -0.00424101949 -0.0021269992 0.00450000539
v -0.00423568487 -0.0022143051 0.00450000539
v -0.00422048569 -0.00229108334 0.00450000539
v -0.00419661403 -0.00235789269 0.00450000539
v -0.00416532159 -0.00241529942 0.00450000539
v -0.00412780046 -0.00246385485 0.00450000539
v -0.00408527255 -0.00250412524 0.00450000539
v -0.00403895974 -0.00253666937 0.00450000539
v -0.00399005413 -0.0025620386 0.00450000539
v -0.00393980742 -0.00258079916 0.00450000539
v -0.00388938189 -0.00259350985 0.00450000539
v -0.00384005904 -0.00260072201 0.00450000539
v -0.00379303098 -0.00260300189 0.00450000539
v -0.0037368536 -0.00260140002 0.00450000539
v -0.0036803782 -0.00259658694 0.00450000539
v -0.00362348557 -0.00258856267 0.00450000539
v -0.0035661757 -0.00257733464 0.00450000539
v -0.00350835919 -0.00256289542 0.00450000539
v -0.00345000625 -0.00254525244 0.00450000539
v -0.00339108706 -0.00252439827 0.00450000539
v -0.00333154202 -0.00250033289 0.00450000539
v -0.00327131152 -0.00247306377 0.00450000539
v -0.00321033597 -0.00244258344 0.00450000539
v -0.00314858556 -0.00240889937 0.00450000539
v -0.00308603048 -0.00237200409 0.00450000539
v -0.00308603048 -0.00295300037 0.00450000539
v -0.00314259529 -0.00298213214 0.00450000539
v -0.00320327282 -0.0030098781 0.00450000539
v -0.0032671392 -0.00303601474 0.00450000539
v -0.00333335996 -0.00306033343 0.00450000539
v -0.00340101123 -0.00308261067 0.00450000539
v -0.00346925855 -0.00310263038 0.00450000539
v -0.00353723764 -0.00312016159 0.00450000539
v -0.00360402465 -0.00313500315 0.00450000539
v -0.00366875529 -0.00314692408 0.00450000539
v -0.00373059511 -0.00315570831 0.00450000539
v -0.00378865004 -0.00316113979 0.00450000539
v -0.003842026 -0.00316300243 0.00450000539
v -0.00400477648 -0.00315441191 0.00450000539
v -0.00415349007 -0.0031292662 0.00450000539
v -0.00428816676 -0.00308851898 0.00450000539
v -0.00440874696 -0.00303311646 0.00450000539
v -0.00451526046 -0.00296399742 0.00450000539
v -0.00460764766 -0.00288213044 0.00450000539
v -0.00468587875 -0.00278843939 0.00450000539
v -0.00474995375 -0.00268389285 0.00450000539
v -0.00479981303 -0.00256942213 0.00450000539
v -0.00483545661 -0.00244598836 0.00450000539
v -0.00485688448 -0.00231453031 0.00450000539
v -0.00486400723 -0.00217600167 0.00450000539
v -0.00486400723 -0.000517003238 0.00450000539
v -0.00541001558 -0.000517003238 0.00450000539
v -0.00541001558 -0.000447005033 0.00450000539
v -0.00424101949 0.000693999231 0.00450000539
v -0.00424101949 4.29973006e-05 0.00450000539
v 0.00101438165 -0.000134184957 0.00409999862
v 0.00108319521 -9.16868448e-05 0.00409999862
v 0.00115248561 -5.34728169e-05 0.00409999862
v 0.00122234225 -1.94832683e-05 0.00409999862
v 0.00129291415 1.03265047e-05 0.00409999862
v 0.00136423111 3.60012054e-05 0.00409999862
v 0.00143644214 5.7592988e-05 0.00409999862
v 0.00150960684 7.51465559e-05 0.00409999862
v 0.00158384442 8.87140632e-05 0.00409999862
v 0.0016592741 9.83476639e-05 0.00409999862
v 0.00173595548 0.000104092062 0.00409999862
v 0.00181397796 0.00010599941 0.00409999862
v 0.00200539827 9.23871994e-05 0.00409999862
v 0.00218680501 5.25563955e-05 0.00409999862
v 0.00235691667 -1.20177865e-05 0.00409999862
v 0.00251451135 -9.98526812e-05 0.00409999862
v 0.00265827775 -0.000209465623 0.00409999862
v 0.00278699398 -0.000339373946 0.00409999862
v 0.00289934874 -0.000488094985 0.00409999862
v 0.00299412012 -0.000654153526 0.00409999862
v 0.00307005644 -0.000836052001 0.00409999862
v 0.00312584639 -0.00103231519 0.00409999862
v 0.00316023827 -0.00124146044 0.00409999862
v 0.00317198038 -0.00146200508 0.00409999862
v 0.00315898657 -0.00171898305 0.00409999862
v 0.00312045217 -0.00195744634 0.00409999862
v 0.00305715203 -0.00217665732 0.00409999862
v 0.00296977162 -0.00237589329 0.00409999862
v 0.002859056 -0.00255441666 0.00409999862
v 0.00272572041 -0.0027115047 0.00409999862
v 0.00257053971 -0.00284641981 0.00409999862
v 0.00239419937 -0.00295844674 0.00409999862
v 0.00219744444 -0.00304684788 0.00409999862
v 0.00198101997 -0.00311089307 0.00409999862
v 0.00174561143 -0.00314985216 0.00409999862
v 0.00149199367 -0.00316300243 0.00409999862
v 0.00138810277 -0.00316112489 0.00409999862
v 0.00128337741 -0.00315558165 0.00409999862
v 0.00117841363 -0.00314648449 0.00409999862
v 0.00107380748 -0.00313396752 0.00409999862
v 0.000970155001 -0.00311813504 0.00409999862
v 0.000868111849 -0.0030991286 0.00409999862
v 0.000768244267 -0.00307705253 0.00409999862
v 0.000671178102 -0.00305204093 0.00409999862
v 0.000577509403 -0.00302420557 0.00409999862
v 0.000487834215 -0.00299367309 0.00409999862
v 0.000402808189 -0.00296056271 0.00409999862
v 0.00032299757 -0.00292500108 0.00409999862
v 0.00032299757 0.00167399645 0.00409999862
v 0.000945985317 0.00167399645 0.00409999862
v 0.000945985317 -0.000181004405 0.00409999862
v 0.000993132591 -0.00249069184 0.00409999862
v 0.00104320049 -0.002503708 0.00409999862
v 0.00109562278 -0.00251594186 0.00409999862
v 0.0011497736 -0.00252729654 0.00409999862
v 0.00120508671 -0.00253768265 0.00409999862
v 0.00126099586 -0.00254700333 0.00409999862
v 0.00131687522 -0.00255515426 0.00409999862
v 0.00137221813 -0.0025620386 0.00409999862
v 0.00142636895 -0.00256756693 0.00409999862
v 0.00147876143 -0.00257163495 0.00409999862
v 0.00152882934 -0.00257414579 0.00409999862
v 0.00157597661 -0.00257500261 0.00409999862
v 0.00171250105 -0.00256625563 0.00409999862
v 0.0018414557 -0.00254061818 0.00409999862
v 0.0019620657 -0.00249898434 0.00409999862
v 0.00207349658 -0.00244226307 0.00409999862
v 0.00217491388 -0.00237134099 0.00409999862
v 0.00226548314 -0.00228712708 0.00409999862
v 0.00234439969 -0.0021905154 0.00409999862
v 0.00241079926 -0.00208240747 0.00409999862
v 0.0024638772 -0.00196370482 0.00409999862
v 0.00250282884 -0.00183530152 0.00409999862
v 0.00252681971 -0.00169809908 0.00409999862
v 0.00253498554 -0.00155299902 0.00409999862
v 0.00252780318 -0.00139167905 0.00409999862
v 0.00250661373 -0.00124069303 0.00409999862
v 0.00247210264 -0.00110073388 0.00409999862
v 0.00242480636 -0.000972516835 0.00409999862
v 0.00236535072 -0.000856749713 0.00409999862
v 0.00229436159 -0.000754125416 0.00409999862
v 0.00221243501 -0.000665359199 0.00409999862
v 0.00212016702 -0.000591151416 0.00409999862
v 0.00201818347 -0.000532202423 0.00409999862
v 0.00190708041 -0.000489227474 0.00409999862
v 0.00178748369 -0.000462926924 0.00409999862
v 0.00165998936 -0.000454001129 0.00409999862
v 0.00159659982 -0.000455789268 0.00409999862
v 0.00153562427 -0.000461325049 0.00409999862
v 0.00147655606 -0.000470846891 0.00409999862
v 0.00141885877 -0.000484593213 0.00409999862
v 0.00136205554 -0.000502817333 0.00409999862
v 0.00130560994 -0.00052575022 0.00409999862
v 0.00124901533 -0.000553645194 0.00409999862
v 0.00119176507 -0.000586740673 0.00409999862
v 0.00113335252 -0.000625282526 0.00409999862
v 0.00107324123 -0.000669509172 0.00409999862
v 0.00101095438 -0.000719666481 0.00409999862
v 0.000945985317 -0.000776000321 0.00409999862
v 0.000945985317 -0.00247700512 0.00409999862
v -0.000270396471 -0.00296252221 0.00409999862
v -0.000332653522 -0.00300177187 0.00409999862
v -0.000389605761 -0.00303601474 0.00409999862
v -0.00044208765 -0.00306551903 0.00409999862
v -0.000490993261 -0.00309055299 0.00409999862
v -0.000537127256 -0.00311137736 0.00409999862
v -0.000581383705 -0.00312826782 0.00409999862
v -0.000624597073 -0.00314148515 0.00409999862
v -0.000667631626 -0.00315129757 0.00409999862
v -0.000711292028 -0.00315798074 0.00409999862
v -0.000756472349 -0.00316178799 0.00409999862
v -0.000804007053 -0.00316300243 0.00409999862
v -0.00086966157 -0.00316094607 0.00409999862
v -0.000930190086 -0.00315470248 0.00409999862
v -0.000985682011 -0.00314418972 0.00409999862
v -0.00103631616 -0.003129296 0.00409999862
v -0.00108218193 -0.00310993195 0.00409999862
v -0.00112339854 -0.00308600068 0.00409999862
v -0.0011600852 -0.00305740535 0.00409999862
v -0.00119239092 -0.00302404165 0.00409999862
v -0.0012204051 -0.00298581272 0.00409999862
v -0.00124427676 -0.00294262916 0.00409999862
v -0.00126409531 -0.0028943941 0.00409999862
v -0.00128000975 -0.00284100324 0.00409999862
v -0.00134855509 -0.00289291888 0.00409999862
v -0.00141760707 -0.00294020027 0.00409999862
v -0.00148716569 -0.00298286229 0.00409999862
v -0.00155717134 -0.00302092731 0.00409999862
v -0.00162753463 -0.00305442512 0.00409999862
v -0.00169825554 -0.00308337808 0.00409999862
v -0.00176927447 -0.00310780853 0.00409999862
v -0.00184053183 -0.00312774628 0.00409999862
v -0.0019119978 -0.00314320624 0.00409999862
v -0.00198358297 -0.0031542182 0.00409999862
v -0.00205528736 -0.00316081196 0.00409999862
v -0.00212702155 -0.00316300243 0.00409999862
v -0.00223922729 -0.003155604 0.00409999862
v -0.0023444593 -0.00313416123 0.00409999862
v -0.00244224072 -0.00309978426 0.00409999862
v -0.00253197551 -0.00305359811 0.00409999862
v -0.00261315703 -0.00299671292 0.00409999862
v -0.00268527865 -0.00293025374 0.00409999862
v -0.00274774432 -0.00285533071 0.00409999862
v -0.0028000474 -0.0027730763 0.00409999862
v -0.00284168124 -0.0026845932 0.00409999862
v -0.00287204981 -0.00259101391 0.00409999862
v -0.00289067626 -0.0024934411 0.00409999862
v -0.00289702415 -0.00239299983 0.00409999862
v -0.00288558006 -0.00224604458 0.00409999862
v -0.0028526783 -0.00211568922 0.00409999862
v -0.00280055404 -0.00200045854 0.00409999862
v -0.00273135304 -0.00189885497 0.00409999862
v -0.00264728069 -0.0018094033 0.00409999862
v -0.00255051255 -0.00173062831 0.00409999862
v -0.00244325399 -0.00166103989 0.00409999862
v -0.00232768059 -0.00159914792 0.00409999862
v -0.00220599771 -0.00154348463 0.00409999862
v -0.00208035111 -0.00149255991 0.00409999862
v -0.00195297599 -0.00144489855 0.00409999862
v -0.0018260181 -0.00139900297 0.00409999862
v -0.0012730062 -0.00120300055 0.00409999862
v -0.0012730062 -0.00103500485 0.00409999862
v -0.00127694011 -0.000941775739 0.00409999862
v -0.00128877163 -0.000857926905 0.00409999862
v -0.00130844116 -0.000783219934 0.00409999862
v -0.00133600831 -0.000717408955 0.00409999862
v -0.00137144327 -0.000660248101 0.00409999862
v -0.00141477585 -0.000611498952 0.00409999862
v -0.00146594644 -0.00057092309 0.00409999862
v -0.00152501464 -0.000538259745 0.00409999862
v -0.00159195065 -0.000513285398 0.00409999862
v -0.00166675448 -0.000495739281 0.00409999862
v -0.00174945593 -0.000485397875 0.00409999862
v -0.00184002519 -0.000482000411 0.00409999862
v -0.00192588568 -0.000485375524 0.00409999862
v -0.00201183558 -0.000495582819 0.00409999862
v -0.00209769607 -0.000512734056 0.00409999862
v -0.00218328834 -0.000536963344 0.00409999862
v -0.00226837397 -0.000568389893 0.00409999862
v -0.00235277414 -0.000607125461 0.00409999862
v -0.00243631005 -0.00065330416 0.00409999862
v -0.00251874328 -0.000707037747 0.00409999862
v -0.00259995461 -0.000768452883 0.00409999862
v -0.00267970562 -0.000837676227 0.00409999862
v -0.0027577877 -0.000914812088 0.00409999862
v -0.00283402205 -0.00100000203 0.00409999862
v -0.00283402205 -0.000321000814 0.00409999862
v -0.00277072191 -0.000252313912 0.00409999862
v -0.00270327926 -0.000189721584 0.00409999862
v -0.00263166428 -0.00013320148 0.00409999862
v -0.00255581737 -8.27461481e-05 0.00409999862
v -0.00247570872 -3.83108854e-05 0.00409999862
v -0.00239127874 1.2665987e-07 0.00409999862
v -0.00230243802 3.25739384e-05 0.00409999862
v -0.00220921636 5.90756536e-05 0.00409999862
v -0.00211149454 7.9639256e-05 0.00409999862
v -0.00200924277 9.43019986e-05 0.00409999862
v -0.00190243125 0.000103078783 0.00409999862
v -0.00179103017 0.00010599941 0.00409999862
v -0.00163474679 9.92491841e-05 0.00409999862
v -0.00148531795 7.88420439e-05 0.00409999862
v -0.00134399533 4.45321202e-05 0.00409999862
v -0.00121209025 -3.92645597e-06 0.00409999862
v -0.00109088421 -6.67721033e-05 0.00409999862
v -0.000981628895 -0.000144250691 0.00409999862
v -0.000885665417 -0.000236608088 0.00409999862
v -0.000804275274 -0.000344075263 0.00409999862
v -0.000738710165 -0.000466905534 0.00409999862
v -0.000690311193 -0.000605344772 0.00409999862
v -0.000660300255 -0.000759631395 0.00409999862
v -0.000650018454 -0.000930003822 0.00409999862
v -0.000650018454 -0.00254700333 0.00409999862
v -0.000649154186 -0.00257516652 0.00409999862
v -0.000646561384 -0.00260024518 0.00409999862
v -0.000642240047 -0.0026223585 0.00409999862
v -0.000636279583 -0.00264163315 0.00409999862
v -0.000628650188 -0.00265818089 0.00409999862
v -0.000619381666 -0.00267212838 0.00409999862
v -0.000608533621 -0.00268359482 0.00409999862
v -0.00059607625 -0.00269270688 0.00409999862
v -0.000582098961 -0.00269958377 0.00409999862
v -0.000566571951 -0.00270433724 0.00409999862
v -0.000549525023 -0.00270710886 0.00409999862
v -0.00053101778 -0.00270800292 0.00409999862
v -0.000513970852 -0.00270669907 0.00409999862
v -0.000494480133 -0.00270284712 0.00409999862
v -0.000472724438 -0.00269652158 0.00409999862
v -0.000448822975 -0.00268778205 0.00409999862
v -0.000422984362 -0.00267671049 0.00409999862
v -0.000395387411 -0.00266337395 0.00409999862
v -0.000366181135 -0.00264785439 0.00409999862
v -0.000335544348 -0.00263022631 0.00409999862
v -0.00030362606 -0.00261054933 0.00409999862
v -0.00027063489 -0.00258890539 0.00409999862
v -0.000236690044 -0.00256536156 0.00409999862
v -0.000202029943 -0.00253999978 0.00409999862
v -0.000202029943 -0.00291800499 0.00409999862
v -0.00140434504 -0.00159160793 0.00409999862
v -0.00153136253 -0.00163787603 0.00409999862
v -0.00165277719 -0.00168545544 0.00409999862
v -0.00176715851 -0.0017350018 0.00409999862
v -0.00187319517 -0.00178717077 0.00409999862
v -0.00196951628 -0.00184262544 0.00409999862
v -0.00205475092 -0.00190201402 0.00409999862
v -0.00212752819 -0.0019659996 0.00409999862
v -0.00218650699 -0.00203523785 0.00409999862
v -0.0022303462 -0.00211037695 0.00409999862
v -0.00225761533 -0.00219208002 0.00409999862
v -0.00226700306 -0.0022810027 0.00409999862
v -0.00226315856 -0.00234408677 0.00409999862
v -0.00225180387 -0.002403602 0.00409999862
v -0.00223344564 -0.00245917588 0.00409999862
v -0.00220841169 -0.00251044333 0.00409999862
v -0.00217717886 -0.00255705416 0.00409999862
v -0.00214013457 -0.0025986284 0.00409999862
v -0.00209769607 -0.00263480842 0.00409999862
v -0.00205028057 -0.00266522169 0.00409999862
v -0.00199827552 -0.00268951803 0.00409999862
v -0.00194212794 -0.00270732492 0.00409999862
v -0.00188222528 -0.00271826982 0.00409999862
v -0.00181901455 -0.00272200257 0.00409999862
v -0.00177031755 -0.00271998346 0.00409999862
v -0.0017221868 -0.00271400064 0.00409999862
v -0.0016746521 -0.00270417333 0.00409999862
v -0.00162768364 -0.00269062817 0.00409999862
v -0.00158131123 -0.00267349184 0.00409999862
v -0.00153550506 -0.00265287608 0.00409999862
v -0.00149029493 -0.00262890756 0.00409999862
v -0.00144568086 -0.00260170549 0.00409999862
v -0.00140163302 -0.00257139653 0.00409999862
v -0.00135818124 -0.00253809243 0.00409999862
v -0.0013152957 -0.00250191987 0.00409999862
v -0.0012730062 -0.00246300548 0.00409999862
v -0.0012730062 -0.00154600292 0.00409999862
v -0.00324702263 4.29973006e-05 0.00409999862
v -0.00324702263 -0.000517003238 0.00409999862
v -0.00424101949 -0.000517003238 0.00409999862
v -0.00424101949 -0.0021269992 0.00409999862
v -0.00423568487 -0.0022143051 0.00409999862
v -0.00422048569 -0.00229108334 0.00409999862
v -0.00419661403 -0.00235789269 0.00409999862
v -0.00416532159 -0.00241529942 0.00409999862
v -0.00412780046 -0.00246385485 0.00409999862
v -0.00408527255 -0.00250412524 0.00409999862
v -0.00403895974 -0.00253666937 0.00409999862
v -0.00399005413 -0.0025620386 0.00409999862
v -0.00393980742 -0.00258079916 0.00409999862
v -0.00388938189 -0.00259350985 0.00409999862
v -0.00384005904 -0.00260072201 0.00409999862
v -0.00379303098 -0.00260300189 0.00409999862
v -0.0037368536 -0.00260140002 0.00409999862
v -0.0036803782 -0.00259658694 0.00409999862
v -0.00362348557 -0.00258856267 0.00409999862
v -0.0035661757 -0.00257733464 0.00409999862
v -0.00350835919 -0.00256289542 0.00409999862
v -0.00345000625 -0.00254525244 0.00409999862
v -0.00339108706 -0.00252439827 0.00409999862
v -0.00333154202 -0.00250033289 0.00409999862
v -0.00327131152 -0.00247306377 0.00409999862
v -0.00321033597 -0.00244258344 0.00409999862
v -0.00314858556 -0.00240889937 0.00409999862
v -0.00308603048 -0.00237200409 0.00409999862
v -0.00308603048 -0.00295300037 0.00409999862
v -0.00314259529 -0.00298213214 0.00409999862
v -0.00320327282 -0.0030098781 0.00409999862
v -0.0032671392 -0.00303601474 0.00409999862
v -0.00333335996 -0.00306033343 0.00409999862
v -0.00340101123 -0.00308261067 0.00409999862
v -0.00346925855 -0.00310263038 0.00409999862
v -0.00353723764 -0.00312016159 0.00409999862
v -0.00360402465 -0.00313500315 0.00409999862
v -0.00366875529 -0.00314692408 0.00409999862
v -0.00373059511 -0.00315570831 0.00409999862
v -0.00378865004 -0.00316113979 0.00409999862
v -0.003842026 -0.00316300243 0.00409999862
v -0.00400477648 -0.00315441191 0.00409999862
v -0.00415349007 -0.0031292662 0.00409999862
v -0.00428816676 -0.00308851898 0.00409999862
v -0.00440874696 -0.00303311646 0.00409999862
v -0.00451526046 -0.00296399742 0.00409999862
v -0.00460764766 -0.00288213044 0.00409999862
v -0.00468587875 -0.00278843939 0.00409999862
v -0.00474995375 -0.00268389285 0.00409999862
v -0.00479981303 -0.00256942213 0.00409999862
v -0.00483545661 -0.00244598836 0.00409999862
v -0.00485688448 -0.00231453031 0.00409999862
v -0.00486400723 -0.00217600167 0.00409999862
v -0.00486400723 -0.000517003238 0.00409999862
v -0.00541001558 -0.000517003238 0.00409999862
v -0.00541001558 -0.000447005033 0.00409999862
v -0.00424101949 0.000693999231 0.00409999862
v -0.00424101949 4.29973006e-05 0.00409999862
v -0.00324702263 4.29973006e-05 0.00409999862
v -0.00324702263 4.29973006e-05 0.00450000539
v -0.00324702263 -0.000517003238 0.00409999862
v -0.00324702263 -0.000517003238 0.00450000539
v -0.00424101949 -0.000517003238 0.00409999862
v -0.00424101949 -0.000517003238 0.00450000539
v -0.00424101949 -0.0021269992 0.00409999862
v -0.00424101949 -0.0021269992 0.00450000539
v -0.00423568487 -0.0022143051 0.00409999862
v -0.00423568487 -0.0022143051 0.00450000539
v -0.00422048569 -0.00229108334 0.00409999862
v -0.00422048569 -0.00229108334 0.00450000539
v -0.00419661403 -0.00235789269 0.00409999862
v -0.00419661403 -0.00235789269 0.00450000539
v -0.00416532159 -0.00241529942 0.00409999862
v -0.00416532159 -0.00241529942 0.00450000539
v -0.00412780046 -0.00246385485 0.00409999862
v -0.00412780046 -0.00246385485 0.00450000539
v -0.00408527255 -0.00250412524 0.00409999862
v -0.00408527255 -0.00250412524 0.00450000539
v -0.00403895974 -0.00253666937 0.00409999862
v -0.00403895974 -0.00253666937 0.00450000539
v -0.00399005413 -0.0025620386 0.00409999862
v -0.00399005413 -0.0025620386 0.00450000539
v -0.00393980742 -0.00258079916 0.00409999862
v -0.00393980742 -0.00258079916 0.00450000539
v -0.00388938189 -0.00259350985 0.00409999862
v -0.00388938189 -0.00259350985 0.00450000539
v -0.00384005904 -0.00260072201 0.00409999862
v -0.00384005904 -0.00260072201 0.00450000539
v -0.00379303098 -0.00260300189 0.00409999862
v -0.00379303098 -0.00260300189 0.00450000539
v -0.0037368536 -0.00260140002 0.00409999862
v -0.0037368536 -0.00260140002 0.00450000539
v -0.0036803782 -0.00259658694 0.00409999862
v -0.0036803782 -0.00259658694 0.00450000539
v -0.00362348557 -0.00258856267 0.00409999862
v -0.00362348557 -0.00258856267 0.00450000539
v -0.0035661757 -0.00257733464 0.00409999862
v -0.0035661757 -0.00257733464 0.00450000539
v -0.00350835919 -0.00256289542 0.00409999862
v -0.00350835919 -0.00256289542 0.00450000539
v -0.00345000625 -0.00254525244 0.00409999862
v -0.00345000625 -0.00254525244 0.00450000539
v -0.00339108706 -0.00252439827 0.00409999862
v -0.00339108706 -0.00252439827 0.00450000539
v -0.00333154202 -0.00250033289 0.00409999862
v -0.00333154202 -0.00250033289 0.00450000539
v -0.00327131152 -0.00247306377 0.00409999862
v -0.00327131152 -0.00247306377 0.00450000539
v -0.00321033597 -0.00244258344 0.00409999862
v -0.00321033597 -0.00244258344 0.00450000539
v -0.00314858556 -0.00240889937 0.00409999862
v -0.00314858556 -0.00240889937 0.00450000539
v -0.00308603048 -0.00237200409 0.00409999862
v -0.00308603048 -0.00237200409 0.00450000539
v -0.00308603048 -0.00295300037 0.00409999862
v -0.00308603048 -0.00295300037 0.00450000539
v -0.00314259529 -0.00298213214 0.00409999862
v -0.00314259529 -0.00298213214 0.00450000539
v -0.00320327282 -0.0030098781 0.00409999862
v -0.00320327282 -0.0030098781 0.00450000539
v -0.0032671392 -0.00303601474 0.00409999862
v -0.0032671392 -0.00303601474 0.00450000539
v -0.00333335996 -0.00306033343 0.00409999862
v -0.00333335996 -0.00306033343 0.00450000539
v -0.00340101123 -0.00308261067 0.00409999862
v -0.00340101123 -0.00308261067 0.00450000539
v -0.00346925855 -0.00310263038 0.00409999862
v -0.00346925855 -0.00310263038 0.00450000539
v -0.00353723764 -0.00312016159 0.00409999862
v -0.00353723764 -0.00312016159 0.00450000539
v -0.00360402465 -0.00313500315 0.00409999862
v -0.00360402465 -0.00313500315 0.00450000539
v -0.00366875529 -0.00314692408 0.00409999862
v -0.00366875529 -0.00314692408 0.00450000539
v -0.00373059511 -0.00315570831 0.00409999862
v -0.00373059511 -0.00315570831 0.00450000539
v -0.00378865004 -0.00316113979 0.00409999862
v -0.00378865004 -0.00316113979 0.00450000539
v -0.003842026 -0.00316300243 0.00409999862
v -0.003842026 -0.00316300243 0.00450000539
v -0.00400477648 -0.00315441191 0.00409999862
v -0.00400477648 -0.00315441191 0.00450000539
v -0.00415349007 -0.0031292662 0.00409999862
v -0.00415349007 -0.0031292662 0.00450000539
v -0.00428816676 -0.00308851898 0.00409999862
v -0.00428816676 -0.00308851898 0.00450000539
v -0.00440874696 -0.00303311646 0.00409999862
v -0.00440874696 -0.00303311646 0.00450000539
v -0.00451526046 -0.00296399742 0.00409999862
v -0.00451526046 -0.00296399742 0.00450000539
v -0.00460764766 -0.00288213044 0.00409999862
v -0.00460764766 -0.00288213044 0.00450000539
v -0.00468587875 -0.00278843939 0.00409999862
v -0.00468587875 -0.00278843939 0.00450000539
v -0.00474995375 -0.00268389285 0.00409999862
v -0.00474995375 -0.00268389285 0.00450000539
v -0.00479981303 -0.00256942213 0.00409999862
v -0.00479981303 -0.00256942213 0.00450000539
v -0.00483545661 -0.00244598836 0.00409999862
v -0.00483545661 -0.00244598836 0.00450000539
v -0.00485688448 -0.00231453031 0.00409999862
v -0.00485688448 -0.00231453031 0.00450000539
v -0.00486400723 -0.00217600167 0.00409999862
v -0.00486400723 -0.00217600167 0.00450000539
v -0.00486400723 -0.000517003238 0.00409999862
v -0.00486400723 -0.000517003238 0.00450000539
v -0.00541001558 -0.000517003238 0.00409999862
v -0.00541001558 -0.000517003238 0.00450000539
v -0.00541001558 -0.000447005033 0.00409999862
v -0.00541001558 -0.000447005033 0.00450000539
v -0.00424101949 0.000693999231 0.00409999862
v -0.00424101949 0.000693999231 0.00450000539
v -0.00424101949 4.29973006e-05 0.00409999862
v -0.00424101949 4.29973006e-05 0.00450000539
v -0.000270396471 -0.00296252221 0.00409999862
v -0.000270396471 -0.00296252221 0.00450000539
v -0.000332653522 -0.00300177187 0.00409999862
v -0.000332653522 -0.00300177187 0.00450000539
v -0.000389605761 -0.00303601474 0.00409999862
v -0.000389605761 -0.00303601474 0.00450000539
v -0.00044208765 -0.00306551903 0.00409999862
v -0.00044208765 -0.00306551903 0.00450000539
v -0.000490993261 -0.00309055299 0.00409999862
v -0.000490993261 -0.00309055299 0.00450000539
v -0.000537127256 -0.00311137736 0.00409999862
v -0.000537127256 -0.00311137736 0.00450000539
v -0.000581383705 -0.00312826782 0.00409999862
v -0.000581383705 -0.00312826782 0.00450000539
v -0.000624597073 -0.00314148515 0.00409999862
v -0.000624597073 -0.00314148515 0.00450000539
v -0.000667631626 -0.00315129757 0.00409999862
v -0.000667631626 -0.00315129757 0.00450000539
v -0.000711292028 -0.00315798074 0.00409999862
v -0.000711292028 -0.00315798074 0.00450000539
v -0.000756472349 -0.00316178799 0.00409999862
v -0.000756472349 -0.00316178799 0.00450000539
v -0.000804007053 -0.00316300243 0.00409999862
v -0.000804007053 -0.00316300243 0.00450000539
v -0.00086966157 -0.00316094607 0.00409999862
v -0.00086966157 -0.00316094607 0.00450000539
v -0.000930190086 -0.00315470248 0.00409999862
v -0.000930190086 -0.00315470248 0.00450000539
v -0.000985682011 -0.00314418972 0.00409999862
v -0.000985682011 -0.00314418972 0.00450000539
v -0.00103631616 -0.003129296 0.00409999862
v -0.00103631616 -0.003129296 0.00450000539
v -0.00108218193 -0.00310993195 0.00409999862
v -0.00108218193 -0.00310993195 0.00450000539
v -0.00112339854 -0.00308600068 0.00409999862
v -0.00112339854 -0.00308600068 0.00450000539
v -0.0011600852 -0.00305740535 0.00409999862
v -0.0011600852 -0.00305740535 0.00450000539
v -0.00119239092 -0.00302404165 0.00409999862
v -0.00119239092 -0.00302404165 0.00450000539
v -0.0012204051 -0.00298581272 0.00409999862
v -0.0012204051 -0.00298581272 0.00450000539
v -0.00124427676 -0.00294262916 0.00409999862
v -0.00124427676 -0.00294262916 0.00450000539
v -0.00126409531 -0.0028943941 0.00409999862
v -0.00126409531 -0.0028943941 0.00450000539
v -0.00128000975 -0.00284100324 0.00409999862
v -0.00128000975 -0.00284100324 0.00450000539
v -0.00134855509 -0.00289291888 0.00409999862
v -0.00134855509 -0.00289291888 0.00450000539
v -0.00141760707 -0.00294020027 0.00409999862
v -0.00141760707 -0.00294020027 0.00450000539
v -0.00148716569 -0.00298286229 0.00409999862
v -0.00148716569 -0.00298286229 0.00450000539
v -0.00155717134 -0.00302092731 0.00409999862
v -0.00155717134 -0.00302092731 0.00450000539
v -0.00162753463 -0.00305442512 0.00409999862
v -0.00162753463 -0.00305442512 0.00450000539
v -0.00169825554 -0.00308337808 0.00409999862
v -0.00169825554 -0.00308337808 0.00450000539
v -0.00176927447 -0.00310780853 0.00409999862
v -0.00176927447 -0.00310780853 0.00450000539
v -0.00184053183 -0.00312774628 0.00409999862
v -0.00184053183 -0.00312774628 0.00450000539
v -0.0019119978 -0.00314320624 0.00409999862
v -0.0019119978 -0.00314320624 0.00450000539
v -0.00198358297 -0.0031542182 0.00409999862
v -0.00198358297 -0.0031542182 0.00450000539
v -0.00205528736 -0.00316081196 0.00409999862
v -0.00205528736 -0.00316081196 0.00450000539
v -0.00212702155 -0.00316300243 0.00409999862
v -0.00212702155 -0.00316300243 0.00450000539
v -0.00223922729 -0.003155604 0.00409999862
v -0.00223922729 -0.003155604 0.00450000539
v -0.0023444593 -0.00313416123 0.00409999862
v -0.0023444593 -0.00313416123 0.00450000539
v -0.00244224072 -0.00309978426 0.00409999862
v -0.00244224072 -0.00309978426 0.00450000539
v -0.00253197551 -0.00305359811 0.00409999862
v -0.00253197551 -0.00305359811 0.00450000539
v -0.00261315703 -0.00299671292 0.00409999862
v -0.00261315703 -0.00299671292 0.00450000539
v -0.00268527865 -0.00293025374 0.00409999862
v -0.00268527865 -0.00293025374 0.00450000539
v -0.00274774432 -0.00285533071 0.00409999862
v -0.00274774432 -0.00285533071 0.00450000539
v -0.0028000474 -0.0027730763 0.00409999862
v -0.0028000474 -0.0027730763 0.00450000539
v -0.00284168124 -0.0026845932 0.00409999862
v -0.00284168124 -0.0026845932 0.00450000539
v -0.00287204981 -0.00259101391 0.00409999862
v -0.00287204981 -0.00259101391 0.00450000539
v -0.00289067626 -0.0024934411 0.00409999862
v -0.00289067626 -0.0024934411 0.00450000539
v -0.00289702415 -0.00239299983 0.00409999862
v -0.00289702415 -0.00239299983 0.00450000539
v -0.00288558006 -0.00224604458 0.00409999862
v -0.00288558006 -0.00224604458 0.00450000539
v -0.0028526783 -0.00211568922 0.00409999862
v -0.0028526783 -0.00211568922 0.00450000539
v -0.00280055404 -0.00200045854 0.00409999862
v -0.00280055404 -0.00200045854 0.00450000539
v -0.00273135304 -0.00189885497 0.00409999862
v -0.00273135304 -0.00189885497 0.00450000539
v -0.00264728069 -0.0018094033 0.00409999862
v -0.00264728069 -0.0018094033 0.00450000539
v -0.00255051255 -0.00173062831 0.00409999862
v -0.00255051255 -0.00173062831 0.00450000539
v -0.00244325399 -0.00166103989 0.00409999862
v -0.00244325399 -0.00166103989 0.00450000539
v -0.00232768059 -0.00159914792 0.00409999862
v -0.00232768059 -0.00159914792 0.00450000539
v -0.00220599771 -0.00154348463 0.00409999862
v -0.00220599771 -0.00154348463 0.00450000539
v -0.00208035111 -0.00149255991 0.00409999862
v -0.00208035111 -0.00149255991 0.00450000539
v -0.00195297599 -0.00144489855 0.00409999862
v -0.00195297599 -0.00144489855 0.00450000539
v -0.0018260181 -0.00139900297 0.00409999862
v -0.0018260181 -0.00139900297 0.00450000539
v -0.0012730062 -0.00120300055 0.00409999862
v -0.0012730062 -0.00120300055 0.00450000539
v -0.0012730062 -0.00103500485 0.00409999862
v -0.0012730062 -0.00103500485 0.00450000539
v -0.00127694011 -0.000941775739 0.00409999862
v -0.00127694011 -0.000941775739 0.00450000539
v -0.00128877163 -0.000857926905 0.00409999862
v -0.00128877163 -0.000857926905 0.00450000539
v -0.00130844116 -0.000783219934 0.00409999862
v -0.00130844116 -0.000783219934 0.00450000539
v -0.00133600831 -0.000717408955 0.00409999862
v -0.00133600831 -0.000717408955 0.00450000539
v -0.00137144327 -0.000660248101 0.00409999862
v -0.00137144327 -0.000660248101 0.00450000539
v -0.00141477585 -0.000611498952 0.00409999862
v -0.00141477585 -0.000611498952 0.00450000539
v -0.00146594644 -0.00057092309 0.00409999862
v -0.00146594644 -0.00057092309 0.00450000539
v -0.00152501464 -0.000538259745 0.00409999862
v -0.00152501464 -0.000538259745 0.00450000539
v -0.00159195065 -0.000513285398 0.00409999862
v -0.00159195065 -0.000513285398 0.00450000539
v -0.00166675448 -0.000495739281 0.00409999862
v -0.00166675448 -0.000495739281 0.00450000539
v -0.00174945593 -0.000485397875 0.00409999862
v -0.00174945593 -0.000485397875 0.00450000539
v -0.00184002519 -0.000482000411 0.00409999862
v -0.00184002519 -0.000482000411 0.00450000539
v -0.00192588568 -0.000485375524 0.00409999862
v -0.00192588568 -0.000485375524 0.00450000539
v -0.00201183558 -0.000495582819 0.00409999862
v -0.00201183558 -0.000495582819 0.00450000539
v -0.00209769607 -0.000512734056 0.00409999862
v -0.00209769607 -0.000512734056 0.00450000539
v -0.00218328834 -0.000536963344 0.00409999862
v -0.00218328834 -0.000536963344 0.00450000539
v -0.00226837397 -0.000568389893 0.00409999862
v -0.00226837397 -0.000568389893 0.00450000539
v -0.00235277414 -0.000607125461 0.00409999862
v -0.00235277414 -0.000607125461 0.00450000539
v -0.00243631005 -0.00065330416 0.00409999862
v -0.00243631005 -0.00065330416 0.00450000539
v -0.00251874328 -0.000707037747 0.00409999862
v -0.00251874328 -0.000707037747 0.00450000539
v -0.00259995461 -0.000768452883 0.00409999862
v -0.00259995461 -0.000768452883 0.00450000539
v -0.00267970562 -0.000837676227 0.00409999862
v -0.00267970562 -0.000837676227 0.00450000539
v -0.0027577877 -0.000914812088 0.00409999862
v -0.0027577877 -0.000914812088 0.00450000539
v -0.00283402205 -0.00100000203 0.00409999862
v -0.00283402205 -0.00100000203 0.00450000539
v -0.00283402205 -0.000321000814 0.00409999862
v -0.00283402205 -0.000321000814 0.00450000539
v -0.00277072191 -0.000252313912 0.00409999862
v -0.00277072191 -0.000252313912 0.00450000539
v -0.00270327926 -0.000189721584 0.00409999862
v -0.00270327926 -0.000189721584 0.00450000539
v -0.00263166428 -0.00013320148 0.00409999862
v -0.00263166428 -0.00013320148 0.00450000539
v -0.00255581737 -8.27461481e-05 0.00409999862
v -0.00255581737 -8.27461481e-05 0.00450000539
v -0.00247570872 -3.83108854e-05 0.00409999862
v -0.00247570872 -3.83108854e-05 0.00450000539
v -0.00239127874 1.2665987e-07 0.00409999862
v -0.00239127874 1.2665987e-07 0.00450000539
v -0.00230243802 3.25739384e-05 0.00409999862
v -0.00230243802 3.25739384e-05 0.00450000539
v -0.00220921636 5.90756536e-05 0.00409999862
v -0.00220921636 5.90756536e-05 0.00450000539
v -0.00211149454 7.9639256e-05 0.00409999862
v -0.00211149454 7.9639256e-05 0.00450000539
v -0.00200924277 9.43019986e-05 0.00409999862
v -0.00200924277 9.43019986e-05 0.00450000539
v -0.00190243125 0.000103078783 0.00409999862
v -0.00190243125 0.000103078783 0.00450000539
v -0.00179103017 0.00010599941 0.00409999862
v -0.00179103017 0.00010599941 0.00450000539
v -0.00163474679 9.92491841e-05 0.00409999862
v -0.00163474679 9.92491841e-05 0.00450000539
v -0.00148531795 7.88420439e-05 0.00409999862
v -0.00148531795 7.88420439e-05 0.00450000539
v -0.00134399533 4.45321202e-05 0.00409999862
v -0.00134399533 4.45321202e-05 0.00450000539
v -0.00121209025 -3.92645597e-06 0.00409999862
v -0.00121209025 -3.92645597e-06 0.00450000539
v -0.00109088421 -6.67721033e-05 0.00409999862
v -0.00109088421 -6.67721033e-05 0.00450000539
v -0.000981628895 -0.000144250691 0.00409999862
v -0.000981628895 -0.000144250691 0.00450000539
v -0.000885665417 -0.000236608088 0.00409999862
v -0.000885665417 -0.000236608088 0.00450000539
v -0.000804275274 -0.000344075263 0.00409999862
v -0.000804275274 -0.000344075263 0.00450000539
v -0.000738710165 -0.000466905534 0.00409999862
v -0.000738710165 -0.000466905534 0.00450000539
v -0.000690311193 -0.000605344772 0.00409999862
v -0.000690311193 -0.000605344772 0.00450000539
v -0.000660300255 -0.000759631395 0.00409999862
v -0.000660300255 -0.000759631395 0.00450000539
v -0.000650018454 -0.000930003822 0.00409999862
v -0.000650018454 -0.000930003822 0.00450000539
v -0.000650018454 -0.00254700333 0.00409999862
v -0.000650018454 -0.00254700333 0.00450000539
v -0.000649154186 -0.00257516652 0.00409999862
v -0.000649154186 -0.00257516652 0.00450000539
v -0.000646561384 -0.00260024518 0.00409999862
v -0.000646561384 -0.00260024518 0.00450000539
v -0.000642240047 -0.0026223585 0.00409999862
v -0.000642240047 -0.0026223585 0.00450000539
v -0.000636279583 -0.00264163315 0.00409999862
v -0.000636279583 -0.00264163315 0.00450000539
v -0.000628650188 -0.00265818089 0.00409999862
v -0.000628650188 -0.00265818089 0.00450000539
v -0.000619381666 -0.00267212838 0.00409999862
v -0.000619381666 -0.00267212838 0.00450000539
v -0.000608533621 -0.00268359482 0.00409999862
v -0.000608533621 -0.00268359482 0.00450000539
v -0.00059607625 -0.00269270688 0.00409999862
v -0.00059607625 -0.00269270688 0.00450000539
v -0.000582098961 -0.00269958377 0.00409999862
v -0.000582098961 -0.00269958377 0.00450000539
v -0.000566571951 -0.00270433724 0.00409999862
v -0.000566571951 -0.00270433724 0.00450000539
v -0.000549525023 -0.00270710886 0.00409999862
v -0.000549525023 -0.00270710886 0.00450000539
v -0.00053101778 -0.00270800292 0.00409999862
v -0.00053101778 -0.00270800292 0.00450000539
v -0.000513970852 -0.00270669907 0.00409999862
v -0.000513970852 -0.00270669907 0.00450000539
v -0.000494480133 -0.00270284712 0.00409999862
v -0.000494480133 -0.00270284712 0.00450000539
v -0.000472724438 -0.00269652158 0.00409999862
v -0.000472724438 -0.00269652158 0.00450000539
v -0.000448822975 -0.00268778205 0.00409999862
v -0.000448822975 -0.00268778205 0.00450000539
v -0.000422984362 -0.00267671049 0.00409999862
v -0.000422984362 -0.00267671049 0.00450000539
v -0.000395387411 -0.00266337395 0.00409999862
v -0.000395387411 -0.00266337395 0.00450000539
v -0.000366181135 -0.00264785439 0.00409999862
v -0.000366181135 -0.00264785439 0.00450000539
v -0.000335544348 -0.00263022631 0.00409999862
v -0.000335544348 -0.00263022631 0.00450000539
v -0.00030362606 -0.00261054933 0.00409999862
v -0.00030362606 -0.00261054933 0.00450000539
v -0.00027063489 -0.00258890539 0.00409999862
v -0.00027063489 -0.00258890539 0.00450000539
v -0.000236690044 -0.00256536156 0.00409999862
v -0.000236690044 -0.00256536156 0.00450000539
v -0.000202029943 -0.00253999978 0.00409999862
v -0.000202029943 -0.00253999978 0.00450000539
v -0.000202029943 -0.00291800499 0.00409999862
v -0.000202029943 -0.00291800499 0.00450000539
v -0.00140434504 -0.00159160793 0.00409999862
v -0.00140434504 -0.00159160793 0.00450000539
v -0.00153136253 -0.00163787603 0.00409999862
v -0.00153136253 -0.00163787603 0.00450000539
v -0.00165277719 -0.00168545544 0.00409999862
v -0.00165277719 -0.00168545544 0.00450000539
v -0.00176715851 -0.0017350018 0.00409999862
v -0.00176715851 -0.0017350018 0.00450000539
v -0.00187319517 -0.00178717077 0.00409999862
v -0.00187319517 -0.00178717077 0.00450000539
v -0.00196951628 -0.00184262544 0.00409999862
v -0.00196951628 -0.00184262544 0.00450000539
v -0.00205475092 -0.00190201402 0.00409999862
v -0.00205475092 -0.00190201402 0.00450000539
v -0.00212752819 -0.0019659996 0.00409999862
v -0.00212752819 -0.0019659996 0.00450000539
v -0.00218650699 -0.00203523785 0.00409999862
v -0.00218650699 -0.00203523785 0.00450000539
v -0.0022303462 -0.00211037695 0.00409999862
v -0.0022303462 -0.00211037695 0.00450000539
v -0.00225761533 -0.00219208002 0.00409999862
v -0.00225761533 -0.00219208002 0.00450000539
v -0.00226700306 -0.0022810027 0.00409999862
v -0.00226700306 -0.0022810027 0.00450000539
v -0.00226315856 -0.00234408677 0.00409999862
v -0.00226315856 -0.00234408677 0.00450000539
v -0.00225180387 -0.002403602 0.00409999862
v -0.00225180387 -0.002403602 0.00450000539
v -0.00223344564 -0.00245917588 0.00409999862
v -0.00223344564 -0.00245917588 0.00450000539
v -0.00220841169 -0.00251044333 0.00409999862
v -0.00220841169 -0.00251044333 0.00450000539
v -0.00217717886 -0.00255705416 0.00409999862
v -0.00217717886 -0.00255705416 0.00450000539
v -0.00214013457 -0.0025986284 0.00409999862
v -0.00214013457 -0.0025986284 0.00450000539
v -0.00209769607 -0.00263480842 0.00409999862
v -0.00209769607 -0.00263480842 0.00450000539
v -0.00205028057 -0.00266522169 0.00409999862
v -0.00205028057 -0.00266522169 0.00450000539
v -0.00199827552 -0.00268951803 0.00409999862
v -0.00199827552 -0.00268951803 0.00450000539
v -0.00194212794 -0.00270732492 0.00409999862
v -0.00194212794 -0.00270732492 0.00450000539
v -0.00188222528 -0.00271826982 0.00409999862
v -0.00188222528 -0.00271826982 0.00450000539
v -0.00181901455 -0.00272200257 0.00409999862
v -0.00181901455 -0.00272200257 0.00450000539
v -0.00177031755 -0.00271998346 0.00409999862
v -0.00177031755 -0.00271998346 0.00450000539
v -0.0017221868 -0.00271400064 0.00409999862
v -0.0017221868 -0.00271400064 0.00450000539
v -0.0016746521 -0.00270417333 0.00409999862
v -0.0016746521 -0.00270417333 0.00450000539
v -0.00162768364 -0.00269062817 0.00409999862
v -0.00162768364 -0.00269062817 0.00450000539
v -0.00158131123 -0.00267349184 0.00409999862
v -0.00158131123 -0.00267349184 0.00450000539
v -0.00153550506 -0.00265287608 0.00409999862
v -0.00153550506 -0.00265287608 0.00450000539
v -0.00149029493 -0.00262890756 0.00409999862
v -0.00149029493 -0.00262890756 0.00450000539
v -0.00144568086 -0.00260170549 0.00409999862
v -0.00144568086 -0.00260170549 0.00450000539
v -0.00140163302 -0.00257139653 0.00409999862
v -0.00140163302 -0.00257139653 0.00450000539
v -0.00135818124 -0.00253809243 0.00409999862
v -0.00135818124 -0.00253809243 0.00450000539
v -0.0013152957 -0.00250191987 0.00409999862
v -0.0013152957 -0.00250191987 0.00450000539
v -0.0012730062 -0.00246300548 0.00409999862
v -0.0012730062 -0.00246300548 0.00450000539
v -0.0012730062 -0.00154600292 0.00409999862
v -0.0012730062 -0.00154600292 0.00450000539
v 0.00101438165 -0.000134184957 0.00409999862
v 0.00101438165 -0.000134184957 0.00450000539
v 0.00108319521 -9.16868448e-05 0.00409999862
v 0.00108319521 -9.16868448e-05 0.00450000539
v 0.00115248561 -5.34728169e-05 0.00409999862
v 0.00115248561 -5.34728169e-05 0.00450000539
v 0.00122234225 -1.94832683e-05 0.00409999862
v 0.00122234225 -1.94832683e-05 0.00450000539
v 0.00129291415 1.03265047e-05 0.00409999862
v 0.00129291415 1.03265047e-05 0.00450000539
v 0.00136423111 3.60012054e-05 0.00409999862
v 0.00136423111 3.60012054e-05 0.00450000539
v 0.00143644214 5.7592988e-05 0.00409999862
v 0.00143644214 5.7592988e-05 0.00450000539
v 0.00150960684 7.51465559e-05 0.00409999862
v 0.00150960684 7.51465559e-05 0.00450000539
v 0.00158384442 8.87140632e-05 0.00409999862
v 0.00158384442 8.87140632e-05 0.00450000539
v 0.0016592741 9.83476639e-05 0.00409999862
v 0.0016592741 9.83476639e-05 0.00450000539
v 0.00173595548 0.000104092062 0.00409999862
v 0.00173595548 0.000104092062 0.00450000539
v 0.00181397796 0.00010599941 0.00409999862
v 0.00181397796 0.00010599941 0.00450000539
v 0.00200539827 9.23871994e-05 0.00409999862
v 0.00200539827 9.23871994e-05 0.00450000539
v 0.00218680501 5.25563955e-05 0.00409999862
v 0.00218680501 5.25563955e-05 0.00450000539
v 0.00235691667 -1.20177865e-05 0.00409999862
v 0.00235691667 -1.20177865e-05 0.00450000539
v 0.00251451135 -9.98526812e-05 0.00409999862
v 0.00251451135 -9.98526812e-05 0.00450000539
v 0.00265827775 -0.000209465623 0.00409999862
v 0.00265827775 -0.000209465623 0.00450000539
v 0.00278699398 -0.000339373946 0.00409999862
v 0.00278699398 -0.000339373946 0.00450000539
v 0.00289934874 -0.000488094985 0.00409999862
v 0.00289934874 -0.000488094985 0.00450000539
v 0.00299412012 -0.000654153526 0.00409999862
v 0.00299412012 -0.000654153526 0.00450000539
v 0.00307005644 -0.000836052001 0.00409999862
v 0.00307005644 -0.000836052001 0.00450000539
v 0.00312584639 -0.00103231519 0.00409999862
v 0.00312584639 -0.00103231519 0.00450000539
v 0.00316023827 -0.00124146044 0.00409999862
v 0.00316023827 -0.00124146044 0.00450000539
v 0.00317198038 -0.00146200508 0.00409999862
v 0.00317198038 -0.00146200508 0.00450000539
v 0.00315898657 -0.00171898305 0.00409999862
v 0.00315898657 -0.00171898305 0.00450000539
v 0.00312045217 -0.00195744634 0.00409999862
v 0.00312045217 -0.00195744634 0.00450000539
v 0.00305715203 -0.00217665732 0.00409999862
v 0.00305715203 -0.00217665732 0.00450000539
v 0.00296977162 -0.00237589329 0.00409999862
v 0.00296977162 -0.00237589329 0.00450000539
v 0.002859056 -0.00255441666 0.00409999862
v 0.002859056 -0.00255441666 0.00450000539
v 0.00272572041 -0.0027115047 0.00409999862
v 0.00272572041 -0.0027115047 0.00450000539
v 0.00257053971 -0.00284641981 0.00409999862
v 0.00257053971 -0.00284641981 0.00450000539
v 0.00239419937 -0.00295844674 0.00409999862
v 0.00239419937 -0.00295844674 0.00450000539
v 0.00219744444 -0.00304684788 0.00409999862
v 0.00219744444 -0.00304684788 0.00450000539
v 0.00198101997 -0.00311089307 0.00409999862
v 0.00198101997 -0.00311089307 0.00450000539
v 0.00174561143 -0.00314985216 0.00409999862
v 0.00174561143 -0.00314985216 0.00450000539
v 0.00149199367 -0.00316300243 0.00409999862
v 0.00149199367 -0.00316300243 0.00450000539
v 0.00138810277 -0.00316112489 0.00409999862
v 0.00138810277 -0.00316112489 0.00450000539
v 0.00128337741 -0.00315558165 0.00409999862
v 0.00128337741 -0.00315558165 0.00450000539
v 0.00117841363 -0.00314648449 0.00409999862
v 0.00117841363 -0.00314648449 0.00450000539
v 0.00107380748 -0.00313396752 0.00409999862
v 0.00107380748 -0.00313396752 0.00450000539
v 0.000970155001 -0.00311813504 0.00409999862
v 0.000970155001 -0.00311813504 0.00450000539
v 0.000868111849 -0.0030991286 0.00409999862
v 0.000868111849 -0.0030991286 0.00450000539
v 0.000768244267 -0.00307705253 0.00409999862
v 0.000768244267 -0.00307705253 0.00450000539
v 0.000671178102 -0.00305204093 0.00409999862
v 0.000671178102 -0.00305204093 0.00450000539
v 0.000577509403 -0.00302420557 0.00409999862
v 0.000577509403 -0.00302420557 0.00450000539
v 0.000487834215 -0.00299367309 0.00409999862
v 0.000487834215 -0.00299367309 0.00450000539
v 0.000402808189 -0.00296056271 0.00409999862
v 0.000402808189 -0.00296056271 0.00450000539
v 0.00032299757 -0.00292500108 0.00409999862
v 0.00032299757 -0.00292500108 0.00450000539
v 0.00032299757 0.00167399645 0.00409999862
v 0.00032299757 0.00167399645 0.00450000539
v 0.000945985317 0.00167399645 0.00409999862
v 0.000945985317 0.00167399645 0.00450000539
v 0.000945985317 -0.000181004405 0.00409999862
v 0.000945985317 -0.000181004405 0.00450000539
v 0.000993132591 -0.00249069184 0.00409999862
v 0.000993132591 -0.00249069184 0.00450000539
v 0.00104320049 -0.002503708 0.00409999862
v 0.00104320049 -0.002503708 0.00450000539
v 0.00109562278 -0.00251594186 0.00409999862
v 0.00109562278 -0.00251594186 0.00450000539
v 0.0011497736 -0.00252729654 0.00409999862
v 0.0011497736 -0.00252729654 0.00450000539
v 0.00120508671 -0.00253768265 0.00409999862
v 0.00120508671 -0.00253768265 0.00450000539
v 0.00126099586 -0.00254700333 0.00409999862
v 0.00126099586 -0.00254700333 0.00450000539
v 0.00131687522 -0.00255515426 0.00409999862
v 0.00131687522 -0.00255515426 0.00450000539
v 0.00137221813 -0.0025620386 0.00409999862
v 0.00137221813 -0.0025620386 0.00450000539
v 0.00142636895 -0.00256756693 0.00409999862
v 0.00142636895 -0.00256756693 0.00450000539
v 0.00147876143 -0.00257163495 0.00409999862
v 0.00147876143 -0.00257163495 0.00450000539
v 0.00152882934 -0.00257414579 0.00409999862
v 0.00152882934 -0.00257414579 0.00450000539
v 0.00157597661 -0.00257500261 0.00409999862
v 0.00157597661 -0.00257500261 0.00450000539
v 0.00171250105 -0.00256625563 0.00409999862
v 0.00171250105 -0.00256625563 0.00450000539
v 0.0018414557 -0.00254061818 0.00409999862
v 0.0018414557 -0.00254061818 0.00450000539
v 0.0019620657 -0.00249898434 0.00409999862
v 0.0019620657 -0.00249898434 0.00450000539
v 0.00207349658 -0.00244226307 0.00409999862
v 0.00207349658 -0.00244226307 0.00450000539
v 0.00217491388 -0.00237134099 0.00409999862
v 0.00217491388 -0.00237134099 0.00450000539
v 0.00226548314 -0.00228712708 0.00409999862
v 0.00226548314 -0.00228712708 0.00450000539
v 0.00234439969 -0.0021905154 0.00409999862
v 0.00234439969 -0.0021905154 0.00450000539
v 0.00241079926 -0.00208240747 0.00409999862
v 0.00241079926 -0.00208240747 0.00450000539
v 0.0024638772 -0.00196370482 0.00409999862
v 0.0024638772 -0.00196370482 0.00450000539
v 0.00250282884 -0.00183530152 0.00409999862
v 0.00250282884 -0.00183530152 0.00450000539
v 0.00252681971 -0.00169809908 0.00409999862
v 0.00252681971 -0.00169809908 0.00450000539
v 0.00253498554 -0.00155299902 0.00409999862
v 0.00253498554 -0.00155299902 0.00450000539
v 0.00252780318 -0.00139167905 0.00409999862
v 0.00252780318 -0.00139167905 0.00450000539
v 0.00250661373 -0.00124069303 0.00409999862
v 0.00250661373 -0.00124069303 0.00450000539
v 0.00247210264 -0.00110073388 0.00409999862
v 0.00247210264 -0.00110073388 0.00450000539
v 0.00242480636 -0.000972516835 0.00409999862
v 0.00242480636 -0.000972516835 0.00450000539
v 0.00236535072 -0.000856749713 0.00409999862
v 0.00236535072 -0.000856749713 0.00450000539
v 0.00229436159 -0.000754125416 0.00409999862
v 0.00229436159 -0.000754125416 0.00450000539
v 0.00221243501 -0.000665359199 0.00409999862
v 0.00221243501 -0.000665359199 0.00450000539
v 0.00212016702 -0.000591151416 0.00409999862
v 0.00212016702 -0.000591151416 0.00450000539
v 0.00201818347 -0.000532202423 0.00409999862
v 0.00201818347 -0.000532202423 0.00450000539
v 0.00190708041 -0.000489227474 0.00409999862
v 0.00190708041 -0.000489227474 0.00450000539
v 0.00178748369 -0.000462926924 0.00409999862
v 0.00178748369 -0.000462926924 0.00450000539
v 0.00165998936 -0.000454001129 0.00409999862
v 0.00165998936 -0.000454001129 0.00450000539
v 0.00159659982 -0.000455789268 0.00409999862
v 0.00159659982 -0.000455789268 0.00450000539
v 0.00153562427 -0.000461325049 0.00409999862
v 0.00153562427 -0.000461325049 0.00450000539
v 0.00147655606 -0.000470846891 0.00409999862
v 0.00147655606 -0.000470846891 0.00450000539
v 0.00141885877 -0.000484593213 0.00409999862
v 0.00141885877 -0.000484593213 0.00450000539
v 0.00136205554 -0.000502817333 0.00409999862
v 0.00136205554 -0.000502817333 0.00450000539
v 0.00130560994 -0.00052575022 0.00409999862
v 0.00130560994 -0.00052575022 0.00450000539
v 0.00124901533 -0.000553645194 0.00409999862
v 0.00124901533 -0.000553645194 0.00450000539
v 0.00119176507 -0.000586740673 0.00409999862
v 0.00119176507 -0.000586740673 0.00450000539
v 0.00113335252 -0.000625282526 0.00409999862
v 0.00113335252 -0.000625282526 0.00450000539
v 0.00107324123 -0.000669509172 0.00409999862
v 0.00107324123 -0.000669509172 0.00450000539
v 0.00101095438 -0.000719666481 0.00409999862
v 0.00101095438 -0.000719666481 0.00450000539
v 0.000945985317 -0.000776000321 0.00409999862
v 0.000945985317 -0.000776000321 0.00450000539
v 0.000945985317 -0.00247700512 0.00409999862
v 0.000945985317 -0.00247700512 0.00450000539
usemtl screen_white_text_003
f 200 202 201
f 200 203 202
f 163 165 164
f 162 165 163
f 161 165 162
f 161 166 165
f 160 166 161
f 159 166 160
f 158 166 159
f 158 167 166
f 157 167 158
f 156 167 157
f 156 168 167
f 155 168 156
f 154 168 155
f 153 168 154
f 153 169 168
f 203 169 153
f 200 251 203
f 251 250 203
f 250 249 203
f 249 248 203
f 248 247 203
f 247 246 203
f 246 245 203
f 245 244 203
f 244 243 203
f 243 242 203
f 242 169 203
f 242 241 169
f 241 170 169
f 241 240 170
f 240 239 170
f 239 171 170
f 238 171 239
f 237 171 238
f 237 172 171
f 236 172 237
f 235 172 236
f 234 172 235
f 234 173 172
f 233 173 234
f 232 173 233
f 200 252 251
f 232 174 173
f 231 174 232
f 230 174 231
f 230 175 174
f 229 175 230
f 228 175 229
f 228 176 175
f 227 176 228
f 227 177 176
f 226 177 227
f 225 177 226
f 225 178 177
f 224 178 225
f 224 179 178
f 223 179 224
f 222 179 223
f 222 180 179
f 221 180 222
f 220 180 221
f 219 180 220
f 219 181 180
f 218 181 219
f 200 204 252
f 200 205 204
f 217 181 218
f 200 206 205
f 200 207 206
f 200 208 207
f 200 209 208
f 216 181 217
f 200 210 209
f 216 182 181
f 200 211 210
f 200 212 211
f 215 182 216
f 200 213 212
f 200 214 213
f 200 215 214
f 200 182 215
f 200 183 182
f 200 184 183
f 199 184 200
f 199 185 184
f 198 185 199
f 197 185 198
f 196 185 197
f 196 186 185
f 195 186 196
f 194 186 195
f 193 186 194
f 193 187 186
f 192 187 193
f 191 187 192
f 190 187 191
f 190 188 187
f 189 188 190
f 350 352 351
f 349 352 350
f 349 353 352
f 348 353 349
f 347 353 348
f 347 354 353
f 346 354 347
f 346 355 354
f 345 355 346
f 344 355 345
f 344 356 355
f 343 356 344
f 343 357 356
f 342 357 343
f 341 357 342
f 341 358 357
f 340 358 341
f 340 359 358
f 339 359 340
f 338 337 339
f 337 336 339
f 336 335 339
f 335 334 339
f 334 333 339
f 333 332 339
f 332 331 339
f 331 330 339
f 330 329 339
f 329 328 339
f 328 359 339
f 328 327 359
f 327 326 359
f 326 360 359
f 326 325 360
f 325 361 360
f 324 361 325
f 323 361 324
f 322 361 323
f 321 361 322
f 320 361 321
f 320 362 361
f 319 362 320
f 318 362 319
f 317 362 318
f 317 363 362
f 316 363 317
f 315 363 316
f 315 364 363
f 314 364 315
f 313 364 314
f 312 426 313
f 426 364 313
f 311 426 312
f 310 426 311
f 309 426 310
f 308 426 309
f 308 390 426
f 425 364 426
f 308 391 390
f 307 391 308
f 307 392 391
f 306 392 307
f 306 393 392
f 305 393 306
f 305 394 393
f 305 395 394
f 304 395 305
f 304 396 395
f 303 396 304
f 303 397 396
f 303 398 397
f 302 398 303
f 302 399 398
f 302 400 399
f 301 400 302
f 301 401 400
f 300 401 301
f 300 402 401
f 300 403 402
f 299 403 300
f 299 404 403
f 299 405 404
f 424 364 425
f 298 405 299
f 423 364 424
f 298 406 405
f 422 364 423
f 387 389 388
f 422 365 364
f 298 407 406
f 386 389 387
f 421 365 422
f 421 366 365
f 385 389 386
f 297 407 298
f 297 408 407
f 421 367 366
f 420 367 421
f 384 389 385
f 420 368 367
f 419 368 420
f 383 389 384
f 297 409 408
f 419 369 368
f 382 389 383
f 418 369 419
f 418 370 369
f 381 389 382
f 297 410 409
f 418 371 370
f 417 371 418
f 380 389 381
f 417 372 371
f 296 410 297
f 379 389 380
f 296 411 410
f 416 372 417
f 416 373 372
f 378 389 379
f 416 374 373
f 377 389 378
f 415 374 416
f 415 375 374
f 376 389 377
f 415 376 375
f 296 412 411
f 415 389 376
f 414 389 415
f 296 413 412
f 413 389 414
f 296 276 413
f 276 389 413
f 295 276 296
f 295 277 276
f 275 389 276
f 294 277 295
f 294 278 277
f 274 389 275
f 274 253 389
f 293 278 294
f 293 279 278
f 273 253 274
f 273 254 253
f 293 280 279
f 272 254 273
f 292 280 293
f 272 255 254
f 292 281 280
f 271 255 272
f 271 256 255
f 291 281 292
f 291 282 281
f 270 256 271
f 270 257 256
f 291 283 282
f 269 257 270
f 269 258 257
f 290 283 291
f 290 284 283
f 268 258 269
f 268 259 258
f 290 285 284
f 268 260 259
f 267 260 268
f 289 285 290
f 267 261 260
f 289 286 285
f 266 261 267
f 266 262 261
f 289 287 286
f 265 262 266
f 288 287 289
f 265 263 262
f 264 263 265
f 482 484 483
f 482 427 484
f 482 428 427
f 481 428 482
f 480 428 481
f 479 429 480
f 429 428 480
f 479 430 429
f 479 431 430
f 478 431 479
f 478 432 431
f 478 433 432
f 477 433 478
f 477 434 433
f 453 455 454
f 452 455 453
f 477 435 434
f 451 455 452
f 476 435 477
f 476 436 435
f 450 455 451
f 449 455 450
f 476 437 436
f 448 455 449
f 476 438 437
f 447 455 448
f 476 439 438
f 446 455 447
f 475 439 476
f 445 455 446
f 475 440 439
f 444 455 445
f 475 441 440
f 443 455 444
f 475 442 441
f 442 455 443
f 475 455 442
f 474 455 475
f 473 455 474
f 472 455 473
f 472 456 455
f 471 456 472
f 471 457 456
f 471 458 457
f 470 458 471
f 470 459 458
f 470 460 459
f 470 461 460
f 469 461 470
f 469 462 461
f 469 463 462
f 468 463 469
f 468 464 463
f 468 465 464
f 467 465 468
f 467 466 465
f 532 533 534
f 532 534 535
f 495 496 497
f 494 495 497
f 493 494 497
f 493 497 498
f 492 493 498
f 491 492 498
f 490 491 498
f 490 498 499
f 489 490 499
f 488 489 499
f 488 499 500
f 487 488 500
f 486 487 500
f 485 486 500
f 485 500 501
f 535 485 501
f 532 535 583
f 583 535 582
f 582 535 581
f 581 535 580
f 580 535 579
f 579 535 578
f 578 535 577
f 577 535 576
f 576 535 575
f 575 535 574
f 574 535 501
f 574 501 573
f 573 501 502
f 573 502 572
f 572 502 571
f 571 502 503
f 570 571 503
f 569 570 503
f 569 503 504
f 568 569 504
f 567 568 504
f 566 567 504
f 566 504 505
f 565 566 505
f 564 565 505
f 532 583 584
f 564 505 506
f 563 564 506
f 562 563 506
f 562 506 507
f 561 562 507
f 560 561 507
f 560 507 508
f 559 560 508
f 559 508 509
f 558 559 509
f 557 558 509
f 557 509 510
f 556 557 510
f 556 510 511
f 555 556 511
f 554 555 511
f 554 511 512
f 553 554 512
f 552 553 512
f 551 552 512
f 551 512 513
f 550 551 513
f 532 584 536
f 532 536 537
f 549 550 513
f 532 537 538
f 532 538 539
f 532 539 540
f 532 540 541
f 548 549 513
f 532 541 542
f 548 513 514
f 532 542 543
f 532 543 544
f 547 548 514
f 532 544 545
f 532 545 546
f 532 546 547
f 532 547 514
f 532 514 515
f 532 515 516
f 531 532 516
f 531 516 517
f 530 531 517
f 529 530 517
f 528 529 517
f 528 517 518
f 527 528 518
f 526 527 518
f 525 526 518
f 525 518 519
f 524 525 519
f 523 524 519
f 522 523 519
f 522 519 520
f 521 522 520
f 682 683 684
f 681 682 684
f 681 684 685
f 680 681 685
f 679 680 685
f 679 685 686
f 678 679 686
f 678 686 687
f 677 678 687
f 676 677 687
f 676 687 688
f 675 676 688
f 675 688 689
f 674 675 689
f 673 674 689
f 673 689 690
f 672 673 690
f 672 690 691
f 671 672 691
f 670 671 669
f 669 671 668
f 668 671 667
f 667 671 666
f 666 671 665
f 665 671 664
f 664 671 663
f 663 671 662
f 662 671 661
f 661 671 660
f 660 671 691
f 660 691 659
f 659 691 658
f 658 691 692
f 658 692 657
f 657 692 693
f 656 657 693
f 655 656 693
f 654 655 693
f 653 654 693
f 652 653 693
f 652 693 694
f 651 652 694
f 650 651 694
f 649 650 694
f 649 694 695
f 648 649 695
f 647 648 695
f 647 695 696
f 646 647 696
f 645 646 696
f 644 645 758
f 758 645 696
f 643 644 758
f 642 643 758
f 641 642 758
f 640 641 758
f 640 758 722
f 757 758 696
f 640 722 723
f 639 640 723
f 639 723 724
f 638 639 724
f 638 724 725
f 637 638 725
f 637 725 726
f 637 726 727
f 636 637 727
f 636 727 728
f 635 636 728
f 635 728 729
f 635 729 730
f 634 635 730
f 634 730 731
f 634 731 732
f 633 634 732
f 633 732 733
f 632 633 733
f 632 733 734
f 632 734 735
f 631 632 735
f 631 735 736
f 631 736 737
f 756 757 696
f 630 631 737
f 755 756 696
f 630 737 738
f 754 755 696
f 719 720 721
f 754 696 697
f 630 738 739
f 718 719 721
f 753 754 697
f 753 697 698
f 717 718 721
f 629 630 739
f 629 739 740
f 753 698 699
f 752 753 699
f 716 717 721
f 752 699 700
f 751 752 700
f 715 716 721
f 629 740 741
f 751 700 701
f 714 715 721
f 750 751 701
f 750 701 702
f 713 714 721
f 629 741 742
f 750 702 703
f 749 750 703
f 712 713 721
f 749 703 704
f 628 629 742
f 711 712 721
f 628 742 743
f 748 749 704
f 748 704 705
f 710 711 721
f 748 705 706
f 709 710 721
f 747 748 706
f 747 706 707
f 708 709 721
f 747 707 708
f 628 743 744
f 747 708 721
f 746 747 721
f 628 744 745
f 745 746 721
f 628 745 608
f 608 745 721
f 627 628 608
f 627 608 609
f 607 608 721
f 626 627 609
f 626 609 610
f 606 607 721
f 606 721 585
f 625 626 610
f 625 610 611
f 605 606 585
f 605 585 586
f 625 611 612
f 604 605 586
f 624 625 612
f 604 586 587
f 624 612 613
f 603 604 587
f 603 587 588
f 623 624 613
f 623 613 614
f 602 603 588
f 602 588 589
f 623 614 615
f 601 602 589
f 601 589 590
f 622 623 615
f 622 615 616
f 600 601 590
f 600 590 591
f 622 616 617
f 600 591 592
f 599 600 592
f 621 622 617
f 599 592 593
f 621 617 618
f 598 599 593
f 598 593 594
f 621 618 619
f 597 598 594
f 620 621 619
f 597 594 595
f 596 597 595
f 814 815 816
f 814 816 759
f 814 759 760
f 813 814 760
f 812 813 760
f 811 812 761
f 761 812 760
f 811 761 762
f 811 762 763
f 810 811 763
f 810 763 764
f 810 764 765
f 809 810 765
f 809 765 766
f 785 786 787
f 784 785 787
f 809 766 767
f 783 784 787
f 808 809 767
f 808 767 768
f 782 783 787
f 781 782 787
f 808 768 769
f 780 781 787
f 808 769 770
f 779 780 787
f 808 770 771
f 778 779 787
f 807 808 771
f 777 778 787
f 807 771 772
f 776 777 787
f 807 772 773
f 775 776 787
f 807 773 774
f 774 775 787
f 807 774 787
f 806 807 787
f 805 806 787
f 804 805 787
f 804 787 788
f 803 804 788
f 803 788 789
f 803 789 790
f 802 803 790
f 802 790 791
f 802 791 792
f 802 792 793
f 801 802 793
f 801 793 794
f 801 794 795
f 800 801 795
f 800 795 796
f 800 796 797
f 799 800 797
f 799 797 798
f 818 820 819 817
f 820 822 821 819
f 822 824 823 821
f 824 826 825 823
f 826 828 827 825
f 828 830 829 827
f 830 832 831 829
f 832 834 833 831
f 834 836 835 833
f 836 838 837 835
f 838 840 839 837
f 840 842 841 839
f 842 844 843 841
f 844 846 845 843
f 846 848 847 845
f 848 850 849 847
f 850 852 851 849
f 852 854 853 851
f 854 856 855 853
f 856 858 857 855
f 858 860 859 857
f 860 862 861 859
f 862 864 863 861
f 864 866 865 863
f 866 868 867 865
f 868 870 869 867
f 870 872 871 869
f 872 874 873 871
f 874 876 875 873
f 876 878 877 875
f 878 880 879 877
f 880 882 881 879
f 882 884 883 881
f 884 886 885 883
f 886 888 887 885
f 888 890 889 887
f 890 892 891 889
f 892 894 893 891
f 894 896 895 893
f 896 898 897 895
f 898 900 899 897
f 900 902 901 899
f 902 904 903 901
f 904 906 905 903
f 906 908 907 905
f 908 910 909 907
f 910 912 911 909
f 912 914 913 911
f 914 916 915 913
f 916 918 917 915
f 918 920 919 917
f 920 922 921 919
f 922 924 923 921
f 924 926 925 923
f 926 928 927 925
f 928 930 929 927
f 930 932 931 929
f 932 818 817 931
f 934 936 935 933
f 936 938 937 935
f 938 940 939 937
f 940 942 941 939
f 942 944 943 941
f 944 946 945 943
f 946 948 947 945
f 948 950 949 947
f 950 952 951 949
f 952 954 953 951
f 954 956 955 953
f 956 958 957 955
f 958 960 959 957
f 960 962 961 959
f 962 964 963 961
f 964 966 965 963
f 966 968 967 965
f 968 970 969 967
f 970 972 971 969
f 972 974 973 971
f 974 976 975 973
f 976 978 977 975
f 978 980 979 977
f 980 982 981 979
f 982 984 983 981
f 984 986 985 983
f 986 988 987 985
f 988 990 989 987
f 990 992 991 989
f 992 994 993 991
f 994 996 995 993
f 996 998 997 995
f 998 1000 999 997
f 1000 1002 1001 999
f 1002 1004 1003 1001
f 1004 1006 1005 1003
f 1006 1008 1007 1005
f 1008 1010 1009 1007
f 1010 1012 1011 1009
f 1012 1014 1013 1011
f 1014 1016 1015 1013
f 1016 1018 1017 1015
f 1018 1020 1019 1017
f 1020 1022 1021 1019
f 1022 1024 1023 1021
f 1024 1026 1025 1023
f 1026 1028 1027 1025
f 1028 1030 1029 1027
f 1030 1032 1031 1029
f 1032 1034 1033 1031
f 1034 1036 1035 1033
f 1036 1038 1037 1035
f 1038 1040 1039 1037
f 1040 1042 1041 1039
f 1042 1044 1043 1041
f 1044 1046 1045 1043
f 1046 1048 1047 1045
f 1048 1050 1049 1047
f 1050 1052 1051 1049
f 1052 1054 1053 1051
f 1054 1056 1055 1053
f 1056 1058 1057 1055
f 1058 1060 1059 1057
f 1060 1062 1061 1059
f 1062 1064 1063 1061
f 1064 1066 1065 1063
f 1066 1068 1067 1065
f 1068 1070 1069 1067
f 1070 1072 1071 1069
f 1072 1074 1073 1071
f 1074 1076 1075 1073
f 1076 1078 1077 1075
f 1078 1080 1079 1077
f 1080 1082 1081 1079
f 1082 1084 1083 1081
f 1084 1086 1085 1083
f 1086 1088 1087 1085
f 1088 1090 1089 1087
f 1090 1092 1091 1089
f 1092 1094 1093 1091
f 1094 1096 1095 1093
f 1096 1098 1097 1095
f 1098 1100 1099 1097
f 1100 1102 1101 1099
f 1102 1104 1103 1101
f 1104 1106 1105 1103
f 1106 1108 1107 1105
f 1108 1110 1109 1107
f 1110 1112 1111 1109
f 1112 1114 1113 1111
f 1114 1116 1115 1113
f 1116 1118 1117 1115
f 1118 1120 1119 1117
f 1120 1122 1121 1119
f 1122 1124 1123 1121
f 1124 1126 1125 1123
f 1126 1128 1127 1125
f 1128 1130 1129 1127
f 1130 1132 1131 1129
f 1132 1134 1133 1131
f 1134 1136 1135 1133
f 1136 1138 1137 1135
f 1138 1140 1139 1137
f 1140 1142 1141 1139
f 1142 1144 1143 1141
f 1144 1146 1145 1143
f 1146 1148 1147 1145
f 1148 1150 1149 1147
f 1150 1152 1151 1149
f 1152 1154 1153 1151
f 1154 1156 1155 1153
f 1156 1158 1157 1155
f 1158 1160 1159 1157
f 1160 1162 1161 1159
f 1162 1164 1163 1161
f 1164 1166 1165 1163
f 1166 1168 1167 1165
f 1168 1170 1169 1167
f 1170 1172 1171 1169
f 1172 1174 1173 1171
f 1174 1176 1175 1173
f 1176 1178 1177 1175
f 1178 1180 1179 1177
f 1180 1182 1181 1179
f 1182 1184 1183 1181
f 1184 1186 1185 1183
f 1186 1188 1187 1185
f 1188 1190 1189 1187
f 1190 1192 1191 1189
f 1192 1194 1193 1191
f 1194 1196 1195 1193
f 1196 1198 1197 1195
f 1198 1200 1199 1197
f 1200 1202 1201 1199
f 1202 1204 1203 1201
f 1204 1206 1205 1203
f 1206 934 933 1205
f 1208 1210 1209 1207
f 1210 1212 1211 1209
f 1212 1214 1213 1211
f 1214 1216 1215 1213
f 1216 1218 1217 1215
f 1218 1220 1219 1217
f 1220 1222 1221 1219
f 1222 1224 1223 1221
f 1224 1226 1225 1223
f 1226 1228 1227 1225
f 1228 1230 1229 1227
f 1230 1232 1231 1229
f 1232 1234 1233 1231
f 1234 1236 1235 1233
f 1236 1238 1237 1235
f 1238 1240 1239 1237
f 1240 1242 1241 1239
f 1242 1244 1243 1241
f 1244 1246 1245 1243
f 1246 1248 1247 1245
f 1248 1250 1249 1247
f 1250 1252 1251 1249
f 1252 1254 1253 1251
f 1254 1256 1255 1253
f 1256 1258 1257 1255
f 1258 1260 1259 1257
f 1260 1262 1261 1259
f 1262 1264 1263 1261
f 1264 1266 1265 1263
f 1266 1268 1267 1265
f 1268 1270 1269 1267
f 1270 1272 1271 1269
f 1272 1274 1273 1271
f 1274 1276 1275 1273
f 1276 1278 1277 1275
f 1278 1280 1279 1277
f 1280 1208 1207 1279
f 1282 1284 1283 1281
f 1284 1286 1285 1283
f 1286 1288 1287 1285
f 1288 1290 1289 1287
f 1290 1292 1291 1289
f 1292 1294 1293 1291
f 1294 1296 1295 1293
f 1296 1298 1297 1295
f 1298 1300 1299 1297
f 1300 1302 1301 1299
f 1302 1304 1303 1301
f 1304 1306 1305 1303
f 1306 1308 1307 1305
f 1308 1310 1309 1307
f 1310 1312 1311 1309
f 1312 1314 1313 1311
f 1314 1316 1315 1313
f 1316 1318 1317 1315
f 1318 1320 1319 1317
f 1320 1322 1321 1319
f 1322 1324 1323 1321
f 1324 1326 1325 1323
f 1326 1328 1327 1325
f 1328 1330 1329 1327
f 1330 1332 1331 1329
f 1332 1334 1333 1331
f 1334 1336 1335 1333
f 1336 1338 1337 1335
f 1338 1340 1339 1337
f 1340 1342 1341 1339
f 1342 1344 1343 1341
f 1344 1346 1345 1343
f 1346 1348 1347 1345
f 1348 1350 1349 1347
f 1350 1352 1351 1349
f 1352 1354 1353 1351
f 1354 1356 1355 1353
f 1356 1358 1357 1355
f 1358 1360 1359 1357
f 1360 1362 1361 1359
f 1362 1364 1363 1361
f 1364 1366 1365 1363
f 1366 1368 1367 1365
f 1368 1370 1369 1367
f 1370 1372 1371 1369
f 1372 1374 1373 1371
f 1374 1376 1375 1373
f 1376 1378 1377 1375
f 1378 1380 1379 1377
f 1380 1382 1381 1379
f 1382 1282 1281 1381
f 1384 1386 1385 1383
f 1386 1388 1387 1385
f 1388 1390 1389 1387
f 1390 1392 1391 1389
f 1392 1394 1393 1391
f 1394 1396 1395 1393
f 1396 1398 1397 1395
f 1398 1400 1399 1397
f 1400 1402 1401 1399
f 1402 1404 1403 1401
f 1404 1406 1405 1403
f 1406 1408 1407 1405
f 1408 1410 1409 1407
f 1410 1412 1411 1409
f 1412 1414 1413 1411
f 1414 1416 1415 1413
f 1416 1418 1417 1415
f 1418 1420 1419 1417
f 1420 1422 1421 1419
f 1422 1424 1423 1421
f 1424 1426 1425 1423
f 1426 1428 1427 1425
f 1428 1430 1429 1427
f 1430 1432 1431 1429
f 1432 1434 1433 1431
f 1434 1436 1435 1433
f 1436 1438 1437 1435
f 1438 1440 1439 1437
f 1440 1442 1441 1439
f 1442 1444 1443 1441
f 1444 1446 1445 1443
f 1446 1448 1447 1445
f 1448 1450 1449 1447
f 1450 1452 1451 1449
f 1452 1454 1453 1451
f 1454 1456 1455 1453
f 1456 1458 1457 1455
f 1458 1460 1459 1457
f 1460 1462 1461 1459
f 1462 1464 1463 1461
f 1464 1466 1465 1463
f 1466 1468 1467 1465
f 1468 1470 1469 1467
f 1470 1472 1471 1469
f 1472 1474 1473 1471
f 1474 1476 1475 1473
f 1476 1478 1477 1475
f 1478 1480 1479 1477
f 1480 1384 1383 1479
