mtllib keyboard_key_0_10_F10_link.mtl
o keyboard_key_0_10_F10_link

g keyboard_key_0_10_F10_SOLID
v -0.0164999962 -0.0119999945 0
v -0.0164999962 -0.00849999487 -0.00349999964
v -0.0199999958 -0.00849999487 0
v -0.0164999962 -0.0117335767 -0.00133939087
v -0.0164999962 -0.0109748691 -0.00247487426
v -0.0178393871 -0.0117335767 0
v -0.0178729594 -0.0114120394 -0.00137295946
v -0.0178032964 -0.0107968897 -0.00229689106
v -0.0185207278 -0.0105207264 -0.00202072784
v -0.0178393871 -0.00849999487 -0.00323357806
v -0.0189748704 -0.00849999487 -0.00247487426
v -0.0164999962 -0.00983938575 -0.00323357806
v -0.0178729594 -0.00987295806 -0.0029120408
v -0.018796891 -0.00980329514 -0.00229689106
v -0.019733578 -0.00983938575 0
v -0.0189748704 -0.0109748691 0
v -0.019733578 -0.00849999487 -0.00133939087
v -0.0194120407 -0.00987295806 -0.00137295946
v -0.018796891 -0.0107968897 -0.00130329654
v 0.0164999962 -0.0119999945 0
v 0.0199999958 -0.00849999487 0
v 0.0164999962 -0.00849999487 -0.00349999964
v 0.0178393871 -0.0117335767 0
v 0.0189748704 -0.0109748691 0
v 0.0164999962 -0.0117335767 -0.00133939087
v 0.0178729594 -0.0114120394 -0.00137295946
v 0.018796891 -0.0107968897 -0.00130329654
v 0.0185207278 -0.0105207264 -0.00202072784
v 0.019733578 -0.00849999487 -0.00133939087
v 0.0189748704 -0.00849999487 -0.00247487426
v 0.019733578 -0.00983938575 0
v 0.0194120407 -0.00987295806 -0.00137295946
v 0.018796891 -0.00980329514 -0.00229689106
v 0.0164999962 -0.00983938575 -0.00323357806
v 0.0164999962 -0.0109748691 -0.00247487426
v 0.0178393871 -0.00849999487 -0.00323357806
v 0.0178729594 -0.00987295806 -0.0029120408
v 0.0178032964 -0.0107968897 -0.00229689106
v 0.0164999962 0.0119999945 0
v 0.0164999962 0.00849999487 -0.00349999964
v 0.0199999958 0.00849999487 0
v 0.0164999962 0.0117335767 -0.00133939087
v 0.0164999962 0.0109748691 -0.00247487426
v 0.0178393871 0.0117335767 0
v 0.0178729594 0.0114120394 -0.00137295946
v 0.0178032964 0.0107968897 -0.00229689106
v 0.0185207278 0.0105207264 -0.00202072784
v 0.0178393871 0.00849999487 -0.00323357806
v 0.0189748704 0.00849999487 -0.00247487426
v 0.0164999962 0.00983938575 -0.00323357806
v 0.0178729594 0.00987295806 -0.0029120408
v 0.018796891 0.00980329514 -0.00229689106
v 0.019733578 0.00983938575 0
v 0.0189748704 0.0109748691 0
v 0.019733578 0.00849999487 -0.00133939087
v 0.0194120407 0.00987295806 -0.00137295946
v 0.018796891 0.0107968897 -0.00130329654
v -0.0164999962 0.0119999945 0
v -0.0199999958 0.00849999487 0
v -0.0164999962 0.00849999487 -0.00349999964
v -0.0178393871 0.0117335767 0
v -0.0189748704 0.0109748691 0
v -0.0164999962 0.0117335767 -0.00133939087
v -0.0178729594 0.0114120394 -0.00137295946
v -0.018796891 0.0107968897 -0.00130329654
v -0.0185207278 0.0105207264 -0.00202072784
v -0.019733578 0.00849999487 -0.00133939087
v -0.0189748704 0.00849999487 -0.00247487426
v -0.019733578 0.00983938575 0
v -0.0194120407 0.00987295806 -0.00137295946
v -0.018796891 0.00980329514 -0.00229689106
v -0.0164999962 0.00983938575 -0.00323357806
v -0.0164999962 0.0109748691 -0.00247487426
v -0.0178393871 0.00849999487 -0.00323357806
v -0.0178729594 0.00987295806 -0.0029120408
v -0.0178032964 0.0107968897 -0.00229689106
v -0.0199999958 -0.00849999487 0
v -0.0164999962 -0.00849999487 0.00350000337
v -0.0164999962 -0.0119999945 0
v -0.019733578 -0.00849999487 0.00133939087
v -0.0189748704 -0.00849999487 0.00247487426
v -0.019733578 -0.00983938575 0
v -0.0194120407 -0.00987295806 0.00137295946
v -0.018796891 -0.00980329514 0.00229689106
v -0.0185207278 -0.0105207264 0.00202072784
v -0.0164999962 -0.00983938575 0.00323357806
v -0.0164999962 -0.0109748691 0.00247487426
v -0.0178393871 -0.00849999487 0.00323357806
v -0.0178729594 -0.00987295806 0.0029120408
v -0.0178032964 -0.0107968897 0.00229689106
v -0.0178393871 -0.0117335767 0
v -0.0189748704 -0.0109748691 0
v -0.0164999962 -0.0117335767 0.00133939087
v -0.0178729594 -0.0114120394 0.00137295946
v -0.018796891 -0.0107968897 0.00130329654
v 0.0164999962 -0.0119999945 0
v 0.0164999962 -0.00849999487 0.00350000337
v 0.0199999958 -0.00849999487 0
v 0.0164999962 -0.0117335767 0.00133939087
v 0.0164999962 -0.0109748691 0.00247487426
v 0.0178393871 -0.0117335767 0
v 0.0178729594 -0.0114120394 0.00137295946
v 0.0178032964 -0.0107968897 0.00229689106
v 0.0185207278 -0.0105207264 0.00202072784
v 0.0178393871 -0.00849999487 0.00323357806
v 0.0189748704 -0.00849999487 0.00247487426
v 0.0164999962 -0.00983938575 0.00323357806
v 0.0178729594 -0.00987295806 0.0029120408
v 0.018796891 -0.00980329514 0.00229689106
v 0.019733578 -0.00983938575 0
v 0.0189748704 -0.0109748691 0
v 0.019733578 -0.00849999487 0.00133939087
v 0.0194120407 -0.00987295806 0.00137295946
v 0.018796891 -0.0107968897 0.00130329654
v 0.0164999962 0.00849999487 0.00350000337
v 0.0164999962 0.0119999945 0
v 0.0199999958 0.00849999487 0
v 0.0164999962 0.00983938575 0.00323357806
v 0.0164999962 0.0109748691 0.00247487426
v 0.0178393871 0.00849999487 0.00323357806
v 0.0178729594 0.00987295806 0.0029120408
v 0.0178032964 0.0107968897 0.00229689106
v 0.0185207278 0.0105207264 0.00202072784
v 0.0178393871 0.0117335767 0
v 0.0189748704 0.0109748691 0
v 0.0164999962 0.0117335767 0.00133939087
v 0.0178729594 0.0114120394 0.00137295946
v 0.018796891 0.0107968897 0.00130329654
v 0.019733578 0.00849999487 0.00133939087
v 0.0189748704 0.00849999487 0.00247487426
v 0.019733578 0.00983938575 0
v 0.0194120407 0.00987295806 0.00137295946
v 0.018796891 0.00980329514 0.00229689106
v -0.0199999958 0.00849999487 0
v -0.0164999962 0.0119999945 0
v -0.0164999962 0.00849999487 0.00350000337
v -0.019733578 0.00983938575 0
v -0.0189748704 0.0109748691 0
v -0.019733578 0.00849999487 0.00133939087
v -0.0194120407 0.00987295806 0.00137295946
v -0.018796891 0.0107968897 0.00130329654
v -0.0185207278 0.0105207264 0.00202072784
v -0.0164999962 0.0117335767 0.00133939087
v -0.0164999962 0.0109748691 0.00247487426
v -0.0178393871 0.0117335767 0
v -0.0178729594 0.0114120394 0.00137295946
v -0.0178032964 0.0107968897 0.00229689106
v -0.0178393871 0.00849999487 0.00323357806
v -0.0189748704 0.00849999487 0.00247487426
v -0.0164999962 0.00983938575 0.00323357806
v -0.0178729594 0.00987295806 0.0029120408
v -0.018796891 0.00980329514 0.00229689106
usemtl matte_black_keycaps_003
f 59 134 77 3
f 2 22 40 60
f 39 116 135 58
f 78 136 115 97
f 21 98 117 41
f 1 4 7 6
f 4 5 8 7
f 6 7 19 16
f 7 8 9 19
f 2 10 13 12
f 10 11 14 13
f 12 13 8 5
f 13 14 9 8
f 3 15 18 17
f 15 16 19 18
f 17 18 14 11
f 18 19 9 14
f 20 23 26 25
f 23 24 27 26
f 25 26 38 35
f 26 27 28 38
f 21 29 32 31
f 29 30 33 32
f 31 32 27 24
f 32 33 28 27
f 22 34 37 36
f 34 35 38 37
f 36 37 33 30
f 37 38 28 33
f 39 42 45 44
f 42 43 46 45
f 44 45 57 54
f 45 46 47 57
f 40 48 51 50
f 48 49 52 51
f 50 51 46 43
f 51 52 47 46
f 41 53 56 55
f 53 54 57 56
f 55 56 52 49
f 56 57 47 52
f 58 61 64 63
f 61 62 65 64
f 63 64 76 73
f 64 65 66 76
f 59 67 70 69
f 67 68 71 70
f 69 70 65 62
f 70 71 66 65
f 60 72 75 74
f 72 73 76 75
f 74 75 71 68
f 75 76 66 71
f 77 80 83 82
f 80 81 84 83
f 82 83 95 92
f 83 84 85 95
f 78 86 89 88
f 86 87 90 89
f 88 89 84 81
f 89 90 85 84
f 79 91 94 93
f 91 92 95 94
f 93 94 90 87
f 94 95 85 90
f 96 99 102 101
f 99 100 103 102
f 101 102 114 111
f 102 103 104 114
f 97 105 108 107
f 105 106 109 108
f 107 108 103 100
f 108 109 104 103
f 98 110 113 112
f 110 111 114 113
f 112 113 109 106
f 113 114 104 109
f 115 118 121 120
f 118 119 122 121
f 120 121 133 130
f 121 122 123 133
f 116 124 127 126
f 124 125 128 127
f 126 127 122 119
f 127 128 123 122
f 117 129 132 131
f 129 130 133 132
f 131 132 128 125
f 132 133 123 128
f 134 137 140 139
f 137 138 141 140
f 139 140 152 149
f 140 141 142 152
f 135 143 146 145
f 143 144 147 146
f 145 146 141 138
f 146 147 142 141
f 136 148 151 150
f 148 149 152 151
f 150 151 147 144
f 151 152 142 147
f 39 58 63 42
f 42 63 73 43
f 43 73 72 50
f 50 72 60 40
f 1 20 25 4
f 4 25 35 5
f 5 35 34 12
f 12 34 22 2
f 21 41 55 29
f 29 55 49 30
f 30 49 48 36
f 36 48 40 22
f 2 60 74 10
f 10 74 68 11
f 11 68 67 17
f 17 67 59 3
f 3 77 82 15
f 15 82 92 16
f 16 92 91 6
f 6 91 79 1
f 78 97 107 86
f 86 107 100 87
f 87 100 99 93
f 93 99 96 79
f 97 115 120 105
f 105 120 130 106
f 106 130 129 112
f 112 129 117 98
f 77 134 139 80
f 80 139 149 81
f 81 149 148 88
f 88 148 136 78
f 20 96 101 23
f 23 101 111 24
f 24 111 110 31
f 31 110 98 21
f 41 117 131 53
f 53 131 125 54
f 54 125 124 44
f 44 124 116 39
f 115 136 150 118
f 118 150 144 119
f 119 144 143 126
f 126 143 135 116
f 58 135 145 61
f 61 145 138 62
f 62 138 137 69
f 69 137 134 59
f 1 79 96 20

g key_legend_0_10_F10
v 0.00216709077 -0.00314286351 0.00450000539
v 0.00195659697 -0.00308360159 0.00450000539
v 0.00176106393 -0.00298690796 0.00450000539
v 0.00158156455 -0.00285448134 0.00450000539
v 0.00141920149 -0.00268803537 0.00450000539
v 0.00127500296 -0.00248925388 0.00450000539
v 0.00115005672 -0.0022598505 0.00450000539
v 0.00104542077 -0.00200152397 0.00450000539
v 0.000962182879 -0.00171597302 0.00450000539
v 0.000901401043 -0.00140489638 0.00450000539
v 0.00086414814 -0.00107000768 0.00450000539
v 0.000851497054 -0.000713005662 0.00450000539
v 0.00086414814 -0.000355988741 0.00450000539
v 0.000901401043 -2.11000443e-05 0.00450000539
v 0.000962182879 0.000289961696 0.00450000539
v 0.00104542077 0.000575512648 0.00450000539
v 0.00115005672 0.000833839178 0.00450000539
v 0.00127500296 0.00106324255 0.00450000539
v 0.00141920149 0.00126202404 0.00450000539
v 0.00158156455 0.00142848492 0.00450000539
v 0.00176106393 0.00156091154 0.00450000539
v 0.00195659697 0.00165760517 0.00450000539
v 0.00216709077 0.00171686709 0.00450000539
v 0.00239150226 0.00173699856 0.00450000539
v 0.00261589885 0.00171686709 0.00450000539
v 0.00282640755 0.00165760517 0.00450000539
v 0.00302194059 0.00156091154 0.00450000539
v 0.00320142508 0.00142848492 0.00450000539
v 0.00336380303 0.00126202404 0.00450000539
v 0.00350800157 0.00106324255 0.00450000539
v 0.0036329478 0.000833839178 0.00450000539
v 0.00373756886 0.000575512648 0.00450000539
v 0.00382080674 0.000289961696 0.00450000539
v 0.00388158858 -2.11000443e-05 0.00450000539
v 0.00391884148 -0.000355988741 0.00450000539
v 0.00393149257 -0.000713005662 0.00450000539
v 0.00391884148 -0.00107000768 0.00450000539
v 0.00388158858 -0.00140489638 0.00450000539
v 0.00382080674 -0.00171597302 0.00450000539
v 0.00373756886 -0.00200152397 0.00450000539
v 0.0036329478 -0.0022598505 0.00450000539
v 0.00350800157 -0.00248925388 0.00450000539
v 0.00336380303 -0.00268803537 0.00450000539
v 0.00320142508 -0.00285448134 0.00450000539
v 0.00302194059 -0.00298690796 0.00450000539
v 0.00282640755 -0.00308360159 0.00450000539
v 0.00261589885 -0.00314286351 0.00450000539
v 0.00239150226 -0.00316299498 0.00450000539
v 0.00226293504 0.00107198954 0.00450000539
v 0.00214351714 0.0010305196 0.00450000539
v 0.00203362107 0.000962406397 0.00450000539
v 0.00193364918 0.000868484378 0.00450000539
v 0.00184397399 0.000749573112 0.00450000539
v 0.00176499784 0.000606492162 0.00450000539
v 0.00169710815 0.000440090895 0.00450000539
v 0.00164067745 0.000251188874 0.00450000539
v 0.00159612298 4.05907631e-05 0.00450000539
v 0.00156381726 -0.000190854073 0.00450000539
v 0.00154414773 -0.000442326069 0.00450000539
v 0.00153750181 -0.000713005662 0.00450000539
v 0.00154414773 -0.000983670354 0.00450000539
v 0.00156381726 -0.00123515725 0.00450000539
v 0.00159612298 -0.00146660209 0.00450000539
v 0.00164067745 -0.0016771853 0.00450000539
v 0.00169710815 -0.00186610222 0.00450000539
v 0.00176499784 -0.00203250349 0.00450000539
v 0.00184397399 -0.00217556953 0.00450000539
v 0.00193364918 -0.0022944808 0.00450000539
v 0.00203362107 -0.00238840282 0.00450000539
v 0.00214351714 -0.00245651603 0.00450000539
v 0.00226293504 -0.00249800086 0.00450000539
v 0.00239150226 -0.00251200795 0.00450000539
v 0.00252005458 -0.00249800086 0.00450000539
v 0.00263947248 -0.00245651603 0.00450000539
v 0.00274936855 -0.00238840282 0.00450000539
v 0.00284935534 -0.0022944808 0.00450000539
v 0.00293901563 -0.00217556953 0.00450000539
v 0.00301799178 -0.00203250349 0.00450000539
v 0.00308589637 -0.00186610222 0.00450000539
v 0.00314231217 -0.0016771853 0.00450000539
v 0.00318686664 -0.00146660209 0.00450000539
v 0.00321918726 -0.00123515725 0.00450000539
v 0.00323885679 -0.000983670354 0.00450000539
v 0.00324550271 -0.000713005662 0.00450000539
v 0.00323885679 -0.000442326069 0.00450000539
v 0.00321918726 -0.000190854073 0.00450000539
v 0.00318686664 4.05907631e-05 0.00450000539
v 0.00314231217 0.000251188874 0.00450000539
v 0.00308589637 0.000440090895 0.00450000539
v 0.00301799178 0.000606492162 0.00450000539
v 0.00293901563 0.000749573112 0.00450000539
v 0.00284935534 0.000868484378 0.00450000539
v 0.00274936855 0.000962406397 0.00450000539
v 0.00263947248 0.0010305196 0.00450000539
v 0.00252005458 0.00107198954 0.00450000539
v 0.00239150226 0.00108599663 0.00450000539
v -0.00144450366 -0.00310000777 0.00450000539
v -0.00144450366 0.00167399645 0.00450000539
v -0.000758498907 0.00167399645 0.00450000539
v -0.000758498907 -0.00310000777 0.00450000539
v -0.00492350757 0.00105799735 0.00450000539
v -0.00492350757 -0.000265002251 0.00450000539
v -0.00306150317 -0.000265002251 0.00450000539
v -0.00306150317 -0.000881001353 0.00450000539
v -0.00492350757 -0.000881001353 0.00450000539
v -0.00492350757 -0.00310000777 0.00450000539
v -0.00560949743 -0.00310000777 0.00450000539
v -0.00560949743 0.00167399645 0.00450000539
v -0.00306150317 0.00167399645 0.00450000539
v -0.00306150317 0.00105799735 0.00450000539
v 0.00216709077 -0.00314286351 0.00409999862
v 0.00195659697 -0.00308360159 0.00409999862
v 0.00176106393 -0.00298690796 0.00409999862
v 0.00158156455 -0.00285448134 0.00409999862
v 0.00141920149 -0.00268803537 0.00409999862
v 0.00127500296 -0.00248925388 0.00409999862
v 0.00115005672 -0.0022598505 0.00409999862
v 0.00104542077 -0.00200152397 0.00409999862
v 0.000962182879 -0.00171597302 0.00409999862
v 0.000901401043 -0.00140489638 0.00409999862
v 0.00086414814 -0.00107000768 0.00409999862
v 0.000851497054 -0.000713005662 0.00409999862
v 0.00086414814 -0.000355988741 0.00409999862
v 0.000901401043 -2.11000443e-05 0.00409999862
v 0.000962182879 0.000289961696 0.00409999862
v 0.00104542077 0.000575512648 0.00409999862
v 0.00115005672 0.000833839178 0.00409999862
v 0.00127500296 0.00106324255 0.00409999862
v 0.00141920149 0.00126202404 0.00409999862
v 0.00158156455 0.00142848492 0.00409999862
v 0.00176106393 0.00156091154 0.00409999862
v 0.00195659697 0.00165760517 0.00409999862
v 0.00216709077 0.00171686709 0.00409999862
v 0.00239150226 0.00173699856 0.00409999862
v 0.00261589885 0.00171686709 0.00409999862
v 0.00282640755 0.00165760517 0.00409999862
v 0.00302194059 0.00156091154 0.00409999862
v 0.00320142508 0.00142848492 0.00409999862
v 0.00336380303 0.00126202404 0.00409999862
v 0.00350800157 0.00106324255 0.00409999862
v 0.0036329478 0.000833839178 0.00409999862
v 0.00373756886 0.000575512648 0.00409999862
v 0.00382080674 0.000289961696 0.00409999862
v 0.00388158858 -2.11000443e-05 0.00409999862
v 0.00391884148 -0.000355988741 0.00409999862
v 0.00393149257 -0.000713005662 0.00409999862
v 0.00391884148 -0.00107000768 0.00409999862
v 0.00388158858 -0.00140489638 0.00409999862
v 0.00382080674 -0.00171597302 0.00409999862
v 0.00373756886 -0.00200152397 0.00409999862
v 0.0036329478 -0.0022598505 0.00409999862
v 0.00350800157 -0.00248925388 0.00409999862
v 0.00336380303 -0.00268803537 0.00409999862
v 0.00320142508 -0.00285448134 0.00409999862
v 0.00302194059 -0.00298690796 0.00409999862
v 0.00282640755 -0.00308360159 0.00409999862
v 0.00261589885 -0.00314286351 0.00409999862
v 0.00239150226 -0.00316299498 0.00409999862
v 0.00226293504 0.00107198954 0.00409999862
v 0.00214351714 0.0010305196 0.00409999862
v 0.00203362107 0.000962406397 0.00409999862
v 0.00193364918 0.000868484378 0.00409999862
v 0.00184397399 0.000749573112 0.00409999862
v 0.00176499784 0.000606492162 0.00409999862
v 0.00169710815 0.000440090895 0.00409999862
v 0.00164067745 0.000251188874 0.00409999862
v 0.00159612298 4.05907631e-05 0.00409999862
v 0.00156381726 -0.000190854073 0.00409999862
v 0.00154414773 -0.000442326069 0.00409999862
v 0.00153750181 -0.000713005662 0.00409999862
v 0.00154414773 -0.000983670354 0.00409999862
v 0.00156381726 -0.00123515725 0.00409999862
v 0.00159612298 -0.00146660209 0.00409999862
v 0.00164067745 -0.0016771853 0.00409999862
v 0.00169710815 -0.00186610222 0.00409999862
v 0.00176499784 -0.00203250349 0.00409999862
v 0.00184397399 -0.00217556953 0.00409999862
v 0.00193364918 -0.0022944808 0.00409999862
v 0.00203362107 -0.00238840282 0.00409999862
v 0.00214351714 -0.00245651603 0.00409999862
v 0.00226293504 -0.00249800086 0.00409999862
v 0.00239150226 -0.00251200795 0.00409999862
v 0.00252005458 -0.00249800086 0.00409999862
v 0.00263947248 -0.00245651603 0.00409999862
v 0.00274936855 -0.00238840282 0.00409999862
v 0.00284935534 -0.0022944808 0.00409999862
v 0.00293901563 -0.00217556953 0.00409999862
v 0.00301799178 -0.00203250349 0.00409999862
v 0.00308589637 -0.00186610222 0.00409999862
v 0.00314231217 -0.0016771853 0.00409999862
v 0.00318686664 -0.00146660209 0.00409999862
v 0.00321918726 -0.00123515725 0.00409999862
v 0.00323885679 -0.000983670354 0.00409999862
v 0.00324550271 -0.000713005662 0.00409999862
v 0.00323885679 -0.000442326069 0.00409999862
v 0.00321918726 -0.000190854073 0.00409999862
v 0.00318686664 4.05907631e-05 0.00409999862
v 0.00314231217 0.000251188874 0.00409999862
v 0.00308589637 0.000440090895 0.00409999862
v 0.00301799178 0.000606492162 0.00409999862
v 0.00293901563 0.000749573112 0.00409999862
v 0.00284935534 0.000868484378 0.00409999862
v 0.00274936855 0.000962406397 0.00409999862
v 0.00263947248 0.0010305196 0.00409999862
v 0.00252005458 0.00107198954 0.00409999862
v 0.00239150226 0.00108599663 0.00409999862
v -0.00144450366 -0.00310000777 0.00409999862
v -0.00144450366 0.00167399645 0.00409999862
v -0.000758498907 0.00167399645 0.00409999862
v -0.000758498907 -0.00310000777 0.00409999862
v -0.00492350757 0.00105799735 0.00409999862
v -0.00492350757 -0.000265002251 0.00409999862
v -0.00306150317 -0.000265002251 0.00409999862
v -0.00306150317 -0.000881001353 0.00409999862
v -0.00492350757 -0.000881001353 0.00409999862
v -0.00492350757 -0.00310000777 0.00409999862
v -0.00560949743 -0.00310000777 0.00409999862
v -0.00560949743 0.00167399645 0.00409999862
v -0.00306150317 0.00167399645 0.00409999862
v -0.00306150317 0.00105799735 0.00409999862
v -0.00492350757 0.00105799735 0.00409999862
v -0.00492350757 0.00105799735 0.00450000539
v -0.00492350757 -0.000265002251 0.00409999862
v -0.00492350757 -0.000265002251 0.00450000539
v -0.00306150317 -0.000265002251 0.00409999862
v -0.00306150317 -0.000265002251 0.00450000539
v -0.00306150317 -0.000881001353 0.00409999862
v -0.00306150317 -0.000881001353 0.00450000539
v -0.00492350757 -0.000881001353 0.00409999862
v -0.00492350757 -0.000881001353 0.00450000539
v -0.00492350757 -0.00310000777 0.00409999862
v -0.00492350757 -0.00310000777 0.00450000539
v -0.00560949743 -0.00310000777 0.00409999862
v -0.00560949743 -0.00310000777 0.00450000539
v -0.00560949743 0.00167399645 0.00409999862
v -0.00560949743 0.00167399645 0.00450000539
v -0.00306150317 0.00167399645 0.00409999862
v -0.00306150317 0.00167399645 0.00450000539
v -0.00306150317 0.00105799735 0.00409999862
v -0.00306150317 0.00105799735 0.00450000539
v -0.00144450366 -0.00310000777 0.00409999862
v -0.00144450366 -0.00310000777 0.00450000539
v -0.00144450366 0.00167399645 0.00409999862
v -0.00144450366 0.00167399645 0.00450000539
v -0.000758498907 0.00167399645 0.00409999862
v -0.000758498907 0.00167399645 0.00450000539
v -0.000758498907 -0.00310000777 0.00409999862
v -0.000758498907 -0.00310000777 0.00450000539
v 0.00216709077 -0.00314286351 0.00409999862
v 0.00216709077 -0.00314286351 0.00450000539
v 0.00195659697 -0.00308360159 0.00409999862
v 0.00195659697 -0.00308360159 0.00450000539
v 0.00176106393 -0.00298690796 0.00409999862
v 0.00176106393 -0.00298690796 0.00450000539
v 0.00158156455 -0.00285448134 0.00409999862
v 0.00158156455 -0.00285448134 0.00450000539
v 0.00141920149 -0.00268803537 0.00409999862
v 0.00141920149 -0.00268803537 0.00450000539
v 0.00127500296 -0.00248925388 0.00409999862
v 0.00127500296 -0.00248925388 0.00450000539
v 0.00115005672 -0.0022598505 0.00409999862
v 0.00115005672 -0.0022598505 0.00450000539
v 0.00104542077 -0.00200152397 0.00409999862
v 0.00104542077 -0.00200152397 0.00450000539
v 0.000962182879 -0.00171597302 0.00409999862
v 0.000962182879 -0.00171597302 0.00450000539
v 0.000901401043 -0.00140489638 0.00409999862
v 0.000901401043 -0.00140489638 0.00450000539
v 0.00086414814 -0.00107000768 0.00409999862
v 0.00086414814 -0.00107000768 0.00450000539
v 0.000851497054 -0.000713005662 0.00409999862
v 0.000851497054 -0.000713005662 0.00450000539
v 0.00086414814 -0.000355988741 0.00409999862
v 0.00086414814 -0.000355988741 0.00450000539
v 0.000901401043 -2.11000443e-05 0.00409999862
v 0.000901401043 -2.11000443e-05 0.00450000539
v 0.000962182879 0.000289961696 0.00409999862
v 0.000962182879 0.000289961696 0.00450000539
v 0.00104542077 0.000575512648 0.00409999862
v 0.00104542077 0.000575512648 0.00450000539
v 0.00115005672 0.000833839178 0.00409999862
v 0.00115005672 0.000833839178 0.00450000539
v 0.00127500296 0.00106324255 0.00409999862
v 0.00127500296 0.00106324255 0.00450000539
v 0.00141920149 0.00126202404 0.00409999862
v 0.00141920149 0.00126202404 0.00450000539
v 0.00158156455 0.00142848492 0.00409999862
v 0.00158156455 0.00142848492 0.00450000539
v 0.00176106393 0.00156091154 0.00409999862
v 0.00176106393 0.00156091154 0.00450000539
v 0.00195659697 0.00165760517 0.00409999862
v 0.00195659697 0.00165760517 0.00450000539
v 0.00216709077 0.00171686709 0.00409999862
v 0.00216709077 0.00171686709 0.00450000539
v 0.00239150226 0.00173699856 0.00409999862
v 0.00239150226 0.00173699856 0.00450000539
v 0.00261589885 0.00171686709 0.00409999862
v 0.00261589885 0.00171686709 0.00450000539
v 0.00282640755 0.00165760517 0.00409999862
v 0.00282640755 0.00165760517 0.00450000539
v 0.00302194059 0.00156091154 0.00409999862
v 0.00302194059 0.00156091154 0.00450000539
v 0.00320142508 0.00142848492 0.00409999862
v 0.00320142508 0.00142848492 0.00450000539
v 0.00336380303 0.00126202404 0.00409999862
v 0.00336380303 0.00126202404 0.00450000539
v 0.00350800157 0.00106324255 0.00409999862
v 0.00350800157 0.00106324255 0.00450000539
v 0.0036329478 0.000833839178 0.00409999862
v 0.0036329478 0.000833839178 0.00450000539
v 0.00373756886 0.000575512648 0.00409999862
v 0.00373756886 0.000575512648 0.00450000539
v 0.00382080674 0.000289961696 0.00409999862
v 0.00382080674 0.000289961696 0.00450000539
v 0.00388158858 -2.11000443e-05 0.00409999862
v 0.00388158858 -2.11000443e-05 0.00450000539
v 0.00391884148 -0.000355988741 0.00409999862
v 0.00391884148 -0.000355988741 0.00450000539
v 0.00393149257 -0.000713005662 0.00409999862
v 0.00393149257 -0.000713005662 0.00450000539
v 0.00391884148 -0.00107000768 0.00409999862
v 0.00391884148 -0.00107000768 0.00450000539
v 0.00388158858 -0.00140489638 0.00409999862
v 0.00388158858 -0.00140489638 0.00450000539
v 0.00382080674 -0.00171597302 0.00409999862
v 0.00382080674 -0.00171597302 0.00450000539
v 0.00373756886 -0.00200152397 0.00409999862
v 0.00373756886 -0.00200152397 0.00450000539
v 0.0036329478 -0.0022598505 0.00409999862
v 0.0036329478 -0.0022598505 0.00450000539
v 0.00350800157 -0.00248925388 0.00409999862
v 0.00350800157 -0.00248925388 0.00450000539
v 0.00336380303 -0.00268803537 0.00409999862
v 0.00336380303 -0.00268803537 0.00450000539
v 0.00320142508 -0.00285448134 0.00409999862
v 0.00320142508 -0.00285448134 0.00450000539
v 0.00302194059 -0.00298690796 0.00409999862
v 0.00302194059 -0.00298690796 0.00450000539
v 0.00282640755 -0.00308360159 0.00409999862
v 0.00282640755 -0.00308360159 0.00450000539
v 0.00261589885 -0.00314286351 0.00409999862
v 0.00261589885 -0.00314286351 0.00450000539
v 0.00239150226 -0.00316299498 0.00409999862
v 0.00239150226 -0.00316299498 0.00450000539
v 0.00226293504 0.00107198954 0.00409999862
v 0.00226293504 0.00107198954 0.00450000539
v 0.00214351714 0.0010305196 0.00409999862
v 0.00214351714 0.0010305196 0.00450000539
v 0.00203362107 0.000962406397 0.00409999862
v 0.00203362107 0.000962406397 0.00450000539
v 0.00193364918 0.000868484378 0.00409999862
v 0.00193364918 0.000868484378 0.00450000539
v 0.00184397399 0.000749573112 0.00409999862
v 0.00184397399 0.000749573112 0.00450000539
v 0.00176499784 0.000606492162 0.00409999862
v 0.00176499784 0.000606492162 0.00450000539
v 0.00169710815 0.000440090895 0.00409999862
v 0.00169710815 0.000440090895 0.00450000539
v 0.00164067745 0.000251188874 0.00409999862
v 0.00164067745 0.000251188874 0.00450000539
v 0.00159612298 4.05907631e-05 0.00409999862
v 0.00159612298 4.05907631e-05 0.00450000539
v 0.00156381726 -0.000190854073 0.00409999862
v 0.00156381726 -0.000190854073 0.00450000539
v 0.00154414773 -0.000442326069 0.00409999862
v 0.00154414773 -0.000442326069 0.00450000539
v 0.00153750181 -0.000713005662 0.00409999862
v 0.00153750181 -0.000713005662 0.00450000539
v 0.00154414773 -0.000983670354 0.00409999862
v 0.00154414773 -0.000983670354 0.00450000539
v 0.00156381726 -0.00123515725 0.00409999862
v 0.00156381726 -0.00123515725 0.00450000539
v 0.00159612298 -0.00146660209 0.00409999862
v 0.00159612298 -0.00146660209 0.00450000539
v 0.00164067745 -0.0016771853 0.00409999862
v 0.00164067745 -0.0016771853 0.00450000539
v 0.00169710815 -0.00186610222 0.00409999862
v 0.00169710815 -0.00186610222 0.00450000539
v 0.00176499784 -0.00203250349 0.00409999862
v 0.00176499784 -0.00203250349 0.00450000539
v 0.00184397399 -0.00217556953 0.00409999862
v 0.00184397399 -0.00217556953 0.00450000539
v 0.00193364918 -0.0022944808 0.00409999862
v 0.00193364918 -0.0022944808 0.00450000539
v 0.00203362107 -0.00238840282 0.00409999862
v 0.00203362107 -0.00238840282 0.00450000539
v 0.00214351714 -0.00245651603 0.00409999862
v 0.00214351714 -0.00245651603 0.00450000539
v 0.00226293504 -0.00249800086 0.00409999862
v 0.00226293504 -0.00249800086 0.00450000539
v 0.00239150226 -0.00251200795 0.00409999862
v 0.00239150226 -0.00251200795 0.00450000539
v 0.00252005458 -0.00249800086 0.00409999862
v 0.00252005458 -0.00249800086 0.00450000539
v 0.00263947248 -0.00245651603 0.00409999862
v 0.00263947248 -0.00245651603 0.00450000539
v 0.00274936855 -0.00238840282 0.00409999862
v 0.00274936855 -0.00238840282 0.00450000539
v 0.00284935534 -0.0022944808 0.00409999862
v 0.00284935534 -0.0022944808 0.00450000539
v 0.00293901563 -0.00217556953 0.00409999862
v 0.00293901563 -0.00217556953 0.00450000539
v 0.00301799178 -0.00203250349 0.00409999862
v 0.00301799178 -0.00203250349 0.00450000539
v 0.00308589637 -0.00186610222 0.00409999862
v 0.00308589637 -0.00186610222 0.00450000539
v 0.00314231217 -0.0016771853 0.00409999862
v 0.00314231217 -0.0016771853 0.00450000539
v 0.00318686664 -0.00146660209 0.00409999862
v 0.00318686664 -0.00146660209 0.00450000539
v 0.00321918726 -0.00123515725 0.00409999862
v 0.00321918726 -0.00123515725 0.00450000539
v 0.00323885679 -0.000983670354 0.00409999862
v 0.00323885679 -0.000983670354 0.00450000539
v 0.00324550271 -0.000713005662 0.00409999862
v 0.00324550271 -0.000713005662 0.00450000539
v 0.00323885679 -0.000442326069 0.00409999862
v 0.00323885679 -0.000442326069 0.00450000539
v 0.00321918726 -0.000190854073 0.00409999862
v 0.00321918726 -0.000190854073 0.00450000539
v 0.00318686664 4.05907631e-05 0.00409999862
v 0.00318686664 4.05907631e-05 0.00450000539
v 0.00314231217 0.000251188874 0.00409999862
v 0.00314231217 0.000251188874 0.00450000539
v 0.00308589637 0.000440090895 0.00409999862
v 0.00308589637 0.000440090895 0.00450000539
v 0.00301799178 0.000606492162 0.00409999862
v 0.00301799178 0.000606492162 0.00450000539
v 0.00293901563 0.000749573112 0.00409999862
v 0.00293901563 0.000749573112 0.00450000539
v 0.00284935534 0.000868484378 0.00409999862
v 0.00284935534 0.000868484378 0.00450000539
v 0.00274936855 0.000962406397 0.00409999862
v 0.00274936855 0.000962406397 0.00450000539
v 0.00263947248 0.0010305196 0.00409999862
v 0.00263947248 0.0010305196 0.00450000539
v 0.00252005458 0.00107198954 0.00409999862
v 0.00252005458 0.00107198954 0.00450000539
v 0.00239150226 0.00108599663 0.00409999862
v 0.00239150226 0.00108599663 0.00450000539
usemtl screen_white_text_003
f 175 177 176
f 175 178 177
f 174 178 175
f 174 179 178
f 173 179 174
f 173 180 179
f 172 180 173
f 172 181 180
f 171 181 172
f 170 181 171
f 170 248 181
f 248 182 181
f 170 201 248
f 247 182 248
f 170 202 201
f 246 182 247
f 169 202 170
f 246 183 182
f 169 203 202
f 245 183 246
f 169 204 203
f 244 183 245
f 169 205 204
f 243 183 244
f 168 205 169
f 243 184 183
f 168 206 205
f 242 184 243
f 168 207 206
f 241 184 242
f 167 207 168
f 241 185 184
f 167 208 207
f 240 185 241
f 166 208 167
f 240 186 185
f 166 209 208
f 239 186 240
f 166 210 209
f 238 186 239
f 165 210 166
f 238 187 186
f 165 211 210
f 237 187 238
f 164 211 165
f 237 188 187
f 164 212 211
f 236 188 237
f 163 212 164
f 163 213 212
f 235 188 236
f 235 189 188
f 163 214 213
f 234 189 235
f 234 190 189
f 162 214 163
f 162 215 214
f 233 190 234
f 233 191 190
f 161 215 162
f 161 216 215
f 232 191 233
f 161 217 216
f 231 191 232
f 231 192 191
f 160 217 161
f 160 218 217
f 230 192 231
f 230 193 192
f 159 218 160
f 159 219 218
f 229 193 230
f 159 220 219
f 228 193 229
f 228 194 193
f 158 220 159
f 158 221 220
f 227 194 228
f 158 222 221
f 226 194 227
f 158 223 222
f 225 194 226
f 225 195 194
f 157 223 158
f 157 224 223
f 224 195 225
f 157 195 224
f 156 195 157
f 156 196 195
f 155 196 156
f 155 197 196
f 154 197 155
f 154 198 197
f 153 198 154
f 153 199 198
f 200 199 153
f 249 251 250
f 249 252 251
f 259 253 260
f 253 261 260
f 253 262 261
f 259 254 253
f 259 257 254
f 257 255 254
f 257 256 255
f 259 258 257
f 285 286 287
f 285 287 288
f 284 285 288
f 284 288 289
f 283 284 289
f 283 289 290
f 282 283 290
f 282 290 291
f 281 282 291
f 280 281 291
f 280 291 358
f 358 291 292
f 280 358 311
f 357 358 292
f 280 311 312
f 356 357 292
f 279 280 312
f 356 292 293
f 279 312 313
f 355 356 293
f 279 313 314
f 354 355 293
f 279 314 315
f 353 354 293
f 278 279 315
f 353 293 294
f 278 315 316
f 352 353 294
f 278 316 317
f 351 352 294
f 277 278 317
f 351 294 295
f 277 317 318
f 350 351 295
f 276 277 318
f 350 295 296
f 276 318 319
f 349 350 296
f 276 319 320
f 348 349 296
f 275 276 320
f 348 296 297
f 275 320 321
f 347 348 297
f 274 275 321
f 347 297 298
f 274 321 322
f 346 347 298
f 273 274 322
f 273 322 323
f 345 346 298
f 345 298 299
f 273 323 324
f 344 345 299
f 344 299 300
f 272 273 324
f 272 324 325
f 343 344 300
f 343 300 301
f 271 272 325
f 271 325 326
f 342 343 301
f 271 326 327
f 341 342 301
f 341 301 302
f 270 271 327
f 270 327 328
f 340 341 302
f 340 302 303
f 269 270 328
f 269 328 329
f 339 340 303
f 269 329 330
f 338 339 303
f 338 303 304
f 268 269 330
f 268 330 331
f 337 338 304
f 268 331 332
f 336 337 304
f 268 332 333
f 335 336 304
f 335 304 305
f 267 268 333
f 267 333 334
f 334 335 305
f 267 334 305
f 266 267 305
f 266 305 306
f 265 266 306
f 265 306 307
f 264 265 307
f 264 307 308
f 263 264 308
f 263 308 309
f 310 263 309
f 359 360 361
f 359 361 362
f 369 370 363
f 363 370 371
f 363 371 372
f 369 363 364
f 369 364 367
f 367 364 365
f 367 365 366
f 369 367 368
f 374 376 375 373
f 376 378 377 375
f 378 380 379 377
f 380 382 381 379
f 382 384 383 381
f 384 386 385 383
f 386 388 387 385
f 388 390 389 387
f 390 392 391 389
f 392 374 373 391
f 394 396 395 393
f 396 398 397 395
f 398 400 399 397
f 400 394 393 399
f 402 404 403 401
f 404 406 405 403
f 406 408 407 405
f 408 410 409 407
f 410 412 411 409
f 412 414 413 411
f 414 416 415 413
f 416 418 417 415
f 418 420 419 417
f 420 422 421 419
f 422 424 423 421
f 424 426 425 423
f 426 428 427 425
f 428 430 429 427
f 430 432 431 429
f 432 434 433 431
f 434 436 435 433
f 436 438 437 435
f 438 440 439 437
f 440 442 441 439
f 442 444 443 441
f 444 446 445 443
f 446 448 447 445
f 448 450 449 447
f 450 452 451 449
f 452 454 453 451
f 454 456 455 453
f 456 458 457 455
f 458 460 459 457
f 460 462 461 459
f 462 464 463 461
f 464 466 465 463
f 466 468 467 465
f 468 470 469 467
f 470 472 471 469
f 472 474 473 471
f 474 476 475 473
f 476 478 477 475
f 478 480 479 477
f 480 482 481 479
f 482 484 483 481
f 484 486 485 483
f 486 488 487 485
f 488 490 489 487
f 490 492 491 489
f 492 494 493 491
f 494 496 495 493
f 496 402 401 495
f 498 500 499 497
f 500 502 501 499
f 502 504 503 501
f 504 506 505 503
f 506 508 507 505
f 508 510 509 507
f 510 512 511 509
f 512 514 513 511
f 514 516 515 513
f 516 518 517 515
f 518 520 519 517
f 520 522 521 519
f 522 524 523 521
f 524 526 525 523
f 526 528 527 525
f 528 530 529 527
f 530 532 531 529
f 532 534 533 531
f 534 536 535 533
f 536 538 537 535
f 538 540 539 537
f 540 542 541 539
f 542 544 543 541
f 544 546 545 543
f 546 548 547 545
f 548 550 549 547
f 550 552 551 549
f 552 554 553 551
f 554 556 555 553
f 556 558 557 555
f 558 560 559 557
f 560 562 561 559
f 562 564 563 561
f 564 566 565 563
f 566 568 567 565
f 568 570 569 567
f 570 572 571 569
f 572 574 573 571
f 574 576 575 573
f 576 578 577 575
f 578 580 579 577
f 580 582 581 579
f 582 584 583 581
f 584 586 585 583
f 586 588 587 585
f 588 590 589 587
f 590 592 591 589
f 592 498 497 591
