mtllib keyboard_key_2_7_U_link.mtl
o keyboard_key_2_7_U_link

g keyboard_key_2_7_U_SOLID
v -0.0190000013 -0.0165000036 0
v -0.0190000013 -0.013000004 -0.00349999964
v -0.0225000009 -0.013000004 0
v -0.0190000013 -0.0162335783 -0.0013393946
v -0.0190000013 -0.0154748708 -0.00247487426
v -0.0203393921 -0.0162335783 0
v -0.020372957 -0.0159120411 -0.00137295946
v -0.0203032978 -0.0152968913 -0.00229689106
v -0.0210207254 -0.0150207281 -0.00202072784
v -0.0203393921 -0.013000004 -0.00323357806
v -0.0214748755 -0.013000004 -0.00247487426
v -0.0190000013 -0.0143393949 -0.00323357806
v -0.020372957 -0.0143729597 -0.0029120408
v -0.0212968923 -0.0143032968 -0.00229689106
v -0.0222335793 -0.0143393949 0
v -0.0214748755 -0.0154748708 0
v -0.0222335793 -0.013000004 -0.00133939087
v -0.0219120383 -0.0143729597 -0.00137295946
v -0.0212968923 -0.0152968913 -0.00130329654
v 0.0190000013 -0.0165000036 0
v 0.0225000009 -0.013000004 0
v 0.0190000013 -0.013000004 -0.00349999964
v 0.0203393921 -0.0162335783 0
v 0.0214748755 -0.0154748708 0
v 0.0190000013 -0.0162335783 -0.00133939087
v 0.020372957 -0.0159120411 -0.00137295946
v 0.021296896 -0.0152968913 -0.00130329654
v 0.0210207254 -0.0150207281 -0.00202072784
v 0.022233583 -0.013000004 -0.0013393946
v 0.0214748755 -0.013000004 -0.00247487426
v 0.022233583 -0.0143393949 0
v 0.0219120383 -0.0143729597 -0.00137295946
v 0.021296896 -0.0143032968 -0.00229689106
v 0.0190000013 -0.0143393949 -0.00323357806
v 0.0190000013 -0.0154748708 -0.00247487426
v 0.0203393921 -0.013000004 -0.00323357806
v 0.020372957 -0.0143729597 -0.0029120408
v 0.0203033015 -0.0152968913 -0.00229689106
v 0.0190000013 0.0165000036 0
v 0.0190000013 0.013000004 -0.00349999964
v 0.0225000009 0.013000004 0
v 0.0190000013 0.0162335783 -0.0013393946
v 0.0190000013 0.0154748708 -0.00247487426
v 0.0203393921 0.0162335783 0
v 0.020372957 0.0159120411 -0.00137295946
v 0.0203033015 0.0152968913 -0.00229689106
v 0.0210207254 0.0150207281 -0.00202072784
v 0.0203393921 0.013000004 -0.00323357806
v 0.0214748755 0.013000004 -0.00247487426
v 0.0190000013 0.0143393949 -0.00323357806
v 0.020372957 0.0143729597 -0.0029120408
v 0.021296896 0.0143032968 -0.00229689106
v 0.022233583 0.0143393949 0
v 0.0214748755 0.0154748708 0
v 0.022233583 0.013000004 -0.00133939087
v 0.0219120383 0.0143729597 -0.00137295946
v 0.021296896 0.0152968913 -0.00130329654
v -0.0190000013 0.0165000036 0
v -0.0225000009 0.013000004 0
v -0.0190000013 0.013000004 -0.00349999964
v -0.0203393921 0.0162335783 0
v -0.0214748755 0.0154748708 0
v -0.0190000013 0.0162335783 -0.00133939087
v -0.020372957 0.0159120411 -0.00137295946
v -0.0212968923 0.0152968913 -0.00130329654
v -0.0210207254 0.0150207281 -0.00202072784
v -0.0222335793 0.013000004 -0.0013393946
v -0.0214748755 0.013000004 -0.00247487426
v -0.0222335793 0.0143393949 0
v -0.0219120383 0.0143729597 -0.00137295946
v -0.0212968923 0.0143032968 -0.00229689106
v -0.0190000013 0.0143393949 -0.00323357806
v -0.0190000013 0.0154748708 -0.00247487426
v -0.0203393921 0.013000004 -0.00323357806
v -0.020372957 0.0143729597 -0.0029120408
v -0.0203032978 0.0152968913 -0.00229689106
v -0.0225000009 -0.013000004 0
v -0.0190000013 -0.013000004 0.00350000337
v -0.0190000013 -0.0165000036 0
v -0.0222335793 -0.013000004 0.0013393946
v -0.0214748755 -0.013000004 0.00247487426
v -0.0222335793 -0.0143393949 0
v -0.0219120383 -0.0143729597 0.00137295946
v -0.0212968923 -0.0143032968 0.00229689106
v -0.0210207254 -0.0150207281 0.00202072784
v -0.0190000013 -0.0143393949 0.00323357806
v -0.0190000013 -0.0154748708 0.00247487426
v -0.0203393921 -0.013000004 0.00323357806
v -0.020372957 -0.0143729597 0.0029120408
v -0.0203032978 -0.0152968913 0.00229689106
v -0.0203393921 -0.0162335783 0
v -0.0214748755 -0.0154748708 0
v -0.0190000013 -0.0162335783 0.00133939087
v -0.020372957 -0.0159120411 0.00137295946
v -0.0212968923 -0.0152968913 0.00130329654
v 0.0190000013 -0.0165000036 0
v 0.0190000013 -0.013000004 0.00350000337
v 0.0225000009 -0.013000004 0
v 0.0190000013 -0.0162335783 0.0013393946
v 0.0190000013 -0.0154748708 0.00247487426
v 0.0203393921 -0.0162335783 0
v 0.020372957 -0.0159120411 0.00137295946
v 0.0203033015 -0.0152968913 0.00229689106
v 0.0210207254 -0.0150207281 0.00202072784
v 0.0203393921 -0.013000004 0.00323357806
v 0.0214748755 -0.013000004 0.00247487426
v 0.0190000013 -0.0143393949 0.00323357806
v 0.020372957 -0.0143729597 0.0029120408
v 0.021296896 -0.0143032968 0.00229689106
v 0.022233583 -0.0143393949 0
v 0.0214748755 -0.0154748708 0
v 0.022233583 -0.013000004 0.00133939087
v 0.0219120383 -0.0143729597 0.00137295946
v 0.021296896 -0.0152968913 0.00130329654
v 0.0190000013 0.013000004 0.00350000337
v 0.0190000013 0.0165000036 0
v 0.0225000009 0.013000004 0
v 0.0190000013 0.0143393949 0.00323357806
v 0.0190000013 0.0154748708 0.00247487426
v 0.0203393921 0.013000004 0.00323357806
v 0.020372957 0.0143729597 0.0029120408
v 0.0203033015 0.0152968913 0.00229689106
v 0.0210207254 0.0150207281 0.00202072784
v 0.0203393921 0.0162335783 0
v 0.0214748755 0.0154748708 0
v 0.0190000013 0.0162335783 0.00133939087
v 0.020372957 0.0159120411 0.00137295946
v 0.021296896 0.0152968913 0.00130329654
v 0.022233583 0.013000004 0.0013393946
v 0.0214748755 0.013000004 0.00247487426
v 0.022233583 0.0143393949 0
v 0.0219120383 0.0143729597 0.00137295946
v 0.021296896 0.0143032968 0.00229689106
v -0.0225000009 0.013000004 0
v -0.0190000013 0.0165000036 0
v -0.0190000013 0.013000004 0.00350000337
v -0.0222335793 0.0143393949 0
v -0.0214748755 0.0154748708 0
v -0.0222335793 0.013000004 0.00133939087
v -0.0219120383 0.0143729597 0.00137295946
v -0.0212968923 0.0152968913 0.00130329654
v -0.0210207254 0.0150207281 0.00202072784
v -0.0190000013 0.0162335783 0.0013393946
v -0.0190000013 0.0154748708 0.00247487426
v -0.0203393921 0.0162335783 0
v -0.020372957 0.0159120411 0.00137295946
v -0.0203032978 0.0152968913 0.00229689106
v -0.0203393921 0.013000004 0.00323357806
v -0.0214748755 0.013000004 0.00247487426
v -0.0190000013 0.0143393949 0.00323357806
v -0.020372957 0.0143729597 0.0029120408
v -0.0212968923 0.0143032968 0.00229689106
usemtl matte_black_keycaps_003
f 59 134 77 3
f 2 22 40 60
f 39 116 135 58
f 78 136 115 97
f 21 98 117 41
f 1 4 7 6
f 4 5 8 7
f 6 7 19 16
f 7 8 9 19
f 2 10 13 12
f 10 11 14 13
f 12 13 8 5
f 13 14 9 8
f 3 15 18 17
f 15 16 19 18
f 17 18 14 11
f 18 19 9 14
f 20 23 26 25
f 23 24 27 26
f 25 26 38 35
f 26 27 28 38
f 21 29 32 31
f 29 30 33 32
f 31 32 27 24
f 32 33 28 27
f 22 34 37 36
f 34 35 38 37
f 36 37 33 30
f 37 38 28 33
f 39 42 45 44
f 42 43 46 45
f 44 45 57 54
f 45 46 47 57
f 40 48 51 50
f 48 49 52 51
f 50 51 46 43
f 51 52 47 46
f 41 53 56 55
f 53 54 57 56
f 55 56 52 49
f 56 57 47 52
f 58 61 64 63
f 61 62 65 64
f 63 64 76 73
f 64 65 66 76
f 59 67 70 69
f 67 68 71 70
f 69 70 65 62
f 70 71 66 65
f 60 72 75 74
f 72 73 76 75
f 74 75 71 68
f 75 76 66 71
f 77 80 83 82
f 80 81 84 83
f 82 83 95 92
f 83 84 85 95
f 78 86 89 88
f 86 87 90 89
f 88 89 84 81
f 89 90 85 84
f 79 91 94 93
f 91 92 95 94
f 93 94 90 87
f 94 95 85 90
f 96 99 102 101
f 99 100 103 102
f 101 102 114 111
f 102 103 104 114
f 97 105 108 107
f 105 106 109 108
f 107 108 103 100
f 108 109 104 103
f 98 110 113 112
f 110 111 114 113
f 112 113 109 106
f 113 114 104 109
f 115 118 121 120
f 118 119 122 121
f 120 121 133 130
f 121 122 123 133
f 116 124 127 126
f 124 125 128 127
f 126 127 122 119
f 127 128 123 122
f 117 129 132 131
f 129 130 133 132
f 131 132 128 125
f 132 133 123 128
f 134 137 140 139
f 137 138 141 140
f 139 140 152 149
f 140 141 142 152
f 135 143 146 145
f 143 144 147 146
f 145 146 141 138
f 146 147 142 141
f 136 148 151 150
f 148 149 152 151
f 150 151 147 144
f 151 152 142 147
f 39 58 63 42
f 42 63 73 43
f 43 73 72 50
f 50 72 60 40
f 1 20 25 4
f 4 25 35 5
f 5 35 34 12
f 12 34 22 2
f 21 41 55 29
f 29 55 49 30
f 30 49 48 36
f 36 48 40 22
f 2 60 74 10
f 10 74 68 11
f 11 68 67 17
f 17 67 59 3
f 3 77 82 15
f 15 82 92 16
f 16 92 91 6
f 6 91 79 1
f 78 97 107 86
f 86 107 100 87
f 87 100 99 93
f 93 99 96 79
f 97 115 120 105
f 105 120 130 106
f 106 130 129 112
f 112 129 117 98
f 77 134 139 80
f 80 139 149 81
f 81 149 148 88
f 88 148 136 78
f 20 96 101 23
f 23 101 111 24
f 24 111 110 31
f 31 110 98 21
f 41 117 131 53
f 53 131 125 54
f 54 125 124 44
f 44 124 116 39
f 115 136 150 118
f 118 150 144 119
f 119 144 143 126
f 126 143 135 116
f 58 135 145 61
f 61 145 138 62
f 62 138 137 69
f 69 137 134 59
f 1 79 96 20

g key_legend_2_7_U
v 0.0019191578 -0.0017253235 0.00450000539
v 0.00185653567 -0.00210504979 0.00450000539
v 0.00175203383 -0.00245734304 0.00450000539
v 0.00160556287 -0.00278037041 0.00450000539
v 0.00141700357 -0.00307229161 0.00450000539
v 0.00118625909 -0.00333125144 0.00450000539
v 0.000913217664 -0.00355542451 0.00450000539
v 0.000597782433 -0.00374296308 0.00450000539
v 0.000239849091 -0.00389203429 0.00450000539
v -0.000160686672 -0.00400079042 0.00450000539
v -0.000603936613 -0.00406739116 0.00450000539
v -0.00108999759 -0.00409000367 0.00450000539
v -0.00144837052 -0.00407298654 0.00450000539
v -0.00180036575 -0.00402139127 0.00450000539
v -0.00214124471 -0.00393437594 0.00450000539
v -0.00246629119 -0.00381111354 0.00450000539
v -0.00277078152 -0.00365076214 0.00450000539
v -0.00304999202 -0.00345250219 0.00450000539
v -0.0032992065 -0.00321548432 0.00450000539
v -0.00351370126 -0.00293888897 0.00450000539
v -0.0036887452 -0.00262187421 0.00450000539
v -0.0038196221 -0.00226361305 0.00450000539
v -0.00390161574 -0.00186326355 0.00450000539
v -0.003929995 -0.00141999871 0.00450000539
v -0.003929995 0.00282000005 0.00450000539
v -0.00294999778 0.00282000005 0.00450000539
v -0.00294999778 -0.00121000409 0.00450000539
v -0.00294784456 -0.00139338523 0.00450000539
v -0.00294115394 -0.00155954063 0.00450000539
v -0.00292952359 -0.0017100051 0.00450000539
v -0.00291258842 -0.00184629858 0.00450000539
v -0.00288995355 -0.00196995586 0.00450000539
v -0.00286124647 -0.00208250433 0.00450000539
v -0.00282607973 -0.00218546391 0.00450000539
v -0.0027840659 -0.0022803694 0.00450000539
v -0.00273483992 -0.00236875564 0.00450000539
v -0.00267800689 -0.00245213509 0.00450000539
v -0.00261318684 -0.00253204256 0.00450000539
v -0.00253999233 -0.00261000544 0.00450000539
v -0.00244040787 -0.00270333886 0.00450000539
v -0.00233665854 -0.00278837979 0.00450000539
v -0.00222874433 -0.00286515802 0.00450000539
v -0.00211665779 -0.00293370336 0.00450000539
v -0.00200041384 -0.00299406052 0.00450000539
v -0.00187999755 -0.00304625183 0.00450000539
v -0.00175540894 -0.00309032202 0.00450000539
v -0.00162666291 -0.00312630087 0.00450000539
v -0.00149374455 -0.0031542182 0.00450000539
v -0.00135666132 -0.0031741187 0.00450000539
v -0.00121541321 -0.00318603963 0.00450000539
v -0.00106999278 -0.00319000334 0.00450000539
v -0.000886879861 -0.00318510085 0.00450000539
v -0.000712588429 -0.00317078829 0.00450000539
v -0.00054718554 -0.00314766169 0.00450000539
v -0.000390738249 -0.00311630219 0.00450000539
v -0.000243313611 -0.0030772984 0.00450000539
v -0.000104993582 -0.00303125381 0.00450000539
v 2.41622329e-05 -0.00297874957 0.00450000539
v 0.000144079328 -0.00292037427 0.00450000539
v 0.000254690647 -0.00285672396 0.00450000539
v 0.000355929136 -0.00278837979 0.00450000539
v 0.00044772774 -0.00271594524 0.00450000539
v 0.000530004501 -0.00264000148 0.00450000539
v 0.00061199069 -0.00254938006 0.00450000539
v 0.000683382154 -0.00245254487 0.00450000539
v 0.000744849443 -0.00234953314 0.00450000539
v 0.000797040761 -0.00224037468 0.00450000539
v 0.000840626657 -0.0021250993 0.00450000539
v 0.000876255333 -0.0020037517 0.00450000539
v 0.000904597342 -0.00187636167 0.00450000539
v 0.000926300883 -0.00174296647 0.00450000539
v 0.00094203651 -0.00160359591 0.00450000539
v 0.000952459872 -0.00145828724 0.00450000539
v 0.000958226621 -0.00130707771 0.00450000539
v 0.00096000731 -0.00115000457 0.00450000539
v 0.00096000731 0.00282000005 0.00450000539
v 0.00194000453 0.00282000005 0.00450000539
v 0.00194000453 -0.00132000446 0.00450000539
v 0.0019191578 -0.0017253235 0.00409999862
v 0.00185653567 -0.00210504979 0.00409999862
v 0.00175203383 -0.00245734304 0.00409999862
v 0.00160556287 -0.00278037041 0.00409999862
v 0.00141700357 -0.00307229161 0.00409999862
v 0.00118625909 -0.00333125144 0.00409999862
v 0.000913217664 -0.00355542451 0.00409999862
v 0.000597782433 -0.00374296308 0.00409999862
v 0.000239849091 -0.00389203429 0.00409999862
v -0.000160686672 -0.00400079042 0.00409999862
v -0.000603936613 -0.00406739116 0.00409999862
v -0.00108999759 -0.00409000367 0.00409999862
v -0.00144837052 -0.00407298654 0.00409999862
v -0.00180036575 -0.00402139127 0.00409999862
v -0.00214124471 -0.00393437594 0.00409999862
v -0.00246629119 -0.00381111354 0.00409999862
v -0.00277078152 -0.00365076214 0.00409999862
v -0.00304999202 -0.00345250219 0.00409999862
v -0.0032992065 -0.00321548432 0.00409999862
v -0.00351370126 -0.00293888897 0.00409999862
v -0.0036887452 -0.00262187421 0.00409999862
v -0.0038196221 -0.00226361305 0.00409999862
v -0.00390161574 -0.00186326355 0.00409999862
v -0.003929995 -0.00141999871 0.00409999862
v -0.003929995 0.00282000005 0.00409999862
v -0.00294999778 0.00282000005 0.00409999862
v -0.00294999778 -0.00121000409 0.00409999862
v -0.00294784456 -0.00139338523 0.00409999862
v -0.00294115394 -0.00155954063 0.00409999862
v -0.00292952359 -0.0017100051 0.00409999862
v -0.00291258842 -0.00184629858 0.00409999862
v -0.00288995355 -0.00196995586 0.00409999862
v -0.00286124647 -0.00208250433 0.00409999862
v -0.00282607973 -0.00218546391 0.00409999862
v -0.0027840659 -0.0022803694 0.00409999862
v -0.00273483992 -0.00236875564 0.00409999862
v -0.00267800689 -0.00245213509 0.00409999862
v -0.00261318684 -0.00253204256 0.00409999862
v -0.00253999233 -0.00261000544 0.00409999862
v -0.00244040787 -0.00270333886 0.00409999862
v -0.00233665854 -0.00278837979 0.00409999862
v -0.00222874433 -0.00286515802 0.00409999862
v -0.00211665779 -0.00293370336 0.00409999862
v -0.00200041384 -0.00299406052 0.00409999862
v -0.00187999755 -0.00304625183 0.00409999862
v -0.00175540894 -0.00309032202 0.00409999862
v -0.00162666291 -0.00312630087 0.00409999862
v -0.00149374455 -0.0031542182 0.00409999862
v -0.00135666132 -0.0031741187 0.00409999862
v -0.00121541321 -0.00318603963 0.00409999862
v -0.00106999278 -0.00319000334 0.00409999862
v -0.000886879861 -0.00318510085 0.00409999862
v -0.000712588429 -0.00317078829 0.00409999862
v -0.00054718554 -0.00314766169 0.00409999862
v -0.000390738249 -0.00311630219 0.00409999862
v -0.000243313611 -0.0030772984 0.00409999862
v -0.000104993582 -0.00303125381 0.00409999862
v 2.41622329e-05 -0.00297874957 0.00409999862
v 0.000144079328 -0.00292037427 0.00409999862
v 0.000254690647 -0.00285672396 0.00409999862
v 0.000355929136 -0.00278837979 0.00409999862
v 0.00044772774 -0.00271594524 0.00409999862
v 0.000530004501 -0.00264000148 0.00409999862
v 0.00061199069 -0.00254938006 0.00409999862
v 0.000683382154 -0.00245254487 0.00409999862
v 0.000744849443 -0.00234953314 0.00409999862
v 0.000797040761 -0.00224037468 0.00409999862
v 0.000840626657 -0.0021250993 0.00409999862
v 0.000876255333 -0.0020037517 0.00409999862
v 0.000904597342 -0.00187636167 0.00409999862
v 0.000926300883 -0.00174296647 0.00409999862
v 0.00094203651 -0.00160359591 0.00409999862
v 0.000952459872 -0.00145828724 0.00409999862
v 0.000958226621 -0.00130707771 0.00409999862
v 0.00096000731 -0.00115000457 0.00409999862
v 0.00096000731 0.00282000005 0.00409999862
v 0.00194000453 0.00282000005 0.00409999862
v 0.00194000453 -0.00132000446 0.00409999862
v 0.0019191578 -0.0017253235 0.00409999862
v 0.0019191578 -0.0017253235 0.00450000539
v 0.00185653567 -0.00210504979 0.00409999862
v 0.00185653567 -0.00210504979 0.00450000539
v 0.00175203383 -0.00245734304 0.00409999862
v 0.00175203383 -0.00245734304 0.00450000539
v 0.00160556287 -0.00278037041 0.00409999862
v 0.00160556287 -0.00278037041 0.00450000539
v 0.00141700357 -0.00307229161 0.00409999862
v 0.00141700357 -0.00307229161 0.00450000539
v 0.00118625909 -0.00333125144 0.00409999862
v 0.00118625909 -0.00333125144 0.00450000539
v 0.000913217664 -0.00355542451 0.00409999862
v 0.000913217664 -0.00355542451 0.00450000539
v 0.000597782433 -0.00374296308 0.00409999862
v 0.000597782433 -0.00374296308 0.00450000539
v 0.000239849091 -0.00389203429 0.00409999862
v 0.000239849091 -0.00389203429 0.00450000539
v -0.000160686672 -0.00400079042 0.00409999862
v -0.000160686672 -0.00400079042 0.00450000539
v -0.000603936613 -0.00406739116 0.00409999862
v -0.000603936613 -0.00406739116 0.00450000539
v -0.00108999759 -0.00409000367 0.00409999862
v -0.00108999759 -0.00409000367 0.00450000539
v -0.00144837052 -0.00407298654 0.00409999862
v -0.00144837052 -0.00407298654 0.00450000539
v -0.00180036575 -0.00402139127 0.00409999862
v -0.00180036575 -0.00402139127 0.00450000539
v -0.00214124471 -0.00393437594 0.00409999862
v -0.00214124471 -0.00393437594 0.00450000539
v -0.00246629119 -0.00381111354 0.00409999862
v -0.00246629119 -0.00381111354 0.00450000539
v -0.00277078152 -0.00365076214 0.00409999862
v -0.00277078152 -0.00365076214 0.00450000539
v -0.00304999202 -0.00345250219 0.00409999862
v -0.00304999202 -0.00345250219 0.00450000539
v -0.0032992065 -0.00321548432 0.00409999862
v -0.0032992065 -0.00321548432 0.00450000539
v -0.00351370126 -0.00293888897 0.00409999862
v -0.00351370126 -0.00293888897 0.00450000539
v -0.0036887452 -0.00262187421 0.00409999862
v -0.0036887452 -0.00262187421 0.00450000539
v -0.0038196221 -0.00226361305 0.00409999862
v -0.0038196221 -0.00226361305 0.00450000539
v -0.00390161574 -0.00186326355 0.00409999862
v -0.00390161574 -0.00186326355 0.00450000539
v -0.003929995 -0.00141999871 0.00409999862
v -0.003929995 -0.00141999871 0.00450000539
v -0.003929995 0.00282000005 0.00409999862
v -0.003929995 0.00282000005 0.00450000539
v -0.00294999778 0.00282000005 0.00409999862
v -0.00294999778 0.00282000005 0.00450000539
v -0.00294999778 -0.00121000409 0.00409999862
v -0.00294999778 -0.00121000409 0.00450000539
v -0.00294784456 -0.00139338523 0.00409999862
v -0.00294784456 -0.00139338523 0.00450000539
v -0.00294115394 -0.00155954063 0.00409999862
v -0.00294115394 -0.00155954063 0.00450000539
v -0.00292952359 -0.0017100051 0.00409999862
v -0.00292952359 -0.0017100051 0.00450000539
v -0.00291258842 -0.00184629858 0.00409999862
v -0.00291258842 -0.00184629858 0.00450000539
v -0.00288995355 -0.00196995586 0.00409999862
v -0.00288995355 -0.00196995586 0.00450000539
v -0.00286124647 -0.00208250433 0.00409999862
v -0.00286124647 -0.00208250433 0.00450000539
v -0.00282607973 -0.00218546391 0.00409999862
v -0.00282607973 -0.00218546391 0.00450000539
v -0.0027840659 -0.0022803694 0.00409999862
v -0.0027840659 -0.0022803694 0.00450000539
v -0.00273483992 -0.00236875564 0.00409999862
v -0.00273483992 -0.00236875564 0.00450000539
v -0.00267800689 -0.00245213509 0.00409999862
v -0.00267800689 -0.00245213509 0.00450000539
v -0.00261318684 -0.00253204256 0.00409999862
v -0.00261318684 -0.00253204256 0.00450000539
v -0.00253999233 -0.00261000544 0.00409999862
v -0.00253999233 -0.00261000544 0.00450000539
v -0.00244040787 -0.00270333886 0.00409999862
v -0.00244040787 -0.00270333886 0.00450000539
v -0.00233665854 -0.00278837979 0.00409999862
v -0.00233665854 -0.00278837979 0.00450000539
v -0.00222874433 -0.00286515802 0.00409999862
v -0.00222874433 -0.00286515802 0.00450000539
v -0.00211665779 -0.00293370336 0.00409999862
v -0.00211665779 -0.00293370336 0.00450000539
v -0.00200041384 -0.00299406052 0.00409999862
v -0.00200041384 -0.00299406052 0.00450000539
v -0.00187999755 -0.00304625183 0.00409999862
v -0.00187999755 -0.00304625183 0.00450000539
v -0.00175540894 -0.00309032202 0.00409999862
v -0.00175540894 -0.00309032202 0.00450000539
v -0.00162666291 -0.00312630087 0.00409999862
v -0.00162666291 -0.00312630087 0.00450000539
v -0.00149374455 -0.0031542182 0.00409999862
v -0.00149374455 -0.0031542182 0.00450000539
v -0.00135666132 -0.0031741187 0.00409999862
v -0.00135666132 -0.0031741187 0.00450000539
v -0.00121541321 -0.00318603963 0.00409999862
v -0.00121541321 -0.00318603963 0.00450000539
v -0.00106999278 -0.00319000334 0.00409999862
v -0.00106999278 -0.00319000334 0.00450000539
v -0.000886879861 -0.00318510085 0.00409999862
v -0.000886879861 -0.00318510085 0.00450000539
v -0.000712588429 -0.00317078829 0.00409999862
v -0.000712588429 -0.00317078829 0.00450000539
v -0.00054718554 -0.00314766169 0.00409999862
v -0.00054718554 -0.00314766169 0.00450000539
v -0.000390738249 -0.00311630219 0.00409999862
v -0.000390738249 -0.00311630219 0.00450000539
v -0.000243313611 -0.0030772984 0.00409999862
v -0.000243313611 -0.0030772984 0.00450000539
v -0.000104993582 -0.00303125381 0.00409999862
v -0.000104993582 -0.00303125381 0.00450000539
v 2.41622329e-05 -0.00297874957 0.00409999862
v 2.41622329e-05 -0.00297874957 0.00450000539
v 0.000144079328 -0.00292037427 0.00409999862
v 0.000144079328 -0.00292037427 0.00450000539
v 0.000254690647 -0.00285672396 0.00409999862
v 0.000254690647 -0.00285672396 0.00450000539
v 0.000355929136 -0.00278837979 0.00409999862
v 0.000355929136 -0.00278837979 0.00450000539
v 0.00044772774 -0.00271594524 0.00409999862
v 0.00044772774 -0.00271594524 0.00450000539
v 0.000530004501 -0.00264000148 0.00409999862
v 0.000530004501 -0.00264000148 0.00450000539
v 0.00061199069 -0.00254938006 0.00409999862
v 0.00061199069 -0.00254938006 0.00450000539
v 0.000683382154 -0.00245254487 0.00409999862
v 0.000683382154 -0.00245254487 0.00450000539
v 0.000744849443 -0.00234953314 0.00409999862
v 0.000744849443 -0.00234953314 0.00450000539
v 0.000797040761 -0.00224037468 0.00409999862
v 0.000797040761 -0.00224037468 0.00450000539
v 0.000840626657 -0.0021250993 0.00409999862
v 0.000840626657 -0.0021250993 0.00450000539
v 0.000876255333 -0.0020037517 0.00409999862
v 0.000876255333 -0.0020037517 0.00450000539
v 0.000904597342 -0.00187636167 0.00409999862
v 0.000904597342 -0.00187636167 0.00450000539
v 0.000926300883 -0.00174296647 0.00409999862
v 0.000926300883 -0.00174296647 0.00450000539
v 0.00094203651 -0.00160359591 0.00409999862
v 0.00094203651 -0.00160359591 0.00450000539
v 0.000952459872 -0.00145828724 0.00409999862
v 0.000952459872 -0.00145828724 0.00450000539
v 0.000958226621 -0.00130707771 0.00409999862
v 0.000958226621 -0.00130707771 0.00450000539
v 0.00096000731 -0.00115000457 0.00409999862
v 0.00096000731 -0.00115000457 0.00450000539
v 0.00096000731 0.00282000005 0.00409999862
v 0.00096000731 0.00282000005 0.00450000539
v 0.00194000453 0.00282000005 0.00409999862
v 0.00194000453 0.00282000005 0.00450000539
v 0.00194000453 -0.00132000446 0.00409999862
v 0.00194000453 -0.00132000446 0.00450000539
usemtl screen_white_text_003
f 176 178 177
f 176 179 178
f 227 229 228
f 227 230 229
f 226 230 227
f 176 180 179
f 225 230 226
f 225 153 230
f 176 181 180
f 175 181 176
f 224 153 225
f 175 182 181
f 223 153 224
f 175 183 182
f 223 154 153
f 222 154 223
f 175 184 183
f 174 184 175
f 221 154 222
f 174 185 184
f 220 154 221
f 174 186 185
f 220 155 154
f 219 155 220
f 174 187 186
f 218 155 219
f 173 187 174
f 173 188 187
f 217 155 218
f 173 189 188
f 173 190 189
f 216 155 217
f 216 156 155
f 173 191 190
f 215 156 216
f 173 192 191
f 172 192 173
f 214 156 215
f 172 193 192
f 213 156 214
f 213 157 156
f 172 194 193
f 212 157 213
f 211 157 212
f 172 195 194
f 210 157 211
f 172 196 195
f 171 196 172
f 209 157 210
f 171 197 196
f 208 157 209
f 171 198 197
f 208 158 157
f 207 158 208
f 171 199 198
f 206 158 207
f 171 200 199
f 205 158 206
f 171 201 200
f 204 158 205
f 171 202 201
f 203 158 204
f 171 203 202
f 171 158 203
f 170 158 171
f 170 159 158
f 169 159 170
f 169 160 159
f 168 160 169
f 168 161 160
f 167 161 168
f 167 162 161
f 166 162 167
f 166 163 162
f 165 163 166
f 165 164 163
f 254 255 256
f 254 256 257
f 305 306 307
f 305 307 308
f 304 305 308
f 254 257 258
f 303 304 308
f 303 308 231
f 254 258 259
f 253 254 259
f 302 303 231
f 253 259 260
f 301 302 231
f 253 260 261
f 301 231 232
f 300 301 232
f 253 261 262
f 252 253 262
f 299 300 232
f 252 262 263
f 298 299 232
f 252 263 264
f 298 232 233
f 297 298 233
f 252 264 265
f 296 297 233
f 251 252 265
f 251 265 266
f 295 296 233
f 251 266 267
f 251 267 268
f 294 295 233
f 294 233 234
f 251 268 269
f 293 294 234
f 251 269 270
f 250 251 270
f 292 293 234
f 250 270 271
f 291 292 234
f 291 234 235
f 250 271 272
f 290 291 235
f 289 290 235
f 250 272 273
f 288 289 235
f 250 273 274
f 249 250 274
f 287 288 235
f 249 274 275
f 286 287 235
f 249 275 276
f 286 235 236
f 285 286 236
f 249 276 277
f 284 285 236
f 249 277 278
f 283 284 236
f 249 278 279
f 282 283 236
f 249 279 280
f 281 282 236
f 249 280 281
f 249 281 236
f 248 249 236
f 248 236 237
f 247 248 237
f 247 237 238
f 246 247 238
f 246 238 239
f 245 246 239
f 245 239 240
f 244 245 240
f 244 240 241
f 243 244 241
f 243 241 242
f 310 312 311 309
f 312 314 313 311
f 314 316 315 313
f 316 318 317 315
f 318 320 319 317
f 320 322 321 319
f 322 324 323 321
f 324 326 325 323
f 326 328 327 325
f 328 330 329 327
f 330 332 331 329
f 332 334 333 331
f 334 336 335 333
f 336 338 337 335
f 338 340 339 337
f 340 342 341 339
f 342 344 343 341
f 344 346 345 343
f 346 348 347 345
f 348 350 349 347
f 350 352 351 349
f 352 354 353 351
f 354 356 355 353
f 356 358 357 355
f 358 360 359 357
f 360 362 361 359
f 362 364 363 361
f 364 366 365 363
f 366 368 367 365
f 368 370 369 367
f 370 372 371 369
f 372 374 373 371
f 374 376 375 373
f 376 378 377 375
f 378 380 379 377
f 380 382 381 379
f 382 384 383 381
f 384 386 385 383
f 386 388 387 385
f 388 390 389 387
f 390 392 391 389
f 392 394 393 391
f 394 396 395 393
f 396 398 397 395
f 398 400 399 397
f 400 402 401 399
f 402 404 403 401
f 404 406 405 403
f 406 408 407 405
f 408 410 409 407
f 410 412 411 409
f 412 414 413 411
f 414 416 415 413
f 416 418 417 415
f 418 420 419 417
f 420 422 421 419
f 422 424 423 421
f 424 426 425 423
f 426 428 427 425
f 428 430 429 427
f 430 432 431 429
f 432 434 433 431
f 434 436 435 433
f 436 438 437 435
f 438 440 439 437
f 440 442 441 439
f 442 444 443 441
f 444 446 445 443
f 446 448 447 445
f 448 450 449 447
f 450 452 451 449
f 452 454 453 451
f 454 456 455 453
f 456 458 457 455
f 458 460 459 457
f 460 462 461 459
f 462 464 463 461
f 464 310 309 463
