# OBJ in URDF link-local coordinates
# No mtllib/usemtl: visual material color is stored in the URDF.

o carcass_left_side
v -0.405999988 -0.206 0.180000067
v -0.405999988 -0.209999993 0.184000015
v -0.409999996 -0.206 0.184000015
v -0.405999988 -0.208828419 0.181171656
v -0.4083094 -0.208309397 0.181690693
v -0.408828408 -0.208828419 0.184000015
v -0.408828408 -0.206 0.181171656
v -0.405999988 -0.209999993 2.296
v -0.405999988 -0.206 2.29999995
v -0.409999996 -0.206 2.296
v -0.405999988 -0.208828419 2.29882836
v -0.4083094 -0.208309397 2.29830933
v -0.408828408 -0.206 2.29882836
v -0.408828408 -0.208828419 2.296
v -0.405999988 0.206 0.180000067
v -0.409999996 0.206 0.184000015
v -0.405999988 0.209999993 0.184000015
v -0.408828408 0.206 0.181171656
v -0.4083094 0.208309397 0.181690693
v -0.408828408 0.208828419 0.184000015
v -0.405999988 0.208828419 0.181171656
v -0.405999988 0.206 2.29999995
v -0.405999988 0.209999993 2.296
v -0.409999996 0.206 2.296
v -0.405999988 0.208828419 2.29882836
v -0.4083094 0.208309397 2.29830933
v -0.408828408 0.208828419 2.296
v -0.408828408 0.206 2.29882836
v -0.358999997 -0.206 0.180000067
v -0.354999989 -0.206 0.184000015
v -0.358999997 -0.209999993 0.184000015
v -0.356171578 -0.206 0.181171656
v -0.356690586 -0.208309397 0.181690693
v -0.356171578 -0.208828419 0.184000015
v -0.358999997 -0.208828419 0.181171656
v -0.358999997 -0.206 2.29999995
v -0.358999997 -0.209999993 2.296
v -0.354999989 -0.206 2.296
v -0.358999997 -0.208828419 2.29882836
v -0.356690586 -0.208309397 2.29830933
v -0.356171578 -0.208828419 2.296
v -0.356171578 -0.206 2.29882836
v -0.358999997 0.206 0.180000067
v -0.358999997 0.209999993 0.184000015
v -0.354999989 0.206 0.184000015
v -0.358999997 0.208828419 0.181171656
v -0.356690586 0.208309397 0.181690693
v -0.356171578 0.208828419 0.184000015
v -0.356171578 0.206 0.181171656
v -0.358999997 0.206 2.29999995
v -0.354999989 0.206 2.296
v -0.358999997 0.209999993 2.296
v -0.356171578 0.206 2.29882836
v -0.356690586 0.208309397 2.29830933
v -0.356171578 0.208828419 2.296
v -0.358999997 0.208828419 2.29882836
f 31 37 8
f 31 8 2
f 45 51 38
f 45 38 30
f 50 22 9
f 50 9 36
f 3 10 24
f 3 24 16
f 17 23 52
f 17 52 44
f 1 4 5
f 1 5 7
f 2 6 5
f 2 5 4
f 3 7 5
f 3 5 6
f 8 11 12
f 8 12 14
f 9 13 12
f 9 12 11
f 10 14 12
f 10 12 13
f 15 18 19
f 15 19 21
f 16 20 19
f 16 19 18
f 17 21 19
f 17 19 20
f 22 25 26
f 22 26 28
f 23 27 26
f 23 26 25
f 24 28 26
f 24 26 27
f 29 32 33
f 29 33 35
f 30 34 33
f 30 33 32
f 31 35 33
f 31 33 34
f 36 39 40
f 36 40 42
f 37 41 40
f 37 40 39
f 38 42 40
f 38 40 41
f 43 46 47
f 43 47 49
f 44 48 47
f 44 47 46
f 45 49 47
f 45 47 48
f 50 53 54
f 50 54 56
f 51 55 54
f 51 54 53
f 52 56 54
f 52 54 55
f 15 1 7
f 15 7 18
f 18 7 3
f 18 3 16
f 2 8 14
f 2 14 6
f 6 14 10
f 6 10 3
f 9 22 28
f 9 28 13
f 13 28 24
f 13 24 10
f 23 17 20
f 23 20 27
f 27 20 16
f 27 16 24
f 43 15 21
f 43 21 46
f 46 21 17
f 46 17 44
f 22 50 56
f 22 56 25
f 25 56 52
f 25 52 23
f 51 45 48
f 51 48 55
f 55 48 44
f 55 44 52
f 29 43 49
f 29 49 32
f 32 49 45
f 32 45 30
f 50 36 42
f 50 42 53
f 53 42 38
f 53 38 51
f 37 31 34
f 37 34 41
f 41 34 30
f 41 30 38
f 1 29 35
f 1 35 4
f 4 35 31
f 4 31 2
f 36 9 11
f 36 11 39
f 39 11 8
f 39 8 37
f 15 43 29
f 15 29 1

o carcass_right_side
v 0.358999997 -0.206 0.180000067
v 0.358999997 -0.209999993 0.184000015
v 0.354999989 -0.206 0.184000015
v 0.358999997 -0.208828419 0.181171656
v 0.356690586 -0.208309397 0.181690693
v 0.356171578 -0.208828419 0.184000015
v 0.356171578 -0.206 0.181171656
v 0.358999997 -0.209999993 2.296
v 0.358999997 -0.206 2.29999995
v 0.354999989 -0.206 2.296
v 0.358999997 -0.208828419 2.29882836
v 0.356690586 -0.208309397 2.29830933
v 0.356171578 -0.206 2.29882836
v 0.356171578 -0.208828419 2.296
v 0.358999997 0.206 0.180000067
v 0.354999989 0.206 0.184000015
v 0.358999997 0.209999993 0.184000015
v 0.356171578 0.206 0.181171656
v 0.356690586 0.208309397 0.181690693
v 0.356171578 0.208828419 0.184000015
v 0.358999997 0.208828419 0.181171656
v 0.358999997 0.206 2.29999995
v 0.358999997 0.209999993 2.296
v 0.354999989 0.206 2.296
v 0.358999997 0.208828419 2.29882836
v 0.356690586 0.208309397 2.29830933
v 0.356171578 0.208828419 2.296
v 0.356171578 0.206 2.29882836
v 0.405999988 -0.206 0.180000067
v 0.409999996 -0.206 0.184000015
v 0.405999988 -0.209999993 0.184000015
v 0.408828408 -0.206 0.181171656
v 0.4083094 -0.208309397 0.181690693
v 0.408828408 -0.208828419 0.184000015
v 0.405999988 -0.208828419 0.181171656
v 0.405999988 -0.206 2.29999995
v 0.405999988 -0.209999993 2.296
v 0.409999996 -0.206 2.296
v 0.405999988 -0.208828419 2.29882836
v 0.4083094 -0.208309397 2.29830933
v 0.408828408 -0.208828419 2.296
v 0.408828408 -0.206 2.29882836
v 0.405999988 0.206 0.180000067
v 0.405999988 0.209999993 0.184000015
v 0.409999996 0.206 0.184000015
v 0.405999988 0.208828419 0.181171656
v 0.4083094 0.208309397 0.181690693
v 0.408828408 0.208828419 0.184000015
v 0.408828408 0.206 0.181171656
v 0.405999988 0.206 2.29999995
v 0.409999996 0.206 2.296
v 0.405999988 0.209999993 2.296
v 0.408828408 0.206 2.29882836
v 0.4083094 0.208309397 2.29830933
v 0.408828408 0.208828419 2.296
v 0.405999988 0.208828419 2.29882836
f 87 93 64
f 87 64 58
f 101 107 94
f 101 94 86
f 106 78 65
f 106 65 92
f 59 66 80
f 59 80 72
f 73 79 108
f 73 108 100
f 57 60 61
f 57 61 63
f 58 62 61
f 58 61 60
f 59 63 61
f 59 61 62
f 64 67 68
f 64 68 70
f 65 69 68
f 65 68 67
f 66 70 68
f 66 68 69
f 71 74 75
f 71 75 77
f 72 76 75
f 72 75 74
f 73 77 75
f 73 75 76
f 78 81 82
f 78 82 84
f 79 83 82
f 79 82 81
f 80 84 82
f 80 82 83
f 85 88 89
f 85 89 91
f 86 90 89
f 86 89 88
f 87 91 89
f 87 89 90
f 92 95 96
f 92 96 98
f 93 97 96
f 93 96 95
f 94 98 96
f 94 96 97
f 99 102 103
f 99 103 105
f 100 104 103
f 100 103 102
f 101 105 103
f 101 103 104
f 106 109 110
f 106 110 112
f 107 111 110
f 107 110 109
f 108 112 110
f 108 110 111
f 71 57 63
f 71 63 74
f 74 63 59
f 74 59 72
f 58 64 70
f 58 70 62
f 62 70 66
f 62 66 59
f 65 78 84
f 65 84 69
f 69 84 80
f 69 80 66
f 79 73 76
f 79 76 83
f 83 76 72
f 83 72 80
f 99 71 77
f 99 77 102
f 102 77 73
f 102 73 100
f 78 106 112
f 78 112 81
f 81 112 108
f 81 108 79
f 107 101 104
f 107 104 111
f 111 104 100
f 111 100 108
f 85 99 105
f 85 105 88
f 88 105 101
f 88 101 86
f 106 92 98
f 106 98 109
f 109 98 94
f 109 94 107
f 93 87 90
f 93 90 97
f 97 90 86
f 97 86 94
f 57 85 91
f 57 91 60
f 60 91 87
f 60 87 58
f 92 65 67
f 92 67 95
f 95 67 64
f 95 64 93
f 71 99 85
f 71 85 57

o carcass_top_panel
v -0.350999981 -0.206 2.24500012
v -0.350999981 -0.209999993 2.24900007
v -0.354999989 -0.206 2.24900007
v -0.350999951 -0.208828419 2.24617171
v -0.353309363 -0.208309397 2.24669075
v -0.353828371 -0.208828419 2.24900007
v -0.353828371 -0.206 2.24617171
v -0.350999981 -0.209999993 2.296
v -0.350999981 -0.206 2.29999995
v -0.354999989 -0.206 2.296
v -0.350999951 -0.208828419 2.29882836
v -0.353309363 -0.208309397 2.29830933
v -0.353828371 -0.206 2.29882836
v -0.353828371 -0.208828419 2.296
v -0.350999981 0.206 2.24500012
v -0.354999989 0.206 2.24900007
v -0.350999981 0.209999993 2.24900007
v -0.353828371 0.206 2.24617171
v -0.353309363 0.208309397 2.24669075
v -0.353828371 0.208828419 2.24900007
v -0.350999951 0.208828419 2.24617171
v -0.350999981 0.206 2.29999995
v -0.350999981 0.209999993 2.296
v -0.354999989 0.206 2.296
v -0.350999951 0.208828419 2.29882836
v -0.353309363 0.208309397 2.29830933
v -0.353828371 0.208828419 2.296
v -0.353828371 0.206 2.29882836
v 0.350999981 -0.206 2.24500012
v 0.354999989 -0.206 2.24900007
v 0.350999981 -0.209999993 2.24900007
v 0.353828371 -0.206 2.24617171
v 0.353309363 -0.208309397 2.24669075
v 0.353828371 -0.208828419 2.24900007
v 0.350999951 -0.208828419 2.24617171
v 0.350999981 -0.206 2.29999995
v 0.350999981 -0.209999993 2.296
v 0.354999989 -0.206 2.296
v 0.350999951 -0.208828419 2.29882836
v 0.353309363 -0.208309397 2.29830933
v 0.353828371 -0.208828419 2.296
v 0.353828371 -0.206 2.29882836
v 0.350999981 0.206 2.24500012
v 0.350999981 0.209999993 2.24900007
v 0.354999989 0.206 2.24900007
v 0.350999951 0.208828419 2.24617171
v 0.353309363 0.208309397 2.24669075
v 0.353828371 0.208828419 2.24900007
v 0.353828371 0.206 2.24617171
v 0.350999981 0.206 2.29999995
v 0.354999989 0.206 2.296
v 0.350999981 0.209999993 2.296
v 0.353828371 0.206 2.29882836
v 0.353309363 0.208309397 2.29830933
v 0.353828371 0.208828419 2.296
v 0.350999951 0.208828419 2.29882836
f 143 149 120
f 143 120 114
f 157 163 150
f 157 150 142
f 162 134 121
f 162 121 148
f 115 122 136
f 115 136 128
f 129 135 164
f 129 164 156
f 113 116 117
f 113 117 119
f 114 118 117
f 114 117 116
f 115 119 117
f 115 117 118
f 120 123 124
f 120 124 126
f 121 125 124
f 121 124 123
f 122 126 124
f 122 124 125
f 127 130 131
f 127 131 133
f 128 132 131
f 128 131 130
f 129 133 131
f 129 131 132
f 134 137 138
f 134 138 140
f 135 139 138
f 135 138 137
f 136 140 138
f 136 138 139
f 141 144 145
f 141 145 147
f 142 146 145
f 142 145 144
f 143 147 145
f 143 145 146
f 148 151 152
f 148 152 154
f 149 153 152
f 149 152 151
f 150 154 152
f 150 152 153
f 155 158 159
f 155 159 161
f 156 160 159
f 156 159 158
f 157 161 159
f 157 159 160
f 162 165 166
f 162 166 168
f 163 167 166
f 163 166 165
f 164 168 166
f 164 166 167
f 127 113 119
f 127 119 130
f 130 119 115
f 130 115 128
f 114 120 126
f 114 126 118
f 118 126 122
f 118 122 115
f 121 134 140
f 121 140 125
f 125 140 136
f 125 136 122
f 135 129 132
f 135 132 139
f 139 132 128
f 139 128 136
f 155 127 133
f 155 133 158
f 158 133 129
f 158 129 156
f 134 162 168
f 134 168 137
f 137 168 164
f 137 164 135
f 163 157 160
f 163 160 167
f 167 160 156
f 167 156 164
f 141 155 161
f 141 161 144
f 144 161 157
f 144 157 142
f 162 148 154
f 162 154 165
f 165 154 150
f 165 150 163
f 149 143 146
f 149 146 153
f 153 146 142
f 153 142 150
f 113 141 147
f 113 147 116
f 116 147 143
f 116 143 114
f 148 121 123
f 148 123 151
f 151 123 120
f 151 120 149
f 127 155 141
f 127 141 113

o carcass_bottom_panel
v -0.350999981 -0.206 0.179999992
v -0.350999981 -0.209999993 0.184
v -0.354999989 -0.206 0.184
v -0.350999951 -0.208828419 0.181171566
v -0.353309363 -0.208309397 0.181690603
v -0.353828371 -0.208828419 0.184
v -0.353828371 -0.206 0.181171566
v -0.350999981 -0.209999993 0.230999991
v -0.350999981 -0.206 0.234999999
v -0.354999989 -0.206 0.230999991
v -0.350999951 -0.208828419 0.233828425
v -0.353309363 -0.208309397 0.233309388
v -0.353828371 -0.206 0.233828425
v -0.353828371 -0.208828419 0.230999991
v -0.350999981 0.206 0.179999992
v -0.354999989 0.206 0.184
v -0.350999981 0.209999993 0.184
v -0.353828371 0.206 0.181171566
v -0.353309363 0.208309397 0.181690603
v -0.353828371 0.208828419 0.184
v -0.350999951 0.208828419 0.181171566
v -0.350999981 0.206 0.234999999
v -0.350999981 0.209999993 0.230999991
v -0.354999989 0.206 0.230999991
v -0.350999951 0.208828419 0.233828425
v -0.353309363 0.208309397 0.233309388
v -0.353828371 0.208828419 0.230999991
v -0.353828371 0.206 0.233828425
v 0.350999981 -0.206 0.179999992
v 0.354999989 -0.206 0.184
v 0.350999981 -0.209999993 0.184
v 0.353828371 -0.206 0.181171566
v 0.353309363 -0.208309397 0.181690603
v 0.353828371 -0.208828419 0.184
v 0.350999951 -0.208828419 0.181171566
v 0.350999981 -0.206 0.234999999
v 0.350999981 -0.209999993 0.230999991
v 0.354999989 -0.206 0.230999991
v 0.350999951 -0.208828419 0.233828425
v 0.353309363 -0.208309397 0.233309388
v 0.353828371 -0.208828419 0.230999991
v 0.353828371 -0.206 0.233828425
v 0.350999981 0.206 0.179999992
v 0.350999981 0.209999993 0.184
v 0.354999989 0.206 0.184
v 0.350999951 0.208828419 0.181171566
v 0.353309363 0.208309397 0.181690603
v 0.353828371 0.208828419 0.184
v 0.353828371 0.206 0.181171566
v 0.350999981 0.206 0.234999999
v 0.354999989 0.206 0.230999991
v 0.350999981 0.209999993 0.230999991
v 0.353828371 0.206 0.233828425
v 0.353309363 0.208309397 0.233309388
v 0.353828371 0.208828419 0.230999991
v 0.350999951 0.208828419 0.233828425
f 199 205 176
f 199 176 170
f 213 219 206
f 213 206 198
f 218 190 177
f 218 177 204
f 171 178 192
f 171 192 184
f 185 191 220
f 185 220 212
f 169 172 173
f 169 173 175
f 170 174 173
f 170 173 172
f 171 175 173
f 171 173 174
f 176 179 180
f 176 180 182
f 177 181 180
f 177 180 179
f 178 182 180
f 178 180 181
f 183 186 187
f 183 187 189
f 184 188 187
f 184 187 186
f 185 189 187
f 185 187 188
f 190 193 194
f 190 194 196
f 191 195 194
f 191 194 193
f 192 196 194
f 192 194 195
f 197 200 201
f 197 201 203
f 198 202 201
f 198 201 200
f 199 203 201
f 199 201 202
f 204 207 208
f 204 208 210
f 205 209 208
f 205 208 207
f 206 210 208
f 206 208 209
f 211 214 215
f 211 215 217
f 212 216 215
f 212 215 214
f 213 217 215
f 213 215 216
f 218 221 222
f 218 222 224
f 219 223 222
f 219 222 221
f 220 224 222
f 220 222 223
f 183 169 175
f 183 175 186
f 186 175 171
f 186 171 184
f 170 176 182
f 170 182 174
f 174 182 178
f 174 178 171
f 177 190 196
f 177 196 181
f 181 196 192
f 181 192 178
f 191 185 188
f 191 188 195
f 195 188 184
f 195 184 192
f 211 183 189
f 211 189 214
f 214 189 185
f 214 185 212
f 190 218 224
f 190 224 193
f 193 224 220
f 193 220 191
f 219 213 216
f 219 216 223
f 223 216 212
f 223 212 220
f 197 211 217
f 197 217 200
f 200 217 213
f 200 213 198
f 218 204 210
f 218 210 221
f 221 210 206
f 221 206 219
f 205 199 202
f 205 202 209
f 209 202 198
f 209 198 206
f 169 197 203
f 169 203 172
f 172 203 199
f 172 199 170
f 204 177 179
f 204 179 207
f 207 179 176
f 207 176 205
f 183 211 197
f 183 197 169

o shelf_upper
v -0.350999981 -0.206 1.79250002
v -0.350999981 -0.209999993 1.79650009
v -0.354999989 -0.206 1.79650009
v -0.350999951 -0.208828419 1.79367161
v -0.353309363 -0.208309397 1.79419065
v -0.353828371 -0.208828419 1.79650009
v -0.353828371 -0.206 1.79367161
v -0.350999981 -0.209999993 1.84350002
v -0.350999981 -0.206 1.84750009
v -0.354999989 -0.206 1.84350002
v -0.350999951 -0.208828419 1.8463285
v -0.353309363 -0.208309397 1.84580946
v -0.353828371 -0.206 1.8463285
v -0.353828371 -0.208828419 1.84350002
v -0.350999981 0.206 1.79250002
v -0.354999989 0.206 1.79650009
v -0.350999981 0.209999993 1.79650009
v -0.353828371 0.206 1.79367161
v -0.353309363 0.208309397 1.79419065
v -0.353828371 0.208828419 1.79650009
v -0.350999951 0.208828419 1.79367161
v -0.350999981 0.206 1.84750009
v -0.350999981 0.209999993 1.84350002
v -0.354999989 0.206 1.84350002
v -0.350999951 0.208828419 1.8463285
v -0.353309363 0.208309397 1.84580946
v -0.353828371 0.208828419 1.84350002
v -0.353828371 0.206 1.8463285
v 0.350999981 -0.206 1.79250002
v 0.354999989 -0.206 1.79650009
v 0.350999981 -0.209999993 1.79650009
v 0.353828371 -0.206 1.79367161
v 0.353309363 -0.208309397 1.79419065
v 0.353828371 -0.208828419 1.79650009
v 0.350999951 -0.208828419 1.79367161
v 0.350999981 -0.206 1.84750009
v 0.350999981 -0.209999993 1.84350002
v 0.354999989 -0.206 1.84350002
v 0.350999951 -0.208828419 1.8463285
v 0.353309363 -0.208309397 1.84580946
v 0.353828371 -0.208828419 1.84350002
v 0.353828371 -0.206 1.8463285
v 0.350999981 0.206 1.79250002
v 0.350999981 0.209999993 1.79650009
v 0.354999989 0.206 1.79650009
v 0.350999951 0.208828419 1.79367161
v 0.353309363 0.208309397 1.79419065
v 0.353828371 0.208828419 1.79650009
v 0.353828371 0.206 1.79367161
v 0.350999981 0.206 1.84750009
v 0.354999989 0.206 1.84350002
v 0.350999981 0.209999993 1.84350002
v 0.353828371 0.206 1.8463285
v 0.353309363 0.208309397 1.84580946
v 0.353828371 0.208828419 1.84350002
v 0.350999951 0.208828419 1.8463285
f 255 261 232
f 255 232 226
f 269 275 262
f 269 262 254
f 274 246 233
f 274 233 260
f 227 234 248
f 227 248 240
f 241 247 276
f 241 276 268
f 225 228 229
f 225 229 231
f 226 230 229
f 226 229 228
f 227 231 229
f 227 229 230
f 232 235 236
f 232 236 238
f 233 237 236
f 233 236 235
f 234 238 236
f 234 236 237
f 239 242 243
f 239 243 245
f 240 244 243
f 240 243 242
f 241 245 243
f 241 243 244
f 246 249 250
f 246 250 252
f 247 251 250
f 247 250 249
f 248 252 250
f 248 250 251
f 253 256 257
f 253 257 259
f 254 258 257
f 254 257 256
f 255 259 257
f 255 257 258
f 260 263 264
f 260 264 266
f 261 265 264
f 261 264 263
f 262 266 264
f 262 264 265
f 267 270 271
f 267 271 273
f 268 272 271
f 268 271 270
f 269 273 271
f 269 271 272
f 274 277 278
f 274 278 280
f 275 279 278
f 275 278 277
f 276 280 278
f 276 278 279
f 239 225 231
f 239 231 242
f 242 231 227
f 242 227 240
f 226 232 238
f 226 238 230
f 230 238 234
f 230 234 227
f 233 246 252
f 233 252 237
f 237 252 248
f 237 248 234
f 247 241 244
f 247 244 251
f 251 244 240
f 251 240 248
f 267 239 245
f 267 245 270
f 270 245 241
f 270 241 268
f 246 274 280
f 246 280 249
f 249 280 276
f 249 276 247
f 275 269 272
f 275 272 279
f 279 272 268
f 279 268 276
f 253 267 273
f 253 273 256
f 256 273 269
f 256 269 254
f 274 260 266
f 274 266 277
f 277 266 262
f 277 262 275
f 261 255 258
f 261 258 265
f 265 258 254
f 265 254 262
f 225 253 259
f 225 259 228
f 228 259 255
f 228 255 226
f 260 233 235
f 260 235 263
f 263 235 232
f 263 232 261
f 239 267 253
f 239 253 225

o shelf_middle
v -0.350999981 -0.206 1.37249994
v -0.350999981 -0.209999993 1.37650001
v -0.354999989 -0.206 1.37650001
v -0.350999951 -0.208828419 1.37367153
v -0.353309363 -0.208309397 1.37419057
v -0.353828371 -0.208828419 1.37650001
v -0.353828371 -0.206 1.37367153
v -0.350999981 -0.209999993 1.42349994
v -0.350999981 -0.206 1.42750001
v -0.354999989 -0.206 1.42349994
v -0.350999951 -0.208828419 1.42632842
v -0.353309363 -0.208309397 1.42580938
v -0.353828371 -0.206 1.42632842
v -0.353828371 -0.208828419 1.42349994
v -0.350999981 0.206 1.37249994
v -0.354999989 0.206 1.37650001
v -0.350999981 0.209999993 1.37650001
v -0.353828371 0.206 1.37367153
v -0.353309363 0.208309397 1.37419057
v -0.353828371 0.208828419 1.37650001
v -0.350999951 0.208828419 1.37367153
v -0.350999981 0.206 1.42750001
v -0.350999981 0.209999993 1.42349994
v -0.354999989 0.206 1.42349994
v -0.350999951 0.208828419 1.42632842
v -0.353309363 0.208309397 1.42580938
v -0.353828371 0.208828419 1.42349994
v -0.353828371 0.206 1.42632842
v 0.350999981 -0.206 1.37249994
v 0.354999989 -0.206 1.37650001
v 0.350999981 -0.209999993 1.37650001
v 0.353828371 -0.206 1.37367153
v 0.353309363 -0.208309397 1.37419057
v 0.353828371 -0.208828419 1.37650001
v 0.350999951 -0.208828419 1.37367153
v 0.350999981 -0.206 1.42750001
v 0.350999981 -0.209999993 1.42349994
v 0.354999989 -0.206 1.42349994
v 0.350999951 -0.208828419 1.42632842
v 0.353309363 -0.208309397 1.42580938
v 0.353828371 -0.208828419 1.42349994
v 0.353828371 -0.206 1.42632842
v 0.350999981 0.206 1.37249994
v 0.350999981 0.209999993 1.37650001
v 0.354999989 0.206 1.37650001
v 0.350999951 0.208828419 1.37367153
v 0.353309363 0.208309397 1.37419057
v 0.353828371 0.208828419 1.37650001
v 0.353828371 0.206 1.37367153
v 0.350999981 0.206 1.42750001
v 0.354999989 0.206 1.42349994
v 0.350999981 0.209999993 1.42349994
v 0.353828371 0.206 1.42632842
v 0.353309363 0.208309397 1.42580938
v 0.353828371 0.208828419 1.42349994
v 0.350999951 0.208828419 1.42632842
f 311 317 288
f 311 288 282
f 325 331 318
f 325 318 310
f 330 302 289
f 330 289 316
f 283 290 304
f 283 304 296
f 297 303 332
f 297 332 324
f 281 284 285
f 281 285 287
f 282 286 285
f 282 285 284
f 283 287 285
f 283 285 286
f 288 291 292
f 288 292 294
f 289 293 292
f 289 292 291
f 290 294 292
f 290 292 293
f 295 298 299
f 295 299 301
f 296 300 299
f 296 299 298
f 297 301 299
f 297 299 300
f 302 305 306
f 302 306 308
f 303 307 306
f 303 306 305
f 304 308 306
f 304 306 307
f 309 312 313
f 309 313 315
f 310 314 313
f 310 313 312
f 311 315 313
f 311 313 314
f 316 319 320
f 316 320 322
f 317 321 320
f 317 320 319
f 318 322 320
f 318 320 321
f 323 326 327
f 323 327 329
f 324 328 327
f 324 327 326
f 325 329 327
f 325 327 328
f 330 333 334
f 330 334 336
f 331 335 334
f 331 334 333
f 332 336 334
f 332 334 335
f 295 281 287
f 295 287 298
f 298 287 283
f 298 283 296
f 282 288 294
f 282 294 286
f 286 294 290
f 286 290 283
f 289 302 308
f 289 308 293
f 293 308 304
f 293 304 290
f 303 297 300
f 303 300 307
f 307 300 296
f 307 296 304
f 323 295 301
f 323 301 326
f 326 301 297
f 326 297 324
f 302 330 336
f 302 336 305
f 305 336 332
f 305 332 303
f 331 325 328
f 331 328 335
f 335 328 324
f 335 324 332
f 309 323 329
f 309 329 312
f 312 329 325
f 312 325 310
f 330 316 322
f 330 322 333
f 333 322 318
f 333 318 331
f 317 311 314
f 317 314 321
f 321 314 310
f 321 310 318
f 281 309 315
f 281 315 284
f 284 315 311
f 284 311 282
f 316 289 291
f 316 291 319
f 319 291 288
f 319 288 317
f 295 323 309
f 295 309 281

o shelf_above_drawers
v -0.350999981 -0.206 0.957500041
v -0.350999981 -0.209999993 0.961499989
v -0.354999989 -0.206 0.961499989
v -0.350999951 -0.208828419 0.95867157
v -0.353309363 -0.208309397 0.959190607
v -0.353828371 -0.208828419 0.961499989
v -0.353828371 -0.206 0.95867157
v -0.350999981 -0.209999993 1.00849998
v -0.350999981 -0.206 1.01250005
v -0.354999989 -0.206 1.00849998
v -0.350999951 -0.208828419 1.01132846
v -0.353309363 -0.208309397 1.01080942
v -0.353828371 -0.206 1.01132846
v -0.353828371 -0.208828419 1.00849998
v -0.350999981 0.206 0.957500041
v -0.354999989 0.206 0.961499989
v -0.350999981 0.209999993 0.961499989
v -0.353828371 0.206 0.95867157
v -0.353309363 0.208309397 0.959190607
v -0.353828371 0.208828419 0.961499989
v -0.350999951 0.208828419 0.95867157
v -0.350999981 0.206 1.01250005
v -0.350999981 0.209999993 1.00849998
v -0.354999989 0.206 1.00849998
v -0.350999951 0.208828419 1.01132846
v -0.353309363 0.208309397 1.01080942
v -0.353828371 0.208828419 1.00849998
v -0.353828371 0.206 1.01132846
v 0.350999981 -0.206 0.957500041
v 0.354999989 -0.206 0.961499989
v 0.350999981 -0.209999993 0.961499989
v 0.353828371 -0.206 0.95867157
v 0.353309363 -0.208309397 0.959190607
v 0.353828371 -0.208828419 0.961499989
v 0.350999951 -0.208828419 0.95867157
v 0.350999981 -0.206 1.01250005
v 0.350999981 -0.209999993 1.00849998
v 0.354999989 -0.206 1.00849998
v 0.350999951 -0.208828419 1.01132846
v 0.353309363 -0.208309397 1.01080942
v 0.353828371 -0.208828419 1.00849998
v 0.353828371 -0.206 1.01132846
v 0.350999981 0.206 0.957500041
v 0.350999981 0.209999993 0.961499989
v 0.354999989 0.206 0.961499989
v 0.350999951 0.208828419 0.95867157
v 0.353309363 0.208309397 0.959190607
v 0.353828371 0.208828419 0.961499989
v 0.353828371 0.206 0.95867157
v 0.350999981 0.206 1.01250005
v 0.354999989 0.206 1.00849998
v 0.350999981 0.209999993 1.00849998
v 0.353828371 0.206 1.01132846
v 0.353309363 0.208309397 1.01080942
v 0.353828371 0.208828419 1.00849998
v 0.350999951 0.208828419 1.01132846
f 367 373 344
f 367 344 338
f 381 387 374
f 381 374 366
f 386 358 345
f 386 345 372
f 339 346 360
f 339 360 352
f 353 359 388
f 353 388 380
f 337 340 341
f 337 341 343
f 338 342 341
f 338 341 340
f 339 343 341
f 339 341 342
f 344 347 348
f 344 348 350
f 345 349 348
f 345 348 347
f 346 350 348
f 346 348 349
f 351 354 355
f 351 355 357
f 352 356 355
f 352 355 354
f 353 357 355
f 353 355 356
f 358 361 362
f 358 362 364
f 359 363 362
f 359 362 361
f 360 364 362
f 360 362 363
f 365 368 369
f 365 369 371
f 366 370 369
f 366 369 368
f 367 371 369
f 367 369 370
f 372 375 376
f 372 376 378
f 373 377 376
f 373 376 375
f 374 378 376
f 374 376 377
f 379 382 383
f 379 383 385
f 380 384 383
f 380 383 382
f 381 385 383
f 381 383 384
f 386 389 390
f 386 390 392
f 387 391 390
f 387 390 389
f 388 392 390
f 388 390 391
f 351 337 343
f 351 343 354
f 354 343 339
f 354 339 352
f 338 344 350
f 338 350 342
f 342 350 346
f 342 346 339
f 345 358 364
f 345 364 349
f 349 364 360
f 349 360 346
f 359 353 356
f 359 356 363
f 363 356 352
f 363 352 360
f 379 351 357
f 379 357 382
f 382 357 353
f 382 353 380
f 358 386 392
f 358 392 361
f 361 392 388
f 361 388 359
f 387 381 384
f 387 384 391
f 391 384 380
f 391 380 388
f 365 379 385
f 365 385 368
f 368 385 381
f 368 381 366
f 386 372 378
f 386 378 389
f 389 378 374
f 389 374 387
f 373 367 370
f 373 370 377
f 377 370 366
f 377 366 374
f 337 365 371
f 337 371 340
f 340 371 367
f 340 367 338
f 372 345 347
f 372 347 375
f 375 347 344
f 375 344 373
f 351 379 365
f 351 365 337

o drawer_support_panel
v -0.350999981 -0.206 0.517500043
v -0.350999981 -0.209999993 0.521499991
v -0.354999989 -0.206 0.521499991
v -0.350999951 -0.208828419 0.518671572
v -0.353309363 -0.208309397 0.519190609
v -0.353828371 -0.208828419 0.521499991
v -0.353828371 -0.206 0.518671572
v -0.350999981 -0.209999993 0.568500042
v -0.350999981 -0.206 0.57249999
v -0.354999989 -0.206 0.568500042
v -0.350999951 -0.208828419 0.571328461
v -0.353309363 -0.208309397 0.570809424
v -0.353828371 -0.206 0.571328461
v -0.353828371 -0.208828419 0.568500042
v -0.350999981 0.206 0.517500043
v -0.354999989 0.206 0.521499991
v -0.350999981 0.209999993 0.521499991
v -0.353828371 0.206 0.518671572
v -0.353309363 0.208309397 0.519190609
v -0.353828371 0.208828419 0.521499991
v -0.350999951 0.208828419 0.518671572
v -0.350999981 0.206 0.57249999
v -0.350999981 0.209999993 0.568500042
v -0.354999989 0.206 0.568500042
v -0.350999951 0.208828419 0.571328461
v -0.353309363 0.208309397 0.570809424
v -0.353828371 0.208828419 0.568500042
v -0.353828371 0.206 0.571328461
v 0.350999981 -0.206 0.517500043
v 0.354999989 -0.206 0.521499991
v 0.350999981 -0.209999993 0.521499991
v 0.353828371 -0.206 0.518671572
v 0.353309363 -0.208309397 0.519190609
v 0.353828371 -0.208828419 0.521499991
v 0.350999951 -0.208828419 0.518671572
v 0.350999981 -0.206 0.57249999
v 0.350999981 -0.209999993 0.568500042
v 0.354999989 -0.206 0.568500042
v 0.350999951 -0.208828419 0.571328461
v 0.353309363 -0.208309397 0.570809424
v 0.353828371 -0.208828419 0.568500042
v 0.353828371 -0.206 0.571328461
v 0.350999981 0.206 0.517500043
v 0.350999981 0.209999993 0.521499991
v 0.354999989 0.206 0.521499991
v 0.350999951 0.208828419 0.518671572
v 0.353309363 0.208309397 0.519190609
v 0.353828371 0.208828419 0.521499991
v 0.353828371 0.206 0.518671572
v 0.350999981 0.206 0.57249999
v 0.354999989 0.206 0.568500042
v 0.350999981 0.209999993 0.568500042
v 0.353828371 0.206 0.571328461
v 0.353309363 0.208309397 0.570809424
v 0.353828371 0.208828419 0.568500042
v 0.350999951 0.208828419 0.571328461
f 423 429 400
f 423 400 394
f 437 443 430
f 437 430 422
f 442 414 401
f 442 401 428
f 395 402 416
f 395 416 408
f 409 415 444
f 409 444 436
f 393 396 397
f 393 397 399
f 394 398 397
f 394 397 396
f 395 399 397
f 395 397 398
f 400 403 404
f 400 404 406
f 401 405 404
f 401 404 403
f 402 406 404
f 402 404 405
f 407 410 411
f 407 411 413
f 408 412 411
f 408 411 410
f 409 413 411
f 409 411 412
f 414 417 418
f 414 418 420
f 415 419 418
f 415 418 417
f 416 420 418
f 416 418 419
f 421 424 425
f 421 425 427
f 422 426 425
f 422 425 424
f 423 427 425
f 423 425 426
f 428 431 432
f 428 432 434
f 429 433 432
f 429 432 431
f 430 434 432
f 430 432 433
f 435 438 439
f 435 439 441
f 436 440 439
f 436 439 438
f 437 441 439
f 437 439 440
f 442 445 446
f 442 446 448
f 443 447 446
f 443 446 445
f 444 448 446
f 444 446 447
f 407 393 399
f 407 399 410
f 410 399 395
f 410 395 408
f 394 400 406
f 394 406 398
f 398 406 402
f 398 402 395
f 401 414 420
f 401 420 405
f 405 420 416
f 405 416 402
f 415 409 412
f 415 412 419
f 419 412 408
f 419 408 416
f 435 407 413
f 435 413 438
f 438 413 409
f 438 409 436
f 414 442 448
f 414 448 417
f 417 448 444
f 417 444 415
f 443 437 440
f 443 440 447
f 447 440 436
f 447 436 444
f 421 435 441
f 421 441 424
f 424 441 437
f 424 437 422
f 442 428 434
f 442 434 445
f 445 434 430
f 445 430 443
f 429 423 426
f 429 426 433
f 433 426 422
f 433 422 430
f 393 421 427
f 393 427 396
f 396 427 423
f 396 423 394
f 428 401 403
f 428 403 431
f 431 403 400
f 431 400 429
f 407 435 421
f 407 421 393

o leg_front_left
v -0.340000004 -0.137509495 0
v -0.340000004 -0.135950029 0.00149917603
v -0.340000004 -0.136427492 0.000439099967
v -0.340000004 -0.131509498 0.180000007
v -0.340000004 -0.130049974 0.178500831
v -0.340000004 -0.130456761 0.1795609
v -0.337220609 -0.137822658 0
v -0.336873591 -0.136302292 0.00149917603
v -0.336979836 -0.136767775 0.000439099967
v -0.335885465 -0.131973088 0.180000007
v -0.335560709 -0.130550176 0.178500831
v -0.335651219 -0.130946755 0.1795609
v -0.33458057 -0.13874644 0
v -0.333903939 -0.13734141 0.00149917603
v -0.334111124 -0.137771592 0.000439099967
v -0.331977278 -0.133340627 0.180000007
v -0.331344008 -0.132025659 0.178500831
v -0.331520498 -0.132392153 0.1795609
v -0.332212299 -0.14023453 0
v -0.331239998 -0.139015302 0.00149917603
v -0.331537664 -0.139388591 0.000439099967
v -0.328471363 -0.13554354 0.180000007
v -0.327561378 -0.134402454 0.178500831
v -0.327814996 -0.134720489 0.1795609
v -0.330234528 -0.142212301 0
v -0.329015285 -0.141239986 0.00149917603
v -0.329388589 -0.141537681 0.000439099967
v -0.325543553 -0.138471365 0.180000007
v -0.324402452 -0.137561366 0.178500831
v -0.324720472 -0.137814999 0.1795609
v -0.328746438 -0.144580588 0
v -0.327341408 -0.143903956 0.00149917603
v -0.327771574 -0.144111112 0.000439099967
v -0.323340625 -0.14197728 0.180000007
v -0.322025657 -0.141344011 0.178500831
v -0.322392136 -0.141520515 0.1795609
v -0.327822655 -0.147220612 0
v -0.32630229 -0.146873593 0.00149917603
v -0.326767772 -0.146979839 0.000439099967
v -0.321973085 -0.145885482 0.180000007
v -0.320550174 -0.145560712 0.178500831
v -0.320946753 -0.145651221 0.1795609
v -0.327509493 -0.150000006 0
v -0.325950027 -0.150000006 0.00149917603
v -0.32642749 -0.150000006 0.000439099967
v -0.32150948 -0.150000006 0.180000007
v -0.320049971 -0.150000006 0.178500831
v -0.320456773 -0.150000006 0.1795609
v -0.327822655 -0.1527794 0
v -0.32630229 -0.153126419 0.00149917603
v -0.326767772 -0.153020173 0.000439099967
v -0.321973085 -0.154114529 0.180000007
v -0.320550174 -0.1544393 0.178500831
v -0.320946753 -0.154348791 0.1795609
v -0.328746438 -0.155419424 0
v -0.327341408 -0.156096056 0.00149917603
v -0.327771574 -0.1558889 0.000439099967
v -0.323340625 -0.158022732 0.180000007
v -0.322025657 -0.158656001 0.178500831
v -0.322392166 -0.158479497 0.1795609
v -0.330234528 -0.15778771 0
v -0.329015285 -0.158760026 0.00149917603
v -0.329388589 -0.158462331 0.000439099967
v -0.325543553 -0.161528647 0.180000007
v -0.324402452 -0.162438646 0.178500831
v -0.324720472 -0.162185013 0.1795609
v -0.332212299 -0.159765482 0
v -0.331239998 -0.16098471 0.00149917603
v -0.331537664 -0.160611421 0.000439099967
v -0.328471363 -0.164456472 0.180000007
v -0.327561378 -0.165597558 0.178500831
v -0.327814996 -0.165279523 0.1795609
v -0.33458057 -0.161253572 0
v -0.333903939 -0.162658602 0.00149917603
v -0.334111124 -0.16222842 0.000439099967
v -0.331977278 -0.166659385 0.180000007
v -0.331344008 -0.167974353 0.178500831
v -0.331520498 -0.167607859 0.1795609
v -0.337220609 -0.162177354 0
v -0.336873591 -0.16369772 0.00149917603
v -0.336979836 -0.163232237 0.000439099967
v -0.335885465 -0.168026924 0.180000007
v -0.335560709 -0.169449836 0.178500831
v -0.335651219 -0.169053257 0.1795609
v -0.340000004 -0.162490517 0
v -0.340000004 -0.164049983 0.00149917603
v -0.340000004 -0.16357252 0.000439099967
v -0.340000004 -0.168490514 0.180000007
v -0.340000004 -0.169950038 0.178500831
v -0.340000004 -0.169543251 0.1795609
v -0.342779398 -0.162177354 0
v -0.343126416 -0.16369772 0.00149917603
v -0.343020171 -0.163232237 0.000439099967
v -0.344114542 -0.168026924 0.180000007
v -0.344439298 -0.169449836 0.178500831
v -0.344348788 -0.169053257 0.1795609
v -0.345419437 -0.161253572 0
v -0.346096069 -0.162658602 0.00149917603
v -0.345888883 -0.16222842 0.000439099967
v -0.348022729 -0.166659385 0.180000007
v -0.348655999 -0.167974353 0.178500831
v -0.348479509 -0.167607859 0.1795609
v -0.347787708 -0.159765482 0
v -0.348760009 -0.16098471 0.00149917603
v -0.348462343 -0.160611421 0.000439099967
v -0.351528645 -0.164456472 0.180000007
v -0.352438629 -0.165597558 0.178500831
v -0.352185011 -0.165279523 0.1795609
v -0.34976548 -0.15778771 0
v -0.350984722 -0.158760026 0.00149917603
v -0.350611418 -0.158462331 0.000439099967
v -0.354456455 -0.161528647 0.180000007
v -0.355597556 -0.162438646 0.178500831
v -0.355279535 -0.162185013 0.1795609
v -0.351253569 -0.155419424 0
v -0.3526586 -0.156096056 0.00149917603
v -0.352228433 -0.1558889 0.000439099967
v -0.356659383 -0.158022732 0.180000007
v -0.35797435 -0.158656001 0.178500831
v -0.357607871 -0.158479497 0.1795609
v -0.352177352 -0.1527794 0
v -0.353697717 -0.153126419 0.00149917603
v -0.353232235 -0.153020173 0.000439099967
v -0.358026922 -0.154114529 0.180000007
v -0.359449834 -0.1544393 0.178500831
v -0.359053254 -0.154348791 0.1795609
v -0.352490515 -0.150000006 0
v -0.354049981 -0.150000006 0.00149917603
v -0.353572518 -0.150000006 0.000439099967
v -0.358490527 -0.150000006 0.180000007
v -0.359950036 -0.150000006 0.178500831
v -0.359543234 -0.150000006 0.1795609
v -0.352177352 -0.147220612 0
v -0.353697717 -0.146873593 0.00149917603
v -0.353232235 -0.146979839 0.000439099967
v -0.358026922 -0.145885482 0.180000007
v -0.359449834 -0.145560712 0.178500831
v -0.359053254 -0.145651221 0.1795609
v -0.351253569 -0.144580588 0
v -0.3526586 -0.143903956 0.00149917603
v -0.352228433 -0.144111112 0.000439099967
v -0.356659383 -0.14197728 0.180000007
v -0.35797435 -0.141344011 0.178500831
v -0.357607841 -0.141520515 0.1795609
v -0.34976548 -0.142212301 0
v -0.350984722 -0.141239986 0.00149917603
v -0.350611418 -0.141537681 0.000439099967
v -0.354456455 -0.138471365 0.180000007
v -0.355597556 -0.137561366 0.178500831
v -0.355279535 -0.137814999 0.1795609
v -0.347787708 -0.14023453 0
v -0.348760009 -0.139015302 0.00149917603
v -0.348462343 -0.139388591 0.000439099967
v -0.351528645 -0.13554354 0.180000007
v -0.352438629 -0.134402454 0.178500831
v -0.352185011 -0.134720489 0.1795609
v -0.345419437 -0.13874644 0
v -0.346096069 -0.13734141 0.00149917603
v -0.345888883 -0.137771592 0.000439099967
v -0.348022729 -0.133340627 0.180000007
v -0.348655999 -0.132025659 0.178500831
v -0.348479509 -0.132392153 0.1795609
v -0.342779398 -0.137822658 0
v -0.343126416 -0.136302292 0.00149917603
v -0.343020171 -0.136767775 0.000439099967
v -0.344114542 -0.131973088 0.180000007
v -0.344439298 -0.130550176 0.178500831
v -0.344348788 -0.130946755 0.1795609
f 612 615 453
f 612 453 450
f 462 465 471
f 462 471 468
f 468 471 477
f 468 477 474
f 474 477 483
f 474 483 480
f 480 483 489
f 480 489 486
f 486 489 495
f 486 495 492
f 492 495 501
f 492 501 498
f 498 501 507
f 498 507 504
f 504 507 513
f 504 513 510
f 510 513 519
f 510 519 516
f 516 519 525
f 516 525 522
f 522 525 531
f 522 531 528
f 528 531 537
f 528 537 534
f 534 537 543
f 534 543 540
f 540 543 549
f 540 549 546
f 546 549 555
f 546 555 552
f 552 555 561
f 552 561 558
f 558 561 567
f 558 567 564
f 564 567 573
f 564 573 570
f 570 573 579
f 570 579 576
f 576 579 585
f 576 585 582
f 582 585 591
f 582 591 588
f 588 591 597
f 588 597 594
f 594 597 603
f 594 603 600
f 600 603 609
f 600 609 606
f 606 609 615
f 606 615 612
f 456 459 465
f 456 465 462
f 464 458 452
f 452 614 608
f 608 602 596
f 596 590 584
f 584 578 572
f 572 566 560
f 560 554 548
f 548 542 536
f 536 530 524
f 524 518 512
f 512 506 500
f 500 494 488
f 488 482 476
f 476 470 464
f 464 452 608
f 608 596 584
f 584 572 560
f 560 548 536
f 536 524 512
f 512 500 488
f 488 476 464
f 464 608 584
f 584 560 536
f 536 512 488
f 488 464 584
f 584 536 488
f 450 453 459
f 450 459 456
f 450 456 457
f 450 457 451
f 451 457 455
f 451 455 449
f 459 453 454
f 459 454 460
f 460 454 452
f 460 452 458
f 456 462 463
f 456 463 457
f 457 463 461
f 457 461 455
f 465 459 460
f 465 460 466
f 466 460 458
f 466 458 464
f 462 468 469
f 462 469 463
f 463 469 467
f 463 467 461
f 471 465 466
f 471 466 472
f 472 466 464
f 472 464 470
f 468 474 475
f 468 475 469
f 469 475 473
f 469 473 467
f 477 471 472
f 477 472 478
f 478 472 470
f 478 470 476
f 474 480 481
f 474 481 475
f 475 481 479
f 475 479 473
f 483 477 478
f 483 478 484
f 484 478 476
f 484 476 482
f 480 486 487
f 480 487 481
f 481 487 485
f 481 485 479
f 489 483 484
f 489 484 490
f 490 484 482
f 490 482 488
f 486 492 493
f 486 493 487
f 487 493 491
f 487 491 485
f 495 489 490
f 495 490 496
f 496 490 488
f 496 488 494
f 492 498 499
f 492 499 493
f 493 499 497
f 493 497 491
f 501 495 496
f 501 496 502
f 502 496 494
f 502 494 500
f 498 504 505
f 498 505 499
f 499 505 503
f 499 503 497
f 507 501 502
f 507 502 508
f 508 502 500
f 508 500 506
f 504 510 511
f 504 511 505
f 505 511 509
f 505 509 503
f 513 507 508
f 513 508 514
f 514 508 506
f 514 506 512
f 510 516 517
f 510 517 511
f 511 517 515
f 511 515 509
f 519 513 514
f 519 514 520
f 520 514 512
f 520 512 518
f 516 522 523
f 516 523 517
f 517 523 521
f 517 521 515
f 525 519 520
f 525 520 526
f 526 520 518
f 526 518 524
f 522 528 529
f 522 529 523
f 523 529 527
f 523 527 521
f 531 525 526
f 531 526 532
f 532 526 524
f 532 524 530
f 528 534 535
f 528 535 529
f 529 535 533
f 529 533 527
f 537 531 532
f 537 532 538
f 538 532 530
f 538 530 536
f 534 540 541
f 534 541 535
f 535 541 539
f 535 539 533
f 543 537 538
f 543 538 544
f 544 538 536
f 544 536 542
f 540 546 547
f 540 547 541
f 541 547 545
f 541 545 539
f 549 543 544
f 549 544 550
f 550 544 542
f 550 542 548
f 546 552 553
f 546 553 547
f 547 553 551
f 547 551 545
f 555 549 550
f 555 550 556
f 556 550 548
f 556 548 554
f 552 558 559
f 552 559 553
f 553 559 557
f 553 557 551
f 561 555 556
f 561 556 562
f 562 556 554
f 562 554 560
f 558 564 565
f 558 565 559
f 559 565 563
f 559 563 557
f 567 561 562
f 567 562 568
f 568 562 560
f 568 560 566
f 564 570 571
f 564 571 565
f 565 571 569
f 565 569 563
f 573 567 568
f 573 568 574
f 574 568 566
f 574 566 572
f 570 576 577
f 570 577 571
f 571 577 575
f 571 575 569
f 579 573 574
f 579 574 580
f 580 574 572
f 580 572 578
f 576 582 583
f 576 583 577
f 577 583 581
f 577 581 575
f 585 579 580
f 585 580 586
f 586 580 578
f 586 578 584
f 582 588 589
f 582 589 583
f 583 589 587
f 583 587 581
f 591 585 586
f 591 586 592
f 592 586 584
f 592 584 590
f 588 594 595
f 588 595 589
f 589 595 593
f 589 593 587
f 597 591 592
f 597 592 598
f 598 592 590
f 598 590 596
f 594 600 601
f 594 601 595
f 595 601 599
f 595 599 593
f 603 597 598
f 603 598 604
f 604 598 596
f 604 596 602
f 600 606 607
f 600 607 601
f 601 607 605
f 601 605 599
f 609 603 604
f 609 604 610
f 610 604 602
f 610 602 608
f 606 612 613
f 606 613 607
f 607 613 611
f 607 611 605
f 615 609 610
f 615 610 616
f 616 610 608
f 616 608 614
f 612 450 451
f 612 451 613
f 613 451 449
f 613 449 611
f 453 615 616
f 453 616 454
f 454 616 614
f 454 614 452
f 611 449 455
f 455 461 467
f 467 473 479
f 479 485 491
f 491 497 503
f 503 509 515
f 515 521 527
f 527 533 539
f 539 545 551
f 551 557 563
f 563 569 575
f 575 581 587
f 587 593 599
f 599 605 611
f 611 455 467
f 467 479 491
f 491 503 515
f 515 527 539
f 539 551 563
f 563 575 587
f 587 599 611
f 611 467 491
f 491 515 539
f 539 563 587
f 587 611 491
f 491 539 587

o leg_front_right
v 0.340000004 -0.137509495 0
v 0.340000004 -0.135950029 0.00149917603
v 0.340000004 -0.136427492 0.000439099967
v 0.340000004 -0.131509498 0.180000007
v 0.340000004 -0.130049974 0.178500831
v 0.340000004 -0.130456761 0.1795609
v 0.342779398 -0.137822658 0
v 0.343126416 -0.136302292 0.00149917603
v 0.343020171 -0.136767775 0.000439099967
v 0.344114542 -0.131973088 0.180000007
v 0.344439298 -0.130550176 0.178500831
v 0.344348788 -0.130946755 0.1795609
v 0.345419437 -0.13874644 0
v 0.346096069 -0.13734141 0.00149917603
v 0.345888883 -0.137771592 0.000439099967
v 0.348022729 -0.133340627 0.180000007
v 0.348655999 -0.132025659 0.178500831
v 0.348479509 -0.132392153 0.1795609
v 0.347787708 -0.14023453 0
v 0.348760009 -0.139015302 0.00149917603
v 0.348462343 -0.139388591 0.000439099967
v 0.351528645 -0.13554354 0.180000007
v 0.352438629 -0.134402454 0.178500831
v 0.352185011 -0.134720489 0.1795609
v 0.34976548 -0.142212301 0
v 0.350984722 -0.141239986 0.00149917603
v 0.350611418 -0.141537681 0.000439099967
v 0.354456455 -0.138471365 0.180000007
v 0.355597556 -0.137561366 0.178500831
v 0.355279535 -0.137814999 0.1795609
v 0.351253569 -0.144580588 0
v 0.3526586 -0.143903956 0.00149917603
v 0.352228433 -0.144111112 0.000439099967
v 0.356659383 -0.14197728 0.180000007
v 0.35797435 -0.141344011 0.178500831
v 0.357607871 -0.141520515 0.1795609
v 0.352177352 -0.147220612 0
v 0.353697717 -0.146873593 0.00149917603
v 0.353232235 -0.146979839 0.000439099967
v 0.358026922 -0.145885482 0.180000007
v 0.359449834 -0.145560712 0.178500831
v 0.359053254 -0.145651221 0.1795609
v 0.352490515 -0.150000006 0
v 0.354049981 -0.150000006 0.00149917603
v 0.353572518 -0.150000006 0.000439099967
v 0.358490527 -0.150000006 0.180000007
v 0.359950036 -0.150000006 0.178500831
v 0.359543234 -0.150000006 0.1795609
v 0.352177352 -0.1527794 0
v 0.353697717 -0.153126419 0.00149917603
v 0.353232235 -0.153020173 0.000439099967
v 0.358026922 -0.154114529 0.180000007
v 0.359449834 -0.1544393 0.178500831
v 0.359053254 -0.154348791 0.1795609
v 0.351253569 -0.155419424 0
v 0.3526586 -0.156096056 0.00149917603
v 0.352228433 -0.1558889 0.000439099967
v 0.356659383 -0.158022732 0.180000007
v 0.35797435 -0.158656001 0.178500831
v 0.357607841 -0.158479497 0.1795609
v 0.34976548 -0.15778771 0
v 0.350984722 -0.158760026 0.00149917603
v 0.350611418 -0.158462331 0.000439099967
v 0.354456455 -0.161528647 0.180000007
v 0.355597556 -0.162438646 0.178500831
v 0.355279535 -0.162185013 0.1795609
v 0.347787708 -0.159765482 0
v 0.348760009 -0.16098471 0.00149917603
v 0.348462343 -0.160611421 0.000439099967
v 0.351528645 -0.164456472 0.180000007
v 0.352438629 -0.165597558 0.178500831
v 0.352185011 -0.165279523 0.1795609
v 0.345419437 -0.161253572 0
v 0.346096069 -0.162658602 0.00149917603
v 0.345888883 -0.16222842 0.000439099967
v 0.348022729 -0.166659385 0.180000007
v 0.348655999 -0.167974353 0.178500831
v 0.348479509 -0.167607859 0.1795609
v 0.342779398 -0.162177354 0
v 0.343126416 -0.16369772 0.00149917603
v 0.343020171 -0.163232237 0.000439099967
v 0.344114542 -0.168026924 0.180000007
v 0.344439298 -0.169449836 0.178500831
v 0.344348788 -0.169053257 0.1795609
v 0.340000004 -0.162490517 0
v 0.340000004 -0.164049983 0.00149917603
v 0.340000004 -0.16357252 0.000439099967
v 0.340000004 -0.168490514 0.180000007
v 0.340000004 -0.169950038 0.178500831
v 0.340000004 -0.169543251 0.1795609
v 0.337220609 -0.162177354 0
v 0.336873591 -0.16369772 0.00149917603
v 0.336979836 -0.163232237 0.000439099967
v 0.335885465 -0.168026924 0.180000007
v 0.335560709 -0.169449836 0.178500831
v 0.335651219 -0.169053257 0.1795609
v 0.33458057 -0.161253572 0
v 0.333903939 -0.162658602 0.00149917603
v 0.334111124 -0.16222842 0.000439099967
v 0.331977278 -0.166659385 0.180000007
v 0.331344008 -0.167974353 0.178500831
v 0.331520498 -0.167607859 0.1795609
v 0.332212299 -0.159765482 0
v 0.331239998 -0.16098471 0.00149917603
v 0.331537664 -0.160611421 0.000439099967
v 0.328471363 -0.164456472 0.180000007
v 0.327561378 -0.165597558 0.178500831
v 0.327814996 -0.165279523 0.1795609
v 0.330234528 -0.15778771 0
v 0.329015285 -0.158760026 0.00149917603
v 0.329388589 -0.158462331 0.000439099967
v 0.325543553 -0.161528647 0.180000007
v 0.324402452 -0.162438646 0.178500831
v 0.324720472 -0.162185013 0.1795609
v 0.328746438 -0.155419424 0
v 0.327341408 -0.156096056 0.00149917603
v 0.327771574 -0.1558889 0.000439099967
v 0.323340625 -0.158022732 0.180000007
v 0.322025657 -0.158656001 0.178500831
v 0.322392136 -0.158479497 0.1795609
v 0.327822655 -0.1527794 0
v 0.32630229 -0.153126419 0.00149917603
v 0.326767772 -0.153020173 0.000439099967
v 0.321973085 -0.154114529 0.180000007
v 0.320550174 -0.1544393 0.178500831
v 0.320946753 -0.154348791 0.1795609
v 0.327509493 -0.150000006 0
v 0.325950027 -0.150000006 0.00149917603
v 0.32642749 -0.150000006 0.000439099967
v 0.32150948 -0.150000006 0.180000007
v 0.320049971 -0.150000006 0.178500831
v 0.320456773 -0.150000006 0.1795609
v 0.327822655 -0.147220612 0
v 0.32630229 -0.146873593 0.00149917603
v 0.326767772 -0.146979839 0.000439099967
v 0.321973085 -0.145885482 0.180000007
v 0.320550174 -0.145560712 0.178500831
v 0.320946753 -0.145651221 0.1795609
v 0.328746438 -0.144580588 0
v 0.327341408 -0.143903956 0.00149917603
v 0.327771574 -0.144111112 0.000439099967
v 0.323340625 -0.14197728 0.180000007
v 0.322025657 -0.141344011 0.178500831
v 0.322392166 -0.141520515 0.1795609
v 0.330234528 -0.142212301 0
v 0.329015285 -0.141239986 0.00149917603
v 0.329388589 -0.141537681 0.000439099967
v 0.325543553 -0.138471365 0.180000007
v 0.324402452 -0.137561366 0.178500831
v 0.324720472 -0.137814999 0.1795609
v 0.332212299 -0.14023453 0
v 0.331239998 -0.139015302 0.00149917603
v 0.331537664 -0.139388591 0.000439099967
v 0.328471363 -0.13554354 0.180000007
v 0.327561378 -0.134402454 0.178500831
v 0.327814996 -0.134720489 0.1795609
v 0.33458057 -0.13874644 0
v 0.333903939 -0.13734141 0.00149917603
v 0.334111124 -0.137771592 0.000439099967
v 0.331977278 -0.133340627 0.180000007
v 0.331344008 -0.132025659 0.178500831
v 0.331520498 -0.132392153 0.1795609
v 0.337220609 -0.137822658 0
v 0.336873591 -0.136302292 0.00149917603
v 0.336979836 -0.136767775 0.000439099967
v 0.335885465 -0.131973088 0.180000007
v 0.335560709 -0.130550176 0.178500831
v 0.335651219 -0.130946755 0.1795609
f 780 783 621
f 780 621 618
f 630 633 639
f 630 639 636
f 636 639 645
f 636 645 642
f 642 645 651
f 642 651 648
f 648 651 657
f 648 657 654
f 654 657 663
f 654 663 660
f 660 663 669
f 660 669 666
f 666 669 675
f 666 675 672
f 672 675 681
f 672 681 678
f 678 681 687
f 678 687 684
f 684 687 693
f 684 693 690
f 690 693 699
f 690 699 696
f 696 699 705
f 696 705 702
f 702 705 711
f 702 711 708
f 708 711 717
f 708 717 714
f 714 717 723
f 714 723 720
f 720 723 729
f 720 729 726
f 726 729 735
f 726 735 732
f 732 735 741
f 732 741 738
f 738 741 747
f 738 747 744
f 744 747 753
f 744 753 750
f 750 753 759
f 750 759 756
f 756 759 765
f 756 765 762
f 762 765 771
f 762 771 768
f 768 771 777
f 768 777 774
f 774 777 783
f 774 783 780
f 624 627 633
f 624 633 630
f 632 626 620
f 620 782 776
f 776 770 764
f 764 758 752
f 752 746 740
f 740 734 728
f 728 722 716
f 716 710 704
f 704 698 692
f 692 686 680
f 680 674 668
f 668 662 656
f 656 650 644
f 644 638 632
f 632 620 776
f 776 764 752
f 752 740 728
f 728 716 704
f 704 692 680
f 680 668 656
f 656 644 632
f 632 776 752
f 752 728 704
f 704 680 656
f 656 632 752
f 752 704 656
f 618 621 627
f 618 627 624
f 618 624 625
f 618 625 619
f 619 625 623
f 619 623 617
f 627 621 622
f 627 622 628
f 628 622 620
f 628 620 626
f 624 630 631
f 624 631 625
f 625 631 629
f 625 629 623
f 633 627 628
f 633 628 634
f 634 628 626
f 634 626 632
f 630 636 637
f 630 637 631
f 631 637 635
f 631 635 629
f 639 633 634
f 639 634 640
f 640 634 632
f 640 632 638
f 636 642 643
f 636 643 637
f 637 643 641
f 637 641 635
f 645 639 640
f 645 640 646
f 646 640 638
f 646 638 644
f 642 648 649
f 642 649 643
f 643 649 647
f 643 647 641
f 651 645 646
f 651 646 652
f 652 646 644
f 652 644 650
f 648 654 655
f 648 655 649
f 649 655 653
f 649 653 647
f 657 651 652
f 657 652 658
f 658 652 650
f 658 650 656
f 654 660 661
f 654 661 655
f 655 661 659
f 655 659 653
f 663 657 658
f 663 658 664
f 664 658 656
f 664 656 662
f 660 666 667
f 660 667 661
f 661 667 665
f 661 665 659
f 669 663 664
f 669 664 670
f 670 664 662
f 670 662 668
f 666 672 673
f 666 673 667
f 667 673 671
f 667 671 665
f 675 669 670
f 675 670 676
f 676 670 668
f 676 668 674
f 672 678 679
f 672 679 673
f 673 679 677
f 673 677 671
f 681 675 676
f 681 676 682
f 682 676 674
f 682 674 680
f 678 684 685
f 678 685 679
f 679 685 683
f 679 683 677
f 687 681 682
f 687 682 688
f 688 682 680
f 688 680 686
f 684 690 691
f 684 691 685
f 685 691 689
f 685 689 683
f 693 687 688
f 693 688 694
f 694 688 686
f 694 686 692
f 690 696 697
f 690 697 691
f 691 697 695
f 691 695 689
f 699 693 694
f 699 694 700
f 700 694 692
f 700 692 698
f 696 702 703
f 696 703 697
f 697 703 701
f 697 701 695
f 705 699 700
f 705 700 706
f 706 700 698
f 706 698 704
f 702 708 709
f 702 709 703
f 703 709 707
f 703 707 701
f 711 705 706
f 711 706 712
f 712 706 704
f 712 704 710
f 708 714 715
f 708 715 709
f 709 715 713
f 709 713 707
f 717 711 712
f 717 712 718
f 718 712 710
f 718 710 716
f 714 720 721
f 714 721 715
f 715 721 719
f 715 719 713
f 723 717 718
f 723 718 724
f 724 718 716
f 724 716 722
f 720 726 727
f 720 727 721
f 721 727 725
f 721 725 719
f 729 723 724
f 729 724 730
f 730 724 722
f 730 722 728
f 726 732 733
f 726 733 727
f 727 733 731
f 727 731 725
f 735 729 730
f 735 730 736
f 736 730 728
f 736 728 734
f 732 738 739
f 732 739 733
f 733 739 737
f 733 737 731
f 741 735 736
f 741 736 742
f 742 736 734
f 742 734 740
f 738 744 745
f 738 745 739
f 739 745 743
f 739 743 737
f 747 741 742
f 747 742 748
f 748 742 740
f 748 740 746
f 744 750 751
f 744 751 745
f 745 751 749
f 745 749 743
f 753 747 748
f 753 748 754
f 754 748 746
f 754 746 752
f 750 756 757
f 750 757 751
f 751 757 755
f 751 755 749
f 759 753 754
f 759 754 760
f 760 754 752
f 760 752 758
f 756 762 763
f 756 763 757
f 757 763 761
f 757 761 755
f 765 759 760
f 765 760 766
f 766 760 758
f 766 758 764
f 762 768 769
f 762 769 763
f 763 769 767
f 763 767 761
f 771 765 766
f 771 766 772
f 772 766 764
f 772 764 770
f 768 774 775
f 768 775 769
f 769 775 773
f 769 773 767
f 777 771 772
f 777 772 778
f 778 772 770
f 778 770 776
f 774 780 781
f 774 781 775
f 775 781 779
f 775 779 773
f 783 777 778
f 783 778 784
f 784 778 776
f 784 776 782
f 780 618 619
f 780 619 781
f 781 619 617
f 781 617 779
f 621 783 784
f 621 784 622
f 622 784 782
f 622 782 620
f 779 617 623
f 623 629 635
f 635 641 647
f 647 653 659
f 659 665 671
f 671 677 683
f 683 689 695
f 695 701 707
f 707 713 719
f 719 725 731
f 731 737 743
f 743 749 755
f 755 761 767
f 767 773 779
f 779 623 635
f 635 647 659
f 659 671 683
f 683 695 707
f 707 719 731
f 731 743 755
f 755 767 779
f 779 635 659
f 659 683 707
f 707 731 755
f 755 779 659
f 659 707 755

o leg_back_left
v -0.340000004 0.162490517 0
v -0.340000004 0.164049983 0.00149917603
v -0.340000004 0.16357252 0.000439099967
v -0.340000004 0.168490514 0.180000007
v -0.340000004 0.169950038 0.178500831
v -0.340000004 0.169543251 0.1795609
v -0.337220609 0.162177354 0
v -0.336873591 0.16369772 0.00149917603
v -0.336979836 0.163232237 0.000439099967
v -0.335885465 0.168026924 0.180000007
v -0.335560709 0.169449836 0.178500831
v -0.335651219 0.169053257 0.1795609
v -0.33458057 0.161253572 0
v -0.333903939 0.162658602 0.00149917603
v -0.334111124 0.16222842 0.000439099967
v -0.331977278 0.166659385 0.180000007
v -0.331344008 0.167974353 0.178500831
v -0.331520498 0.167607859 0.1795609
v -0.332212299 0.159765482 0
v -0.331239998 0.16098471 0.00149917603
v -0.331537664 0.160611421 0.000439099967
v -0.328471363 0.164456472 0.180000007
v -0.327561378 0.165597558 0.178500831
v -0.327814996 0.165279523 0.1795609
v -0.330234528 0.15778771 0
v -0.329015285 0.158760026 0.00149917603
v -0.329388589 0.158462331 0.000439099967
v -0.325543553 0.161528647 0.180000007
v -0.324402452 0.162438646 0.178500831
v -0.324720472 0.162185013 0.1795609
v -0.328746438 0.155419424 0
v -0.327341408 0.156096056 0.00149917603
v -0.327771574 0.1558889 0.000439099967
v -0.323340625 0.158022732 0.180000007
v -0.322025657 0.158656001 0.178500831
v -0.322392136 0.158479497 0.1795609
v -0.327822655 0.1527794 0
v -0.32630229 0.153126419 0.00149917603
v -0.326767772 0.153020173 0.000439099967
v -0.321973085 0.154114529 0.180000007
v -0.320550174 0.1544393 0.178500831
v -0.320946753 0.154348791 0.1795609
v -0.327509493 0.150000006 0
v -0.325950027 0.150000006 0.00149917603
v -0.32642749 0.150000006 0.000439099967
v -0.32150948 0.150000006 0.180000007
v -0.320049971 0.150000006 0.178500831
v -0.320456773 0.150000006 0.1795609
v -0.327822655 0.147220612 0
v -0.32630229 0.146873593 0.00149917603
v -0.326767772 0.146979839 0.000439099967
v -0.321973085 0.145885482 0.180000007
v -0.320550174 0.145560712 0.178500831
v -0.320946753 0.145651221 0.1795609
v -0.328746438 0.144580588 0
v -0.327341408 0.143903956 0.00149917603
v -0.327771574 0.144111112 0.000439099967
v -0.323340625 0.14197728 0.180000007
v -0.322025657 0.141344011 0.178500831
v -0.322392166 0.141520515 0.1795609
v -0.330234528 0.142212301 0
v -0.329015285 0.141239986 0.00149917603
v -0.329388589 0.141537681 0.000439099967
v -0.325543553 0.138471365 0.180000007
v -0.324402452 0.137561366 0.178500831
v -0.324720472 0.137814999 0.1795609
v -0.332212299 0.14023453 0
v -0.331239998 0.139015302 0.00149917603
v -0.331537664 0.139388591 0.000439099967
v -0.328471363 0.13554354 0.180000007
v -0.327561378 0.134402454 0.178500831
v -0.327814996 0.134720489 0.1795609
v -0.33458057 0.13874644 0
v -0.333903939 0.13734141 0.00149917603
v -0.334111124 0.137771592 0.000439099967
v -0.331977278 0.133340627 0.180000007
v -0.331344008 0.132025659 0.178500831
v -0.331520498 0.132392153 0.1795609
v -0.337220609 0.137822658 0
v -0.336873591 0.136302292 0.00149917603
v -0.336979836 0.136767775 0.000439099967
v -0.335885465 0.131973088 0.180000007
v -0.335560709 0.130550176 0.178500831
v -0.335651219 0.130946755 0.1795609
v -0.340000004 0.137509495 0
v -0.340000004 0.135950029 0.00149917603
v -0.340000004 0.136427492 0.000439099967
v -0.340000004 0.131509498 0.180000007
v -0.340000004 0.130049974 0.178500831
v -0.340000004 0.130456761 0.1795609
v -0.342779398 0.137822658 0
v -0.343126416 0.136302292 0.00149917603
v -0.343020171 0.136767775 0.000439099967
v -0.344114542 0.131973088 0.180000007
v -0.344439298 0.130550176 0.178500831
v -0.344348788 0.130946755 0.1795609
v -0.345419437 0.13874644 0
v -0.346096069 0.13734141 0.00149917603
v -0.345888883 0.137771592 0.000439099967
v -0.348022729 0.133340627 0.180000007
v -0.348655999 0.132025659 0.178500831
v -0.348479509 0.132392153 0.1795609
v -0.347787708 0.14023453 0
v -0.348760009 0.139015302 0.00149917603
v -0.348462343 0.139388591 0.000439099967
v -0.351528645 0.13554354 0.180000007
v -0.352438629 0.134402454 0.178500831
v -0.352185011 0.134720489 0.1795609
v -0.34976548 0.142212301 0
v -0.350984722 0.141239986 0.00149917603
v -0.350611418 0.141537681 0.000439099967
v -0.354456455 0.138471365 0.180000007
v -0.355597556 0.137561366 0.178500831
v -0.355279535 0.137814999 0.1795609
v -0.351253569 0.144580588 0
v -0.3526586 0.143903956 0.00149917603
v -0.352228433 0.144111112 0.000439099967
v -0.356659383 0.14197728 0.180000007
v -0.35797435 0.141344011 0.178500831
v -0.357607871 0.141520515 0.1795609
v -0.352177352 0.147220612 0
v -0.353697717 0.146873593 0.00149917603
v -0.353232235 0.146979839 0.000439099967
v -0.358026922 0.145885482 0.180000007
v -0.359449834 0.145560712 0.178500831
v -0.359053254 0.145651221 0.1795609
v -0.352490515 0.150000006 0
v -0.354049981 0.150000006 0.00149917603
v -0.353572518 0.150000006 0.000439099967
v -0.358490527 0.150000006 0.180000007
v -0.359950036 0.150000006 0.178500831
v -0.359543234 0.150000006 0.1795609
v -0.352177352 0.1527794 0
v -0.353697717 0.153126419 0.00149917603
v -0.353232235 0.153020173 0.000439099967
v -0.358026922 0.154114529 0.180000007
v -0.359449834 0.1544393 0.178500831
v -0.359053254 0.154348791 0.1795609
v -0.351253569 0.155419424 0
v -0.3526586 0.156096056 0.00149917603
v -0.352228433 0.1558889 0.000439099967
v -0.356659383 0.158022732 0.180000007
v -0.35797435 0.158656001 0.178500831
v -0.357607841 0.158479497 0.1795609
v -0.34976548 0.15778771 0
v -0.350984722 0.158760026 0.00149917603
v -0.350611418 0.158462331 0.000439099967
v -0.354456455 0.161528647 0.180000007
v -0.355597556 0.162438646 0.178500831
v -0.355279535 0.162185013 0.1795609
v -0.347787708 0.159765482 0
v -0.348760009 0.16098471 0.00149917603
v -0.348462343 0.160611421 0.000439099967
v -0.351528645 0.164456472 0.180000007
v -0.352438629 0.165597558 0.178500831
v -0.352185011 0.165279523 0.1795609
v -0.345419437 0.161253572 0
v -0.346096069 0.162658602 0.00149917603
v -0.345888883 0.16222842 0.000439099967
v -0.348022729 0.166659385 0.180000007
v -0.348655999 0.167974353 0.178500831
v -0.348479509 0.167607859 0.1795609
v -0.342779398 0.162177354 0
v -0.343126416 0.16369772 0.00149917603
v -0.343020171 0.163232237 0.000439099967
v -0.344114542 0.168026924 0.180000007
v -0.344439298 0.169449836 0.178500831
v -0.344348788 0.169053257 0.1795609
f 948 951 789
f 948 789 786
f 798 801 807
f 798 807 804
f 804 807 813
f 804 813 810
f 810 813 819
f 810 819 816
f 816 819 825
f 816 825 822
f 822 825 831
f 822 831 828
f 828 831 837
f 828 837 834
f 834 837 843
f 834 843 840
f 840 843 849
f 840 849 846
f 846 849 855
f 846 855 852
f 852 855 861
f 852 861 858
f 858 861 867
f 858 867 864
f 864 867 873
f 864 873 870
f 870 873 879
f 870 879 876
f 876 879 885
f 876 885 882
f 882 885 891
f 882 891 888
f 888 891 897
f 888 897 894
f 894 897 903
f 894 903 900
f 900 903 909
f 900 909 906
f 906 909 915
f 906 915 912
f 912 915 921
f 912 921 918
f 918 921 927
f 918 927 924
f 924 927 933
f 924 933 930
f 930 933 939
f 930 939 936
f 936 939 945
f 936 945 942
f 942 945 951
f 942 951 948
f 792 795 801
f 792 801 798
f 800 794 788
f 788 950 944
f 944 938 932
f 932 926 920
f 920 914 908
f 908 902 896
f 896 890 884
f 884 878 872
f 872 866 860
f 860 854 848
f 848 842 836
f 836 830 824
f 824 818 812
f 812 806 800
f 800 788 944
f 944 932 920
f 920 908 896
f 896 884 872
f 872 860 848
f 848 836 824
f 824 812 800
f 800 944 920
f 920 896 872
f 872 848 824
f 824 800 920
f 920 872 824
f 786 789 795
f 786 795 792
f 786 792 793
f 786 793 787
f 787 793 791
f 787 791 785
f 795 789 790
f 795 790 796
f 796 790 788
f 796 788 794
f 792 798 799
f 792 799 793
f 793 799 797
f 793 797 791
f 801 795 796
f 801 796 802
f 802 796 794
f 802 794 800
f 798 804 805
f 798 805 799
f 799 805 803
f 799 803 797
f 807 801 802
f 807 802 808
f 808 802 800
f 808 800 806
f 804 810 811
f 804 811 805
f 805 811 809
f 805 809 803
f 813 807 808
f 813 808 814
f 814 808 806
f 814 806 812
f 810 816 817
f 810 817 811
f 811 817 815
f 811 815 809
f 819 813 814
f 819 814 820
f 820 814 812
f 820 812 818
f 816 822 823
f 816 823 817
f 817 823 821
f 817 821 815
f 825 819 820
f 825 820 826
f 826 820 818
f 826 818 824
f 822 828 829
f 822 829 823
f 823 829 827
f 823 827 821
f 831 825 826
f 831 826 832
f 832 826 824
f 832 824 830
f 828 834 835
f 828 835 829
f 829 835 833
f 829 833 827
f 837 831 832
f 837 832 838
f 838 832 830
f 838 830 836
f 834 840 841
f 834 841 835
f 835 841 839
f 835 839 833
f 843 837 838
f 843 838 844
f 844 838 836
f 844 836 842
f 840 846 847
f 840 847 841
f 841 847 845
f 841 845 839
f 849 843 844
f 849 844 850
f 850 844 842
f 850 842 848
f 846 852 853
f 846 853 847
f 847 853 851
f 847 851 845
f 855 849 850
f 855 850 856
f 856 850 848
f 856 848 854
f 852 858 859
f 852 859 853
f 853 859 857
f 853 857 851
f 861 855 856
f 861 856 862
f 862 856 854
f 862 854 860
f 858 864 865
f 858 865 859
f 859 865 863
f 859 863 857
f 867 861 862
f 867 862 868
f 868 862 860
f 868 860 866
f 864 870 871
f 864 871 865
f 865 871 869
f 865 869 863
f 873 867 868
f 873 868 874
f 874 868 866
f 874 866 872
f 870 876 877
f 870 877 871
f 871 877 875
f 871 875 869
f 879 873 874
f 879 874 880
f 880 874 872
f 880 872 878
f 876 882 883
f 876 883 877
f 877 883 881
f 877 881 875
f 885 879 880
f 885 880 886
f 886 880 878
f 886 878 884
f 882 888 889
f 882 889 883
f 883 889 887
f 883 887 881
f 891 885 886
f 891 886 892
f 892 886 884
f 892 884 890
f 888 894 895
f 888 895 889
f 889 895 893
f 889 893 887
f 897 891 892
f 897 892 898
f 898 892 890
f 898 890 896
f 894 900 901
f 894 901 895
f 895 901 899
f 895 899 893
f 903 897 898
f 903 898 904
f 904 898 896
f 904 896 902
f 900 906 907
f 900 907 901
f 901 907 905
f 901 905 899
f 909 903 904
f 909 904 910
f 910 904 902
f 910 902 908
f 906 912 913
f 906 913 907
f 907 913 911
f 907 911 905
f 915 909 910
f 915 910 916
f 916 910 908
f 916 908 914
f 912 918 919
f 912 919 913
f 913 919 917
f 913 917 911
f 921 915 916
f 921 916 922
f 922 916 914
f 922 914 920
f 918 924 925
f 918 925 919
f 919 925 923
f 919 923 917
f 927 921 922
f 927 922 928
f 928 922 920
f 928 920 926
f 924 930 931
f 924 931 925
f 925 931 929
f 925 929 923
f 933 927 928
f 933 928 934
f 934 928 926
f 934 926 932
f 930 936 937
f 930 937 931
f 931 937 935
f 931 935 929
f 939 933 934
f 939 934 940
f 940 934 932
f 940 932 938
f 936 942 943
f 936 943 937
f 937 943 941
f 937 941 935
f 945 939 940
f 945 940 946
f 946 940 938
f 946 938 944
f 942 948 949
f 942 949 943
f 943 949 947
f 943 947 941
f 951 945 946
f 951 946 952
f 952 946 944
f 952 944 950
f 948 786 787
f 948 787 949
f 949 787 785
f 949 785 947
f 789 951 952
f 789 952 790
f 790 952 950
f 790 950 788
f 947 785 791
f 791 797 803
f 803 809 815
f 815 821 827
f 827 833 839
f 839 845 851
f 851 857 863
f 863 869 875
f 875 881 887
f 887 893 899
f 899 905 911
f 911 917 923
f 923 929 935
f 935 941 947
f 947 791 803
f 803 815 827
f 827 839 851
f 851 863 875
f 875 887 899
f 899 911 923
f 923 935 947
f 947 803 827
f 827 851 875
f 875 899 923
f 923 947 827
f 827 875 923

o leg_back_right
v 0.340000004 0.162490517 0
v 0.340000004 0.164049983 0.00149917603
v 0.340000004 0.16357252 0.000439099967
v 0.340000004 0.168490514 0.180000007
v 0.340000004 0.169950038 0.178500831
v 0.340000004 0.169543251 0.1795609
v 0.342779398 0.162177354 0
v 0.343126416 0.16369772 0.00149917603
v 0.343020171 0.163232237 0.000439099967
v 0.344114542 0.168026924 0.180000007
v 0.344439298 0.169449836 0.178500831
v 0.344348788 0.169053257 0.1795609
v 0.345419437 0.161253572 0
v 0.346096069 0.162658602 0.00149917603
v 0.345888883 0.16222842 0.000439099967
v 0.348022729 0.166659385 0.180000007
v 0.348655999 0.167974353 0.178500831
v 0.348479509 0.167607859 0.1795609
v 0.347787708 0.159765482 0
v 0.348760009 0.16098471 0.00149917603
v 0.348462343 0.160611421 0.000439099967
v 0.351528645 0.164456472 0.180000007
v 0.352438629 0.165597558 0.178500831
v 0.352185011 0.165279523 0.1795609
v 0.34976548 0.15778771 0
v 0.350984722 0.158760026 0.00149917603
v 0.350611418 0.158462331 0.000439099967
v 0.354456455 0.161528647 0.180000007
v 0.355597556 0.162438646 0.178500831
v 0.355279535 0.162185013 0.1795609
v 0.351253569 0.155419424 0
v 0.3526586 0.156096056 0.00149917603
v 0.352228433 0.1558889 0.000439099967
v 0.356659383 0.158022732 0.180000007
v 0.35797435 0.158656001 0.178500831
v 0.357607871 0.158479497 0.1795609
v 0.352177352 0.1527794 0
v 0.353697717 0.153126419 0.00149917603
v 0.353232235 0.153020173 0.000439099967
v 0.358026922 0.154114529 0.180000007
v 0.359449834 0.1544393 0.178500831
v 0.359053254 0.154348791 0.1795609
v 0.352490515 0.150000006 0
v 0.354049981 0.150000006 0.00149917603
v 0.353572518 0.150000006 0.000439099967
v 0.358490527 0.150000006 0.180000007
v 0.359950036 0.150000006 0.178500831
v 0.359543234 0.150000006 0.1795609
v 0.352177352 0.147220612 0
v 0.353697717 0.146873593 0.00149917603
v 0.353232235 0.146979839 0.000439099967
v 0.358026922 0.145885482 0.180000007
v 0.359449834 0.145560712 0.178500831
v 0.359053254 0.145651221 0.1795609
v 0.351253569 0.144580588 0
v 0.3526586 0.143903956 0.00149917603
v 0.352228433 0.144111112 0.000439099967
v 0.356659383 0.14197728 0.180000007
v 0.35797435 0.141344011 0.178500831
v 0.357607841 0.141520515 0.1795609
v 0.34976548 0.142212301 0
v 0.350984722 0.141239986 0.00149917603
v 0.350611418 0.141537681 0.000439099967
v 0.354456455 0.138471365 0.180000007
v 0.355597556 0.137561366 0.178500831
v 0.355279535 0.137814999 0.1795609
v 0.347787708 0.14023453 0
v 0.348760009 0.139015302 0.00149917603
v 0.348462343 0.139388591 0.000439099967
v 0.351528645 0.13554354 0.180000007
v 0.352438629 0.134402454 0.178500831
v 0.352185011 0.134720489 0.1795609
v 0.345419437 0.13874644 0
v 0.346096069 0.13734141 0.00149917603
v 0.345888883 0.137771592 0.000439099967
v 0.348022729 0.133340627 0.180000007
v 0.348655999 0.132025659 0.178500831
v 0.348479509 0.132392153 0.1795609
v 0.342779398 0.137822658 0
v 0.343126416 0.136302292 0.00149917603
v 0.343020171 0.136767775 0.000439099967
v 0.344114542 0.131973088 0.180000007
v 0.344439298 0.130550176 0.178500831
v 0.344348788 0.130946755 0.1795609
v 0.340000004 0.137509495 0
v 0.340000004 0.135950029 0.00149917603
v 0.340000004 0.136427492 0.000439099967
v 0.340000004 0.131509498 0.180000007
v 0.340000004 0.130049974 0.178500831
v 0.340000004 0.130456761 0.1795609
v 0.337220609 0.137822658 0
v 0.336873591 0.136302292 0.00149917603
v 0.336979836 0.136767775 0.000439099967
v 0.335885465 0.131973088 0.180000007
v 0.335560709 0.130550176 0.178500831
v 0.335651219 0.130946755 0.1795609
v 0.33458057 0.13874644 0
v 0.333903939 0.13734141 0.00149917603
v 0.334111124 0.137771592 0.000439099967
v 0.331977278 0.133340627 0.180000007
v 0.331344008 0.132025659 0.178500831
v 0.331520498 0.132392153 0.1795609
v 0.332212299 0.14023453 0
v 0.331239998 0.139015302 0.00149917603
v 0.331537664 0.139388591 0.000439099967
v 0.328471363 0.13554354 0.180000007
v 0.327561378 0.134402454 0.178500831
v 0.327814996 0.134720489 0.1795609
v 0.330234528 0.142212301 0
v 0.329015285 0.141239986 0.00149917603
v 0.329388589 0.141537681 0.000439099967
v 0.325543553 0.138471365 0.180000007
v 0.324402452 0.137561366 0.178500831
v 0.324720472 0.137814999 0.1795609
v 0.328746438 0.144580588 0
v 0.327341408 0.143903956 0.00149917603
v 0.327771574 0.144111112 0.000439099967
v 0.323340625 0.14197728 0.180000007
v 0.322025657 0.141344011 0.178500831
v 0.322392136 0.141520515 0.1795609
v 0.327822655 0.147220612 0
v 0.32630229 0.146873593 0.00149917603
v 0.326767772 0.146979839 0.000439099967
v 0.321973085 0.145885482 0.180000007
v 0.320550174 0.145560712 0.178500831
v 0.320946753 0.145651221 0.1795609
v 0.327509493 0.150000006 0
v 0.325950027 0.150000006 0.00149917603
v 0.32642749 0.150000006 0.000439099967
v 0.32150948 0.150000006 0.180000007
v 0.320049971 0.150000006 0.178500831
v 0.320456773 0.150000006 0.1795609
v 0.327822655 0.1527794 0
v 0.32630229 0.153126419 0.00149917603
v 0.326767772 0.153020173 0.000439099967
v 0.321973085 0.154114529 0.180000007
v 0.320550174 0.1544393 0.178500831
v 0.320946753 0.154348791 0.1795609
v 0.328746438 0.155419424 0
v 0.327341408 0.156096056 0.00149917603
v 0.327771574 0.1558889 0.000439099967
v 0.323340625 0.158022732 0.180000007
v 0.322025657 0.158656001 0.178500831
v 0.322392166 0.158479497 0.1795609
v 0.330234528 0.15778771 0
v 0.329015285 0.158760026 0.00149917603
v 0.329388589 0.158462331 0.000439099967
v 0.325543553 0.161528647 0.180000007
v 0.324402452 0.162438646 0.178500831
v 0.324720472 0.162185013 0.1795609
v 0.332212299 0.159765482 0
v 0.331239998 0.16098471 0.00149917603
v 0.331537664 0.160611421 0.000439099967
v 0.328471363 0.164456472 0.180000007
v 0.327561378 0.165597558 0.178500831
v 0.327814996 0.165279523 0.1795609
v 0.33458057 0.161253572 0
v 0.333903939 0.162658602 0.00149917603
v 0.334111124 0.16222842 0.000439099967
v 0.331977278 0.166659385 0.180000007
v 0.331344008 0.167974353 0.178500831
v 0.331520498 0.167607859 0.1795609
v 0.337220609 0.162177354 0
v 0.336873591 0.16369772 0.00149917603
v 0.336979836 0.163232237 0.000439099967
v 0.335885465 0.168026924 0.180000007
v 0.335560709 0.169449836 0.178500831
v 0.335651219 0.169053257 0.1795609
f 1116 1119 957
f 1116 957 954
f 966 969 975
f 966 975 972
f 972 975 981
f 972 981 978
f 978 981 987
f 978 987 984
f 984 987 993
f 984 993 990
f 990 993 999
f 990 999 996
f 996 999 1005
f 996 1005 1002
f 1002 1005 1011
f 1002 1011 1008
f 1008 1011 1017
f 1008 1017 1014
f 1014 1017 1023
f 1014 1023 1020
f 1020 1023 1029
f 1020 1029 1026
f 1026 1029 1035
f 1026 1035 1032
f 1032 1035 1041
f 1032 1041 1038
f 1038 1041 1047
f 1038 1047 1044
f 1044 1047 1053
f 1044 1053 1050
f 1050 1053 1059
f 1050 1059 1056
f 1056 1059 1065
f 1056 1065 1062
f 1062 1065 1071
f 1062 1071 1068
f 1068 1071 1077
f 1068 1077 1074
f 1074 1077 1083
f 1074 1083 1080
f 1080 1083 1089
f 1080 1089 1086
f 1086 1089 1095
f 1086 1095 1092
f 1092 1095 1101
f 1092 1101 1098
f 1098 1101 1107
f 1098 1107 1104
f 1104 1107 1113
f 1104 1113 1110
f 1110 1113 1119
f 1110 1119 1116
f 960 963 969
f 960 969 966
f 968 962 956
f 956 1118 1112
f 1112 1106 1100
f 1100 1094 1088
f 1088 1082 1076
f 1076 1070 1064
f 1064 1058 1052
f 1052 1046 1040
f 1040 1034 1028
f 1028 1022 1016
f 1016 1010 1004
f 1004 998 992
f 992 986 980
f 980 974 968
f 968 956 1112
f 1112 1100 1088
f 1088 1076 1064
f 1064 1052 1040
f 1040 1028 1016
f 1016 1004 992
f 992 980 968
f 968 1112 1088
f 1088 1064 1040
f 1040 1016 992
f 992 968 1088
f 1088 1040 992
f 954 957 963
f 954 963 960
f 954 960 961
f 954 961 955
f 955 961 959
f 955 959 953
f 963 957 958
f 963 958 964
f 964 958 956
f 964 956 962
f 960 966 967
f 960 967 961
f 961 967 965
f 961 965 959
f 969 963 964
f 969 964 970
f 970 964 962
f 970 962 968
f 966 972 973
f 966 973 967
f 967 973 971
f 967 971 965
f 975 969 970
f 975 970 976
f 976 970 968
f 976 968 974
f 972 978 979
f 972 979 973
f 973 979 977
f 973 977 971
f 981 975 976
f 981 976 982
f 982 976 974
f 982 974 980
f 978 984 985
f 978 985 979
f 979 985 983
f 979 983 977
f 987 981 982
f 987 982 988
f 988 982 980
f 988 980 986
f 984 990 991
f 984 991 985
f 985 991 989
f 985 989 983
f 993 987 988
f 993 988 994
f 994 988 986
f 994 986 992
f 990 996 997
f 990 997 991
f 991 997 995
f 991 995 989
f 999 993 994
f 999 994 1000
f 1000 994 992
f 1000 992 998
f 996 1002 1003
f 996 1003 997
f 997 1003 1001
f 997 1001 995
f 1005 999 1000
f 1005 1000 1006
f 1006 1000 998
f 1006 998 1004
f 1002 1008 1009
f 1002 1009 1003
f 1003 1009 1007
f 1003 1007 1001
f 1011 1005 1006
f 1011 1006 1012
f 1012 1006 1004
f 1012 1004 1010
f 1008 1014 1015
f 1008 1015 1009
f 1009 1015 1013
f 1009 1013 1007
f 1017 1011 1012
f 1017 1012 1018
f 1018 1012 1010
f 1018 1010 1016
f 1014 1020 1021
f 1014 1021 1015
f 1015 1021 1019
f 1015 1019 1013
f 1023 1017 1018
f 1023 1018 1024
f 1024 1018 1016
f 1024 1016 1022
f 1020 1026 1027
f 1020 1027 1021
f 1021 1027 1025
f 1021 1025 1019
f 1029 1023 1024
f 1029 1024 1030
f 1030 1024 1022
f 1030 1022 1028
f 1026 1032 1033
f 1026 1033 1027
f 1027 1033 1031
f 1027 1031 1025
f 1035 1029 1030
f 1035 1030 1036
f 1036 1030 1028
f 1036 1028 1034
f 1032 1038 1039
f 1032 1039 1033
f 1033 1039 1037
f 1033 1037 1031
f 1041 1035 1036
f 1041 1036 1042
f 1042 1036 1034
f 1042 1034 1040
f 1038 1044 1045
f 1038 1045 1039
f 1039 1045 1043
f 1039 1043 1037
f 1047 1041 1042
f 1047 1042 1048
f 1048 1042 1040
f 1048 1040 1046
f 1044 1050 1051
f 1044 1051 1045
f 1045 1051 1049
f 1045 1049 1043
f 1053 1047 1048
f 1053 1048 1054
f 1054 1048 1046
f 1054 1046 1052
f 1050 1056 1057
f 1050 1057 1051
f 1051 1057 1055
f 1051 1055 1049
f 1059 1053 1054
f 1059 1054 1060
f 1060 1054 1052
f 1060 1052 1058
f 1056 1062 1063
f 1056 1063 1057
f 1057 1063 1061
f 1057 1061 1055
f 1065 1059 1060
f 1065 1060 1066
f 1066 1060 1058
f 1066 1058 1064
f 1062 1068 1069
f 1062 1069 1063
f 1063 1069 1067
f 1063 1067 1061
f 1071 1065 1066
f 1071 1066 1072
f 1072 1066 1064
f 1072 1064 1070
f 1068 1074 1075
f 1068 1075 1069
f 1069 1075 1073
f 1069 1073 1067
f 1077 1071 1072
f 1077 1072 1078
f 1078 1072 1070
f 1078 1070 1076
f 1074 1080 1081
f 1074 1081 1075
f 1075 1081 1079
f 1075 1079 1073
f 1083 1077 1078
f 1083 1078 1084
f 1084 1078 1076
f 1084 1076 1082
f 1080 1086 1087
f 1080 1087 1081
f 1081 1087 1085
f 1081 1085 1079
f 1089 1083 1084
f 1089 1084 1090
f 1090 1084 1082
f 1090 1082 1088
f 1086 1092 1093
f 1086 1093 1087
f 1087 1093 1091
f 1087 1091 1085
f 1095 1089 1090
f 1095 1090 1096
f 1096 1090 1088
f 1096 1088 1094
f 1092 1098 1099
f 1092 1099 1093
f 1093 1099 1097
f 1093 1097 1091
f 1101 1095 1096
f 1101 1096 1102
f 1102 1096 1094
f 1102 1094 1100
f 1098 1104 1105
f 1098 1105 1099
f 1099 1105 1103
f 1099 1103 1097
f 1107 1101 1102
f 1107 1102 1108
f 1108 1102 1100
f 1108 1100 1106
f 1104 1110 1111
f 1104 1111 1105
f 1105 1111 1109
f 1105 1109 1103
f 1113 1107 1108
f 1113 1108 1114
f 1114 1108 1106
f 1114 1106 1112
f 1110 1116 1117
f 1110 1117 1111
f 1111 1117 1115
f 1111 1115 1109
f 1119 1113 1114
f 1119 1114 1120
f 1120 1114 1112
f 1120 1112 1118
f 1116 954 955
f 1116 955 1117
f 1117 955 953
f 1117 953 1115
f 957 1119 1120
f 957 1120 958
f 958 1120 1118
f 958 1118 956
f 1115 953 959
f 959 965 971
f 971 977 983
f 983 989 995
f 995 1001 1007
f 1007 1013 1019
f 1019 1025 1031
f 1031 1037 1043
f 1043 1049 1055
f 1055 1061 1067
f 1067 1073 1079
f 1079 1085 1091
f 1091 1097 1103
f 1103 1109 1115
f 1115 959 971
f 971 983 995
f 995 1007 1019
f 1019 1031 1043
f 1043 1055 1067
f 1067 1079 1091
f 1091 1103 1115
f 1115 971 995
f 995 1019 1043
f 1043 1067 1091
f 1091 1115 995
f 995 1043 1091
