# OBJ in URDF link-local coordinates
# No mtllib/usemtl: visual material color is stored in the URDF.

o drawer_lower
v -0.342000008 -0.0120000001 -0.0850000009
v -0.342000008 -0.0149999997 -0.0820000023
v -0.344999999 -0.0120000001 -0.0820000023
v -0.342000008 -0.0141213182 -0.0841213241
v -0.343732059 -0.0137320487 -0.0837320536
v -0.344121307 -0.0141213182 -0.0820000023
v -0.344121307 -0.0119999982 -0.0841213241
v -0.342000008 -0.0149999997 0.0820000023
v -0.342000008 -0.0120000001 0.0850000009
v -0.344999999 -0.0120000001 0.0820000023
v -0.342000008 -0.0141213182 0.0841213241
v -0.343732059 -0.0137320487 0.0837320536
v -0.344121307 -0.0119999982 0.0841213241
v -0.344121307 -0.0141213182 0.0820000023
v -0.342000008 0.0120000001 -0.0850000009
v -0.344999999 0.0120000001 -0.0820000023
v -0.342000008 0.0149999997 -0.0820000023
v -0.344121307 0.0120000001 -0.0841213241
v -0.343732059 0.0137320505 -0.0837320536
v -0.344121307 0.0141213201 -0.0820000023
v -0.342000008 0.0141213201 -0.0841213241
v -0.342000008 0.0120000001 0.0850000009
v -0.342000008 0.0149999997 0.0820000023
v -0.344999999 0.0120000001 0.0820000023
v -0.342000008 0.0141213182 0.0841213241
v -0.343732059 0.0137320487 0.0837320536
v -0.344121307 0.0141213182 0.0820000023
v -0.344121307 0.0119999982 0.0841213241
v 0.342000008 -0.0120000001 -0.0850000009
v 0.344999999 -0.0120000001 -0.0820000023
v 0.342000008 -0.0149999997 -0.0820000023
v 0.344121307 -0.0120000001 -0.0841213241
v 0.343732059 -0.0137320505 -0.0837320536
v 0.344121307 -0.0141213201 -0.0820000023
v 0.342000008 -0.0141213201 -0.0841213241
v 0.342000008 -0.0120000001 0.0850000009
v 0.342000008 -0.0149999997 0.0820000023
v 0.344999999 -0.0120000001 0.0820000023
v 0.342000008 -0.0141213182 0.0841213241
v 0.343732059 -0.0137320487 0.0837320536
v 0.344121307 -0.0141213182 0.0820000023
v 0.344121307 -0.0119999982 0.0841213241
v 0.342000008 0.0120000001 -0.0850000009
v 0.342000008 0.0149999997 -0.0820000023
v 0.344999999 0.0120000001 -0.0820000023
v 0.342000008 0.0141213182 -0.0841213241
v 0.343732059 0.0137320487 -0.0837320536
v 0.344121307 0.0141213182 -0.0820000023
v 0.344121307 0.0119999982 -0.0841213241
v 0.342000008 0.0120000001 0.0850000009
v 0.344999999 0.0120000001 0.0820000023
v 0.342000008 0.0149999997 0.0820000023
v 0.344121307 0.0120000001 0.0841213241
v 0.343732059 0.0137320505 0.0837320536
v 0.344121307 0.0141213201 0.0820000023
v 0.342000008 0.0141213201 0.0841213241
v -0.342000008 0.0179999862 -0.0669999942
v -0.342000008 0.0149999857 -0.0639999956
v -0.344999999 0.0179999862 -0.0639999956
v -0.342000008 0.0158786625 -0.0661213174
v -0.343732059 0.016267933 -0.065732047
v -0.344121307 0.0158786625 -0.0639999956
v -0.344121307 0.0179999843 -0.0661213174
v -0.342000008 0.0149999857 0.0820000023
v -0.342000008 0.0179999862 0.0850000009
v -0.344999999 0.0179999862 0.0820000023
v -0.342000008 0.0158786625 0.0841213241
v -0.343732059 0.016267933 0.0837320536
v -0.344121307 0.0179999843 0.0841213241
v -0.344121307 0.0158786625 0.0820000023
v -0.342000008 0.294 -0.0669999942
v -0.344999999 0.294 -0.0639999956
v -0.342000008 0.296999991 -0.0639999956
v -0.344121307 0.294 -0.0661213174
v -0.343732059 0.295732051 -0.065732047
v -0.344121307 0.296121299 -0.0639999956
v -0.342000008 0.296121299 -0.0661213174
v -0.342000008 0.294 0.0850000009
v -0.342000008 0.296999991 0.0820000023
v -0.344999999 0.294 0.0820000023
v -0.342000008 0.296121299 0.0841213241
v -0.343732059 0.295732051 0.0837320536
v -0.344121307 0.296121299 0.0820000023
v -0.344121307 0.294 0.0841213241
v -0.329999983 0.0179999862 -0.0669999942
v -0.326999992 0.0179999862 -0.0639999956
v -0.329999983 0.0149999857 -0.0639999956
v -0.327878684 0.0179999862 -0.0661213174
v -0.328267932 0.0162679348 -0.065732047
v -0.327878684 0.0158786662 -0.0639999956
v -0.329999983 0.0158786662 -0.0661213174
v -0.329999983 0.0179999862 0.0850000009
v -0.329999983 0.0149999857 0.0820000023
v -0.326999992 0.0179999862 0.0820000023
v -0.329999983 0.0158786625 0.0841213241
v -0.328267932 0.016267933 0.0837320536
v -0.327878684 0.0158786625 0.0820000023
v -0.327878684 0.0179999843 0.0841213241
v -0.329999983 0.294 -0.0669999942
v -0.329999983 0.296999991 -0.0639999956
v -0.326999992 0.294 -0.0639999956
v -0.329999983 0.296121299 -0.0661213174
v -0.328267932 0.295732051 -0.065732047
v -0.327878684 0.296121299 -0.0639999956
v -0.327878684 0.294 -0.0661213174
v -0.329999983 0.294 0.0850000009
v -0.326999992 0.294 0.0820000023
v -0.329999983 0.296999991 0.0820000023
v -0.327878684 0.294 0.0841213241
v -0.328267932 0.295732051 0.0837320536
v -0.327878684 0.296121299 0.0820000023
v -0.329999983 0.296121299 0.0841213241
v 0.329999983 0.0179999862 -0.0669999942
v 0.329999983 0.0149999857 -0.0639999956
v 0.326999992 0.0179999862 -0.0639999956
v 0.329999983 0.0158786625 -0.0661213174
v 0.328267932 0.016267933 -0.065732047
v 0.327878684 0.0158786625 -0.0639999956
v 0.327878684 0.0179999843 -0.0661213174
v 0.329999983 0.0149999857 0.0820000023
v 0.329999983 0.0179999862 0.0850000009
v 0.326999992 0.0179999862 0.0820000023
v 0.329999983 0.0158786625 0.0841213241
v 0.328267932 0.016267933 0.0837320536
v 0.327878684 0.0179999843 0.0841213241
v 0.327878684 0.0158786625 0.0820000023
v 0.329999983 0.294 -0.0669999942
v 0.326999992 0.294 -0.0639999956
v 0.329999983 0.296999991 -0.0639999956
v 0.327878684 0.294 -0.0661213174
v 0.328267932 0.295732051 -0.065732047
v 0.327878684 0.296121299 -0.0639999956
v 0.329999983 0.296121299 -0.0661213174
v 0.329999983 0.294 0.0850000009
v 0.329999983 0.296999991 0.0820000023
v 0.326999992 0.294 0.0820000023
v 0.329999983 0.296121299 0.0841213241
v 0.328267932 0.295732051 0.0837320536
v 0.327878684 0.296121299 0.0820000023
v 0.327878684 0.294 0.0841213241
v 0.342000008 0.0179999862 -0.0669999942
v 0.344999999 0.0179999862 -0.0639999956
v 0.342000008 0.0149999857 -0.0639999956
v 0.344121307 0.0179999862 -0.0661213174
v 0.343732059 0.0162679348 -0.065732047
v 0.344121307 0.0158786662 -0.0639999956
v 0.342000008 0.0158786662 -0.0661213174
v 0.342000008 0.0179999862 0.0850000009
v 0.342000008 0.0149999857 0.0820000023
v 0.344999999 0.0179999862 0.0820000023
v 0.342000008 0.0158786625 0.0841213241
v 0.343732059 0.016267933 0.0837320536
v 0.344121307 0.0158786625 0.0820000023
v 0.344121307 0.0179999843 0.0841213241
v 0.342000008 0.294 -0.0669999942
v 0.342000008 0.296999991 -0.0639999956
v 0.344999999 0.294 -0.0639999956
v 0.342000008 0.296121299 -0.0661213174
v 0.343732059 0.295732051 -0.065732047
v 0.344121307 0.296121299 -0.0639999956
v 0.344121307 0.294 -0.0661213174
v 0.342000008 0.294 0.0850000009
v 0.344999999 0.294 0.0820000023
v 0.342000008 0.296999991 0.0820000023
v 0.344121307 0.294 0.0841213241
v 0.343732059 0.295732051 0.0837320536
v 0.344121307 0.296121299 0.0820000023
v 0.342000008 0.296121299 0.0841213241
v -0.324000001 0.299999982 -0.0669999942
v -0.324000001 0.296999991 -0.0639999956
v -0.326999992 0.299999982 -0.0639999956
v -0.324000001 0.297878683 -0.0661213174
v -0.325732052 0.298267931 -0.065732047
v -0.3261213 0.297878683 -0.0639999956
v -0.3261213 0.299999982 -0.0661213174
v -0.324000001 0.296999991 0.0820000023
v -0.324000001 0.299999982 0.0850000009
v -0.326999992 0.299999982 0.0820000023
v -0.324000001 0.297878683 0.0841213241
v -0.325732052 0.298267931 0.0837320536
v -0.3261213 0.299999982 0.0841213241
v -0.3261213 0.297878683 0.0820000023
v -0.324000001 0.312000006 -0.0669999942
v -0.326999992 0.312000006 -0.0639999956
v -0.324000001 0.314999998 -0.0639999956
v -0.3261213 0.312000006 -0.0661213174
v -0.325732052 0.313732058 -0.065732047
v -0.3261213 0.314121306 -0.0639999956
v -0.324000001 0.314121306 -0.0661213174
v -0.324000001 0.312000006 0.0850000009
v -0.324000001 0.314999998 0.0820000023
v -0.326999992 0.312000006 0.0820000023
v -0.324000001 0.314121306 0.0841213241
v -0.325732052 0.313732058 0.0837320536
v -0.3261213 0.314121306 0.0820000023
v -0.3261213 0.312000006 0.0841213241
v 0.324000001 0.299999982 -0.0669999942
v 0.326999992 0.299999982 -0.0639999956
v 0.324000001 0.296999991 -0.0639999956
v 0.3261213 0.299999982 -0.0661213174
v 0.325732052 0.298267931 -0.065732047
v 0.3261213 0.297878683 -0.0639999956
v 0.324000001 0.297878683 -0.0661213174
v 0.324000001 0.299999982 0.0850000009
v 0.324000001 0.296999991 0.0820000023
v 0.326999992 0.299999982 0.0820000023
v 0.324000001 0.297878683 0.0841213241
v 0.325732052 0.298267931 0.0837320536
v 0.3261213 0.297878683 0.0820000023
v 0.3261213 0.299999982 0.0841213241
v 0.324000001 0.312000006 -0.0669999942
v 0.324000001 0.314999998 -0.0639999956
v 0.326999992 0.312000006 -0.0639999956
v 0.324000001 0.314121306 -0.0661213174
v 0.325732052 0.313732058 -0.065732047
v 0.3261213 0.314121306 -0.0639999956
v 0.3261213 0.312000006 -0.0661213174
v 0.324000001 0.312000006 0.0850000009
v 0.326999992 0.312000006 0.0820000023
v 0.324000001 0.314999998 0.0820000023
v 0.3261213 0.312000006 0.0841213241
v 0.325732052 0.313732058 0.0837320536
v 0.3261213 0.314121306 0.0820000023
v 0.324000001 0.314121306 0.0841213241
v -0.324000001 0.0179999862 -0.0850000381
v -0.324000001 0.0149999857 -0.0820000395
v -0.326999992 0.0179999862 -0.0820000395
v -0.324000001 0.0158786625 -0.0841213688
v -0.325732052 0.016267933 -0.0837320983
v -0.3261213 0.0158786625 -0.082000047
v -0.3261213 0.0179999843 -0.0841213688
v -0.324000001 0.0149999857 -0.0700000301
v -0.324000001 0.0179999862 -0.0670000315
v -0.326999992 0.0179999862 -0.0700000301
v -0.324000001 0.0158786625 -0.0678787008
v -0.325732052 0.016267933 -0.0682679713
v -0.3261213 0.0179999843 -0.0678787008
v -0.3261213 0.0158786625 -0.0700000226
v -0.324000001 0.294 -0.0850000381
v -0.326999992 0.294 -0.0820000395
v -0.324000001 0.296999991 -0.0820000395
v -0.3261213 0.294 -0.0841213688
v -0.325732052 0.295732051 -0.0837320983
v -0.3261213 0.296121299 -0.082000047
v -0.324000001 0.296121299 -0.0841213688
v -0.324000001 0.294 -0.0670000315
v -0.324000001 0.296999991 -0.0700000301
v -0.326999992 0.294 -0.0700000301
v -0.324000001 0.296121299 -0.0678787008
v -0.325732052 0.295732051 -0.0682679713
v -0.3261213 0.296121299 -0.0700000226
v -0.3261213 0.294 -0.0678787008
v 0.324000001 0.0179999862 -0.0850000381
v 0.326999992 0.0179999862 -0.0820000395
v 0.324000001 0.0149999857 -0.0820000395
v 0.3261213 0.0179999862 -0.0841213688
v 0.325732052 0.0162679348 -0.0837320983
v 0.3261213 0.0158786662 -0.082000047
v 0.324000001 0.0158786662 -0.0841213688
v 0.324000001 0.0179999862 -0.0670000315
v 0.324000001 0.0149999857 -0.0700000301
v 0.326999992 0.0179999862 -0.0700000301
v 0.324000001 0.0158786625 -0.0678787008
v 0.325732052 0.016267933 -0.0682679713
v 0.3261213 0.0158786625 -0.0700000226
v 0.3261213 0.0179999843 -0.0678787008
v 0.324000001 0.294 -0.0850000381
v 0.324000001 0.296999991 -0.0820000395
v 0.326999992 0.294 -0.0820000395
v 0.324000001 0.296121299 -0.0841213688
v 0.325732052 0.295732051 -0.0837320983
v 0.3261213 0.296121299 -0.082000047
v 0.3261213 0.294 -0.0841213688
v 0.324000001 0.294 -0.0670000315
v 0.326999992 0.294 -0.0700000301
v 0.324000001 0.296999991 -0.0700000301
v 0.3261213 0.294 -0.0678787008
v 0.325732052 0.295732051 -0.0682679713
v 0.3261213 0.296121299 -0.0700000226
v 0.324000001 0.296121299 -0.0678787008
f 31 37 8
f 31 8 2
f 45 51 38
f 45 38 30
f 71 99 85
f 71 85 57
f 50 22 9
f 50 9 36
f 3 10 24
f 3 24 16
f 17 23 52
f 17 52 44
f 87 93 64
f 87 64 58
f 101 107 94
f 101 94 86
f 127 155 141
f 127 141 113
f 106 78 65
f 106 65 92
f 59 66 80
f 59 80 72
f 73 79 108
f 73 108 100
f 143 149 120
f 143 120 114
f 157 163 150
f 157 150 142
f 183 211 197
f 183 197 169
f 162 134 121
f 162 121 148
f 115 122 136
f 115 136 128
f 129 135 164
f 129 164 156
f 199 205 176
f 199 176 170
f 213 219 206
f 213 206 198
f 239 267 253
f 239 253 225
f 218 190 177
f 218 177 204
f 171 178 192
f 171 192 184
f 185 191 220
f 185 220 212
f 255 261 232
f 255 232 226
f 269 275 262
f 269 262 254
f 274 246 233
f 274 233 260
f 227 234 248
f 227 248 240
f 241 247 276
f 241 276 268
f 1 4 5
f 1 5 7
f 2 6 5
f 2 5 4
f 3 7 5
f 3 5 6
f 8 11 12
f 8 12 14
f 9 13 12
f 9 12 11
f 10 14 12
f 10 12 13
f 15 18 19
f 15 19 21
f 16 20 19
f 16 19 18
f 17 21 19
f 17 19 20
f 22 25 26
f 22 26 28
f 23 27 26
f 23 26 25
f 24 28 26
f 24 26 27
f 29 32 33
f 29 33 35
f 30 34 33
f 30 33 32
f 31 35 33
f 31 33 34
f 36 39 40
f 36 40 42
f 37 41 40
f 37 40 39
f 38 42 40
f 38 40 41
f 43 46 47
f 43 47 49
f 44 48 47
f 44 47 46
f 45 49 47
f 45 47 48
f 50 53 54
f 50 54 56
f 51 55 54
f 51 54 53
f 52 56 54
f 52 54 55
f 57 60 61
f 57 61 63
f 58 62 61
f 58 61 60
f 59 63 61
f 59 61 62
f 64 67 68
f 64 68 70
f 65 69 68
f 65 68 67
f 66 70 68
f 66 68 69
f 71 74 75
f 71 75 77
f 72 76 75
f 72 75 74
f 73 77 75
f 73 75 76
f 78 81 82
f 78 82 84
f 79 83 82
f 79 82 81
f 80 84 82
f 80 82 83
f 85 88 89
f 85 89 91
f 86 90 89
f 86 89 88
f 87 91 89
f 87 89 90
f 92 95 96
f 92 96 98
f 93 97 96
f 93 96 95
f 94 98 96
f 94 96 97
f 99 102 103
f 99 103 105
f 100 104 103
f 100 103 102
f 101 105 103
f 101 103 104
f 106 109 110
f 106 110 112
f 107 111 110
f 107 110 109
f 108 112 110
f 108 110 111
f 113 116 117
f 113 117 119
f 114 118 117
f 114 117 116
f 115 119 117
f 115 117 118
f 120 123 124
f 120 124 126
f 121 125 124
f 121 124 123
f 122 126 124
f 122 124 125
f 127 130 131
f 127 131 133
f 128 132 131
f 128 131 130
f 129 133 131
f 129 131 132
f 134 137 138
f 134 138 140
f 135 139 138
f 135 138 137
f 136 140 138
f 136 138 139
f 141 144 145
f 141 145 147
f 142 146 145
f 142 145 144
f 143 147 145
f 143 145 146
f 148 151 152
f 148 152 154
f 149 153 152
f 149 152 151
f 150 154 152
f 150 152 153
f 155 158 159
f 155 159 161
f 156 160 159
f 156 159 158
f 157 161 159
f 157 159 160
f 162 165 166
f 162 166 168
f 163 167 166
f 163 166 165
f 164 168 166
f 164 166 167
f 169 172 173
f 169 173 175
f 170 174 173
f 170 173 172
f 171 175 173
f 171 173 174
f 176 179 180
f 176 180 182
f 177 181 180
f 177 180 179
f 178 182 180
f 178 180 181
f 183 186 187
f 183 187 189
f 184 188 187
f 184 187 186
f 185 189 187
f 185 187 188
f 190 193 194
f 190 194 196
f 191 195 194
f 191 194 193
f 192 196 194
f 192 194 195
f 197 200 201
f 197 201 203
f 198 202 201
f 198 201 200
f 199 203 201
f 199 201 202
f 204 207 208
f 204 208 210
f 205 209 208
f 205 208 207
f 206 210 208
f 206 208 209
f 211 214 215
f 211 215 217
f 212 216 215
f 212 215 214
f 213 217 215
f 213 215 216
f 218 221 222
f 218 222 224
f 219 223 222
f 219 222 221
f 220 224 222
f 220 222 223
f 225 228 229
f 225 229 231
f 226 230 229
f 226 229 228
f 227 231 229
f 227 229 230
f 232 235 236
f 232 236 238
f 233 237 236
f 233 236 235
f 234 238 236
f 234 236 237
f 239 242 243
f 239 243 245
f 240 244 243
f 240 243 242
f 241 245 243
f 241 243 244
f 246 249 250
f 246 250 252
f 247 251 250
f 247 250 249
f 248 252 250
f 248 250 251
f 253 256 257
f 253 257 259
f 254 258 257
f 254 257 256
f 255 259 257
f 255 257 258
f 260 263 264
f 260 264 266
f 261 265 264
f 261 264 263
f 262 266 264
f 262 264 265
f 267 270 271
f 267 271 273
f 268 272 271
f 268 271 270
f 269 273 271
f 269 271 272
f 274 277 278
f 274 278 280
f 275 279 278
f 275 278 277
f 276 280 278
f 276 278 279
f 15 1 7
f 15 7 18
f 18 7 3
f 18 3 16
f 2 8 14
f 2 14 6
f 6 14 10
f 6 10 3
f 9 22 28
f 9 28 13
f 13 28 24
f 13 24 10
f 23 17 20
f 23 20 27
f 27 20 16
f 27 16 24
f 43 15 21
f 43 21 46
f 46 21 17
f 46 17 44
f 22 50 56
f 22 56 25
f 25 56 52
f 25 52 23
f 51 45 48
f 51 48 55
f 55 48 44
f 55 44 52
f 29 43 49
f 29 49 32
f 32 49 45
f 32 45 30
f 50 36 42
f 50 42 53
f 53 42 38
f 53 38 51
f 37 31 34
f 37 34 41
f 41 34 30
f 41 30 38
f 1 29 35
f 1 35 4
f 4 35 31
f 4 31 2
f 36 9 11
f 36 11 39
f 39 11 8
f 39 8 37
f 71 57 63
f 71 63 74
f 74 63 59
f 74 59 72
f 58 64 70
f 58 70 62
f 62 70 66
f 62 66 59
f 65 78 84
f 65 84 69
f 69 84 80
f 69 80 66
f 79 73 76
f 79 76 83
f 83 76 72
f 83 72 80
f 99 71 77
f 99 77 102
f 102 77 73
f 102 73 100
f 78 106 112
f 78 112 81
f 81 112 108
f 81 108 79
f 107 101 104
f 107 104 111
f 111 104 100
f 111 100 108
f 85 99 105
f 85 105 88
f 88 105 101
f 88 101 86
f 106 92 98
f 106 98 109
f 109 98 94
f 109 94 107
f 93 87 90
f 93 90 97
f 97 90 86
f 97 86 94
f 57 85 91
f 57 91 60
f 60 91 87
f 60 87 58
f 92 65 67
f 92 67 95
f 95 67 64
f 95 64 93
f 127 113 119
f 127 119 130
f 130 119 115
f 130 115 128
f 114 120 126
f 114 126 118
f 118 126 122
f 118 122 115
f 121 134 140
f 121 140 125
f 125 140 136
f 125 136 122
f 135 129 132
f 135 132 139
f 139 132 128
f 139 128 136
f 155 127 133
f 155 133 158
f 158 133 129
f 158 129 156
f 134 162 168
f 134 168 137
f 137 168 164
f 137 164 135
f 163 157 160
f 163 160 167
f 167 160 156
f 167 156 164
f 141 155 161
f 141 161 144
f 144 161 157
f 144 157 142
f 162 148 154
f 162 154 165
f 165 154 150
f 165 150 163
f 149 143 146
f 149 146 153
f 153 146 142
f 153 142 150
f 113 141 147
f 113 147 116
f 116 147 143
f 116 143 114
f 148 121 123
f 148 123 151
f 151 123 120
f 151 120 149
f 183 169 175
f 183 175 186
f 186 175 171
f 186 171 184
f 170 176 182
f 170 182 174
f 174 182 178
f 174 178 171
f 177 190 196
f 177 196 181
f 181 196 192
f 181 192 178
f 191 185 188
f 191 188 195
f 195 188 184
f 195 184 192
f 211 183 189
f 211 189 214
f 214 189 185
f 214 185 212
f 190 218 224
f 190 224 193
f 193 224 220
f 193 220 191
f 219 213 216
f 219 216 223
f 223 216 212
f 223 212 220
f 197 211 217
f 197 217 200
f 200 217 213
f 200 213 198
f 218 204 210
f 218 210 221
f 221 210 206
f 221 206 219
f 205 199 202
f 205 202 209
f 209 202 198
f 209 198 206
f 169 197 203
f 169 203 172
f 172 203 199
f 172 199 170
f 204 177 179
f 204 179 207
f 207 179 176
f 207 176 205
f 239 225 231
f 239 231 242
f 242 231 227
f 242 227 240
f 226 232 238
f 226 238 230
f 230 238 234
f 230 234 227
f 233 246 252
f 233 252 237
f 237 252 248
f 237 248 234
f 247 241 244
f 247 244 251
f 251 244 240
f 251 240 248
f 267 239 245
f 267 245 270
f 270 245 241
f 270 241 268
f 246 274 280
f 246 280 249
f 249 280 276
f 249 276 247
f 275 269 272
f 275 272 279
f 279 272 268
f 279 268 276
f 253 267 273
f 253 273 256
f 256 273 269
f 256 269 254
f 274 260 266
f 274 266 277
f 277 266 262
f 277 262 275
f 261 255 258
f 261 258 265
f 265 258 254
f 265 254 262
f 225 253 259
f 225 259 228
f 228 259 255
f 228 255 226
f 260 233 235
f 260 235 263
f 263 235 232
f 263 232 261
f 15 43 29
f 15 29 1
