mtllib control_button_1_link.mtl
o control_button_1_link
g control_button_1
v 0.0021056 0.00578509 0.0169145
v 0.00395723 0.0108724 0.0137888
v 0.00533157 0.0146484 0.009
v 0.00606284 0.0166575 0.00312567
v 0.00606284 0.0166575 -0.00312567
v 0.00533157 0.0146484 -0.009
v 0.00395723 0.0108724 -0.0137888
v 0.0021056 0.00578509 -0.0169145
v 0.00395723 0.00471605 0.0169145
v 0.00743717 0.00886327 0.0137888
v 0.0100201 0.0119414 0.009
v 0.0113944 0.0135793 0.00312567
v 0.0113944 0.0135793 -0.00312567
v 0.0100201 0.0119414 -0.009
v 0.00743717 0.00886327 -0.0137888
v 0.00395723 0.00471605 -0.0169145
v 0.00533157 0.00307819 0.0169145
v 0.0100201 0.00578509 0.0137888
v 0.0135 0.00779423 0.009
v 0.0153516 0.00886327 0.00312567
v 0.0153516 0.00886327 -0.00312567
v 0.0135 0.00779423 -0.009
v 0.0100201 0.00578509 -0.0137888
v 0.00533157 0.00307819 -0.0169145
v 0 0 0.018
v 0.00606284 0.00106904 0.0169145
v 0.0113944 0.00200914 0.0137888
v 0.0153516 0.00270691 0.009
v 0.0174572 0.00307819 0.00312567
v 0.0174572 0.00307819 -0.00312567
v 0.0153516 0.00270691 -0.009
v 0.0113944 0.00200914 -0.0137888
v 0.00606284 0.00106904 -0.0169145
v 0.00606284 -0.00106904 0.0169145
v 0.0113944 -0.00200914 0.0137888
v 0.0153516 -0.00270691 0.009
v 0.0174572 -0.00307818 0.00312567
v 0.0174572 -0.00307818 -0.00312567
v 0.0153516 -0.00270691 -0.009
v 0.0113944 -0.00200914 -0.0137888
v 0.00606284 -0.00106904 -0.0169145
v 0.00533157 -0.00307818 0.0169145
v 0.0100201 -0.00578509 0.0137888
v 0.0135 -0.00779422 0.009
v 0.0153516 -0.00886326 0.00312567
v 0.0153516 -0.00886326 -0.00312567
v 0.0135 -0.00779422 -0.009
v 0.0100201 -0.00578509 -0.0137888
v 0.00533157 -0.00307818 -0.0169145
v 0.00395723 -0.00471605 0.0169145
v 0.00743717 -0.00886327 0.0137888
v 0.0100201 -0.0119414 0.009
v 0.0113944 -0.0135793 0.00312567
v 0.0113944 -0.0135793 -0.00312567
v 0.0100201 -0.0119414 -0.009
v 0.00743717 -0.00886327 -0.0137888
v 0.00395723 -0.00471605 -0.0169145
v 0.0021056 -0.00578509 0.0169145
v 0.00395723 -0.0108724 0.0137888
v 0.00533157 -0.0146484 0.009
v 0.00606284 -0.0166575 0.00312567
v 0.00606284 -0.0166575 -0.00312567
v 0.00533157 -0.0146484 -0.009
v 0.00395723 -0.0108724 -0.0137888
v 0.0021056 -0.00578509 -0.0169145
v 0 -0.00615636 0.0169145
v 0 -0.0115702 0.0137888
v 0 -0.0155885 0.009
v 0 -0.0177265 0.00312567
v 0 -0.0177265 -0.00312567
v 0 -0.0155885 -0.009
v 0 -0.0115702 -0.0137888
v 0 -0.00615636 -0.0169145
v -0.00210559 -0.00578509 0.0169145
v -0.00395723 -0.0108724 0.0137888
v -0.00533156 -0.0146484 0.009
v -0.00606284 -0.0166575 0.00312567
v -0.00606284 -0.0166575 -0.00312567
v -0.00533156 -0.0146484 -0.009
v -0.00395723 -0.0108724 -0.0137888
v -0.00210559 -0.00578509 -0.0169145
v 0 0 -0.018
v -0.00395723 -0.00471605 0.0169145
v -0.00743717 -0.00886327 0.0137888
v -0.0100201 -0.0119415 0.009
v -0.0113944 -0.0135793 0.00312567
v -0.0113944 -0.0135793 -0.00312567
v -0.0100201 -0.0119415 -0.009
v -0.00743717 -0.00886327 -0.0137888
v -0.00395723 -0.00471605 -0.0169145
v -0.00533156 -0.00307819 0.0169145
v -0.0100201 -0.00578509 0.0137888
v -0.0135 -0.00779423 0.009
v -0.0153516 -0.00886328 0.00312567
v -0.0153516 -0.00886328 -0.00312567
v -0.0135 -0.00779423 -0.009
v -0.0100201 -0.00578509 -0.0137888
v -0.00533156 -0.00307819 -0.0169145
v -0.00606284 -0.00106904 0.0169145
v -0.0113944 -0.00200914 0.0137888
v -0.0153516 -0.00270691 0.009
v -0.0174572 -0.00307819 0.00312567
v -0.0174572 -0.00307819 -0.00312567
v -0.0153516 -0.00270691 -0.009
v -0.0113944 -0.00200914 -0.0137888
v -0.00606284 -0.00106904 -0.0169145
v -0.00606284 0.00106904 0.0169145
v -0.0113944 0.00200914 0.0137888
v -0.0153516 0.0027069 0.009
v -0.0174572 0.00307818 0.00312567
v -0.0174572 0.00307818 -0.00312567
v -0.0153516 0.0027069 -0.009
v -0.0113944 0.00200914 -0.0137888
v -0.00606284 0.00106904 -0.0169145
v -0.00533156 0.00307818 0.0169145
v -0.0100201 0.00578509 0.0137888
v -0.0135 0.00779422 0.009
v -0.0153516 0.00886326 0.00312567
v -0.0153516 0.00886326 -0.00312567
v -0.0135 0.00779422 -0.009
v -0.0100201 0.00578509 -0.0137888
v -0.00533156 0.00307818 -0.0169145
v -0.00395724 0.00471605 0.0169145
v -0.00743717 0.00886326 0.0137888
v -0.0100201 0.0119414 0.009
v -0.0113944 0.0135793 0.00312567
v -0.0113944 0.0135793 -0.00312567
v -0.0100201 0.0119414 -0.009
v -0.00743717 0.00886326 -0.0137888
v -0.00395724 0.00471605 -0.0169145
v -0.00210559 0.00578509 0.0169145
v -0.00395724 0.0108724 0.0137888
v -0.00533158 0.0146484 0.009
v -0.00606284 0.0166575 0.00312567
v -0.00606284 0.0166575 -0.00312567
v -0.00533158 0.0146484 -0.009
v -0.00395724 0.0108724 -0.0137888
v -0.00210559 0.00578509 -0.0169145
v 0 0.00615636 0.0169145
v 0 0.0115702 0.0137888
v 0 0.0155885 0.009
v 0 0.0177265 0.00312567
v 0 0.0177265 -0.00312567
v 0 0.0155885 -0.009
v 0 0.0115702 -0.0137888
v 0 0.00615636 -0.0169145
usemtl small_white_buttons_003
f 144 143 5 6
f 141 140 2 3
f 145 144 6 7
f 142 141 3 4
f 139 25 1
f 146 145 7 8
f 143 142 4 5
f 140 139 1 2
f 82 146 8
f 7 6 14 15
f 4 3 11 12
f 1 25 9
f 8 7 15 16
f 5 4 12 13
f 2 1 9 10
f 82 8 16
f 6 5 13 14
f 3 2 10 11
f 13 12 20 21
f 10 9 17 18
f 82 16 24
f 14 13 21 22
f 11 10 18 19
f 15 14 22 23
f 12 11 19 20
f 9 25 17
f 16 15 23 24
f 19 18 27 28
f 23 22 31 32
f 20 19 28 29
f 17 25 26
f 24 23 32 33
f 21 20 29 30
f 18 17 26 27
f 82 24 33
f 22 21 30 31
f 26 25 34
f 33 32 40 41
f 30 29 37 38
f 27 26 34 35
f 82 33 41
f 31 30 38 39
f 28 27 35 36
f 32 31 39 40
f 29 28 36 37
f 39 38 46 47
f 36 35 43 44
f 40 39 47 48
f 37 36 44 45
f 34 25 42
f 41 40 48 49
f 38 37 45 46
f 35 34 42 43
f 82 41 49
f 45 44 52 53
f 42 25 50
f 49 48 56 57
f 46 45 53 54
f 43 42 50 51
f 82 49 57
f 47 46 54 55
f 44 43 51 52
f 48 47 55 56
f 51 50 58 59
f 82 57 65
f 55 54 62 63
f 52 51 59 60
f 56 55 63 64
f 53 52 60 61
f 50 25 58
f 57 56 64 65
f 54 53 61 62
f 64 63 71 72
f 61 60 68 69
f 58 25 66
f 65 64 72 73
f 62 61 69 70
f 59 58 66 67
f 82 65 73
f 63 62 70 71
f 60 59 67 68
f 73 72 80 81
f 70 69 77 78
f 67 66 74 75
f 82 73 81
f 71 70 78 79
f 68 67 75 76
f 72 71 79 80
f 69 68 76 77
f 66 25 74
f 79 78 87 88
f 76 75 84 85
f 80 79 88 89
f 77 76 85 86
f 74 25 83
f 81 80 89 90
f 78 77 86 87
f 75 74 83 84
f 82 81 90
f 86 85 93 94
f 83 25 91
f 90 89 97 98
f 87 86 94 95
f 84 83 91 92
f 82 90 98
f 88 87 95 96
f 85 84 92 93
f 89 88 96 97
f 92 91 99 100
f 82 98 106
f 96 95 103 104
f 93 92 100 101
f 97 96 104 105
f 94 93 101 102
f 91 25 99
f 98 97 105 106
f 95 94 102 103
f 105 104 112 113
f 102 101 109 110
f 99 25 107
f 106 105 113 114
f 103 102 110 111
f 100 99 107 108
f 82 106 114
f 104 103 111 112
f 101 100 108 109
f 111 110 118 119
f 108 107 115 116
f 82 114 122
f 112 111 119 120
f 109 108 116 117
f 113 112 120 121
f 110 109 117 118
f 107 25 115
f 114 113 121 122
f 117 116 124 125
f 121 120 128 129
f 118 117 125 126
f 115 25 123
f 122 121 129 130
f 119 118 126 127
f 116 115 123 124
f 82 122 130
f 120 119 127 128
f 123 25 131
f 130 129 137 138
f 127 126 134 135
f 124 123 131 132
f 82 130 138
f 128 127 135 136
f 125 124 132 133
f 129 128 136 137
f 126 125 133 134
f 82 138 146
f 136 135 143 144
f 133 132 140 141
f 137 136 144 145
f 134 133 141 142
f 131 25 139
f 138 137 145 146
f 135 134 142 143
f 132 131 139 140
