# Exported from Blender scene for document_sleeve_file_holder
mtllib base_link.mtl

o body_lower_sleeve
v 1.2938242 -0.850000024 -0.0225000009
v -1.29999995 -0.849810004 -0.0225000009
v 1.29999995 -0.778741062 0.0225000009
v 1.29999995 -0.769999981 0.0203823522
v -1.29999995 -0.849809051 -0.0224949457
v 1.2930851 -0.850000024 -0.0223803204
v 1.29999995 -0.778380811 0.0206041988
v -1.29980993 -0.850000024 -0.0233099759
v -1.29999995 -0.849810004 -0.0233099759
v -1.29980993 -0.849810004 -0.0234999955
v -1.29990482 -0.849974692 -0.0233099759
v -1.29980993 -0.849974692 -0.0234048609
v -1.29990077 -0.849950016 -0.023400845
v -1.29997456 -0.849810064 -0.0234048609
v -1.29997456 -0.849904954 -0.0233099759
v -1.29994988 -0.849900961 -0.023400845
v -1.29980993 -0.849904954 -0.0234746095
v -1.29990482 -0.849810064 -0.0234746095
v -1.29990077 -0.849900961 -0.0234499499
v -1.29980993 -0.850000024 -0.0225000009
v -1.29999995 -0.849810004 -0.0225000009
v -1.29990494 -0.849974573 -0.0225000009
v -1.29997444 -0.849905014 -0.0225000009
v -1.29999995 -0.849810004 0.0225000009
v -1.29977262 -0.850000024 0.0225000009
v -1.29996943 -0.849905014 0.0225000009
v -1.29988623 -0.849974573 0.0225000009
v -1.29977119 -0.850000024 0.397417694
v -1.29980993 -0.849810004 0.397500008
v -1.29999995 -0.849810004 0.397309989
v -1.29977858 -0.849973857 0.397456795
v -1.29988396 -0.849971473 0.397379696
v -1.29988575 -0.849951625 0.397434533
v -1.29990315 -0.849810004 0.397471845
v -1.29979265 -0.849904895 0.397487342
v -1.29989135 -0.849901795 0.397464156
v -1.29996645 -0.849902511 0.397340715
v -1.29997182 -0.849810004 0.3974033
v -1.29994559 -0.849899769 0.39741835
v -1.29999995 0.849810004 -0.0223099813
v -1.29980993 0.850000024 -0.0223099813
v -1.29980993 0.849810004 -0.0225000009
v -1.29997456 0.849904954 -0.0223099813
v -1.29997456 0.849810064 -0.0224048663
v -1.29994988 0.849900961 -0.0224008504
v -1.29980993 0.849974692 -0.0224048663
v -1.29990482 0.849974692 -0.0223099813
v -1.29990077 0.849950016 -0.0224008504
v -1.29990482 0.849810064 -0.0224746149
v -1.29980993 0.849904954 -0.0224746149
v -1.29990077 0.849900961 -0.0224499553
v -1.29999995 -0.770190001 -0.0233099759
v -1.29980993 -0.769999981 -0.0233099759
v -1.29980993 -0.770190001 -0.0234999955
v -1.29997456 -0.77009511 -0.0233099759
v -1.29997456 -0.770190001 -0.0234048609
v -1.29994988 -0.770099103 -0.023400845
v -1.29980993 -0.770025373 -0.0234048609
v -1.29990482 -0.770025373 -0.0233099759
v -1.29990077 -0.770050049 -0.023400845
v -1.29990482 -0.770190001 -0.0234746095
v -1.29980993 -0.77009511 -0.0234746095
v -1.29990077 -0.770099103 -0.0234499499
v -1.29999995 0.849810004 0.0223099813
v -1.29980993 0.849810004 0.0225000009
v -1.29980993 0.850000024 0.0223099813
v -1.29997456 0.849810064 0.0224048663
v -1.29997456 0.849904954 0.0223099813
v -1.29994988 0.849900961 0.0224008504
v -1.29980993 0.849904954 0.0224746149
v -1.29990482 0.849810064 0.0224746149
v -1.29990077 0.849900961 0.0224499553
v -1.29990482 0.849974692 0.0223099813
v -1.29980993 0.849974692 0.0224048663
v -1.29990077 0.849950016 0.0224008504
v -1.29999995 -0.770190001 0.397309989
v -1.29980993 -0.770190001 0.397500008
v -1.29974341 -0.769999981 0.397407711
v -1.29997182 -0.770190001 0.39740324
v -1.29996288 -0.770097852 0.397335887
v -1.29994202 -0.770100534 0.397415936
v -1.29978108 -0.770095229 0.397485793
v -1.29990315 -0.770190001 0.397471815
v -1.29988539 -0.770098388 0.397462726
v -1.29987037 -0.770028651 0.397371262
v -1.299757 -0.770026445 0.397451669
v -1.2998755 -0.770048618 0.397430539
v 1.29980993 -0.849810004 -0.0234999955
v 1.29999995 -0.849810004 -0.0233099759
v 1.29980993 -0.850000024 -0.0233099759
v 1.29990482 -0.849810064 -0.0234746095
v 1.29980993 -0.849904954 -0.0234746095
v 1.29990077 -0.849900961 -0.0234499499
v 1.29997456 -0.849904954 -0.0233099759
v 1.29997456 -0.849810064 -0.0234048609
v 1.29994988 -0.849900961 -0.023400845
v 1.29980993 -0.849974692 -0.0234048609
v 1.29990482 -0.849974692 -0.0233099759
v 1.29990077 -0.849950016 -0.023400845
v 1.29999995 -0.849810004 -0.0225000009
v 1.29980993 -0.850000024 -0.0225000009
v 1.29997444 -0.849905014 -0.0225000009
v 1.29990494 -0.849974573 -0.0225000009
v 1.29980993 -0.849810004 0.397500008
v 1.29980993 -0.850000024 0.397413552
v 1.29999995 -0.849810004 0.397309989
v 1.29980993 -0.849904954 0.39750737
v 1.29990482 -0.849810064 0.397455662
v 1.29990077 -0.849900961 0.39746359
v 1.29990482 -0.849974692 0.397380769
v 1.29980993 -0.849974692 0.39747566
v 1.29990077 -0.849950016 0.397441238
v 1.29997456 -0.849810064 0.397385925
v 1.29997456 -0.849904954 0.397342741
v 1.29994988 -0.849900961 0.397414476
v 1.29980993 -0.850000024 0.0225000009
v 1.29999995 -0.849810004 0.0225000009
v 1.29990494 -0.849974573 0.0225000009
v 1.29997444 -0.849905014 0.0225000009
v 1.29980993 -0.770190001 -0.0234999955
v 1.29980993 -0.769999981 -0.0233099759
v 1.29999995 -0.770190001 -0.0233099759
v 1.29980993 -0.77009511 -0.0234746095
v 1.29990482 -0.770190001 -0.0234746095
v 1.29990077 -0.770099103 -0.0234499499
v 1.29990482 -0.770025373 -0.0233099759
v 1.29980993 -0.770025373 -0.0234048609
v 1.29990077 -0.770050049 -0.023400845
v 1.29997456 -0.770190001 -0.0234048609
v 1.29997456 -0.77009511 -0.0233099759
v 1.29994988 -0.770099103 -0.023400845
v 1.29980993 0.849810004 -0.0225000009
v 1.29980993 0.850000024 -0.0223099813
v 1.29999995 0.849810004 -0.0223099813
v 1.29980993 0.849904954 -0.0224746149
v 1.29990482 0.849810064 -0.0224746149
v 1.29990077 0.849900961 -0.0224499553
v 1.29990482 0.849974692 -0.0223099813
v 1.29980993 0.849974692 -0.0224048663
v 1.29990077 0.849950016 -0.0224008504
v 1.29997456 0.849810064 -0.0224048663
v 1.29997456 0.849904954 -0.0223099813
v 1.29994988 0.849900961 -0.0224008504
v 1.29980993 -0.770190001 0.397500008
v 1.29999995 -0.770190001 0.397309989
v 1.29980993 -0.769999981 0.397403955
v 1.29990315 -0.770190001 0.397471845
v 1.29980993 -0.770095229 0.397485316
v 1.29990005 -0.770098329 0.397462636
v 1.29997182 -0.770096779 0.39734
v 1.29997182 -0.770190001 0.3974033
v 1.2999506 -0.77009964 0.397417247
v 1.29980993 -0.770026505 0.397449851
v 1.29990315 -0.770028114 0.397373945
v 1.29990041 -0.77004832 0.397431433
v 1.29980993 0.849810004 0.0225000009
v 1.29999995 0.849810004 0.0223099813
v 1.29980993 0.850000024 0.0223099813
v 1.29990482 0.849810064 0.0224746149
v 1.29980993 0.849904954 0.0224746149
v 1.29990077 0.849900961 0.0224499553
v 1.29997456 0.849904954 0.0223099813
v 1.29997456 0.849810064 0.0224048663
v 1.29994988 0.849900961 0.0224008504
v 1.29980993 0.849974692 0.0224048663
v 1.29990482 0.849974692 0.0223099813
v 1.29990077 0.849950016 0.0224008504
v 1.29980993 -0.769999981 -0.0226900205
v 1.29980993 -0.769809961 -0.0225000009
v 1.29999995 -0.770190001 -0.0223099813
v 1.29980993 -0.769971728 -0.0225967616
v 1.2999028 -0.770027876 -0.0225692429
v 1.29989994 -0.769999862 -0.0225317553
v 1.2999028 -0.76993078 -0.0224720836
v 1.29980993 -0.769903243 -0.0225281958
v 1.29989994 -0.769968271 -0.0225001685
v 1.29997206 -0.770097136 -0.0224307906
v 1.29997206 -0.770069242 -0.0224028714
v 1.29995108 -0.770031869 -0.0224681459
v -1.29980993 -0.769809961 -0.0225000009
v -1.29980993 -0.769999981 -0.0226900205
v -1.29999995 -0.770190001 -0.0223099813
v -1.29981005 -0.769903183 -0.0225281958
v -1.2999028 -0.76993084 -0.0224720668
v -1.29989982 -0.769968271 -0.0225001611
v -1.2999028 -0.770027876 -0.0225692429
v -1.29981005 -0.769971728 -0.0225967616
v -1.29989982 -0.769999862 -0.0225317571
v -1.29997206 -0.770069242 -0.0224028714
v -1.29997206 -0.770097077 -0.0224307887
v -1.29995084 -0.77003181 -0.0224681459
v -1.29999995 -0.770190001 0.0223099813
v -1.29974353 -0.769999981 0.0225688964
v -1.29980993 -0.769809961 0.0225000009
v -1.299963 -0.77009809 0.0223785397
v -1.29997206 -0.770069242 0.0224028714
v -1.29994214 -0.770032167 0.0224413369
v -1.2997551 -0.769974113 0.0225363579
v -1.29987001 -0.770028591 0.022472579
v -1.2998749 -0.770001709 0.022484269
v -1.2999028 -0.76993078 0.0224720836
v -1.29977942 -0.769904971 0.0225106552
v -1.29988432 -0.769968867 0.0224837661
v 1.29980993 -0.769809961 0.0225000009
v 1.29980993 -0.769999981 0.0225735549
v 1.29999995 -0.770190001 0.0223099813
v 1.29981005 -0.769904971 0.0225113686
v 1.2999028 -0.76993084 0.0224720668
v 1.2998997 -0.769968927 0.0224853419
v 1.29990292 -0.770027995 0.0224896669
v 1.29981005 -0.769973993 0.0225387476
v 1.29990029 -0.770001233 0.0224913899
v 1.29997206 -0.770069242 0.0224028714
v 1.29997194 -0.770097017 0.0223938841
v 1.29995084 -0.77003181 0.0224473216
v -0.844398141 -0.770190001 0.170247868
v -0.844587445 -0.769999981 0.17022942
v -0.844423592 -0.770094991 0.170245424
v -0.844492912 -0.770025432 0.170238674
v -0.845190287 -0.769999981 0.182500005
v -0.845000029 -0.770190001 0.182500005
v -0.845095217 -0.770025432 0.182500005
v -0.845025599 -0.770094991 0.182500005
v -0.842784762 -0.769999981 0.206923455
v -0.8425982 -0.770190001 0.206886292
v -0.842691541 -0.770025432 0.206904888
v -0.842623234 -0.770094991 0.206891298
v -0.842784286 -0.769999981 0.1580735
v -0.8425982 -0.770190001 0.158113718
v -0.842691243 -0.770025432 0.158093035
v -0.842623115 -0.770094991 0.158107758
v -0.844587445 -0.769999981 0.194770604
v -0.844398141 -0.770190001 0.194752157
v -0.844492912 -0.770025432 0.194761351
v -0.844423592 -0.770094991 0.194754601
v -0.83961755 -0.770190001 0.146214426
v -0.839801371 -0.769999981 0.146165028
v -0.839642584 -0.770094991 0.146208853
v -0.839709878 -0.770025432 0.146190763
v -0.830405712 -0.769999981 0.241518036
v -0.83024019 -0.770190001 0.241424605
v -0.830322742 -0.770025432 0.241472095
v -0.830262125 -0.770094991 0.241437897
v -0.835484982 -0.770190001 0.13466458
v -0.835659444 -0.769999981 0.134589016
v -0.835508287 -0.770094991 0.134653896
v -0.835572124 -0.770025432 0.134626225
v -0.835484982 -0.770190001 0.230335444
v -0.835664213 -0.769999981 0.230399936
v -0.835509777 -0.770094991 0.230342612
v -0.835575342 -0.770025432 0.23036623
v -0.83024019 -0.770190001 0.123575419
v -0.830408096 -0.769999981 0.12348596
v -0.83026278 -0.770094991 0.123563416
v -0.830324292 -0.770025432 0.123530664
v -0.83979851 -0.769999981 0.218845084
v -0.83961755 -0.770190001 0.218785599
v -0.839707851 -0.770025432 0.218816131
v -0.839641631 -0.770094991 0.218794361
v -0.824091673 -0.769999981 0.112947688
v -0.823933721 -0.770190001 0.113053724
v -0.824012756 -0.770025432 0.113000602
v -0.82395494 -0.770094991 0.113039397
v -0.808388352 -0.770190001 0.0941116586
v -0.80852282 -0.769999981 0.0939770564
v -0.808406413 -0.770094991 0.0940935463
v -0.808455646 -0.770025432 0.094044283
v -0.816773534 -0.769999981 0.103080362
v -0.81662631 -0.770190001 0.103200838
v -0.816700041 -0.770025432 0.103140578
v -0.816646099 -0.770094991 0.103184685
v -0.81662631 -0.770190001 0.261799157
v -0.816773474 -0.769999981 0.261919707
v -0.816646099 -0.770094991 0.26181531
v -0.816699922 -0.770025432 0.261859417
v -0.799299181 -0.770190001 0.279126316
v -0.79941994 -0.769999981 0.279273331
v -0.799315393 -0.770094991 0.279146075
v -0.79935962 -0.770025432 0.279199898
v -0.789551854 -0.769999981 0.286591947
v -0.789446294 -0.770190001 0.286433697
v -0.789499044 -0.770025432 0.286512882
v -0.789460421 -0.770094991 0.286454946
v -0.767835438 -0.770190001 0.297984958
v -0.767908335 -0.769999981 0.298160672
v -0.767845273 -0.770094991 0.298008561
v -0.767871976 -0.770025432 0.298072875
v -0.756340683 -0.769999981 0.302299649
v -0.756285608 -0.770190001 0.302117556
v -0.756313145 -0.770025432 0.302208692
v -0.756292939 -0.770094991 0.302142024
v -0.779014349 -0.769999981 0.292907953
v -0.778924644 -0.770190001 0.292740166
v -0.778969526 -0.770025432 0.292824149
v -0.778936744 -0.770094991 0.292762756
v -0.80852288 -0.769999981 0.271022886
v -0.808388352 -0.770190001 0.270888358
v -0.808455646 -0.770025432 0.270955652
v -0.808406353 -0.770094991 0.270906419
v -0.824091673 -0.769999981 0.252052277
v -0.823933721 -0.770190001 0.25194627
v -0.824012756 -0.770025432 0.251999378
v -0.82395494 -0.770094991 0.251960576
v -0.744423509 -0.769999981 0.305284768
v -0.744386315 -0.770190001 0.305098176
v -0.744404912 -0.770025432 0.305191517
v -0.744391322 -0.770094991 0.30512321
v -0.732270956 -0.769999981 0.307087392
v -0.732252181 -0.770190001 0.306898087
v -0.732261598 -0.770025432 0.306992829
v -0.732254744 -0.770094991 0.306923509
v -0.720000029 -0.769999981 0.307690233
v -0.720000029 -0.770190001 0.307500005
v -0.720000029 -0.770025432 0.307595223
v -0.720000029 -0.770094991 0.307525605
v -0.695613742 -0.770190001 0.305098176
v -0.695576549 -0.769999981 0.305284768
v -0.695608735 -0.770094991 0.30512321
v -0.695595145 -0.770025432 0.305191517
v -0.683659375 -0.769999981 0.302299649
v -0.683714449 -0.770190001 0.302117556
v -0.683686912 -0.770025432 0.302208692
v -0.683707118 -0.770094991 0.302142024
v -0.707729101 -0.769999981 0.307087392
v -0.707747877 -0.770190001 0.306898087
v -0.707738459 -0.770025432 0.306992829
v -0.707745314 -0.770094991 0.306923509
v -0.661075413 -0.770190001 0.292740166
v -0.660985708 -0.769999981 0.292907953
v -0.661063313 -0.770094991 0.292762756
v -0.661030531 -0.770025432 0.292824149
v -0.650448203 -0.769999981 0.286591947
v -0.650553763 -0.770190001 0.286433697
v -0.650501013 -0.770025432 0.286512882
v -0.650539637 -0.770094991 0.286454946
v -0.631477177 -0.769999981 0.271022886
v -0.631611705 -0.770190001 0.270888358
v -0.631544411 -0.770025432 0.270955652
v -0.631593704 -0.770094991 0.270906419
v -0.623226583 -0.769999981 0.261919707
v -0.623373747 -0.770190001 0.261799157
v -0.623300135 -0.770025432 0.261859417
v -0.623353958 -0.770094991 0.26181531
v -0.640580118 -0.769999981 0.279273331
v -0.640700877 -0.770190001 0.279126316
v -0.640640438 -0.770025432 0.279199898
v -0.640684664 -0.770094991 0.279146075
v -0.672091722 -0.769999981 0.298160672
v -0.672164619 -0.770190001 0.297984958
v -0.672128081 -0.770025432 0.298072875
v -0.672154784 -0.770094991 0.298008561
v -0.609591961 -0.769999981 0.12348596
v -0.609759867 -0.770190001 0.123575419
v -0.609675765 -0.770025432 0.123530664
v -0.609737277 -0.770094991 0.123563416
v -0.609759867 -0.770190001 0.241424605
v -0.609591961 -0.769999981 0.241514057
v -0.609737277 -0.770094991 0.241436601
v -0.609675765 -0.770025432 0.241469353
v -0.604515076 -0.770190001 0.13466458
v -0.604339242 -0.769999981 0.134591922
v -0.604491413 -0.770094991 0.134654835
v -0.604427099 -0.770025432 0.134628266
v -0.604339242 -0.769999981 0.230408102
v -0.604515076 -0.770190001 0.230335444
v -0.604427099 -0.770025432 0.230371773
v -0.604491413 -0.770094991 0.23034519
v -0.597401857 -0.770190001 0.158113718
v -0.597215295 -0.769999981 0.158076555
v -0.597376823 -0.770094991 0.158108711
v -0.597308517 -0.770025432 0.158095121
v -0.597401857 -0.770190001 0.206886292
v -0.597215295 -0.769999981 0.206923455
v -0.597376823 -0.770094991 0.206891298
v -0.597308517 -0.770025432 0.206904888
v -0.595000029 -0.770190001 0.182500005
v -0.594809771 -0.769999981 0.182500005
v -0.594974458 -0.770094991 0.182500005
v -0.59490484 -0.770025432 0.182500005
v -0.595412612 -0.769999981 0.17022942
v -0.595601916 -0.770190001 0.170247868
v -0.595507145 -0.770025432 0.170238674
v -0.595576465 -0.770094991 0.170245424
v -0.595412612 -0.769999981 0.194770604
v -0.595601916 -0.770190001 0.194752157
v -0.595507145 -0.770025432 0.194761351
v -0.595576465 -0.770094991 0.194754601
v -0.600200593 -0.769999981 0.14615877
v -0.600382507 -0.770190001 0.146214426
v -0.600291491 -0.770025432 0.146186501
v -0.600358069 -0.770094991 0.146206856
v -0.600382507 -0.770190001 0.218785599
v -0.600200593 -0.769999981 0.218841255
v -0.600358069 -0.770094991 0.218793154
v -0.600291491 -0.770025432 0.218813539
v -0.615908384 -0.769999981 0.252052277
v -0.616066337 -0.770190001 0.25194627
v -0.615987301 -0.770025432 0.251999378
v -0.616045117 -0.770094991 0.251960576
v -0.799299181 -0.770190001 0.0858737007
v -0.79941994 -0.769999981 0.0857266709
v -0.799315393 -0.770094991 0.0858539641
v -0.79935962 -0.770025432 0.0858001262
v -0.779014349 -0.769999981 0.0720920786
v -0.778924644 -0.770190001 0.0722598508
v -0.778969526 -0.770025432 0.0721758753
v -0.778936744 -0.770094991 0.072237283
v -0.767835438 -0.770190001 0.0670150667
v -0.767908216 -0.769999981 0.0668392926
v -0.767845273 -0.770094991 0.0669914111
v -0.767871857 -0.770025432 0.0669270679
v -0.789551973 -0.769999981 0.0784081146
v -0.789446294 -0.770190001 0.0785663053
v -0.789499164 -0.770025432 0.0784871131
v -0.78946054 -0.770094991 0.078545019
v -0.744386315 -0.770190001 0.0599018484
v -0.744423449 -0.769999981 0.0597152561
v -0.744391322 -0.770094991 0.0598767549
v -0.744404912 -0.770025432 0.0598084554
v -0.756340742 -0.769999981 0.0627003759
v -0.756285608 -0.770190001 0.0628824607
v -0.756313205 -0.770025432 0.0627913252
v -0.756292939 -0.770094991 0.0628579855
v -0.707747877 -0.770190001 0.0581019148
v -0.70772922 -0.769999981 0.0579125844
v -0.707745373 -0.770094991 0.0580764562
v -0.707738519 -0.770025432 0.0580071583
v -0.720000029 -0.769999981 0.0573097542
v -0.720000029 -0.770190001 0.0575000048
v -0.720000029 -0.770025432 0.0574047975
v -0.720000029 -0.770094991 0.0574744344
v -0.732270837 -0.769999981 0.0579125844
v -0.732252181 -0.770190001 0.0581019148
v -0.732261539 -0.770025432 0.0580071583
v -0.732254684 -0.770094991 0.0580764562
v -0.683659315 -0.769999981 0.0627003759
v -0.683714449 -0.770190001 0.0628824607
v -0.683686852 -0.770025432 0.0627913326
v -0.683707058 -0.770094991 0.0628579706
v -0.650553763 -0.770190001 0.0785663053
v -0.650448084 -0.769999981 0.0784081146
v -0.650539517 -0.770094991 0.078545019
v -0.650500894 -0.770025432 0.0784871131
v -0.660985708 -0.769999981 0.0720920786
v -0.661075413 -0.770190001 0.0722598508
v -0.661030531 -0.770025432 0.0721758753
v -0.661063313 -0.770094991 0.072237283
v -0.672091842 -0.769999981 0.0668392926
v -0.672164619 -0.770190001 0.0670150667
v -0.672128201 -0.770025432 0.0669270754
v -0.672154844 -0.770094991 0.0669914186
v -0.631611705 -0.770190001 0.0941116586
v -0.631477237 -0.769999981 0.0939770564
v -0.631593645 -0.770094991 0.0940935463
v -0.631544411 -0.770025432 0.094044283
v -0.615908384 -0.769999981 0.112947688
v -0.616066337 -0.770190001 0.113053724
v -0.615987301 -0.770025432 0.113000602
v -0.616045117 -0.770094991 0.113039397
v -0.640580118 -0.769999981 0.0857266709
v -0.640700877 -0.770190001 0.0858737007
v -0.640640438 -0.770025432 0.0858001262
v -0.640684664 -0.770094991 0.0858539641
v -0.623373747 -0.770190001 0.103200838
v -0.623226523 -0.769999981 0.103080362
v -0.623353958 -0.770094991 0.103184685
v -0.623300016 -0.770025432 0.103140578
v -0.695576608 -0.769999981 0.0597152561
v -0.695613742 -0.770190001 0.0599018484
v -0.695595145 -0.770025432 0.0598084554
v -0.695608735 -0.770094991 0.0598767549
v -0.845190287 -0.850000024 0.182500005
v -0.845000029 -0.849810004 0.182500005
v -0.845095217 -0.849974573 0.182500005
v -0.845025599 -0.849905014 0.182500005
v -0.844398141 -0.849810004 0.170247853
v -0.844587445 -0.850000024 0.170229405
v -0.844423592 -0.849905014 0.170245409
v -0.844492912 -0.849974573 0.170238659
v -0.844398141 -0.849810004 0.194752142
v -0.844587445 -0.850000024 0.194770589
v -0.844423592 -0.849905014 0.194754586
v -0.844492912 -0.849974573 0.194761336
v -0.839801371 -0.850000024 0.146165013
v -0.83961755 -0.849810004 0.146214411
v -0.839709878 -0.849974573 0.146190763
v -0.839642584 -0.849905014 0.146208838
v -0.842784762 -0.850000024 0.206923455
v -0.8425982 -0.849810004 0.206886292
v -0.842691541 -0.849974573 0.206904888
v -0.842623234 -0.849905014 0.206891298
v -0.8425982 -0.849810004 0.158113718
v -0.842784286 -0.850000024 0.1580735
v -0.842623115 -0.849905014 0.158107758
v -0.842691243 -0.849974573 0.158093035
v -0.83979851 -0.850000024 0.218845069
v -0.83961755 -0.849810004 0.218785584
v -0.839707851 -0.849974573 0.218816131
v -0.839641631 -0.849905014 0.218794346
v -0.830408096 -0.850000024 0.123485945
v -0.83024019 -0.849810004 0.123575404
v -0.830324292 -0.849974573 0.123530649
v -0.83026278 -0.849905014 0.123563401
v -0.835664213 -0.850000024 0.230399922
v -0.835484982 -0.849810004 0.230335429
v -0.835575342 -0.849974573 0.2303662
v -0.835509777 -0.849905014 0.230342597
v -0.816773534 -0.850000024 0.103080362
v -0.81662631 -0.849810004 0.103200838
v -0.816700041 -0.849974573 0.103140578
v -0.816646099 -0.849905014 0.103184685
v -0.824091673 -0.850000024 0.252052277
v -0.823933721 -0.849810004 0.25194627
v -0.824012756 -0.849974573 0.251999378
v -0.82395494 -0.849905014 0.251960576
v -0.824091673 -0.850000024 0.112947688
v -0.823933721 -0.849810004 0.113053724
v -0.824012756 -0.849974573 0.113000602
v -0.82395494 -0.849905014 0.113039397
v -0.830405712 -0.850000024 0.241518021
v -0.83024019 -0.849810004 0.24142459
v -0.830322742 -0.849974573 0.24147208
v -0.830262125 -0.849905014 0.241437882
v -0.835659444 -0.850000024 0.134589002
v -0.835484982 -0.849810004 0.134664565
v -0.835572124 -0.849974573 0.13462621
v -0.835508287 -0.849905014 0.134653866
v -0.81662631 -0.849810004 0.261799157
v -0.816773474 -0.850000024 0.261919707
v -0.816646099 -0.849905014 0.26181531
v -0.816699922 -0.849974573 0.261859417
v -0.79941994 -0.850000024 0.0857266709
v -0.799299181 -0.849810004 0.0858737007
v -0.79935962 -0.849974573 0.0858001262
v -0.799315393 -0.849905014 0.0858539641
v -0.80852288 -0.850000024 0.271022886
v -0.808388352 -0.849810004 0.270888358
v -0.808455646 -0.849974573 0.270955652
v -0.808406353 -0.849905014 0.270906419
v -0.779014349 -0.850000024 0.0720920786
v -0.778924644 -0.849810004 0.0722598508
v -0.778969526 -0.849974573 0.0721758753
v -0.778936744 -0.849905014 0.072237283
v -0.789551854 -0.850000024 0.286591947
v -0.789446294 -0.849810004 0.286433697
v -0.789499044 -0.849974573 0.286512882
v -0.789460421 -0.849905014 0.286454946
v -0.789551973 -0.850000024 0.0784081146
v -0.789446294 -0.849810004 0.0785663053
v -0.789499164 -0.849974573 0.0784871131
v -0.78946054 -0.849905014 0.078545019
v -0.79941994 -0.850000024 0.279273331
v -0.799299181 -0.849810004 0.279126316
v -0.79935962 -0.849974573 0.279199898
v -0.799315393 -0.849905014 0.279146075
v -0.756340742 -0.850000024 0.0627003759
v -0.756285608 -0.849810004 0.0628824607
v -0.756313205 -0.849974573 0.0627913326
v -0.756292999 -0.849905014 0.0628579706
v -0.767908335 -0.850000024 0.298160672
v -0.767835438 -0.849810004 0.297984958
v -0.767871976 -0.849974573 0.298072875
v -0.767845273 -0.849905014 0.298008561
v -0.732270956 -0.850000024 0.307087392
v -0.732252181 -0.849810004 0.306898087
v -0.732261598 -0.849974573 0.306992829
v -0.732254744 -0.849905014 0.306923509
v -0.732252181 -0.849810004 0.0581019148
v -0.732270837 -0.850000024 0.0579125844
v -0.732254684 -0.849905014 0.0580764562
v -0.732261539 -0.849974573 0.0580071583
v -0.744423509 -0.850000024 0.305284768
v -0.744386315 -0.849810004 0.305098176
v -0.744404912 -0.849974573 0.305191517
v -0.744391322 -0.849905014 0.30512321
v -0.744423449 -0.850000024 0.0597152561
v -0.744386315 -0.849810004 0.0599018484
v -0.744404912 -0.849974573 0.0598084554
v -0.744391322 -0.849905014 0.0598767549
v -0.756340683 -0.850000024 0.302299649
v -0.756285608 -0.849810004 0.302117556
v -0.756313145 -0.849974573 0.302208692
v -0.756292939 -0.849905014 0.302142024
v -0.767908216 -0.850000024 0.0668392926
v -0.767835438 -0.849810004 0.0670150667
v -0.767871857 -0.849974573 0.0669270754
v -0.767845213 -0.849905014 0.0669914186
v -0.779014349 -0.850000024 0.292907953
v -0.778924644 -0.849810004 0.292740166
v -0.778969526 -0.849974573 0.292824149
v -0.778936744 -0.849905014 0.292762756
v -0.80852282 -0.850000024 0.0939770564
v -0.808388352 -0.849810004 0.0941116586
v -0.808455646 -0.849974573 0.094044283
v -0.808406413 -0.849905014 0.0940935463
v -0.707747877 -0.849810004 0.0581019148
v -0.70772922 -0.850000024 0.0579125844
v -0.707745373 -0.849905014 0.0580764562
v -0.707738519 -0.849974573 0.0580071583
v -0.707729101 -0.850000024 0.307087392
v -0.707747877 -0.849810004 0.306898087
v -0.707738459 -0.849974573 0.306992829
v -0.707745314 -0.849905014 0.306923509
v -0.683659315 -0.850000024 0.0627003759
v -0.683714449 -0.849810004 0.0628824607
v -0.683686852 -0.849974573 0.0627913326
v -0.683707058 -0.849905014 0.0628579706
v -0.683659375 -0.850000024 0.302299649
v -0.683714449 -0.849810004 0.302117556
v -0.683686912 -0.849974573 0.302208692
v -0.683707118 -0.849905014 0.302142024
v -0.695576608 -0.850000024 0.0597152561
v -0.695613742 -0.849810004 0.0599018484
v -0.695595145 -0.849974573 0.0598084554
v -0.695608735 -0.849905014 0.0598767549
v -0.695576549 -0.850000024 0.305284768
v -0.695613742 -0.849810004 0.305098176
v -0.695595145 -0.849974573 0.305191517
v -0.695608735 -0.849905014 0.30512321
v -0.660985708 -0.850000024 0.0720920786
v -0.661075413 -0.849810004 0.0722598508
v -0.661030531 -0.849974573 0.0721758753
v -0.661063313 -0.849905014 0.072237283
v -0.661075413 -0.849810004 0.292740166
v -0.660985708 -0.850000024 0.292907953
v -0.661063313 -0.849905014 0.292762756
v -0.661030531 -0.849974573 0.292824149
v -0.640580118 -0.850000024 0.0857266709
v -0.640700877 -0.849810004 0.0858737007
v -0.640640438 -0.849974573 0.0858001262
v -0.640684664 -0.849905014 0.0858539641
v -0.640580118 -0.850000024 0.279273331
v -0.640700877 -0.849810004 0.279126316
v -0.640640438 -0.849974573 0.279199898
v -0.640684664 -0.849905014 0.279146075
v -0.650448084 -0.850000024 0.0784081146
v -0.650553763 -0.849810004 0.0785663053
v -0.650500894 -0.849974573 0.0784871131
v -0.650539517 -0.849905014 0.078545019
v -0.650448203 -0.850000024 0.286591947
v -0.650553763 -0.849810004 0.286433697
v -0.650501013 -0.849974573 0.286512882
v -0.650539637 -0.849905014 0.286454946
v -0.672091842 -0.850000024 0.0668392926
v -0.672164619 -0.849810004 0.0670150667
v -0.672128201 -0.849974573 0.0669270754
v -0.672154844 -0.849905014 0.0669914186
v -0.672091722 -0.850000024 0.298160672
v -0.672164619 -0.849810004 0.297984958
v -0.672128081 -0.849974573 0.298072875
v -0.672154784 -0.849905014 0.298008561
v -0.623226523 -0.850000024 0.103080362
v -0.623373747 -0.849810004 0.103200838
v -0.623300016 -0.849974573 0.103140578
v -0.623353958 -0.849905014 0.103184685
v -0.623226583 -0.850000024 0.261919707
v -0.623373747 -0.849810004 0.261799157
v -0.623300135 -0.849974573 0.261859417
v -0.623353958 -0.849905014 0.26181531
v -0.609591961 -0.850000024 0.123485945
v -0.609759867 -0.849810004 0.123575404
v -0.609675765 -0.849974573 0.123530649
v -0.609737277 -0.849905014 0.123563401
v -0.609591961 -0.850000024 0.241514042
v -0.609759867 -0.849810004 0.24142459
v -0.609675765 -0.849974573 0.241469339
v -0.609737277 -0.849905014 0.241436586
v -0.616066337 -0.849810004 0.113053724
v -0.615908384 -0.850000024 0.112947688
v -0.616045117 -0.849905014 0.113039397
v -0.615987301 -0.849974573 0.113000602
v -0.615908384 -0.850000024 0.252052277
v -0.616066337 -0.849810004 0.25194627
v -0.615987301 -0.849974573 0.251999378
v -0.616045117 -0.849905014 0.251960576
v -0.600200593 -0.850000024 0.146158755
v -0.600382507 -0.849810004 0.146214411
v -0.600291491 -0.849974573 0.146186471
v -0.600358069 -0.849905014 0.146206856
v -0.600200593 -0.850000024 0.21884124
v -0.600382507 -0.849810004 0.218785584
v -0.600291491 -0.849974573 0.218813524
v -0.600358069 -0.849905014 0.218793154
v -0.594809771 -0.850000024 0.182500005
v -0.595000029 -0.849810004 0.182500005
v -0.59490484 -0.849974573 0.182500005
v -0.594974458 -0.849905014 0.182500005
v -0.595601916 -0.849810004 0.194752142
v -0.595412612 -0.850000024 0.194770589
v -0.595576465 -0.849905014 0.194754586
v -0.595507145 -0.849974573 0.194761336
v -0.595601916 -0.849810004 0.170247853
v -0.595412612 -0.850000024 0.170229405
v -0.595576465 -0.849905014 0.170245409
v -0.595507145 -0.849974573 0.170238659
v -0.597215295 -0.850000024 0.206923455
v -0.597401857 -0.849810004 0.206886292
v -0.597308517 -0.849974573 0.206904888
v -0.597376823 -0.849905014 0.206891298
v -0.597401857 -0.849810004 0.158113718
v -0.597215295 -0.850000024 0.158076555
v -0.597376823 -0.849905014 0.158108711
v -0.597308517 -0.849974573 0.158095121
v -0.604339242 -0.850000024 0.230408087
v -0.604515076 -0.849810004 0.230335429
v -0.604427099 -0.849974573 0.230371743
v -0.604491413 -0.849905014 0.230345175
v -0.604515076 -0.849810004 0.134664565
v -0.604339242 -0.850000024 0.134591907
v -0.604491413 -0.849905014 0.13465482
v -0.604427099 -0.849974573 0.134628236
v -0.631477177 -0.850000024 0.271022886
v -0.631611705 -0.849810004 0.270888358
v -0.631544411 -0.849974573 0.270955652
v -0.631593704 -0.849905014 0.270906419
v -0.720000029 -0.850000024 0.0573097542
v -0.720000029 -0.849810004 0.0575000048
v -0.720000029 -0.849974573 0.0574047975
v -0.720000029 -0.849905014 0.0574744344
v -0.631611705 -0.849810004 0.0941116586
v -0.631477237 -0.850000024 0.0939770564
v -0.631593645 -0.849905014 0.0940935463
v -0.631544411 -0.849974573 0.094044283
v -0.720000029 -0.849810004 0.307500005
v -0.720000029 -0.850000024 0.307690233
v -0.720000029 -0.849905014 0.307525605
v -0.720000029 -0.849974573 0.307595223
usemtl cool_blue_grey_material.003
f 121 53 181 168
f 504 28 25 484 493 477 472 481 488 496
f 5 21 24 192 182 2
f 42 132 169 180
f 4 206 3 7
f 216 221 473 476
f 1 101 6
f 21 5 2
f 3 206 145 106 117
f 64 40 182 192
f 249 78 146 205 193 237 245 253 260 268 265 401 412 404 409 420 417 432 428 425 468 436 448 444 441 460 453 465 456 352 361 388 369 380 377 384 373 393 364 357 396 340 336 344 332 329 348 320 317 324 312 308 304 288 285 292 280 277 296 273 300 240
f 484 25 116 105 28 504 520 512 529 536 552 544 588 560 580 572 564 725 600 616 608 648 625 640 632 712 656 672 664 704 680 696 689 684 693 701 676 709 660 669 652 721 628 636 620 644 604 612 597 716 569 576 556 584 540 548 532 592 508 516 500 524
f 54 120 88 10
f 100 89 122 170
f 237 193 78 249 256 224 232 220 217 228
f 204 156 65 194
f 4 170 134 157 206
f 7 3 117 100 170 4
f 144 77 29 104
f 24 30 76 192
f 182 52 9 21 2
f 6 101 116 25 20 1
f 41 66 158 133
f 316 321 609 617
f 321 349 649 609
f 325 316 617 601
f 328 333 641 624
f 333 345 633 641
f 349 328 624 649
f 713 337 341 657
f 657 341 397 673
f 345 337 713 633
f 708 360 353 661
f 677 389 360 708
f 673 397 356 665
f 700 368 389 677
f 685 376 381 692
f 681 392 372 697
f 549 413 400 533
f 688 385 376 685
f 697 372 385 688
f 692 381 368 700
f 705 365 392 681
f 457 668 661 353
f 665 356 365 705
f 668 457 464 653
f 653 464 452 720
f 621 445 449 645
f 629 461 440 637
f 720 452 461 629
f 605 437 469 613
f 637 440 445 621
f 717 429 433 568
f 613 469 424 596
f 645 449 437 605
f 596 424 429 717
f 568 433 416 577
f 577 416 421 557
f 557 421 408 585
f 585 408 405 541
f 541 405 413 549
f 272 297 537 528
f 533 400 264 593
f 264 269 509 593
f 269 261 517 509
f 257 248 505 497
f 241 301 513 521
f 244 236 485 525
f 221 233 480 473
f 229 216 476 492
f 225 257 497 489
f 236 229 492 485
f 233 225 489 480
f 261 252 501 517
f 252 244 525 501
f 248 241 521 505
f 276 281 545 553
f 301 272 528 513
f 281 293 589 545
f 297 276 553 537
f 284 289 581 561
f 289 305 573 581
f 293 284 561 589
f 305 309 565 573
f 309 313 724 565
f 313 325 601 724
f 8 11 13 12
f 11 15 16 13
f 9 14 16 15
f 14 18 19 16
f 10 17 19 18
f 17 12 13 19
f 13 16 19
f 28 31 33 32
f 31 35 36 33
f 29 34 36 35
f 34 38 39 36
f 30 37 39 38
f 37 32 33 39
f 33 36 39
f 40 43 45 44
f 43 47 48 45
f 41 46 48 47
f 46 50 51 48
f 42 49 51 50
f 49 44 45 51
f 45 48 51
f 52 55 57 56
f 55 59 60 57
f 53 58 60 59
f 58 62 63 60
f 54 61 63 62
f 61 56 57 63
f 57 60 63
f 64 67 69 68
f 67 71 72 69
f 65 70 72 71
f 70 74 75 72
f 66 73 75 74
f 73 68 69 75
f 69 72 75
f 76 79 81 80
f 79 83 84 81
f 77 82 84 83
f 82 86 87 84
f 78 85 87 86
f 85 80 81 87
f 81 84 87
f 88 91 93 92
f 91 95 96 93
f 89 94 96 95
f 94 98 99 96
f 90 97 99 98
f 97 92 93 99
f 93 96 99
f 104 107 109 108
f 107 111 112 109
f 105 110 112 111
f 110 114 115 112
f 106 113 115 114
f 113 108 109 115
f 109 112 115
f 120 123 125 124
f 123 127 128 125
f 121 126 128 127
f 126 130 131 128
f 122 129 131 130
f 129 124 125 131
f 125 128 131
f 132 135 137 136
f 135 139 140 137
f 133 138 140 139
f 138 142 143 140
f 134 141 143 142
f 141 136 137 143
f 137 140 143
f 144 147 149 148
f 147 151 152 149
f 145 150 152 151
f 150 154 155 152
f 146 153 155 154
f 153 148 149 155
f 149 152 155
f 156 159 161 160
f 159 163 164 161
f 157 162 164 163
f 162 166 167 164
f 158 165 167 166
f 165 160 161 167
f 161 164 167
f 168 171 173 172
f 171 175 176 173
f 169 174 176 175
f 174 178 179 176
f 170 177 179 178
f 177 172 173 179
f 173 176 179
f 180 183 185 184
f 183 187 188 185
f 181 186 188 187
f 186 190 191 188
f 182 189 191 190
f 189 184 185 191
f 185 188 191
f 192 195 197 196
f 195 199 200 197
f 193 198 200 199
f 198 202 203 200
f 194 201 203 202
f 201 196 197 203
f 197 200 203
f 204 207 209 208
f 207 211 212 209
f 205 210 212 211
f 210 214 215 212
f 206 213 215 214
f 213 208 209 215
f 209 212 215
f 8 20 22 11
f 11 22 23 15
f 15 23 21 9
f 25 28 32 27
f 27 32 37 26
f 26 37 30 24
f 9 52 56 14
f 14 56 61 18
f 18 61 54 10
f 40 64 68 43
f 43 68 73 47
f 47 73 66 41
f 10 88 92 17
f 17 92 97 12
f 12 97 90 8
f 89 100 102 94
f 94 102 103 98
f 98 103 101 90
f 88 120 124 91
f 91 124 129 95
f 95 129 122 89
f 41 133 139 46
f 46 139 135 50
f 50 135 132 42
f 106 145 151 113
f 113 151 147 108
f 108 147 144 104
f 65 156 160 70
f 70 160 165 74
f 74 165 158 66
f 121 168 172 126
f 126 172 177 130
f 130 177 170 122
f 42 180 184 49
f 49 184 189 44
f 44 189 182 40
f 64 192 196 67
f 67 196 201 71
f 71 201 194 65
f 193 205 211 198
f 198 211 207 202
f 202 207 204 194
f 664 672 674 666
f 666 674 675 667
f 667 675 673 665
f 220 232 234 222
f 222 234 235 223
f 223 235 233 221
f 229 236 238 231
f 231 238 239 230
f 230 239 237 228
f 236 244 246 238
f 238 246 247 239
f 239 247 245 237
f 244 252 254 246
f 246 254 255 247
f 247 255 253 245
f 252 261 263 254
f 254 263 262 255
f 255 262 260 253
f 261 269 271 263
f 263 271 270 262
f 262 270 268 260
f 277 280 282 279
f 279 282 283 278
f 278 283 281 276
f 285 288 290 287
f 287 290 291 286
f 286 291 289 284
f 284 293 295 286
f 286 295 294 287
f 287 294 292 285
f 276 297 299 278
f 278 299 298 279
f 279 298 296 277
f 308 312 314 310
f 310 314 315 311
f 311 315 313 309
f 317 320 322 319
f 319 322 323 318
f 318 323 321 316
f 316 325 327 318
f 318 327 326 319
f 319 326 324 317
f 332 344 346 334
f 334 346 347 335
f 335 347 345 333
f 357 364 366 359
f 359 366 367 358
f 358 367 365 356
f 373 384 386 375
f 375 386 387 374
f 374 387 385 372
f 372 392 394 374
f 374 394 395 375
f 375 395 393 373
f 356 397 399 358
f 358 399 398 359
f 359 398 396 357
f 597 612 614 599
f 599 614 615 598
f 598 615 613 596
f 405 408 410 407
f 407 410 411 406
f 406 411 409 404
f 404 412 414 406
f 406 414 415 407
f 407 415 413 405
f 428 432 434 430
f 430 434 435 431
f 431 435 433 429
f 437 449 451 439
f 439 451 450 438
f 438 450 448 436
f 453 460 462 455
f 455 462 463 454
f 454 463 461 452
f 452 464 466 454
f 454 466 467 455
f 455 467 465 453
f 436 468 470 438
f 438 470 471 439
f 439 471 469 437
f 485 492 494 487
f 487 494 495 486
f 486 495 493 484
f 680 704 706 682
f 682 706 707 683
f 683 707 705 681
f 484 524 526 486
f 486 526 527 487
f 487 527 525 485
f 369 388 390 371
f 371 390 391 370
f 370 391 389 368
f 689 696 698 691
f 691 698 699 690
f 690 699 697 688
f 541 549 551 543
f 543 551 550 542
f 542 550 548 540
f 377 380 382 379
f 379 382 383 378
f 378 383 381 376
f 564 572 574 566
f 566 574 575 567
f 567 575 573 565
f 572 580 582 574
f 574 582 583 575
f 575 583 581 573
f 557 585 587 559
f 559 587 586 558
f 558 586 584 556
f 605 613 615 607
f 607 615 614 606
f 606 614 612 604
f 604 644 646 606
f 606 646 647 607
f 607 647 645 605
f 629 637 639 631
f 631 639 638 630
f 630 638 636 628
f 621 645 647 623
f 623 647 646 622
f 622 646 644 620
f 105 116 118 110
f 110 118 119 114
f 114 119 117 106
f 661 668 670 663
f 663 670 671 662
f 662 671 669 660
f 625 648 650 627
f 627 650 651 626
f 626 651 649 624
f 685 692 694 687
f 687 694 695 686
f 686 695 693 684
f 692 700 702 694
f 694 702 703 695
f 695 703 701 693
f 677 708 710 679
f 679 710 711 678
f 678 711 709 676
f 544 552 554 546
f 546 554 555 547
f 547 555 553 545
f 596 717 719 598
f 598 719 718 599
f 599 718 716 597
f 653 720 722 655
f 655 722 723 654
f 654 723 721 652
f 565 724 726 567
f 567 726 727 566
f 566 727 725 564
f 569 716 718 571
f 571 718 719 570
f 570 719 717 568
f 224 256 258 226
f 226 258 259 227
f 227 259 257 225
f 656 712 714 658
f 658 714 715 659
f 659 715 713 657
f 241 248 250 243
f 243 250 251 242
f 242 251 249 240
f 477 493 495 479
f 479 495 494 478
f 478 494 492 476
f 145 206 214 150
f 150 214 210 154
f 154 210 205 146
f 168 181 187 171
f 171 187 183 175
f 175 183 180 169
f 676 701 703 678
f 678 703 702 679
f 679 702 700 677
f 560 588 590 562
f 562 590 591 563
f 563 591 589 561
f 684 689 691 686
f 686 691 690 687
f 687 690 688 685
f 417 420 422 419
f 419 422 423 418
f 418 423 421 416
f 240 300 302 242
f 242 302 303 243
f 243 303 301 241
f 652 669 671 654
f 654 671 670 655
f 655 670 668 653
f 20 25 27 22
f 22 27 26 23
f 23 26 24 21
f 512 520 522 514
f 514 522 523 515
f 515 523 521 513
f 29 77 83 34
f 34 83 79 38
f 38 79 76 30
f 28 105 111 31
f 31 111 107 35
f 35 107 104 29
f 100 117 119 102
f 102 119 118 103
f 103 118 116 101
f 53 121 127 58
f 58 127 123 62
f 62 123 120 54
f 77 144 148 82
f 82 148 153 86
f 86 153 146 78
f 133 158 166 138
f 138 166 162 142
f 142 162 157 134
f 134 170 178 141
f 141 178 174 136
f 136 174 169 132
f 52 182 190 55
f 55 190 186 59
f 59 186 181 53
f 156 204 208 159
f 159 208 213 163
f 163 213 206 157
f 217 220 222 219
f 219 222 223 218
f 218 223 221 216
f 216 229 231 218
f 218 231 230 219
f 219 230 228 217
f 225 233 235 227
f 227 235 234 226
f 226 234 232 224
f 509 517 519 511
f 511 519 518 510
f 510 518 516 508
f 248 257 259 250
f 250 259 258 251
f 251 258 256 249
f 265 268 270 267
f 267 270 271 266
f 266 271 269 264
f 280 292 294 282
f 282 294 295 283
f 283 295 293 281
f 273 296 298 275
f 275 298 299 274
f 274 299 297 272
f 272 301 303 274
f 274 303 302 275
f 275 302 300 273
f 288 304 306 290
f 290 306 307 291
f 291 307 305 289
f 304 308 310 306
f 306 310 311 307
f 307 311 309 305
f 312 324 326 314
f 314 326 327 315
f 315 327 325 313
f 329 332 334 331
f 331 334 335 330
f 330 335 333 328
f 336 340 342 338
f 338 342 343 339
f 339 343 341 337
f 340 396 398 342
f 342 398 399 343
f 343 399 397 341
f 328 349 351 330
f 330 351 350 331
f 331 350 348 329
f 353 360 362 355
f 355 362 363 354
f 354 363 361 352
f 660 709 711 662
f 662 711 710 663
f 663 710 708 661
f 368 381 383 370
f 370 383 382 371
f 371 382 380 369
f 376 385 387 378
f 378 387 386 379
f 379 386 384 377
f 360 389 391 362
f 362 391 390 363
f 363 390 388 361
f 264 400 402 266
f 266 402 403 267
f 267 403 401 265
f 400 413 415 402
f 402 415 414 403
f 403 414 412 401
f 408 421 423 410
f 410 423 422 411
f 411 422 420 409
f 425 428 430 427
f 427 430 431 426
f 426 431 429 424
f 416 433 435 418
f 418 435 434 419
f 419 434 432 417
f 441 444 446 443
f 443 446 447 442
f 442 447 445 440
f 352 456 458 354
f 354 458 459 355
f 355 459 457 353
f 440 461 463 442
f 442 463 462 443
f 443 462 460 441
f 456 465 467 458
f 458 467 466 459
f 459 466 464 457
f 424 469 471 426
f 426 471 470 427
f 427 470 468 425
f 472 477 479 474
f 474 479 478 475
f 475 478 476 473
f 473 480 482 475
f 475 482 483 474
f 474 483 481 472
f 480 489 491 482
f 482 491 490 483
f 483 490 488 481
f 489 497 499 491
f 491 499 498 490
f 490 498 496 488
f 364 393 395 366
f 366 395 394 367
f 367 394 392 365
f 505 521 523 507
f 507 523 522 506
f 506 522 520 504
f 513 528 530 515
f 515 530 531 514
f 514 531 529 512
f 528 537 539 530
f 530 539 538 531
f 531 538 536 529
f 537 553 555 539
f 539 555 554 538
f 538 554 552 536
f 500 516 518 502
f 502 518 519 503
f 503 519 517 501
f 568 577 579 570
f 570 579 578 571
f 571 578 576 569
f 561 581 583 563
f 563 583 582 562
f 562 582 580 560
f 545 589 591 547
f 547 591 590 546
f 546 590 588 544
f 532 548 550 534
f 534 550 551 535
f 535 551 549 533
f 628 721 723 630
f 630 723 722 631
f 631 722 720 629
f 601 617 619 603
f 603 619 618 602
f 602 618 616 600
f 508 592 594 510
f 510 594 595 511
f 511 595 593 509
f 624 641 643 626
f 626 643 642 627
f 627 642 640 625
f 609 649 651 611
f 611 651 650 610
f 610 650 648 608
f 657 673 675 659
f 659 675 674 658
f 658 674 672 656
f 444 448 450 446
f 446 450 451 447
f 447 451 449 445
f 681 697 699 683
f 683 699 698 682
f 682 698 696 680
f 665 705 707 667
f 667 707 706 666
f 666 706 704 664
f 633 713 715 635
f 635 715 714 634
f 634 714 712 632
f 620 636 638 622
f 622 638 639 623
f 623 639 637 621
f 600 725 727 602
f 602 727 726 603
f 603 726 724 601
f 78 193 199 85
f 85 199 195 80
f 80 195 192 76
f 501 525 527 503
f 503 527 526 502
f 502 526 524 500
f 608 616 618 610
f 610 618 619 611
f 611 619 617 609
f 533 593 595 535
f 535 595 594 534
f 534 594 592 532
f 632 640 642 634
f 634 642 643 635
f 635 643 641 633
f 540 584 586 542
f 542 586 587 543
f 543 587 585 541
f 556 576 578 558
f 558 578 579 559
f 559 579 577 557
f 320 348 350 322
f 322 350 351 323
f 323 351 349 321
f 337 345 347 339
f 339 347 346 338
f 338 346 344 336
f 497 505 507 499
f 499 507 506 498
f 498 506 504 496
f 1 20 8 90 101
