# Exported from Blender scene for document_sleeve_file_holder
mtllib top_panel_link.mtl

o hinged_top_panel
v -1.27999997 -0.00137430709 -0.0249621999
v -1.29999995 0.0185954496 -0.0260616411
v -1.27999997 0.0174960047 -0.0460314006
v -1.28998685 0.00129357539 -0.0251090806
v -1.27999997 0.000744573772 -0.0350808613
v -1.28956425 0.0033593094 -0.0348015279
v -1.297328 0.018046448 -0.0360334218
v -1.297328 0.00862367079 -0.0255126413
v -1.29473257 0.00851991307 -0.0350856446
v -1.27999997 0.00767110754 -0.0428145155
v -1.28998685 0.0176428873 -0.043363519
v -1.28956425 0.00823579356 -0.0402462482
v 1.27999997 -0.00137430697 -0.024962198
v 1.27999997 0.0174960028 -0.0460314006
v 1.29999995 0.0185954534 -0.0260616429
v 1.27999997 0.000744573772 -0.0350808576
v 1.28998685 0.00129357912 -0.0251090787
v 1.28956425 0.00335931033 -0.0348015241
v 1.28998685 0.0176428854 -0.043363519
v 1.27999997 0.00767110661 -0.0428145155
v 1.28956425 0.00823579356 -0.0402462482
v 1.297328 0.00862367451 -0.0255126413
v 1.297328 0.0180464499 -0.0360334218
v 1.29473257 0.00851991493 -0.0350856446
v 1.27999997 1.61617613 -0.114017278
v 1.29999995 1.59620643 -0.11291784
v 1.27999997 1.59510696 -0.132887602
v 1.28998685 1.61350822 -0.113870397
v 1.27999997 1.61295927 -0.12384218
v 1.28956425 1.61039102 -0.123277493
v 1.297328 1.59565747 -0.122889623
v 1.297328 1.60617816 -0.113466837
v 1.29473257 1.60523033 -0.122993372
v 1.27999997 1.60522556 -0.130768716
v 1.28998685 1.59525383 -0.130219713
v 1.28956425 1.60494626 -0.12815398
v -1.27999997 1.61617613 -0.114017278
v -1.27999997 1.59510696 -0.132887587
v -1.29999995 1.59620643 -0.112917833
v -1.27999997 1.61295927 -0.123842172
v -1.28998685 1.61350822 -0.113870397
v -1.28956425 1.61039102 -0.123277485
v -1.28998685 1.59525383 -0.130219698
v -1.27999997 1.60522556 -0.130768701
v -1.28956425 1.60494626 -0.128153965
v -1.297328 1.60617816 -0.113466829
v -1.297328 1.59565747 -0.122889608
v -1.29473257 1.60523033 -0.122993365
v -1.29999995 0.0188703109 -0.0210692026
v -1.27999997 -0.00109944551 -0.0199697576
v -1.27999997 0.0199697558 -0.00109944551
v -1.297328 0.00889853295 -0.020520201
v -1.297328 0.0194193125 -0.0110974237
v -1.29473257 0.00984631013 -0.0109936651
v -1.27999997 0.0021174401 -0.0101448605
v -1.28998685 0.00156843849 -0.0201166384
v -1.28956425 0.00468570646 -0.0107095465
v -1.28998685 0.019822875 -0.00376732834
v -1.27999997 0.0098510962 -0.00321832672
v -1.28956425 0.0101304296 -0.00583306141
v 1.27999997 -0.00109944539 -0.0199697558
v 1.29999995 0.0188703127 -0.0210692044
v 1.27999997 0.0199697576 -0.00109944562
v 1.28998685 0.00156843849 -0.0201166384
v 1.27999997 0.0021174401 -0.0101448586
v 1.28956425 0.00468570646 -0.0107095456
v 1.297328 0.0194193143 -0.0110974247
v 1.297328 0.00889853388 -0.020520201
v 1.29473257 0.00984631013 -0.0109936669
v 1.27999997 0.00985109713 -0.00321832672
v 1.28998685 0.0198228769 -0.00376732834
v 1.28956425 0.0101304296 -0.00583306141
v 1.27999997 1.59758067 -0.0879556462
v 1.29999995 1.5964812 -0.107925415
v 1.27999997 1.61645091 -0.109024853
v 1.28998685 1.59743369 -0.0906235427
v 1.27999997 1.60740542 -0.0911725387
v 1.28956425 1.60684073 -0.093740806
v 1.297328 1.60645282 -0.108474419
v 1.297328 1.59703004 -0.0979536399
v 1.29473257 1.60655665 -0.0989014134
v 1.27999997 1.61433196 -0.0989061967
v 1.28998685 1.61378288 -0.108877979
v 1.28956425 1.61171722 -0.0991855264
v -1.29999995 1.5964812 -0.107925415
v -1.27999997 1.59758067 -0.0879556462
v -1.27999997 1.61645091 -0.109024853
v -1.297328 1.59703004 -0.0979536399
v -1.297328 1.60645282 -0.108474419
v -1.29473257 1.60655665 -0.0989014134
v -1.27999997 1.60740542 -0.0911725387
v -1.28998685 1.59743369 -0.0906235427
v -1.28956425 1.60684073 -0.093740806
v -1.28998685 1.61378288 -0.108877979
v -1.27999997 1.61433196 -0.0989061967
v -1.28956425 1.61171722 -0.0991855264
usemtl cool_blue_grey_material.003
f 2 49 85 39
f 3 38 27 14
f 51 63 73 86
f 37 87 75 25
f 15 26 74 62
f 1 4 6 5
f 4 8 9 6
f 2 7 9 8
f 7 11 12 9
f 3 10 12 11
f 10 5 6 12
f 6 9 12
f 13 16 18 17
f 16 20 21 18
f 14 19 21 20
f 19 23 24 21
f 15 22 24 23
f 22 17 18 24
f 18 21 24
f 25 28 30 29
f 28 32 33 30
f 26 31 33 32
f 31 35 36 33
f 27 34 36 35
f 34 29 30 36
f 30 33 36
f 37 40 42 41
f 40 44 45 42
f 38 43 45 44
f 43 47 48 45
f 39 46 48 47
f 46 41 42 48
f 42 45 48
f 49 52 54 53
f 52 56 57 54
f 50 55 57 56
f 55 59 60 57
f 51 58 60 59
f 58 53 54 60
f 54 57 60
f 61 64 66 65
f 64 68 69 66
f 62 67 69 68
f 67 71 72 69
f 63 70 72 71
f 70 65 66 72
f 66 69 72
f 73 76 78 77
f 76 80 81 78
f 74 79 81 80
f 79 83 84 81
f 75 82 84 83
f 82 77 78 84
f 78 81 84
f 85 88 90 89
f 88 92 93 90
f 86 91 93 92
f 91 95 96 93
f 87 94 96 95
f 94 89 90 96
f 90 93 96
f 27 38 44 34
f 34 44 40 29
f 29 40 37 25
f 3 14 20 10
f 10 20 16 5
f 5 16 13 1
f 14 27 35 19
f 19 35 31 23
f 23 31 26 15
f 2 39 47 7
f 7 47 43 11
f 11 43 38 3
f 1 50 56 4
f 4 56 52 8
f 8 52 49 2
f 50 61 65 55
f 55 65 70 59
f 59 70 63 51
f 62 74 80 67
f 67 80 76 71
f 71 76 73 63
f 51 86 92 58
f 58 92 88 53
f 53 88 85 49
f 15 62 68 22
f 22 68 64 17
f 17 64 61 13
f 25 75 83 28
f 28 83 79 32
f 32 79 74 26
f 75 87 95 82
f 82 95 91 77
f 77 91 86 73
f 39 85 89 46
f 46 89 94 41
f 41 94 87 37
f 1 13 61 50
