mtllib base_link.mtl
o base_link
v 1.45519152e-11 0.0309935659 0.0899999738
v 0 0.0340000018 0.0929999948
v 3.63797881e-12 0.0331194364 0.0908786654
v -1.45519152e-11 0.0309935659 1.43000007
v 0 0.0340000018 1.42700005
v -3.63797881e-12 0.0331194364 1.42912126
v 0.00404547248 0.0307284109 0.0899999738
v 0.00443789084 0.0337091275 0.0929999948
v 0.00432295445 0.0328360945 0.0908786654
v 0.00404547295 0.0307284109 1.43000007
v 0.00443789084 0.0337091275 1.42700005
v 0.00432295445 0.0328360945 1.42912126
v 0.00802171417 0.029937489 0.0899999738
v 0.00879984815 0.0328414813 0.0929999948
v 0.00857193768 0.031990923 0.0908786654
v 0.00802171417 0.029937489 1.43000007
v 0.00879984815 0.0328414813 1.42700005
v 0.00857193861 0.031990923 1.42912126
v 0.0118607366 0.0286343154 0.0899999738
v 0.0130112385 0.0314119048 0.0929999948
v 0.0126742637 0.0305983666 0.0908786654
v 0.0118607366 0.0286343154 1.43000007
v 0.0130112385 0.0314119048 1.42700005
v 0.0126742637 0.0305983666 1.42912126
v 0.0154967858 0.0268412102 0.0899999738
v 0.0170000009 0.029444864 0.0929999948
v 0.01655972 0.0286822729 0.0908786654
v 0.0154967858 0.0268412102 1.43000007
v 0.0170000009 0.029444864 1.42700005
v 0.01655972 0.028682271 1.42912126
v 0.0188676845 0.0245888494 0.0899999738
v 0.0206978898 0.0269740149 0.0929999948
v 0.0201618355 0.026275415 0.0908786654
v 0.0188676845 0.0245888494 1.43000007
v 0.0206978898 0.0269740149 1.42700005
v 0.0201618336 0.026275415 1.42912126
v 0.0219157599 0.0219157599 0.0899999738
v 0.0240416322 0.0240416322 0.0929999948
v 0.0234189816 0.0234189816 0.0908786654
v 0.0219157599 0.0219157599 1.43000007
v 0.0240416322 0.0240416322 1.42700005
v 0.0234189816 0.0234189816 1.42912126
v 0.0245888494 0.0188676845 0.0899999738
v 0.0269740149 0.0206978898 0.0929999948
v 0.026275415 0.0201618336 0.0908786654
v 0.0245888494 0.0188676845 1.43000007
v 0.0269740149 0.0206978898 1.42700005
v 0.026275415 0.0201618355 1.42912126
v 0.0268412102 0.0154967858 0.0899999738
v 0.029444864 0.0170000009 0.0929999948
v 0.028682271 0.01655972 0.0908786654
v 0.0268412102 0.0154967858 1.43000007
v 0.029444864 0.0170000009 1.42700005
v 0.0286822729 0.01655972 1.42912126
v 0.0286343154 0.0118607366 0.0899999738
v 0.0314119048 0.0130112385 0.0929999948
v 0.0305983666 0.0126742637 0.0908786654
v 0.0286343154 0.0118607366 1.43000007
v 0.0314119048 0.0130112385 1.42700005
v 0.0305983666 0.0126742637 1.42912126
v 0.029937489 0.00802171417 0.0899999738
v 0.0328414813 0.00879984815 0.0929999948
v 0.031990923 0.00857193861 0.0908786654
v 0.029937489 0.00802171417 1.43000007
v 0.0328414813 0.00879984815 1.42700005
v 0.031990923 0.00857193768 1.42912126
v 0.0307284109 0.00404547295 0.0899999738
v 0.0337091275 0.00443789084 0.0929999948
v 0.0328360945 0.00432295445 0.0908786654
v 0.0307284109 0.00404547248 1.43000007
v 0.0337091275 0.00443789084 1.42700005
v 0.0328360945 0.00432295445 1.42912126
v 0.0309935659 -1.45519152e-11 0.0899999738
v 0.0340000018 0 0.0929999948
v 0.0331194364 -3.63797881e-12 0.0908786654
v 0.0309935659 1.45519152e-11 1.43000007
v 0.0340000018 0 1.42700005
v 0.0331194364 3.63797881e-12 1.42912126
v 0.0307284109 -0.00404547248 0.0899999738
v 0.0337091275 -0.00443789084 0.0929999948
v 0.0328360945 -0.00432295445 0.0908786654
v 0.0307284109 -0.00404547295 1.43000007
v 0.0337091275 -0.00443789084 1.42700005
v 0.0328360945 -0.00432295445 1.42912126
v 0.029937489 -0.00802171417 0.0899999738
v 0.0328414813 -0.00879984815 0.0929999948
v 0.031990923 -0.00857193768 0.0908786654
v 0.029937489 -0.00802171417 1.43000007
v 0.0328414813 -0.00879984815 1.42700005
v 0.031990923 -0.00857193861 1.42912126
v 0.0286343154 -0.0118607366 0.0899999738
v 0.0314119048 -0.0130112385 0.0929999948
v 0.0305983666 -0.0126742637 0.0908786654
v 0.0286343154 -0.0118607366 1.43000007
v 0.0314119048 -0.0130112385 1.42700005
v 0.0305983666 -0.0126742637 1.42912126
v 0.0268412102 -0.0154967858 0.0899999738
v 0.029444864 -0.0170000009 0.0929999948
v 0.0286822729 -0.01655972 0.0908786654
v 0.0268412102 -0.0154967858 1.43000007
v 0.029444864 -0.0170000009 1.42700005
v 0.028682271 -0.01655972 1.42912126
v 0.0245888494 -0.0188676845 0.0899999738
v 0.0269740149 -0.0206978898 0.0929999948
v 0.026275415 -0.0201618355 0.0908786654
v 0.0245888494 -0.0188676845 1.43000007
v 0.0269740149 -0.0206978898 1.42700005
v 0.026275415 -0.0201618336 1.42912126
v 0.0219157599 -0.0219157599 0.0899999738
v 0.0240416322 -0.0240416322 0.0929999948
v 0.0234189816 -0.0234189816 0.0908786654
v 0.0219157599 -0.0219157599 1.43000007
v 0.0240416322 -0.0240416322 1.42700005
v 0.0234189816 -0.0234189816 1.42912126
v 0.0188676845 -0.0245888494 0.0899999738
v 0.0206978898 -0.0269740149 0.0929999948
v 0.0201618336 -0.026275415 0.0908786654
v 0.0188676845 -0.0245888494 1.43000007
v 0.0206978898 -0.0269740149 1.42700005
v 0.0201618355 -0.026275415 1.42912126
v 0.0154967858 -0.0268412102 0.0899999738
v 0.0170000009 -0.029444864 0.0929999948
v 0.01655972 -0.028682271 0.0908786654
v 0.0154967858 -0.0268412102 1.43000007
v 0.0170000009 -0.029444864 1.42700005
v 0.01655972 -0.0286822729 1.42912126
v 0.0118607366 -0.0286343154 0.0899999738
v 0.0130112385 -0.0314119048 0.0929999948
v 0.0126742637 -0.0305983666 0.0908786654
v 0.0118607366 -0.0286343154 1.43000007
v 0.0130112385 -0.0314119048 1.42700005
v 0.0126742637 -0.0305983666 1.42912126
v 0.00802171417 -0.029937489 0.0899999738
v 0.00879984815 -0.0328414813 0.0929999948
v 0.00857193861 -0.031990923 0.0908786654
v 0.00802171417 -0.029937489 1.43000007
v 0.00879984815 -0.0328414813 1.42700005
v 0.00857193768 -0.031990923 1.42912126
v 0.00404547295 -0.0307284109 0.0899999738
v 0.00443789084 -0.0337091275 0.0929999948
v 0.00432295445 -0.0328360945 0.0908786654
v 0.00404547248 -0.0307284109 1.43000007
v 0.00443789084 -0.0337091275 1.42700005
v 0.00432295445 -0.0328360945 1.42912126
v -1.45519152e-11 -0.0309935659 0.0899999738
v 0 -0.0340000018 0.0929999948
v -3.63797881e-12 -0.0331194364 0.0908786654
v 1.45519152e-11 -0.0309935659 1.43000007
v 0 -0.0340000018 1.42700005
v 3.63797881e-12 -0.0331194364 1.42912126
v -0.00404547248 -0.0307284109 0.0899999738
v -0.00443789084 -0.0337091275 0.0929999948
v -0.00432295445 -0.0328360945 0.0908786654
v -0.00404547295 -0.0307284109 1.43000007
v -0.00443789084 -0.0337091275 1.42700005
v -0.00432295445 -0.0328360945 1.42912126
v -0.00802171417 -0.029937489 0.0899999738
v -0.00879984815 -0.0328414813 0.0929999948
v -0.00857193768 -0.031990923 0.0908786654
v -0.00802171417 -0.029937489 1.43000007
v -0.00879984815 -0.0328414813 1.42700005
v -0.00857193861 -0.031990923 1.42912126
v -0.0118607366 -0.0286343154 0.0899999738
v -0.0130112385 -0.0314119048 0.0929999948
v -0.0126742637 -0.0305983666 0.0908786654
v -0.0118607366 -0.0286343154 1.43000007
v -0.0130112385 -0.0314119048 1.42700005
v -0.0126742637 -0.0305983666 1.42912126
v -0.0154967858 -0.0268412102 0.0899999738
v -0.0170000009 -0.029444864 0.0929999948
v -0.01655972 -0.0286822729 0.0908786654
v -0.0154967858 -0.0268412102 1.43000007
v -0.0170000009 -0.029444864 1.42700005
v -0.01655972 -0.028682271 1.42912126
v -0.0188676845 -0.0245888494 0.0899999738
v -0.0206978898 -0.0269740149 0.0929999948
v -0.0201618355 -0.026275415 0.0908786654
v -0.0188676845 -0.0245888494 1.43000007
v -0.0206978898 -0.0269740149 1.42700005
v -0.0201618336 -0.026275415 1.42912126
v -0.0219157599 -0.0219157599 0.0899999738
v -0.0240416322 -0.0240416322 0.0929999948
v -0.0234189816 -0.0234189816 0.0908786654
v -0.0219157599 -0.0219157599 1.43000007
v -0.0240416322 -0.0240416322 1.42700005
v -0.0234189816 -0.0234189816 1.42912126
v -0.0245888494 -0.0188676845 0.0899999738
v -0.0269740149 -0.0206978898 0.0929999948
v -0.026275415 -0.0201618336 0.0908786654
v -0.0245888494 -0.0188676845 1.43000007
v -0.0269740149 -0.0206978898 1.42700005
v -0.026275415 -0.0201618355 1.42912126
v -0.0268412102 -0.0154967858 0.0899999738
v -0.029444864 -0.0170000009 0.0929999948
v -0.028682271 -0.01655972 0.0908786654
v -0.0268412102 -0.0154967858 1.43000007
v -0.029444864 -0.0170000009 1.42700005
v -0.0286822729 -0.01655972 1.42912126
v -0.0286343154 -0.0118607366 0.0899999738
v -0.0314119048 -0.0130112385 0.0929999948
v -0.0305983666 -0.0126742637 0.0908786654
v -0.0286343154 -0.0118607366 1.43000007
v -0.0314119048 -0.0130112385 1.42700005
v -0.0305983666 -0.0126742637 1.42912126
v -0.029937489 -0.00802171417 0.0899999738
v -0.0328414813 -0.00879984815 0.0929999948
v -0.031990923 -0.00857193861 0.0908786654
v -0.029937489 -0.00802171417 1.43000007
v -0.0328414813 -0.00879984815 1.42700005
v -0.031990923 -0.00857193768 1.42912126
v -0.0307284109 -0.00404547295 0.0899999738
v -0.0337091275 -0.00443789084 0.0929999948
v -0.0328360945 -0.00432295445 0.0908786654
v -0.0307284109 -0.00404547248 1.43000007
v -0.0337091275 -0.00443789084 1.42700005
v -0.0328360945 -0.00432295445 1.42912126
v -0.0309935659 1.45519152e-11 0.0899999738
v -0.0340000018 0 0.0929999948
v -0.0331194364 3.63797881e-12 0.0908786654
v -0.0309935659 -1.45519152e-11 1.43000007
v -0.0340000018 0 1.42700005
v -0.0331194364 -3.63797881e-12 1.42912126
v -0.0307284109 0.00404547248 0.0899999738
v -0.0337091275 0.00443789084 0.0929999948
v -0.0328360945 0.00432295445 0.0908786654
v -0.0307284109 0.00404547295 1.43000007
v -0.0337091275 0.00443789084 1.42700005
v -0.0328360945 0.00432295445 1.42912126
v -0.029937489 0.00802171417 0.0899999738
v -0.0328414813 0.00879984815 0.0929999948
v -0.031990923 0.00857193768 0.0908786654
v -0.029937489 0.00802171417 1.43000007
v -0.0328414813 0.00879984815 1.42700005
v -0.031990923 0.00857193861 1.42912126
v -0.0286343154 0.0118607366 0.0899999738
v -0.0314119048 0.0130112385 0.0929999948
v -0.0305983666 0.0126742637 0.0908786654
v -0.0286343154 0.0118607366 1.43000007
v -0.0314119048 0.0130112385 1.42700005
v -0.0305983666 0.0126742637 1.42912126
v -0.0268412102 0.0154967858 0.0899999738
v -0.029444864 0.0170000009 0.0929999948
v -0.0286822729 0.01655972 0.0908786654
v -0.0268412102 0.0154967858 1.43000007
v -0.029444864 0.0170000009 1.42700005
v -0.028682271 0.01655972 1.42912126
v -0.0245888494 0.0188676845 0.0899999738
v -0.0269740149 0.0206978898 0.0929999948
v -0.026275415 0.0201618355 0.0908786654
v -0.0245888494 0.0188676845 1.43000007
v -0.0269740149 0.0206978898 1.42700005
v -0.026275415 0.0201618336 1.42912126
v -0.0219157599 0.0219157599 0.0899999738
v -0.0240416322 0.0240416322 0.0929999948
v -0.0234189816 0.0234189816 0.0908786654
v -0.0219157599 0.0219157599 1.43000007
v -0.0240416322 0.0240416322 1.42700005
v -0.0234189816 0.0234189816 1.42912126
v -0.0188676845 0.0245888494 0.0899999738
v -0.0206978898 0.0269740149 0.0929999948
v -0.0201618336 0.026275415 0.0908786654
v -0.0188676845 0.0245888494 1.43000007
v -0.0206978898 0.0269740149 1.42700005
v -0.0201618355 0.026275415 1.42912126
v -0.0154967858 0.0268412102 0.0899999738
v -0.0170000009 0.029444864 0.0929999948
v -0.01655972 0.028682271 0.0908786654
v -0.0154967858 0.0268412102 1.43000007
v -0.0170000009 0.029444864 1.42700005
v -0.01655972 0.0286822729 1.42912126
v -0.0118607366 0.0286343154 0.0899999738
v -0.0130112385 0.0314119048 0.0929999948
v -0.0126742637 0.0305983666 0.0908786654
v -0.0118607366 0.0286343154 1.43000007
v -0.0130112385 0.0314119048 1.42700005
v -0.0126742637 0.0305983666 1.42912126
v -0.00802171417 0.029937489 0.0899999738
v -0.00879984815 0.0328414813 0.0929999948
v -0.00857193861 0.031990923 0.0908786654
v -0.00802171417 0.029937489 1.43000007
v -0.00879984815 0.0328414813 1.42700005
v -0.00857193768 0.031990923 1.42912126
v -0.00404547295 0.0307284109 0.0899999738
v -0.00443789084 0.0337091275 0.0929999948
v -0.00432295445 0.0328360945 0.0908786654
v -0.00404547248 0.0307284109 1.43000007
v -0.00443789084 0.0337091275 1.42700005
v -0.00432295445 0.0328360945 1.42912126
usemtl matte_white_plastic_pole_005
f 284 287 5 2
f 14 17 23 20
f 20 23 29 26
f 26 29 35 32
f 32 35 41 38
f 38 41 47 44
f 44 47 53 50
f 50 53 59 56
f 56 59 65 62
f 62 65 71 68
f 68 71 77 74
f 74 77 83 80
f 80 83 89 86
f 86 89 95 92
f 92 95 101 98
f 98 101 107 104
f 104 107 113 110
f 110 113 119 116
f 116 119 125 122
f 122 125 131 128
f 128 131 137 134
f 134 137 143 140
f 140 143 149 146
f 146 149 155 152
f 152 155 161 158
f 158 161 167 164
f 164 167 173 170
f 170 173 179 176
f 176 179 185 182
f 182 185 191 188
f 188 191 197 194
f 194 197 203 200
f 200 203 209 206
f 206 209 215 212
f 212 215 221 218
f 218 221 227 224
f 224 227 233 230
f 230 233 239 236
f 236 239 245 242
f 242 245 251 248
f 248 251 257 254
f 254 257 263 260
f 260 263 269 266
f 266 269 275 272
f 272 275 281 278
f 278 281 287 284
f 8 11 17 14
f 10 4 286 280 274 268 262 256 250 244 238 232 226 220 214 208 202 196 190 184 178 172 166 160 154 148 142 136 130 124 118 112 106 100 94 88 82 76 70 64 58 52 46 40 34 28 22 16
f 2 5 11 8
f 2 8 9 3
f 3 9 7 1
f 11 5 6 12
f 12 6 4 10
f 8 14 15 9
f 9 15 13 7
f 17 11 12 18
f 18 12 10 16
f 14 20 21 15
f 15 21 19 13
f 23 17 18 24
f 24 18 16 22
f 20 26 27 21
f 21 27 25 19
f 29 23 24 30
f 30 24 22 28
f 26 32 33 27
f 27 33 31 25
f 35 29 30 36
f 36 30 28 34
f 32 38 39 33
f 33 39 37 31
f 41 35 36 42
f 42 36 34 40
f 38 44 45 39
f 39 45 43 37
f 47 41 42 48
f 48 42 40 46
f 44 50 51 45
f 45 51 49 43
f 53 47 48 54
f 54 48 46 52
f 50 56 57 51
f 51 57 55 49
f 59 53 54 60
f 60 54 52 58
f 56 62 63 57
f 57 63 61 55
f 65 59 60 66
f 66 60 58 64
f 62 68 69 63
f 63 69 67 61
f 71 65 66 72
f 72 66 64 70
f 68 74 75 69
f 69 75 73 67
f 77 71 72 78
f 78 72 70 76
f 74 80 81 75
f 75 81 79 73
f 83 77 78 84
f 84 78 76 82
f 80 86 87 81
f 81 87 85 79
f 89 83 84 90
f 90 84 82 88
f 86 92 93 87
f 87 93 91 85
f 95 89 90 96
f 96 90 88 94
f 92 98 99 93
f 93 99 97 91
f 101 95 96 102
f 102 96 94 100
f 98 104 105 99
f 99 105 103 97
f 107 101 102 108
f 108 102 100 106
f 104 110 111 105
f 105 111 109 103
f 113 107 108 114
f 114 108 106 112
f 110 116 117 111
f 111 117 115 109
f 119 113 114 120
f 120 114 112 118
f 116 122 123 117
f 117 123 121 115
f 125 119 120 126
f 126 120 118 124
f 122 128 129 123
f 123 129 127 121
f 131 125 126 132
f 132 126 124 130
f 128 134 135 129
f 129 135 133 127
f 137 131 132 138
f 138 132 130 136
f 134 140 141 135
f 135 141 139 133
f 143 137 138 144
f 144 138 136 142
f 140 146 147 141
f 141 147 145 139
f 149 143 144 150
f 150 144 142 148
f 146 152 153 147
f 147 153 151 145
f 155 149 150 156
f 156 150 148 154
f 152 158 159 153
f 153 159 157 151
f 161 155 156 162
f 162 156 154 160
f 158 164 165 159
f 159 165 163 157
f 167 161 162 168
f 168 162 160 166
f 164 170 171 165
f 165 171 169 163
f 173 167 168 174
f 174 168 166 172
f 170 176 177 171
f 171 177 175 169
f 179 173 174 180
f 180 174 172 178
f 176 182 183 177
f 177 183 181 175
f 185 179 180 186
f 186 180 178 184
f 182 188 189 183
f 183 189 187 181
f 191 185 186 192
f 192 186 184 190
f 188 194 195 189
f 189 195 193 187
f 197 191 192 198
f 198 192 190 196
f 194 200 201 195
f 195 201 199 193
f 203 197 198 204
f 204 198 196 202
f 200 206 207 201
f 201 207 205 199
f 209 203 204 210
f 210 204 202 208
f 206 212 213 207
f 207 213 211 205
f 215 209 210 216
f 216 210 208 214
f 212 218 219 213
f 213 219 217 211
f 221 215 216 222
f 222 216 214 220
f 218 224 225 219
f 219 225 223 217
f 227 221 222 228
f 228 222 220 226
f 224 230 231 225
f 225 231 229 223
f 233 227 228 234
f 234 228 226 232
f 230 236 237 231
f 231 237 235 229
f 239 233 234 240
f 240 234 232 238
f 236 242 243 237
f 237 243 241 235
f 245 239 240 246
f 246 240 238 244
f 242 248 249 243
f 243 249 247 241
f 251 245 246 252
f 252 246 244 250
f 248 254 255 249
f 249 255 253 247
f 257 251 252 258
f 258 252 250 256
f 254 260 261 255
f 255 261 259 253
f 263 257 258 264
f 264 258 256 262
f 260 266 267 261
f 261 267 265 259
f 269 263 264 270
f 270 264 262 268
f 266 272 273 267
f 267 273 271 265
f 275 269 270 276
f 276 270 268 274
f 272 278 279 273
f 273 279 277 271
f 281 275 276 282
f 282 276 274 280
f 278 284 285 279
f 279 285 283 277
f 287 281 282 288
f 288 282 280 286
f 284 2 3 285
f 285 3 1 283
f 5 287 288 6
f 6 288 286 4
f 1 7 13 19 25 31 37 43 49 55 61 67 73 79 85 91 97 103 109 115 121 127 133 139 145 151 157 163 169 175 181 187 193 199 205 211 217 223 229 235 241 247 253 259 265 271 277 283
