mtllib caster_03_wheel_link.mtl
o caster_03_wheel_link
v -0.03500003 0.0459709466 1.86264515e-09
v -0.0290000401 0.0519999787 1.86264515e-09
v -0.0341961756 0.0489854738 1.86264515e-09
v -0.0320000313 0.0511922613 1.86264515e-09
v 0.0349999145 0.045970954 -1.86264515e-09
v 0.0290000327 0.0519999787 -1.86264515e-09
v 0.0341961496 0.0489854962 -1.86264515e-09
v 0.0319999456 0.0511922464 -1.86264515e-09
v -0.035000056 0.0450876355 -0.00896848552
v -0.0289999954 0.0510008186 -0.0101446956
v -0.0341961384 0.0480442345 -0.00955658965
v -0.0319999941 0.0502086207 -0.00998711213
v 0.034999948 0.0450876355 -0.00896848831
v 0.0289999582 0.0510008261 -0.0101446994
v 0.0341961868 0.0480442271 -0.00955659337
v 0.0319999829 0.0502086133 -0.00998711586
v -0.0350000411 0.0424716398 -0.0175923165
v -0.0290000625 0.0480417088 -0.0198995378
v -0.0341961645 0.0452566817 -0.0187459271
v -0.0320000462 0.0472954661 -0.0195904281
v 0.0349999629 0.0424716398 -0.0175923351
v 0.0290000103 0.0480417088 -0.0198995415
v 0.0341961011 0.0452566817 -0.0187459365
v 0.0319999941 0.0472954586 -0.0195904318
v -0.0350000225 0.0382234603 -0.0255401023
v -0.029000055 0.0432364121 -0.0288896523
v -0.0341962092 0.0407299548 -0.0272148754
v -0.0320000052 0.0425648019 -0.0284408964
v 0.0349999219 0.0382234752 -0.0255401004
v 0.0289999582 0.0432364121 -0.0288896561
v 0.0341961123 0.0407299399 -0.0272148773
v 0.0319999754 0.0425647944 -0.0284409001
v -0.0350000337 0.0325063765 -0.0325063951
v -0.0290000401 0.0367695466 -0.036769554
v -0.0341961496 0.0346379578 -0.0346379727
v -0.0320000313 0.0361983851 -0.0361984
v 0.0349999778 0.0325063765 -0.0325063914
v 0.0289999731 0.0367695466 -0.036769554
v 0.034196116 0.0346379578 -0.0346379727
v 0.0319999456 0.0361984074 -0.0361984
v -0.0350000001 0.0255400985 -0.038223464
v -0.0290000401 0.0288896561 -0.0432364196
v -0.0341961943 0.0272148773 -0.0407299399
v -0.0320000313 0.0284409076 -0.0425648093
v 0.0349999443 0.025540106 -0.038223464
v 0.0289999694 0.0288896263 -0.0432364196
v 0.0341961272 0.0272148624 -0.0407299399
v 0.0319999494 0.0284409001 -0.0425648093
v -0.0350000001 0.0175923109 -0.0424716398
v -0.0289999843 0.0198995471 -0.0480417348
v -0.0341961347 0.0187459439 -0.0452566892
v -0.0319999866 0.0195904151 -0.0472954884
v 0.0350000076 0.0175923109 -0.0424716398
v 0.0289999656 0.0198995546 -0.0480417348
v 0.0341961272 0.0187459067 -0.0452566892
v 0.0319999941 0.0195904076 -0.0472954884
v -0.0350000113 0.00896847993 -0.0450876504
v -0.0290000029 0.0101446807 -0.0510008335
v -0.0341961756 0.00955659896 -0.048044242
v -0.0319999754 0.00998711586 -0.0502086133
v 0.0350000001 0.00896850973 -0.0450876504
v 0.028999947 0.0101446882 -0.0510008335
v 0.0341961458 0.00955658406 -0.048044242
v 0.0320000015 0.00998713076 -0.0502086133
v -0.0350000151 -1.49011612e-08 -0.0459709689
v -0.0289999843 -7.4505806e-09 -0.0520000011
v -0.0341961719 7.4505806e-09 -0.0489854887
v -0.0319999978 7.4505806e-09 -0.051192265
v 0.0349999964 1.49011612e-08 -0.0459709689
v 0.0289999656 7.4505806e-09 -0.0520000011
v 0.0341961533 -7.4505806e-09 -0.0489854887
v 0.0319999792 -7.4505806e-09 -0.051192265
v -0.0350000188 -0.00896850973 -0.0450876504
v -0.0290000252 -0.0101446882 -0.0510008335
v -0.0341961645 -0.00955658406 -0.048044242
v -0.0320000201 -0.00998713076 -0.0502086133
v 0.0349999927 -0.00896847993 -0.0450876504
v 0.0289999247 -0.0101446807 -0.0510008335
v 0.034196157 -0.00955659896 -0.048044242
v 0.0319999568 -0.00998711586 -0.0502086133
v -0.0350000262 -0.0175923184 -0.0424716398
v -0.0290000439 -0.0198995546 -0.0480417348
v -0.0341961458 -0.0187459365 -0.0452566892
v -0.0320000127 -0.0195904076 -0.0472954884
v 0.0349999815 -0.0175923184 -0.0424716398
v 0.0289999694 -0.0198995471 -0.0480417348
v 0.034196116 -0.0187459439 -0.0452566892
v 0.031999968 -0.0195904151 -0.0472954884
v -0.0350000225 -0.025540106 -0.038223464
v -0.0290000476 -0.0288896561 -0.0432364196
v -0.0341962054 -0.0272148624 -0.0407299399
v -0.0320000276 -0.0284409001 -0.0425648093
v 0.0349999219 -0.0255400985 -0.038223464
v 0.0289999619 -0.0288896561 -0.0432364196
v 0.034196116 -0.0272148773 -0.0407299399
v 0.0320000127 -0.0284409076 -0.0425648093
v -0.0350000523 -0.0325063467 -0.0325064026
v -0.0290000513 -0.0367695466 -0.036769554
v -0.0341961347 -0.0346379876 -0.0346379802
v -0.0320000239 -0.0361984074 -0.0361984
v 0.0349999517 -0.0325064063 -0.0325063765
v 0.0289999619 -0.0367695466 -0.036769554
v 0.0341961272 -0.0346379876 -0.0346379653
v 0.0319999531 -0.0361983851 -0.0361983962
v -0.0350000598 -0.0382234678 -0.0255401041
v -0.0290000364 -0.0432364121 -0.0288896523
v -0.0341961905 -0.0407299399 -0.0272148773
v -0.0320000537 -0.0425647944 -0.0284408964
v 0.0349999443 -0.0382234678 -0.0255401116
v 0.0289999768 -0.0432364121 -0.0288896561
v 0.0341960713 -0.0407299474 -0.0272148848
v 0.0319999866 -0.0425648093 -0.028440902
v -0.0349999815 -0.0424716398 -0.0175923314
v -0.029000029 -0.0480417311 -0.0198995378
v -0.0341961794 -0.0452566817 -0.0187459327
v -0.0320000127 -0.0472954884 -0.0195904281
v 0.0350000262 -0.04247161 -0.0175923407
v 0.0289999843 -0.0480417088 -0.0198995415
v 0.0341960862 -0.0452566817 -0.018745942
v 0.031999968 -0.0472954661 -0.0195904355
v -0.0350000262 -0.0450876355 -0.00896848552
v -0.0289999768 -0.051000841 -0.0101446956
v -0.0341962054 -0.048044242 -0.00955658965
v -0.0320000015 -0.0502086133 -0.00998711213
v 0.0349999182 -0.0450876281 -0.00896848831
v 0.0289999768 -0.0510008186 -0.0101446994
v 0.0341961235 -0.0480442345 -0.00955659337
v 0.0319999754 -0.0502086207 -0.00998711586
v -0.0349999964 -0.0459709838 1.86264515e-09
v -0.0290000513 -0.0519999936 1.86264515e-09
v -0.0341961645 -0.0489854813 1.86264515e-09
v -0.0320000276 -0.0511922613 1.86264515e-09
v 0.0349999517 -0.0459709764 -1.86264515e-09
v 0.0289999619 -0.0519999787 -1.86264515e-09
v 0.034196157 -0.0489854813 -1.86264515e-09
v 0.0320000127 -0.0511922613 -1.86264515e-09
v -0.0350000262 -0.0450876355 0.00896848738
v -0.0289999768 -0.051000841 0.0101446994
v -0.0341962054 -0.048044242 0.00955659151
v -0.0320000015 -0.0502086133 0.00998711586
v 0.0349999778 -0.0450876355 0.00896848552
v 0.0289999768 -0.0510008186 0.0101446956
v 0.0341961235 -0.0480442345 0.00955659151
v 0.0319999754 -0.0502086207 0.00998711213
v -0.0349999815 -0.0424716398 0.0175923333
v -0.029000029 -0.0480417311 0.0198995396
v -0.0341961794 -0.0452566817 0.0187459365
v -0.0320000127 -0.0472954884 0.0195904337
v 0.0350000225 -0.0424716398 0.0175923184
v 0.0289999843 -0.0480417088 0.0198995396
v 0.0341960862 -0.0452566817 0.018745929
v 0.031999968 -0.0472954661 0.01959043
v -0.0350000001 -0.0382234752 0.0255400985
v -0.0290000364 -0.0432364121 0.0288896561
v -0.0341961905 -0.0407299399 0.0272148773
v -0.0320000537 -0.0425647944 0.0284409001
v 0.0349999443 -0.0382234678 0.0255401023
v 0.0289999768 -0.0432364121 0.0288896523
v 0.0341961309 -0.0407299548 0.0272148773
v 0.0319999866 -0.0425648093 0.0284408964
v -0.0349999964 -0.032506384 0.0325063914
v -0.0290000513 -0.0367695466 0.036769554
v -0.0341961347 -0.0346379876 0.0346379727
v -0.0320000239 -0.0361984074 0.0361984
v 0.0349999554 -0.0325063765 0.0325063951
v 0.0289999619 -0.0367695466 0.036769554
v 0.0341961309 -0.0346379578 0.0346379727
v 0.0319999531 -0.0361983851 0.0361983962
v -0.0350000225 -0.025540106 0.038223464
v -0.0290000476 -0.0288896561 0.0432364196
v -0.0341962054 -0.0272148624 0.0407299399
v -0.0320000276 -0.0284409001 0.0425648093
v 0.0349999219 -0.0255400985 0.038223464
v 0.0289999619 -0.0288896561 0.0432364196
v 0.034196116 -0.0272148773 0.0407299399
v 0.0320000127 -0.0284409076 0.0425648093
v -0.0350000262 -0.0175923184 0.0424716398
v -0.0290000439 -0.0198995546 0.0480417311
v -0.0341961458 -0.0187459365 0.0452566892
v -0.0320000127 -0.0195904076 0.0472954884
v 0.0349999815 -0.0175923184 0.0424716398
v 0.0289999694 -0.0198995471 0.0480417311
v 0.034196116 -0.0187459439 0.0452566892
v 0.031999968 -0.0195904151 0.0472954884
v -0.0350000188 -0.00896850973 0.0450876504
v -0.0290000252 -0.0101446882 0.0510008335
v -0.0341961645 -0.00955658406 0.048044242
v -0.0320000201 -0.00998713076 0.0502086133
v 0.0349999927 -0.00896847993 0.0450876504
v 0.0289999247 -0.0101446807 0.0510008335
v 0.034196157 -0.00955659896 0.048044242
v 0.0319999568 -0.00998711586 0.0502086133
v -0.0350000151 -1.49011612e-08 0.0459709689
v -0.0289999843 -7.4505806e-09 0.0520000011
v -0.0341961719 7.4505806e-09 0.0489854887
v -0.0319999978 7.4505806e-09 0.0511922687
v 0.0349999964 1.49011612e-08 0.0459709689
v 0.0289999656 7.4505806e-09 0.0520000011
v 0.0341961533 -7.4505806e-09 0.0489854887
v 0.0319999792 -7.4505806e-09 0.0511922687
v -0.0350000113 0.00896847993 0.0450876504
v -0.0290000029 0.0101446807 0.0510008335
v -0.0341961756 0.00955659896 0.048044242
v -0.0319999754 0.00998711586 0.0502086133
v 0.0350000001 0.00896850973 0.0450876504
v 0.028999947 0.0101446882 0.0510008335
v 0.0341961458 0.00955658406 0.048044242
v 0.0320000015 0.00998713076 0.0502086133
v -0.0350000001 0.0175923109 0.0424716398
v -0.0289999843 0.0198995471 0.0480417311
v -0.0341961347 0.0187459439 0.0452566892
v -0.0319999866 0.0195904151 0.0472954884
v 0.0350000076 0.0175923109 0.0424716398
v 0.0289999656 0.0198995546 0.0480417311
v 0.0341961272 0.0187459067 0.0452566892
v 0.0319999941 0.0195904076 0.0472954884
v -0.0350000001 0.0255400985 0.038223464
v -0.0290000401 0.0288896561 0.0432364196
v -0.0341961943 0.0272148773 0.0407299399
v -0.0320000313 0.0284409076 0.0425648093
v 0.0349999443 0.025540106 0.038223464
v 0.0289999694 0.0288896263 0.0432364196
v 0.0341961272 0.0272148624 0.0407299399
v 0.0319999494 0.0284409001 0.0425648093
v -0.03500003 0.0325064063 0.0325063765
v -0.0290000401 0.0367695466 0.036769554
v -0.0341961458 0.0346379876 0.0346379653
v -0.0320000313 0.0361983851 0.0361983962
v 0.0349999145 0.0325063542 0.0325064026
v 0.0289999731 0.0367695466 0.036769554
v 0.034196116 0.0346379578 0.0346379802
v 0.0319999456 0.0361984074 0.0361984
v -0.0350000225 0.0382234603 0.0255401134
v -0.029000055 0.0432364121 0.0288896561
v -0.0341962092 0.0407299548 0.0272148848
v -0.0320000052 0.0425648019 0.0284409001
v 0.0349999815 0.0382234603 0.025540106
v 0.0289999582 0.0432364121 0.0288896523
v 0.0341961123 0.0407299399 0.0272148773
v 0.0319999754 0.0425647944 0.0284408964
v -0.0350000449 0.04247161 0.0175923407
v -0.0290000625 0.0480417088 0.0198995396
v -0.0341961645 0.0452566817 0.0187459439
v -0.0320000462 0.0472954661 0.0195904374
v 0.0349999629 0.0424716398 0.0175923333
v 0.0290000103 0.0480417088 0.0198995396
v 0.0341961011 0.0452566817 0.0187459327
v 0.0319999941 0.0472954586 0.01959043
v -0.0349999964 0.0450876281 0.00896848738
v -0.0289999954 0.0510008186 0.0101446994
v -0.0341961384 0.0480442345 0.00955659151
v -0.0319999941 0.0502086207 0.00998711586
v 0.034999948 0.0450876355 0.00896848552
v 0.0289999582 0.0510008261 0.0101446956
v 0.0341961868 0.0480442271 0.00955659151
v 0.0319999829 0.0502086133 0.00998711213
usemtl dark_rubber_wheels_005
f 250 254 6 2
f 18 22 30 26
f 26 30 38 34
f 34 38 46 42
f 42 46 54 50
f 50 54 62 58
f 58 62 70 66
f 66 70 78 74
f 74 78 86 82
f 82 86 94 90
f 90 94 102 98
f 98 102 110 106
f 106 110 118 114
f 114 118 126 122
f 122 126 134 130
f 130 134 142 138
f 138 142 150 146
f 146 150 158 154
f 154 158 166 162
f 162 166 174 170
f 170 174 182 178
f 178 182 190 186
f 186 190 198 194
f 194 198 206 202
f 202 206 214 210
f 210 214 222 218
f 218 222 230 226
f 226 230 238 234
f 234 238 246 242
f 242 246 254 250
f 10 14 22 18
f 13 5 253 245 237 229 221 213 205 197 189 181 173 165 157 149 141 133 125 117 109 101 93 85 77 69 61 53 45 37 29 21
f 2 6 14 10
f 2 10 12 4
f 4 12 11 3
f 3 11 9 1
f 14 6 8 16
f 16 8 7 15
f 15 7 5 13
f 10 18 20 12
f 12 20 19 11
f 11 19 17 9
f 22 14 16 24
f 24 16 15 23
f 23 15 13 21
f 18 26 28 20
f 20 28 27 19
f 19 27 25 17
f 30 22 24 32
f 32 24 23 31
f 31 23 21 29
f 26 34 36 28
f 28 36 35 27
f 27 35 33 25
f 38 30 32 40
f 40 32 31 39
f 39 31 29 37
f 34 42 44 36
f 36 44 43 35
f 35 43 41 33
f 46 38 40 48
f 48 40 39 47
f 47 39 37 45
f 42 50 52 44
f 44 52 51 43
f 43 51 49 41
f 54 46 48 56
f 56 48 47 55
f 55 47 45 53
f 50 58 60 52
f 52 60 59 51
f 51 59 57 49
f 62 54 56 64
f 64 56 55 63
f 63 55 53 61
f 58 66 68 60
f 60 68 67 59
f 59 67 65 57
f 70 62 64 72
f 72 64 63 71
f 71 63 61 69
f 66 74 76 68
f 68 76 75 67
f 67 75 73 65
f 78 70 72 80
f 80 72 71 79
f 79 71 69 77
f 74 82 84 76
f 76 84 83 75
f 75 83 81 73
f 86 78 80 88
f 88 80 79 87
f 87 79 77 85
f 82 90 92 84
f 84 92 91 83
f 83 91 89 81
f 94 86 88 96
f 96 88 87 95
f 95 87 85 93
f 90 98 100 92
f 92 100 99 91
f 91 99 97 89
f 102 94 96 104
f 104 96 95 103
f 103 95 93 101
f 98 106 108 100
f 100 108 107 99
f 99 107 105 97
f 110 102 104 112
f 112 104 103 111
f 111 103 101 109
f 106 114 116 108
f 108 116 115 107
f 107 115 113 105
f 118 110 112 120
f 120 112 111 119
f 119 111 109 117
f 114 122 124 116
f 116 124 123 115
f 115 123 121 113
f 126 118 120 128
f 128 120 119 127
f 127 119 117 125
f 122 130 132 124
f 124 132 131 123
f 123 131 129 121
f 134 126 128 136
f 136 128 127 135
f 135 127 125 133
f 130 138 140 132
f 132 140 139 131
f 131 139 137 129
f 142 134 136 144
f 144 136 135 143
f 143 135 133 141
f 138 146 148 140
f 140 148 147 139
f 139 147 145 137
f 150 142 144 152
f 152 144 143 151
f 151 143 141 149
f 146 154 156 148
f 148 156 155 147
f 147 155 153 145
f 158 150 152 160
f 160 152 151 159
f 159 151 149 157
f 154 162 164 156
f 156 164 163 155
f 155 163 161 153
f 166 158 160 168
f 168 160 159 167
f 167 159 157 165
f 162 170 172 164
f 164 172 171 163
f 163 171 169 161
f 174 166 168 176
f 176 168 167 175
f 175 167 165 173
f 170 178 180 172
f 172 180 179 171
f 171 179 177 169
f 182 174 176 184
f 184 176 175 183
f 183 175 173 181
f 178 186 188 180
f 180 188 187 179
f 179 187 185 177
f 190 182 184 192
f 192 184 183 191
f 191 183 181 189
f 186 194 196 188
f 188 196 195 187
f 187 195 193 185
f 198 190 192 200
f 200 192 191 199
f 199 191 189 197
f 194 202 204 196
f 196 204 203 195
f 195 203 201 193
f 206 198 200 208
f 208 200 199 207
f 207 199 197 205
f 202 210 212 204
f 204 212 211 203
f 203 211 209 201
f 214 206 208 216
f 216 208 207 215
f 215 207 205 213
f 210 218 220 212
f 212 220 219 211
f 211 219 217 209
f 222 214 216 224
f 224 216 215 223
f 223 215 213 221
f 218 226 228 220
f 220 228 227 219
f 219 227 225 217
f 230 222 224 232
f 232 224 223 231
f 231 223 221 229
f 226 234 236 228
f 228 236 235 227
f 227 235 233 225
f 238 230 232 240
f 240 232 231 239
f 239 231 229 237
f 234 242 244 236
f 236 244 243 235
f 235 243 241 233
f 246 238 240 248
f 248 240 239 247
f 247 239 237 245
f 242 250 252 244
f 244 252 251 243
f 243 251 249 241
f 254 246 248 256
f 256 248 247 255
f 255 247 245 253
f 250 2 4 252
f 252 4 3 251
f 251 3 1 249
f 6 254 256 8
f 8 256 255 7
f 7 255 253 5
f 1 9 17 25 33 41 49 57 65 73 81 89 97 105 113 121 129 137 145 153 161 169 177 185 193 201 209 217 225 233 241 249
