mtllib caster_04_bracket_link.mtl
o caster_04_bracket_link
v -0.0490000136 -0.0344999805 -0.0860000104
v -0.048999995 -0.037499994 -0.0830000117
v -0.0520000309 -0.0344999991 -0.0830000117
v -0.048999995 -0.037499994 -0.0190000087
v -0.0490000136 -0.0344999805 -0.0160000101
v -0.0520000309 -0.0344999991 -0.0190000087
v -0.0489999987 0.0345000103 -0.0860000104
v -0.052000016 0.0345000066 -0.0830000117
v -0.0490000173 0.0375000127 -0.0830000117
v -0.0489999987 0.0345000103 -0.0160000101
v -0.0490000173 0.0375000127 -0.0190000087
v -0.052000016 0.0345000066 -0.0190000087
v -0.0430000201 -0.0344999954 -0.0860000104
v -0.0399999991 -0.0344999768 -0.0830000117
v -0.0430000275 -0.0374999978 -0.0830000117
v -0.0430000201 -0.0344999954 -0.0160000101
v -0.0430000275 -0.0374999978 -0.0190000087
v -0.0399999991 -0.0344999768 -0.0190000087
v -0.0430000015 0.0345000103 -0.0860000104
v -0.0430000201 0.0375000238 -0.0830000117
v -0.0399999842 0.034500014 -0.0830000117
v -0.0430000015 0.0345000103 -0.0160000101
v -0.0399999842 0.034500014 -0.0190000087
v -0.0430000201 0.0375000238 -0.0190000087
v 0.0430000126 -0.0345000103 -0.0860000104
v 0.0429999903 -0.0375000052 -0.0830000117
v 0.0399999991 -0.034500014 -0.0830000117
v 0.0429999903 -0.0375000052 -0.0190000087
v 0.0429999977 -0.0345000103 -0.0160000101
v 0.0399999991 -0.034500014 -0.0190000087
v 0.0429999977 0.0345000029 -0.0860000104
v 0.0399999991 0.0344999954 -0.0830000117
v 0.0430000052 0.037499994 -0.0830000117
v 0.0429999977 0.0345000029 -0.0160000101
v 0.0430000052 0.037499994 -0.0190000087
v 0.0399999991 0.0344999954 -0.0190000087
v 0.0490000099 -0.0345000103 -0.0860000104
v 0.0519999936 -0.0345000029 -0.0830000117
v 0.0489999875 -0.0375000089 -0.0830000117
v 0.0490000099 -0.0345000103 -0.0160000101
v 0.0489999875 -0.0375000089 -0.0190000087
v 0.0519999936 -0.0345000029 -0.0190000087
v 0.0489999801 0.0344999991 -0.0860000104
v 0.0490000062 0.0375000089 -0.0830000117
v 0.0519999973 0.0345000029 -0.0830000117
v 0.048999995 0.0344999954 -0.0160000101
v 0.0519999973 0.0345000029 -0.0190000087
v 0.0490000062 0.0375000089 -0.0190000087
v -0.0530000106 -0.0319999978 -0.0180000141
v -0.0529999919 -0.0349999964 -0.015000008
v -0.0560000278 -0.0320000015 -0.015000008
v -0.0529999919 -0.0349999964 -0.00300001353
v -0.0530000106 -0.0319999978 -7.4505806e-09
v -0.0560000278 -0.0320000015 -0.00300001353
v -0.0529999994 0.0320000127 -0.0180000141
v -0.0560000129 0.0320000201 -0.015000008
v -0.0529999919 0.0350000076 -0.015000008
v -0.0529999994 0.0320000127 -7.4505806e-09
v -0.0529999919 0.0350000076 -0.00300001353
v -0.0560000129 0.0320000201 -0.00300001353
v 0.0530000106 -0.0319999978 -0.0180000141
v 0.0560000092 -0.0320000052 -0.015000008
v 0.0529999882 -0.0349999927 -0.015000008
v 0.0530000106 -0.0319999978 -7.4505806e-09
v 0.0529999882 -0.0349999927 -0.00300001353
v 0.0560000092 -0.0320000052 -0.00300001353
v 0.0530000106 0.0319999978 -0.0180000141
v 0.0530000031 0.0350000113 -0.015000008
v 0.0560000092 0.0320000201 -0.015000008
v 0.0530000106 0.0319999978 -7.4505806e-09
v 0.0560000092 0.0320000201 -0.00300001353
v 0.0530000031 0.0350000113 -0.00300001353
v 0.0018056538 0.0128478557 -0.0350000188
v 0.00222677737 0.0158443004 -0.0320000127
v 0.0018056538 0.0128478557 0.034999989
v 0.00222677737 0.0158443004 0.0319999829
v 0.00506939553 0.0119427387 -0.0350000188
v 0.00625170022 0.0147280861 -0.0320000127
v 0.00506939553 0.0119427387 0.034999989
v 0.00625170022 0.0147280861 0.0319999829
v 0.00798766315 0.0102237388 -0.0350000188
v 0.00985058956 0.0126081854 -0.0320000127
v 0.00798766315 0.0102237388 0.034999989
v 0.00985058956 0.0126081854 0.0319999829
v 0.010361582 0.00780802034 -0.0350000188
v 0.0127781723 0.00962903909 -0.0320000127
v 0.010361582 0.00780802034 0.034999989
v 0.0127781723 0.00962903909 0.0319999829
v 0.0120293926 0.00486019999 -0.0350000188
v 0.014834946 0.00599370338 -0.0320000127
v 0.0120293926 0.00486019999 0.034999989
v 0.014834946 0.00599370338 0.0319999829
v 0.012877401 0.00158114731 -0.0350000188
v 0.0158807393 0.00194991939 -0.0320000127
v 0.012877401 0.00158114731 0.034999989
v 0.0158807393 0.00194991939 0.0319999829
v 0.0128478464 -0.00180564821 -0.0350000188
v 0.0158442911 -0.00222676992 -0.0320000127
v 0.0128478464 -0.00180564821 0.034999989
v 0.0158442911 -0.00222676992 0.0319999829
v 0.0119427294 -0.00506938994 -0.0350000188
v 0.0147280768 -0.00625169463 -0.0320000127
v 0.0119427294 -0.00506938994 0.034999989
v 0.0147280768 -0.00625169463 0.0319999829
v 0.0102237444 -0.0079876557 -0.0350000188
v 0.0126081761 -0.00985058211 -0.0320000127
v 0.0102237444 -0.0079876557 0.034999989
v 0.0126081761 -0.00985058211 0.0319999829
v 0.00780801289 -0.0103615765 -0.0350000188
v 0.00962904468 -0.0127781648 -0.0320000127
v 0.00780801289 -0.0103615765 0.034999989
v 0.00962904468 -0.0127781648 0.0319999829
v 0.00486019067 -0.0120293871 -0.0350000188
v 0.00599370897 -0.0148349404 -0.0320000127
v 0.00486019067 -0.0120293871 0.034999989
v 0.00599370897 -0.0148349404 0.0319999829
v 0.0015811529 -0.0128773954 -0.0350000188
v 0.00194991194 -0.0158807319 -0.0320000127
v 0.0015811529 -0.0128773954 0.034999989
v 0.00194991194 -0.0158807319 0.0319999829
v -0.00180564076 -0.0128478408 -0.0350000188
v -0.00222676434 -0.0158442855 -0.0320000127
v -0.00180564076 -0.0128478408 0.034999989
v -0.00222676434 -0.0158442855 0.0319999829
v -0.00506938435 -0.0119427219 -0.0350000188
v -0.00625170209 -0.0147280693 -0.0320000127
v -0.00506938435 -0.0119427219 0.034999989
v -0.00625170209 -0.0147280693 0.0319999829
v -0.00798766501 -0.0102237388 -0.0350000188
v -0.00985059142 -0.0126081705 -0.0320000127
v -0.00798766501 -0.0102237388 0.034999989
v -0.00985059142 -0.0126081705 0.0319999829
v -0.0103615839 -0.0078080073 -0.0350000188
v -0.0127781592 -0.00962903723 -0.0320000127
v -0.0103615839 -0.0078080073 0.034999989
v -0.0127781592 -0.00962903723 0.0319999829
v -0.0120293815 -0.00486018509 -0.0350000188
v -0.0148349497 -0.00599370152 -0.0320000127
v -0.0120293815 -0.00486018509 0.034999989
v -0.0148349497 -0.00599370152 0.0319999829
v -0.0128774047 -0.00158114731 -0.0350000188
v -0.0158807412 -0.00194990635 -0.0320000127
v -0.0128774047 -0.00158114731 0.034999989
v -0.0158807412 -0.00194990635 0.0319999829
v -0.0128478501 0.00180564821 -0.0350000188
v -0.0158442948 0.00222676992 -0.0320000127
v -0.0128478501 0.00180564821 0.034999989
v -0.0158442948 0.00222676992 0.0319999829
v -0.0119427331 0.00506938994 -0.0350000188
v -0.0147280786 0.00625170767 -0.0320000127
v -0.0119427331 0.00506938994 0.034999989
v -0.0147280786 0.00625170767 0.0319999829
v -0.0102237333 0.0079876706 -0.0350000188
v -0.0126081798 0.00985058397 -0.0320000127
v -0.0102237333 0.0079876706 0.034999989
v -0.0126081798 0.00985058397 0.0319999829
v -0.00780801475 0.0103615895 -0.0350000188
v -0.00962903164 0.0127781667 -0.0320000127
v -0.00780801475 0.0103615895 0.034999989
v -0.00962903164 0.0127781667 0.0319999829
v -0.00486019254 0.0120293871 -0.0350000188
v -0.00599371083 0.0148349553 -0.0320000127
v -0.00486019254 0.0120293871 0.034999989
v -0.00599371083 0.0148349553 0.0319999829
v -0.00158114173 0.0128774121 -0.0350000188
v -0.0019499138 0.0158807486 -0.0320000127
v -0.00158114173 0.0128774121 0.034999989
v -0.0019499138 0.0158807486 0.0319999829
usemtl charcoal_caster_brackets_005
f 15 17 4 2
f 21 23 18 14
f 31 43 37 25
f 22 10 5 16
f 3 6 12 8
f 9 11 24 20
f 39 41 28 26
f 45 47 42 38
f 55 67 61 49
f 46 34 29 40
f 27 30 36 32
f 33 35 48 44
f 63 65 52 50
f 69 71 66 62
f 73 77 81 85 89 93 97 101 105 109 113 117 121 125 129 133 137 141 145 149 153 157 161 165
f 70 58 53 64
f 51 54 60 56
f 57 59 72 68
f 166 168 76 74
f 82 84 88 86
f 86 88 92 90
f 90 92 96 94
f 94 96 100 98
f 98 100 104 102
f 102 104 108 106
f 106 108 112 110
f 110 112 116 114
f 114 116 120 118
f 118 120 124 122
f 122 124 128 126
f 126 128 132 130
f 130 132 136 134
f 134 136 140 138
f 138 140 144 142
f 142 144 148 146
f 146 148 152 150
f 150 152 156 154
f 154 156 160 158
f 158 160 164 162
f 162 164 168 166
f 78 80 84 82
f 79 75 167 163 159 155 151 147 143 139 135 131 127 123 119 115 111 107 103 99 95 91 87 83
f 74 76 80 78
f 1 2 3
f 4 5 6
f 7 8 9
f 10 11 12
f 13 14 15
f 16 17 18
f 19 20 21
f 22 23 24
f 25 26 27
f 28 29 30
f 31 32 33
f 34 35 36
f 37 38 39
f 40 41 42
f 43 44 45
f 46 47 48
f 49 50 51
f 52 53 54
f 55 56 57
f 58 59 60
f 61 62 63
f 64 65 66
f 67 68 69
f 70 71 72
f 7 1 3 8
f 2 4 6 3
f 5 10 12 6
f 11 9 8 12
f 19 7 9 20
f 10 22 24 11
f 23 21 20 24
f 13 19 21 14
f 22 16 18 23
f 17 15 14 18
f 1 13 15 2
f 16 5 4 17
f 31 25 27 32
f 26 28 30 27
f 29 34 36 30
f 35 33 32 36
f 43 31 33 44
f 34 46 48 35
f 47 45 44 48
f 37 43 45 38
f 46 40 42 47
f 41 39 38 42
f 25 37 39 26
f 40 29 28 41
f 55 49 51 56
f 50 52 54 51
f 53 58 60 54
f 59 57 56 60
f 67 55 57 68
f 58 70 72 59
f 71 69 68 72
f 61 67 69 62
f 70 64 66 71
f 65 63 62 66
f 49 61 63 50
f 64 53 52 65
f 74 78 77 73
f 80 76 75 79
f 78 82 81 77
f 84 80 79 83
f 82 86 85 81
f 88 84 83 87
f 86 90 89 85
f 92 88 87 91
f 90 94 93 89
f 96 92 91 95
f 94 98 97 93
f 100 96 95 99
f 98 102 101 97
f 104 100 99 103
f 102 106 105 101
f 108 104 103 107
f 106 110 109 105
f 112 108 107 111
f 110 114 113 109
f 116 112 111 115
f 114 118 117 113
f 120 116 115 119
f 118 122 121 117
f 124 120 119 123
f 122 126 125 121
f 128 124 123 127
f 126 130 129 125
f 132 128 127 131
f 130 134 133 129
f 136 132 131 135
f 134 138 137 133
f 140 136 135 139
f 138 142 141 137
f 144 140 139 143
f 142 146 145 141
f 148 144 143 147
f 146 150 149 145
f 152 148 147 151
f 150 154 153 149
f 156 152 151 155
f 154 158 157 153
f 160 156 155 159
f 158 162 161 157
f 164 160 159 163
f 162 166 165 161
f 168 164 163 167
f 166 74 73 165
f 76 168 167 75
f 7 19 13 1
