mtllib tray_04_link.mtl
o tray_04_link
v -0.311000079 -0.320000023 0.0189999938
v -0.330000043 -0.301000029 0.0189999938
v -0.311000049 -0.301000029 0
v -0.316872478 -0.319069743 0.0189999938
v -0.322166115 -0.316372693 0.0189999938
v -0.311000079 -0.319069743 0.0131275654
v -0.31706211 -0.317968041 0.0129718781
v -0.321908802 -0.315421939 0.0131683946
v -0.311000079 -0.316372693 0.00783395767
v -0.316846728 -0.315408468 0.00808155537
v -0.321053296 -0.313604146 0.00894671679
v -0.329069763 -0.301000059 0.0131275654
v -0.326372743 -0.301000059 0.00783395767
v -0.329069763 -0.306872457 0.0189999938
v -0.327968061 -0.307028115 0.012937963
v -0.325421959 -0.306831658 0.00809127092
v -0.326372743 -0.312166095 0.0189999938
v -0.325408489 -0.311918467 0.0131533146
v -0.323604167 -0.311053276 0.00894671679
v -0.311000049 -0.306872427 0.000930309296
v -0.311000079 -0.312166095 0.00362730026
v -0.316872478 -0.301000029 0.000930309296
v -0.317028165 -0.307062089 0.00203198195
v -0.316831678 -0.311908782 0.00457811356
v -0.322166115 -0.301000059 0.00362730026
v -0.321918488 -0.306846708 0.0045915246
v -0.321053326 -0.311053276 0.00639587641
v 0.771000028 -0.319999963 0.0189999938
v 0.771000028 -0.300999999 0
v 0.790000021 -0.300999939 0.0189999938
v 0.771000087 -0.319069654 0.0131275654
v 0.771000087 -0.316372663 0.00783395767
v 0.776872516 -0.319069713 0.0189999938
v 0.777028143 -0.317968011 0.012937963
v 0.776831686 -0.315421849 0.00809127092
v 0.782166064 -0.316372603 0.0189999938
v 0.781918526 -0.315408379 0.0131533146
v 0.781053305 -0.313604146 0.00894671679
v 0.776872516 -0.300999939 0.000930309296
v 0.782166123 -0.30099991 0.00362730026
v 0.771000028 -0.306872398 0.000930309296
v 0.777062178 -0.307028025 0.00203198195
v 0.78190881 -0.306831568 0.00457811356
v 0.771000087 -0.312166005 0.00362730026
v 0.776846766 -0.311918408 0.0045915246
v 0.781053305 -0.311053216 0.00639587641
v 0.789069772 -0.306872368 0.0189999938
v 0.786372721 -0.312166005 0.0189999938
v 0.789069772 -0.30099991 0.0131275654
v 0.78796804 -0.30706197 0.0129718781
v 0.785421968 -0.311908692 0.0131683946
v 0.786372781 -0.300999969 0.00783395767
v 0.785408497 -0.306846648 0.00808155537
v 0.783604145 -0.311053216 0.00894671679
v 0.771000028 0.301000059 0
v 0.771000087 0.319999993 0.0189999938
v 0.790000081 0.300999999 0.0189999938
v 0.771000087 0.306872487 0.000930309296
v 0.771000028 0.312166095 0.00362730026
v 0.776872516 0.301000059 0.000930309296
v 0.777028203 0.307062149 0.00203198195
v 0.776831686 0.311908782 0.00457811356
v 0.782166123 0.301000059 0.00362730026
v 0.781918526 0.306846738 0.0045915246
v 0.781053424 0.311053306 0.00639587641
v 0.776872516 0.319069773 0.0189999938
v 0.782166123 0.316372722 0.0189999938
v 0.771000087 0.319069743 0.0131275654
v 0.777062178 0.317968041 0.0129718781
v 0.78190881 0.315421939 0.0131683946
v 0.771000087 0.316372752 0.00783395767
v 0.776846766 0.315408528 0.00808155537
v 0.781053305 0.313604176 0.00894671679
v 0.789069831 0.301000059 0.0131275654
v 0.786372781 0.301000088 0.00783395767
v 0.789069831 0.306872487 0.0189999938
v 0.787968099 0.307028174 0.012937963
v 0.785421968 0.306831658 0.00809127092
v 0.786372781 0.312166095 0.0189999938
v 0.785408616 0.311918497 0.0131533146
v 0.783604264 0.311053336 0.00894671679
v -0.330000043 0.301000029 0.0189999938
v -0.311000049 0.319999993 0.0189999938
v -0.311000049 0.300999999 0
v -0.329069734 0.306872457 0.0189999938
v -0.326372713 0.312166065 0.0189999938
v -0.329069734 0.301000029 0.0131275654
v -0.327968061 0.30706206 0.0129718781
v -0.325421929 0.311908752 0.0131683946
v -0.326372713 0.300999999 0.00783395767
v -0.325408489 0.306846678 0.00808155537
v -0.323604167 0.311053246 0.00894671679
v -0.311000049 0.319069713 0.0131275654
v -0.311000049 0.316372693 0.00783395767
v -0.316872478 0.319069713 0.0189999938
v -0.317028135 0.317968011 0.012937963
v -0.316831648 0.315421909 0.00809127092
v -0.322166085 0.316372693 0.0189999938
v -0.321918488 0.315408468 0.0131533146
v -0.321053296 0.313604116 0.00894671679
v -0.316872478 0.301000029 0.000930309296
v -0.322166085 0.301000029 0.00362730026
v -0.311000049 0.306872427 0.000930309296
v -0.31706208 0.307028115 0.00203198195
v -0.321908772 0.306831628 0.00457811356
v -0.311000049 0.312166095 0.00362730026
v -0.316846728 0.311918437 0.0045915246
v -0.321053296 0.311053276 0.00639587641
v -0.311000079 -0.320000023 0.156000018
v -0.311000049 -0.301000029 0.174999952
v -0.330000043 -0.301000029 0.156000018
v -0.311000079 -0.319069743 0.161872387
v -0.311000079 -0.316372722 0.167165995
v -0.316872478 -0.319069743 0.156000018
v -0.317028135 -0.317968041 0.162062049
v -0.316831678 -0.315421939 0.166908741
v -0.322166115 -0.316372693 0.156000018
v -0.321918517 -0.315408498 0.161846638
v -0.321053296 -0.313604176 0.166053295
v -0.316872448 -0.301000059 0.174069762
v -0.322166085 -0.301000029 0.171372652
v -0.311000049 -0.306872457 0.174069762
v -0.31706208 -0.307028115 0.17296803
v -0.321908802 -0.306831658 0.170421958
v -0.311000079 -0.312166095 0.171372652
v -0.316846728 -0.311918497 0.170408487
v -0.321053326 -0.311053276 0.168604136
v -0.329069763 -0.306872457 0.156000018
v -0.326372743 -0.312166095 0.156000018
v -0.329069763 -0.301000059 0.161872387
v -0.327968091 -0.307062119 0.162028074
v -0.325421959 -0.311908782 0.161831617
v -0.326372743 -0.301000059 0.167165995
v -0.325408489 -0.306846738 0.166918516
v -0.323604167 -0.311053276 0.166053295
v 0.771000028 -0.319999963 0.156000018
v 0.789999962 -0.300999969 0.156000018
v 0.771000028 -0.300999999 0.174999952
v 0.776872456 -0.319069713 0.156000018
v 0.782166064 -0.316372633 0.156000018
v 0.771000028 -0.319069684 0.161872387
v 0.777062118 -0.317968011 0.162028074
v 0.781908751 -0.315421879 0.161831617
v 0.771000028 -0.316372663 0.167165995
v 0.776846707 -0.315408409 0.166918516
v 0.781053305 -0.313604146 0.166053295
v 0.789069712 -0.300999939 0.161872387
v 0.786372721 -0.300999999 0.167165995
v 0.789069772 -0.306872398 0.156000018
v 0.78796804 -0.307028055 0.162062049
v 0.785421968 -0.306831628 0.166908741
v 0.786372721 -0.312166035 0.156000018
v 0.785408497 -0.311918467 0.161846638
v 0.783604145 -0.311053216 0.166053295
v 0.771000028 -0.306872398 0.174069762
v 0.771000028 -0.312166035 0.171372652
v 0.776872396 -0.300999999 0.174069762
v 0.777028084 -0.307062 0.17296803
v 0.776831627 -0.311908752 0.170421958
v 0.782166004 -0.300999939 0.171372652
v 0.781918466 -0.306846648 0.170408487
v 0.781053305 -0.311053246 0.168604136
v 0.771000087 0.319999993 0.156000018
v 0.771000028 0.301000059 0.174999952
v 0.790000081 0.300999999 0.156000018
v 0.771000087 0.319069743 0.161872387
v 0.771000087 0.316372752 0.167165995
v 0.776872516 0.319069773 0.156000018
v 0.777028203 0.317968041 0.162062049
v 0.776831746 0.315421969 0.166908741
v 0.782166123 0.316372722 0.156000018
v 0.781918585 0.315408498 0.161846638
v 0.781053305 0.313604176 0.166053295
v 0.776872516 0.301000059 0.174069762
v 0.782166123 0.301000059 0.171372652
v 0.771000087 0.306872487 0.174069762
v 0.777062118 0.307028145 0.17296803
v 0.78190887 0.306831658 0.170421958
v 0.771000028 0.312166095 0.171372652
v 0.776846826 0.311918527 0.170408487
v 0.781053424 0.311053276 0.168604136
v 0.789069831 0.306872487 0.156000018
v 0.786372781 0.312166095 0.156000018
v 0.789069831 0.301000059 0.161872387
v 0.787968099 0.307062149 0.162028074
v 0.785422027 0.311908782 0.161831617
v 0.786372781 0.301000088 0.167165995
v 0.785408497 0.306846738 0.166918516
v 0.783604264 0.311053336 0.166053295
v -0.311000049 0.319999993 0.156000018
v -0.330000043 0.301000029 0.156000018
v -0.311000049 0.301000029 0.174999952
v -0.316872448 0.319069743 0.156000018
v -0.322166085 0.316372693 0.156000018
v -0.311000049 0.319069713 0.161872387
v -0.31706208 0.317968011 0.162028074
v -0.321908772 0.315421909 0.161831617
v -0.311000049 0.316372693 0.167165995
v -0.316846699 0.315408468 0.166918516
v -0.321053267 0.313604146 0.166053295
v -0.329069734 0.301000029 0.161872387
v -0.326372683 0.300999999 0.167165995
v -0.329069734 0.306872457 0.156000018
v -0.327968061 0.307028115 0.162062049
v -0.325421929 0.306831628 0.166908741
v -0.326372713 0.312166065 0.156000018
v -0.325408489 0.311918437 0.161846638
v -0.323604167 0.311053276 0.166053295
v -0.311000049 0.306872427 0.174069762
v -0.311000049 0.312166095 0.171372652
v -0.316872448 0.301000029 0.174069762
v -0.317028135 0.307062089 0.17296803
v -0.316831648 0.311908782 0.170421958
v -0.322166085 0.301000059 0.171372652
v -0.321918488 0.306846678 0.170408487
v -0.321053296 0.311053276 0.168604136
v -0.273000032 -0.282000035 0.050999999
v -0.273000062 -0.263000071 0.0320000052
v -0.292000026 -0.263000071 0.050999999
v -0.273000032 -0.281069756 0.0451275706
v -0.273000032 -0.278372705 0.0398339629
v -0.27887246 -0.281069756 0.050999999
v -0.279028118 -0.279968083 0.0449379683
v -0.278831661 -0.277421951 0.0400912762
v -0.284166098 -0.278372735 0.050999999
v -0.28391847 -0.27740851 0.0451533198
v -0.283053279 -0.275604188 0.040946722
v -0.27887246 -0.263000071 0.0329302549
v -0.284166098 -0.263000071 0.0356273055
v -0.273000032 -0.26887247 0.0329302549
v -0.279062092 -0.269028157 0.0340319872
v -0.283908784 -0.26883167 0.0365780592
v -0.273000062 -0.274166107 0.0356273055
v -0.278846741 -0.27391848 0.0365915298
v -0.283053309 -0.273053288 0.0383958817
v -0.291069746 -0.26887247 0.050999999
v -0.288372695 -0.274166107 0.050999999
v -0.291069746 -0.263000071 0.0451275706
v -0.289968014 -0.269062102 0.0449718833
v -0.287421942 -0.273908794 0.0451683998
v -0.288372725 -0.263000041 0.0398339629
v -0.287408501 -0.26884672 0.0400815606
v -0.285604179 -0.273053288 0.040946722
v 0.73300004 -0.263000011 0.0320000052
v 0.73300004 -0.282000035 0.050999999
v 0.751999974 -0.262999982 0.050999999
v 0.73300004 -0.26887241 0.0329302549
v 0.73300004 -0.274166048 0.0356273055
v 0.738872409 -0.263000011 0.0329302549
v 0.739028096 -0.269062012 0.0340319872
v 0.738831639 -0.273908764 0.0365780592
v 0.744166076 -0.263000011 0.0356273055
v 0.743918478 -0.26884672 0.0365915298
v 0.743053317 -0.273053318 0.0383958817
v 0.738872409 -0.281069726 0.050999999
v 0.744166076 -0.278372705 0.050999999
v 0.73300004 -0.281069756 0.0451275706
v 0.739062071 -0.279968023 0.0449718833
v 0.743908763 -0.277421921 0.0451683998
v 0.73300004 -0.278372705 0.0398339629
v 0.738846719 -0.277408421 0.0400815606
v 0.743053317 -0.275604159 0.040946722
v 0.751069665 -0.263000011 0.0451275706
v 0.748372674 -0.263000011 0.0398339629
v 0.751069725 -0.26887244 0.050999999
v 0.749968052 -0.269028097 0.0449379683
v 0.74742192 -0.26883164 0.0400912762
v 0.748372674 -0.274166107 0.050999999
v 0.747408509 -0.27391848 0.0451533198
v 0.745604157 -0.273053229 0.040946722
v 0.73299998 0.263000041 0.0320000052
v 0.751999974 0.263000041 0.050999999
v 0.73299998 0.282000005 0.050999999
v 0.738872409 0.263000071 0.0329302549
v 0.744166076 0.263000011 0.0356273055
v 0.73300004 0.26887244 0.0329302549
v 0.739062011 0.269028127 0.0340319872
v 0.743908763 0.26883167 0.0365780592
v 0.73299998 0.274166077 0.0356273055
v 0.73884666 0.273918509 0.0365915298
v 0.743053257 0.273053288 0.0383958817
v 0.751069665 0.26887244 0.050999999
v 0.748372674 0.274166107 0.050999999
v 0.751069725 0.263000071 0.0451275706
v 0.749968052 0.269062102 0.0449718833
v 0.74742192 0.273908764 0.0451683998
v 0.748372734 0.263000071 0.0398339629
v 0.74740845 0.26884672 0.0400815606
v 0.745604098 0.273053288 0.040946722
v 0.73299998 0.281069696 0.0451275706
v 0.73300004 0.278372705 0.0398339629
v 0.738872409 0.281069756 0.050999999
v 0.739028096 0.279968053 0.0449379683
v 0.738831639 0.277421951 0.0400912762
v 0.744166076 0.278372705 0.050999999
v 0.743918419 0.277408481 0.0451533198
v 0.743053257 0.275604159 0.040946722
v -0.273000002 0.263000041 0.0320000052
v -0.273000032 0.282000005 0.050999999
v -0.291999996 0.263000011 0.050999999
v -0.273000002 0.26887241 0.0329302549
v -0.273000032 0.274166077 0.0356273055
v -0.27887243 0.263000011 0.0329302549
v -0.279028088 0.269062072 0.0340319872
v -0.278831631 0.273908734 0.0365780592
v -0.284166038 0.263000011 0.0356273055
v -0.28391844 0.268846691 0.0365915298
v -0.283053249 0.273053259 0.0383958817
v -0.27887243 0.281069696 0.050999999
v -0.284166038 0.278372675 0.050999999
v -0.273000032 0.281069696 0.0451275706
v -0.279062063 0.279967993 0.0449718833
v -0.283908755 0.277421892 0.0451683998
v -0.273000002 0.278372675 0.0398339629
v -0.278846681 0.277408451 0.0400815606
v -0.283053249 0.275604129 0.040946722
v -0.291069716 0.263000011 0.0451275706
v -0.288372666 0.262999982 0.0398339629
v -0.291069716 0.26887244 0.050999999
v -0.289968014 0.269028097 0.0449379683
v -0.287421912 0.268831611 0.0400912762
v -0.288372666 0.274166048 0.050999999
v -0.287408471 0.27391842 0.0451533198
v -0.285604119 0.273053259 0.040946722
v -0.273000032 -0.282000035 0.156000018
v -0.292000026 -0.263000071 0.156000018
v -0.311000019 -0.300999999 0.174999952
v -0.27884531 -0.28098622 0.156000018
v -0.284131676 -0.278325379 0.156000018
v -0.279821634 -0.283005089 0.161816597
v -0.283948958 -0.282072961 0.161704063
v -0.287333786 -0.280089438 0.161631227
v -0.287798792 -0.285671264 0.167127609
v -0.289278835 -0.283950269 0.166736007
v -0.290480554 -0.281998366 0.166140079
v -0.293005109 -0.269821674 0.161816597
v -0.295671254 -0.277798802 0.16712749
v -0.29098618 -0.26884532 0.156000018
v -0.291913062 -0.273869127 0.161736965
v -0.293899417 -0.279246539 0.166754603
v -0.28832534 -0.274131715 0.156000018
v -0.290038109 -0.27731514 0.161631227
v -0.291998357 -0.280480534 0.166140079
v -0.304178417 -0.29518348 0.173994899
v -0.296201289 -0.289872497 0.171328783
v -0.30518353 -0.294178456 0.173994899
v -0.300150305 -0.290070057 0.172371745
v -0.294760674 -0.286668897 0.170296073
v -0.299872518 -0.286201268 0.171328783
v -0.296687633 -0.284727991 0.170244575
v -0.293520659 -0.283520669 0.168798089
v 0.752000034 -0.262999952 0.156000018
v 0.73300004 -0.282000035 0.156000018
v 0.771000028 -0.301000029 0.174999952
v 0.750986218 -0.26884526 0.156000018
v 0.748325348 -0.274131656 0.156000018
v 0.753005028 -0.269821525 0.161816478
v 0.75207293 -0.273948967 0.161704063
v 0.750089407 -0.277333796 0.161631227
v 0.755671263 -0.277798802 0.16712749
v 0.753950238 -0.279278845 0.166736007
v 0.751998365 -0.280480504 0.166140079
v 0.739821613 -0.283005059 0.161816478
v 0.747798741 -0.285671234 0.16712749
v 0.738845348 -0.28098622 0.156000018
v 0.743869126 -0.281913102 0.161736965
v 0.749246478 -0.283899307 0.166754603
v 0.744131684 -0.278325319 0.156000018
v 0.747315109 -0.280038089 0.161631227
v 0.750480533 -0.281998307 0.166140079
v 0.765183449 -0.294178426 0.173994899
v 0.759872437 -0.286201239 0.171328783
v 0.764178395 -0.29518345 0.173994899
v 0.760070086 -0.290150225 0.172371745
v 0.756668866 -0.284760594 0.170296073
v 0.756201267 -0.289872527 0.171328783
v 0.75472796 -0.286687553 0.170244575
v 0.753520608 -0.283520579 0.168798089
v 0.73299998 0.282000005 0.156000018
v 0.751999974 0.263000041 0.156000018
v 0.770999968 0.300999999 0.174999952
v 0.738845289 0.28098619 0.156000018
v 0.744131684 0.278325409 0.156000018
v 0.739821553 0.283005059 0.161816597
v 0.743948996 0.282072961 0.161704063
v 0.747333765 0.280089438 0.161631227
v 0.747798741 0.285671234 0.16712749
v 0.749278784 0.283950269 0.166736007
v 0.750480473 0.281998336 0.166140079
v 0.753005028 0.269821584 0.161816597
v 0.755671203 0.277798772 0.16712749
v 0.750986218 0.26884535 0.156000018
v 0.75191313 0.273869157 0.161736965
v 0.753899395 0.279246509 0.166754603
v 0.748325348 0.274131685 0.156000018
v 0.750038087 0.27731511 0.161631227
v 0.751998305 0.280480504 0.166140079
v 0.764178455 0.29518348 0.173994899
v 0.756201267 0.289872468 0.171328783
v 0.765183508 0.294178367 0.173994899
v 0.760150313 0.290070057 0.172371745
v 0.754760683 0.286668897 0.170296073
v 0.759872437 0.286201209 0.171328783
v 0.756687582 0.284727961 0.170244575
v 0.753520608 0.283520609 0.168798089
v -0.273000032 0.282000005 0.156000018
v -0.31099999 0.300999969 0.174999952
v -0.291999996 0.263000011 0.156000018
v -0.279821664 0.283005118 0.161816597
v -0.287798822 0.285671264 0.16712749
v -0.27884528 0.28098619 0.156000018
v -0.283869147 0.281913102 0.161736965
v -0.289246559 0.283899426 0.166754603
v -0.284131646 0.278325319 0.156000018
v -0.287315071 0.280038059 0.161631227
v -0.290480524 0.281998366 0.166140079
v -0.30518347 0.294178396 0.173994899
v -0.299872488 0.286201239 0.171328783
v -0.304178417 0.29518348 0.173994899
v -0.300070018 0.290150285 0.172371745
v -0.296668828 0.284760624 0.170295954
v -0.296201289 0.289872557 0.171328783
v -0.294727951 0.286687613 0.170244575
v -0.2935206 0.283520609 0.168798089
v -0.29098618 0.26884526 0.156000018
v -0.28832534 0.274131656 0.156000018
v -0.293005079 0.269821644 0.161816597
v -0.292072952 0.273948967 0.161704063
v -0.290089428 0.277333796 0.161631227
v -0.295671225 0.277798772 0.167127609
v -0.29395026 0.279278845 0.166736007
v -0.291998327 0.280480534 0.166140079
v -0.287 -0.26000002 0.143000007
v -0.287 -0.275000036 0.157999992
v -0.301999986 -0.26000002 0.157999992
v -0.287 -0.265740246 0.144141793
v -0.287 -0.270606607 0.147393405
v -0.292740226 -0.25999999 0.144141793
v -0.292884082 -0.265884101 0.145519853
v -0.292585552 -0.269843817 0.148156166
v -0.295660257 -0.268660247 0.149339736
v -0.292740196 -0.27385819 0.157999992
v -0.297606587 -0.270606607 0.157999992
v -0.286999971 -0.27385819 0.152259767
v -0.292884111 -0.27248016 0.152115881
v -0.296843797 -0.269843817 0.152414441
v -0.30085817 -0.25999999 0.152259767
v -0.297606587 -0.25999999 0.147393405
v -0.30085817 -0.265740246 0.157999992
v -0.29948011 -0.265884101 0.152115881
v -0.296843797 -0.265585542 0.148156166
v -0.287 -0.275000036 0.157999992
v -0.287 -0.26000002 0.172999978
v -0.301999986 -0.26000002 0.157999992
v -0.286999971 -0.27385819 0.163740277
v -0.287 -0.270606607 0.168606639
v -0.292740196 -0.27385819 0.157999992
v -0.292884111 -0.27248016 0.163884044
v -0.292585552 -0.269843817 0.167843819
v -0.295660257 -0.268660247 0.16666019
v -0.292740226 -0.25999999 0.171858191
v -0.297606587 -0.25999999 0.168606639
v -0.287 -0.265740246 0.171858191
v -0.292884082 -0.265884101 0.170480132
v -0.296843797 -0.265585542 0.167843819
v -0.30085817 -0.265740246 0.157999992
v -0.297606587 -0.270606607 0.157999992
v -0.30085817 -0.25999999 0.163740277
v -0.29948011 -0.265884101 0.163884044
v -0.296843797 -0.269843817 0.163585544
v -0.28700003 0.26000005 0.143000007
v -0.302000046 0.26000002 0.157999992
v -0.28700003 0.275000036 0.157999992
v -0.292740285 0.26000005 0.144141793
v -0.297606647 0.26000005 0.147393405
v -0.28700003 0.265740275 0.144141793
v -0.292884111 0.265884131 0.145519853
v -0.296843857 0.265585601 0.148156166
v -0.295660287 0.268660307 0.149339736
v -0.3008582 0.265740275 0.157999992
v -0.297606647 0.270606637 0.157999992
v -0.3008582 0.26000005 0.152259767
v -0.2994802 0.265884161 0.152115881
v -0.296843827 0.269843817 0.152414441
v -0.287 0.273858219 0.152259767
v -0.28700003 0.270606637 0.147393405
v -0.292740285 0.273858219 0.157999992
v -0.292884111 0.27248019 0.152115881
v -0.292585582 0.269843847 0.148156166
v -0.28700003 0.26000005 0.172999978
v -0.28700003 0.275000036 0.157999992
v -0.302000046 0.26000002 0.157999992
v -0.28700003 0.265740275 0.171858191
v -0.28700003 0.270606637 0.168606639
v -0.292740285 0.26000005 0.171858191
v -0.292884111 0.265884131 0.170480132
v -0.292585582 0.269843847 0.167843819
v -0.295660287 0.268660307 0.16666019
v -0.292740285 0.273858219 0.157999992
v -0.297606647 0.270606637 0.157999992
v -0.287 0.273858219 0.163740277
v -0.292884141 0.27248016 0.163884044
v -0.296843827 0.269843817 0.163585544
v -0.300858229 0.26000005 0.163740277
v -0.297606647 0.26000005 0.168606639
v -0.3008582 0.265740275 0.157999992
v -0.2994802 0.265884161 0.163884044
v -0.296843857 0.265585601 0.167843819
v 0.113000005 -0.26000002 0.143000007
v 0.128000021 -0.26000002 0.157999992
v 0.113000013 -0.275000006 0.157999992
v 0.118740268 -0.26000005 0.144141793
v 0.123606615 -0.26000002 0.147393405
v 0.113000013 -0.265740275 0.144141793
v 0.118884109 -0.265884131 0.145519853
v 0.122843832 -0.265585572 0.148156166
v 0.121660277 -0.268660277 0.149339736
v 0.126858205 -0.265740275 0.157999992
v 0.123606615 -0.270606607 0.157999992
v 0.126858205 -0.26000002 0.152259767
v 0.12548019 -0.265884131 0.152115881
v 0.122843832 -0.269843817 0.152414441
v 0.113000005 -0.27385819 0.152259767
v 0.113000005 -0.270606637 0.147393405
v 0.118740268 -0.273858219 0.157999992
v 0.118884116 -0.27248019 0.152115881
v 0.118585572 -0.269843847 0.148156166
v 0.113000005 -0.26000002 0.172999978
v 0.113000013 -0.275000006 0.157999992
v 0.128000021 -0.26000002 0.157999992
v 0.113000013 -0.265740275 0.171858191
v 0.113000005 -0.270606637 0.168606639
v 0.118740268 -0.26000002 0.171858191
v 0.118884109 -0.265884131 0.170480132
v 0.118585579 -0.269843847 0.167843819
v 0.121660277 -0.268660277 0.16666019
v 0.118740276 -0.27385819 0.157999992
v 0.123606622 -0.270606607 0.157999992
v 0.113000013 -0.27385819 0.163740277
v 0.118884116 -0.27248019 0.163884044
v 0.122843832 -0.269843817 0.163585544
v 0.12685822 -0.26000002 0.163740277
v 0.123606622 -0.26000002 0.168606639
v 0.126858205 -0.265740275 0.157999992
v 0.12548019 -0.265884131 0.163884044
v 0.122843832 -0.265585572 0.167843819
v 0.113000005 0.26000002 0.143000007
v 0.112999998 0.275000036 0.157999992
v 0.127999991 0.26000002 0.157999992
v 0.112999976 0.265740246 0.144141793
v 0.112999983 0.270606577 0.147393405
v 0.118740238 0.25999999 0.144141793
v 0.118884072 0.265884101 0.145519853
v 0.118585542 0.269843817 0.148156166
v 0.12166024 0.268660247 0.149339736
v 0.118740216 0.27385819 0.157999992
v 0.12360657 0.270606607 0.157999992
v 0.112999983 0.27385819 0.152259767
v 0.118884094 0.27248016 0.152115881
v 0.122843809 0.269843817 0.152414441
v 0.126858145 0.25999999 0.152259767
v 0.123606578 0.25999999 0.147393405
v 0.126858175 0.265740246 0.157999992
v 0.125480115 0.265884101 0.152115881
v 0.122843787 0.265585542 0.148156166
v 0.113000005 0.26000002 0.172999978
v 0.127999991 0.26000002 0.157999992
v 0.112999998 0.275000036 0.157999992
v 0.118740268 0.26000002 0.171858191
v 0.123606607 0.25999999 0.168606639
v 0.113000005 0.265740275 0.171858191
v 0.118884102 0.265884101 0.170480132
v 0.122843817 0.265585542 0.167843819
v 0.121660255 0.268660277 0.16666019
v 0.126858175 0.265740275 0.157999992
v 0.123606585 0.270606637 0.157999992
v 0.126858175 0.25999999 0.163740277
v 0.125480145 0.265884101 0.163884044
v 0.122843809 0.269843817 0.163585544
v 0.112999998 0.27385819 0.163740277
v 0.112999998 0.270606607 0.168606639
v 0.118740231 0.27385819 0.157999992
v 0.118884124 0.27248019 0.163884044
v 0.118585557 0.269843817 0.167843819
v -0.274000019 -0.246000007 0.161999941
v -0.273999989 -0.25 0.166000009
v -0.277999997 -0.246000007 0.166000009
v -0.274000019 -0.248828441 0.16317153
v -0.276309431 -0.248309404 0.163690567
v -0.276828438 -0.248828441 0.166000009
v -0.276828438 -0.246000022 0.16317153
v -0.273999989 -0.25 0.169999957
v -0.274000019 -0.246000007 0.174000025
v -0.277999997 -0.246000007 0.169999957
v -0.274000019 -0.248828441 0.172828436
v -0.276309431 -0.248309404 0.172309399
v -0.276828438 -0.246000022 0.172828436
v -0.276828438 -0.248828441 0.169999957
v -0.273999989 0.246000022 0.161999941
v -0.277999997 0.246000022 0.166000009
v -0.273999989 0.25 0.166000009
v -0.276828468 0.246000022 0.16317153
v -0.276309431 0.248309433 0.163690567
v -0.276828468 0.248828441 0.166000009
v -0.274000019 0.248828471 0.16317153
v -0.273999989 0.246000022 0.174000025
v -0.273999989 0.25 0.169999957
v -0.277999997 0.246000022 0.169999957
v -0.273999989 0.248828486 0.172828436
v -0.276309401 0.248309448 0.172309399
v -0.276828438 0.248828456 0.169999957
v -0.276828438 0.246000037 0.172828436
v -0.25999999 -0.246000022 0.161999941
v -0.255999982 -0.246000007 0.166000009
v -0.25999999 -0.25000003 0.166000009
v -0.257171512 -0.246000007 0.16317153
v -0.257690549 -0.248309419 0.163690567
v -0.257171571 -0.248828441 0.166000009
v -0.259999931 -0.248828441 0.16317153
v -0.25999999 -0.246000022 0.174000025
v -0.25999999 -0.25000003 0.169999957
v -0.255999982 -0.246000007 0.169999957
v -0.25999999 -0.248828471 0.172828436
v -0.257690579 -0.248309433 0.172309399
v -0.257171571 -0.248828441 0.169999957
v -0.257171571 -0.246000037 0.172828436
v -0.25999999 0.246000037 0.161999941
v -0.25999999 0.25000003 0.166000009
v -0.255999982 0.246000007 0.166000009
v -0.259999961 0.248828456 0.16317153
v -0.257690549 0.248309433 0.163690567
v -0.257171571 0.248828471 0.166000009
v -0.257171541 0.246000007 0.16317153
v -0.25999999 0.246000037 0.174000025
v -0.255999982 0.246000007 0.169999957
v -0.25999999 0.25000003 0.169999957
v -0.257171541 0.246000007 0.172828436
v -0.257690549 0.248309433 0.172309399
v -0.257171571 0.248828471 0.169999957
v -0.259999961 0.248828456 0.172828436
v 0.0859999806 -0.246000022 0.161999941
v 0.0859999955 -0.25000003 0.166000009
v 0.0820000023 -0.246000022 0.166000009
v 0.0859999731 -0.248828456 0.16317153
v 0.0836905837 -0.248309433 0.163690567
v 0.0831715539 -0.248828441 0.166000009
v 0.0831715316 -0.246000022 0.16317153
v 0.0859999955 -0.25000003 0.169999957
v 0.0859999806 -0.246000022 0.174000025
v 0.0820000023 -0.246000022 0.169999957
v 0.0859999731 -0.248828456 0.172828436
v 0.0836905837 -0.248309433 0.172309399
v 0.0831715316 -0.246000022 0.172828436
v 0.0831715539 -0.248828441 0.169999957
v 0.0859999806 0.246000022 0.161999941
v 0.0820000097 0.245999992 0.166000009
v 0.0859999955 0.25 0.166000009
v 0.0831715465 0.246000022 0.16317153
v 0.0836905614 0.248309404 0.163690567
v 0.0831715539 0.248828441 0.166000009
v 0.0859999806 0.248828441 0.16317153
v 0.0859999806 0.246000022 0.174000025
v 0.0859999955 0.25 0.169999957
v 0.0820000097 0.245999992 0.169999957
v 0.0860000104 0.248828471 0.172828436
v 0.0836905912 0.248309419 0.172309399
v 0.0831715837 0.248828471 0.169999957
v 0.0831715763 0.246000037 0.172828436
v 0.100000009 -0.246000007 0.161999941
v 0.104000017 -0.246000022 0.166000009
v 0.100000024 -0.25 0.166000009
v 0.102828473 -0.246000037 0.16317153
v 0.102309436 -0.248309433 0.163690567
v 0.102828443 -0.248828441 0.166000009
v 0.100000024 -0.248828471 0.16317153
v 0.100000009 -0.246000007 0.174000025
v 0.100000024 -0.25 0.169999957
v 0.104000017 -0.246000022 0.169999957
v 0.100000009 -0.248828471 0.172828436
v 0.102309413 -0.248309448 0.172309399
v 0.102828428 -0.248828456 0.169999957
v 0.102828451 -0.246000051 0.172828436
v 0.100000001 0.246000022 0.161999941
v 0.100000031 0.25 0.166000009
v 0.104000024 0.246000022 0.166000009
v 0.100000031 0.248828471 0.16317153
v 0.102309436 0.248309419 0.163690567
v 0.102828436 0.248828456 0.166000009
v 0.102828458 0.246000022 0.16317153
v 0.100000001 0.246000022 0.174000025
v 0.104000024 0.246000022 0.169999957
v 0.100000031 0.25 0.169999957
v 0.102828458 0.246000022 0.172828436
v 0.102309436 0.248309419 0.172309399
v 0.102828436 0.248828456 0.169999957
v 0.100000031 0.248828471 0.172828436
usemtl glossy_olive_green_plastic_005
f 82 2 111 191
f 3 84 55 29
f 56 83 190 163
f 192 110 327 407
f 30 57 165 137
f 138 164 381 354
f 164 192 407 381
f 218 244 271 298
f 110 138 354 327
f 246 352 380 272
f 273 379 406 299
f 217 325 353 245
f 300 408 326 219
f 1 4 7 6
f 4 5 8 7
f 5 17 18 8
f 6 7 10 9
f 7 8 11 10
f 8 18 19 11
f 2 12 15 14
f 12 13 16 15
f 13 25 26 16
f 14 15 18 17
f 15 16 19 18
f 16 26 27 19
f 3 20 23 22
f 20 21 24 23
f 21 9 10 24
f 22 23 26 25
f 23 24 27 26
f 24 10 11 27
f 11 19 27
f 28 31 34 33
f 31 32 35 34
f 32 44 45 35
f 33 34 37 36
f 34 35 38 37
f 35 45 46 38
f 29 39 42 41
f 39 40 43 42
f 40 52 53 43
f 41 42 45 44
f 42 43 46 45
f 43 53 54 46
f 30 47 50 49
f 47 48 51 50
f 48 36 37 51
f 49 50 53 52
f 50 51 54 53
f 51 37 38 54
f 38 46 54
f 55 58 61 60
f 58 59 62 61
f 59 71 72 62
f 60 61 64 63
f 61 62 65 64
f 62 72 73 65
f 56 66 69 68
f 66 67 70 69
f 67 79 80 70
f 68 69 72 71
f 69 70 73 72
f 70 80 81 73
f 57 74 77 76
f 74 75 78 77
f 75 63 64 78
f 76 77 80 79
f 77 78 81 80
f 78 64 65 81
f 65 73 81
f 82 85 88 87
f 85 86 89 88
f 86 98 99 89
f 87 88 91 90
f 88 89 92 91
f 89 99 100 92
f 83 93 96 95
f 93 94 97 96
f 94 106 107 97
f 95 96 99 98
f 96 97 100 99
f 97 107 108 100
f 84 101 104 103
f 101 102 105 104
f 102 90 91 105
f 103 104 107 106
f 104 105 108 107
f 105 91 92 108
f 92 100 108
f 109 112 115 114
f 112 113 116 115
f 113 125 126 116
f 114 115 118 117
f 115 116 119 118
f 116 126 127 119
f 110 120 123 122
f 120 121 124 123
f 121 133 134 124
f 122 123 126 125
f 123 124 127 126
f 124 134 135 127
f 111 128 131 130
f 128 129 132 131
f 129 117 118 132
f 130 131 134 133
f 131 132 135 134
f 132 118 119 135
f 119 127 135
f 136 139 142 141
f 139 140 143 142
f 140 152 153 143
f 141 142 145 144
f 142 143 146 145
f 143 153 154 146
f 137 147 150 149
f 147 148 151 150
f 148 160 161 151
f 149 150 153 152
f 150 151 154 153
f 151 161 162 154
f 138 155 158 157
f 155 156 159 158
f 156 144 145 159
f 157 158 161 160
f 158 159 162 161
f 159 145 146 162
f 146 154 162
f 163 166 169 168
f 166 167 170 169
f 167 179 180 170
f 168 169 172 171
f 169 170 173 172
f 170 180 181 173
f 164 174 177 176
f 174 175 178 177
f 175 187 188 178
f 176 177 180 179
f 177 178 181 180
f 178 188 189 181
f 165 182 185 184
f 182 183 186 185
f 183 171 172 186
f 184 185 188 187
f 185 186 189 188
f 186 172 173 189
f 173 181 189
f 190 193 196 195
f 193 194 197 196
f 194 206 207 197
f 195 196 199 198
f 196 197 200 199
f 197 207 208 200
f 191 201 204 203
f 201 202 205 204
f 202 214 215 205
f 203 204 207 206
f 204 205 208 207
f 205 215 216 208
f 192 209 212 211
f 209 210 213 212
f 210 198 199 213
f 211 212 215 214
f 212 213 216 215
f 213 199 200 216
f 200 208 216
f 217 220 223 222
f 220 221 224 223
f 221 233 234 224
f 222 223 226 225
f 223 224 227 226
f 224 234 235 227
f 218 228 231 230
f 228 229 232 231
f 229 241 242 232
f 230 231 234 233
f 231 232 235 234
f 232 242 243 235
f 219 236 239 238
f 236 237 240 239
f 237 225 226 240
f 238 239 242 241
f 239 240 243 242
f 240 226 227 243
f 227 235 243
f 244 247 250 249
f 247 248 251 250
f 248 260 261 251
f 249 250 253 252
f 250 251 254 253
f 251 261 262 254
f 245 255 258 257
f 255 256 259 258
f 256 268 269 259
f 257 258 261 260
f 258 259 262 261
f 259 269 270 262
f 246 263 266 265
f 263 264 267 266
f 264 252 253 267
f 265 266 269 268
f 266 267 270 269
f 267 253 254 270
f 254 262 270
f 271 274 277 276
f 274 275 278 277
f 275 287 288 278
f 276 277 280 279
f 277 278 281 280
f 278 288 289 281
f 272 282 285 284
f 282 283 286 285
f 283 295 296 286
f 284 285 288 287
f 285 286 289 288
f 286 296 297 289
f 273 290 293 292
f 290 291 294 293
f 291 279 280 294
f 292 293 296 295
f 293 294 297 296
f 294 280 281 297
f 281 289 297
f 298 301 304 303
f 301 302 305 304
f 302 314 315 305
f 303 304 307 306
f 304 305 308 307
f 305 315 316 308
f 299 309 312 311
f 309 310 313 312
f 310 322 323 313
f 311 312 315 314
f 312 313 316 315
f 313 323 324 316
f 300 317 320 319
f 317 318 321 320
f 318 306 307 321
f 319 320 323 322
f 320 321 324 323
f 321 307 308 324
f 308 316 324
f 325 328 331 330
f 328 329 332 331
f 329 341 342 332
f 330 331 334 333
f 331 332 335 334
f 332 342 343 335
f 326 336 339 338
f 336 337 340 339
f 337 349 350 340
f 338 339 342 341
f 339 340 343 342
f 340 350 351 343
f 327 344 347 346
f 344 345 348 347
f 345 333 334 348
f 346 347 350 349
f 347 348 351 350
f 348 334 335 351
f 335 343 351
f 352 355 358 357
f 355 356 359 358
f 356 368 369 359
f 357 358 361 360
f 358 359 362 361
f 359 369 370 362
f 353 363 366 365
f 363 364 367 366
f 364 376 377 367
f 365 366 369 368
f 366 367 370 369
f 367 377 378 370
f 354 371 374 373
f 371 372 375 374
f 372 360 361 375
f 373 374 377 376
f 374 375 378 377
f 375 361 362 378
f 362 370 378
f 379 382 385 384
f 382 383 386 385
f 383 395 396 386
f 384 385 388 387
f 385 386 389 388
f 386 396 397 389
f 380 390 393 392
f 390 391 394 393
f 391 403 404 394
f 392 393 396 395
f 393 394 397 396
f 394 404 405 397
f 381 398 401 400
f 398 399 402 401
f 399 387 388 402
f 400 401 404 403
f 401 402 405 404
f 402 388 389 405
f 389 397 405
f 406 409 412 411
f 409 410 413 412
f 410 422 423 413
f 411 412 415 414
f 412 413 416 415
f 413 423 424 416
f 407 417 420 419
f 417 418 421 420
f 418 430 431 421
f 419 420 423 422
f 420 421 424 423
f 421 431 432 424
f 408 425 428 427
f 425 426 429 428
f 426 414 415 429
f 427 428 431 430
f 428 429 432 431
f 429 415 416 432
f 416 424 432
f 3 29 41 20
f 20 41 44 21
f 21 44 32 9
f 9 32 31 6
f 6 31 28 1
f 29 55 60 39
f 39 60 63 40
f 40 63 75 52
f 52 75 74 49
f 49 74 57 30
f 2 82 87 12
f 12 87 90 13
f 13 90 102 25
f 25 102 101 22
f 22 101 84 3
f 1 109 114 4
f 4 114 117 5
f 5 117 129 17
f 17 129 128 14
f 14 128 111 2
f 30 137 149 47
f 47 149 152 48
f 48 152 140 36
f 36 140 139 33
f 33 139 136 28
f 56 163 168 66
f 66 168 171 67
f 67 171 183 79
f 79 183 182 76
f 76 182 165 57
f 137 165 184 147
f 147 184 187 148
f 148 187 175 160
f 160 175 174 157
f 157 174 164 138
f 217 245 257 220
f 220 257 260 221
f 221 260 248 233
f 233 248 247 230
f 230 247 244 218
f 245 353 365 255
f 255 365 368 256
f 256 368 356 268
f 268 356 355 265
f 265 355 352 246
f 273 299 311 290
f 290 311 314 291
f 291 314 302 279
f 279 302 301 276
f 276 301 298 271
f 163 190 195 166
f 166 195 198 167
f 167 198 210 179
f 179 210 209 176
f 176 209 192 164
f 110 192 211 120
f 120 211 214 121
f 121 214 202 133
f 133 202 201 130
f 130 201 191 111
f 272 380 392 282
f 282 392 395 283
f 283 395 383 295
f 295 383 382 292
f 292 382 379 273
f 55 84 103 58
f 58 103 106 59
f 59 106 94 71
f 71 94 93 68
f 68 93 83 56
f 327 354 373 344
f 344 373 376 345
f 345 376 364 333
f 333 364 363 330
f 330 363 353 325
f 299 406 411 309
f 309 411 414 310
f 310 414 426 322
f 322 426 425 319
f 319 425 408 300
f 326 408 427 336
f 336 427 430 337
f 337 430 418 349
f 349 418 417 346
f 346 417 407 327
f 354 381 400 371
f 371 400 403 372
f 372 403 391 360
f 360 391 390 357
f 357 390 380 352
f 381 407 419 398
f 398 419 422 399
f 399 422 410 387
f 387 410 409 384
f 384 409 406 379
f 218 298 303 228
f 228 303 306 229
f 229 306 318 241
f 241 318 317 238
f 238 317 300 219
f 109 136 141 112
f 112 141 144 113
f 113 144 156 125
f 125 156 155 122
f 122 155 138 110
f 246 272 284 263
f 263 284 287 264
f 264 287 275 252
f 252 275 274 249
f 249 274 271 244
f 82 191 203 85
f 85 203 206 86
f 86 206 194 98
f 98 194 193 95
f 95 193 190 83
f 219 326 338 236
f 236 338 341 237
f 237 341 329 225
f 225 329 328 222
f 222 328 325 217
f 1 28 136 109
f 511 529 452 434
f 549 567 530 510
f 566 490 453 528
f 435 454 492 472
f 473 491 568 548
f 433 436 439 438
f 436 437 440 439
f 438 439 451 448
f 439 440 441 451
f 434 442 445 444
f 442 443 446 445
f 444 445 440 437
f 445 446 441 440
f 435 447 450 449
f 447 448 451 450
f 449 450 446 443
f 450 451 441 446
f 452 455 458 457
f 455 456 459 458
f 457 458 470 467
f 458 459 460 470
f 453 461 464 463
f 461 462 465 464
f 463 464 459 456
f 464 465 460 459
f 454 466 469 468
f 466 467 470 469
f 468 469 465 462
f 469 470 460 465
f 471 474 477 476
f 474 475 478 477
f 476 477 489 486
f 477 478 479 489
f 472 480 483 482
f 480 481 484 483
f 482 483 478 475
f 483 484 479 478
f 473 485 488 487
f 485 486 489 488
f 487 488 484 481
f 488 489 479 484
f 490 493 496 495
f 493 494 497 496
f 495 496 508 505
f 496 497 498 508
f 491 499 502 501
f 499 500 503 502
f 501 502 497 494
f 502 503 498 497
f 492 504 507 506
f 504 505 508 507
f 506 507 503 500
f 507 508 498 503
f 509 512 515 514
f 512 513 516 515
f 514 515 527 524
f 515 516 517 527
f 510 518 521 520
f 518 519 522 521
f 520 521 516 513
f 521 522 517 516
f 511 523 526 525
f 523 524 527 526
f 525 526 522 519
f 526 527 517 522
f 528 531 534 533
f 531 532 535 534
f 533 534 546 543
f 534 535 536 546
f 529 537 540 539
f 537 538 541 540
f 539 540 535 532
f 540 541 536 535
f 530 542 545 544
f 542 543 546 545
f 544 545 541 538
f 545 546 536 541
f 547 550 553 552
f 550 551 554 553
f 552 553 565 562
f 553 554 555 565
f 548 556 559 558
f 556 557 560 559
f 558 559 554 551
f 559 560 555 554
f 549 561 564 563
f 561 562 565 564
f 563 564 560 557
f 564 565 555 560
f 566 569 572 571
f 569 570 573 572
f 571 572 584 581
f 572 573 574 584
f 567 575 578 577
f 575 576 579 578
f 577 578 573 570
f 578 579 574 573
f 568 580 583 582
f 580 581 584 583
f 582 583 579 576
f 583 584 574 579
f 471 433 438 474
f 474 438 448 475
f 475 448 447 482
f 482 447 435 472
f 434 452 457 442
f 442 457 467 443
f 443 467 466 449
f 449 466 454 435
f 453 490 495 461
f 461 495 505 462
f 462 505 504 468
f 468 504 492 454
f 491 473 487 499
f 499 487 481 500
f 500 481 480 506
f 506 480 472 492
f 547 471 476 550
f 550 476 486 551
f 551 486 485 558
f 558 485 473 548
f 490 566 571 493
f 493 571 581 494
f 494 581 580 501
f 501 580 568 491
f 567 549 563 575
f 575 563 557 576
f 576 557 556 582
f 582 556 548 568
f 509 547 552 512
f 512 552 562 513
f 513 562 561 520
f 520 561 549 510
f 566 528 533 569
f 569 533 543 570
f 570 543 542 577
f 577 542 530 567
f 529 511 525 537
f 537 525 519 538
f 538 519 518 544
f 544 518 510 530
f 433 509 514 436
f 436 514 524 437
f 437 524 523 444
f 444 523 511 434
f 528 453 463 531
f 531 463 456 532
f 532 456 455 539
f 539 455 452 529
f 471 547 509 433
f 615 621 592 586
f 629 635 622 614
f 634 606 593 620
f 587 594 608 600
f 601 607 636 628
f 585 588 589 591
f 586 590 589 588
f 587 591 589 590
f 592 595 596 598
f 593 597 596 595
f 594 598 596 597
f 599 602 603 605
f 600 604 603 602
f 601 605 603 604
f 606 609 610 612
f 607 611 610 609
f 608 612 610 611
f 613 616 617 619
f 614 618 617 616
f 615 619 617 618
f 620 623 624 626
f 621 625 624 623
f 622 626 624 625
f 627 630 631 633
f 628 632 631 630
f 629 633 631 632
f 634 637 638 640
f 635 639 638 637
f 636 640 638 639
f 599 585 591 602
f 602 591 587 600
f 586 592 598 590
f 590 598 594 587
f 593 606 612 597
f 597 612 608 594
f 607 601 604 611
f 611 604 600 608
f 627 599 605 630
f 630 605 601 628
f 606 634 640 609
f 609 640 636 607
f 635 629 632 639
f 639 632 628 636
f 613 627 633 616
f 616 633 629 614
f 634 620 626 637
f 637 626 622 635
f 621 615 618 625
f 625 618 614 622
f 585 613 619 588
f 588 619 615 586
f 620 593 595 623
f 623 595 592 621
f 599 627 613 585
f 671 677 648 642
f 685 691 678 670
f 690 662 649 676
f 643 650 664 656
f 657 663 692 684
f 641 644 645 647
f 642 646 645 644
f 643 647 645 646
f 648 651 652 654
f 649 653 652 651
f 650 654 652 653
f 655 658 659 661
f 656 660 659 658
f 657 661 659 660
f 662 665 666 668
f 663 667 666 665
f 664 668 666 667
f 669 672 673 675
f 670 674 673 672
f 671 675 673 674
f 676 679 680 682
f 677 681 680 679
f 678 682 680 681
f 683 686 687 689
f 684 688 687 686
f 685 689 687 688
f 690 693 694 696
f 691 695 694 693
f 692 696 694 695
f 655 641 647 658
f 658 647 643 656
f 642 648 654 646
f 646 654 650 643
f 649 662 668 653
f 653 668 664 650
f 663 657 660 667
f 667 660 656 664
f 683 655 661 686
f 686 661 657 684
f 662 690 696 665
f 665 696 692 663
f 691 685 688 695
f 695 688 684 692
f 669 683 689 672
f 672 689 685 670
f 690 676 682 693
f 693 682 678 691
f 677 671 674 681
f 681 674 670 678
f 641 669 675 644
f 644 675 671 642
f 676 649 651 679
f 679 651 648 677
f 655 683 669 641
